G04 (created by PCBNEW (22-Jun-2014 BZR 4027)-stable) date Tue 01 Mar 2016 04:07:57 PM CST*
%MOIN*%
G04 Gerber Fmt 3.4, Leading zero omitted, Abs format*
%FSLAX34Y34*%
G01*
G70*
G90*
G04 APERTURE LIST*
%ADD10C,0.00590551*%
%ADD11C,0.06*%
%ADD12C,0.066*%
%ADD13C,0.4*%
%ADD14C,0.01*%
G04 APERTURE END LIST*
G54D10*
G54D11*
X80000Y-48500D03*
X84000Y-48500D03*
G54D12*
X89000Y-48500D03*
X90000Y-48500D03*
G54D13*
X79100Y-44500D03*
X90900Y-44500D03*
X85000Y-44500D03*
G54D14*
X80000Y-48500D02*
X79500Y-48500D01*
X79000Y-44600D02*
X79100Y-44500D01*
X79000Y-48000D02*
X79000Y-44600D01*
X79500Y-48500D02*
X79000Y-48000D01*
X84000Y-48500D02*
X89000Y-48500D01*
X90000Y-48500D02*
X90500Y-48500D01*
X91000Y-44600D02*
X90900Y-44500D01*
X91000Y-48000D02*
X91000Y-44600D01*
X90500Y-48500D02*
X91000Y-48000D01*
G54D10*
G36*
X94450Y-49950D02*
X93150Y-49950D01*
X93150Y-44054D01*
X92808Y-43227D01*
X92176Y-42593D01*
X91349Y-42250D01*
X90454Y-42249D01*
X89627Y-42591D01*
X88993Y-43223D01*
X88650Y-44050D01*
X88649Y-44945D01*
X88991Y-45772D01*
X89623Y-46406D01*
X90450Y-46749D01*
X90700Y-46749D01*
X90700Y-47875D01*
X90447Y-48127D01*
X90328Y-48008D01*
X90115Y-47920D01*
X89885Y-47919D01*
X89671Y-48008D01*
X89508Y-48171D01*
X89500Y-48191D01*
X89491Y-48171D01*
X89328Y-48008D01*
X89115Y-47920D01*
X88885Y-47919D01*
X88671Y-48008D01*
X88508Y-48171D01*
X88496Y-48200D01*
X87257Y-48200D01*
X87257Y-44091D01*
X87250Y-44073D01*
X87250Y-44054D01*
X87086Y-43658D01*
X86929Y-43258D01*
X86909Y-43228D01*
X86908Y-43227D01*
X86907Y-43225D01*
X86884Y-43192D01*
X86805Y-43123D01*
X86371Y-42689D01*
X86307Y-42615D01*
X86289Y-42607D01*
X86276Y-42593D01*
X85880Y-42429D01*
X85486Y-42258D01*
X85467Y-42257D01*
X85449Y-42250D01*
X85020Y-42250D01*
X84591Y-42242D01*
X84573Y-42249D01*
X84554Y-42249D01*
X84158Y-42413D01*
X83758Y-42570D01*
X83728Y-42590D01*
X83727Y-42591D01*
X83725Y-42592D01*
X83692Y-42615D01*
X83623Y-42694D01*
X83189Y-43128D01*
X83115Y-43192D01*
X83107Y-43210D01*
X83093Y-43223D01*
X82929Y-43619D01*
X82758Y-44013D01*
X82757Y-44032D01*
X82750Y-44050D01*
X82750Y-44479D01*
X82742Y-44908D01*
X82749Y-44926D01*
X82749Y-44945D01*
X82913Y-45341D01*
X83070Y-45741D01*
X83090Y-45771D01*
X83091Y-45772D01*
X83092Y-45774D01*
X83115Y-45807D01*
X83194Y-45876D01*
X83628Y-46310D01*
X83692Y-46384D01*
X83710Y-46392D01*
X83723Y-46406D01*
X84119Y-46570D01*
X84513Y-46741D01*
X84532Y-46742D01*
X84550Y-46749D01*
X84979Y-46749D01*
X85408Y-46757D01*
X85426Y-46750D01*
X85445Y-46750D01*
X85841Y-46586D01*
X86241Y-46429D01*
X86271Y-46409D01*
X86272Y-46408D01*
X86274Y-46407D01*
X86307Y-46384D01*
X86376Y-46305D01*
X86810Y-45871D01*
X86884Y-45807D01*
X86892Y-45789D01*
X86906Y-45776D01*
X87070Y-45380D01*
X87241Y-44986D01*
X87242Y-44967D01*
X87249Y-44949D01*
X87249Y-44520D01*
X87257Y-44091D01*
X87257Y-48200D01*
X84471Y-48200D01*
X84466Y-48188D01*
X84311Y-48034D01*
X84109Y-47950D01*
X83891Y-47949D01*
X83688Y-48033D01*
X83534Y-48188D01*
X83450Y-48390D01*
X83449Y-48608D01*
X83533Y-48811D01*
X83688Y-48965D01*
X83890Y-49049D01*
X84108Y-49050D01*
X84311Y-48966D01*
X84465Y-48811D01*
X84470Y-48800D01*
X88496Y-48800D01*
X88508Y-48828D01*
X88671Y-48991D01*
X88884Y-49079D01*
X89114Y-49080D01*
X89328Y-48991D01*
X89491Y-48828D01*
X89499Y-48808D01*
X89508Y-48828D01*
X89671Y-48991D01*
X89884Y-49079D01*
X90114Y-49080D01*
X90328Y-48991D01*
X90491Y-48828D01*
X90503Y-48799D01*
X90614Y-48777D01*
X90614Y-48777D01*
X90712Y-48712D01*
X91212Y-48212D01*
X91212Y-48212D01*
X91277Y-48114D01*
X91299Y-48000D01*
X91300Y-48000D01*
X91300Y-46750D01*
X91345Y-46750D01*
X92172Y-46408D01*
X92806Y-45776D01*
X93149Y-44949D01*
X93150Y-44054D01*
X93150Y-49950D01*
X81350Y-49950D01*
X81350Y-44054D01*
X81008Y-43227D01*
X80376Y-42593D01*
X79549Y-42250D01*
X78654Y-42249D01*
X77827Y-42591D01*
X77193Y-43223D01*
X76850Y-44050D01*
X76849Y-44945D01*
X77191Y-45772D01*
X77823Y-46406D01*
X78650Y-46749D01*
X78700Y-46749D01*
X78700Y-48000D01*
X78722Y-48114D01*
X78787Y-48212D01*
X79287Y-48712D01*
X79287Y-48712D01*
X79385Y-48777D01*
X79500Y-48800D01*
X79528Y-48800D01*
X79533Y-48811D01*
X79688Y-48965D01*
X79890Y-49049D01*
X80108Y-49050D01*
X80311Y-48966D01*
X80465Y-48811D01*
X80549Y-48609D01*
X80550Y-48391D01*
X80466Y-48188D01*
X80311Y-48034D01*
X80109Y-47950D01*
X79891Y-47949D01*
X79688Y-48033D01*
X79573Y-48148D01*
X79300Y-47875D01*
X79300Y-46750D01*
X79545Y-46750D01*
X80372Y-46408D01*
X81006Y-45776D01*
X81349Y-44949D01*
X81350Y-44054D01*
X81350Y-49950D01*
X75050Y-49950D01*
X75050Y-40550D01*
X94450Y-40550D01*
X94450Y-49950D01*
X94450Y-49950D01*
G37*
G54D14*
X94450Y-49950D02*
X93150Y-49950D01*
X93150Y-44054D01*
X92808Y-43227D01*
X92176Y-42593D01*
X91349Y-42250D01*
X90454Y-42249D01*
X89627Y-42591D01*
X88993Y-43223D01*
X88650Y-44050D01*
X88649Y-44945D01*
X88991Y-45772D01*
X89623Y-46406D01*
X90450Y-46749D01*
X90700Y-46749D01*
X90700Y-47875D01*
X90447Y-48127D01*
X90328Y-48008D01*
X90115Y-47920D01*
X89885Y-47919D01*
X89671Y-48008D01*
X89508Y-48171D01*
X89500Y-48191D01*
X89491Y-48171D01*
X89328Y-48008D01*
X89115Y-47920D01*
X88885Y-47919D01*
X88671Y-48008D01*
X88508Y-48171D01*
X88496Y-48200D01*
X87257Y-48200D01*
X87257Y-44091D01*
X87250Y-44073D01*
X87250Y-44054D01*
X87086Y-43658D01*
X86929Y-43258D01*
X86909Y-43228D01*
X86908Y-43227D01*
X86907Y-43225D01*
X86884Y-43192D01*
X86805Y-43123D01*
X86371Y-42689D01*
X86307Y-42615D01*
X86289Y-42607D01*
X86276Y-42593D01*
X85880Y-42429D01*
X85486Y-42258D01*
X85467Y-42257D01*
X85449Y-42250D01*
X85020Y-42250D01*
X84591Y-42242D01*
X84573Y-42249D01*
X84554Y-42249D01*
X84158Y-42413D01*
X83758Y-42570D01*
X83728Y-42590D01*
X83727Y-42591D01*
X83725Y-42592D01*
X83692Y-42615D01*
X83623Y-42694D01*
X83189Y-43128D01*
X83115Y-43192D01*
X83107Y-43210D01*
X83093Y-43223D01*
X82929Y-43619D01*
X82758Y-44013D01*
X82757Y-44032D01*
X82750Y-44050D01*
X82750Y-44479D01*
X82742Y-44908D01*
X82749Y-44926D01*
X82749Y-44945D01*
X82913Y-45341D01*
X83070Y-45741D01*
X83090Y-45771D01*
X83091Y-45772D01*
X83092Y-45774D01*
X83115Y-45807D01*
X83194Y-45876D01*
X83628Y-46310D01*
X83692Y-46384D01*
X83710Y-46392D01*
X83723Y-46406D01*
X84119Y-46570D01*
X84513Y-46741D01*
X84532Y-46742D01*
X84550Y-46749D01*
X84979Y-46749D01*
X85408Y-46757D01*
X85426Y-46750D01*
X85445Y-46750D01*
X85841Y-46586D01*
X86241Y-46429D01*
X86271Y-46409D01*
X86272Y-46408D01*
X86274Y-46407D01*
X86307Y-46384D01*
X86376Y-46305D01*
X86810Y-45871D01*
X86884Y-45807D01*
X86892Y-45789D01*
X86906Y-45776D01*
X87070Y-45380D01*
X87241Y-44986D01*
X87242Y-44967D01*
X87249Y-44949D01*
X87249Y-44520D01*
X87257Y-44091D01*
X87257Y-48200D01*
X84471Y-48200D01*
X84466Y-48188D01*
X84311Y-48034D01*
X84109Y-47950D01*
X83891Y-47949D01*
X83688Y-48033D01*
X83534Y-48188D01*
X83450Y-48390D01*
X83449Y-48608D01*
X83533Y-48811D01*
X83688Y-48965D01*
X83890Y-49049D01*
X84108Y-49050D01*
X84311Y-48966D01*
X84465Y-48811D01*
X84470Y-48800D01*
X88496Y-48800D01*
X88508Y-48828D01*
X88671Y-48991D01*
X88884Y-49079D01*
X89114Y-49080D01*
X89328Y-48991D01*
X89491Y-48828D01*
X89499Y-48808D01*
X89508Y-48828D01*
X89671Y-48991D01*
X89884Y-49079D01*
X90114Y-49080D01*
X90328Y-48991D01*
X90491Y-48828D01*
X90503Y-48799D01*
X90614Y-48777D01*
X90614Y-48777D01*
X90712Y-48712D01*
X91212Y-48212D01*
X91212Y-48212D01*
X91277Y-48114D01*
X91299Y-48000D01*
X91300Y-48000D01*
X91300Y-46750D01*
X91345Y-46750D01*
X92172Y-46408D01*
X92806Y-45776D01*
X93149Y-44949D01*
X93150Y-44054D01*
X93150Y-49950D01*
X81350Y-49950D01*
X81350Y-44054D01*
X81008Y-43227D01*
X80376Y-42593D01*
X79549Y-42250D01*
X78654Y-42249D01*
X77827Y-42591D01*
X77193Y-43223D01*
X76850Y-44050D01*
X76849Y-44945D01*
X77191Y-45772D01*
X77823Y-46406D01*
X78650Y-46749D01*
X78700Y-46749D01*
X78700Y-48000D01*
X78722Y-48114D01*
X78787Y-48212D01*
X79287Y-48712D01*
X79287Y-48712D01*
X79385Y-48777D01*
X79500Y-48800D01*
X79528Y-48800D01*
X79533Y-48811D01*
X79688Y-48965D01*
X79890Y-49049D01*
X80108Y-49050D01*
X80311Y-48966D01*
X80465Y-48811D01*
X80549Y-48609D01*
X80550Y-48391D01*
X80466Y-48188D01*
X80311Y-48034D01*
X80109Y-47950D01*
X79891Y-47949D01*
X79688Y-48033D01*
X79573Y-48148D01*
X79300Y-47875D01*
X79300Y-46750D01*
X79545Y-46750D01*
X80372Y-46408D01*
X81006Y-45776D01*
X81349Y-44949D01*
X81350Y-44054D01*
X81350Y-49950D01*
X75050Y-49950D01*
X75050Y-40550D01*
X94450Y-40550D01*
X94450Y-49950D01*
M02*
