G04 (created by PCBNEW (22-Jun-2014 BZR 4027)-stable) date Wed 02 May 2018 01:52:57 PM CST*
%MOIN*%
G04 Gerber Fmt 3.4, Leading zero omitted, Abs format*
%FSLAX34Y34*%
G01*
G70*
G90*
G04 APERTURE LIST*
%ADD10C,0.00393701*%
%ADD11R,0.0570866X0.0177165*%
%ADD12R,0.0748031X0.0314961*%
%ADD13R,0.0511811X0.0314961*%
%ADD14R,0.0472441X0.0295276*%
%ADD15R,0.0295276X0.0472441*%
%ADD16R,0.0787402X0.0590551*%
%ADD17C,0.0590551*%
%ADD18R,0.05X0.038*%
%ADD19C,0.0610236*%
%ADD20C,0.023622*%
%ADD21C,0.00708661*%
%ADD22C,0.01*%
G04 APERTURE END LIST*
G54D10*
G54D11*
X91099Y-56499D03*
X91099Y-56243D03*
X91099Y-55987D03*
X91099Y-55731D03*
X91099Y-55475D03*
X91099Y-55220D03*
X91099Y-54964D03*
X91099Y-54708D03*
X91099Y-54452D03*
X91099Y-54196D03*
X88776Y-54196D03*
X88776Y-54452D03*
X88776Y-54708D03*
X88776Y-54964D03*
X88776Y-55220D03*
X88776Y-55475D03*
X88776Y-55731D03*
X88776Y-55987D03*
X88776Y-56243D03*
X88776Y-56499D03*
G54D12*
X95931Y-42981D03*
X95931Y-43730D03*
X97112Y-43356D03*
G54D13*
X102447Y-58226D03*
X102447Y-57723D03*
X102447Y-57226D03*
X102447Y-56726D03*
X102447Y-56223D03*
X102447Y-55723D03*
X102447Y-55226D03*
X102447Y-54723D03*
X99966Y-54723D03*
X99966Y-55226D03*
X99966Y-55723D03*
X99966Y-56223D03*
X99966Y-56726D03*
X99966Y-57226D03*
X99966Y-57723D03*
X99966Y-58226D03*
G54D14*
X103954Y-56220D03*
X103205Y-56220D03*
X95945Y-42282D03*
X96694Y-42282D03*
G54D15*
X92716Y-55076D03*
X92716Y-54327D03*
X92050Y-54824D03*
X92050Y-54075D03*
X108970Y-46756D03*
X108970Y-46007D03*
X89430Y-46760D03*
X89430Y-46011D03*
G54D16*
X93889Y-45398D03*
X91134Y-43902D03*
X91134Y-42563D03*
X91134Y-45398D03*
X93889Y-43902D03*
G54D17*
X92512Y-42917D03*
X92512Y-45280D03*
G54D16*
X93889Y-42563D03*
G54D10*
G36*
X95458Y-54623D02*
X95065Y-54623D01*
X95065Y-54504D01*
X95458Y-54504D01*
X95458Y-54623D01*
X95458Y-54623D01*
G37*
G36*
X95458Y-54426D02*
X95065Y-54426D01*
X95065Y-54308D01*
X95458Y-54308D01*
X95458Y-54426D01*
X95458Y-54426D01*
G37*
G36*
X95458Y-54229D02*
X95065Y-54229D01*
X95065Y-54111D01*
X95458Y-54111D01*
X95458Y-54229D01*
X95458Y-54229D01*
G37*
G36*
X95458Y-54032D02*
X95065Y-54032D01*
X95065Y-53914D01*
X95458Y-53914D01*
X95458Y-54032D01*
X95458Y-54032D01*
G37*
G36*
X95458Y-53835D02*
X95065Y-53835D01*
X95065Y-53717D01*
X95458Y-53717D01*
X95458Y-53835D01*
X95458Y-53835D01*
G37*
G36*
X95458Y-53638D02*
X95065Y-53638D01*
X95065Y-53520D01*
X95458Y-53520D01*
X95458Y-53638D01*
X95458Y-53638D01*
G37*
G36*
X95458Y-53441D02*
X95065Y-53441D01*
X95065Y-53323D01*
X95458Y-53323D01*
X95458Y-53441D01*
X95458Y-53441D01*
G37*
G36*
X95458Y-53245D02*
X95065Y-53245D01*
X95065Y-53126D01*
X95458Y-53126D01*
X95458Y-53245D01*
X95458Y-53245D01*
G37*
G36*
X95458Y-53048D02*
X95065Y-53048D01*
X95065Y-52930D01*
X95458Y-52930D01*
X95458Y-53048D01*
X95458Y-53048D01*
G37*
G36*
X95458Y-52851D02*
X95065Y-52851D01*
X95065Y-52733D01*
X95458Y-52733D01*
X95458Y-52851D01*
X95458Y-52851D01*
G37*
G36*
X95458Y-52654D02*
X95065Y-52654D01*
X95065Y-52536D01*
X95458Y-52536D01*
X95458Y-52654D01*
X95458Y-52654D01*
G37*
G36*
X95458Y-52457D02*
X95065Y-52457D01*
X95065Y-52339D01*
X95458Y-52339D01*
X95458Y-52457D01*
X95458Y-52457D01*
G37*
G36*
X95458Y-52260D02*
X95065Y-52260D01*
X95065Y-52142D01*
X95458Y-52142D01*
X95458Y-52260D01*
X95458Y-52260D01*
G37*
G36*
X95458Y-52064D02*
X95065Y-52064D01*
X95065Y-51945D01*
X95458Y-51945D01*
X95458Y-52064D01*
X95458Y-52064D01*
G37*
G36*
X95458Y-51867D02*
X95065Y-51867D01*
X95065Y-51749D01*
X95458Y-51749D01*
X95458Y-51867D01*
X95458Y-51867D01*
G37*
G36*
X95458Y-51670D02*
X95065Y-51670D01*
X95065Y-51552D01*
X95458Y-51552D01*
X95458Y-51670D01*
X95458Y-51670D01*
G37*
G36*
X95458Y-51473D02*
X95065Y-51473D01*
X95065Y-51355D01*
X95458Y-51355D01*
X95458Y-51473D01*
X95458Y-51473D01*
G37*
G36*
X95458Y-51276D02*
X95065Y-51276D01*
X95065Y-51158D01*
X95458Y-51158D01*
X95458Y-51276D01*
X95458Y-51276D01*
G37*
G36*
X95458Y-51079D02*
X95065Y-51079D01*
X95065Y-50961D01*
X95458Y-50961D01*
X95458Y-51079D01*
X95458Y-51079D01*
G37*
G36*
X95458Y-50882D02*
X95065Y-50882D01*
X95065Y-50764D01*
X95458Y-50764D01*
X95458Y-50882D01*
X95458Y-50882D01*
G37*
G36*
X95458Y-50686D02*
X95065Y-50686D01*
X95065Y-50567D01*
X95458Y-50567D01*
X95458Y-50686D01*
X95458Y-50686D01*
G37*
G36*
X95458Y-50489D02*
X95065Y-50489D01*
X95065Y-50371D01*
X95458Y-50371D01*
X95458Y-50489D01*
X95458Y-50489D01*
G37*
G36*
X95458Y-50292D02*
X95065Y-50292D01*
X95065Y-50174D01*
X95458Y-50174D01*
X95458Y-50292D01*
X95458Y-50292D01*
G37*
G36*
X95458Y-50095D02*
X95065Y-50095D01*
X95065Y-49977D01*
X95458Y-49977D01*
X95458Y-50095D01*
X95458Y-50095D01*
G37*
G36*
X95458Y-49898D02*
X95065Y-49898D01*
X95065Y-49780D01*
X95458Y-49780D01*
X95458Y-49898D01*
X95458Y-49898D01*
G37*
G36*
X95458Y-49701D02*
X95065Y-49701D01*
X95065Y-49583D01*
X95458Y-49583D01*
X95458Y-49701D01*
X95458Y-49701D01*
G37*
G36*
X95458Y-49504D02*
X95065Y-49504D01*
X95065Y-49386D01*
X95458Y-49386D01*
X95458Y-49504D01*
X95458Y-49504D01*
G37*
G36*
X95458Y-49308D02*
X95065Y-49308D01*
X95065Y-49189D01*
X95458Y-49189D01*
X95458Y-49308D01*
X95458Y-49308D01*
G37*
G36*
X95458Y-49111D02*
X95065Y-49111D01*
X95065Y-48993D01*
X95458Y-48993D01*
X95458Y-49111D01*
X95458Y-49111D01*
G37*
G36*
X95458Y-48914D02*
X95065Y-48914D01*
X95065Y-48796D01*
X95458Y-48796D01*
X95458Y-48914D01*
X95458Y-48914D01*
G37*
G36*
X95458Y-48717D02*
X95065Y-48717D01*
X95065Y-48599D01*
X95458Y-48599D01*
X95458Y-48717D01*
X95458Y-48717D01*
G37*
G36*
X95458Y-48520D02*
X95065Y-48520D01*
X95065Y-48402D01*
X95458Y-48402D01*
X95458Y-48520D01*
X95458Y-48520D01*
G37*
G36*
X95458Y-48323D02*
X95065Y-48323D01*
X95065Y-48205D01*
X95458Y-48205D01*
X95458Y-48323D01*
X95458Y-48323D01*
G37*
G36*
X95458Y-48126D02*
X95065Y-48126D01*
X95065Y-48008D01*
X95458Y-48008D01*
X95458Y-48126D01*
X95458Y-48126D01*
G37*
G36*
X95458Y-47930D02*
X95065Y-47930D01*
X95065Y-47812D01*
X95458Y-47812D01*
X95458Y-47930D01*
X95458Y-47930D01*
G37*
G36*
X95458Y-47733D02*
X95065Y-47733D01*
X95065Y-47615D01*
X95458Y-47615D01*
X95458Y-47733D01*
X95458Y-47733D01*
G37*
G36*
X95458Y-47536D02*
X95065Y-47536D01*
X95065Y-47418D01*
X95458Y-47418D01*
X95458Y-47536D01*
X95458Y-47536D01*
G37*
G36*
X95458Y-47339D02*
X95065Y-47339D01*
X95065Y-47221D01*
X95458Y-47221D01*
X95458Y-47339D01*
X95458Y-47339D01*
G37*
G36*
X95458Y-47142D02*
X95065Y-47142D01*
X95065Y-47024D01*
X95458Y-47024D01*
X95458Y-47142D01*
X95458Y-47142D01*
G37*
G36*
X95458Y-46945D02*
X95065Y-46945D01*
X95065Y-46827D01*
X95458Y-46827D01*
X95458Y-46945D01*
X95458Y-46945D01*
G37*
G36*
X95458Y-46749D02*
X95065Y-46749D01*
X95065Y-46630D01*
X95458Y-46630D01*
X95458Y-46749D01*
X95458Y-46749D01*
G37*
G36*
X95458Y-46552D02*
X95065Y-46552D01*
X95065Y-46434D01*
X95458Y-46434D01*
X95458Y-46552D01*
X95458Y-46552D01*
G37*
G36*
X95458Y-46355D02*
X95065Y-46355D01*
X95065Y-46237D01*
X95458Y-46237D01*
X95458Y-46355D01*
X95458Y-46355D01*
G37*
G36*
X95458Y-46158D02*
X95065Y-46158D01*
X95065Y-46040D01*
X95458Y-46040D01*
X95458Y-46158D01*
X95458Y-46158D01*
G37*
G36*
X95458Y-45961D02*
X95065Y-45961D01*
X95065Y-45843D01*
X95458Y-45843D01*
X95458Y-45961D01*
X95458Y-45961D01*
G37*
G36*
X96758Y-55745D02*
X95576Y-55745D01*
X95576Y-54957D01*
X96758Y-54957D01*
X96758Y-55745D01*
X96758Y-55745D01*
G37*
G36*
X96758Y-45508D02*
X95576Y-45508D01*
X95576Y-44721D01*
X96758Y-44721D01*
X96758Y-45508D01*
X96758Y-45508D01*
G37*
G54D14*
X86672Y-57210D03*
X85923Y-57210D03*
X90351Y-57172D03*
X91100Y-57172D03*
X92642Y-56244D03*
X91893Y-56244D03*
G54D15*
X93368Y-55479D03*
X93368Y-56228D03*
G54D14*
X88064Y-57546D03*
X87315Y-57546D03*
X93457Y-53776D03*
X94206Y-53776D03*
X93447Y-54446D03*
X94196Y-54446D03*
G54D15*
X87816Y-56083D03*
X87816Y-56832D03*
G54D14*
X89480Y-57172D03*
X88731Y-57172D03*
X102447Y-53985D03*
X101698Y-53985D03*
G54D18*
X110172Y-58374D03*
X110172Y-57874D03*
X85442Y-58372D03*
X85442Y-57872D03*
G54D19*
X87462Y-46014D03*
X88662Y-46014D03*
X88062Y-46914D03*
X106962Y-46014D03*
X108162Y-46014D03*
X107562Y-46914D03*
G54D10*
G36*
X86989Y-48392D02*
X87382Y-48392D01*
X87382Y-48511D01*
X86989Y-48511D01*
X86989Y-48392D01*
X86989Y-48392D01*
G37*
G36*
X86989Y-48589D02*
X87382Y-48589D01*
X87382Y-48707D01*
X86989Y-48707D01*
X86989Y-48589D01*
X86989Y-48589D01*
G37*
G36*
X86989Y-48786D02*
X87382Y-48786D01*
X87382Y-48904D01*
X86989Y-48904D01*
X86989Y-48786D01*
X86989Y-48786D01*
G37*
G36*
X86989Y-48983D02*
X87382Y-48983D01*
X87382Y-49101D01*
X86989Y-49101D01*
X86989Y-48983D01*
X86989Y-48983D01*
G37*
G36*
X86989Y-49180D02*
X87382Y-49180D01*
X87382Y-49298D01*
X86989Y-49298D01*
X86989Y-49180D01*
X86989Y-49180D01*
G37*
G36*
X86989Y-49377D02*
X87382Y-49377D01*
X87382Y-49495D01*
X86989Y-49495D01*
X86989Y-49377D01*
X86989Y-49377D01*
G37*
G36*
X86989Y-49574D02*
X87382Y-49574D01*
X87382Y-49692D01*
X86989Y-49692D01*
X86989Y-49574D01*
X86989Y-49574D01*
G37*
G36*
X86989Y-49770D02*
X87382Y-49770D01*
X87382Y-49888D01*
X86989Y-49888D01*
X86989Y-49770D01*
X86989Y-49770D01*
G37*
G36*
X86989Y-49967D02*
X87382Y-49967D01*
X87382Y-50085D01*
X86989Y-50085D01*
X86989Y-49967D01*
X86989Y-49967D01*
G37*
G36*
X86989Y-50164D02*
X87382Y-50164D01*
X87382Y-50282D01*
X86989Y-50282D01*
X86989Y-50164D01*
X86989Y-50164D01*
G37*
G36*
X86989Y-50361D02*
X87382Y-50361D01*
X87382Y-50479D01*
X86989Y-50479D01*
X86989Y-50361D01*
X86989Y-50361D01*
G37*
G36*
X86989Y-50558D02*
X87382Y-50558D01*
X87382Y-50676D01*
X86989Y-50676D01*
X86989Y-50558D01*
X86989Y-50558D01*
G37*
G36*
X86989Y-50755D02*
X87382Y-50755D01*
X87382Y-50873D01*
X86989Y-50873D01*
X86989Y-50755D01*
X86989Y-50755D01*
G37*
G36*
X86989Y-50951D02*
X87382Y-50951D01*
X87382Y-51070D01*
X86989Y-51070D01*
X86989Y-50951D01*
X86989Y-50951D01*
G37*
G36*
X86989Y-51148D02*
X87382Y-51148D01*
X87382Y-51266D01*
X86989Y-51266D01*
X86989Y-51148D01*
X86989Y-51148D01*
G37*
G36*
X86989Y-51345D02*
X87382Y-51345D01*
X87382Y-51463D01*
X86989Y-51463D01*
X86989Y-51345D01*
X86989Y-51345D01*
G37*
G36*
X86989Y-51542D02*
X87382Y-51542D01*
X87382Y-51660D01*
X86989Y-51660D01*
X86989Y-51542D01*
X86989Y-51542D01*
G37*
G36*
X86989Y-51739D02*
X87382Y-51739D01*
X87382Y-51857D01*
X86989Y-51857D01*
X86989Y-51739D01*
X86989Y-51739D01*
G37*
G36*
X86989Y-51936D02*
X87382Y-51936D01*
X87382Y-52054D01*
X86989Y-52054D01*
X86989Y-51936D01*
X86989Y-51936D01*
G37*
G36*
X86989Y-52133D02*
X87382Y-52133D01*
X87382Y-52251D01*
X86989Y-52251D01*
X86989Y-52133D01*
X86989Y-52133D01*
G37*
G36*
X86989Y-52329D02*
X87382Y-52329D01*
X87382Y-52448D01*
X86989Y-52448D01*
X86989Y-52329D01*
X86989Y-52329D01*
G37*
G36*
X86989Y-52526D02*
X87382Y-52526D01*
X87382Y-52644D01*
X86989Y-52644D01*
X86989Y-52526D01*
X86989Y-52526D01*
G37*
G36*
X86989Y-52723D02*
X87382Y-52723D01*
X87382Y-52841D01*
X86989Y-52841D01*
X86989Y-52723D01*
X86989Y-52723D01*
G37*
G36*
X86989Y-52920D02*
X87382Y-52920D01*
X87382Y-53038D01*
X86989Y-53038D01*
X86989Y-52920D01*
X86989Y-52920D01*
G37*
G36*
X86989Y-53117D02*
X87382Y-53117D01*
X87382Y-53235D01*
X86989Y-53235D01*
X86989Y-53117D01*
X86989Y-53117D01*
G37*
G36*
X86989Y-53314D02*
X87382Y-53314D01*
X87382Y-53432D01*
X86989Y-53432D01*
X86989Y-53314D01*
X86989Y-53314D01*
G37*
G36*
X86989Y-53511D02*
X87382Y-53511D01*
X87382Y-53629D01*
X86989Y-53629D01*
X86989Y-53511D01*
X86989Y-53511D01*
G37*
G36*
X86989Y-53707D02*
X87382Y-53707D01*
X87382Y-53825D01*
X86989Y-53825D01*
X86989Y-53707D01*
X86989Y-53707D01*
G37*
G36*
X86989Y-53904D02*
X87382Y-53904D01*
X87382Y-54022D01*
X86989Y-54022D01*
X86989Y-53904D01*
X86989Y-53904D01*
G37*
G36*
X86989Y-54101D02*
X87382Y-54101D01*
X87382Y-54219D01*
X86989Y-54219D01*
X86989Y-54101D01*
X86989Y-54101D01*
G37*
G36*
X86989Y-54298D02*
X87382Y-54298D01*
X87382Y-54416D01*
X86989Y-54416D01*
X86989Y-54298D01*
X86989Y-54298D01*
G37*
G36*
X86989Y-54495D02*
X87382Y-54495D01*
X87382Y-54613D01*
X86989Y-54613D01*
X86989Y-54495D01*
X86989Y-54495D01*
G37*
G36*
X86989Y-54692D02*
X87382Y-54692D01*
X87382Y-54810D01*
X86989Y-54810D01*
X86989Y-54692D01*
X86989Y-54692D01*
G37*
G36*
X86989Y-54888D02*
X87382Y-54888D01*
X87382Y-55007D01*
X86989Y-55007D01*
X86989Y-54888D01*
X86989Y-54888D01*
G37*
G36*
X86989Y-55085D02*
X87382Y-55085D01*
X87382Y-55203D01*
X86989Y-55203D01*
X86989Y-55085D01*
X86989Y-55085D01*
G37*
G36*
X86989Y-55282D02*
X87382Y-55282D01*
X87382Y-55400D01*
X86989Y-55400D01*
X86989Y-55282D01*
X86989Y-55282D01*
G37*
G36*
X86989Y-55479D02*
X87382Y-55479D01*
X87382Y-55597D01*
X86989Y-55597D01*
X86989Y-55479D01*
X86989Y-55479D01*
G37*
G36*
X86989Y-55676D02*
X87382Y-55676D01*
X87382Y-55794D01*
X86989Y-55794D01*
X86989Y-55676D01*
X86989Y-55676D01*
G37*
G36*
X85705Y-47060D02*
X86886Y-47060D01*
X86886Y-47847D01*
X85705Y-47847D01*
X85705Y-47060D01*
X85705Y-47060D01*
G37*
G36*
X85689Y-56129D02*
X86871Y-56129D01*
X86871Y-56916D01*
X85689Y-56916D01*
X85689Y-56129D01*
X85689Y-56129D01*
G37*
G54D20*
X95758Y-45902D03*
X97900Y-55350D03*
X97200Y-55350D03*
X97896Y-49042D03*
X95730Y-49056D03*
X86300Y-52580D03*
X86820Y-52580D03*
X87820Y-54200D03*
X87820Y-55460D03*
X94200Y-55980D03*
X89460Y-55980D03*
X90380Y-55980D03*
X101150Y-55720D03*
X101160Y-57720D03*
X102900Y-55220D03*
X86200Y-54108D03*
X99460Y-55240D03*
X86474Y-53896D03*
X88230Y-54526D03*
X92712Y-53902D03*
X92706Y-46062D03*
X92040Y-53800D03*
X92060Y-46780D03*
X91780Y-47900D03*
X85820Y-55860D03*
X85800Y-55540D03*
X85160Y-55540D03*
X97576Y-44388D03*
X91888Y-43898D03*
X93450Y-54162D03*
X91582Y-54454D03*
X92960Y-53640D03*
G54D21*
X88726Y-54758D02*
X88776Y-54708D01*
X87202Y-54758D02*
X88726Y-54758D01*
X87202Y-54954D02*
X88767Y-54954D01*
X88767Y-54954D02*
X88776Y-54964D01*
X87186Y-55144D02*
X87938Y-55144D01*
X88014Y-55220D02*
X88776Y-55220D01*
X87938Y-55144D02*
X88014Y-55220D01*
X88776Y-55731D02*
X87611Y-55731D01*
X87521Y-55341D02*
X87186Y-55341D01*
X87560Y-55380D02*
X87521Y-55341D01*
X87560Y-55680D02*
X87560Y-55380D01*
X87611Y-55731D02*
X87560Y-55680D01*
X87186Y-52782D02*
X95252Y-52782D01*
X95252Y-52782D02*
X95262Y-52792D01*
X97580Y-56726D02*
X97420Y-56726D01*
X97434Y-54440D02*
X97434Y-56726D01*
X97420Y-56726D02*
X91100Y-56726D01*
X91100Y-56726D02*
X91100Y-56726D01*
X91100Y-56726D02*
X91100Y-56720D01*
X91100Y-56720D02*
X91100Y-56720D01*
X97434Y-54160D02*
X95272Y-54160D01*
X95272Y-54160D02*
X95262Y-54170D01*
X95262Y-54170D02*
X95262Y-54367D01*
X97434Y-53560D02*
X95281Y-53560D01*
X95281Y-53560D02*
X95262Y-53579D01*
X97434Y-52800D02*
X95269Y-52800D01*
X95269Y-52800D02*
X95262Y-52792D01*
X95262Y-52595D02*
X95262Y-52792D01*
X97434Y-54440D02*
X97434Y-54160D01*
X97434Y-54160D02*
X97434Y-53560D01*
X97434Y-53560D02*
X97434Y-52800D01*
X97434Y-52800D02*
X97434Y-47754D01*
X97354Y-47674D02*
X95262Y-47674D01*
X97434Y-47754D02*
X97354Y-47674D01*
X89860Y-54460D02*
X88784Y-54460D01*
X88784Y-54460D02*
X88776Y-54452D01*
X91099Y-54196D02*
X89883Y-54196D01*
X89860Y-54220D02*
X89860Y-54460D01*
X89860Y-54460D02*
X89860Y-54560D01*
X89883Y-54196D02*
X89860Y-54220D01*
X91099Y-54708D02*
X89860Y-54708D01*
X89860Y-54708D02*
X89860Y-54720D01*
X89919Y-56499D02*
X91099Y-56499D01*
X89860Y-56440D02*
X89919Y-56499D01*
X89860Y-54500D02*
X89860Y-54560D01*
X89860Y-54560D02*
X89860Y-54720D01*
X89860Y-54720D02*
X89860Y-56440D01*
X88731Y-57172D02*
X88731Y-57671D01*
X91100Y-57659D02*
X91100Y-57172D01*
X91007Y-57752D02*
X91100Y-57659D01*
X88812Y-57752D02*
X91007Y-57752D01*
X88731Y-57671D02*
X88812Y-57752D01*
X108970Y-56170D02*
X108970Y-55970D01*
X108920Y-56220D02*
X108970Y-56170D01*
X103954Y-56220D02*
X108720Y-56220D01*
X108970Y-55970D02*
X108970Y-46756D01*
X108720Y-56220D02*
X108920Y-56220D01*
X103940Y-55880D02*
X103940Y-56205D01*
X103940Y-56205D02*
X103954Y-56220D01*
X102447Y-55723D02*
X103903Y-55723D01*
X103893Y-56726D02*
X102447Y-56726D01*
X103940Y-56680D02*
X103893Y-56726D01*
X103940Y-55760D02*
X103940Y-55880D01*
X103940Y-55880D02*
X103940Y-56680D01*
X103903Y-55723D02*
X103940Y-55760D01*
X95262Y-47674D02*
X89526Y-47674D01*
X89526Y-47674D02*
X89430Y-47578D01*
X89430Y-47578D02*
X89430Y-46760D01*
X97490Y-56726D02*
X97580Y-56726D01*
X97580Y-56726D02*
X99966Y-56726D01*
X97434Y-54422D02*
X97434Y-54440D01*
X99966Y-56726D02*
X102447Y-56726D01*
X91100Y-57172D02*
X91100Y-56720D01*
X91100Y-56720D02*
X91100Y-56500D01*
X91100Y-56500D02*
X91099Y-56499D01*
X88731Y-57172D02*
X88731Y-56544D01*
X88731Y-56544D02*
X88776Y-56499D01*
X95262Y-54367D02*
X95262Y-53973D01*
X95758Y-45902D02*
X95758Y-45902D01*
X95758Y-45902D02*
X95758Y-45902D01*
X95758Y-45902D02*
X95758Y-45902D01*
X97958Y-53985D02*
X97900Y-53985D01*
X97902Y-53998D02*
X97900Y-53998D01*
X97902Y-53987D02*
X97902Y-53998D01*
X97900Y-53985D02*
X97902Y-53987D01*
X95262Y-51414D02*
X95673Y-51414D01*
X95730Y-51358D02*
X95730Y-49056D01*
X95673Y-51414D02*
X95730Y-51358D01*
X97900Y-55350D02*
X97900Y-53998D01*
X96167Y-55351D02*
X97198Y-55351D01*
X97198Y-55351D02*
X97200Y-55350D01*
X97900Y-53998D02*
X97900Y-49046D01*
X97900Y-49046D02*
X97896Y-49042D01*
X95726Y-49052D02*
X95262Y-49052D01*
X95730Y-49056D02*
X95726Y-49052D01*
X95262Y-46493D02*
X95262Y-46296D01*
X95262Y-46296D02*
X95262Y-46099D01*
X95262Y-46099D02*
X95262Y-45902D01*
X95262Y-46689D02*
X95262Y-46493D01*
X86296Y-52576D02*
X86296Y-47454D01*
X86300Y-52580D02*
X86296Y-52576D01*
X86820Y-46020D02*
X86820Y-46030D01*
X86820Y-46030D02*
X86820Y-46020D01*
X86820Y-46020D02*
X86820Y-46030D01*
X86825Y-52585D02*
X87186Y-52585D01*
X86820Y-52580D02*
X86825Y-52585D01*
X88776Y-55475D02*
X87835Y-55475D01*
X87823Y-54196D02*
X88776Y-54196D01*
X87820Y-54200D02*
X87823Y-54196D01*
X87835Y-55475D02*
X87820Y-55460D01*
X94200Y-55980D02*
X94192Y-55980D01*
X94192Y-55980D02*
X94200Y-55980D01*
X94200Y-55980D02*
X94192Y-55980D01*
X91099Y-55987D02*
X90387Y-55987D01*
X89480Y-56000D02*
X89480Y-56002D01*
X89460Y-55980D02*
X89480Y-56000D01*
X90387Y-55987D02*
X90380Y-55980D01*
X101160Y-57720D02*
X101160Y-57723D01*
X101160Y-57723D02*
X101160Y-57720D01*
X101160Y-57720D02*
X101160Y-57723D01*
X88776Y-56243D02*
X89473Y-56243D01*
X99960Y-53985D02*
X99960Y-54716D01*
X99960Y-54716D02*
X99966Y-54723D01*
X97965Y-53985D02*
X97958Y-53985D01*
X97958Y-53985D02*
X99960Y-53985D01*
X99960Y-53985D02*
X101698Y-53985D01*
X101150Y-53985D02*
X101150Y-55720D01*
X101150Y-55720D02*
X101150Y-55723D01*
X101150Y-55723D02*
X101150Y-55700D01*
X101150Y-55700D02*
X101150Y-55723D01*
X99966Y-55723D02*
X101150Y-55723D01*
X86282Y-46030D02*
X86820Y-46030D01*
X86820Y-46030D02*
X87446Y-46030D01*
X87446Y-46030D02*
X87462Y-46014D01*
X86282Y-47664D02*
X86282Y-46030D01*
X86282Y-46030D02*
X86282Y-42672D01*
X86390Y-42563D02*
X91134Y-42563D01*
X86282Y-42672D02*
X86390Y-42563D01*
X97112Y-43356D02*
X106858Y-43356D01*
X106962Y-43460D02*
X106962Y-46014D01*
X106858Y-43356D02*
X106962Y-43460D01*
X100021Y-53985D02*
X101150Y-53985D01*
X101150Y-53985D02*
X101698Y-53985D01*
X88028Y-57210D02*
X88028Y-57509D01*
X88028Y-57509D02*
X88064Y-57546D01*
X87816Y-57210D02*
X87816Y-56832D01*
X87734Y-57210D02*
X87816Y-57210D01*
X87816Y-57210D02*
X88028Y-57210D01*
X88028Y-57210D02*
X88082Y-57210D01*
X88082Y-57210D02*
X88184Y-57210D01*
X88278Y-56243D02*
X88776Y-56243D01*
X88236Y-56286D02*
X88278Y-56243D01*
X88236Y-57158D02*
X88236Y-56286D01*
X88184Y-57210D02*
X88236Y-57158D01*
X86672Y-57210D02*
X86672Y-56708D01*
X86672Y-56708D02*
X86296Y-56332D01*
X94192Y-56228D02*
X94192Y-55980D01*
X94192Y-55980D02*
X94192Y-54450D01*
X94192Y-54450D02*
X94196Y-54446D01*
X93368Y-56228D02*
X94192Y-56228D01*
X94192Y-56228D02*
X96119Y-56228D01*
X96167Y-56180D02*
X96167Y-55351D01*
X96119Y-56228D02*
X96167Y-56180D01*
X96158Y-45902D02*
X96158Y-45124D01*
X96158Y-45124D02*
X96167Y-45115D01*
X97112Y-43356D02*
X93926Y-43356D01*
X93889Y-43319D02*
X93889Y-42563D01*
X93926Y-43356D02*
X93889Y-43319D01*
X91134Y-42563D02*
X91276Y-42563D01*
X91276Y-42563D02*
X91534Y-42306D01*
X91534Y-42306D02*
X93632Y-42306D01*
X93632Y-42306D02*
X93889Y-42563D01*
X95262Y-45902D02*
X95758Y-45902D01*
X95758Y-45902D02*
X96158Y-45902D01*
X96158Y-45902D02*
X97051Y-45902D01*
X97112Y-45841D02*
X97112Y-43356D01*
X97051Y-45902D02*
X97112Y-45841D01*
X86672Y-57210D02*
X87572Y-57210D01*
X87572Y-57210D02*
X87734Y-57210D01*
X87734Y-57210D02*
X87738Y-57210D01*
X99966Y-57723D02*
X101160Y-57723D01*
X101160Y-57723D02*
X101900Y-57723D01*
X101900Y-57723D02*
X102447Y-57723D01*
X95262Y-53776D02*
X94206Y-53776D01*
X94206Y-53776D02*
X94206Y-53776D01*
X95262Y-54564D02*
X94314Y-54564D01*
X94314Y-54564D02*
X94196Y-54446D01*
X94196Y-54446D02*
X94196Y-53786D01*
X94196Y-53786D02*
X94206Y-53776D01*
X91085Y-56002D02*
X91099Y-55987D01*
X89480Y-57172D02*
X90351Y-57172D01*
X89473Y-56243D02*
X89480Y-56250D01*
X89480Y-57172D02*
X89480Y-56250D01*
X89480Y-56250D02*
X89480Y-56002D01*
X89480Y-56002D02*
X89480Y-55940D01*
X89417Y-55475D02*
X88776Y-55475D01*
X89480Y-55538D02*
X89417Y-55475D01*
X89480Y-55940D02*
X89480Y-55538D01*
X95259Y-49049D02*
X95262Y-49052D01*
X102893Y-55226D02*
X102447Y-55226D01*
X102900Y-55220D02*
X102893Y-55226D01*
X86252Y-54160D02*
X86200Y-54108D01*
X87186Y-54160D02*
X86252Y-54160D01*
X99473Y-55226D02*
X99966Y-55226D01*
X99460Y-55240D02*
X99473Y-55226D01*
X87186Y-53963D02*
X86541Y-53963D01*
X86541Y-53963D02*
X86474Y-53896D01*
X85923Y-57210D02*
X85640Y-57210D01*
X85627Y-54554D02*
X87186Y-54554D01*
X85542Y-54640D02*
X85627Y-54554D01*
X85542Y-57112D02*
X85542Y-54640D01*
X85640Y-57210D02*
X85542Y-57112D01*
X87186Y-54554D02*
X88201Y-54554D01*
X88201Y-54554D02*
X88230Y-54526D01*
X92706Y-46062D02*
X92972Y-46062D01*
X93071Y-43902D02*
X93889Y-43902D01*
X93022Y-43952D02*
X93071Y-43902D01*
X93022Y-46012D02*
X93022Y-43952D01*
X92972Y-46062D02*
X93022Y-46012D01*
X92716Y-53906D02*
X92716Y-54327D01*
X92712Y-53902D02*
X92716Y-53906D01*
X92060Y-46780D02*
X93720Y-46780D01*
X93889Y-46610D02*
X93889Y-45398D01*
X93889Y-46710D02*
X93889Y-46610D01*
X93820Y-46780D02*
X93889Y-46710D01*
X93720Y-46780D02*
X93820Y-46780D01*
X87186Y-54357D02*
X87502Y-54357D01*
X88172Y-53800D02*
X92040Y-53800D01*
X87600Y-53800D02*
X88172Y-53800D01*
X87560Y-53840D02*
X87600Y-53800D01*
X87560Y-54300D02*
X87560Y-53840D01*
X87502Y-54357D02*
X87560Y-54300D01*
X92050Y-53810D02*
X92040Y-53800D01*
X92050Y-53810D02*
X92050Y-54075D01*
X85404Y-54491D02*
X85404Y-54419D01*
X85464Y-57546D02*
X85404Y-57486D01*
X85404Y-57486D02*
X85404Y-54491D01*
X87315Y-57546D02*
X85464Y-57546D01*
X85620Y-54358D02*
X85620Y-54357D01*
X85466Y-54358D02*
X85620Y-54358D01*
X85404Y-54419D02*
X85466Y-54358D01*
X85538Y-54357D02*
X85620Y-54357D01*
X85620Y-54357D02*
X87186Y-54357D01*
X86580Y-53620D02*
X86580Y-48260D01*
X87186Y-53766D02*
X86726Y-53766D01*
X86726Y-53766D02*
X86580Y-53620D01*
X86580Y-48260D02*
X86660Y-48180D01*
X88540Y-48180D02*
X88600Y-48180D01*
X86660Y-48180D02*
X88540Y-48180D01*
X88662Y-46014D02*
X88662Y-48058D01*
X88662Y-48118D02*
X88662Y-48058D01*
X88600Y-48180D02*
X88662Y-48118D01*
X88662Y-46014D02*
X89427Y-46014D01*
X89427Y-46014D02*
X89430Y-46011D01*
X95259Y-53183D02*
X95262Y-53186D01*
X87202Y-53183D02*
X95259Y-53183D01*
X87186Y-51404D02*
X93391Y-51404D01*
X93578Y-51217D02*
X95262Y-51217D01*
X93391Y-51404D02*
X93578Y-51217D01*
X87186Y-51207D02*
X93266Y-51207D01*
X93453Y-51020D02*
X95262Y-51020D01*
X93266Y-51207D02*
X93453Y-51020D01*
X87186Y-49436D02*
X92209Y-49436D01*
X92396Y-49249D02*
X95262Y-49249D01*
X92209Y-49436D02*
X92396Y-49249D01*
X87186Y-49239D02*
X92098Y-49239D01*
X92482Y-48855D02*
X95262Y-48855D01*
X92098Y-49239D02*
X92482Y-48855D01*
X95259Y-48852D02*
X95262Y-48855D01*
X87186Y-49042D02*
X91987Y-49042D01*
X92371Y-48658D02*
X95262Y-48658D01*
X91987Y-49042D02*
X92371Y-48658D01*
X95259Y-48655D02*
X95262Y-48658D01*
X87186Y-48845D02*
X91870Y-48845D01*
X92254Y-48461D02*
X95262Y-48461D01*
X91870Y-48845D02*
X92254Y-48461D01*
X95252Y-48451D02*
X95262Y-48461D01*
X87186Y-48648D02*
X91757Y-48648D01*
X92141Y-48264D02*
X95262Y-48264D01*
X91757Y-48648D02*
X92141Y-48264D01*
X87186Y-48451D02*
X91654Y-48451D01*
X92038Y-48067D02*
X95262Y-48067D01*
X91654Y-48451D02*
X92038Y-48067D01*
X87186Y-51011D02*
X93140Y-51011D01*
X93328Y-50823D02*
X95262Y-50823D01*
X93140Y-51011D02*
X93328Y-50823D01*
X87186Y-50814D02*
X93029Y-50814D01*
X93217Y-50626D02*
X95262Y-50626D01*
X93029Y-50814D02*
X93217Y-50626D01*
X87186Y-50617D02*
X92910Y-50617D01*
X93097Y-50430D02*
X95262Y-50430D01*
X92910Y-50617D02*
X93097Y-50430D01*
X87186Y-50420D02*
X92793Y-50420D01*
X92980Y-50233D02*
X95262Y-50233D01*
X92793Y-50420D02*
X92980Y-50233D01*
X87186Y-50223D02*
X92682Y-50223D01*
X92869Y-50036D02*
X95262Y-50036D01*
X92682Y-50223D02*
X92869Y-50036D01*
X87186Y-50026D02*
X92571Y-50026D01*
X92758Y-49839D02*
X95262Y-49839D01*
X92571Y-50026D02*
X92758Y-49839D01*
X95259Y-49836D02*
X95262Y-49839D01*
X87186Y-49829D02*
X92452Y-49829D01*
X92639Y-49642D02*
X95262Y-49642D01*
X92452Y-49829D02*
X92639Y-49642D01*
X87186Y-49633D02*
X92314Y-49633D01*
X92502Y-49445D02*
X95262Y-49445D01*
X92314Y-49633D02*
X92502Y-49445D01*
X95259Y-52002D02*
X95262Y-52004D01*
X87202Y-52002D02*
X95259Y-52002D01*
X87202Y-52198D02*
X95259Y-52198D01*
X95259Y-52198D02*
X95262Y-52201D01*
X95259Y-51805D02*
X95262Y-51808D01*
X87202Y-51805D02*
X95259Y-51805D01*
X87202Y-53380D02*
X95259Y-53380D01*
X95259Y-53380D02*
X95262Y-53382D01*
X87202Y-52986D02*
X95259Y-52986D01*
X95259Y-52986D02*
X95262Y-52989D01*
X87202Y-51608D02*
X95259Y-51608D01*
X95259Y-51608D02*
X95262Y-51611D01*
X87186Y-55735D02*
X85944Y-55735D01*
X91808Y-47871D02*
X95262Y-47871D01*
X91780Y-47900D02*
X91808Y-47871D01*
X85944Y-55735D02*
X85820Y-55860D01*
X87202Y-52395D02*
X95259Y-52395D01*
X95259Y-52395D02*
X95262Y-52398D01*
X95262Y-47083D02*
X95262Y-47280D01*
X95262Y-46886D02*
X95262Y-47083D01*
X95262Y-47477D02*
X95262Y-46886D01*
X95262Y-46886D02*
X95256Y-46892D01*
X95256Y-46892D02*
X94824Y-46892D01*
X94824Y-46892D02*
X94760Y-46828D01*
X94760Y-46828D02*
X94760Y-43762D01*
X94760Y-43762D02*
X94791Y-43730D01*
X94791Y-43730D02*
X95931Y-43730D01*
X85801Y-55538D02*
X87186Y-55538D01*
X85801Y-55538D02*
X85800Y-55540D01*
X96694Y-42054D02*
X96694Y-42282D01*
X96640Y-42000D02*
X96694Y-42054D01*
X85260Y-42000D02*
X96640Y-42000D01*
X85200Y-42060D02*
X85260Y-42000D01*
X85200Y-55560D02*
X85200Y-42060D01*
X102447Y-56223D02*
X103202Y-56223D01*
X103202Y-56223D02*
X103205Y-56220D01*
X99966Y-56223D02*
X97647Y-56223D01*
X97571Y-44392D02*
X97576Y-44388D01*
X97571Y-56147D02*
X97571Y-44392D01*
X97647Y-56223D02*
X97571Y-56147D01*
X91134Y-43902D02*
X91883Y-43902D01*
X91888Y-43898D02*
X91883Y-43902D01*
X99966Y-56223D02*
X102447Y-56223D01*
X88776Y-55987D02*
X87912Y-55987D01*
X87912Y-55987D02*
X87816Y-56083D01*
X95945Y-42282D02*
X95945Y-42967D01*
X95945Y-42967D02*
X95931Y-42981D01*
X102447Y-54723D02*
X102447Y-53985D01*
X102447Y-53985D02*
X102447Y-53985D01*
X91099Y-56243D02*
X91893Y-56243D01*
X91893Y-56243D02*
X91893Y-56244D01*
X91099Y-55220D02*
X92571Y-55220D01*
X92571Y-55220D02*
X92716Y-55076D01*
X91099Y-54964D02*
X91909Y-54964D01*
X91909Y-54964D02*
X92050Y-54824D01*
X93447Y-54446D02*
X93447Y-54164D01*
X93447Y-54164D02*
X93450Y-54162D01*
X91099Y-54452D02*
X91580Y-54452D01*
X93457Y-54154D02*
X93457Y-53776D01*
X93450Y-54162D02*
X93457Y-54154D01*
X91580Y-54452D02*
X91582Y-54454D01*
X91099Y-55731D02*
X92591Y-55731D01*
X92642Y-55782D02*
X92642Y-56244D01*
X92591Y-55731D02*
X92642Y-55782D01*
X91099Y-55475D02*
X93363Y-55475D01*
X93363Y-55475D02*
X93368Y-55479D01*
X102447Y-58226D02*
X110024Y-58226D01*
X110024Y-58226D02*
X110172Y-58374D01*
X102447Y-57226D02*
X110126Y-57226D01*
X110172Y-57272D02*
X110172Y-57874D01*
X110126Y-57226D02*
X110172Y-57272D01*
X99966Y-58226D02*
X85607Y-58226D01*
X85607Y-58226D02*
X85444Y-58390D01*
X85444Y-57890D02*
X91558Y-57890D01*
X91558Y-57890D02*
X91636Y-57812D01*
X99966Y-57226D02*
X91699Y-57226D01*
X91636Y-57290D02*
X91636Y-57812D01*
X91699Y-57226D02*
X91636Y-57290D01*
X87186Y-53570D02*
X92890Y-53570D01*
X92890Y-53570D02*
X92960Y-53640D01*
X108162Y-46014D02*
X108963Y-46014D01*
X108963Y-46014D02*
X108970Y-46007D01*
G54D10*
G36*
X86881Y-48336D02*
X86868Y-48368D01*
X86868Y-48416D01*
X86868Y-48534D01*
X86874Y-48550D01*
X86868Y-48565D01*
X86868Y-48613D01*
X86868Y-48731D01*
X86874Y-48747D01*
X86868Y-48762D01*
X86868Y-48810D01*
X86868Y-48928D01*
X86874Y-48944D01*
X86868Y-48959D01*
X86868Y-49007D01*
X86868Y-49125D01*
X86874Y-49140D01*
X86868Y-49156D01*
X86868Y-49204D01*
X86868Y-49322D01*
X86874Y-49337D01*
X86868Y-49353D01*
X86868Y-49401D01*
X86868Y-49519D01*
X86874Y-49534D01*
X86868Y-49549D01*
X86868Y-49597D01*
X86868Y-49716D01*
X86874Y-49731D01*
X86868Y-49746D01*
X86868Y-49794D01*
X86868Y-49912D01*
X86874Y-49928D01*
X86868Y-49943D01*
X86868Y-49991D01*
X86868Y-50109D01*
X86874Y-50125D01*
X86868Y-50140D01*
X86868Y-50188D01*
X86868Y-50306D01*
X86874Y-50322D01*
X86868Y-50337D01*
X86868Y-50385D01*
X86868Y-50503D01*
X86874Y-50518D01*
X86868Y-50534D01*
X86868Y-50582D01*
X86868Y-50700D01*
X86874Y-50715D01*
X86868Y-50730D01*
X86868Y-50779D01*
X86868Y-50897D01*
X86874Y-50912D01*
X86868Y-50927D01*
X86868Y-50975D01*
X86868Y-51093D01*
X86874Y-51109D01*
X86868Y-51124D01*
X86868Y-51172D01*
X86868Y-51290D01*
X86874Y-51306D01*
X86868Y-51321D01*
X86868Y-51369D01*
X86868Y-51487D01*
X86874Y-51503D01*
X86868Y-51518D01*
X86868Y-51566D01*
X86868Y-51684D01*
X86874Y-51699D01*
X86868Y-51715D01*
X86868Y-51763D01*
X86868Y-51881D01*
X86874Y-51896D01*
X86868Y-51912D01*
X86868Y-51960D01*
X86868Y-52078D01*
X86874Y-52093D01*
X86868Y-52108D01*
X86868Y-52156D01*
X86868Y-52275D01*
X86874Y-52290D01*
X86868Y-52305D01*
X86868Y-52353D01*
X86868Y-52471D01*
X86874Y-52487D01*
X86868Y-52502D01*
X86868Y-52550D01*
X86868Y-52668D01*
X86874Y-52684D01*
X86868Y-52699D01*
X86868Y-52747D01*
X86868Y-52865D01*
X86874Y-52881D01*
X86868Y-52896D01*
X86868Y-52944D01*
X86868Y-53062D01*
X86874Y-53077D01*
X86868Y-53093D01*
X86868Y-53141D01*
X86868Y-53259D01*
X86874Y-53274D01*
X86868Y-53290D01*
X86868Y-53338D01*
X86868Y-53456D01*
X86874Y-53471D01*
X86868Y-53486D01*
X86868Y-53534D01*
X86868Y-53610D01*
X86791Y-53610D01*
X86736Y-53555D01*
X86736Y-48336D01*
X86881Y-48336D01*
X86881Y-48336D01*
G37*
G54D22*
X86881Y-48336D02*
X86868Y-48368D01*
X86868Y-48416D01*
X86868Y-48534D01*
X86874Y-48550D01*
X86868Y-48565D01*
X86868Y-48613D01*
X86868Y-48731D01*
X86874Y-48747D01*
X86868Y-48762D01*
X86868Y-48810D01*
X86868Y-48928D01*
X86874Y-48944D01*
X86868Y-48959D01*
X86868Y-49007D01*
X86868Y-49125D01*
X86874Y-49140D01*
X86868Y-49156D01*
X86868Y-49204D01*
X86868Y-49322D01*
X86874Y-49337D01*
X86868Y-49353D01*
X86868Y-49401D01*
X86868Y-49519D01*
X86874Y-49534D01*
X86868Y-49549D01*
X86868Y-49597D01*
X86868Y-49716D01*
X86874Y-49731D01*
X86868Y-49746D01*
X86868Y-49794D01*
X86868Y-49912D01*
X86874Y-49928D01*
X86868Y-49943D01*
X86868Y-49991D01*
X86868Y-50109D01*
X86874Y-50125D01*
X86868Y-50140D01*
X86868Y-50188D01*
X86868Y-50306D01*
X86874Y-50322D01*
X86868Y-50337D01*
X86868Y-50385D01*
X86868Y-50503D01*
X86874Y-50518D01*
X86868Y-50534D01*
X86868Y-50582D01*
X86868Y-50700D01*
X86874Y-50715D01*
X86868Y-50730D01*
X86868Y-50779D01*
X86868Y-50897D01*
X86874Y-50912D01*
X86868Y-50927D01*
X86868Y-50975D01*
X86868Y-51093D01*
X86874Y-51109D01*
X86868Y-51124D01*
X86868Y-51172D01*
X86868Y-51290D01*
X86874Y-51306D01*
X86868Y-51321D01*
X86868Y-51369D01*
X86868Y-51487D01*
X86874Y-51503D01*
X86868Y-51518D01*
X86868Y-51566D01*
X86868Y-51684D01*
X86874Y-51699D01*
X86868Y-51715D01*
X86868Y-51763D01*
X86868Y-51881D01*
X86874Y-51896D01*
X86868Y-51912D01*
X86868Y-51960D01*
X86868Y-52078D01*
X86874Y-52093D01*
X86868Y-52108D01*
X86868Y-52156D01*
X86868Y-52275D01*
X86874Y-52290D01*
X86868Y-52305D01*
X86868Y-52353D01*
X86868Y-52471D01*
X86874Y-52487D01*
X86868Y-52502D01*
X86868Y-52550D01*
X86868Y-52668D01*
X86874Y-52684D01*
X86868Y-52699D01*
X86868Y-52747D01*
X86868Y-52865D01*
X86874Y-52881D01*
X86868Y-52896D01*
X86868Y-52944D01*
X86868Y-53062D01*
X86874Y-53077D01*
X86868Y-53093D01*
X86868Y-53141D01*
X86868Y-53259D01*
X86874Y-53274D01*
X86868Y-53290D01*
X86868Y-53338D01*
X86868Y-53456D01*
X86874Y-53471D01*
X86868Y-53486D01*
X86868Y-53534D01*
X86868Y-53610D01*
X86791Y-53610D01*
X86736Y-53555D01*
X86736Y-48336D01*
X86881Y-48336D01*
G54D10*
G36*
X88588Y-57733D02*
X88550Y-57733D01*
X88550Y-57644D01*
X88550Y-57658D01*
X88487Y-57596D01*
X88114Y-57596D01*
X88114Y-57603D01*
X88014Y-57603D01*
X88014Y-57596D01*
X88006Y-57596D01*
X88006Y-57496D01*
X88014Y-57496D01*
X88014Y-57488D01*
X88114Y-57488D01*
X88114Y-57496D01*
X88487Y-57496D01*
X88543Y-57440D01*
X88550Y-57440D01*
X88550Y-57447D01*
X88550Y-57440D01*
X88575Y-57440D01*
X88575Y-57671D01*
X88587Y-57731D01*
X88588Y-57733D01*
X88588Y-57733D01*
G37*
G54D22*
X88588Y-57733D02*
X88550Y-57733D01*
X88550Y-57644D01*
X88550Y-57658D01*
X88487Y-57596D01*
X88114Y-57596D01*
X88114Y-57603D01*
X88014Y-57603D01*
X88014Y-57596D01*
X88006Y-57596D01*
X88006Y-57496D01*
X88014Y-57496D01*
X88014Y-57488D01*
X88114Y-57488D01*
X88114Y-57496D01*
X88487Y-57496D01*
X88543Y-57440D01*
X88550Y-57440D01*
X88550Y-57447D01*
X88550Y-57440D01*
X88575Y-57440D01*
X88575Y-57671D01*
X88587Y-57731D01*
X88588Y-57733D01*
G54D10*
G36*
X90943Y-57595D02*
X90943Y-57595D01*
X90301Y-57595D01*
X90301Y-57507D01*
X90301Y-57222D01*
X90301Y-57122D01*
X90301Y-56836D01*
X90239Y-56774D01*
X90066Y-56774D01*
X89974Y-56812D01*
X89916Y-56870D01*
X89857Y-56812D01*
X89765Y-56774D01*
X89592Y-56774D01*
X89530Y-56836D01*
X89530Y-57122D01*
X89903Y-57122D01*
X89916Y-57109D01*
X89928Y-57122D01*
X90301Y-57122D01*
X90301Y-57222D01*
X89928Y-57222D01*
X89916Y-57234D01*
X89903Y-57222D01*
X89530Y-57222D01*
X89530Y-57507D01*
X89592Y-57569D01*
X89765Y-57569D01*
X89857Y-57531D01*
X89916Y-57473D01*
X89974Y-57531D01*
X90066Y-57569D01*
X90239Y-57569D01*
X90301Y-57507D01*
X90301Y-57595D01*
X88888Y-57595D01*
X88888Y-57440D01*
X88992Y-57440D01*
X89018Y-57429D01*
X89031Y-57461D01*
X89102Y-57531D01*
X89194Y-57569D01*
X89367Y-57569D01*
X89430Y-57507D01*
X89430Y-57222D01*
X89422Y-57222D01*
X89422Y-57122D01*
X89430Y-57122D01*
X89430Y-56836D01*
X89367Y-56774D01*
X89194Y-56774D01*
X89102Y-56812D01*
X89031Y-56882D01*
X89018Y-56914D01*
X88992Y-56903D01*
X88944Y-56903D01*
X88888Y-56903D01*
X88888Y-56709D01*
X89085Y-56709D01*
X89130Y-56690D01*
X89164Y-56656D01*
X89182Y-56612D01*
X89182Y-56564D01*
X89182Y-56552D01*
X89203Y-56544D01*
X89273Y-56474D01*
X89311Y-56382D01*
X89311Y-56350D01*
X89249Y-56287D01*
X88826Y-56287D01*
X88826Y-56290D01*
X88726Y-56290D01*
X88726Y-56287D01*
X88303Y-56287D01*
X88241Y-56350D01*
X88241Y-56382D01*
X88279Y-56474D01*
X88349Y-56544D01*
X88370Y-56552D01*
X88370Y-56612D01*
X88388Y-56656D01*
X88422Y-56690D01*
X88467Y-56709D01*
X88515Y-56709D01*
X88575Y-56709D01*
X88575Y-56903D01*
X88471Y-56903D01*
X88427Y-56921D01*
X88393Y-56955D01*
X88374Y-57000D01*
X88374Y-57048D01*
X88374Y-57158D01*
X88349Y-57148D01*
X88201Y-57148D01*
X88213Y-57117D01*
X88213Y-56944D01*
X88151Y-56882D01*
X87866Y-56882D01*
X87866Y-56889D01*
X87766Y-56889D01*
X87766Y-56882D01*
X87480Y-56882D01*
X87418Y-56944D01*
X87418Y-57117D01*
X87456Y-57209D01*
X87523Y-57277D01*
X87113Y-57277D01*
X87095Y-57260D01*
X86722Y-57260D01*
X86722Y-57267D01*
X86622Y-57267D01*
X86622Y-57260D01*
X86614Y-57260D01*
X86614Y-57160D01*
X86622Y-57160D01*
X86622Y-57152D01*
X86722Y-57152D01*
X86722Y-57160D01*
X87095Y-57160D01*
X87158Y-57097D01*
X87158Y-57111D01*
X87158Y-57012D01*
X87120Y-56920D01*
X87049Y-56850D01*
X86991Y-56826D01*
X86991Y-56105D01*
X86973Y-56060D01*
X86939Y-56026D01*
X86895Y-56008D01*
X86847Y-56008D01*
X86330Y-56008D01*
X86330Y-55891D01*
X86915Y-55891D01*
X86920Y-55896D01*
X86965Y-55915D01*
X87013Y-55915D01*
X87406Y-55915D01*
X87451Y-55896D01*
X87485Y-55863D01*
X87496Y-55837D01*
X87501Y-55842D01*
X87501Y-55842D01*
X87547Y-55873D01*
X87547Y-56344D01*
X87558Y-56370D01*
X87526Y-56383D01*
X87456Y-56454D01*
X87418Y-56546D01*
X87418Y-56719D01*
X87480Y-56782D01*
X87766Y-56782D01*
X87766Y-56774D01*
X87866Y-56774D01*
X87866Y-56782D01*
X88151Y-56782D01*
X88213Y-56719D01*
X88213Y-56546D01*
X88175Y-56454D01*
X88105Y-56383D01*
X88073Y-56370D01*
X88084Y-56344D01*
X88084Y-56296D01*
X88084Y-56144D01*
X88241Y-56144D01*
X88241Y-56136D01*
X88241Y-56136D01*
X88241Y-56144D01*
X88248Y-56144D01*
X88303Y-56199D01*
X88726Y-56199D01*
X88726Y-56197D01*
X88826Y-56197D01*
X88826Y-56199D01*
X89249Y-56199D01*
X89311Y-56136D01*
X89311Y-56105D01*
X89273Y-56013D01*
X89203Y-55943D01*
X89182Y-55934D01*
X89182Y-55875D01*
X89176Y-55859D01*
X89182Y-55844D01*
X89182Y-55796D01*
X89182Y-55785D01*
X89203Y-55776D01*
X89273Y-55706D01*
X89311Y-55614D01*
X89311Y-55582D01*
X89249Y-55520D01*
X88826Y-55520D01*
X88826Y-55522D01*
X88726Y-55522D01*
X88726Y-55520D01*
X88303Y-55520D01*
X88248Y-55575D01*
X88241Y-55575D01*
X88241Y-55582D01*
X88241Y-55582D01*
X88241Y-55575D01*
X87716Y-55575D01*
X87716Y-55380D01*
X87706Y-55330D01*
X87704Y-55320D01*
X87704Y-55320D01*
X87691Y-55301D01*
X87874Y-55301D01*
X87903Y-55330D01*
X87903Y-55330D01*
X87954Y-55364D01*
X87954Y-55364D01*
X87964Y-55366D01*
X88014Y-55376D01*
X88241Y-55376D01*
X88241Y-55369D01*
X88241Y-55369D01*
X88241Y-55376D01*
X88248Y-55376D01*
X88303Y-55431D01*
X88726Y-55431D01*
X88726Y-55429D01*
X88826Y-55429D01*
X88826Y-55431D01*
X89249Y-55431D01*
X89311Y-55369D01*
X89311Y-55337D01*
X89273Y-55245D01*
X89203Y-55175D01*
X89182Y-55166D01*
X89182Y-55107D01*
X89176Y-55092D01*
X89182Y-55076D01*
X89182Y-55028D01*
X89182Y-54851D01*
X89176Y-54836D01*
X89182Y-54820D01*
X89182Y-54772D01*
X89182Y-54616D01*
X89703Y-54616D01*
X89703Y-54708D01*
X89703Y-54720D01*
X89703Y-56440D01*
X89715Y-56499D01*
X89749Y-56550D01*
X89809Y-56610D01*
X89809Y-56610D01*
X89842Y-56632D01*
X89859Y-56643D01*
X89859Y-56643D01*
X89919Y-56655D01*
X89919Y-56655D01*
X90711Y-56655D01*
X90711Y-56656D01*
X90745Y-56690D01*
X90789Y-56709D01*
X90837Y-56709D01*
X90943Y-56709D01*
X90943Y-56719D01*
X90943Y-56720D01*
X90943Y-56726D01*
X90943Y-56727D01*
X90943Y-56903D01*
X90839Y-56903D01*
X90813Y-56914D01*
X90800Y-56882D01*
X90729Y-56812D01*
X90637Y-56774D01*
X90464Y-56774D01*
X90401Y-56836D01*
X90401Y-57122D01*
X90409Y-57122D01*
X90409Y-57222D01*
X90401Y-57222D01*
X90401Y-57507D01*
X90464Y-57569D01*
X90637Y-57569D01*
X90729Y-57531D01*
X90800Y-57461D01*
X90813Y-57429D01*
X90839Y-57440D01*
X90887Y-57440D01*
X90943Y-57440D01*
X90943Y-57595D01*
X90943Y-57595D01*
G37*
G54D22*
X90943Y-57595D02*
X90943Y-57595D01*
X90301Y-57595D01*
X90301Y-57507D01*
X90301Y-57222D01*
X90301Y-57122D01*
X90301Y-56836D01*
X90239Y-56774D01*
X90066Y-56774D01*
X89974Y-56812D01*
X89916Y-56870D01*
X89857Y-56812D01*
X89765Y-56774D01*
X89592Y-56774D01*
X89530Y-56836D01*
X89530Y-57122D01*
X89903Y-57122D01*
X89916Y-57109D01*
X89928Y-57122D01*
X90301Y-57122D01*
X90301Y-57222D01*
X89928Y-57222D01*
X89916Y-57234D01*
X89903Y-57222D01*
X89530Y-57222D01*
X89530Y-57507D01*
X89592Y-57569D01*
X89765Y-57569D01*
X89857Y-57531D01*
X89916Y-57473D01*
X89974Y-57531D01*
X90066Y-57569D01*
X90239Y-57569D01*
X90301Y-57507D01*
X90301Y-57595D01*
X88888Y-57595D01*
X88888Y-57440D01*
X88992Y-57440D01*
X89018Y-57429D01*
X89031Y-57461D01*
X89102Y-57531D01*
X89194Y-57569D01*
X89367Y-57569D01*
X89430Y-57507D01*
X89430Y-57222D01*
X89422Y-57222D01*
X89422Y-57122D01*
X89430Y-57122D01*
X89430Y-56836D01*
X89367Y-56774D01*
X89194Y-56774D01*
X89102Y-56812D01*
X89031Y-56882D01*
X89018Y-56914D01*
X88992Y-56903D01*
X88944Y-56903D01*
X88888Y-56903D01*
X88888Y-56709D01*
X89085Y-56709D01*
X89130Y-56690D01*
X89164Y-56656D01*
X89182Y-56612D01*
X89182Y-56564D01*
X89182Y-56552D01*
X89203Y-56544D01*
X89273Y-56474D01*
X89311Y-56382D01*
X89311Y-56350D01*
X89249Y-56287D01*
X88826Y-56287D01*
X88826Y-56290D01*
X88726Y-56290D01*
X88726Y-56287D01*
X88303Y-56287D01*
X88241Y-56350D01*
X88241Y-56382D01*
X88279Y-56474D01*
X88349Y-56544D01*
X88370Y-56552D01*
X88370Y-56612D01*
X88388Y-56656D01*
X88422Y-56690D01*
X88467Y-56709D01*
X88515Y-56709D01*
X88575Y-56709D01*
X88575Y-56903D01*
X88471Y-56903D01*
X88427Y-56921D01*
X88393Y-56955D01*
X88374Y-57000D01*
X88374Y-57048D01*
X88374Y-57158D01*
X88349Y-57148D01*
X88201Y-57148D01*
X88213Y-57117D01*
X88213Y-56944D01*
X88151Y-56882D01*
X87866Y-56882D01*
X87866Y-56889D01*
X87766Y-56889D01*
X87766Y-56882D01*
X87480Y-56882D01*
X87418Y-56944D01*
X87418Y-57117D01*
X87456Y-57209D01*
X87523Y-57277D01*
X87113Y-57277D01*
X87095Y-57260D01*
X86722Y-57260D01*
X86722Y-57267D01*
X86622Y-57267D01*
X86622Y-57260D01*
X86614Y-57260D01*
X86614Y-57160D01*
X86622Y-57160D01*
X86622Y-57152D01*
X86722Y-57152D01*
X86722Y-57160D01*
X87095Y-57160D01*
X87158Y-57097D01*
X87158Y-57111D01*
X87158Y-57012D01*
X87120Y-56920D01*
X87049Y-56850D01*
X86991Y-56826D01*
X86991Y-56105D01*
X86973Y-56060D01*
X86939Y-56026D01*
X86895Y-56008D01*
X86847Y-56008D01*
X86330Y-56008D01*
X86330Y-55891D01*
X86915Y-55891D01*
X86920Y-55896D01*
X86965Y-55915D01*
X87013Y-55915D01*
X87406Y-55915D01*
X87451Y-55896D01*
X87485Y-55863D01*
X87496Y-55837D01*
X87501Y-55842D01*
X87501Y-55842D01*
X87547Y-55873D01*
X87547Y-56344D01*
X87558Y-56370D01*
X87526Y-56383D01*
X87456Y-56454D01*
X87418Y-56546D01*
X87418Y-56719D01*
X87480Y-56782D01*
X87766Y-56782D01*
X87766Y-56774D01*
X87866Y-56774D01*
X87866Y-56782D01*
X88151Y-56782D01*
X88213Y-56719D01*
X88213Y-56546D01*
X88175Y-56454D01*
X88105Y-56383D01*
X88073Y-56370D01*
X88084Y-56344D01*
X88084Y-56296D01*
X88084Y-56144D01*
X88241Y-56144D01*
X88241Y-56136D01*
X88241Y-56136D01*
X88241Y-56144D01*
X88248Y-56144D01*
X88303Y-56199D01*
X88726Y-56199D01*
X88726Y-56197D01*
X88826Y-56197D01*
X88826Y-56199D01*
X89249Y-56199D01*
X89311Y-56136D01*
X89311Y-56105D01*
X89273Y-56013D01*
X89203Y-55943D01*
X89182Y-55934D01*
X89182Y-55875D01*
X89176Y-55859D01*
X89182Y-55844D01*
X89182Y-55796D01*
X89182Y-55785D01*
X89203Y-55776D01*
X89273Y-55706D01*
X89311Y-55614D01*
X89311Y-55582D01*
X89249Y-55520D01*
X88826Y-55520D01*
X88826Y-55522D01*
X88726Y-55522D01*
X88726Y-55520D01*
X88303Y-55520D01*
X88248Y-55575D01*
X88241Y-55575D01*
X88241Y-55582D01*
X88241Y-55582D01*
X88241Y-55575D01*
X87716Y-55575D01*
X87716Y-55380D01*
X87706Y-55330D01*
X87704Y-55320D01*
X87704Y-55320D01*
X87691Y-55301D01*
X87874Y-55301D01*
X87903Y-55330D01*
X87903Y-55330D01*
X87954Y-55364D01*
X87954Y-55364D01*
X87964Y-55366D01*
X88014Y-55376D01*
X88241Y-55376D01*
X88241Y-55369D01*
X88241Y-55369D01*
X88241Y-55376D01*
X88248Y-55376D01*
X88303Y-55431D01*
X88726Y-55431D01*
X88726Y-55429D01*
X88826Y-55429D01*
X88826Y-55431D01*
X89249Y-55431D01*
X89311Y-55369D01*
X89311Y-55337D01*
X89273Y-55245D01*
X89203Y-55175D01*
X89182Y-55166D01*
X89182Y-55107D01*
X89176Y-55092D01*
X89182Y-55076D01*
X89182Y-55028D01*
X89182Y-54851D01*
X89176Y-54836D01*
X89182Y-54820D01*
X89182Y-54772D01*
X89182Y-54616D01*
X89703Y-54616D01*
X89703Y-54708D01*
X89703Y-54720D01*
X89703Y-56440D01*
X89715Y-56499D01*
X89749Y-56550D01*
X89809Y-56610D01*
X89809Y-56610D01*
X89842Y-56632D01*
X89859Y-56643D01*
X89859Y-56643D01*
X89919Y-56655D01*
X89919Y-56655D01*
X90711Y-56655D01*
X90711Y-56656D01*
X90745Y-56690D01*
X90789Y-56709D01*
X90837Y-56709D01*
X90943Y-56709D01*
X90943Y-56719D01*
X90943Y-56720D01*
X90943Y-56726D01*
X90943Y-56727D01*
X90943Y-56903D01*
X90839Y-56903D01*
X90813Y-56914D01*
X90800Y-56882D01*
X90729Y-56812D01*
X90637Y-56774D01*
X90464Y-56774D01*
X90401Y-56836D01*
X90401Y-57122D01*
X90409Y-57122D01*
X90409Y-57222D01*
X90401Y-57222D01*
X90401Y-57507D01*
X90464Y-57569D01*
X90637Y-57569D01*
X90729Y-57531D01*
X90800Y-57461D01*
X90813Y-57429D01*
X90839Y-57440D01*
X90887Y-57440D01*
X90943Y-57440D01*
X90943Y-57595D01*
G54D10*
G36*
X91157Y-56032D02*
X91149Y-56032D01*
X91149Y-56034D01*
X91049Y-56034D01*
X91049Y-56032D01*
X90626Y-56032D01*
X90564Y-56094D01*
X90564Y-56126D01*
X90602Y-56218D01*
X90672Y-56288D01*
X90693Y-56296D01*
X90693Y-56343D01*
X90016Y-56343D01*
X90016Y-54864D01*
X90693Y-54864D01*
X90693Y-54899D01*
X90693Y-55076D01*
X90699Y-55092D01*
X90693Y-55107D01*
X90693Y-55155D01*
X90693Y-55332D01*
X90699Y-55347D01*
X90693Y-55363D01*
X90693Y-55411D01*
X90693Y-55588D01*
X90699Y-55603D01*
X90693Y-55619D01*
X90693Y-55667D01*
X90693Y-55678D01*
X90672Y-55687D01*
X90602Y-55757D01*
X90564Y-55849D01*
X90564Y-55880D01*
X90626Y-55943D01*
X91049Y-55943D01*
X91049Y-55941D01*
X91149Y-55941D01*
X91149Y-55943D01*
X91157Y-55943D01*
X91157Y-56032D01*
X91157Y-56032D01*
G37*
G54D22*
X91157Y-56032D02*
X91149Y-56032D01*
X91149Y-56034D01*
X91049Y-56034D01*
X91049Y-56032D01*
X90626Y-56032D01*
X90564Y-56094D01*
X90564Y-56126D01*
X90602Y-56218D01*
X90672Y-56288D01*
X90693Y-56296D01*
X90693Y-56343D01*
X90016Y-56343D01*
X90016Y-54864D01*
X90693Y-54864D01*
X90693Y-54899D01*
X90693Y-55076D01*
X90699Y-55092D01*
X90693Y-55107D01*
X90693Y-55155D01*
X90693Y-55332D01*
X90699Y-55347D01*
X90693Y-55363D01*
X90693Y-55411D01*
X90693Y-55588D01*
X90699Y-55603D01*
X90693Y-55619D01*
X90693Y-55667D01*
X90693Y-55678D01*
X90672Y-55687D01*
X90602Y-55757D01*
X90564Y-55849D01*
X90564Y-55880D01*
X90626Y-55943D01*
X91049Y-55943D01*
X91049Y-55941D01*
X91149Y-55941D01*
X91149Y-55943D01*
X91157Y-55943D01*
X91157Y-56032D01*
G54D10*
G36*
X91781Y-54315D02*
X91717Y-54251D01*
X91629Y-54215D01*
X91534Y-54214D01*
X91505Y-54226D01*
X91505Y-54083D01*
X91487Y-54039D01*
X91453Y-54005D01*
X91408Y-53986D01*
X91360Y-53986D01*
X90790Y-53986D01*
X90745Y-54005D01*
X90711Y-54039D01*
X90711Y-54040D01*
X89883Y-54040D01*
X89833Y-54050D01*
X89823Y-54052D01*
X89773Y-54085D01*
X89749Y-54109D01*
X89715Y-54160D01*
X89703Y-54220D01*
X89703Y-54303D01*
X89311Y-54303D01*
X89311Y-54303D01*
X89249Y-54240D01*
X88826Y-54240D01*
X88826Y-54242D01*
X88726Y-54242D01*
X88726Y-54240D01*
X88303Y-54240D01*
X88257Y-54287D01*
X88241Y-54287D01*
X88241Y-54303D01*
X88241Y-54303D01*
X88241Y-54287D01*
X88182Y-54286D01*
X88094Y-54323D01*
X88027Y-54390D01*
X88024Y-54398D01*
X87678Y-54398D01*
X87693Y-54376D01*
X87704Y-54359D01*
X87704Y-54359D01*
X87716Y-54300D01*
X87716Y-54300D01*
X87716Y-53956D01*
X88172Y-53956D01*
X88289Y-53956D01*
X88279Y-53966D01*
X88241Y-54057D01*
X88241Y-54089D01*
X88303Y-54152D01*
X88726Y-54152D01*
X88726Y-54138D01*
X88826Y-54138D01*
X88826Y-54152D01*
X89249Y-54152D01*
X89311Y-54089D01*
X89311Y-54057D01*
X89273Y-53966D01*
X89264Y-53956D01*
X91781Y-53956D01*
X91781Y-54315D01*
X91781Y-54315D01*
G37*
G54D22*
X91781Y-54315D02*
X91717Y-54251D01*
X91629Y-54215D01*
X91534Y-54214D01*
X91505Y-54226D01*
X91505Y-54083D01*
X91487Y-54039D01*
X91453Y-54005D01*
X91408Y-53986D01*
X91360Y-53986D01*
X90790Y-53986D01*
X90745Y-54005D01*
X90711Y-54039D01*
X90711Y-54040D01*
X89883Y-54040D01*
X89833Y-54050D01*
X89823Y-54052D01*
X89773Y-54085D01*
X89749Y-54109D01*
X89715Y-54160D01*
X89703Y-54220D01*
X89703Y-54303D01*
X89311Y-54303D01*
X89311Y-54303D01*
X89249Y-54240D01*
X88826Y-54240D01*
X88826Y-54242D01*
X88726Y-54242D01*
X88726Y-54240D01*
X88303Y-54240D01*
X88257Y-54287D01*
X88241Y-54287D01*
X88241Y-54303D01*
X88241Y-54303D01*
X88241Y-54287D01*
X88182Y-54286D01*
X88094Y-54323D01*
X88027Y-54390D01*
X88024Y-54398D01*
X87678Y-54398D01*
X87693Y-54376D01*
X87704Y-54359D01*
X87704Y-54359D01*
X87716Y-54300D01*
X87716Y-54300D01*
X87716Y-53956D01*
X88172Y-53956D01*
X88289Y-53956D01*
X88279Y-53966D01*
X88241Y-54057D01*
X88241Y-54089D01*
X88303Y-54152D01*
X88726Y-54152D01*
X88726Y-54138D01*
X88826Y-54138D01*
X88826Y-54152D01*
X89249Y-54152D01*
X89311Y-54089D01*
X89311Y-54057D01*
X89273Y-53966D01*
X89264Y-53956D01*
X91781Y-53956D01*
X91781Y-54315D01*
G54D10*
G36*
X97277Y-52643D02*
X95579Y-52643D01*
X95579Y-52630D01*
X95579Y-52512D01*
X95573Y-52497D01*
X95579Y-52481D01*
X95579Y-52433D01*
X95579Y-52315D01*
X95573Y-52300D01*
X95579Y-52284D01*
X95579Y-52236D01*
X95579Y-52118D01*
X95573Y-52103D01*
X95579Y-52088D01*
X95579Y-52040D01*
X95579Y-51921D01*
X95573Y-51906D01*
X95579Y-51891D01*
X95579Y-51843D01*
X95579Y-51725D01*
X95573Y-51709D01*
X95579Y-51694D01*
X95579Y-51646D01*
X95579Y-51528D01*
X95573Y-51512D01*
X95579Y-51497D01*
X95579Y-51449D01*
X95579Y-51331D01*
X95573Y-51315D01*
X95579Y-51300D01*
X95579Y-51252D01*
X95579Y-51134D01*
X95573Y-51119D01*
X95579Y-51103D01*
X95579Y-51055D01*
X95579Y-50937D01*
X95573Y-50922D01*
X95579Y-50907D01*
X95579Y-50858D01*
X95579Y-50740D01*
X95573Y-50725D01*
X95579Y-50710D01*
X95579Y-50662D01*
X95579Y-50544D01*
X95573Y-50528D01*
X95579Y-50513D01*
X95579Y-50465D01*
X95579Y-50347D01*
X95573Y-50331D01*
X95579Y-50316D01*
X95579Y-50268D01*
X95579Y-50150D01*
X95573Y-50134D01*
X95579Y-50119D01*
X95579Y-50071D01*
X95579Y-49953D01*
X95573Y-49938D01*
X95579Y-49922D01*
X95579Y-49874D01*
X95579Y-49756D01*
X95573Y-49741D01*
X95579Y-49725D01*
X95579Y-49677D01*
X95579Y-49559D01*
X95573Y-49544D01*
X95579Y-49529D01*
X95579Y-49481D01*
X95579Y-49362D01*
X95573Y-49347D01*
X95579Y-49332D01*
X95579Y-49284D01*
X95579Y-49166D01*
X95573Y-49150D01*
X95579Y-49135D01*
X95579Y-49087D01*
X95579Y-48969D01*
X95573Y-48953D01*
X95579Y-48938D01*
X95579Y-48890D01*
X95579Y-48772D01*
X95573Y-48756D01*
X95579Y-48741D01*
X95579Y-48693D01*
X95579Y-48575D01*
X95573Y-48560D01*
X95579Y-48544D01*
X95579Y-48496D01*
X95579Y-48378D01*
X95573Y-48363D01*
X95579Y-48347D01*
X95579Y-48299D01*
X95579Y-48181D01*
X95573Y-48166D01*
X95579Y-48151D01*
X95579Y-48103D01*
X95579Y-47984D01*
X95573Y-47969D01*
X95579Y-47954D01*
X95579Y-47906D01*
X95579Y-47830D01*
X97277Y-47830D01*
X97277Y-52643D01*
X97277Y-52643D01*
G37*
G54D22*
X97277Y-52643D02*
X95579Y-52643D01*
X95579Y-52630D01*
X95579Y-52512D01*
X95573Y-52497D01*
X95579Y-52481D01*
X95579Y-52433D01*
X95579Y-52315D01*
X95573Y-52300D01*
X95579Y-52284D01*
X95579Y-52236D01*
X95579Y-52118D01*
X95573Y-52103D01*
X95579Y-52088D01*
X95579Y-52040D01*
X95579Y-51921D01*
X95573Y-51906D01*
X95579Y-51891D01*
X95579Y-51843D01*
X95579Y-51725D01*
X95573Y-51709D01*
X95579Y-51694D01*
X95579Y-51646D01*
X95579Y-51528D01*
X95573Y-51512D01*
X95579Y-51497D01*
X95579Y-51449D01*
X95579Y-51331D01*
X95573Y-51315D01*
X95579Y-51300D01*
X95579Y-51252D01*
X95579Y-51134D01*
X95573Y-51119D01*
X95579Y-51103D01*
X95579Y-51055D01*
X95579Y-50937D01*
X95573Y-50922D01*
X95579Y-50907D01*
X95579Y-50858D01*
X95579Y-50740D01*
X95573Y-50725D01*
X95579Y-50710D01*
X95579Y-50662D01*
X95579Y-50544D01*
X95573Y-50528D01*
X95579Y-50513D01*
X95579Y-50465D01*
X95579Y-50347D01*
X95573Y-50331D01*
X95579Y-50316D01*
X95579Y-50268D01*
X95579Y-50150D01*
X95573Y-50134D01*
X95579Y-50119D01*
X95579Y-50071D01*
X95579Y-49953D01*
X95573Y-49938D01*
X95579Y-49922D01*
X95579Y-49874D01*
X95579Y-49756D01*
X95573Y-49741D01*
X95579Y-49725D01*
X95579Y-49677D01*
X95579Y-49559D01*
X95573Y-49544D01*
X95579Y-49529D01*
X95579Y-49481D01*
X95579Y-49362D01*
X95573Y-49347D01*
X95579Y-49332D01*
X95579Y-49284D01*
X95579Y-49166D01*
X95573Y-49150D01*
X95579Y-49135D01*
X95579Y-49087D01*
X95579Y-48969D01*
X95573Y-48953D01*
X95579Y-48938D01*
X95579Y-48890D01*
X95579Y-48772D01*
X95573Y-48756D01*
X95579Y-48741D01*
X95579Y-48693D01*
X95579Y-48575D01*
X95573Y-48560D01*
X95579Y-48544D01*
X95579Y-48496D01*
X95579Y-48378D01*
X95573Y-48363D01*
X95579Y-48347D01*
X95579Y-48299D01*
X95579Y-48181D01*
X95573Y-48166D01*
X95579Y-48151D01*
X95579Y-48103D01*
X95579Y-47984D01*
X95573Y-47969D01*
X95579Y-47954D01*
X95579Y-47906D01*
X95579Y-47830D01*
X97277Y-47830D01*
X97277Y-52643D01*
G54D10*
G36*
X97277Y-56570D02*
X96878Y-56570D01*
X96878Y-55721D01*
X96878Y-54933D01*
X96860Y-54889D01*
X96826Y-54855D01*
X96782Y-54836D01*
X96734Y-54836D01*
X95553Y-54836D01*
X95508Y-54855D01*
X95474Y-54889D01*
X95456Y-54933D01*
X95456Y-54981D01*
X95456Y-55769D01*
X95474Y-55813D01*
X95508Y-55847D01*
X95552Y-55865D01*
X95600Y-55865D01*
X96781Y-55865D01*
X96826Y-55847D01*
X96860Y-55813D01*
X96878Y-55769D01*
X96878Y-55721D01*
X96878Y-56570D01*
X94692Y-56570D01*
X94692Y-53874D01*
X94692Y-53888D01*
X94629Y-53826D01*
X94256Y-53826D01*
X94256Y-54100D01*
X94246Y-54110D01*
X94246Y-54396D01*
X94619Y-54396D01*
X94682Y-54333D01*
X94682Y-54347D01*
X94682Y-54248D01*
X94644Y-54156D01*
X94603Y-54115D01*
X94654Y-54065D01*
X94692Y-53973D01*
X94692Y-53874D01*
X94692Y-56570D01*
X94682Y-56570D01*
X94682Y-54544D01*
X94682Y-54558D01*
X94619Y-54496D01*
X94246Y-54496D01*
X94246Y-54781D01*
X94308Y-54843D01*
X94481Y-54843D01*
X94573Y-54805D01*
X94644Y-54735D01*
X94682Y-54643D01*
X94682Y-54544D01*
X94682Y-56570D01*
X93742Y-56570D01*
X93765Y-56513D01*
X93765Y-56340D01*
X93703Y-56278D01*
X93418Y-56278D01*
X93418Y-56285D01*
X93318Y-56285D01*
X93318Y-56278D01*
X93310Y-56278D01*
X93310Y-56178D01*
X93318Y-56178D01*
X93318Y-56170D01*
X93418Y-56170D01*
X93418Y-56178D01*
X93703Y-56178D01*
X93765Y-56115D01*
X93765Y-55942D01*
X93727Y-55850D01*
X93657Y-55779D01*
X93625Y-55766D01*
X93636Y-55740D01*
X93636Y-55692D01*
X93636Y-55219D01*
X93618Y-55175D01*
X93584Y-55141D01*
X93539Y-55122D01*
X93491Y-55122D01*
X93196Y-55122D01*
X93151Y-55141D01*
X93117Y-55175D01*
X93099Y-55219D01*
X93099Y-55267D01*
X93099Y-55319D01*
X92984Y-55319D01*
X92984Y-55288D01*
X92984Y-54815D01*
X92966Y-54771D01*
X92932Y-54737D01*
X92887Y-54718D01*
X92839Y-54718D01*
X92544Y-54718D01*
X92499Y-54737D01*
X92465Y-54771D01*
X92447Y-54815D01*
X92447Y-54863D01*
X92447Y-55063D01*
X92318Y-55063D01*
X92318Y-55036D01*
X92318Y-54563D01*
X92300Y-54519D01*
X92266Y-54485D01*
X92221Y-54466D01*
X92173Y-54466D01*
X91878Y-54466D01*
X91833Y-54485D01*
X91820Y-54498D01*
X91821Y-54406D01*
X91817Y-54398D01*
X91833Y-54414D01*
X91878Y-54433D01*
X91926Y-54433D01*
X92221Y-54433D01*
X92266Y-54414D01*
X92300Y-54380D01*
X92318Y-54336D01*
X92318Y-54288D01*
X92318Y-53815D01*
X92300Y-53771D01*
X92277Y-53748D01*
X92268Y-53726D01*
X92549Y-53726D01*
X92509Y-53766D01*
X92473Y-53854D01*
X92472Y-53949D01*
X92492Y-53996D01*
X92465Y-54023D01*
X92447Y-54067D01*
X92447Y-54115D01*
X92447Y-54588D01*
X92465Y-54632D01*
X92499Y-54666D01*
X92544Y-54685D01*
X92592Y-54685D01*
X92887Y-54685D01*
X92932Y-54666D01*
X92966Y-54632D01*
X92984Y-54588D01*
X92984Y-54540D01*
X92984Y-54067D01*
X92966Y-54023D01*
X92933Y-53990D01*
X92950Y-53949D01*
X92950Y-53878D01*
X93007Y-53879D01*
X93095Y-53842D01*
X93100Y-53837D01*
X93100Y-53947D01*
X93119Y-53992D01*
X93153Y-54026D01*
X93197Y-54044D01*
X93240Y-54044D01*
X93211Y-54114D01*
X93211Y-54177D01*
X93187Y-54177D01*
X93143Y-54195D01*
X93109Y-54229D01*
X93090Y-54274D01*
X93090Y-54322D01*
X93090Y-54617D01*
X93109Y-54662D01*
X93143Y-54696D01*
X93187Y-54714D01*
X93235Y-54714D01*
X93708Y-54714D01*
X93734Y-54703D01*
X93747Y-54735D01*
X93818Y-54805D01*
X93910Y-54843D01*
X94083Y-54843D01*
X94146Y-54781D01*
X94146Y-54496D01*
X94138Y-54496D01*
X94138Y-54396D01*
X94146Y-54396D01*
X94146Y-54121D01*
X94156Y-54111D01*
X94156Y-53826D01*
X94148Y-53826D01*
X94148Y-53726D01*
X94156Y-53726D01*
X94156Y-53718D01*
X94256Y-53718D01*
X94256Y-53726D01*
X94629Y-53726D01*
X94692Y-53663D01*
X94692Y-53677D01*
X94692Y-53578D01*
X94674Y-53536D01*
X94944Y-53536D01*
X94944Y-53544D01*
X94944Y-53662D01*
X94950Y-53678D01*
X94944Y-53693D01*
X94944Y-53741D01*
X94944Y-53859D01*
X94950Y-53875D01*
X94944Y-53890D01*
X94944Y-53938D01*
X94944Y-54056D01*
X94950Y-54071D01*
X94944Y-54087D01*
X94944Y-54135D01*
X94944Y-54253D01*
X94950Y-54268D01*
X94944Y-54283D01*
X94944Y-54332D01*
X94944Y-54450D01*
X94950Y-54465D01*
X94944Y-54480D01*
X94944Y-54528D01*
X94944Y-54646D01*
X94962Y-54691D01*
X94996Y-54725D01*
X95041Y-54743D01*
X95089Y-54743D01*
X95482Y-54743D01*
X95527Y-54725D01*
X95561Y-54691D01*
X95579Y-54647D01*
X95579Y-54599D01*
X95579Y-54481D01*
X95573Y-54465D01*
X95579Y-54450D01*
X95579Y-54402D01*
X95579Y-54316D01*
X97277Y-54316D01*
X97277Y-54422D01*
X97277Y-54440D01*
X97277Y-56570D01*
X97277Y-56570D01*
G37*
G54D22*
X97277Y-56570D02*
X96878Y-56570D01*
X96878Y-55721D01*
X96878Y-54933D01*
X96860Y-54889D01*
X96826Y-54855D01*
X96782Y-54836D01*
X96734Y-54836D01*
X95553Y-54836D01*
X95508Y-54855D01*
X95474Y-54889D01*
X95456Y-54933D01*
X95456Y-54981D01*
X95456Y-55769D01*
X95474Y-55813D01*
X95508Y-55847D01*
X95552Y-55865D01*
X95600Y-55865D01*
X96781Y-55865D01*
X96826Y-55847D01*
X96860Y-55813D01*
X96878Y-55769D01*
X96878Y-55721D01*
X96878Y-56570D01*
X94692Y-56570D01*
X94692Y-53874D01*
X94692Y-53888D01*
X94629Y-53826D01*
X94256Y-53826D01*
X94256Y-54100D01*
X94246Y-54110D01*
X94246Y-54396D01*
X94619Y-54396D01*
X94682Y-54333D01*
X94682Y-54347D01*
X94682Y-54248D01*
X94644Y-54156D01*
X94603Y-54115D01*
X94654Y-54065D01*
X94692Y-53973D01*
X94692Y-53874D01*
X94692Y-56570D01*
X94682Y-56570D01*
X94682Y-54544D01*
X94682Y-54558D01*
X94619Y-54496D01*
X94246Y-54496D01*
X94246Y-54781D01*
X94308Y-54843D01*
X94481Y-54843D01*
X94573Y-54805D01*
X94644Y-54735D01*
X94682Y-54643D01*
X94682Y-54544D01*
X94682Y-56570D01*
X93742Y-56570D01*
X93765Y-56513D01*
X93765Y-56340D01*
X93703Y-56278D01*
X93418Y-56278D01*
X93418Y-56285D01*
X93318Y-56285D01*
X93318Y-56278D01*
X93310Y-56278D01*
X93310Y-56178D01*
X93318Y-56178D01*
X93318Y-56170D01*
X93418Y-56170D01*
X93418Y-56178D01*
X93703Y-56178D01*
X93765Y-56115D01*
X93765Y-55942D01*
X93727Y-55850D01*
X93657Y-55779D01*
X93625Y-55766D01*
X93636Y-55740D01*
X93636Y-55692D01*
X93636Y-55219D01*
X93618Y-55175D01*
X93584Y-55141D01*
X93539Y-55122D01*
X93491Y-55122D01*
X93196Y-55122D01*
X93151Y-55141D01*
X93117Y-55175D01*
X93099Y-55219D01*
X93099Y-55267D01*
X93099Y-55319D01*
X92984Y-55319D01*
X92984Y-55288D01*
X92984Y-54815D01*
X92966Y-54771D01*
X92932Y-54737D01*
X92887Y-54718D01*
X92839Y-54718D01*
X92544Y-54718D01*
X92499Y-54737D01*
X92465Y-54771D01*
X92447Y-54815D01*
X92447Y-54863D01*
X92447Y-55063D01*
X92318Y-55063D01*
X92318Y-55036D01*
X92318Y-54563D01*
X92300Y-54519D01*
X92266Y-54485D01*
X92221Y-54466D01*
X92173Y-54466D01*
X91878Y-54466D01*
X91833Y-54485D01*
X91820Y-54498D01*
X91821Y-54406D01*
X91817Y-54398D01*
X91833Y-54414D01*
X91878Y-54433D01*
X91926Y-54433D01*
X92221Y-54433D01*
X92266Y-54414D01*
X92300Y-54380D01*
X92318Y-54336D01*
X92318Y-54288D01*
X92318Y-53815D01*
X92300Y-53771D01*
X92277Y-53748D01*
X92268Y-53726D01*
X92549Y-53726D01*
X92509Y-53766D01*
X92473Y-53854D01*
X92472Y-53949D01*
X92492Y-53996D01*
X92465Y-54023D01*
X92447Y-54067D01*
X92447Y-54115D01*
X92447Y-54588D01*
X92465Y-54632D01*
X92499Y-54666D01*
X92544Y-54685D01*
X92592Y-54685D01*
X92887Y-54685D01*
X92932Y-54666D01*
X92966Y-54632D01*
X92984Y-54588D01*
X92984Y-54540D01*
X92984Y-54067D01*
X92966Y-54023D01*
X92933Y-53990D01*
X92950Y-53949D01*
X92950Y-53878D01*
X93007Y-53879D01*
X93095Y-53842D01*
X93100Y-53837D01*
X93100Y-53947D01*
X93119Y-53992D01*
X93153Y-54026D01*
X93197Y-54044D01*
X93240Y-54044D01*
X93211Y-54114D01*
X93211Y-54177D01*
X93187Y-54177D01*
X93143Y-54195D01*
X93109Y-54229D01*
X93090Y-54274D01*
X93090Y-54322D01*
X93090Y-54617D01*
X93109Y-54662D01*
X93143Y-54696D01*
X93187Y-54714D01*
X93235Y-54714D01*
X93708Y-54714D01*
X93734Y-54703D01*
X93747Y-54735D01*
X93818Y-54805D01*
X93910Y-54843D01*
X94083Y-54843D01*
X94146Y-54781D01*
X94146Y-54496D01*
X94138Y-54496D01*
X94138Y-54396D01*
X94146Y-54396D01*
X94146Y-54121D01*
X94156Y-54111D01*
X94156Y-53826D01*
X94148Y-53826D01*
X94148Y-53726D01*
X94156Y-53726D01*
X94156Y-53718D01*
X94256Y-53718D01*
X94256Y-53726D01*
X94629Y-53726D01*
X94692Y-53663D01*
X94692Y-53677D01*
X94692Y-53578D01*
X94674Y-53536D01*
X94944Y-53536D01*
X94944Y-53544D01*
X94944Y-53662D01*
X94950Y-53678D01*
X94944Y-53693D01*
X94944Y-53741D01*
X94944Y-53859D01*
X94950Y-53875D01*
X94944Y-53890D01*
X94944Y-53938D01*
X94944Y-54056D01*
X94950Y-54071D01*
X94944Y-54087D01*
X94944Y-54135D01*
X94944Y-54253D01*
X94950Y-54268D01*
X94944Y-54283D01*
X94944Y-54332D01*
X94944Y-54450D01*
X94950Y-54465D01*
X94944Y-54480D01*
X94944Y-54528D01*
X94944Y-54646D01*
X94962Y-54691D01*
X94996Y-54725D01*
X95041Y-54743D01*
X95089Y-54743D01*
X95482Y-54743D01*
X95527Y-54725D01*
X95561Y-54691D01*
X95579Y-54647D01*
X95579Y-54599D01*
X95579Y-54481D01*
X95573Y-54465D01*
X95579Y-54450D01*
X95579Y-54402D01*
X95579Y-54316D01*
X97277Y-54316D01*
X97277Y-54422D01*
X97277Y-54440D01*
X97277Y-56570D01*
G54D10*
G36*
X110015Y-57563D02*
X109898Y-57563D01*
X109853Y-57581D01*
X109819Y-57615D01*
X109801Y-57659D01*
X109801Y-57707D01*
X109801Y-58070D01*
X102866Y-58070D01*
X102914Y-58022D01*
X102953Y-57930D01*
X102953Y-57831D01*
X102953Y-57835D01*
X102890Y-57773D01*
X102497Y-57773D01*
X102497Y-57780D01*
X102397Y-57780D01*
X102397Y-57773D01*
X102003Y-57773D01*
X101941Y-57835D01*
X101941Y-57831D01*
X101941Y-57930D01*
X101979Y-58022D01*
X102049Y-58092D01*
X102070Y-58101D01*
X102070Y-58408D01*
X102088Y-58452D01*
X102122Y-58486D01*
X102167Y-58505D01*
X102215Y-58505D01*
X102726Y-58505D01*
X102771Y-58486D01*
X102805Y-58453D01*
X102823Y-58408D01*
X102823Y-58383D01*
X109801Y-58383D01*
X109801Y-58573D01*
X85812Y-58573D01*
X85812Y-58538D01*
X85812Y-58383D01*
X99590Y-58383D01*
X99590Y-58408D01*
X99608Y-58452D01*
X99642Y-58486D01*
X99686Y-58505D01*
X99734Y-58505D01*
X100246Y-58505D01*
X100291Y-58486D01*
X100325Y-58453D01*
X100343Y-58408D01*
X100343Y-58360D01*
X100343Y-58101D01*
X100364Y-58092D01*
X100434Y-58022D01*
X100472Y-57930D01*
X100472Y-57831D01*
X100472Y-57835D01*
X100410Y-57773D01*
X100016Y-57773D01*
X100016Y-57780D01*
X99916Y-57780D01*
X99916Y-57773D01*
X99523Y-57773D01*
X99460Y-57835D01*
X99460Y-57831D01*
X99460Y-57930D01*
X99499Y-58022D01*
X99547Y-58070D01*
X85812Y-58070D01*
X85812Y-58046D01*
X91558Y-58046D01*
X91558Y-58046D01*
X91617Y-58034D01*
X91668Y-58000D01*
X91746Y-57922D01*
X91746Y-57922D01*
X91769Y-57888D01*
X91780Y-57871D01*
X91780Y-57871D01*
X91792Y-57812D01*
X91792Y-57812D01*
X91792Y-57383D01*
X99539Y-57383D01*
X99499Y-57423D01*
X99460Y-57515D01*
X99460Y-57615D01*
X99460Y-57610D01*
X99523Y-57673D01*
X99916Y-57673D01*
X99916Y-57665D01*
X100016Y-57665D01*
X100016Y-57673D01*
X100410Y-57673D01*
X100472Y-57610D01*
X100472Y-57615D01*
X100472Y-57515D01*
X100434Y-57423D01*
X100364Y-57353D01*
X100343Y-57345D01*
X100343Y-57045D01*
X100325Y-57001D01*
X100301Y-56976D01*
X100325Y-56953D01*
X100343Y-56908D01*
X100343Y-56883D01*
X102070Y-56883D01*
X102070Y-56908D01*
X102088Y-56952D01*
X102112Y-56976D01*
X102088Y-57000D01*
X102070Y-57045D01*
X102070Y-57093D01*
X102070Y-57345D01*
X102049Y-57353D01*
X101979Y-57423D01*
X101941Y-57515D01*
X101941Y-57615D01*
X101941Y-57610D01*
X102003Y-57673D01*
X102397Y-57673D01*
X102397Y-57665D01*
X102497Y-57665D01*
X102497Y-57673D01*
X102890Y-57673D01*
X102953Y-57610D01*
X102953Y-57615D01*
X102953Y-57515D01*
X102914Y-57423D01*
X102874Y-57383D01*
X110015Y-57383D01*
X110015Y-57563D01*
X110015Y-57563D01*
G37*
G54D22*
X110015Y-57563D02*
X109898Y-57563D01*
X109853Y-57581D01*
X109819Y-57615D01*
X109801Y-57659D01*
X109801Y-57707D01*
X109801Y-58070D01*
X102866Y-58070D01*
X102914Y-58022D01*
X102953Y-57930D01*
X102953Y-57831D01*
X102953Y-57835D01*
X102890Y-57773D01*
X102497Y-57773D01*
X102497Y-57780D01*
X102397Y-57780D01*
X102397Y-57773D01*
X102003Y-57773D01*
X101941Y-57835D01*
X101941Y-57831D01*
X101941Y-57930D01*
X101979Y-58022D01*
X102049Y-58092D01*
X102070Y-58101D01*
X102070Y-58408D01*
X102088Y-58452D01*
X102122Y-58486D01*
X102167Y-58505D01*
X102215Y-58505D01*
X102726Y-58505D01*
X102771Y-58486D01*
X102805Y-58453D01*
X102823Y-58408D01*
X102823Y-58383D01*
X109801Y-58383D01*
X109801Y-58573D01*
X85812Y-58573D01*
X85812Y-58538D01*
X85812Y-58383D01*
X99590Y-58383D01*
X99590Y-58408D01*
X99608Y-58452D01*
X99642Y-58486D01*
X99686Y-58505D01*
X99734Y-58505D01*
X100246Y-58505D01*
X100291Y-58486D01*
X100325Y-58453D01*
X100343Y-58408D01*
X100343Y-58360D01*
X100343Y-58101D01*
X100364Y-58092D01*
X100434Y-58022D01*
X100472Y-57930D01*
X100472Y-57831D01*
X100472Y-57835D01*
X100410Y-57773D01*
X100016Y-57773D01*
X100016Y-57780D01*
X99916Y-57780D01*
X99916Y-57773D01*
X99523Y-57773D01*
X99460Y-57835D01*
X99460Y-57831D01*
X99460Y-57930D01*
X99499Y-58022D01*
X99547Y-58070D01*
X85812Y-58070D01*
X85812Y-58046D01*
X91558Y-58046D01*
X91558Y-58046D01*
X91617Y-58034D01*
X91668Y-58000D01*
X91746Y-57922D01*
X91746Y-57922D01*
X91769Y-57888D01*
X91780Y-57871D01*
X91780Y-57871D01*
X91792Y-57812D01*
X91792Y-57812D01*
X91792Y-57383D01*
X99539Y-57383D01*
X99499Y-57423D01*
X99460Y-57515D01*
X99460Y-57615D01*
X99460Y-57610D01*
X99523Y-57673D01*
X99916Y-57673D01*
X99916Y-57665D01*
X100016Y-57665D01*
X100016Y-57673D01*
X100410Y-57673D01*
X100472Y-57610D01*
X100472Y-57615D01*
X100472Y-57515D01*
X100434Y-57423D01*
X100364Y-57353D01*
X100343Y-57345D01*
X100343Y-57045D01*
X100325Y-57001D01*
X100301Y-56976D01*
X100325Y-56953D01*
X100343Y-56908D01*
X100343Y-56883D01*
X102070Y-56883D01*
X102070Y-56908D01*
X102088Y-56952D01*
X102112Y-56976D01*
X102088Y-57000D01*
X102070Y-57045D01*
X102070Y-57093D01*
X102070Y-57345D01*
X102049Y-57353D01*
X101979Y-57423D01*
X101941Y-57515D01*
X101941Y-57615D01*
X101941Y-57610D01*
X102003Y-57673D01*
X102397Y-57673D01*
X102397Y-57665D01*
X102497Y-57665D01*
X102497Y-57673D01*
X102890Y-57673D01*
X102953Y-57610D01*
X102953Y-57615D01*
X102953Y-57515D01*
X102914Y-57423D01*
X102874Y-57383D01*
X110015Y-57383D01*
X110015Y-57563D01*
G54D10*
G36*
X110471Y-57573D02*
X110446Y-57563D01*
X110398Y-57563D01*
X110328Y-57563D01*
X110328Y-57272D01*
X110328Y-57271D01*
X110316Y-57212D01*
X110316Y-57212D01*
X110305Y-57195D01*
X110282Y-57161D01*
X110282Y-57161D01*
X110237Y-57116D01*
X110186Y-57082D01*
X110126Y-57070D01*
X102823Y-57070D01*
X102823Y-57045D01*
X102805Y-57001D01*
X102781Y-56976D01*
X102805Y-56953D01*
X102823Y-56908D01*
X102823Y-56883D01*
X103893Y-56883D01*
X103893Y-56883D01*
X103952Y-56871D01*
X104003Y-56837D01*
X104050Y-56790D01*
X104050Y-56790D01*
X104073Y-56756D01*
X104084Y-56739D01*
X104084Y-56739D01*
X104096Y-56680D01*
X104096Y-56680D01*
X104096Y-56488D01*
X104214Y-56488D01*
X104258Y-56470D01*
X104292Y-56436D01*
X104311Y-56391D01*
X104311Y-56376D01*
X108720Y-56376D01*
X108920Y-56376D01*
X108920Y-56376D01*
X108979Y-56364D01*
X109030Y-56330D01*
X109080Y-56280D01*
X109114Y-56229D01*
X109114Y-56229D01*
X109116Y-56219D01*
X109126Y-56170D01*
X109126Y-56170D01*
X109126Y-55970D01*
X109126Y-47113D01*
X109141Y-47113D01*
X109186Y-47094D01*
X109220Y-47060D01*
X109238Y-47016D01*
X109238Y-46968D01*
X109238Y-46495D01*
X109238Y-46220D01*
X109238Y-45747D01*
X109220Y-45703D01*
X109186Y-45669D01*
X109141Y-45650D01*
X109093Y-45650D01*
X108798Y-45650D01*
X108753Y-45669D01*
X108719Y-45703D01*
X108701Y-45747D01*
X108701Y-45795D01*
X108701Y-45857D01*
X108558Y-45857D01*
X108523Y-45773D01*
X108403Y-45653D01*
X108247Y-45588D01*
X108077Y-45587D01*
X107921Y-45652D01*
X107801Y-45772D01*
X107736Y-45928D01*
X107735Y-46098D01*
X107800Y-46254D01*
X107920Y-46374D01*
X108076Y-46439D01*
X108246Y-46440D01*
X108402Y-46375D01*
X108522Y-46255D01*
X108558Y-46170D01*
X108701Y-46170D01*
X108701Y-46268D01*
X108719Y-46312D01*
X108753Y-46346D01*
X108798Y-46365D01*
X108846Y-46365D01*
X109141Y-46365D01*
X109186Y-46346D01*
X109220Y-46312D01*
X109238Y-46268D01*
X109238Y-46220D01*
X109238Y-46495D01*
X109220Y-46451D01*
X109186Y-46417D01*
X109141Y-46398D01*
X109093Y-46398D01*
X108798Y-46398D01*
X108753Y-46417D01*
X108719Y-46451D01*
X108701Y-46495D01*
X108701Y-46543D01*
X108701Y-47016D01*
X108719Y-47060D01*
X108753Y-47094D01*
X108798Y-47113D01*
X108813Y-47113D01*
X108813Y-55970D01*
X108813Y-56063D01*
X108720Y-56063D01*
X107988Y-56063D01*
X107988Y-46829D01*
X107923Y-46673D01*
X107803Y-46553D01*
X107647Y-46488D01*
X107521Y-46487D01*
X107521Y-46096D01*
X107511Y-45876D01*
X107447Y-45723D01*
X107351Y-45695D01*
X107280Y-45765D01*
X107280Y-45624D01*
X107252Y-45528D01*
X107044Y-45454D01*
X106824Y-45464D01*
X106671Y-45528D01*
X106643Y-45624D01*
X106962Y-45943D01*
X107280Y-45624D01*
X107280Y-45765D01*
X107032Y-46014D01*
X107351Y-46332D01*
X107447Y-46304D01*
X107521Y-46096D01*
X107521Y-46487D01*
X107477Y-46487D01*
X107321Y-46552D01*
X107280Y-46592D01*
X107280Y-46403D01*
X106962Y-46084D01*
X106891Y-46155D01*
X106891Y-46014D01*
X106572Y-45695D01*
X106476Y-45723D01*
X106402Y-45931D01*
X106412Y-46151D01*
X106476Y-46304D01*
X106572Y-46332D01*
X106891Y-46014D01*
X106891Y-46155D01*
X106643Y-46403D01*
X106671Y-46499D01*
X106879Y-46573D01*
X107099Y-46563D01*
X107252Y-46499D01*
X107280Y-46403D01*
X107280Y-46592D01*
X107201Y-46672D01*
X107136Y-46828D01*
X107135Y-46998D01*
X107200Y-47154D01*
X107320Y-47274D01*
X107476Y-47339D01*
X107646Y-47340D01*
X107802Y-47275D01*
X107922Y-47155D01*
X107987Y-46999D01*
X107988Y-46829D01*
X107988Y-56063D01*
X104311Y-56063D01*
X104311Y-56048D01*
X104292Y-56003D01*
X104258Y-55969D01*
X104214Y-55951D01*
X104166Y-55951D01*
X104096Y-55951D01*
X104096Y-55880D01*
X104096Y-55760D01*
X104084Y-55700D01*
X104084Y-55700D01*
X104073Y-55683D01*
X104050Y-55649D01*
X104050Y-55649D01*
X104013Y-55612D01*
X103962Y-55578D01*
X103903Y-55566D01*
X102823Y-55566D01*
X102823Y-55541D01*
X102805Y-55497D01*
X102783Y-55474D01*
X102805Y-55453D01*
X102810Y-55441D01*
X102852Y-55458D01*
X102947Y-55459D01*
X103035Y-55422D01*
X103102Y-55355D01*
X103138Y-55267D01*
X103139Y-55172D01*
X103102Y-55084D01*
X103035Y-55017D01*
X102947Y-54981D01*
X102852Y-54980D01*
X102805Y-55000D01*
X102779Y-54974D01*
X102805Y-54949D01*
X102823Y-54904D01*
X102823Y-54856D01*
X102823Y-54541D01*
X102805Y-54497D01*
X102771Y-54463D01*
X102727Y-54444D01*
X102679Y-54444D01*
X102603Y-54444D01*
X102603Y-54253D01*
X102707Y-54253D01*
X102751Y-54235D01*
X102785Y-54201D01*
X102804Y-54156D01*
X102804Y-54108D01*
X102804Y-53813D01*
X102785Y-53768D01*
X102751Y-53734D01*
X102707Y-53716D01*
X102659Y-53716D01*
X102186Y-53716D01*
X102160Y-53727D01*
X102147Y-53695D01*
X102076Y-53625D01*
X101984Y-53587D01*
X101811Y-53587D01*
X101748Y-53649D01*
X101748Y-53935D01*
X101756Y-53935D01*
X101756Y-54035D01*
X101748Y-54035D01*
X101748Y-54320D01*
X101811Y-54382D01*
X101984Y-54382D01*
X102076Y-54344D01*
X102147Y-54274D01*
X102160Y-54242D01*
X102186Y-54253D01*
X102234Y-54253D01*
X102290Y-54253D01*
X102290Y-54444D01*
X102167Y-54444D01*
X102122Y-54463D01*
X102088Y-54496D01*
X102070Y-54541D01*
X102070Y-54589D01*
X102070Y-54904D01*
X102088Y-54948D01*
X102114Y-54975D01*
X102088Y-55000D01*
X102070Y-55045D01*
X102070Y-55093D01*
X102070Y-55408D01*
X102088Y-55452D01*
X102110Y-55475D01*
X102088Y-55496D01*
X102070Y-55541D01*
X102070Y-55589D01*
X102070Y-55904D01*
X102088Y-55948D01*
X102112Y-55973D01*
X102088Y-55996D01*
X102070Y-56041D01*
X102070Y-56066D01*
X101648Y-56066D01*
X101648Y-54320D01*
X101648Y-54035D01*
X101648Y-53935D01*
X101648Y-53649D01*
X101586Y-53587D01*
X101413Y-53587D01*
X101321Y-53625D01*
X101250Y-53695D01*
X101212Y-53787D01*
X101212Y-53886D01*
X101212Y-53872D01*
X101275Y-53935D01*
X101648Y-53935D01*
X101648Y-54035D01*
X101275Y-54035D01*
X101212Y-54097D01*
X101212Y-54083D01*
X101212Y-54182D01*
X101250Y-54274D01*
X101321Y-54344D01*
X101413Y-54382D01*
X101586Y-54382D01*
X101648Y-54320D01*
X101648Y-56066D01*
X100390Y-56066D01*
X100434Y-56022D01*
X100472Y-55930D01*
X100472Y-55831D01*
X100472Y-55615D01*
X100472Y-55515D01*
X100434Y-55423D01*
X100364Y-55353D01*
X100343Y-55345D01*
X100343Y-55101D01*
X100364Y-55092D01*
X100434Y-55022D01*
X100472Y-54930D01*
X100472Y-54831D01*
X100472Y-54615D01*
X100472Y-54515D01*
X100434Y-54423D01*
X100364Y-54353D01*
X100272Y-54315D01*
X100079Y-54315D01*
X100016Y-54378D01*
X100016Y-54673D01*
X100410Y-54673D01*
X100472Y-54610D01*
X100472Y-54615D01*
X100472Y-54831D01*
X100472Y-54835D01*
X100410Y-54773D01*
X100016Y-54773D01*
X100016Y-54780D01*
X99916Y-54780D01*
X99916Y-54773D01*
X99916Y-54673D01*
X99916Y-54378D01*
X99854Y-54315D01*
X99661Y-54315D01*
X99569Y-54353D01*
X99499Y-54423D01*
X99460Y-54515D01*
X99460Y-54615D01*
X99460Y-54610D01*
X99523Y-54673D01*
X99916Y-54673D01*
X99916Y-54773D01*
X99523Y-54773D01*
X99460Y-54835D01*
X99460Y-54831D01*
X99460Y-54930D01*
X99490Y-55001D01*
X99412Y-55000D01*
X99324Y-55037D01*
X99257Y-55104D01*
X99221Y-55192D01*
X99220Y-55287D01*
X99257Y-55375D01*
X99324Y-55442D01*
X99412Y-55478D01*
X99476Y-55478D01*
X99460Y-55515D01*
X99460Y-55615D01*
X99460Y-55610D01*
X99523Y-55673D01*
X99916Y-55673D01*
X99916Y-55665D01*
X100016Y-55665D01*
X100016Y-55673D01*
X100410Y-55673D01*
X100472Y-55610D01*
X100472Y-55615D01*
X100472Y-55831D01*
X100472Y-55835D01*
X100410Y-55773D01*
X100016Y-55773D01*
X100016Y-55780D01*
X99916Y-55780D01*
X99916Y-55773D01*
X99523Y-55773D01*
X99460Y-55835D01*
X99460Y-55831D01*
X99460Y-55930D01*
X99499Y-56022D01*
X99543Y-56066D01*
X97728Y-56066D01*
X97728Y-44573D01*
X97778Y-44523D01*
X97814Y-44435D01*
X97815Y-44340D01*
X97778Y-44252D01*
X97736Y-44210D01*
X97736Y-43463D01*
X97736Y-43248D01*
X97736Y-43148D01*
X97698Y-43056D01*
X97627Y-42986D01*
X97536Y-42948D01*
X97225Y-42948D01*
X97162Y-43011D01*
X97162Y-43306D01*
X97674Y-43306D01*
X97736Y-43243D01*
X97736Y-43248D01*
X97736Y-43463D01*
X97736Y-43468D01*
X97674Y-43406D01*
X97162Y-43406D01*
X97162Y-43700D01*
X97225Y-43763D01*
X97536Y-43763D01*
X97627Y-43725D01*
X97698Y-43655D01*
X97736Y-43563D01*
X97736Y-43463D01*
X97736Y-44210D01*
X97711Y-44185D01*
X97623Y-44149D01*
X97528Y-44148D01*
X97440Y-44185D01*
X97373Y-44252D01*
X97337Y-44340D01*
X97336Y-44435D01*
X97373Y-44523D01*
X97415Y-44565D01*
X97415Y-47530D01*
X97414Y-47529D01*
X97354Y-47517D01*
X97062Y-47517D01*
X97062Y-43700D01*
X97062Y-43406D01*
X97062Y-43306D01*
X97062Y-43011D01*
X97000Y-42948D01*
X96689Y-42948D01*
X96597Y-42986D01*
X96526Y-43056D01*
X96488Y-43148D01*
X96488Y-43248D01*
X96488Y-43243D01*
X96551Y-43306D01*
X97062Y-43306D01*
X97062Y-43406D01*
X96551Y-43406D01*
X96488Y-43468D01*
X96488Y-43463D01*
X96488Y-43563D01*
X96526Y-43655D01*
X96597Y-43725D01*
X96689Y-43763D01*
X97000Y-43763D01*
X97062Y-43700D01*
X97062Y-47517D01*
X96878Y-47517D01*
X96878Y-45484D01*
X96878Y-44697D01*
X96860Y-44653D01*
X96826Y-44619D01*
X96782Y-44600D01*
X96734Y-44600D01*
X95553Y-44600D01*
X95508Y-44618D01*
X95474Y-44652D01*
X95456Y-44697D01*
X95456Y-44745D01*
X95456Y-45532D01*
X95474Y-45577D01*
X95508Y-45611D01*
X95552Y-45629D01*
X95600Y-45629D01*
X96781Y-45629D01*
X96826Y-45611D01*
X96860Y-45577D01*
X96878Y-45533D01*
X96878Y-45484D01*
X96878Y-47517D01*
X95579Y-47517D01*
X95579Y-47512D01*
X95579Y-47394D01*
X95573Y-47378D01*
X95579Y-47363D01*
X95579Y-47315D01*
X95579Y-47197D01*
X95573Y-47182D01*
X95579Y-47166D01*
X95579Y-47118D01*
X95579Y-47000D01*
X95573Y-46985D01*
X95579Y-46970D01*
X95579Y-46921D01*
X95579Y-46803D01*
X95573Y-46788D01*
X95579Y-46773D01*
X95579Y-46725D01*
X95579Y-46606D01*
X95573Y-46591D01*
X95579Y-46576D01*
X95579Y-46528D01*
X95579Y-46410D01*
X95573Y-46394D01*
X95579Y-46379D01*
X95579Y-46331D01*
X95579Y-46213D01*
X95573Y-46197D01*
X95579Y-46182D01*
X95579Y-46134D01*
X95579Y-46016D01*
X95573Y-46001D01*
X95579Y-45985D01*
X95579Y-45937D01*
X95579Y-45819D01*
X95561Y-45775D01*
X95527Y-45741D01*
X95482Y-45722D01*
X95434Y-45722D01*
X95041Y-45722D01*
X94996Y-45741D01*
X94962Y-45774D01*
X94944Y-45819D01*
X94944Y-45852D01*
X94916Y-45852D01*
X94916Y-43886D01*
X95436Y-43886D01*
X95436Y-43911D01*
X95454Y-43955D01*
X95488Y-43989D01*
X95533Y-44008D01*
X95581Y-44008D01*
X96329Y-44008D01*
X96373Y-43990D01*
X96407Y-43956D01*
X96426Y-43911D01*
X96426Y-43863D01*
X96426Y-43548D01*
X96407Y-43504D01*
X96374Y-43470D01*
X96329Y-43451D01*
X96281Y-43451D01*
X95533Y-43451D01*
X95489Y-43470D01*
X95455Y-43503D01*
X95436Y-43548D01*
X95436Y-43573D01*
X94791Y-43573D01*
X94732Y-43585D01*
X94715Y-43596D01*
X94681Y-43619D01*
X94649Y-43651D01*
X94615Y-43702D01*
X94603Y-43762D01*
X94603Y-46828D01*
X94615Y-46887D01*
X94649Y-46938D01*
X94713Y-47002D01*
X94713Y-47002D01*
X94747Y-47025D01*
X94764Y-47036D01*
X94764Y-47036D01*
X94824Y-47048D01*
X94944Y-47048D01*
X94944Y-47048D01*
X94944Y-47166D01*
X94950Y-47182D01*
X94944Y-47197D01*
X94944Y-47245D01*
X94944Y-47363D01*
X94950Y-47378D01*
X94944Y-47394D01*
X94944Y-47442D01*
X94944Y-47517D01*
X94533Y-47517D01*
X94533Y-42809D01*
X94533Y-42676D01*
X94471Y-42613D01*
X93939Y-42613D01*
X93939Y-43046D01*
X94002Y-43108D01*
X94333Y-43108D01*
X94425Y-43070D01*
X94495Y-43000D01*
X94533Y-42908D01*
X94533Y-42809D01*
X94533Y-47517D01*
X94404Y-47517D01*
X94404Y-45669D01*
X94404Y-45079D01*
X94404Y-44173D01*
X94404Y-43582D01*
X94386Y-43538D01*
X94352Y-43504D01*
X94307Y-43486D01*
X94259Y-43486D01*
X93839Y-43486D01*
X93839Y-43046D01*
X93839Y-42613D01*
X93308Y-42613D01*
X93246Y-42676D01*
X93246Y-42809D01*
X93246Y-42908D01*
X93284Y-43000D01*
X93354Y-43070D01*
X93446Y-43108D01*
X93777Y-43108D01*
X93839Y-43046D01*
X93839Y-43486D01*
X93472Y-43486D01*
X93427Y-43504D01*
X93393Y-43538D01*
X93375Y-43582D01*
X93375Y-43630D01*
X93375Y-43745D01*
X93071Y-43745D01*
X93021Y-43755D01*
X93011Y-43757D01*
X92961Y-43791D01*
X92928Y-43824D01*
X92928Y-42835D01*
X92864Y-42682D01*
X92748Y-42565D01*
X92595Y-42501D01*
X92429Y-42501D01*
X92276Y-42564D01*
X92159Y-42681D01*
X92095Y-42834D01*
X92095Y-43000D01*
X92159Y-43153D01*
X92275Y-43270D01*
X92428Y-43334D01*
X92594Y-43334D01*
X92747Y-43270D01*
X92864Y-43153D01*
X92928Y-43001D01*
X92928Y-42835D01*
X92928Y-43824D01*
X92911Y-43841D01*
X92877Y-43892D01*
X92865Y-43952D01*
X92865Y-45046D01*
X92864Y-45044D01*
X92748Y-44927D01*
X92595Y-44864D01*
X92429Y-44863D01*
X92276Y-44927D01*
X92159Y-45044D01*
X92127Y-45122D01*
X92127Y-43850D01*
X92090Y-43762D01*
X92023Y-43695D01*
X91935Y-43659D01*
X91840Y-43658D01*
X91777Y-43684D01*
X91777Y-42809D01*
X91777Y-42676D01*
X91715Y-42613D01*
X91184Y-42613D01*
X91184Y-43046D01*
X91246Y-43108D01*
X91577Y-43108D01*
X91669Y-43070D01*
X91739Y-43000D01*
X91777Y-42908D01*
X91777Y-42809D01*
X91777Y-43684D01*
X91752Y-43695D01*
X91702Y-43745D01*
X91648Y-43745D01*
X91648Y-43582D01*
X91630Y-43538D01*
X91596Y-43504D01*
X91551Y-43486D01*
X91503Y-43486D01*
X91084Y-43486D01*
X91084Y-43046D01*
X91084Y-42613D01*
X90552Y-42613D01*
X90490Y-42676D01*
X90490Y-42809D01*
X90490Y-42908D01*
X90528Y-43000D01*
X90598Y-43070D01*
X90690Y-43108D01*
X91021Y-43108D01*
X91084Y-43046D01*
X91084Y-43486D01*
X90716Y-43486D01*
X90671Y-43504D01*
X90637Y-43538D01*
X90619Y-43582D01*
X90619Y-43630D01*
X90619Y-44221D01*
X90637Y-44265D01*
X90671Y-44299D01*
X90716Y-44318D01*
X90764Y-44318D01*
X91551Y-44318D01*
X91596Y-44299D01*
X91630Y-44266D01*
X91648Y-44221D01*
X91648Y-44173D01*
X91648Y-44058D01*
X91710Y-44058D01*
X91752Y-44100D01*
X91840Y-44136D01*
X91935Y-44137D01*
X92023Y-44100D01*
X92090Y-44033D01*
X92126Y-43945D01*
X92127Y-43850D01*
X92127Y-45122D01*
X92095Y-45197D01*
X92095Y-45362D01*
X92159Y-45515D01*
X92275Y-45632D01*
X92428Y-45696D01*
X92594Y-45696D01*
X92747Y-45633D01*
X92864Y-45516D01*
X92865Y-45513D01*
X92865Y-45883D01*
X92841Y-45859D01*
X92753Y-45823D01*
X92658Y-45822D01*
X92570Y-45859D01*
X92503Y-45926D01*
X92467Y-46014D01*
X92466Y-46109D01*
X92503Y-46197D01*
X92570Y-46264D01*
X92658Y-46300D01*
X92753Y-46301D01*
X92841Y-46264D01*
X92887Y-46218D01*
X92972Y-46218D01*
X92972Y-46218D01*
X93031Y-46206D01*
X93082Y-46172D01*
X93132Y-46122D01*
X93166Y-46071D01*
X93166Y-46071D01*
X93168Y-46061D01*
X93178Y-46012D01*
X93178Y-46012D01*
X93178Y-44058D01*
X93375Y-44058D01*
X93375Y-44221D01*
X93393Y-44265D01*
X93427Y-44299D01*
X93472Y-44318D01*
X93520Y-44318D01*
X94307Y-44318D01*
X94352Y-44299D01*
X94386Y-44266D01*
X94404Y-44221D01*
X94404Y-44173D01*
X94404Y-45079D01*
X94386Y-45034D01*
X94352Y-45000D01*
X94307Y-44982D01*
X94259Y-44982D01*
X93472Y-44982D01*
X93427Y-45000D01*
X93393Y-45034D01*
X93375Y-45078D01*
X93375Y-45126D01*
X93375Y-45717D01*
X93393Y-45761D01*
X93427Y-45795D01*
X93472Y-45814D01*
X93520Y-45814D01*
X93733Y-45814D01*
X93733Y-46610D01*
X93733Y-46623D01*
X93720Y-46623D01*
X92241Y-46623D01*
X92195Y-46577D01*
X92107Y-46541D01*
X92012Y-46540D01*
X91924Y-46577D01*
X91857Y-46644D01*
X91821Y-46732D01*
X91820Y-46827D01*
X91857Y-46915D01*
X91924Y-46982D01*
X92012Y-47018D01*
X92107Y-47019D01*
X92195Y-46982D01*
X92241Y-46936D01*
X93720Y-46936D01*
X93820Y-46936D01*
X93820Y-46936D01*
X93879Y-46924D01*
X93930Y-46890D01*
X94000Y-46820D01*
X94000Y-46820D01*
X94023Y-46786D01*
X94034Y-46769D01*
X94034Y-46769D01*
X94046Y-46710D01*
X94046Y-46710D01*
X94046Y-46610D01*
X94046Y-45814D01*
X94307Y-45814D01*
X94352Y-45796D01*
X94386Y-45762D01*
X94404Y-45717D01*
X94404Y-45669D01*
X94404Y-47517D01*
X91648Y-47517D01*
X91648Y-45669D01*
X91648Y-45079D01*
X91630Y-45034D01*
X91596Y-45000D01*
X91551Y-44982D01*
X91503Y-44982D01*
X90716Y-44982D01*
X90671Y-45000D01*
X90637Y-45034D01*
X90619Y-45078D01*
X90619Y-45126D01*
X90619Y-45717D01*
X90637Y-45761D01*
X90671Y-45795D01*
X90716Y-45814D01*
X90764Y-45814D01*
X91551Y-45814D01*
X91596Y-45796D01*
X91630Y-45762D01*
X91648Y-45717D01*
X91648Y-45669D01*
X91648Y-47517D01*
X89590Y-47517D01*
X89586Y-47513D01*
X89586Y-47117D01*
X89601Y-47117D01*
X89646Y-47098D01*
X89680Y-47064D01*
X89698Y-47020D01*
X89698Y-46972D01*
X89698Y-46499D01*
X89680Y-46455D01*
X89646Y-46421D01*
X89601Y-46402D01*
X89553Y-46402D01*
X89258Y-46402D01*
X89213Y-46421D01*
X89179Y-46455D01*
X89161Y-46499D01*
X89161Y-46547D01*
X89161Y-47020D01*
X89179Y-47064D01*
X89213Y-47098D01*
X89258Y-47117D01*
X89273Y-47117D01*
X89273Y-47578D01*
X89285Y-47637D01*
X89319Y-47688D01*
X89415Y-47784D01*
X89415Y-47784D01*
X89466Y-47818D01*
X89466Y-47818D01*
X89476Y-47820D01*
X89526Y-47830D01*
X91550Y-47830D01*
X91541Y-47852D01*
X91540Y-47947D01*
X91577Y-48035D01*
X91644Y-48102D01*
X91732Y-48138D01*
X91746Y-48138D01*
X91589Y-48295D01*
X88702Y-48295D01*
X88710Y-48290D01*
X88772Y-48228D01*
X88772Y-48228D01*
X88806Y-48177D01*
X88806Y-48177D01*
X88808Y-48167D01*
X88818Y-48118D01*
X88818Y-48118D01*
X88818Y-48058D01*
X88818Y-46410D01*
X88902Y-46375D01*
X89022Y-46255D01*
X89058Y-46170D01*
X89161Y-46170D01*
X89161Y-46272D01*
X89179Y-46316D01*
X89213Y-46350D01*
X89258Y-46369D01*
X89306Y-46369D01*
X89601Y-46369D01*
X89646Y-46350D01*
X89680Y-46316D01*
X89698Y-46272D01*
X89698Y-46224D01*
X89698Y-45751D01*
X89680Y-45707D01*
X89646Y-45673D01*
X89601Y-45654D01*
X89553Y-45654D01*
X89258Y-45654D01*
X89213Y-45673D01*
X89179Y-45707D01*
X89161Y-45751D01*
X89161Y-45799D01*
X89161Y-45857D01*
X89058Y-45857D01*
X89023Y-45773D01*
X88903Y-45653D01*
X88747Y-45588D01*
X88577Y-45587D01*
X88421Y-45652D01*
X88301Y-45772D01*
X88236Y-45928D01*
X88235Y-46098D01*
X88300Y-46254D01*
X88420Y-46374D01*
X88505Y-46410D01*
X88505Y-48023D01*
X88488Y-48023D01*
X88488Y-46829D01*
X88423Y-46673D01*
X88303Y-46553D01*
X88147Y-46488D01*
X88021Y-46487D01*
X88021Y-46096D01*
X88011Y-45876D01*
X87947Y-45723D01*
X87851Y-45695D01*
X87780Y-45765D01*
X87780Y-45624D01*
X87752Y-45528D01*
X87544Y-45454D01*
X87324Y-45464D01*
X87171Y-45528D01*
X87143Y-45624D01*
X87462Y-45943D01*
X87780Y-45624D01*
X87780Y-45765D01*
X87532Y-46014D01*
X87851Y-46332D01*
X87947Y-46304D01*
X88021Y-46096D01*
X88021Y-46487D01*
X87977Y-46487D01*
X87821Y-46552D01*
X87780Y-46592D01*
X87780Y-46403D01*
X87462Y-46084D01*
X87391Y-46155D01*
X87391Y-46014D01*
X87072Y-45695D01*
X86976Y-45723D01*
X86902Y-45931D01*
X86912Y-46151D01*
X86976Y-46304D01*
X87072Y-46332D01*
X87391Y-46014D01*
X87391Y-46155D01*
X87143Y-46403D01*
X87171Y-46499D01*
X87379Y-46573D01*
X87599Y-46563D01*
X87752Y-46499D01*
X87780Y-46403D01*
X87780Y-46592D01*
X87701Y-46672D01*
X87636Y-46828D01*
X87635Y-46998D01*
X87700Y-47154D01*
X87820Y-47274D01*
X87976Y-47339D01*
X88146Y-47340D01*
X88302Y-47275D01*
X88422Y-47155D01*
X88487Y-46999D01*
X88488Y-46829D01*
X88488Y-48023D01*
X87007Y-48023D01*
X87007Y-47823D01*
X87007Y-47036D01*
X86989Y-46991D01*
X86955Y-46957D01*
X86910Y-46939D01*
X86862Y-46939D01*
X85681Y-46939D01*
X85637Y-46957D01*
X85603Y-46991D01*
X85584Y-47036D01*
X85584Y-47084D01*
X85584Y-47871D01*
X85602Y-47916D01*
X85636Y-47950D01*
X85681Y-47968D01*
X85729Y-47968D01*
X86910Y-47968D01*
X86954Y-47950D01*
X86988Y-47916D01*
X87007Y-47871D01*
X87007Y-47823D01*
X87007Y-48023D01*
X86660Y-48023D01*
X86610Y-48033D01*
X86600Y-48035D01*
X86549Y-48069D01*
X86469Y-48149D01*
X86435Y-48200D01*
X86423Y-48260D01*
X86423Y-53620D01*
X86431Y-53656D01*
X86426Y-53656D01*
X86338Y-53693D01*
X86271Y-53760D01*
X86235Y-53848D01*
X86235Y-53869D01*
X86152Y-53868D01*
X86064Y-53905D01*
X85997Y-53972D01*
X85961Y-54060D01*
X85960Y-54155D01*
X85979Y-54201D01*
X85620Y-54201D01*
X85538Y-54201D01*
X85535Y-54201D01*
X85466Y-54201D01*
X85406Y-54213D01*
X85389Y-54224D01*
X85356Y-54246D01*
X85356Y-42156D01*
X90516Y-42156D01*
X90490Y-42218D01*
X90490Y-42317D01*
X90490Y-42451D01*
X90552Y-42513D01*
X91084Y-42513D01*
X91084Y-42505D01*
X91184Y-42505D01*
X91184Y-42513D01*
X91715Y-42513D01*
X91777Y-42451D01*
X91777Y-42317D01*
X91777Y-42218D01*
X91751Y-42156D01*
X93272Y-42156D01*
X93246Y-42218D01*
X93246Y-42317D01*
X93246Y-42451D01*
X93308Y-42513D01*
X93839Y-42513D01*
X93839Y-42505D01*
X93939Y-42505D01*
X93939Y-42513D01*
X94471Y-42513D01*
X94533Y-42451D01*
X94533Y-42317D01*
X94533Y-42218D01*
X94507Y-42156D01*
X95588Y-42156D01*
X95588Y-42158D01*
X95588Y-42453D01*
X95607Y-42498D01*
X95641Y-42532D01*
X95685Y-42550D01*
X95733Y-42550D01*
X95789Y-42550D01*
X95789Y-42703D01*
X95533Y-42703D01*
X95489Y-42721D01*
X95455Y-42755D01*
X95436Y-42800D01*
X95436Y-42848D01*
X95436Y-43163D01*
X95454Y-43207D01*
X95488Y-43241D01*
X95533Y-43260D01*
X95581Y-43260D01*
X96329Y-43260D01*
X96373Y-43241D01*
X96407Y-43208D01*
X96426Y-43163D01*
X96426Y-43115D01*
X96426Y-42800D01*
X96407Y-42756D01*
X96374Y-42722D01*
X96329Y-42703D01*
X96281Y-42703D01*
X96102Y-42703D01*
X96102Y-42550D01*
X96206Y-42550D01*
X96250Y-42532D01*
X96284Y-42498D01*
X96303Y-42453D01*
X96303Y-42405D01*
X96303Y-42156D01*
X96336Y-42156D01*
X96336Y-42158D01*
X96336Y-42453D01*
X96355Y-42498D01*
X96389Y-42532D01*
X96433Y-42550D01*
X96481Y-42550D01*
X96954Y-42550D01*
X96998Y-42532D01*
X97032Y-42498D01*
X97051Y-42453D01*
X97051Y-42405D01*
X97051Y-42110D01*
X97032Y-42065D01*
X96998Y-42031D01*
X96954Y-42013D01*
X96906Y-42013D01*
X96842Y-42013D01*
X96838Y-41994D01*
X96804Y-41943D01*
X96750Y-41889D01*
X96699Y-41855D01*
X96694Y-41854D01*
X110471Y-41854D01*
X110471Y-57573D01*
X110471Y-57573D01*
G37*
G54D22*
X110471Y-57573D02*
X110446Y-57563D01*
X110398Y-57563D01*
X110328Y-57563D01*
X110328Y-57272D01*
X110328Y-57271D01*
X110316Y-57212D01*
X110316Y-57212D01*
X110305Y-57195D01*
X110282Y-57161D01*
X110282Y-57161D01*
X110237Y-57116D01*
X110186Y-57082D01*
X110126Y-57070D01*
X102823Y-57070D01*
X102823Y-57045D01*
X102805Y-57001D01*
X102781Y-56976D01*
X102805Y-56953D01*
X102823Y-56908D01*
X102823Y-56883D01*
X103893Y-56883D01*
X103893Y-56883D01*
X103952Y-56871D01*
X104003Y-56837D01*
X104050Y-56790D01*
X104050Y-56790D01*
X104073Y-56756D01*
X104084Y-56739D01*
X104084Y-56739D01*
X104096Y-56680D01*
X104096Y-56680D01*
X104096Y-56488D01*
X104214Y-56488D01*
X104258Y-56470D01*
X104292Y-56436D01*
X104311Y-56391D01*
X104311Y-56376D01*
X108720Y-56376D01*
X108920Y-56376D01*
X108920Y-56376D01*
X108979Y-56364D01*
X109030Y-56330D01*
X109080Y-56280D01*
X109114Y-56229D01*
X109114Y-56229D01*
X109116Y-56219D01*
X109126Y-56170D01*
X109126Y-56170D01*
X109126Y-55970D01*
X109126Y-47113D01*
X109141Y-47113D01*
X109186Y-47094D01*
X109220Y-47060D01*
X109238Y-47016D01*
X109238Y-46968D01*
X109238Y-46495D01*
X109238Y-46220D01*
X109238Y-45747D01*
X109220Y-45703D01*
X109186Y-45669D01*
X109141Y-45650D01*
X109093Y-45650D01*
X108798Y-45650D01*
X108753Y-45669D01*
X108719Y-45703D01*
X108701Y-45747D01*
X108701Y-45795D01*
X108701Y-45857D01*
X108558Y-45857D01*
X108523Y-45773D01*
X108403Y-45653D01*
X108247Y-45588D01*
X108077Y-45587D01*
X107921Y-45652D01*
X107801Y-45772D01*
X107736Y-45928D01*
X107735Y-46098D01*
X107800Y-46254D01*
X107920Y-46374D01*
X108076Y-46439D01*
X108246Y-46440D01*
X108402Y-46375D01*
X108522Y-46255D01*
X108558Y-46170D01*
X108701Y-46170D01*
X108701Y-46268D01*
X108719Y-46312D01*
X108753Y-46346D01*
X108798Y-46365D01*
X108846Y-46365D01*
X109141Y-46365D01*
X109186Y-46346D01*
X109220Y-46312D01*
X109238Y-46268D01*
X109238Y-46220D01*
X109238Y-46495D01*
X109220Y-46451D01*
X109186Y-46417D01*
X109141Y-46398D01*
X109093Y-46398D01*
X108798Y-46398D01*
X108753Y-46417D01*
X108719Y-46451D01*
X108701Y-46495D01*
X108701Y-46543D01*
X108701Y-47016D01*
X108719Y-47060D01*
X108753Y-47094D01*
X108798Y-47113D01*
X108813Y-47113D01*
X108813Y-55970D01*
X108813Y-56063D01*
X108720Y-56063D01*
X107988Y-56063D01*
X107988Y-46829D01*
X107923Y-46673D01*
X107803Y-46553D01*
X107647Y-46488D01*
X107521Y-46487D01*
X107521Y-46096D01*
X107511Y-45876D01*
X107447Y-45723D01*
X107351Y-45695D01*
X107280Y-45765D01*
X107280Y-45624D01*
X107252Y-45528D01*
X107044Y-45454D01*
X106824Y-45464D01*
X106671Y-45528D01*
X106643Y-45624D01*
X106962Y-45943D01*
X107280Y-45624D01*
X107280Y-45765D01*
X107032Y-46014D01*
X107351Y-46332D01*
X107447Y-46304D01*
X107521Y-46096D01*
X107521Y-46487D01*
X107477Y-46487D01*
X107321Y-46552D01*
X107280Y-46592D01*
X107280Y-46403D01*
X106962Y-46084D01*
X106891Y-46155D01*
X106891Y-46014D01*
X106572Y-45695D01*
X106476Y-45723D01*
X106402Y-45931D01*
X106412Y-46151D01*
X106476Y-46304D01*
X106572Y-46332D01*
X106891Y-46014D01*
X106891Y-46155D01*
X106643Y-46403D01*
X106671Y-46499D01*
X106879Y-46573D01*
X107099Y-46563D01*
X107252Y-46499D01*
X107280Y-46403D01*
X107280Y-46592D01*
X107201Y-46672D01*
X107136Y-46828D01*
X107135Y-46998D01*
X107200Y-47154D01*
X107320Y-47274D01*
X107476Y-47339D01*
X107646Y-47340D01*
X107802Y-47275D01*
X107922Y-47155D01*
X107987Y-46999D01*
X107988Y-46829D01*
X107988Y-56063D01*
X104311Y-56063D01*
X104311Y-56048D01*
X104292Y-56003D01*
X104258Y-55969D01*
X104214Y-55951D01*
X104166Y-55951D01*
X104096Y-55951D01*
X104096Y-55880D01*
X104096Y-55760D01*
X104084Y-55700D01*
X104084Y-55700D01*
X104073Y-55683D01*
X104050Y-55649D01*
X104050Y-55649D01*
X104013Y-55612D01*
X103962Y-55578D01*
X103903Y-55566D01*
X102823Y-55566D01*
X102823Y-55541D01*
X102805Y-55497D01*
X102783Y-55474D01*
X102805Y-55453D01*
X102810Y-55441D01*
X102852Y-55458D01*
X102947Y-55459D01*
X103035Y-55422D01*
X103102Y-55355D01*
X103138Y-55267D01*
X103139Y-55172D01*
X103102Y-55084D01*
X103035Y-55017D01*
X102947Y-54981D01*
X102852Y-54980D01*
X102805Y-55000D01*
X102779Y-54974D01*
X102805Y-54949D01*
X102823Y-54904D01*
X102823Y-54856D01*
X102823Y-54541D01*
X102805Y-54497D01*
X102771Y-54463D01*
X102727Y-54444D01*
X102679Y-54444D01*
X102603Y-54444D01*
X102603Y-54253D01*
X102707Y-54253D01*
X102751Y-54235D01*
X102785Y-54201D01*
X102804Y-54156D01*
X102804Y-54108D01*
X102804Y-53813D01*
X102785Y-53768D01*
X102751Y-53734D01*
X102707Y-53716D01*
X102659Y-53716D01*
X102186Y-53716D01*
X102160Y-53727D01*
X102147Y-53695D01*
X102076Y-53625D01*
X101984Y-53587D01*
X101811Y-53587D01*
X101748Y-53649D01*
X101748Y-53935D01*
X101756Y-53935D01*
X101756Y-54035D01*
X101748Y-54035D01*
X101748Y-54320D01*
X101811Y-54382D01*
X101984Y-54382D01*
X102076Y-54344D01*
X102147Y-54274D01*
X102160Y-54242D01*
X102186Y-54253D01*
X102234Y-54253D01*
X102290Y-54253D01*
X102290Y-54444D01*
X102167Y-54444D01*
X102122Y-54463D01*
X102088Y-54496D01*
X102070Y-54541D01*
X102070Y-54589D01*
X102070Y-54904D01*
X102088Y-54948D01*
X102114Y-54975D01*
X102088Y-55000D01*
X102070Y-55045D01*
X102070Y-55093D01*
X102070Y-55408D01*
X102088Y-55452D01*
X102110Y-55475D01*
X102088Y-55496D01*
X102070Y-55541D01*
X102070Y-55589D01*
X102070Y-55904D01*
X102088Y-55948D01*
X102112Y-55973D01*
X102088Y-55996D01*
X102070Y-56041D01*
X102070Y-56066D01*
X101648Y-56066D01*
X101648Y-54320D01*
X101648Y-54035D01*
X101648Y-53935D01*
X101648Y-53649D01*
X101586Y-53587D01*
X101413Y-53587D01*
X101321Y-53625D01*
X101250Y-53695D01*
X101212Y-53787D01*
X101212Y-53886D01*
X101212Y-53872D01*
X101275Y-53935D01*
X101648Y-53935D01*
X101648Y-54035D01*
X101275Y-54035D01*
X101212Y-54097D01*
X101212Y-54083D01*
X101212Y-54182D01*
X101250Y-54274D01*
X101321Y-54344D01*
X101413Y-54382D01*
X101586Y-54382D01*
X101648Y-54320D01*
X101648Y-56066D01*
X100390Y-56066D01*
X100434Y-56022D01*
X100472Y-55930D01*
X100472Y-55831D01*
X100472Y-55615D01*
X100472Y-55515D01*
X100434Y-55423D01*
X100364Y-55353D01*
X100343Y-55345D01*
X100343Y-55101D01*
X100364Y-55092D01*
X100434Y-55022D01*
X100472Y-54930D01*
X100472Y-54831D01*
X100472Y-54615D01*
X100472Y-54515D01*
X100434Y-54423D01*
X100364Y-54353D01*
X100272Y-54315D01*
X100079Y-54315D01*
X100016Y-54378D01*
X100016Y-54673D01*
X100410Y-54673D01*
X100472Y-54610D01*
X100472Y-54615D01*
X100472Y-54831D01*
X100472Y-54835D01*
X100410Y-54773D01*
X100016Y-54773D01*
X100016Y-54780D01*
X99916Y-54780D01*
X99916Y-54773D01*
X99916Y-54673D01*
X99916Y-54378D01*
X99854Y-54315D01*
X99661Y-54315D01*
X99569Y-54353D01*
X99499Y-54423D01*
X99460Y-54515D01*
X99460Y-54615D01*
X99460Y-54610D01*
X99523Y-54673D01*
X99916Y-54673D01*
X99916Y-54773D01*
X99523Y-54773D01*
X99460Y-54835D01*
X99460Y-54831D01*
X99460Y-54930D01*
X99490Y-55001D01*
X99412Y-55000D01*
X99324Y-55037D01*
X99257Y-55104D01*
X99221Y-55192D01*
X99220Y-55287D01*
X99257Y-55375D01*
X99324Y-55442D01*
X99412Y-55478D01*
X99476Y-55478D01*
X99460Y-55515D01*
X99460Y-55615D01*
X99460Y-55610D01*
X99523Y-55673D01*
X99916Y-55673D01*
X99916Y-55665D01*
X100016Y-55665D01*
X100016Y-55673D01*
X100410Y-55673D01*
X100472Y-55610D01*
X100472Y-55615D01*
X100472Y-55831D01*
X100472Y-55835D01*
X100410Y-55773D01*
X100016Y-55773D01*
X100016Y-55780D01*
X99916Y-55780D01*
X99916Y-55773D01*
X99523Y-55773D01*
X99460Y-55835D01*
X99460Y-55831D01*
X99460Y-55930D01*
X99499Y-56022D01*
X99543Y-56066D01*
X97728Y-56066D01*
X97728Y-44573D01*
X97778Y-44523D01*
X97814Y-44435D01*
X97815Y-44340D01*
X97778Y-44252D01*
X97736Y-44210D01*
X97736Y-43463D01*
X97736Y-43248D01*
X97736Y-43148D01*
X97698Y-43056D01*
X97627Y-42986D01*
X97536Y-42948D01*
X97225Y-42948D01*
X97162Y-43011D01*
X97162Y-43306D01*
X97674Y-43306D01*
X97736Y-43243D01*
X97736Y-43248D01*
X97736Y-43463D01*
X97736Y-43468D01*
X97674Y-43406D01*
X97162Y-43406D01*
X97162Y-43700D01*
X97225Y-43763D01*
X97536Y-43763D01*
X97627Y-43725D01*
X97698Y-43655D01*
X97736Y-43563D01*
X97736Y-43463D01*
X97736Y-44210D01*
X97711Y-44185D01*
X97623Y-44149D01*
X97528Y-44148D01*
X97440Y-44185D01*
X97373Y-44252D01*
X97337Y-44340D01*
X97336Y-44435D01*
X97373Y-44523D01*
X97415Y-44565D01*
X97415Y-47530D01*
X97414Y-47529D01*
X97354Y-47517D01*
X97062Y-47517D01*
X97062Y-43700D01*
X97062Y-43406D01*
X97062Y-43306D01*
X97062Y-43011D01*
X97000Y-42948D01*
X96689Y-42948D01*
X96597Y-42986D01*
X96526Y-43056D01*
X96488Y-43148D01*
X96488Y-43248D01*
X96488Y-43243D01*
X96551Y-43306D01*
X97062Y-43306D01*
X97062Y-43406D01*
X96551Y-43406D01*
X96488Y-43468D01*
X96488Y-43463D01*
X96488Y-43563D01*
X96526Y-43655D01*
X96597Y-43725D01*
X96689Y-43763D01*
X97000Y-43763D01*
X97062Y-43700D01*
X97062Y-47517D01*
X96878Y-47517D01*
X96878Y-45484D01*
X96878Y-44697D01*
X96860Y-44653D01*
X96826Y-44619D01*
X96782Y-44600D01*
X96734Y-44600D01*
X95553Y-44600D01*
X95508Y-44618D01*
X95474Y-44652D01*
X95456Y-44697D01*
X95456Y-44745D01*
X95456Y-45532D01*
X95474Y-45577D01*
X95508Y-45611D01*
X95552Y-45629D01*
X95600Y-45629D01*
X96781Y-45629D01*
X96826Y-45611D01*
X96860Y-45577D01*
X96878Y-45533D01*
X96878Y-45484D01*
X96878Y-47517D01*
X95579Y-47517D01*
X95579Y-47512D01*
X95579Y-47394D01*
X95573Y-47378D01*
X95579Y-47363D01*
X95579Y-47315D01*
X95579Y-47197D01*
X95573Y-47182D01*
X95579Y-47166D01*
X95579Y-47118D01*
X95579Y-47000D01*
X95573Y-46985D01*
X95579Y-46970D01*
X95579Y-46921D01*
X95579Y-46803D01*
X95573Y-46788D01*
X95579Y-46773D01*
X95579Y-46725D01*
X95579Y-46606D01*
X95573Y-46591D01*
X95579Y-46576D01*
X95579Y-46528D01*
X95579Y-46410D01*
X95573Y-46394D01*
X95579Y-46379D01*
X95579Y-46331D01*
X95579Y-46213D01*
X95573Y-46197D01*
X95579Y-46182D01*
X95579Y-46134D01*
X95579Y-46016D01*
X95573Y-46001D01*
X95579Y-45985D01*
X95579Y-45937D01*
X95579Y-45819D01*
X95561Y-45775D01*
X95527Y-45741D01*
X95482Y-45722D01*
X95434Y-45722D01*
X95041Y-45722D01*
X94996Y-45741D01*
X94962Y-45774D01*
X94944Y-45819D01*
X94944Y-45852D01*
X94916Y-45852D01*
X94916Y-43886D01*
X95436Y-43886D01*
X95436Y-43911D01*
X95454Y-43955D01*
X95488Y-43989D01*
X95533Y-44008D01*
X95581Y-44008D01*
X96329Y-44008D01*
X96373Y-43990D01*
X96407Y-43956D01*
X96426Y-43911D01*
X96426Y-43863D01*
X96426Y-43548D01*
X96407Y-43504D01*
X96374Y-43470D01*
X96329Y-43451D01*
X96281Y-43451D01*
X95533Y-43451D01*
X95489Y-43470D01*
X95455Y-43503D01*
X95436Y-43548D01*
X95436Y-43573D01*
X94791Y-43573D01*
X94732Y-43585D01*
X94715Y-43596D01*
X94681Y-43619D01*
X94649Y-43651D01*
X94615Y-43702D01*
X94603Y-43762D01*
X94603Y-46828D01*
X94615Y-46887D01*
X94649Y-46938D01*
X94713Y-47002D01*
X94713Y-47002D01*
X94747Y-47025D01*
X94764Y-47036D01*
X94764Y-47036D01*
X94824Y-47048D01*
X94944Y-47048D01*
X94944Y-47048D01*
X94944Y-47166D01*
X94950Y-47182D01*
X94944Y-47197D01*
X94944Y-47245D01*
X94944Y-47363D01*
X94950Y-47378D01*
X94944Y-47394D01*
X94944Y-47442D01*
X94944Y-47517D01*
X94533Y-47517D01*
X94533Y-42809D01*
X94533Y-42676D01*
X94471Y-42613D01*
X93939Y-42613D01*
X93939Y-43046D01*
X94002Y-43108D01*
X94333Y-43108D01*
X94425Y-43070D01*
X94495Y-43000D01*
X94533Y-42908D01*
X94533Y-42809D01*
X94533Y-47517D01*
X94404Y-47517D01*
X94404Y-45669D01*
X94404Y-45079D01*
X94404Y-44173D01*
X94404Y-43582D01*
X94386Y-43538D01*
X94352Y-43504D01*
X94307Y-43486D01*
X94259Y-43486D01*
X93839Y-43486D01*
X93839Y-43046D01*
X93839Y-42613D01*
X93308Y-42613D01*
X93246Y-42676D01*
X93246Y-42809D01*
X93246Y-42908D01*
X93284Y-43000D01*
X93354Y-43070D01*
X93446Y-43108D01*
X93777Y-43108D01*
X93839Y-43046D01*
X93839Y-43486D01*
X93472Y-43486D01*
X93427Y-43504D01*
X93393Y-43538D01*
X93375Y-43582D01*
X93375Y-43630D01*
X93375Y-43745D01*
X93071Y-43745D01*
X93021Y-43755D01*
X93011Y-43757D01*
X92961Y-43791D01*
X92928Y-43824D01*
X92928Y-42835D01*
X92864Y-42682D01*
X92748Y-42565D01*
X92595Y-42501D01*
X92429Y-42501D01*
X92276Y-42564D01*
X92159Y-42681D01*
X92095Y-42834D01*
X92095Y-43000D01*
X92159Y-43153D01*
X92275Y-43270D01*
X92428Y-43334D01*
X92594Y-43334D01*
X92747Y-43270D01*
X92864Y-43153D01*
X92928Y-43001D01*
X92928Y-42835D01*
X92928Y-43824D01*
X92911Y-43841D01*
X92877Y-43892D01*
X92865Y-43952D01*
X92865Y-45046D01*
X92864Y-45044D01*
X92748Y-44927D01*
X92595Y-44864D01*
X92429Y-44863D01*
X92276Y-44927D01*
X92159Y-45044D01*
X92127Y-45122D01*
X92127Y-43850D01*
X92090Y-43762D01*
X92023Y-43695D01*
X91935Y-43659D01*
X91840Y-43658D01*
X91777Y-43684D01*
X91777Y-42809D01*
X91777Y-42676D01*
X91715Y-42613D01*
X91184Y-42613D01*
X91184Y-43046D01*
X91246Y-43108D01*
X91577Y-43108D01*
X91669Y-43070D01*
X91739Y-43000D01*
X91777Y-42908D01*
X91777Y-42809D01*
X91777Y-43684D01*
X91752Y-43695D01*
X91702Y-43745D01*
X91648Y-43745D01*
X91648Y-43582D01*
X91630Y-43538D01*
X91596Y-43504D01*
X91551Y-43486D01*
X91503Y-43486D01*
X91084Y-43486D01*
X91084Y-43046D01*
X91084Y-42613D01*
X90552Y-42613D01*
X90490Y-42676D01*
X90490Y-42809D01*
X90490Y-42908D01*
X90528Y-43000D01*
X90598Y-43070D01*
X90690Y-43108D01*
X91021Y-43108D01*
X91084Y-43046D01*
X91084Y-43486D01*
X90716Y-43486D01*
X90671Y-43504D01*
X90637Y-43538D01*
X90619Y-43582D01*
X90619Y-43630D01*
X90619Y-44221D01*
X90637Y-44265D01*
X90671Y-44299D01*
X90716Y-44318D01*
X90764Y-44318D01*
X91551Y-44318D01*
X91596Y-44299D01*
X91630Y-44266D01*
X91648Y-44221D01*
X91648Y-44173D01*
X91648Y-44058D01*
X91710Y-44058D01*
X91752Y-44100D01*
X91840Y-44136D01*
X91935Y-44137D01*
X92023Y-44100D01*
X92090Y-44033D01*
X92126Y-43945D01*
X92127Y-43850D01*
X92127Y-45122D01*
X92095Y-45197D01*
X92095Y-45362D01*
X92159Y-45515D01*
X92275Y-45632D01*
X92428Y-45696D01*
X92594Y-45696D01*
X92747Y-45633D01*
X92864Y-45516D01*
X92865Y-45513D01*
X92865Y-45883D01*
X92841Y-45859D01*
X92753Y-45823D01*
X92658Y-45822D01*
X92570Y-45859D01*
X92503Y-45926D01*
X92467Y-46014D01*
X92466Y-46109D01*
X92503Y-46197D01*
X92570Y-46264D01*
X92658Y-46300D01*
X92753Y-46301D01*
X92841Y-46264D01*
X92887Y-46218D01*
X92972Y-46218D01*
X92972Y-46218D01*
X93031Y-46206D01*
X93082Y-46172D01*
X93132Y-46122D01*
X93166Y-46071D01*
X93166Y-46071D01*
X93168Y-46061D01*
X93178Y-46012D01*
X93178Y-46012D01*
X93178Y-44058D01*
X93375Y-44058D01*
X93375Y-44221D01*
X93393Y-44265D01*
X93427Y-44299D01*
X93472Y-44318D01*
X93520Y-44318D01*
X94307Y-44318D01*
X94352Y-44299D01*
X94386Y-44266D01*
X94404Y-44221D01*
X94404Y-44173D01*
X94404Y-45079D01*
X94386Y-45034D01*
X94352Y-45000D01*
X94307Y-44982D01*
X94259Y-44982D01*
X93472Y-44982D01*
X93427Y-45000D01*
X93393Y-45034D01*
X93375Y-45078D01*
X93375Y-45126D01*
X93375Y-45717D01*
X93393Y-45761D01*
X93427Y-45795D01*
X93472Y-45814D01*
X93520Y-45814D01*
X93733Y-45814D01*
X93733Y-46610D01*
X93733Y-46623D01*
X93720Y-46623D01*
X92241Y-46623D01*
X92195Y-46577D01*
X92107Y-46541D01*
X92012Y-46540D01*
X91924Y-46577D01*
X91857Y-46644D01*
X91821Y-46732D01*
X91820Y-46827D01*
X91857Y-46915D01*
X91924Y-46982D01*
X92012Y-47018D01*
X92107Y-47019D01*
X92195Y-46982D01*
X92241Y-46936D01*
X93720Y-46936D01*
X93820Y-46936D01*
X93820Y-46936D01*
X93879Y-46924D01*
X93930Y-46890D01*
X94000Y-46820D01*
X94000Y-46820D01*
X94023Y-46786D01*
X94034Y-46769D01*
X94034Y-46769D01*
X94046Y-46710D01*
X94046Y-46710D01*
X94046Y-46610D01*
X94046Y-45814D01*
X94307Y-45814D01*
X94352Y-45796D01*
X94386Y-45762D01*
X94404Y-45717D01*
X94404Y-45669D01*
X94404Y-47517D01*
X91648Y-47517D01*
X91648Y-45669D01*
X91648Y-45079D01*
X91630Y-45034D01*
X91596Y-45000D01*
X91551Y-44982D01*
X91503Y-44982D01*
X90716Y-44982D01*
X90671Y-45000D01*
X90637Y-45034D01*
X90619Y-45078D01*
X90619Y-45126D01*
X90619Y-45717D01*
X90637Y-45761D01*
X90671Y-45795D01*
X90716Y-45814D01*
X90764Y-45814D01*
X91551Y-45814D01*
X91596Y-45796D01*
X91630Y-45762D01*
X91648Y-45717D01*
X91648Y-45669D01*
X91648Y-47517D01*
X89590Y-47517D01*
X89586Y-47513D01*
X89586Y-47117D01*
X89601Y-47117D01*
X89646Y-47098D01*
X89680Y-47064D01*
X89698Y-47020D01*
X89698Y-46972D01*
X89698Y-46499D01*
X89680Y-46455D01*
X89646Y-46421D01*
X89601Y-46402D01*
X89553Y-46402D01*
X89258Y-46402D01*
X89213Y-46421D01*
X89179Y-46455D01*
X89161Y-46499D01*
X89161Y-46547D01*
X89161Y-47020D01*
X89179Y-47064D01*
X89213Y-47098D01*
X89258Y-47117D01*
X89273Y-47117D01*
X89273Y-47578D01*
X89285Y-47637D01*
X89319Y-47688D01*
X89415Y-47784D01*
X89415Y-47784D01*
X89466Y-47818D01*
X89466Y-47818D01*
X89476Y-47820D01*
X89526Y-47830D01*
X91550Y-47830D01*
X91541Y-47852D01*
X91540Y-47947D01*
X91577Y-48035D01*
X91644Y-48102D01*
X91732Y-48138D01*
X91746Y-48138D01*
X91589Y-48295D01*
X88702Y-48295D01*
X88710Y-48290D01*
X88772Y-48228D01*
X88772Y-48228D01*
X88806Y-48177D01*
X88806Y-48177D01*
X88808Y-48167D01*
X88818Y-48118D01*
X88818Y-48118D01*
X88818Y-48058D01*
X88818Y-46410D01*
X88902Y-46375D01*
X89022Y-46255D01*
X89058Y-46170D01*
X89161Y-46170D01*
X89161Y-46272D01*
X89179Y-46316D01*
X89213Y-46350D01*
X89258Y-46369D01*
X89306Y-46369D01*
X89601Y-46369D01*
X89646Y-46350D01*
X89680Y-46316D01*
X89698Y-46272D01*
X89698Y-46224D01*
X89698Y-45751D01*
X89680Y-45707D01*
X89646Y-45673D01*
X89601Y-45654D01*
X89553Y-45654D01*
X89258Y-45654D01*
X89213Y-45673D01*
X89179Y-45707D01*
X89161Y-45751D01*
X89161Y-45799D01*
X89161Y-45857D01*
X89058Y-45857D01*
X89023Y-45773D01*
X88903Y-45653D01*
X88747Y-45588D01*
X88577Y-45587D01*
X88421Y-45652D01*
X88301Y-45772D01*
X88236Y-45928D01*
X88235Y-46098D01*
X88300Y-46254D01*
X88420Y-46374D01*
X88505Y-46410D01*
X88505Y-48023D01*
X88488Y-48023D01*
X88488Y-46829D01*
X88423Y-46673D01*
X88303Y-46553D01*
X88147Y-46488D01*
X88021Y-46487D01*
X88021Y-46096D01*
X88011Y-45876D01*
X87947Y-45723D01*
X87851Y-45695D01*
X87780Y-45765D01*
X87780Y-45624D01*
X87752Y-45528D01*
X87544Y-45454D01*
X87324Y-45464D01*
X87171Y-45528D01*
X87143Y-45624D01*
X87462Y-45943D01*
X87780Y-45624D01*
X87780Y-45765D01*
X87532Y-46014D01*
X87851Y-46332D01*
X87947Y-46304D01*
X88021Y-46096D01*
X88021Y-46487D01*
X87977Y-46487D01*
X87821Y-46552D01*
X87780Y-46592D01*
X87780Y-46403D01*
X87462Y-46084D01*
X87391Y-46155D01*
X87391Y-46014D01*
X87072Y-45695D01*
X86976Y-45723D01*
X86902Y-45931D01*
X86912Y-46151D01*
X86976Y-46304D01*
X87072Y-46332D01*
X87391Y-46014D01*
X87391Y-46155D01*
X87143Y-46403D01*
X87171Y-46499D01*
X87379Y-46573D01*
X87599Y-46563D01*
X87752Y-46499D01*
X87780Y-46403D01*
X87780Y-46592D01*
X87701Y-46672D01*
X87636Y-46828D01*
X87635Y-46998D01*
X87700Y-47154D01*
X87820Y-47274D01*
X87976Y-47339D01*
X88146Y-47340D01*
X88302Y-47275D01*
X88422Y-47155D01*
X88487Y-46999D01*
X88488Y-46829D01*
X88488Y-48023D01*
X87007Y-48023D01*
X87007Y-47823D01*
X87007Y-47036D01*
X86989Y-46991D01*
X86955Y-46957D01*
X86910Y-46939D01*
X86862Y-46939D01*
X85681Y-46939D01*
X85637Y-46957D01*
X85603Y-46991D01*
X85584Y-47036D01*
X85584Y-47084D01*
X85584Y-47871D01*
X85602Y-47916D01*
X85636Y-47950D01*
X85681Y-47968D01*
X85729Y-47968D01*
X86910Y-47968D01*
X86954Y-47950D01*
X86988Y-47916D01*
X87007Y-47871D01*
X87007Y-47823D01*
X87007Y-48023D01*
X86660Y-48023D01*
X86610Y-48033D01*
X86600Y-48035D01*
X86549Y-48069D01*
X86469Y-48149D01*
X86435Y-48200D01*
X86423Y-48260D01*
X86423Y-53620D01*
X86431Y-53656D01*
X86426Y-53656D01*
X86338Y-53693D01*
X86271Y-53760D01*
X86235Y-53848D01*
X86235Y-53869D01*
X86152Y-53868D01*
X86064Y-53905D01*
X85997Y-53972D01*
X85961Y-54060D01*
X85960Y-54155D01*
X85979Y-54201D01*
X85620Y-54201D01*
X85538Y-54201D01*
X85535Y-54201D01*
X85466Y-54201D01*
X85406Y-54213D01*
X85389Y-54224D01*
X85356Y-54246D01*
X85356Y-42156D01*
X90516Y-42156D01*
X90490Y-42218D01*
X90490Y-42317D01*
X90490Y-42451D01*
X90552Y-42513D01*
X91084Y-42513D01*
X91084Y-42505D01*
X91184Y-42505D01*
X91184Y-42513D01*
X91715Y-42513D01*
X91777Y-42451D01*
X91777Y-42317D01*
X91777Y-42218D01*
X91751Y-42156D01*
X93272Y-42156D01*
X93246Y-42218D01*
X93246Y-42317D01*
X93246Y-42451D01*
X93308Y-42513D01*
X93839Y-42513D01*
X93839Y-42505D01*
X93939Y-42505D01*
X93939Y-42513D01*
X94471Y-42513D01*
X94533Y-42451D01*
X94533Y-42317D01*
X94533Y-42218D01*
X94507Y-42156D01*
X95588Y-42156D01*
X95588Y-42158D01*
X95588Y-42453D01*
X95607Y-42498D01*
X95641Y-42532D01*
X95685Y-42550D01*
X95733Y-42550D01*
X95789Y-42550D01*
X95789Y-42703D01*
X95533Y-42703D01*
X95489Y-42721D01*
X95455Y-42755D01*
X95436Y-42800D01*
X95436Y-42848D01*
X95436Y-43163D01*
X95454Y-43207D01*
X95488Y-43241D01*
X95533Y-43260D01*
X95581Y-43260D01*
X96329Y-43260D01*
X96373Y-43241D01*
X96407Y-43208D01*
X96426Y-43163D01*
X96426Y-43115D01*
X96426Y-42800D01*
X96407Y-42756D01*
X96374Y-42722D01*
X96329Y-42703D01*
X96281Y-42703D01*
X96102Y-42703D01*
X96102Y-42550D01*
X96206Y-42550D01*
X96250Y-42532D01*
X96284Y-42498D01*
X96303Y-42453D01*
X96303Y-42405D01*
X96303Y-42156D01*
X96336Y-42156D01*
X96336Y-42158D01*
X96336Y-42453D01*
X96355Y-42498D01*
X96389Y-42532D01*
X96433Y-42550D01*
X96481Y-42550D01*
X96954Y-42550D01*
X96998Y-42532D01*
X97032Y-42498D01*
X97051Y-42453D01*
X97051Y-42405D01*
X97051Y-42110D01*
X97032Y-42065D01*
X96998Y-42031D01*
X96954Y-42013D01*
X96906Y-42013D01*
X96842Y-42013D01*
X96838Y-41994D01*
X96804Y-41943D01*
X96750Y-41889D01*
X96699Y-41855D01*
X96694Y-41854D01*
X110471Y-41854D01*
X110471Y-57573D01*
M02*
