G04 (created by PCBNEW (22-Jun-2014 BZR 4027)-stable) date Wed 02 May 2018 01:52:57 PM CST*
%MOIN*%
G04 Gerber Fmt 3.4, Leading zero omitted, Abs format*
%FSLAX34Y34*%
G01*
G70*
G90*
G04 APERTURE LIST*
%ADD10C,0.00393701*%
%ADD11C,0.00590551*%
%ADD12C,0.0019685*%
%ADD13C,0.00472441*%
%ADD14C,0.005*%
%ADD15C,0.0001*%
%ADD16C,0.00492126*%
G04 APERTURE END LIST*
G54D10*
G54D11*
X90410Y-56627D02*
X89071Y-56627D01*
X89071Y-56627D02*
X89071Y-54068D01*
X89071Y-54068D02*
X90804Y-54068D01*
X90804Y-54068D02*
X90804Y-56233D01*
X90804Y-56233D02*
X90410Y-56627D01*
G54D12*
X91493Y-56745D02*
X91493Y-53950D01*
X88382Y-56745D02*
X88382Y-53950D01*
X91493Y-56745D02*
X88382Y-56745D01*
X91493Y-53950D02*
X88382Y-53950D01*
G54D11*
X90813Y-53989D02*
X89062Y-53989D01*
X91414Y-56706D02*
X89062Y-56706D01*
G54D13*
X96821Y-43978D02*
X96821Y-43611D01*
X96821Y-42733D02*
X96821Y-43100D01*
G54D11*
X96797Y-42757D02*
X96797Y-43954D01*
X96246Y-43954D02*
X96797Y-43954D01*
G54D12*
X95459Y-42667D02*
X97584Y-42667D01*
X97584Y-42667D02*
X97584Y-44044D01*
X97584Y-44044D02*
X95459Y-44044D01*
X95459Y-44044D02*
X95459Y-42667D01*
G54D13*
X96821Y-42733D02*
X95577Y-42733D01*
G54D11*
X96246Y-42757D02*
X96797Y-42757D01*
X96246Y-42757D02*
X96246Y-43954D01*
G54D13*
X96821Y-43978D02*
X96246Y-43978D01*
G54D10*
X102073Y-58286D02*
X101836Y-58522D01*
G54D13*
X102151Y-58600D02*
X102151Y-58443D01*
X102151Y-58443D02*
X102703Y-58443D01*
G54D10*
X101836Y-58522D02*
X100340Y-58522D01*
X100340Y-58522D02*
X100340Y-54427D01*
X100340Y-54427D02*
X102073Y-54427D01*
X102073Y-54427D02*
X102073Y-58286D01*
G54D13*
X102151Y-58600D02*
X100262Y-58600D01*
X102151Y-54349D02*
X100262Y-54349D01*
G54D12*
X102801Y-58620D02*
X99612Y-58620D01*
X102801Y-58620D02*
X102801Y-54329D01*
X99612Y-54329D02*
X99612Y-58620D01*
X99612Y-54329D02*
X102801Y-54329D01*
X104308Y-56515D02*
X102851Y-56515D01*
X104308Y-55924D02*
X102851Y-55924D01*
X104308Y-56515D02*
X104308Y-55924D01*
X102851Y-56515D02*
X102851Y-55924D01*
G54D11*
X103717Y-56456D02*
X103442Y-56456D01*
X103442Y-55983D02*
X103717Y-55983D01*
G54D12*
X95591Y-41986D02*
X97048Y-41986D01*
X95591Y-42577D02*
X97048Y-42577D01*
X95591Y-41986D02*
X95591Y-42577D01*
X97048Y-41986D02*
X97048Y-42577D01*
G54D11*
X96182Y-42045D02*
X96457Y-42045D01*
X96457Y-42518D02*
X96182Y-42518D01*
G54D12*
X92420Y-55430D02*
X92420Y-53973D01*
X93011Y-55430D02*
X93011Y-53973D01*
X92420Y-55430D02*
X93011Y-55430D01*
X92420Y-53973D02*
X93011Y-53973D01*
G54D11*
X92479Y-54839D02*
X92479Y-54564D01*
X92952Y-54564D02*
X92952Y-54839D01*
G54D12*
X91754Y-55178D02*
X91754Y-53721D01*
X92345Y-55178D02*
X92345Y-53721D01*
X91754Y-55178D02*
X92345Y-55178D01*
X91754Y-53721D02*
X92345Y-53721D01*
G54D11*
X91813Y-54587D02*
X91813Y-54312D01*
X92286Y-54312D02*
X92286Y-54587D01*
G54D12*
X108674Y-47110D02*
X108674Y-45653D01*
X109265Y-47110D02*
X109265Y-45653D01*
X108674Y-47110D02*
X109265Y-47110D01*
X108674Y-45653D02*
X109265Y-45653D01*
G54D11*
X108733Y-46519D02*
X108733Y-46244D01*
X109206Y-46244D02*
X109206Y-46519D01*
G54D12*
X89134Y-47114D02*
X89134Y-45657D01*
X89725Y-47114D02*
X89725Y-45657D01*
X89134Y-47114D02*
X89725Y-47114D01*
X89134Y-45657D02*
X89725Y-45657D01*
G54D11*
X89193Y-46523D02*
X89193Y-46248D01*
X89666Y-46248D02*
X89666Y-46523D01*
G54D13*
X91291Y-45713D02*
X91291Y-46500D01*
X91291Y-46500D02*
X93732Y-46500D01*
X93732Y-46500D02*
X93732Y-45732D01*
X91291Y-44217D02*
X91291Y-45083D01*
X91291Y-42248D02*
X91291Y-41697D01*
X91291Y-43587D02*
X91291Y-42878D01*
X93732Y-42878D02*
X93732Y-45083D01*
X93732Y-41697D02*
X93732Y-42248D01*
X91488Y-41697D02*
X91488Y-40910D01*
X91488Y-40910D02*
X93535Y-40910D01*
X93535Y-40910D02*
X93535Y-41697D01*
X93535Y-41697D02*
X93732Y-41697D01*
X91291Y-41697D02*
X91488Y-41697D01*
G54D10*
X91330Y-46461D02*
X93693Y-46461D01*
X93693Y-46461D02*
X93693Y-41736D01*
X93693Y-41736D02*
X93496Y-41736D01*
X93496Y-41736D02*
X93496Y-40949D01*
X93496Y-40949D02*
X91527Y-40949D01*
X91527Y-40949D02*
X91527Y-41736D01*
X91527Y-41736D02*
X91330Y-41736D01*
X91330Y-41736D02*
X91330Y-46461D01*
G54D12*
X90543Y-40748D02*
X94480Y-40748D01*
X90543Y-40748D02*
X90543Y-46752D01*
X94480Y-46752D02*
X94480Y-40748D01*
X90543Y-46752D02*
X94480Y-46752D01*
G54D11*
X96812Y-55564D02*
X97262Y-55564D01*
X97262Y-55564D02*
X97262Y-45039D01*
X97262Y-45039D02*
X96812Y-45039D01*
X95537Y-45064D02*
X95262Y-45064D01*
X95262Y-45064D02*
X95262Y-45564D01*
X95262Y-55064D02*
X95262Y-55564D01*
X95262Y-55564D02*
X95537Y-55564D01*
G54D12*
X87026Y-57505D02*
X85569Y-57505D01*
X87026Y-56914D02*
X85569Y-56914D01*
X87026Y-57505D02*
X87026Y-56914D01*
X85569Y-57505D02*
X85569Y-56914D01*
G54D11*
X86435Y-57446D02*
X86160Y-57446D01*
X86160Y-56973D02*
X86435Y-56973D01*
G54D12*
X89997Y-56876D02*
X91454Y-56876D01*
X89997Y-57467D02*
X91454Y-57467D01*
X89997Y-56876D02*
X89997Y-57467D01*
X91454Y-56876D02*
X91454Y-57467D01*
G54D11*
X90588Y-56935D02*
X90863Y-56935D01*
X90863Y-57408D02*
X90588Y-57408D01*
G54D12*
X92996Y-56539D02*
X91539Y-56539D01*
X92996Y-55948D02*
X91539Y-55948D01*
X92996Y-56539D02*
X92996Y-55948D01*
X91539Y-56539D02*
X91539Y-55948D01*
G54D11*
X92405Y-56480D02*
X92130Y-56480D01*
X92130Y-56007D02*
X92405Y-56007D01*
G54D12*
X93663Y-55125D02*
X93663Y-56582D01*
X93072Y-55125D02*
X93072Y-56582D01*
X93663Y-55125D02*
X93072Y-55125D01*
X93663Y-56582D02*
X93072Y-56582D01*
G54D11*
X93604Y-55716D02*
X93604Y-55991D01*
X93131Y-55991D02*
X93131Y-55716D01*
G54D12*
X88418Y-57841D02*
X86961Y-57841D01*
X88418Y-57250D02*
X86961Y-57250D01*
X88418Y-57841D02*
X88418Y-57250D01*
X86961Y-57841D02*
X86961Y-57250D01*
G54D11*
X87827Y-57782D02*
X87552Y-57782D01*
X87552Y-57309D02*
X87827Y-57309D01*
G54D12*
X93103Y-53480D02*
X94560Y-53480D01*
X93103Y-54071D02*
X94560Y-54071D01*
X93103Y-53480D02*
X93103Y-54071D01*
X94560Y-53480D02*
X94560Y-54071D01*
G54D11*
X93694Y-53539D02*
X93969Y-53539D01*
X93969Y-54012D02*
X93694Y-54012D01*
G54D12*
X93093Y-54150D02*
X94550Y-54150D01*
X93093Y-54741D02*
X94550Y-54741D01*
X93093Y-54150D02*
X93093Y-54741D01*
X94550Y-54150D02*
X94550Y-54741D01*
G54D11*
X93684Y-54209D02*
X93959Y-54209D01*
X93959Y-54682D02*
X93684Y-54682D01*
G54D12*
X88111Y-55729D02*
X88111Y-57186D01*
X87520Y-55729D02*
X87520Y-57186D01*
X88111Y-55729D02*
X87520Y-55729D01*
X88111Y-57186D02*
X87520Y-57186D01*
G54D11*
X88052Y-56320D02*
X88052Y-56595D01*
X87579Y-56595D02*
X87579Y-56320D01*
G54D12*
X89834Y-57467D02*
X88377Y-57467D01*
X89834Y-56876D02*
X88377Y-56876D01*
X89834Y-57467D02*
X89834Y-56876D01*
X88377Y-57467D02*
X88377Y-56876D01*
G54D11*
X89243Y-57408D02*
X88968Y-57408D01*
X88968Y-56935D02*
X89243Y-56935D01*
G54D12*
X102801Y-54280D02*
X101344Y-54280D01*
X102801Y-53689D02*
X101344Y-53689D01*
X102801Y-54280D02*
X102801Y-53689D01*
X101344Y-54280D02*
X101344Y-53689D01*
G54D11*
X102210Y-54221D02*
X101935Y-54221D01*
X101935Y-53748D02*
X102210Y-53748D01*
G54D14*
X110522Y-58624D02*
X110522Y-57624D01*
X109822Y-57624D02*
X109822Y-58624D01*
X109822Y-57624D02*
X110522Y-57624D01*
X110522Y-58624D02*
X109822Y-58624D01*
X85792Y-58622D02*
X85792Y-57622D01*
X85092Y-57622D02*
X85092Y-58622D01*
X85092Y-57622D02*
X85792Y-57622D01*
X85792Y-58622D02*
X85092Y-58622D01*
G54D11*
X89062Y-45614D02*
X87062Y-45614D01*
X87062Y-45614D02*
X87062Y-47314D01*
X87062Y-47314D02*
X89062Y-47314D01*
X89062Y-47314D02*
X89062Y-45614D01*
X108562Y-45614D02*
X106562Y-45614D01*
X106562Y-45614D02*
X106562Y-47314D01*
X106562Y-47314D02*
X108562Y-47314D01*
X108562Y-47314D02*
X108562Y-45614D01*
X85196Y-47454D02*
X85186Y-56594D01*
X85646Y-47454D02*
X85196Y-47454D01*
X85186Y-56599D02*
X85636Y-56599D01*
X86910Y-56574D02*
X87186Y-56574D01*
X87186Y-56574D02*
X87186Y-56074D01*
X87196Y-47954D02*
X87196Y-47454D01*
X87196Y-47454D02*
X86920Y-47454D01*
G54D15*
G36*
X110592Y-44324D02*
X110522Y-44324D01*
X110522Y-42907D01*
X110513Y-42782D01*
X110489Y-42671D01*
X110457Y-42579D01*
X110328Y-42325D01*
X110149Y-42113D01*
X109923Y-41948D01*
X109876Y-41924D01*
X109770Y-41871D01*
X109685Y-41837D01*
X109600Y-41818D01*
X109495Y-41809D01*
X109351Y-41807D01*
X109295Y-41807D01*
X109127Y-41809D01*
X109007Y-41817D01*
X108913Y-41834D01*
X108826Y-41863D01*
X108752Y-41896D01*
X108536Y-42030D01*
X108344Y-42211D01*
X108196Y-42422D01*
X108164Y-42484D01*
X108094Y-42696D01*
X108060Y-42938D01*
X108064Y-43185D01*
X108106Y-43411D01*
X108124Y-43465D01*
X108214Y-43651D01*
X108334Y-43827D01*
X108469Y-43975D01*
X108574Y-44056D01*
X108742Y-44150D01*
X108896Y-44210D01*
X109059Y-44241D01*
X109255Y-44249D01*
X109342Y-44248D01*
X109501Y-44241D01*
X109616Y-44229D01*
X109707Y-44208D01*
X109796Y-44171D01*
X109884Y-44126D01*
X110121Y-43967D01*
X110301Y-43774D01*
X110427Y-43545D01*
X110499Y-43276D01*
X110519Y-43074D01*
X110522Y-42907D01*
X110522Y-44324D01*
X109292Y-44324D01*
X107992Y-44324D01*
X107992Y-43024D01*
X107992Y-41724D01*
X109292Y-41724D01*
X110592Y-41724D01*
X110592Y-43024D01*
X110592Y-44324D01*
X110592Y-44324D01*
X110592Y-44324D01*
G37*
G36*
X109152Y-44150D02*
X109105Y-44140D01*
X109008Y-44110D01*
X108760Y-44008D01*
X108558Y-43868D01*
X108388Y-43679D01*
X108313Y-43567D01*
X108237Y-43421D01*
X108195Y-43269D01*
X108178Y-43086D01*
X108177Y-43024D01*
X108184Y-42852D01*
X108209Y-42718D01*
X108259Y-42589D01*
X108280Y-42547D01*
X108342Y-42428D01*
X108431Y-42506D01*
X108488Y-42569D01*
X108518Y-42647D01*
X108531Y-42762D01*
X108542Y-42940D01*
X108792Y-42959D01*
X109042Y-42978D01*
X108783Y-42984D01*
X108525Y-42990D01*
X108525Y-43124D01*
X108515Y-43228D01*
X108489Y-43313D01*
X108483Y-43324D01*
X108463Y-43406D01*
X108498Y-43473D01*
X108575Y-43506D01*
X108591Y-43507D01*
X108675Y-43481D01*
X108717Y-43418D01*
X108707Y-43338D01*
X108700Y-43324D01*
X108666Y-43237D01*
X108658Y-43174D01*
X108663Y-43126D01*
X108688Y-43101D01*
X108749Y-43092D01*
X108842Y-43090D01*
X109025Y-43090D01*
X109025Y-43569D01*
X109025Y-43758D01*
X109028Y-43891D01*
X109034Y-43979D01*
X109046Y-44035D01*
X109064Y-44070D01*
X109091Y-44095D01*
X109100Y-44101D01*
X109148Y-44137D01*
X109152Y-44150D01*
X109152Y-44150D01*
X109152Y-44150D01*
G37*
G36*
X110027Y-42867D02*
X109918Y-42960D01*
X109842Y-43019D01*
X109784Y-43052D01*
X109772Y-43055D01*
X109724Y-43079D01*
X109675Y-43123D01*
X109637Y-43180D01*
X109648Y-43226D01*
X109658Y-43240D01*
X109729Y-43286D01*
X109806Y-43285D01*
X109864Y-43240D01*
X109877Y-43209D01*
X109918Y-43122D01*
X109962Y-43070D01*
X109988Y-43049D01*
X110006Y-43046D01*
X110016Y-43071D01*
X110021Y-43134D01*
X110021Y-43242D01*
X110019Y-43406D01*
X110018Y-43459D01*
X110008Y-43907D01*
X109829Y-44003D01*
X109673Y-44080D01*
X109554Y-44120D01*
X109456Y-44124D01*
X109362Y-44094D01*
X109300Y-44060D01*
X109158Y-43974D01*
X109161Y-43741D01*
X109163Y-43622D01*
X109168Y-43563D01*
X109178Y-43555D01*
X109196Y-43590D01*
X109202Y-43607D01*
X109239Y-43675D01*
X109290Y-43698D01*
X109355Y-43696D01*
X109430Y-43686D01*
X109484Y-43664D01*
X109519Y-43623D01*
X109538Y-43551D01*
X109545Y-43439D01*
X109543Y-43278D01*
X109536Y-43118D01*
X109515Y-42640D01*
X109587Y-42704D01*
X109639Y-42769D01*
X109658Y-42825D01*
X109684Y-42896D01*
X109743Y-42942D01*
X109808Y-42945D01*
X109853Y-42903D01*
X109840Y-42834D01*
X109769Y-42736D01*
X109717Y-42681D01*
X109625Y-42577D01*
X109582Y-42492D01*
X109575Y-42440D01*
X109564Y-42367D01*
X109521Y-42336D01*
X109489Y-42330D01*
X109394Y-42343D01*
X109344Y-42400D01*
X109346Y-42491D01*
X109356Y-42517D01*
X109374Y-42599D01*
X109384Y-42729D01*
X109385Y-42887D01*
X109385Y-42909D01*
X109379Y-43050D01*
X109372Y-43138D01*
X109358Y-43185D01*
X109334Y-43203D01*
X109296Y-43207D01*
X109292Y-43207D01*
X109228Y-43222D01*
X109195Y-43279D01*
X109189Y-43307D01*
X109178Y-43342D01*
X109168Y-43319D01*
X109159Y-43233D01*
X109155Y-43178D01*
X109152Y-43058D01*
X109155Y-42962D01*
X109165Y-42913D01*
X109175Y-42856D01*
X109125Y-42821D01*
X109017Y-42808D01*
X108905Y-42813D01*
X108692Y-42833D01*
X108692Y-42685D01*
X108686Y-42590D01*
X108658Y-42526D01*
X108594Y-42465D01*
X108559Y-42438D01*
X108482Y-42378D01*
X108434Y-42332D01*
X108426Y-42319D01*
X108452Y-42271D01*
X108524Y-42205D01*
X108628Y-42129D01*
X108748Y-42054D01*
X108870Y-41988D01*
X108981Y-41943D01*
X108987Y-41941D01*
X109065Y-41917D01*
X109053Y-42328D01*
X109049Y-42501D01*
X109050Y-42619D01*
X109056Y-42692D01*
X109068Y-42732D01*
X109089Y-42748D01*
X109097Y-42750D01*
X109140Y-42749D01*
X109170Y-42720D01*
X109189Y-42654D01*
X109197Y-42543D01*
X109198Y-42379D01*
X109195Y-42277D01*
X109185Y-41880D01*
X109377Y-41900D01*
X109558Y-41938D01*
X109753Y-42013D01*
X109789Y-42030D01*
X110008Y-42140D01*
X110018Y-42503D01*
X110027Y-42867D01*
X110027Y-42867D01*
X110027Y-42867D01*
G37*
G36*
X110402Y-43026D02*
X110397Y-43188D01*
X110381Y-43310D01*
X110358Y-43382D01*
X110317Y-43477D01*
X110268Y-43577D01*
X110220Y-43662D01*
X110184Y-43715D01*
X110172Y-43724D01*
X110168Y-43692D01*
X110164Y-43603D01*
X110162Y-43467D01*
X110160Y-43293D01*
X110159Y-43092D01*
X110159Y-43015D01*
X110159Y-42307D01*
X110258Y-42464D01*
X110319Y-42575D01*
X110366Y-42683D01*
X110380Y-42731D01*
X110397Y-42863D01*
X110402Y-43026D01*
X110402Y-43026D01*
X110402Y-43026D01*
G37*
G36*
X109492Y-43426D02*
X109464Y-43494D01*
X109398Y-43531D01*
X109321Y-43522D01*
X109316Y-43519D01*
X109267Y-43464D01*
X109258Y-43425D01*
X109273Y-43382D01*
X109330Y-43365D01*
X109375Y-43364D01*
X109456Y-43372D01*
X109488Y-43401D01*
X109492Y-43426D01*
X109492Y-43426D01*
X109492Y-43426D01*
G37*
G36*
X108625Y-43374D02*
X108604Y-43419D01*
X108558Y-43411D01*
X108548Y-43402D01*
X108541Y-43361D01*
X108575Y-43327D01*
X108593Y-43324D01*
X108621Y-43351D01*
X108625Y-43374D01*
X108625Y-43374D01*
X108625Y-43374D01*
G37*
G36*
X109811Y-43212D02*
X109799Y-43229D01*
X109758Y-43241D01*
X109742Y-43224D01*
X109739Y-43168D01*
X109751Y-43151D01*
X109792Y-43139D01*
X109808Y-43157D01*
X109811Y-43212D01*
X109811Y-43212D01*
X109811Y-43212D01*
G37*
G36*
X109517Y-42449D02*
X109501Y-42482D01*
X109458Y-42490D01*
X109405Y-42475D01*
X109400Y-42449D01*
X109441Y-42410D01*
X109458Y-42407D01*
X109508Y-42433D01*
X109517Y-42449D01*
X109517Y-42449D01*
X109517Y-42449D01*
G37*
G54D16*
X89130Y-54072D02*
X89130Y-54327D01*
X89139Y-54357D01*
X89148Y-54372D01*
X89167Y-54387D01*
X89205Y-54387D01*
X89223Y-54372D01*
X89233Y-54357D01*
X89242Y-54327D01*
X89242Y-54072D01*
X89439Y-54387D02*
X89326Y-54387D01*
X89383Y-54387D02*
X89383Y-54072D01*
X89364Y-54117D01*
X89345Y-54147D01*
X89326Y-54162D01*
X89138Y-54747D02*
X89138Y-54432D01*
X89213Y-54432D01*
X89231Y-54447D01*
X89241Y-54462D01*
X89250Y-54492D01*
X89250Y-54537D01*
X89241Y-54567D01*
X89231Y-54582D01*
X89213Y-54597D01*
X89138Y-54597D01*
X89447Y-54717D02*
X89438Y-54732D01*
X89410Y-54747D01*
X89391Y-54747D01*
X89363Y-54732D01*
X89344Y-54702D01*
X89335Y-54672D01*
X89325Y-54612D01*
X89325Y-54567D01*
X89335Y-54507D01*
X89344Y-54477D01*
X89363Y-54447D01*
X89391Y-54432D01*
X89410Y-54432D01*
X89438Y-54447D01*
X89447Y-54462D01*
X89531Y-54747D02*
X89531Y-54432D01*
X89597Y-54657D01*
X89663Y-54432D01*
X89663Y-54747D01*
X89850Y-54432D02*
X89756Y-54432D01*
X89747Y-54582D01*
X89756Y-54567D01*
X89775Y-54552D01*
X89822Y-54552D01*
X89841Y-54567D01*
X89850Y-54582D01*
X89860Y-54612D01*
X89860Y-54687D01*
X89850Y-54717D01*
X89841Y-54732D01*
X89822Y-54747D01*
X89775Y-54747D01*
X89756Y-54732D01*
X89747Y-54717D01*
X90047Y-54747D02*
X89934Y-54747D01*
X89991Y-54747D02*
X89991Y-54432D01*
X89972Y-54477D01*
X89953Y-54507D01*
X89934Y-54522D01*
X90169Y-54432D02*
X90188Y-54432D01*
X90206Y-54447D01*
X90216Y-54462D01*
X90225Y-54492D01*
X90234Y-54552D01*
X90234Y-54627D01*
X90225Y-54687D01*
X90216Y-54717D01*
X90206Y-54732D01*
X90188Y-54747D01*
X90169Y-54747D01*
X90150Y-54732D01*
X90141Y-54717D01*
X90131Y-54687D01*
X90122Y-54627D01*
X90122Y-54552D01*
X90131Y-54492D01*
X90141Y-54462D01*
X90150Y-54447D01*
X90169Y-54432D01*
X90309Y-54462D02*
X90319Y-54447D01*
X90338Y-54432D01*
X90384Y-54432D01*
X90403Y-54447D01*
X90413Y-54462D01*
X90422Y-54492D01*
X90422Y-54522D01*
X90413Y-54567D01*
X90300Y-54747D01*
X90422Y-54747D01*
X90497Y-54657D02*
X90591Y-54657D01*
X90478Y-54747D02*
X90544Y-54432D01*
X90609Y-54747D01*
X97781Y-43077D02*
X97762Y-43062D01*
X97743Y-43032D01*
X97715Y-42987D01*
X97696Y-42972D01*
X97678Y-42972D01*
X97687Y-43047D02*
X97668Y-43032D01*
X97650Y-43002D01*
X97640Y-42942D01*
X97640Y-42837D01*
X97650Y-42777D01*
X97668Y-42747D01*
X97687Y-42732D01*
X97725Y-42732D01*
X97743Y-42747D01*
X97762Y-42777D01*
X97771Y-42837D01*
X97771Y-42942D01*
X97762Y-43002D01*
X97743Y-43032D01*
X97725Y-43047D01*
X97687Y-43047D01*
X97959Y-43047D02*
X97846Y-43047D01*
X97903Y-43047D02*
X97903Y-42732D01*
X97884Y-42777D01*
X97865Y-42807D01*
X97846Y-42822D01*
X97759Y-43467D02*
X97646Y-43467D01*
X97703Y-43467D02*
X97703Y-43152D01*
X97684Y-43197D01*
X97665Y-43227D01*
X97646Y-43242D01*
X97834Y-43377D02*
X97928Y-43377D01*
X97815Y-43467D02*
X97881Y-43152D01*
X97946Y-43467D01*
X98012Y-43467D02*
X98012Y-43152D01*
X98078Y-43377D01*
X98143Y-43152D01*
X98143Y-43467D01*
X100410Y-54452D02*
X100410Y-54707D01*
X100419Y-54737D01*
X100428Y-54752D01*
X100447Y-54767D01*
X100485Y-54767D01*
X100503Y-54752D01*
X100513Y-54737D01*
X100522Y-54707D01*
X100522Y-54452D01*
X100606Y-54482D02*
X100616Y-54467D01*
X100634Y-54452D01*
X100681Y-54452D01*
X100700Y-54467D01*
X100709Y-54482D01*
X100719Y-54512D01*
X100719Y-54542D01*
X100709Y-54587D01*
X100597Y-54767D01*
X100719Y-54767D01*
X100396Y-55167D02*
X100396Y-54852D01*
X100471Y-54852D01*
X100490Y-54867D01*
X100499Y-54882D01*
X100509Y-54912D01*
X100509Y-54957D01*
X100499Y-54987D01*
X100490Y-55002D01*
X100471Y-55017D01*
X100396Y-55017D01*
X100584Y-55077D02*
X100677Y-55077D01*
X100565Y-55167D02*
X100630Y-54852D01*
X100696Y-55167D01*
X100762Y-55167D02*
X100762Y-54852D01*
X100827Y-55077D01*
X100893Y-54852D01*
X100893Y-55167D01*
X101015Y-54987D02*
X100996Y-54972D01*
X100987Y-54957D01*
X100977Y-54927D01*
X100977Y-54912D01*
X100987Y-54882D01*
X100996Y-54867D01*
X101015Y-54852D01*
X101052Y-54852D01*
X101071Y-54867D01*
X101080Y-54882D01*
X101090Y-54912D01*
X101090Y-54927D01*
X101080Y-54957D01*
X101071Y-54972D01*
X101052Y-54987D01*
X101015Y-54987D01*
X100996Y-55002D01*
X100987Y-55017D01*
X100977Y-55047D01*
X100977Y-55107D01*
X100987Y-55137D01*
X100996Y-55152D01*
X101015Y-55167D01*
X101052Y-55167D01*
X101071Y-55152D01*
X101080Y-55137D01*
X101090Y-55107D01*
X101090Y-55047D01*
X101080Y-55017D01*
X101071Y-55002D01*
X101052Y-54987D01*
X101259Y-54957D02*
X101259Y-55167D01*
X101212Y-54837D02*
X101165Y-55062D01*
X101287Y-55062D01*
X101399Y-54852D02*
X101418Y-54852D01*
X101437Y-54867D01*
X101446Y-54882D01*
X101455Y-54912D01*
X101465Y-54972D01*
X101465Y-55047D01*
X101455Y-55107D01*
X101446Y-55137D01*
X101437Y-55152D01*
X101418Y-55167D01*
X101399Y-55167D01*
X101380Y-55152D01*
X101371Y-55137D01*
X101362Y-55107D01*
X101352Y-55047D01*
X101352Y-54972D01*
X101362Y-54912D01*
X101371Y-54882D01*
X101380Y-54867D01*
X101399Y-54852D01*
X101530Y-54852D02*
X101652Y-54852D01*
X101587Y-54972D01*
X101615Y-54972D01*
X101633Y-54987D01*
X101643Y-55002D01*
X101652Y-55032D01*
X101652Y-55107D01*
X101643Y-55137D01*
X101633Y-55152D01*
X101615Y-55167D01*
X101558Y-55167D01*
X101540Y-55152D01*
X101530Y-55137D01*
X101286Y-54767D02*
X101436Y-54452D01*
X101314Y-54452D02*
X101333Y-54467D01*
X101342Y-54497D01*
X101333Y-54527D01*
X101314Y-54542D01*
X101295Y-54527D01*
X101286Y-54497D01*
X101295Y-54467D01*
X101314Y-54452D01*
X101427Y-54752D02*
X101436Y-54722D01*
X101427Y-54692D01*
X101408Y-54677D01*
X101389Y-54692D01*
X101380Y-54722D01*
X101389Y-54752D01*
X101408Y-54767D01*
X101427Y-54752D01*
X101633Y-54767D02*
X101567Y-54617D01*
X101520Y-54767D02*
X101520Y-54452D01*
X101595Y-54452D01*
X101614Y-54467D01*
X101624Y-54482D01*
X101633Y-54512D01*
X101633Y-54557D01*
X101624Y-54587D01*
X101614Y-54602D01*
X101595Y-54617D01*
X101520Y-54617D01*
X103867Y-55907D02*
X103801Y-55757D01*
X103754Y-55907D02*
X103754Y-55592D01*
X103829Y-55592D01*
X103848Y-55607D01*
X103857Y-55622D01*
X103867Y-55652D01*
X103867Y-55697D01*
X103857Y-55727D01*
X103848Y-55742D01*
X103829Y-55757D01*
X103754Y-55757D01*
X104035Y-55697D02*
X104035Y-55907D01*
X103989Y-55577D02*
X103942Y-55802D01*
X104064Y-55802D01*
X103010Y-55907D02*
X102897Y-55907D01*
X102954Y-55907D02*
X102954Y-55592D01*
X102935Y-55637D01*
X102916Y-55667D01*
X102897Y-55682D01*
X103132Y-55592D02*
X103150Y-55592D01*
X103169Y-55607D01*
X103179Y-55622D01*
X103188Y-55652D01*
X103197Y-55712D01*
X103197Y-55787D01*
X103188Y-55847D01*
X103179Y-55877D01*
X103169Y-55892D01*
X103150Y-55907D01*
X103132Y-55907D01*
X103113Y-55892D01*
X103104Y-55877D01*
X103094Y-55847D01*
X103085Y-55787D01*
X103085Y-55712D01*
X103094Y-55652D01*
X103104Y-55622D01*
X103113Y-55607D01*
X103132Y-55592D01*
X103319Y-55592D02*
X103338Y-55592D01*
X103357Y-55607D01*
X103366Y-55622D01*
X103375Y-55652D01*
X103385Y-55712D01*
X103385Y-55787D01*
X103375Y-55847D01*
X103366Y-55877D01*
X103357Y-55892D01*
X103338Y-55907D01*
X103319Y-55907D01*
X103300Y-55892D01*
X103291Y-55877D01*
X103282Y-55847D01*
X103272Y-55787D01*
X103272Y-55712D01*
X103282Y-55652D01*
X103291Y-55622D01*
X103300Y-55607D01*
X103319Y-55592D01*
X103469Y-55907D02*
X103469Y-55592D01*
X103582Y-55907D02*
X103497Y-55727D01*
X103582Y-55592D02*
X103469Y-55772D01*
X96467Y-42067D02*
X96401Y-41917D01*
X96354Y-42067D02*
X96354Y-41752D01*
X96429Y-41752D01*
X96448Y-41767D01*
X96457Y-41782D01*
X96467Y-41812D01*
X96467Y-41857D01*
X96457Y-41887D01*
X96448Y-41902D01*
X96429Y-41917D01*
X96354Y-41917D01*
X96532Y-41752D02*
X96654Y-41752D01*
X96589Y-41872D01*
X96617Y-41872D01*
X96635Y-41887D01*
X96645Y-41902D01*
X96654Y-41932D01*
X96654Y-42007D01*
X96645Y-42037D01*
X96635Y-42052D01*
X96617Y-42067D01*
X96560Y-42067D01*
X96542Y-42052D01*
X96532Y-42037D01*
X95698Y-41877D02*
X95698Y-42087D01*
X95651Y-41757D02*
X95604Y-41982D01*
X95726Y-41982D01*
X95801Y-42057D02*
X95810Y-42072D01*
X95801Y-42087D01*
X95792Y-42072D01*
X95801Y-42057D01*
X95801Y-42087D01*
X95876Y-41772D02*
X96007Y-41772D01*
X95923Y-42087D01*
X96082Y-42087D02*
X96082Y-41772D01*
X96195Y-42087D02*
X96110Y-41907D01*
X96195Y-41772D02*
X96082Y-41952D01*
X92877Y-54724D02*
X92727Y-54790D01*
X92877Y-54837D02*
X92562Y-54837D01*
X92562Y-54762D01*
X92577Y-54743D01*
X92592Y-54734D01*
X92622Y-54724D01*
X92667Y-54724D01*
X92697Y-54734D01*
X92712Y-54743D01*
X92727Y-54762D01*
X92727Y-54837D01*
X92877Y-54537D02*
X92877Y-54649D01*
X92877Y-54593D02*
X92562Y-54593D01*
X92607Y-54612D01*
X92637Y-54631D01*
X92652Y-54649D01*
X92538Y-55785D02*
X92425Y-55785D01*
X92481Y-55785D02*
X92481Y-55470D01*
X92463Y-55515D01*
X92444Y-55545D01*
X92425Y-55560D01*
X92659Y-55470D02*
X92678Y-55470D01*
X92697Y-55485D01*
X92706Y-55500D01*
X92716Y-55530D01*
X92725Y-55590D01*
X92725Y-55665D01*
X92716Y-55725D01*
X92706Y-55755D01*
X92697Y-55770D01*
X92678Y-55785D01*
X92659Y-55785D01*
X92641Y-55770D01*
X92631Y-55755D01*
X92622Y-55725D01*
X92613Y-55665D01*
X92613Y-55590D01*
X92622Y-55530D01*
X92631Y-55500D01*
X92641Y-55485D01*
X92659Y-55470D01*
X92809Y-55785D02*
X92809Y-55470D01*
X92922Y-55785D02*
X92838Y-55605D01*
X92922Y-55470D02*
X92809Y-55650D01*
X92205Y-54486D02*
X92055Y-54552D01*
X92205Y-54599D02*
X91890Y-54599D01*
X91890Y-54524D01*
X91905Y-54505D01*
X91920Y-54496D01*
X91950Y-54486D01*
X91995Y-54486D01*
X92025Y-54496D01*
X92040Y-54505D01*
X92055Y-54524D01*
X92055Y-54599D01*
X91920Y-54411D02*
X91905Y-54402D01*
X91890Y-54383D01*
X91890Y-54336D01*
X91905Y-54318D01*
X91920Y-54308D01*
X91950Y-54299D01*
X91980Y-54299D01*
X92025Y-54308D01*
X92205Y-54421D01*
X92205Y-54299D01*
X91908Y-55533D02*
X91795Y-55533D01*
X91851Y-55533D02*
X91851Y-55218D01*
X91833Y-55263D01*
X91814Y-55293D01*
X91795Y-55308D01*
X92029Y-55218D02*
X92048Y-55218D01*
X92067Y-55233D01*
X92076Y-55248D01*
X92086Y-55278D01*
X92095Y-55338D01*
X92095Y-55413D01*
X92086Y-55473D01*
X92076Y-55503D01*
X92067Y-55518D01*
X92048Y-55533D01*
X92029Y-55533D01*
X92011Y-55518D01*
X92001Y-55503D01*
X91992Y-55473D01*
X91983Y-55413D01*
X91983Y-55338D01*
X91992Y-55278D01*
X92001Y-55248D01*
X92011Y-55233D01*
X92029Y-55218D01*
X92179Y-55533D02*
X92179Y-55218D01*
X92292Y-55533D02*
X92208Y-55353D01*
X92292Y-55218D02*
X92179Y-55398D01*
X109433Y-47087D02*
X109367Y-46937D01*
X109320Y-47087D02*
X109320Y-46772D01*
X109395Y-46772D01*
X109414Y-46787D01*
X109424Y-46802D01*
X109433Y-46832D01*
X109433Y-46877D01*
X109424Y-46907D01*
X109414Y-46922D01*
X109395Y-46937D01*
X109320Y-46937D01*
X109508Y-46802D02*
X109517Y-46787D01*
X109536Y-46772D01*
X109583Y-46772D01*
X109602Y-46787D01*
X109611Y-46802D01*
X109620Y-46832D01*
X109620Y-46862D01*
X109611Y-46907D01*
X109499Y-47087D01*
X109620Y-47087D01*
X109695Y-46802D02*
X109705Y-46787D01*
X109724Y-46772D01*
X109770Y-46772D01*
X109789Y-46787D01*
X109799Y-46802D01*
X109808Y-46832D01*
X109808Y-46862D01*
X109799Y-46907D01*
X109686Y-47087D01*
X109808Y-47087D01*
X109398Y-46437D02*
X109398Y-46647D01*
X109351Y-46317D02*
X109304Y-46542D01*
X109426Y-46542D01*
X109501Y-46617D02*
X109510Y-46632D01*
X109501Y-46647D01*
X109492Y-46632D01*
X109501Y-46617D01*
X109501Y-46647D01*
X109576Y-46332D02*
X109707Y-46332D01*
X109623Y-46647D01*
X109782Y-46647D02*
X109782Y-46332D01*
X109895Y-46647D02*
X109810Y-46467D01*
X109895Y-46332D02*
X109782Y-46512D01*
X87553Y-45467D02*
X87487Y-45317D01*
X87440Y-45467D02*
X87440Y-45152D01*
X87515Y-45152D01*
X87534Y-45167D01*
X87544Y-45182D01*
X87553Y-45212D01*
X87553Y-45257D01*
X87544Y-45287D01*
X87534Y-45302D01*
X87515Y-45317D01*
X87440Y-45317D01*
X87628Y-45182D02*
X87637Y-45167D01*
X87656Y-45152D01*
X87703Y-45152D01*
X87722Y-45167D01*
X87731Y-45182D01*
X87740Y-45212D01*
X87740Y-45242D01*
X87731Y-45287D01*
X87619Y-45467D01*
X87740Y-45467D01*
X87862Y-45152D02*
X87881Y-45152D01*
X87900Y-45167D01*
X87909Y-45182D01*
X87919Y-45212D01*
X87928Y-45272D01*
X87928Y-45347D01*
X87919Y-45407D01*
X87909Y-45437D01*
X87900Y-45452D01*
X87881Y-45467D01*
X87862Y-45467D01*
X87844Y-45452D01*
X87834Y-45437D01*
X87825Y-45407D01*
X87815Y-45347D01*
X87815Y-45272D01*
X87825Y-45212D01*
X87834Y-45182D01*
X87844Y-45167D01*
X87862Y-45152D01*
X89858Y-46917D02*
X89858Y-47127D01*
X89811Y-46797D02*
X89764Y-47022D01*
X89886Y-47022D01*
X89961Y-47097D02*
X89970Y-47112D01*
X89961Y-47127D01*
X89952Y-47112D01*
X89961Y-47097D01*
X89961Y-47127D01*
X90036Y-46812D02*
X90167Y-46812D01*
X90083Y-47127D01*
X90242Y-47127D02*
X90242Y-46812D01*
X90355Y-47127D02*
X90270Y-46947D01*
X90355Y-46812D02*
X90242Y-46992D01*
X91714Y-42272D02*
X91714Y-42497D01*
X91705Y-42542D01*
X91686Y-42572D01*
X91658Y-42587D01*
X91639Y-42587D01*
X91911Y-42587D02*
X91798Y-42587D01*
X91854Y-42587D02*
X91854Y-42272D01*
X91836Y-42317D01*
X91817Y-42347D01*
X91798Y-42362D01*
X92013Y-41792D02*
X92013Y-42017D01*
X92004Y-42062D01*
X91985Y-42092D01*
X91957Y-42107D01*
X91938Y-42107D01*
X92098Y-42017D02*
X92191Y-42017D01*
X92079Y-42107D02*
X92145Y-41792D01*
X92210Y-42107D01*
X92388Y-42077D02*
X92379Y-42092D01*
X92351Y-42107D01*
X92332Y-42107D01*
X92304Y-42092D01*
X92285Y-42062D01*
X92276Y-42032D01*
X92266Y-41972D01*
X92266Y-41927D01*
X92276Y-41867D01*
X92285Y-41837D01*
X92304Y-41807D01*
X92332Y-41792D01*
X92351Y-41792D01*
X92379Y-41807D01*
X92388Y-41822D01*
X92473Y-42107D02*
X92473Y-41792D01*
X92585Y-42107D02*
X92501Y-41927D01*
X92585Y-41792D02*
X92473Y-41972D01*
X92623Y-42137D02*
X92773Y-42137D01*
X92791Y-41792D02*
X92904Y-41792D01*
X92848Y-42107D02*
X92848Y-41792D01*
X93082Y-42107D02*
X93016Y-41957D01*
X92970Y-42107D02*
X92970Y-41792D01*
X93045Y-41792D01*
X93063Y-41807D01*
X93073Y-41822D01*
X93082Y-41852D01*
X93082Y-41897D01*
X93073Y-41927D01*
X93063Y-41942D01*
X93045Y-41957D01*
X92970Y-41957D01*
X93157Y-42092D02*
X93185Y-42107D01*
X93232Y-42107D01*
X93251Y-42092D01*
X93260Y-42077D01*
X93269Y-42047D01*
X93269Y-42017D01*
X93260Y-41987D01*
X93251Y-41972D01*
X93232Y-41957D01*
X93194Y-41942D01*
X93176Y-41927D01*
X93166Y-41912D01*
X93157Y-41882D01*
X93157Y-41852D01*
X93166Y-41822D01*
X93176Y-41807D01*
X93194Y-41792D01*
X93241Y-41792D01*
X93269Y-41807D01*
X93307Y-42137D02*
X93457Y-42137D01*
X93588Y-41792D02*
X93551Y-41792D01*
X93532Y-41807D01*
X93523Y-41822D01*
X93504Y-41867D01*
X93494Y-41927D01*
X93494Y-42047D01*
X93504Y-42077D01*
X93513Y-42092D01*
X93532Y-42107D01*
X93569Y-42107D01*
X93588Y-42092D01*
X93598Y-42077D01*
X93607Y-42047D01*
X93607Y-41972D01*
X93598Y-41942D01*
X93588Y-41927D01*
X93569Y-41912D01*
X93532Y-41912D01*
X93513Y-41927D01*
X93504Y-41942D01*
X93494Y-41972D01*
X93691Y-42107D02*
X93691Y-41792D01*
X93766Y-41792D01*
X93785Y-41807D01*
X93794Y-41822D01*
X93804Y-41852D01*
X93804Y-41897D01*
X93794Y-41927D01*
X93785Y-41942D01*
X93766Y-41957D01*
X93691Y-41957D01*
X93888Y-42107D02*
X93888Y-41792D01*
X93982Y-42107D02*
X93982Y-41792D01*
X94094Y-42107D01*
X94094Y-41792D01*
X94179Y-42092D02*
X94207Y-42107D01*
X94254Y-42107D01*
X94272Y-42092D01*
X94282Y-42077D01*
X94291Y-42047D01*
X94291Y-42017D01*
X94282Y-41987D01*
X94272Y-41972D01*
X94254Y-41957D01*
X94216Y-41942D01*
X94197Y-41927D01*
X94188Y-41912D01*
X94179Y-41882D01*
X94179Y-41852D01*
X94188Y-41822D01*
X94197Y-41807D01*
X94216Y-41792D01*
X94263Y-41792D01*
X94291Y-41807D01*
X91406Y-42147D02*
X91556Y-41832D01*
X91434Y-41832D02*
X91453Y-41847D01*
X91462Y-41877D01*
X91453Y-41907D01*
X91434Y-41922D01*
X91415Y-41907D01*
X91406Y-41877D01*
X91415Y-41847D01*
X91434Y-41832D01*
X91547Y-42132D02*
X91556Y-42102D01*
X91547Y-42072D01*
X91528Y-42057D01*
X91509Y-42072D01*
X91500Y-42102D01*
X91509Y-42132D01*
X91528Y-42147D01*
X91547Y-42132D01*
X91753Y-42147D02*
X91687Y-41997D01*
X91640Y-42147D02*
X91640Y-41832D01*
X91715Y-41832D01*
X91734Y-41847D01*
X91744Y-41862D01*
X91753Y-41892D01*
X91753Y-41937D01*
X91744Y-41967D01*
X91734Y-41982D01*
X91715Y-41997D01*
X91640Y-41997D01*
X95632Y-54629D02*
X95887Y-54629D01*
X95917Y-54620D01*
X95932Y-54611D01*
X95947Y-54592D01*
X95947Y-54554D01*
X95932Y-54536D01*
X95917Y-54526D01*
X95887Y-54517D01*
X95632Y-54517D01*
X95632Y-54442D02*
X95632Y-54320D01*
X95752Y-54386D01*
X95752Y-54358D01*
X95767Y-54339D01*
X95782Y-54330D01*
X95812Y-54320D01*
X95887Y-54320D01*
X95917Y-54330D01*
X95932Y-54339D01*
X95947Y-54358D01*
X95947Y-54414D01*
X95932Y-54433D01*
X95917Y-54442D01*
X96347Y-54601D02*
X96032Y-54601D01*
X96347Y-54507D02*
X96032Y-54507D01*
X96032Y-54432D01*
X96047Y-54414D01*
X96062Y-54404D01*
X96092Y-54395D01*
X96137Y-54395D01*
X96167Y-54404D01*
X96182Y-54414D01*
X96197Y-54432D01*
X96197Y-54507D01*
X96332Y-54320D02*
X96347Y-54292D01*
X96347Y-54245D01*
X96332Y-54226D01*
X96317Y-54217D01*
X96287Y-54207D01*
X96257Y-54207D01*
X96227Y-54217D01*
X96212Y-54226D01*
X96197Y-54245D01*
X96182Y-54282D01*
X96167Y-54301D01*
X96152Y-54311D01*
X96122Y-54320D01*
X96092Y-54320D01*
X96062Y-54311D01*
X96047Y-54301D01*
X96032Y-54282D01*
X96032Y-54236D01*
X96047Y-54207D01*
X96377Y-54170D02*
X96377Y-54020D01*
X96062Y-53982D02*
X96047Y-53973D01*
X96032Y-53954D01*
X96032Y-53907D01*
X96047Y-53889D01*
X96062Y-53879D01*
X96092Y-53870D01*
X96122Y-53870D01*
X96167Y-53879D01*
X96347Y-53992D01*
X96347Y-53870D01*
X96317Y-53786D02*
X96332Y-53776D01*
X96347Y-53786D01*
X96332Y-53795D01*
X96317Y-53786D01*
X96347Y-53786D01*
X96137Y-53608D02*
X96347Y-53608D01*
X96017Y-53654D02*
X96242Y-53701D01*
X96242Y-53579D01*
X96377Y-53551D02*
X96377Y-53401D01*
X96062Y-53364D02*
X96047Y-53354D01*
X96032Y-53336D01*
X96032Y-53289D01*
X96047Y-53270D01*
X96062Y-53261D01*
X96092Y-53251D01*
X96122Y-53251D01*
X96167Y-53261D01*
X96347Y-53373D01*
X96347Y-53251D01*
X96137Y-53083D02*
X96347Y-53083D01*
X96017Y-53129D02*
X96242Y-53176D01*
X96242Y-53054D01*
X96032Y-52942D02*
X96032Y-52923D01*
X96047Y-52904D01*
X96062Y-52895D01*
X96092Y-52886D01*
X96152Y-52876D01*
X96227Y-52876D01*
X96287Y-52886D01*
X96317Y-52895D01*
X96332Y-52904D01*
X96347Y-52923D01*
X96347Y-52942D01*
X96332Y-52961D01*
X96317Y-52970D01*
X96287Y-52979D01*
X96227Y-52989D01*
X96152Y-52989D01*
X96092Y-52979D01*
X96062Y-52970D01*
X96047Y-52961D01*
X96032Y-52942D01*
X96347Y-52811D02*
X96137Y-52708D01*
X96137Y-52811D02*
X96347Y-52708D01*
X96032Y-52651D02*
X96032Y-52530D01*
X96152Y-52595D01*
X96152Y-52567D01*
X96167Y-52548D01*
X96182Y-52539D01*
X96212Y-52530D01*
X96287Y-52530D01*
X96317Y-52539D01*
X96332Y-52548D01*
X96347Y-52567D01*
X96347Y-52623D01*
X96332Y-52642D01*
X96317Y-52651D01*
X96062Y-52455D02*
X96047Y-52445D01*
X96032Y-52426D01*
X96032Y-52380D01*
X96047Y-52361D01*
X96062Y-52351D01*
X96092Y-52342D01*
X96122Y-52342D01*
X96167Y-52351D01*
X96347Y-52464D01*
X96347Y-52342D01*
X96032Y-52220D02*
X96032Y-52201D01*
X96047Y-52183D01*
X96062Y-52173D01*
X96092Y-52164D01*
X96152Y-52155D01*
X96227Y-52155D01*
X96287Y-52164D01*
X96317Y-52173D01*
X96332Y-52183D01*
X96347Y-52201D01*
X96347Y-52220D01*
X96332Y-52239D01*
X96317Y-52248D01*
X96287Y-52258D01*
X96227Y-52267D01*
X96152Y-52267D01*
X96092Y-52258D01*
X96062Y-52248D01*
X96047Y-52239D01*
X96032Y-52220D01*
X96377Y-52117D02*
X96377Y-51967D01*
X96332Y-51930D02*
X96347Y-51901D01*
X96347Y-51855D01*
X96332Y-51836D01*
X96317Y-51826D01*
X96287Y-51817D01*
X96257Y-51817D01*
X96227Y-51826D01*
X96212Y-51836D01*
X96197Y-51855D01*
X96182Y-51892D01*
X96167Y-51911D01*
X96152Y-51920D01*
X96122Y-51930D01*
X96092Y-51930D01*
X96062Y-51920D01*
X96047Y-51911D01*
X96032Y-51892D01*
X96032Y-51845D01*
X96047Y-51817D01*
X96032Y-51761D02*
X96032Y-51648D01*
X96347Y-51705D02*
X96032Y-51705D01*
X96032Y-51602D02*
X96032Y-51470D01*
X96347Y-51555D01*
X96032Y-51414D02*
X96032Y-51283D01*
X96347Y-51367D01*
X96167Y-51180D02*
X96152Y-51198D01*
X96137Y-51208D01*
X96107Y-51217D01*
X96092Y-51217D01*
X96062Y-51208D01*
X96047Y-51198D01*
X96032Y-51180D01*
X96032Y-51142D01*
X96047Y-51123D01*
X96062Y-51114D01*
X96092Y-51105D01*
X96107Y-51105D01*
X96137Y-51114D01*
X96152Y-51123D01*
X96167Y-51142D01*
X96167Y-51180D01*
X96182Y-51198D01*
X96197Y-51208D01*
X96227Y-51217D01*
X96287Y-51217D01*
X96317Y-51208D01*
X96332Y-51198D01*
X96347Y-51180D01*
X96347Y-51142D01*
X96332Y-51123D01*
X96317Y-51114D01*
X96287Y-51105D01*
X96227Y-51105D01*
X96197Y-51114D01*
X96182Y-51123D01*
X96167Y-51142D01*
X96347Y-51011D02*
X96347Y-50973D01*
X96332Y-50955D01*
X96317Y-50945D01*
X96272Y-50927D01*
X96212Y-50917D01*
X96092Y-50917D01*
X96062Y-50927D01*
X96047Y-50936D01*
X96032Y-50955D01*
X96032Y-50992D01*
X96047Y-51011D01*
X96062Y-51020D01*
X96092Y-51030D01*
X96167Y-51030D01*
X96197Y-51020D01*
X96212Y-51011D01*
X96227Y-50992D01*
X96227Y-50955D01*
X96212Y-50936D01*
X96197Y-50927D01*
X96167Y-50917D01*
X96032Y-50861D02*
X96347Y-50795D01*
X96032Y-50730D01*
X86767Y-57813D02*
X86757Y-57828D01*
X86729Y-57843D01*
X86710Y-57843D01*
X86682Y-57828D01*
X86664Y-57798D01*
X86654Y-57768D01*
X86645Y-57708D01*
X86645Y-57663D01*
X86654Y-57603D01*
X86664Y-57573D01*
X86682Y-57543D01*
X86710Y-57528D01*
X86729Y-57528D01*
X86757Y-57543D01*
X86767Y-57558D01*
X86832Y-57528D02*
X86964Y-57528D01*
X86879Y-57843D01*
X85827Y-57572D02*
X85837Y-57557D01*
X85855Y-57542D01*
X85902Y-57542D01*
X85921Y-57557D01*
X85930Y-57572D01*
X85940Y-57602D01*
X85940Y-57632D01*
X85930Y-57677D01*
X85818Y-57857D01*
X85940Y-57857D01*
X86024Y-57827D02*
X86033Y-57842D01*
X86024Y-57857D01*
X86015Y-57842D01*
X86024Y-57827D01*
X86024Y-57857D01*
X86108Y-57572D02*
X86118Y-57557D01*
X86137Y-57542D01*
X86183Y-57542D01*
X86202Y-57557D01*
X86212Y-57572D01*
X86221Y-57602D01*
X86221Y-57632D01*
X86212Y-57677D01*
X86099Y-57857D01*
X86221Y-57857D01*
X86305Y-57647D02*
X86305Y-57857D01*
X86305Y-57677D02*
X86315Y-57662D01*
X86333Y-57647D01*
X86362Y-57647D01*
X86380Y-57662D01*
X86390Y-57692D01*
X86390Y-57857D01*
X86549Y-57692D02*
X86483Y-57692D01*
X86483Y-57857D02*
X86483Y-57542D01*
X86577Y-57542D01*
X90967Y-56837D02*
X90957Y-56852D01*
X90929Y-56867D01*
X90910Y-56867D01*
X90882Y-56852D01*
X90864Y-56822D01*
X90854Y-56792D01*
X90845Y-56732D01*
X90845Y-56687D01*
X90854Y-56627D01*
X90864Y-56597D01*
X90882Y-56567D01*
X90910Y-56552D01*
X90929Y-56552D01*
X90957Y-56567D01*
X90967Y-56582D01*
X91135Y-56552D02*
X91098Y-56552D01*
X91079Y-56567D01*
X91070Y-56582D01*
X91051Y-56627D01*
X91042Y-56687D01*
X91042Y-56807D01*
X91051Y-56837D01*
X91060Y-56852D01*
X91079Y-56867D01*
X91117Y-56867D01*
X91135Y-56852D01*
X91145Y-56837D01*
X91154Y-56807D01*
X91154Y-56732D01*
X91145Y-56702D01*
X91135Y-56687D01*
X91117Y-56672D01*
X91079Y-56672D01*
X91060Y-56687D01*
X91051Y-56702D01*
X91042Y-56732D01*
X90036Y-56532D02*
X90055Y-56532D01*
X90074Y-56547D01*
X90083Y-56562D01*
X90092Y-56592D01*
X90102Y-56652D01*
X90102Y-56727D01*
X90092Y-56787D01*
X90083Y-56817D01*
X90074Y-56832D01*
X90055Y-56847D01*
X90036Y-56847D01*
X90017Y-56832D01*
X90008Y-56817D01*
X89999Y-56787D01*
X89989Y-56727D01*
X89989Y-56652D01*
X89999Y-56592D01*
X90008Y-56562D01*
X90017Y-56547D01*
X90036Y-56532D01*
X90186Y-56817D02*
X90195Y-56832D01*
X90186Y-56847D01*
X90177Y-56832D01*
X90186Y-56817D01*
X90186Y-56847D01*
X90383Y-56847D02*
X90270Y-56847D01*
X90327Y-56847D02*
X90327Y-56532D01*
X90308Y-56577D01*
X90289Y-56607D01*
X90270Y-56622D01*
X90552Y-56637D02*
X90552Y-56847D01*
X90467Y-56637D02*
X90467Y-56802D01*
X90477Y-56832D01*
X90495Y-56847D01*
X90524Y-56847D01*
X90542Y-56832D01*
X90552Y-56817D01*
X90711Y-56682D02*
X90645Y-56682D01*
X90645Y-56847D02*
X90645Y-56532D01*
X90739Y-56532D01*
X92585Y-56853D02*
X92575Y-56868D01*
X92547Y-56883D01*
X92528Y-56883D01*
X92500Y-56868D01*
X92482Y-56838D01*
X92472Y-56808D01*
X92463Y-56748D01*
X92463Y-56703D01*
X92472Y-56643D01*
X92482Y-56613D01*
X92500Y-56583D01*
X92528Y-56568D01*
X92547Y-56568D01*
X92575Y-56583D01*
X92585Y-56598D01*
X92660Y-56598D02*
X92669Y-56583D01*
X92688Y-56568D01*
X92735Y-56568D01*
X92753Y-56583D01*
X92763Y-56598D01*
X92772Y-56628D01*
X92772Y-56658D01*
X92763Y-56703D01*
X92650Y-56883D01*
X92772Y-56883D01*
X91539Y-56598D02*
X91549Y-56583D01*
X91567Y-56568D01*
X91614Y-56568D01*
X91633Y-56583D01*
X91642Y-56598D01*
X91652Y-56628D01*
X91652Y-56658D01*
X91642Y-56703D01*
X91530Y-56883D01*
X91652Y-56883D01*
X91736Y-56853D02*
X91745Y-56868D01*
X91736Y-56883D01*
X91727Y-56868D01*
X91736Y-56853D01*
X91736Y-56883D01*
X91820Y-56598D02*
X91830Y-56583D01*
X91849Y-56568D01*
X91895Y-56568D01*
X91914Y-56583D01*
X91924Y-56598D01*
X91933Y-56628D01*
X91933Y-56658D01*
X91924Y-56703D01*
X91811Y-56883D01*
X91933Y-56883D01*
X92102Y-56673D02*
X92102Y-56883D01*
X92017Y-56673D02*
X92017Y-56838D01*
X92027Y-56868D01*
X92045Y-56883D01*
X92074Y-56883D01*
X92092Y-56868D01*
X92102Y-56853D01*
X92261Y-56718D02*
X92195Y-56718D01*
X92195Y-56883D02*
X92195Y-56568D01*
X92289Y-56568D01*
X94097Y-56895D02*
X94087Y-56910D01*
X94059Y-56925D01*
X94040Y-56925D01*
X94012Y-56910D01*
X93994Y-56880D01*
X93984Y-56850D01*
X93975Y-56790D01*
X93975Y-56745D01*
X93984Y-56685D01*
X93994Y-56655D01*
X94012Y-56625D01*
X94040Y-56610D01*
X94059Y-56610D01*
X94087Y-56625D01*
X94097Y-56640D01*
X94162Y-56610D02*
X94284Y-56610D01*
X94219Y-56730D01*
X94247Y-56730D01*
X94265Y-56745D01*
X94275Y-56760D01*
X94284Y-56790D01*
X94284Y-56865D01*
X94275Y-56895D01*
X94265Y-56910D01*
X94247Y-56925D01*
X94190Y-56925D01*
X94172Y-56910D01*
X94162Y-56895D01*
X93079Y-56662D02*
X93089Y-56647D01*
X93107Y-56632D01*
X93154Y-56632D01*
X93173Y-56647D01*
X93182Y-56662D01*
X93192Y-56692D01*
X93192Y-56722D01*
X93182Y-56767D01*
X93070Y-56947D01*
X93192Y-56947D01*
X93276Y-56917D02*
X93285Y-56932D01*
X93276Y-56947D01*
X93267Y-56932D01*
X93276Y-56917D01*
X93276Y-56947D01*
X93360Y-56662D02*
X93370Y-56647D01*
X93389Y-56632D01*
X93435Y-56632D01*
X93454Y-56647D01*
X93464Y-56662D01*
X93473Y-56692D01*
X93473Y-56722D01*
X93464Y-56767D01*
X93351Y-56947D01*
X93473Y-56947D01*
X93642Y-56737D02*
X93642Y-56947D01*
X93557Y-56737D02*
X93557Y-56902D01*
X93567Y-56932D01*
X93585Y-56947D01*
X93614Y-56947D01*
X93632Y-56932D01*
X93642Y-56917D01*
X93801Y-56782D02*
X93735Y-56782D01*
X93735Y-56947D02*
X93735Y-56632D01*
X93829Y-56632D01*
X88195Y-58177D02*
X88185Y-58192D01*
X88157Y-58207D01*
X88138Y-58207D01*
X88110Y-58192D01*
X88092Y-58162D01*
X88082Y-58132D01*
X88073Y-58072D01*
X88073Y-58027D01*
X88082Y-57967D01*
X88092Y-57937D01*
X88110Y-57907D01*
X88138Y-57892D01*
X88157Y-57892D01*
X88185Y-57907D01*
X88195Y-57922D01*
X88307Y-58027D02*
X88288Y-58012D01*
X88279Y-57997D01*
X88270Y-57967D01*
X88270Y-57952D01*
X88279Y-57922D01*
X88288Y-57907D01*
X88307Y-57892D01*
X88345Y-57892D01*
X88363Y-57907D01*
X88373Y-57922D01*
X88382Y-57952D01*
X88382Y-57967D01*
X88373Y-57997D01*
X88363Y-58012D01*
X88345Y-58027D01*
X88307Y-58027D01*
X88288Y-58042D01*
X88279Y-58057D01*
X88270Y-58087D01*
X88270Y-58147D01*
X88279Y-58177D01*
X88288Y-58192D01*
X88307Y-58207D01*
X88345Y-58207D01*
X88363Y-58192D01*
X88373Y-58177D01*
X88382Y-58147D01*
X88382Y-58087D01*
X88373Y-58057D01*
X88363Y-58042D01*
X88345Y-58027D01*
X87003Y-57900D02*
X87013Y-57885D01*
X87031Y-57870D01*
X87078Y-57870D01*
X87097Y-57885D01*
X87106Y-57900D01*
X87116Y-57930D01*
X87116Y-57960D01*
X87106Y-58005D01*
X86994Y-58185D01*
X87116Y-58185D01*
X87200Y-58155D02*
X87209Y-58170D01*
X87200Y-58185D01*
X87191Y-58170D01*
X87200Y-58155D01*
X87200Y-58185D01*
X87284Y-57900D02*
X87294Y-57885D01*
X87313Y-57870D01*
X87359Y-57870D01*
X87378Y-57885D01*
X87388Y-57900D01*
X87397Y-57930D01*
X87397Y-57960D01*
X87388Y-58005D01*
X87275Y-58185D01*
X87397Y-58185D01*
X87481Y-57975D02*
X87481Y-58185D01*
X87481Y-58005D02*
X87491Y-57990D01*
X87509Y-57975D01*
X87538Y-57975D01*
X87556Y-57990D01*
X87566Y-58020D01*
X87566Y-58185D01*
X87725Y-58020D02*
X87659Y-58020D01*
X87659Y-58185D02*
X87659Y-57870D01*
X87753Y-57870D01*
X94047Y-53477D02*
X94037Y-53492D01*
X94009Y-53507D01*
X93990Y-53507D01*
X93962Y-53492D01*
X93944Y-53462D01*
X93934Y-53432D01*
X93925Y-53372D01*
X93925Y-53327D01*
X93934Y-53267D01*
X93944Y-53237D01*
X93962Y-53207D01*
X93990Y-53192D01*
X94009Y-53192D01*
X94037Y-53207D01*
X94047Y-53222D01*
X94234Y-53507D02*
X94122Y-53507D01*
X94178Y-53507D02*
X94178Y-53192D01*
X94159Y-53237D01*
X94140Y-53267D01*
X94122Y-53282D01*
X93209Y-53507D02*
X93096Y-53507D01*
X93152Y-53507D02*
X93152Y-53192D01*
X93134Y-53237D01*
X93115Y-53267D01*
X93096Y-53282D01*
X93330Y-53192D02*
X93349Y-53192D01*
X93368Y-53207D01*
X93377Y-53222D01*
X93387Y-53252D01*
X93396Y-53312D01*
X93396Y-53387D01*
X93387Y-53447D01*
X93377Y-53477D01*
X93368Y-53492D01*
X93349Y-53507D01*
X93330Y-53507D01*
X93312Y-53492D01*
X93302Y-53477D01*
X93293Y-53447D01*
X93284Y-53387D01*
X93284Y-53312D01*
X93293Y-53252D01*
X93302Y-53222D01*
X93312Y-53207D01*
X93330Y-53192D01*
X93565Y-53297D02*
X93565Y-53507D01*
X93480Y-53297D02*
X93480Y-53462D01*
X93490Y-53492D01*
X93509Y-53507D01*
X93537Y-53507D01*
X93555Y-53492D01*
X93565Y-53477D01*
X93724Y-53342D02*
X93659Y-53342D01*
X93659Y-53507D02*
X93659Y-53192D01*
X93752Y-53192D01*
X94201Y-55047D02*
X94191Y-55062D01*
X94163Y-55077D01*
X94144Y-55077D01*
X94116Y-55062D01*
X94098Y-55032D01*
X94088Y-55002D01*
X94079Y-54942D01*
X94079Y-54897D01*
X94088Y-54837D01*
X94098Y-54807D01*
X94116Y-54777D01*
X94144Y-54762D01*
X94163Y-54762D01*
X94191Y-54777D01*
X94201Y-54792D01*
X94369Y-54867D02*
X94369Y-55077D01*
X94323Y-54747D02*
X94276Y-54972D01*
X94398Y-54972D01*
X93154Y-54756D02*
X93173Y-54756D01*
X93192Y-54771D01*
X93201Y-54786D01*
X93210Y-54816D01*
X93220Y-54876D01*
X93220Y-54951D01*
X93210Y-55011D01*
X93201Y-55041D01*
X93192Y-55056D01*
X93173Y-55071D01*
X93154Y-55071D01*
X93135Y-55056D01*
X93126Y-55041D01*
X93117Y-55011D01*
X93107Y-54951D01*
X93107Y-54876D01*
X93117Y-54816D01*
X93126Y-54786D01*
X93135Y-54771D01*
X93154Y-54756D01*
X93304Y-55041D02*
X93313Y-55056D01*
X93304Y-55071D01*
X93295Y-55056D01*
X93304Y-55041D01*
X93304Y-55071D01*
X93501Y-55071D02*
X93388Y-55071D01*
X93445Y-55071D02*
X93445Y-54756D01*
X93426Y-54801D01*
X93407Y-54831D01*
X93388Y-54846D01*
X93670Y-54861D02*
X93670Y-55071D01*
X93585Y-54861D02*
X93585Y-55026D01*
X93595Y-55056D01*
X93613Y-55071D01*
X93642Y-55071D01*
X93660Y-55056D01*
X93670Y-55041D01*
X93829Y-54906D02*
X93763Y-54906D01*
X93763Y-55071D02*
X93763Y-54756D01*
X93857Y-54756D01*
X87465Y-56126D02*
X87480Y-56135D01*
X87495Y-56164D01*
X87495Y-56182D01*
X87480Y-56210D01*
X87450Y-56229D01*
X87420Y-56239D01*
X87360Y-56248D01*
X87315Y-56248D01*
X87255Y-56239D01*
X87225Y-56229D01*
X87195Y-56210D01*
X87180Y-56182D01*
X87180Y-56164D01*
X87195Y-56135D01*
X87210Y-56126D01*
X87495Y-55939D02*
X87495Y-56051D01*
X87495Y-55995D02*
X87180Y-55995D01*
X87225Y-56014D01*
X87255Y-56032D01*
X87270Y-56051D01*
X87180Y-55817D02*
X87180Y-55798D01*
X87195Y-55779D01*
X87210Y-55770D01*
X87240Y-55760D01*
X87300Y-55751D01*
X87375Y-55751D01*
X87435Y-55760D01*
X87465Y-55770D01*
X87480Y-55779D01*
X87495Y-55798D01*
X87495Y-55817D01*
X87480Y-55835D01*
X87465Y-55845D01*
X87435Y-55854D01*
X87375Y-55864D01*
X87300Y-55864D01*
X87240Y-55854D01*
X87210Y-55845D01*
X87195Y-55835D01*
X87180Y-55817D01*
X87158Y-57101D02*
X87158Y-57082D01*
X87173Y-57063D01*
X87188Y-57054D01*
X87218Y-57045D01*
X87278Y-57035D01*
X87353Y-57035D01*
X87413Y-57045D01*
X87443Y-57054D01*
X87458Y-57063D01*
X87473Y-57082D01*
X87473Y-57101D01*
X87458Y-57120D01*
X87443Y-57129D01*
X87413Y-57138D01*
X87353Y-57148D01*
X87278Y-57148D01*
X87218Y-57138D01*
X87188Y-57129D01*
X87173Y-57120D01*
X87158Y-57101D01*
X87443Y-56951D02*
X87458Y-56942D01*
X87473Y-56951D01*
X87458Y-56960D01*
X87443Y-56951D01*
X87473Y-56951D01*
X87473Y-56754D02*
X87473Y-56867D01*
X87473Y-56810D02*
X87158Y-56810D01*
X87203Y-56829D01*
X87233Y-56848D01*
X87248Y-56867D01*
X87263Y-56585D02*
X87473Y-56585D01*
X87263Y-56670D02*
X87428Y-56670D01*
X87458Y-56660D01*
X87473Y-56642D01*
X87473Y-56613D01*
X87458Y-56595D01*
X87443Y-56585D01*
X87308Y-56426D02*
X87308Y-56492D01*
X87473Y-56492D02*
X87158Y-56492D01*
X87158Y-56398D01*
X89467Y-56937D02*
X89457Y-56952D01*
X89429Y-56967D01*
X89410Y-56967D01*
X89382Y-56952D01*
X89364Y-56922D01*
X89354Y-56892D01*
X89345Y-56832D01*
X89345Y-56787D01*
X89354Y-56727D01*
X89364Y-56697D01*
X89382Y-56667D01*
X89410Y-56652D01*
X89429Y-56652D01*
X89457Y-56667D01*
X89467Y-56682D01*
X89560Y-56967D02*
X89598Y-56967D01*
X89617Y-56952D01*
X89626Y-56937D01*
X89645Y-56892D01*
X89654Y-56832D01*
X89654Y-56712D01*
X89645Y-56682D01*
X89635Y-56667D01*
X89617Y-56652D01*
X89579Y-56652D01*
X89560Y-56667D01*
X89551Y-56682D01*
X89542Y-56712D01*
X89542Y-56787D01*
X89551Y-56817D01*
X89560Y-56832D01*
X89579Y-56847D01*
X89617Y-56847D01*
X89635Y-56832D01*
X89645Y-56817D01*
X89654Y-56787D01*
X88496Y-56652D02*
X88515Y-56652D01*
X88534Y-56667D01*
X88543Y-56682D01*
X88552Y-56712D01*
X88562Y-56772D01*
X88562Y-56847D01*
X88552Y-56907D01*
X88543Y-56937D01*
X88534Y-56952D01*
X88515Y-56967D01*
X88496Y-56967D01*
X88477Y-56952D01*
X88468Y-56937D01*
X88459Y-56907D01*
X88449Y-56847D01*
X88449Y-56772D01*
X88459Y-56712D01*
X88468Y-56682D01*
X88477Y-56667D01*
X88496Y-56652D01*
X88646Y-56937D02*
X88655Y-56952D01*
X88646Y-56967D01*
X88637Y-56952D01*
X88646Y-56937D01*
X88646Y-56967D01*
X88843Y-56967D02*
X88730Y-56967D01*
X88787Y-56967D02*
X88787Y-56652D01*
X88768Y-56697D01*
X88749Y-56727D01*
X88730Y-56742D01*
X89012Y-56757D02*
X89012Y-56967D01*
X88927Y-56757D02*
X88927Y-56922D01*
X88937Y-56952D01*
X88955Y-56967D01*
X88984Y-56967D01*
X89002Y-56952D01*
X89012Y-56937D01*
X89171Y-56802D02*
X89105Y-56802D01*
X89105Y-56967D02*
X89105Y-56652D01*
X89199Y-56652D01*
X102367Y-53617D02*
X102357Y-53632D01*
X102329Y-53647D01*
X102310Y-53647D01*
X102282Y-53632D01*
X102264Y-53602D01*
X102254Y-53572D01*
X102245Y-53512D01*
X102245Y-53467D01*
X102254Y-53407D01*
X102264Y-53377D01*
X102282Y-53347D01*
X102310Y-53332D01*
X102329Y-53332D01*
X102357Y-53347D01*
X102367Y-53362D01*
X102545Y-53332D02*
X102451Y-53332D01*
X102442Y-53482D01*
X102451Y-53467D01*
X102470Y-53452D01*
X102517Y-53452D01*
X102535Y-53467D01*
X102545Y-53482D01*
X102554Y-53512D01*
X102554Y-53587D01*
X102545Y-53617D01*
X102535Y-53632D01*
X102517Y-53647D01*
X102470Y-53647D01*
X102451Y-53632D01*
X102442Y-53617D01*
X101376Y-53312D02*
X101395Y-53312D01*
X101414Y-53327D01*
X101423Y-53342D01*
X101432Y-53372D01*
X101442Y-53432D01*
X101442Y-53507D01*
X101432Y-53567D01*
X101423Y-53597D01*
X101414Y-53612D01*
X101395Y-53627D01*
X101376Y-53627D01*
X101357Y-53612D01*
X101348Y-53597D01*
X101339Y-53567D01*
X101329Y-53507D01*
X101329Y-53432D01*
X101339Y-53372D01*
X101348Y-53342D01*
X101357Y-53327D01*
X101376Y-53312D01*
X101526Y-53597D02*
X101535Y-53612D01*
X101526Y-53627D01*
X101517Y-53612D01*
X101526Y-53597D01*
X101526Y-53627D01*
X101723Y-53627D02*
X101610Y-53627D01*
X101667Y-53627D02*
X101667Y-53312D01*
X101648Y-53357D01*
X101629Y-53387D01*
X101610Y-53402D01*
X101892Y-53417D02*
X101892Y-53627D01*
X101807Y-53417D02*
X101807Y-53582D01*
X101817Y-53612D01*
X101835Y-53627D01*
X101864Y-53627D01*
X101882Y-53612D01*
X101892Y-53597D01*
X102051Y-53462D02*
X101985Y-53462D01*
X101985Y-53627D02*
X101985Y-53312D01*
X102079Y-53312D01*
X110013Y-57527D02*
X109919Y-57527D01*
X109919Y-57212D01*
X110069Y-57512D02*
X110097Y-57527D01*
X110144Y-57527D01*
X110163Y-57512D01*
X110172Y-57497D01*
X110182Y-57467D01*
X110182Y-57437D01*
X110172Y-57407D01*
X110163Y-57392D01*
X110144Y-57377D01*
X110107Y-57362D01*
X110088Y-57347D01*
X110079Y-57332D01*
X110069Y-57302D01*
X110069Y-57272D01*
X110079Y-57242D01*
X110088Y-57227D01*
X110107Y-57212D01*
X110154Y-57212D01*
X110182Y-57227D01*
X110257Y-57242D02*
X110266Y-57227D01*
X110285Y-57212D01*
X110332Y-57212D01*
X110350Y-57227D01*
X110360Y-57242D01*
X110369Y-57272D01*
X110369Y-57302D01*
X110360Y-57347D01*
X110247Y-57527D01*
X110369Y-57527D01*
X85193Y-57547D02*
X85099Y-57547D01*
X85099Y-57232D01*
X85249Y-57532D02*
X85277Y-57547D01*
X85324Y-57547D01*
X85343Y-57532D01*
X85352Y-57517D01*
X85362Y-57487D01*
X85362Y-57457D01*
X85352Y-57427D01*
X85343Y-57412D01*
X85324Y-57397D01*
X85287Y-57382D01*
X85268Y-57367D01*
X85259Y-57352D01*
X85249Y-57322D01*
X85249Y-57292D01*
X85259Y-57262D01*
X85268Y-57247D01*
X85287Y-57232D01*
X85334Y-57232D01*
X85362Y-57247D01*
X85549Y-57547D02*
X85437Y-57547D01*
X85493Y-57547D02*
X85493Y-57232D01*
X85474Y-57277D01*
X85455Y-57307D01*
X85437Y-57322D01*
X89777Y-46652D02*
X89805Y-46667D01*
X89852Y-46667D01*
X89871Y-46652D01*
X89880Y-46637D01*
X89890Y-46607D01*
X89890Y-46577D01*
X89880Y-46547D01*
X89871Y-46532D01*
X89852Y-46517D01*
X89815Y-46502D01*
X89796Y-46487D01*
X89786Y-46472D01*
X89777Y-46442D01*
X89777Y-46412D01*
X89786Y-46382D01*
X89796Y-46367D01*
X89815Y-46352D01*
X89861Y-46352D01*
X89890Y-46367D01*
X89955Y-46352D02*
X90002Y-46667D01*
X90040Y-46442D01*
X90077Y-46667D01*
X90124Y-46352D01*
X90208Y-46667D02*
X90246Y-46667D01*
X90264Y-46652D01*
X90274Y-46637D01*
X90293Y-46592D01*
X90302Y-46532D01*
X90302Y-46412D01*
X90293Y-46382D01*
X90283Y-46367D01*
X90264Y-46352D01*
X90227Y-46352D01*
X90208Y-46367D01*
X90199Y-46382D01*
X90189Y-46412D01*
X90189Y-46487D01*
X90199Y-46517D01*
X90208Y-46532D01*
X90227Y-46547D01*
X90264Y-46547D01*
X90283Y-46532D01*
X90293Y-46517D01*
X90302Y-46487D01*
X87240Y-45487D02*
X87147Y-45487D01*
X87147Y-45172D01*
X107023Y-45532D02*
X107051Y-45547D01*
X107098Y-45547D01*
X107117Y-45532D01*
X107126Y-45517D01*
X107136Y-45487D01*
X107136Y-45457D01*
X107126Y-45427D01*
X107117Y-45412D01*
X107098Y-45397D01*
X107061Y-45382D01*
X107042Y-45367D01*
X107033Y-45352D01*
X107023Y-45322D01*
X107023Y-45292D01*
X107033Y-45262D01*
X107042Y-45247D01*
X107061Y-45232D01*
X107108Y-45232D01*
X107136Y-45247D01*
X107201Y-45232D02*
X107248Y-45547D01*
X107286Y-45322D01*
X107323Y-45547D01*
X107370Y-45232D01*
X107548Y-45547D02*
X107436Y-45547D01*
X107492Y-45547D02*
X107492Y-45232D01*
X107473Y-45277D01*
X107454Y-45307D01*
X107436Y-45322D01*
X107670Y-45232D02*
X107689Y-45232D01*
X107708Y-45247D01*
X107717Y-45262D01*
X107726Y-45292D01*
X107736Y-45352D01*
X107736Y-45427D01*
X107726Y-45487D01*
X107717Y-45517D01*
X107708Y-45532D01*
X107689Y-45547D01*
X107670Y-45547D01*
X107651Y-45532D01*
X107642Y-45517D01*
X107633Y-45487D01*
X107623Y-45427D01*
X107623Y-45352D01*
X107633Y-45292D01*
X107642Y-45262D01*
X107651Y-45247D01*
X107670Y-45232D01*
X106780Y-45507D02*
X106715Y-45357D01*
X106668Y-45507D02*
X106668Y-45192D01*
X106743Y-45192D01*
X106762Y-45207D01*
X106771Y-45222D01*
X106780Y-45252D01*
X106780Y-45297D01*
X106771Y-45327D01*
X106762Y-45342D01*
X106743Y-45357D01*
X106668Y-45357D01*
X85072Y-54209D02*
X85327Y-54209D01*
X85357Y-54200D01*
X85372Y-54191D01*
X85387Y-54172D01*
X85387Y-54134D01*
X85372Y-54116D01*
X85357Y-54106D01*
X85327Y-54097D01*
X85072Y-54097D01*
X85072Y-53919D02*
X85072Y-53956D01*
X85087Y-53975D01*
X85102Y-53985D01*
X85147Y-54003D01*
X85207Y-54013D01*
X85327Y-54013D01*
X85357Y-54003D01*
X85372Y-53994D01*
X85387Y-53975D01*
X85387Y-53938D01*
X85372Y-53919D01*
X85357Y-53910D01*
X85327Y-53900D01*
X85252Y-53900D01*
X85222Y-53910D01*
X85207Y-53919D01*
X85192Y-53938D01*
X85192Y-53975D01*
X85207Y-53994D01*
X85222Y-54003D01*
X85252Y-54013D01*
X85757Y-54126D02*
X85772Y-54135D01*
X85787Y-54163D01*
X85787Y-54182D01*
X85772Y-54210D01*
X85742Y-54229D01*
X85712Y-54238D01*
X85652Y-54248D01*
X85607Y-54248D01*
X85547Y-54238D01*
X85517Y-54229D01*
X85487Y-54210D01*
X85472Y-54182D01*
X85472Y-54163D01*
X85487Y-54135D01*
X85502Y-54126D01*
X85472Y-54004D02*
X85472Y-53966D01*
X85487Y-53948D01*
X85517Y-53929D01*
X85577Y-53919D01*
X85682Y-53919D01*
X85742Y-53929D01*
X85772Y-53948D01*
X85787Y-53966D01*
X85787Y-54004D01*
X85772Y-54023D01*
X85742Y-54041D01*
X85682Y-54051D01*
X85577Y-54051D01*
X85517Y-54041D01*
X85487Y-54023D01*
X85472Y-54004D01*
X85787Y-53835D02*
X85472Y-53835D01*
X85787Y-53723D01*
X85472Y-53723D01*
X85787Y-53629D02*
X85472Y-53629D01*
X85787Y-53516D01*
X85472Y-53516D01*
X85667Y-53423D02*
X85667Y-53273D01*
X85472Y-53198D02*
X85472Y-53076D01*
X85592Y-53141D01*
X85592Y-53113D01*
X85607Y-53095D01*
X85622Y-53085D01*
X85652Y-53076D01*
X85727Y-53076D01*
X85757Y-53085D01*
X85772Y-53095D01*
X85787Y-53113D01*
X85787Y-53170D01*
X85772Y-53188D01*
X85757Y-53198D01*
X85607Y-52963D02*
X85592Y-52982D01*
X85577Y-52991D01*
X85547Y-53001D01*
X85532Y-53001D01*
X85502Y-52991D01*
X85487Y-52982D01*
X85472Y-52963D01*
X85472Y-52926D01*
X85487Y-52907D01*
X85502Y-52898D01*
X85532Y-52888D01*
X85547Y-52888D01*
X85577Y-52898D01*
X85592Y-52907D01*
X85607Y-52926D01*
X85607Y-52963D01*
X85622Y-52982D01*
X85637Y-52991D01*
X85667Y-53001D01*
X85727Y-53001D01*
X85757Y-52991D01*
X85772Y-52982D01*
X85787Y-52963D01*
X85787Y-52926D01*
X85772Y-52907D01*
X85757Y-52898D01*
X85727Y-52888D01*
X85667Y-52888D01*
X85637Y-52898D01*
X85622Y-52907D01*
X85607Y-52926D01*
X85787Y-52804D02*
X85472Y-52804D01*
X85472Y-52729D01*
X85487Y-52710D01*
X85502Y-52701D01*
X85532Y-52691D01*
X85577Y-52691D01*
X85607Y-52701D01*
X85622Y-52710D01*
X85637Y-52729D01*
X85637Y-52804D01*
X85787Y-52607D02*
X85472Y-52607D01*
X85787Y-52513D02*
X85472Y-52513D01*
X85787Y-52401D01*
X85472Y-52401D01*
M02*
