G04 (created by PCBNEW (22-Jun-2014 BZR 4027)-stable) date Wed 02 May 2018 01:52:57 PM CST*
%MOIN*%
G04 Gerber Fmt 3.4, Leading zero omitted, Abs format*
%FSLAX34Y34*%
G01*
G70*
G90*
G04 APERTURE LIST*
%ADD10C,0.00393701*%
%ADD11C,0.0590551*%
%ADD12C,0.0610236*%
%ADD13C,0.023622*%
%ADD14C,0.00708661*%
%ADD15C,0.01*%
G04 APERTURE END LIST*
G54D10*
G54D11*
X92512Y-42917D03*
X92512Y-45280D03*
G54D12*
X87462Y-46014D03*
X88662Y-46014D03*
X88062Y-46914D03*
X106962Y-46014D03*
X108162Y-46014D03*
X107562Y-46914D03*
G54D13*
X95758Y-45902D03*
X97900Y-55350D03*
X97200Y-55350D03*
X97896Y-49042D03*
X95730Y-49056D03*
X86300Y-52580D03*
X86820Y-52580D03*
X87820Y-54200D03*
X87820Y-55460D03*
X94200Y-55980D03*
X89460Y-55980D03*
X90380Y-55980D03*
X101150Y-55720D03*
X101160Y-57720D03*
X102900Y-55220D03*
X86200Y-54108D03*
X99460Y-55240D03*
X86474Y-53896D03*
X88230Y-54526D03*
X92712Y-53902D03*
X92706Y-46062D03*
X92040Y-53800D03*
X92060Y-46780D03*
X91780Y-47900D03*
X85820Y-55860D03*
X85800Y-55540D03*
X85160Y-55540D03*
X97576Y-44388D03*
X91888Y-43898D03*
X93450Y-54162D03*
X91582Y-54454D03*
X92960Y-53640D03*
G54D14*
X95760Y-49056D02*
X95760Y-45904D01*
X95760Y-45904D02*
X95758Y-45902D01*
X97200Y-55350D02*
X97900Y-55350D01*
X97896Y-49042D02*
X97882Y-49056D01*
X97882Y-49056D02*
X95760Y-49056D01*
X95760Y-49056D02*
X95730Y-49056D01*
X86820Y-52580D02*
X86300Y-52580D01*
X87820Y-54200D02*
X86880Y-54200D01*
X86820Y-54140D02*
X86820Y-52580D01*
X86880Y-54200D02*
X86820Y-54140D01*
X87820Y-55460D02*
X87820Y-54200D01*
X90380Y-55980D02*
X94200Y-55980D01*
X90380Y-55980D02*
X89460Y-55980D01*
X101160Y-57720D02*
X101160Y-55730D01*
X101160Y-55730D02*
X101150Y-55720D01*
X86200Y-54108D02*
X86200Y-57960D01*
X102900Y-57940D02*
X102900Y-55220D01*
X102820Y-58020D02*
X102900Y-57940D01*
X86260Y-58020D02*
X102820Y-58020D01*
X86200Y-57960D02*
X86260Y-58020D01*
X86200Y-54108D02*
X86204Y-54112D01*
X86474Y-53896D02*
X86474Y-57796D01*
X99460Y-57800D02*
X99460Y-55240D01*
X99380Y-57880D02*
X99460Y-57800D01*
X86557Y-57880D02*
X99380Y-57880D01*
X86474Y-57796D02*
X86557Y-57880D01*
X86474Y-53896D02*
X86466Y-53904D01*
X88220Y-54536D02*
X88220Y-54260D01*
X92712Y-54168D02*
X92712Y-53902D01*
X92660Y-54220D02*
X92712Y-54168D01*
X88260Y-54220D02*
X92660Y-54220D01*
X88220Y-54260D02*
X88260Y-54220D01*
X88230Y-54526D02*
X88220Y-54536D01*
X88220Y-54536D02*
X88234Y-54522D01*
X92712Y-46068D02*
X92706Y-46062D01*
X92712Y-53902D02*
X92712Y-46068D01*
X92040Y-53800D02*
X92040Y-46800D01*
X92040Y-46800D02*
X92060Y-46780D01*
X86020Y-47900D02*
X91780Y-47900D01*
X85960Y-47960D02*
X86020Y-47900D01*
X85960Y-54220D02*
X85960Y-47960D01*
X86040Y-54300D02*
X85960Y-54220D01*
X86040Y-55640D02*
X86040Y-54300D01*
X85820Y-55860D02*
X86040Y-55640D01*
X85160Y-55540D02*
X85200Y-55540D01*
X85200Y-55540D02*
X85800Y-55540D01*
X92002Y-44380D02*
X91942Y-44380D01*
X97568Y-44380D02*
X92370Y-44380D01*
X97576Y-44388D02*
X97568Y-44380D01*
X92370Y-44380D02*
X92002Y-44380D01*
X91888Y-44326D02*
X91888Y-43898D01*
X91942Y-44380D02*
X91888Y-44326D01*
X93450Y-54378D02*
X93450Y-54162D01*
X93378Y-54450D02*
X93450Y-54378D01*
X91586Y-54450D02*
X93378Y-54450D01*
X91582Y-54454D02*
X91586Y-54450D01*
X108040Y-53640D02*
X108100Y-53640D01*
X108162Y-53518D02*
X108162Y-50578D01*
X108162Y-50578D02*
X108162Y-46014D01*
X92960Y-53640D02*
X105100Y-53640D01*
X105100Y-53640D02*
X108040Y-53640D01*
X108162Y-53578D02*
X108162Y-53518D01*
X108100Y-53640D02*
X108162Y-53578D01*
G54D10*
G36*
X110471Y-58573D02*
X108588Y-58573D01*
X108588Y-45929D01*
X108523Y-45773D01*
X108403Y-45653D01*
X108247Y-45588D01*
X108077Y-45587D01*
X107921Y-45652D01*
X107801Y-45772D01*
X107736Y-45928D01*
X107735Y-46098D01*
X107800Y-46254D01*
X107920Y-46374D01*
X108005Y-46410D01*
X108005Y-50578D01*
X108005Y-53483D01*
X107988Y-53483D01*
X107988Y-46829D01*
X107923Y-46673D01*
X107803Y-46553D01*
X107647Y-46488D01*
X107521Y-46487D01*
X107521Y-46096D01*
X107511Y-45876D01*
X107447Y-45723D01*
X107351Y-45695D01*
X107280Y-45765D01*
X107280Y-45624D01*
X107252Y-45528D01*
X107044Y-45454D01*
X106824Y-45464D01*
X106671Y-45528D01*
X106643Y-45624D01*
X106962Y-45943D01*
X107280Y-45624D01*
X107280Y-45765D01*
X107032Y-46014D01*
X107351Y-46332D01*
X107447Y-46304D01*
X107521Y-46096D01*
X107521Y-46487D01*
X107477Y-46487D01*
X107321Y-46552D01*
X107280Y-46592D01*
X107280Y-46403D01*
X106962Y-46084D01*
X106891Y-46155D01*
X106891Y-46014D01*
X106572Y-45695D01*
X106476Y-45723D01*
X106402Y-45931D01*
X106412Y-46151D01*
X106476Y-46304D01*
X106572Y-46332D01*
X106891Y-46014D01*
X106891Y-46155D01*
X106643Y-46403D01*
X106671Y-46499D01*
X106879Y-46573D01*
X107099Y-46563D01*
X107252Y-46499D01*
X107280Y-46403D01*
X107280Y-46592D01*
X107201Y-46672D01*
X107136Y-46828D01*
X107135Y-46998D01*
X107200Y-47154D01*
X107320Y-47274D01*
X107476Y-47339D01*
X107646Y-47340D01*
X107802Y-47275D01*
X107922Y-47155D01*
X107987Y-46999D01*
X107988Y-46829D01*
X107988Y-53483D01*
X105100Y-53483D01*
X97815Y-53483D01*
X97815Y-44340D01*
X97778Y-44252D01*
X97711Y-44185D01*
X97623Y-44149D01*
X97528Y-44148D01*
X97440Y-44185D01*
X97402Y-44223D01*
X92928Y-44223D01*
X92928Y-42835D01*
X92864Y-42682D01*
X92748Y-42565D01*
X92595Y-42501D01*
X92429Y-42501D01*
X92276Y-42564D01*
X92159Y-42681D01*
X92095Y-42834D01*
X92095Y-43000D01*
X92159Y-43153D01*
X92275Y-43270D01*
X92428Y-43334D01*
X92594Y-43334D01*
X92747Y-43270D01*
X92864Y-43153D01*
X92928Y-43001D01*
X92928Y-42835D01*
X92928Y-44223D01*
X92370Y-44223D01*
X92044Y-44223D01*
X92044Y-44079D01*
X92090Y-44033D01*
X92126Y-43945D01*
X92127Y-43850D01*
X92090Y-43762D01*
X92023Y-43695D01*
X91935Y-43659D01*
X91840Y-43658D01*
X91752Y-43695D01*
X91685Y-43762D01*
X91649Y-43850D01*
X91648Y-43945D01*
X91685Y-44033D01*
X91731Y-44079D01*
X91731Y-44326D01*
X91743Y-44385D01*
X91777Y-44436D01*
X91831Y-44490D01*
X91831Y-44490D01*
X91865Y-44513D01*
X91882Y-44524D01*
X91882Y-44524D01*
X91942Y-44536D01*
X92002Y-44536D01*
X92370Y-44536D01*
X97386Y-44536D01*
X97440Y-44590D01*
X97528Y-44626D01*
X97623Y-44627D01*
X97711Y-44590D01*
X97778Y-44523D01*
X97814Y-44435D01*
X97815Y-44340D01*
X97815Y-53483D01*
X93141Y-53483D01*
X93095Y-53437D01*
X93007Y-53401D01*
X92912Y-53400D01*
X92868Y-53419D01*
X92868Y-46237D01*
X92908Y-46197D01*
X92944Y-46109D01*
X92945Y-46014D01*
X92928Y-45974D01*
X92928Y-45197D01*
X92864Y-45044D01*
X92748Y-44927D01*
X92595Y-44864D01*
X92429Y-44863D01*
X92276Y-44927D01*
X92159Y-45044D01*
X92095Y-45197D01*
X92095Y-45362D01*
X92159Y-45515D01*
X92275Y-45632D01*
X92428Y-45696D01*
X92594Y-45696D01*
X92747Y-45633D01*
X92864Y-45516D01*
X92928Y-45363D01*
X92928Y-45197D01*
X92928Y-45974D01*
X92908Y-45926D01*
X92841Y-45859D01*
X92753Y-45823D01*
X92658Y-45822D01*
X92570Y-45859D01*
X92503Y-45926D01*
X92467Y-46014D01*
X92466Y-46109D01*
X92503Y-46197D01*
X92555Y-46249D01*
X92555Y-53720D01*
X92509Y-53766D01*
X92473Y-53854D01*
X92472Y-53949D01*
X92509Y-54037D01*
X92535Y-54063D01*
X88260Y-54063D01*
X88200Y-54075D01*
X88149Y-54109D01*
X88109Y-54149D01*
X88075Y-54200D01*
X88063Y-54260D01*
X88063Y-54354D01*
X88027Y-54390D01*
X87991Y-54478D01*
X87990Y-54573D01*
X88027Y-54661D01*
X88094Y-54728D01*
X88182Y-54764D01*
X88277Y-54765D01*
X88365Y-54728D01*
X88432Y-54661D01*
X88468Y-54573D01*
X88469Y-54478D01*
X88432Y-54390D01*
X88418Y-54376D01*
X91355Y-54376D01*
X91343Y-54406D01*
X91342Y-54501D01*
X91379Y-54589D01*
X91446Y-54656D01*
X91534Y-54692D01*
X91629Y-54693D01*
X91717Y-54656D01*
X91767Y-54606D01*
X93378Y-54606D01*
X93378Y-54606D01*
X93437Y-54594D01*
X93488Y-54560D01*
X93560Y-54488D01*
X93560Y-54488D01*
X93594Y-54437D01*
X93594Y-54437D01*
X93596Y-54427D01*
X93606Y-54378D01*
X93606Y-54378D01*
X93606Y-54343D01*
X93652Y-54297D01*
X93688Y-54209D01*
X93689Y-54114D01*
X93652Y-54026D01*
X93585Y-53959D01*
X93497Y-53923D01*
X93402Y-53922D01*
X93314Y-53959D01*
X93247Y-54026D01*
X93211Y-54114D01*
X93210Y-54209D01*
X93245Y-54293D01*
X92807Y-54293D01*
X92822Y-54278D01*
X92822Y-54278D01*
X92856Y-54227D01*
X92856Y-54227D01*
X92858Y-54217D01*
X92868Y-54168D01*
X92868Y-54168D01*
X92868Y-54083D01*
X92914Y-54037D01*
X92950Y-53949D01*
X92950Y-53878D01*
X93007Y-53879D01*
X93095Y-53842D01*
X93141Y-53796D01*
X105100Y-53796D01*
X108040Y-53796D01*
X108100Y-53796D01*
X108100Y-53796D01*
X108159Y-53784D01*
X108210Y-53750D01*
X108272Y-53688D01*
X108272Y-53688D01*
X108306Y-53637D01*
X108306Y-53637D01*
X108308Y-53627D01*
X108318Y-53578D01*
X108318Y-53578D01*
X108318Y-53518D01*
X108318Y-50578D01*
X108318Y-46410D01*
X108402Y-46375D01*
X108522Y-46255D01*
X108587Y-46099D01*
X108588Y-45929D01*
X108588Y-58573D01*
X85152Y-58573D01*
X85152Y-55778D01*
X85207Y-55779D01*
X85295Y-55742D01*
X85341Y-55696D01*
X85618Y-55696D01*
X85632Y-55709D01*
X85617Y-55724D01*
X85581Y-55812D01*
X85580Y-55907D01*
X85617Y-55995D01*
X85684Y-56062D01*
X85772Y-56098D01*
X85867Y-56099D01*
X85955Y-56062D01*
X86022Y-55995D01*
X86043Y-55944D01*
X86043Y-57960D01*
X86055Y-58019D01*
X86089Y-58070D01*
X86149Y-58130D01*
X86200Y-58164D01*
X86200Y-58164D01*
X86210Y-58166D01*
X86260Y-58176D01*
X102820Y-58176D01*
X102820Y-58176D01*
X102879Y-58164D01*
X102930Y-58130D01*
X103010Y-58050D01*
X103010Y-58050D01*
X103044Y-57999D01*
X103044Y-57999D01*
X103046Y-57989D01*
X103056Y-57940D01*
X103056Y-57940D01*
X103056Y-55401D01*
X103102Y-55355D01*
X103138Y-55267D01*
X103139Y-55172D01*
X103102Y-55084D01*
X103035Y-55017D01*
X102947Y-54981D01*
X102852Y-54980D01*
X102764Y-55017D01*
X102697Y-55084D01*
X102661Y-55172D01*
X102660Y-55267D01*
X102697Y-55355D01*
X102743Y-55401D01*
X102743Y-57863D01*
X99601Y-57863D01*
X99604Y-57859D01*
X99604Y-57859D01*
X99606Y-57849D01*
X99616Y-57800D01*
X99616Y-57800D01*
X99616Y-55421D01*
X99662Y-55375D01*
X99698Y-55287D01*
X99699Y-55192D01*
X99662Y-55104D01*
X99595Y-55037D01*
X99507Y-55001D01*
X99412Y-55000D01*
X99324Y-55037D01*
X99257Y-55104D01*
X99221Y-55192D01*
X99220Y-55287D01*
X99257Y-55375D01*
X99303Y-55421D01*
X99303Y-57723D01*
X86630Y-57723D01*
X86630Y-54077D01*
X86676Y-54031D01*
X86712Y-53943D01*
X86713Y-53848D01*
X86676Y-53760D01*
X86609Y-53693D01*
X86521Y-53657D01*
X86426Y-53656D01*
X86338Y-53693D01*
X86271Y-53760D01*
X86235Y-53848D01*
X86235Y-53869D01*
X86152Y-53868D01*
X86116Y-53884D01*
X86116Y-48056D01*
X91598Y-48056D01*
X91644Y-48102D01*
X91732Y-48138D01*
X91827Y-48139D01*
X91883Y-48115D01*
X91883Y-53618D01*
X91837Y-53664D01*
X91801Y-53752D01*
X91800Y-53847D01*
X91837Y-53935D01*
X91904Y-54002D01*
X91992Y-54038D01*
X92087Y-54039D01*
X92175Y-54002D01*
X92242Y-53935D01*
X92278Y-53847D01*
X92279Y-53752D01*
X92242Y-53664D01*
X92196Y-53618D01*
X92196Y-46981D01*
X92262Y-46915D01*
X92298Y-46827D01*
X92299Y-46732D01*
X92262Y-46644D01*
X92195Y-46577D01*
X92107Y-46541D01*
X92012Y-46540D01*
X91924Y-46577D01*
X91857Y-46644D01*
X91821Y-46732D01*
X91820Y-46827D01*
X91857Y-46915D01*
X91883Y-46941D01*
X91883Y-47684D01*
X91827Y-47661D01*
X91732Y-47660D01*
X91644Y-47697D01*
X91598Y-47743D01*
X89088Y-47743D01*
X89088Y-45929D01*
X89023Y-45773D01*
X88903Y-45653D01*
X88747Y-45588D01*
X88577Y-45587D01*
X88421Y-45652D01*
X88301Y-45772D01*
X88236Y-45928D01*
X88235Y-46098D01*
X88300Y-46254D01*
X88420Y-46374D01*
X88576Y-46439D01*
X88746Y-46440D01*
X88902Y-46375D01*
X89022Y-46255D01*
X89087Y-46099D01*
X89088Y-45929D01*
X89088Y-47743D01*
X88488Y-47743D01*
X88488Y-46829D01*
X88423Y-46673D01*
X88303Y-46553D01*
X88147Y-46488D01*
X88021Y-46487D01*
X88021Y-46096D01*
X88011Y-45876D01*
X87947Y-45723D01*
X87851Y-45695D01*
X87780Y-45765D01*
X87780Y-45624D01*
X87752Y-45528D01*
X87544Y-45454D01*
X87324Y-45464D01*
X87171Y-45528D01*
X87143Y-45624D01*
X87462Y-45943D01*
X87780Y-45624D01*
X87780Y-45765D01*
X87532Y-46014D01*
X87851Y-46332D01*
X87947Y-46304D01*
X88021Y-46096D01*
X88021Y-46487D01*
X87977Y-46487D01*
X87821Y-46552D01*
X87780Y-46592D01*
X87780Y-46403D01*
X87462Y-46084D01*
X87391Y-46155D01*
X87391Y-46014D01*
X87072Y-45695D01*
X86976Y-45723D01*
X86902Y-45931D01*
X86912Y-46151D01*
X86976Y-46304D01*
X87072Y-46332D01*
X87391Y-46014D01*
X87391Y-46155D01*
X87143Y-46403D01*
X87171Y-46499D01*
X87379Y-46573D01*
X87599Y-46563D01*
X87752Y-46499D01*
X87780Y-46403D01*
X87780Y-46592D01*
X87701Y-46672D01*
X87636Y-46828D01*
X87635Y-46998D01*
X87700Y-47154D01*
X87820Y-47274D01*
X87976Y-47339D01*
X88146Y-47340D01*
X88302Y-47275D01*
X88422Y-47155D01*
X88487Y-46999D01*
X88488Y-46829D01*
X88488Y-47743D01*
X86020Y-47743D01*
X85970Y-47753D01*
X85960Y-47755D01*
X85909Y-47789D01*
X85849Y-47849D01*
X85815Y-47900D01*
X85803Y-47960D01*
X85803Y-54220D01*
X85815Y-54279D01*
X85849Y-54330D01*
X85883Y-54364D01*
X85883Y-55315D01*
X85847Y-55301D01*
X85752Y-55300D01*
X85664Y-55337D01*
X85618Y-55383D01*
X85341Y-55383D01*
X85295Y-55337D01*
X85207Y-55301D01*
X85152Y-55301D01*
X85152Y-41854D01*
X110471Y-41854D01*
X110471Y-58573D01*
X110471Y-58573D01*
G37*
G54D15*
X110471Y-58573D02*
X108588Y-58573D01*
X108588Y-45929D01*
X108523Y-45773D01*
X108403Y-45653D01*
X108247Y-45588D01*
X108077Y-45587D01*
X107921Y-45652D01*
X107801Y-45772D01*
X107736Y-45928D01*
X107735Y-46098D01*
X107800Y-46254D01*
X107920Y-46374D01*
X108005Y-46410D01*
X108005Y-50578D01*
X108005Y-53483D01*
X107988Y-53483D01*
X107988Y-46829D01*
X107923Y-46673D01*
X107803Y-46553D01*
X107647Y-46488D01*
X107521Y-46487D01*
X107521Y-46096D01*
X107511Y-45876D01*
X107447Y-45723D01*
X107351Y-45695D01*
X107280Y-45765D01*
X107280Y-45624D01*
X107252Y-45528D01*
X107044Y-45454D01*
X106824Y-45464D01*
X106671Y-45528D01*
X106643Y-45624D01*
X106962Y-45943D01*
X107280Y-45624D01*
X107280Y-45765D01*
X107032Y-46014D01*
X107351Y-46332D01*
X107447Y-46304D01*
X107521Y-46096D01*
X107521Y-46487D01*
X107477Y-46487D01*
X107321Y-46552D01*
X107280Y-46592D01*
X107280Y-46403D01*
X106962Y-46084D01*
X106891Y-46155D01*
X106891Y-46014D01*
X106572Y-45695D01*
X106476Y-45723D01*
X106402Y-45931D01*
X106412Y-46151D01*
X106476Y-46304D01*
X106572Y-46332D01*
X106891Y-46014D01*
X106891Y-46155D01*
X106643Y-46403D01*
X106671Y-46499D01*
X106879Y-46573D01*
X107099Y-46563D01*
X107252Y-46499D01*
X107280Y-46403D01*
X107280Y-46592D01*
X107201Y-46672D01*
X107136Y-46828D01*
X107135Y-46998D01*
X107200Y-47154D01*
X107320Y-47274D01*
X107476Y-47339D01*
X107646Y-47340D01*
X107802Y-47275D01*
X107922Y-47155D01*
X107987Y-46999D01*
X107988Y-46829D01*
X107988Y-53483D01*
X105100Y-53483D01*
X97815Y-53483D01*
X97815Y-44340D01*
X97778Y-44252D01*
X97711Y-44185D01*
X97623Y-44149D01*
X97528Y-44148D01*
X97440Y-44185D01*
X97402Y-44223D01*
X92928Y-44223D01*
X92928Y-42835D01*
X92864Y-42682D01*
X92748Y-42565D01*
X92595Y-42501D01*
X92429Y-42501D01*
X92276Y-42564D01*
X92159Y-42681D01*
X92095Y-42834D01*
X92095Y-43000D01*
X92159Y-43153D01*
X92275Y-43270D01*
X92428Y-43334D01*
X92594Y-43334D01*
X92747Y-43270D01*
X92864Y-43153D01*
X92928Y-43001D01*
X92928Y-42835D01*
X92928Y-44223D01*
X92370Y-44223D01*
X92044Y-44223D01*
X92044Y-44079D01*
X92090Y-44033D01*
X92126Y-43945D01*
X92127Y-43850D01*
X92090Y-43762D01*
X92023Y-43695D01*
X91935Y-43659D01*
X91840Y-43658D01*
X91752Y-43695D01*
X91685Y-43762D01*
X91649Y-43850D01*
X91648Y-43945D01*
X91685Y-44033D01*
X91731Y-44079D01*
X91731Y-44326D01*
X91743Y-44385D01*
X91777Y-44436D01*
X91831Y-44490D01*
X91831Y-44490D01*
X91865Y-44513D01*
X91882Y-44524D01*
X91882Y-44524D01*
X91942Y-44536D01*
X92002Y-44536D01*
X92370Y-44536D01*
X97386Y-44536D01*
X97440Y-44590D01*
X97528Y-44626D01*
X97623Y-44627D01*
X97711Y-44590D01*
X97778Y-44523D01*
X97814Y-44435D01*
X97815Y-44340D01*
X97815Y-53483D01*
X93141Y-53483D01*
X93095Y-53437D01*
X93007Y-53401D01*
X92912Y-53400D01*
X92868Y-53419D01*
X92868Y-46237D01*
X92908Y-46197D01*
X92944Y-46109D01*
X92945Y-46014D01*
X92928Y-45974D01*
X92928Y-45197D01*
X92864Y-45044D01*
X92748Y-44927D01*
X92595Y-44864D01*
X92429Y-44863D01*
X92276Y-44927D01*
X92159Y-45044D01*
X92095Y-45197D01*
X92095Y-45362D01*
X92159Y-45515D01*
X92275Y-45632D01*
X92428Y-45696D01*
X92594Y-45696D01*
X92747Y-45633D01*
X92864Y-45516D01*
X92928Y-45363D01*
X92928Y-45197D01*
X92928Y-45974D01*
X92908Y-45926D01*
X92841Y-45859D01*
X92753Y-45823D01*
X92658Y-45822D01*
X92570Y-45859D01*
X92503Y-45926D01*
X92467Y-46014D01*
X92466Y-46109D01*
X92503Y-46197D01*
X92555Y-46249D01*
X92555Y-53720D01*
X92509Y-53766D01*
X92473Y-53854D01*
X92472Y-53949D01*
X92509Y-54037D01*
X92535Y-54063D01*
X88260Y-54063D01*
X88200Y-54075D01*
X88149Y-54109D01*
X88109Y-54149D01*
X88075Y-54200D01*
X88063Y-54260D01*
X88063Y-54354D01*
X88027Y-54390D01*
X87991Y-54478D01*
X87990Y-54573D01*
X88027Y-54661D01*
X88094Y-54728D01*
X88182Y-54764D01*
X88277Y-54765D01*
X88365Y-54728D01*
X88432Y-54661D01*
X88468Y-54573D01*
X88469Y-54478D01*
X88432Y-54390D01*
X88418Y-54376D01*
X91355Y-54376D01*
X91343Y-54406D01*
X91342Y-54501D01*
X91379Y-54589D01*
X91446Y-54656D01*
X91534Y-54692D01*
X91629Y-54693D01*
X91717Y-54656D01*
X91767Y-54606D01*
X93378Y-54606D01*
X93378Y-54606D01*
X93437Y-54594D01*
X93488Y-54560D01*
X93560Y-54488D01*
X93560Y-54488D01*
X93594Y-54437D01*
X93594Y-54437D01*
X93596Y-54427D01*
X93606Y-54378D01*
X93606Y-54378D01*
X93606Y-54343D01*
X93652Y-54297D01*
X93688Y-54209D01*
X93689Y-54114D01*
X93652Y-54026D01*
X93585Y-53959D01*
X93497Y-53923D01*
X93402Y-53922D01*
X93314Y-53959D01*
X93247Y-54026D01*
X93211Y-54114D01*
X93210Y-54209D01*
X93245Y-54293D01*
X92807Y-54293D01*
X92822Y-54278D01*
X92822Y-54278D01*
X92856Y-54227D01*
X92856Y-54227D01*
X92858Y-54217D01*
X92868Y-54168D01*
X92868Y-54168D01*
X92868Y-54083D01*
X92914Y-54037D01*
X92950Y-53949D01*
X92950Y-53878D01*
X93007Y-53879D01*
X93095Y-53842D01*
X93141Y-53796D01*
X105100Y-53796D01*
X108040Y-53796D01*
X108100Y-53796D01*
X108100Y-53796D01*
X108159Y-53784D01*
X108210Y-53750D01*
X108272Y-53688D01*
X108272Y-53688D01*
X108306Y-53637D01*
X108306Y-53637D01*
X108308Y-53627D01*
X108318Y-53578D01*
X108318Y-53578D01*
X108318Y-53518D01*
X108318Y-50578D01*
X108318Y-46410D01*
X108402Y-46375D01*
X108522Y-46255D01*
X108587Y-46099D01*
X108588Y-45929D01*
X108588Y-58573D01*
X85152Y-58573D01*
X85152Y-55778D01*
X85207Y-55779D01*
X85295Y-55742D01*
X85341Y-55696D01*
X85618Y-55696D01*
X85632Y-55709D01*
X85617Y-55724D01*
X85581Y-55812D01*
X85580Y-55907D01*
X85617Y-55995D01*
X85684Y-56062D01*
X85772Y-56098D01*
X85867Y-56099D01*
X85955Y-56062D01*
X86022Y-55995D01*
X86043Y-55944D01*
X86043Y-57960D01*
X86055Y-58019D01*
X86089Y-58070D01*
X86149Y-58130D01*
X86200Y-58164D01*
X86200Y-58164D01*
X86210Y-58166D01*
X86260Y-58176D01*
X102820Y-58176D01*
X102820Y-58176D01*
X102879Y-58164D01*
X102930Y-58130D01*
X103010Y-58050D01*
X103010Y-58050D01*
X103044Y-57999D01*
X103044Y-57999D01*
X103046Y-57989D01*
X103056Y-57940D01*
X103056Y-57940D01*
X103056Y-55401D01*
X103102Y-55355D01*
X103138Y-55267D01*
X103139Y-55172D01*
X103102Y-55084D01*
X103035Y-55017D01*
X102947Y-54981D01*
X102852Y-54980D01*
X102764Y-55017D01*
X102697Y-55084D01*
X102661Y-55172D01*
X102660Y-55267D01*
X102697Y-55355D01*
X102743Y-55401D01*
X102743Y-57863D01*
X99601Y-57863D01*
X99604Y-57859D01*
X99604Y-57859D01*
X99606Y-57849D01*
X99616Y-57800D01*
X99616Y-57800D01*
X99616Y-55421D01*
X99662Y-55375D01*
X99698Y-55287D01*
X99699Y-55192D01*
X99662Y-55104D01*
X99595Y-55037D01*
X99507Y-55001D01*
X99412Y-55000D01*
X99324Y-55037D01*
X99257Y-55104D01*
X99221Y-55192D01*
X99220Y-55287D01*
X99257Y-55375D01*
X99303Y-55421D01*
X99303Y-57723D01*
X86630Y-57723D01*
X86630Y-54077D01*
X86676Y-54031D01*
X86712Y-53943D01*
X86713Y-53848D01*
X86676Y-53760D01*
X86609Y-53693D01*
X86521Y-53657D01*
X86426Y-53656D01*
X86338Y-53693D01*
X86271Y-53760D01*
X86235Y-53848D01*
X86235Y-53869D01*
X86152Y-53868D01*
X86116Y-53884D01*
X86116Y-48056D01*
X91598Y-48056D01*
X91644Y-48102D01*
X91732Y-48138D01*
X91827Y-48139D01*
X91883Y-48115D01*
X91883Y-53618D01*
X91837Y-53664D01*
X91801Y-53752D01*
X91800Y-53847D01*
X91837Y-53935D01*
X91904Y-54002D01*
X91992Y-54038D01*
X92087Y-54039D01*
X92175Y-54002D01*
X92242Y-53935D01*
X92278Y-53847D01*
X92279Y-53752D01*
X92242Y-53664D01*
X92196Y-53618D01*
X92196Y-46981D01*
X92262Y-46915D01*
X92298Y-46827D01*
X92299Y-46732D01*
X92262Y-46644D01*
X92195Y-46577D01*
X92107Y-46541D01*
X92012Y-46540D01*
X91924Y-46577D01*
X91857Y-46644D01*
X91821Y-46732D01*
X91820Y-46827D01*
X91857Y-46915D01*
X91883Y-46941D01*
X91883Y-47684D01*
X91827Y-47661D01*
X91732Y-47660D01*
X91644Y-47697D01*
X91598Y-47743D01*
X89088Y-47743D01*
X89088Y-45929D01*
X89023Y-45773D01*
X88903Y-45653D01*
X88747Y-45588D01*
X88577Y-45587D01*
X88421Y-45652D01*
X88301Y-45772D01*
X88236Y-45928D01*
X88235Y-46098D01*
X88300Y-46254D01*
X88420Y-46374D01*
X88576Y-46439D01*
X88746Y-46440D01*
X88902Y-46375D01*
X89022Y-46255D01*
X89087Y-46099D01*
X89088Y-45929D01*
X89088Y-47743D01*
X88488Y-47743D01*
X88488Y-46829D01*
X88423Y-46673D01*
X88303Y-46553D01*
X88147Y-46488D01*
X88021Y-46487D01*
X88021Y-46096D01*
X88011Y-45876D01*
X87947Y-45723D01*
X87851Y-45695D01*
X87780Y-45765D01*
X87780Y-45624D01*
X87752Y-45528D01*
X87544Y-45454D01*
X87324Y-45464D01*
X87171Y-45528D01*
X87143Y-45624D01*
X87462Y-45943D01*
X87780Y-45624D01*
X87780Y-45765D01*
X87532Y-46014D01*
X87851Y-46332D01*
X87947Y-46304D01*
X88021Y-46096D01*
X88021Y-46487D01*
X87977Y-46487D01*
X87821Y-46552D01*
X87780Y-46592D01*
X87780Y-46403D01*
X87462Y-46084D01*
X87391Y-46155D01*
X87391Y-46014D01*
X87072Y-45695D01*
X86976Y-45723D01*
X86902Y-45931D01*
X86912Y-46151D01*
X86976Y-46304D01*
X87072Y-46332D01*
X87391Y-46014D01*
X87391Y-46155D01*
X87143Y-46403D01*
X87171Y-46499D01*
X87379Y-46573D01*
X87599Y-46563D01*
X87752Y-46499D01*
X87780Y-46403D01*
X87780Y-46592D01*
X87701Y-46672D01*
X87636Y-46828D01*
X87635Y-46998D01*
X87700Y-47154D01*
X87820Y-47274D01*
X87976Y-47339D01*
X88146Y-47340D01*
X88302Y-47275D01*
X88422Y-47155D01*
X88487Y-46999D01*
X88488Y-46829D01*
X88488Y-47743D01*
X86020Y-47743D01*
X85970Y-47753D01*
X85960Y-47755D01*
X85909Y-47789D01*
X85849Y-47849D01*
X85815Y-47900D01*
X85803Y-47960D01*
X85803Y-54220D01*
X85815Y-54279D01*
X85849Y-54330D01*
X85883Y-54364D01*
X85883Y-55315D01*
X85847Y-55301D01*
X85752Y-55300D01*
X85664Y-55337D01*
X85618Y-55383D01*
X85341Y-55383D01*
X85295Y-55337D01*
X85207Y-55301D01*
X85152Y-55301D01*
X85152Y-41854D01*
X110471Y-41854D01*
X110471Y-58573D01*
M02*
