M48
;DRILL file {Pcbnew (22-Jun-2014 BZR 4027)-stable} date Wed 02 May 2018 01:53:00 PM CST
;FORMAT={-:-/ absolute / inch / decimal}
FMAT,2
INCH,TZ
T1C0.016
T2C0.039
%
G90
G05
M72
T1
X8.516Y-5.554
X8.58Y-5.554
X8.582Y-5.586
X8.62Y-5.4108
X8.63Y-5.258
X8.6474Y-5.3896
X8.682Y-5.258
X8.782Y-5.42
X8.782Y-5.546
X8.823Y-5.4526
X8.946Y-5.598
X9.038Y-5.598
X9.1582Y-5.4454
X9.178Y-4.79
X9.1888Y-4.3898
X9.204Y-5.38
X9.206Y-4.678
X9.2706Y-4.6062
X9.2712Y-5.3902
X9.296Y-5.364
X9.345Y-5.4162
X9.42Y-5.598
X9.573Y-4.9056
X9.5758Y-4.5902
X9.72Y-5.535
X9.7576Y-4.4388
X9.7896Y-4.9042
X9.79Y-5.535
X9.946Y-5.524
X10.115Y-5.572
X10.116Y-5.772
X10.29Y-5.522
T2
X8.7462Y-4.6014
X8.8062Y-4.6914
X8.8662Y-4.6014
X9.2512Y-4.2918
X9.2512Y-4.528
X10.6962Y-4.6014
X10.7562Y-4.6914
X10.8162Y-4.6014
T0
M30
