M48
;DRILL file {Pcbnew (22-Jun-2014 BZR 4027)-stable} date Thu 03 May 2018 06:02:00 PM CST
;FORMAT={-:-/ absolute / inch / decimal}
FMAT,2
INCH,TZ
T1C0.016
T2C0.032
%
G90
G05
M72
T1
X12.4632Y-10.0776
X12.5534Y-10.0374
X12.5562Y-10.3894
X12.6934Y-10.1482
X12.7676Y-10.0734
X13.1576Y-9.6404
X13.5064Y-9.6412
X13.7442Y-10.3894
X13.9352Y-9.9746
X13.9352Y-10.0376
X13.941Y-10.3794
X14.0216Y-9.641
X14.1052Y-10.289
X14.1188Y-9.8608
X14.168Y-10.0368
X14.3246Y-9.8126
X14.356Y-10.0356
X14.398Y-10.389
X15.3726Y-10.0988
X15.373Y-9.431
X15.3734Y-9.7126
X15.5972Y-10.3894
X15.599Y-10.1448
T2
X13.918Y-9.3434
X14.018Y-9.3434
X14.118Y-9.3434
X14.218Y-9.3434
T0
M30
