G04 (created by PCBNEW (22-Jun-2014 BZR 4027)-stable) date Thu 03 May 2018 06:02:00 PM CST*
%MOIN*%
G04 Gerber Fmt 3.4, Leading zero omitted, Abs format*
%FSLAX34Y34*%
G01*
G70*
G90*
G04 APERTURE LIST*
%ADD10C,0.005*%
%ADD11C,0.00590551*%
%ADD12C,0.00787402*%
%ADD13C,0.011811*%
G04 APERTURE END LIST*
G54D10*
G54D11*
X124060Y-104394D02*
X124060Y-92594D01*
X157460Y-104394D02*
X124060Y-104394D01*
X157460Y-92594D02*
X157460Y-104394D01*
X124060Y-92594D02*
X157460Y-92594D01*
G54D12*
X124553Y-100697D02*
X124710Y-100854D01*
X124710Y-100697D02*
X124553Y-100854D01*
X125455Y-100295D02*
X125612Y-100452D01*
X125612Y-100295D02*
X125455Y-100452D01*
X125483Y-103815D02*
X125640Y-103972D01*
X125640Y-103815D02*
X125483Y-103972D01*
X126855Y-101403D02*
X127012Y-101560D01*
X127012Y-101403D02*
X126855Y-101560D01*
X127597Y-100655D02*
X127754Y-100812D01*
X127754Y-100655D02*
X127597Y-100812D01*
X131497Y-96325D02*
X131654Y-96482D01*
X131654Y-96325D02*
X131497Y-96482D01*
X134985Y-96333D02*
X135142Y-96490D01*
X135142Y-96333D02*
X134985Y-96490D01*
X137363Y-103815D02*
X137520Y-103972D01*
X137520Y-103815D02*
X137363Y-103972D01*
X139273Y-99667D02*
X139430Y-99824D01*
X139430Y-99667D02*
X139273Y-99824D01*
X139273Y-100297D02*
X139430Y-100454D01*
X139430Y-100297D02*
X139273Y-100454D01*
X139331Y-103715D02*
X139488Y-103872D01*
X139488Y-103715D02*
X139331Y-103872D01*
X140137Y-96331D02*
X140294Y-96488D01*
X140294Y-96331D02*
X140137Y-96488D01*
X140973Y-102811D02*
X141130Y-102968D01*
X141130Y-102811D02*
X140973Y-102968D01*
X141109Y-98529D02*
X141266Y-98686D01*
X141266Y-98529D02*
X141109Y-98686D01*
X141601Y-100289D02*
X141758Y-100446D01*
X141758Y-100289D02*
X141601Y-100446D01*
X143167Y-98047D02*
X143324Y-98204D01*
X143324Y-98047D02*
X143167Y-98204D01*
X143481Y-100277D02*
X143638Y-100434D01*
X143638Y-100277D02*
X143481Y-100434D01*
X143901Y-103811D02*
X144058Y-103968D01*
X144058Y-103811D02*
X143901Y-103968D01*
X153647Y-100909D02*
X153804Y-101066D01*
X153804Y-100909D02*
X153647Y-101066D01*
X153651Y-94231D02*
X153808Y-94388D01*
X153808Y-94231D02*
X153651Y-94388D01*
X153655Y-97047D02*
X153812Y-97204D01*
X153812Y-97047D02*
X153655Y-97204D01*
X155893Y-103815D02*
X156050Y-103972D01*
X156050Y-103815D02*
X155893Y-103972D01*
X155911Y-101369D02*
X156068Y-101526D01*
X156068Y-101369D02*
X155911Y-101526D01*
X139340Y-93434D02*
G75*
G03X139340Y-93434I-160J0D01*
G74*
G01*
X140340Y-93434D02*
G75*
G03X140340Y-93434I-160J0D01*
G74*
G01*
X141340Y-93434D02*
G75*
G03X141340Y-93434I-160J0D01*
G74*
G01*
X142340Y-93434D02*
G75*
G03X142340Y-93434I-160J0D01*
G74*
G01*
G54D13*
X125099Y-106200D02*
X125099Y-105019D01*
X125380Y-105019D01*
X125549Y-105075D01*
X125661Y-105188D01*
X125717Y-105300D01*
X125774Y-105525D01*
X125774Y-105694D01*
X125717Y-105919D01*
X125661Y-106032D01*
X125549Y-106144D01*
X125380Y-106200D01*
X125099Y-106200D01*
X126280Y-106200D02*
X126280Y-105413D01*
X126280Y-105638D02*
X126336Y-105525D01*
X126392Y-105469D01*
X126505Y-105413D01*
X126617Y-105413D01*
X127011Y-106200D02*
X127011Y-105413D01*
X127011Y-105019D02*
X126955Y-105075D01*
X127011Y-105132D01*
X127067Y-105075D01*
X127011Y-105019D01*
X127011Y-105132D01*
X127742Y-106200D02*
X127630Y-106144D01*
X127573Y-106032D01*
X127573Y-105019D01*
X128361Y-106200D02*
X128248Y-106144D01*
X128192Y-106032D01*
X128192Y-105019D01*
X129711Y-106200D02*
X129711Y-105019D01*
X130104Y-105863D01*
X130498Y-105019D01*
X130498Y-106200D01*
X131567Y-106200D02*
X131567Y-105582D01*
X131510Y-105469D01*
X131398Y-105413D01*
X131173Y-105413D01*
X131060Y-105469D01*
X131567Y-106144D02*
X131454Y-106200D01*
X131173Y-106200D01*
X131060Y-106144D01*
X131004Y-106032D01*
X131004Y-105919D01*
X131060Y-105807D01*
X131173Y-105750D01*
X131454Y-105750D01*
X131567Y-105694D01*
X132129Y-105413D02*
X132129Y-106594D01*
X132129Y-105469D02*
X132241Y-105413D01*
X132466Y-105413D01*
X132579Y-105469D01*
X132635Y-105525D01*
X132691Y-105638D01*
X132691Y-105975D01*
X132635Y-106088D01*
X132579Y-106144D01*
X132466Y-106200D01*
X132241Y-106200D01*
X132129Y-106144D01*
X133198Y-106088D02*
X133254Y-106144D01*
X133198Y-106200D01*
X133141Y-106144D01*
X133198Y-106088D01*
X133198Y-106200D01*
X133198Y-105469D02*
X133254Y-105525D01*
X133198Y-105582D01*
X133141Y-105525D01*
X133198Y-105469D01*
X133198Y-105582D01*
X123872Y-108124D02*
X124030Y-108281D01*
X124030Y-108124D02*
X123872Y-108281D01*
X125324Y-107500D02*
X125436Y-107500D01*
X125549Y-107556D01*
X125605Y-107612D01*
X125661Y-107724D01*
X125717Y-107949D01*
X125717Y-108231D01*
X125661Y-108456D01*
X125605Y-108568D01*
X125549Y-108624D01*
X125436Y-108681D01*
X125324Y-108681D01*
X125211Y-108624D01*
X125155Y-108568D01*
X125099Y-108456D01*
X125042Y-108231D01*
X125042Y-107949D01*
X125099Y-107724D01*
X125155Y-107612D01*
X125211Y-107556D01*
X125324Y-107500D01*
X126223Y-108568D02*
X126280Y-108624D01*
X126223Y-108681D01*
X126167Y-108624D01*
X126223Y-108568D01*
X126223Y-108681D01*
X127292Y-107893D02*
X127292Y-108681D01*
X127011Y-107443D02*
X126730Y-108287D01*
X127461Y-108287D01*
X128136Y-107500D02*
X128248Y-107500D01*
X128361Y-107556D01*
X128417Y-107612D01*
X128473Y-107724D01*
X128529Y-107949D01*
X128529Y-108231D01*
X128473Y-108456D01*
X128417Y-108568D01*
X128361Y-108624D01*
X128248Y-108681D01*
X128136Y-108681D01*
X128023Y-108624D01*
X127967Y-108568D01*
X127911Y-108456D01*
X127854Y-108231D01*
X127854Y-107949D01*
X127911Y-107724D01*
X127967Y-107612D01*
X128023Y-107556D01*
X128136Y-107500D01*
X129036Y-108681D02*
X129036Y-107893D01*
X129036Y-108006D02*
X129092Y-107949D01*
X129204Y-107893D01*
X129373Y-107893D01*
X129486Y-107949D01*
X129542Y-108062D01*
X129542Y-108681D01*
X129542Y-108062D02*
X129598Y-107949D01*
X129711Y-107893D01*
X129879Y-107893D01*
X129992Y-107949D01*
X130048Y-108062D01*
X130048Y-108681D01*
X130610Y-108681D02*
X130610Y-107893D01*
X130610Y-108006D02*
X130667Y-107949D01*
X130779Y-107893D01*
X130948Y-107893D01*
X131060Y-107949D01*
X131117Y-108062D01*
X131117Y-108681D01*
X131117Y-108062D02*
X131173Y-107949D01*
X131285Y-107893D01*
X131454Y-107893D01*
X131567Y-107949D01*
X131623Y-108062D01*
X131623Y-108681D01*
X133929Y-107443D02*
X132916Y-108962D01*
X135447Y-107500D02*
X135560Y-107500D01*
X135672Y-107556D01*
X135729Y-107612D01*
X135785Y-107724D01*
X135841Y-107949D01*
X135841Y-108231D01*
X135785Y-108456D01*
X135729Y-108568D01*
X135672Y-108624D01*
X135560Y-108681D01*
X135447Y-108681D01*
X135335Y-108624D01*
X135279Y-108568D01*
X135222Y-108456D01*
X135166Y-108231D01*
X135166Y-107949D01*
X135222Y-107724D01*
X135279Y-107612D01*
X135335Y-107556D01*
X135447Y-107500D01*
X136347Y-108568D02*
X136403Y-108624D01*
X136347Y-108681D01*
X136291Y-108624D01*
X136347Y-108568D01*
X136347Y-108681D01*
X137135Y-107500D02*
X137247Y-107500D01*
X137360Y-107556D01*
X137416Y-107612D01*
X137472Y-107724D01*
X137528Y-107949D01*
X137528Y-108231D01*
X137472Y-108456D01*
X137416Y-108568D01*
X137360Y-108624D01*
X137247Y-108681D01*
X137135Y-108681D01*
X137022Y-108624D01*
X136966Y-108568D01*
X136910Y-108456D01*
X136853Y-108231D01*
X136853Y-107949D01*
X136910Y-107724D01*
X136966Y-107612D01*
X137022Y-107556D01*
X137135Y-107500D01*
X138653Y-108681D02*
X137978Y-108681D01*
X138316Y-108681D02*
X138316Y-107500D01*
X138203Y-107668D01*
X138091Y-107781D01*
X137978Y-107837D01*
X139666Y-107500D02*
X139441Y-107500D01*
X139328Y-107556D01*
X139272Y-107612D01*
X139159Y-107781D01*
X139103Y-108006D01*
X139103Y-108456D01*
X139159Y-108568D01*
X139216Y-108624D01*
X139328Y-108681D01*
X139553Y-108681D01*
X139666Y-108624D01*
X139722Y-108568D01*
X139778Y-108456D01*
X139778Y-108174D01*
X139722Y-108062D01*
X139666Y-108006D01*
X139553Y-107949D01*
X139328Y-107949D01*
X139216Y-108006D01*
X139159Y-108062D01*
X139103Y-108174D01*
X140228Y-107500D02*
X140228Y-107724D01*
X140678Y-107500D02*
X140678Y-107724D01*
X142421Y-109131D02*
X142365Y-109074D01*
X142253Y-108906D01*
X142196Y-108793D01*
X142140Y-108624D01*
X142084Y-108343D01*
X142084Y-108118D01*
X142140Y-107837D01*
X142196Y-107668D01*
X142253Y-107556D01*
X142365Y-107387D01*
X142421Y-107331D01*
X142815Y-107612D02*
X142871Y-107556D01*
X142984Y-107500D01*
X143265Y-107500D01*
X143378Y-107556D01*
X143434Y-107612D01*
X143490Y-107724D01*
X143490Y-107837D01*
X143434Y-108006D01*
X142759Y-108681D01*
X143490Y-108681D01*
X143884Y-107500D02*
X144615Y-107500D01*
X144221Y-107949D01*
X144390Y-107949D01*
X144502Y-108006D01*
X144559Y-108062D01*
X144615Y-108174D01*
X144615Y-108456D01*
X144559Y-108568D01*
X144502Y-108624D01*
X144390Y-108681D01*
X144052Y-108681D01*
X143940Y-108624D01*
X143884Y-108568D01*
X146021Y-108681D02*
X146021Y-107500D01*
X146527Y-108681D02*
X146527Y-108062D01*
X146471Y-107949D01*
X146358Y-107893D01*
X146190Y-107893D01*
X146077Y-107949D01*
X146021Y-108006D01*
X147258Y-108681D02*
X147146Y-108624D01*
X147090Y-108568D01*
X147033Y-108456D01*
X147033Y-108118D01*
X147090Y-108006D01*
X147146Y-107949D01*
X147258Y-107893D01*
X147427Y-107893D01*
X147540Y-107949D01*
X147596Y-108006D01*
X147652Y-108118D01*
X147652Y-108456D01*
X147596Y-108568D01*
X147540Y-108624D01*
X147427Y-108681D01*
X147258Y-108681D01*
X148327Y-108681D02*
X148214Y-108624D01*
X148158Y-108512D01*
X148158Y-107500D01*
X149227Y-108624D02*
X149114Y-108681D01*
X148889Y-108681D01*
X148777Y-108624D01*
X148721Y-108512D01*
X148721Y-108062D01*
X148777Y-107949D01*
X148889Y-107893D01*
X149114Y-107893D01*
X149227Y-107949D01*
X149283Y-108062D01*
X149283Y-108174D01*
X148721Y-108287D01*
X149733Y-108624D02*
X149845Y-108681D01*
X150070Y-108681D01*
X150183Y-108624D01*
X150239Y-108512D01*
X150239Y-108456D01*
X150183Y-108343D01*
X150070Y-108287D01*
X149902Y-108287D01*
X149789Y-108231D01*
X149733Y-108118D01*
X149733Y-108062D01*
X149789Y-107949D01*
X149902Y-107893D01*
X150070Y-107893D01*
X150183Y-107949D01*
X150633Y-109131D02*
X150689Y-109074D01*
X150802Y-108906D01*
X150858Y-108793D01*
X150914Y-108624D01*
X150970Y-108343D01*
X150970Y-108118D01*
X150914Y-107837D01*
X150858Y-107668D01*
X150802Y-107556D01*
X150689Y-107387D01*
X150633Y-107331D01*
G54D12*
X124030Y-109762D02*
G75*
G03X124030Y-109762I-160J0D01*
G74*
G01*
G54D13*
X125324Y-109059D02*
X125436Y-109059D01*
X125549Y-109115D01*
X125605Y-109171D01*
X125661Y-109284D01*
X125717Y-109509D01*
X125717Y-109790D01*
X125661Y-110015D01*
X125605Y-110127D01*
X125549Y-110183D01*
X125436Y-110240D01*
X125324Y-110240D01*
X125211Y-110183D01*
X125155Y-110127D01*
X125099Y-110015D01*
X125042Y-109790D01*
X125042Y-109509D01*
X125099Y-109284D01*
X125155Y-109171D01*
X125211Y-109115D01*
X125324Y-109059D01*
X126223Y-110127D02*
X126280Y-110183D01*
X126223Y-110240D01*
X126167Y-110183D01*
X126223Y-110127D01*
X126223Y-110240D01*
X126955Y-109565D02*
X126842Y-109509D01*
X126786Y-109452D01*
X126730Y-109340D01*
X126730Y-109284D01*
X126786Y-109171D01*
X126842Y-109115D01*
X126955Y-109059D01*
X127180Y-109059D01*
X127292Y-109115D01*
X127348Y-109171D01*
X127405Y-109284D01*
X127405Y-109340D01*
X127348Y-109452D01*
X127292Y-109509D01*
X127180Y-109565D01*
X126955Y-109565D01*
X126842Y-109621D01*
X126786Y-109677D01*
X126730Y-109790D01*
X126730Y-110015D01*
X126786Y-110127D01*
X126842Y-110183D01*
X126955Y-110240D01*
X127180Y-110240D01*
X127292Y-110183D01*
X127348Y-110127D01*
X127405Y-110015D01*
X127405Y-109790D01*
X127348Y-109677D01*
X127292Y-109621D01*
X127180Y-109565D01*
X128529Y-110240D02*
X127854Y-110240D01*
X128192Y-110240D02*
X128192Y-109059D01*
X128079Y-109227D01*
X127967Y-109340D01*
X127854Y-109396D01*
X129036Y-110240D02*
X129036Y-109452D01*
X129036Y-109565D02*
X129092Y-109509D01*
X129204Y-109452D01*
X129373Y-109452D01*
X129486Y-109509D01*
X129542Y-109621D01*
X129542Y-110240D01*
X129542Y-109621D02*
X129598Y-109509D01*
X129711Y-109452D01*
X129879Y-109452D01*
X129992Y-109509D01*
X130048Y-109621D01*
X130048Y-110240D01*
X130610Y-110240D02*
X130610Y-109452D01*
X130610Y-109565D02*
X130667Y-109509D01*
X130779Y-109452D01*
X130948Y-109452D01*
X131060Y-109509D01*
X131117Y-109621D01*
X131117Y-110240D01*
X131117Y-109621D02*
X131173Y-109509D01*
X131285Y-109452D01*
X131454Y-109452D01*
X131567Y-109509D01*
X131623Y-109621D01*
X131623Y-110240D01*
X133929Y-109002D02*
X132916Y-110521D01*
X135447Y-109059D02*
X135560Y-109059D01*
X135672Y-109115D01*
X135729Y-109171D01*
X135785Y-109284D01*
X135841Y-109509D01*
X135841Y-109790D01*
X135785Y-110015D01*
X135729Y-110127D01*
X135672Y-110183D01*
X135560Y-110240D01*
X135447Y-110240D01*
X135335Y-110183D01*
X135279Y-110127D01*
X135222Y-110015D01*
X135166Y-109790D01*
X135166Y-109509D01*
X135222Y-109284D01*
X135279Y-109171D01*
X135335Y-109115D01*
X135447Y-109059D01*
X136347Y-110127D02*
X136403Y-110183D01*
X136347Y-110240D01*
X136291Y-110183D01*
X136347Y-110127D01*
X136347Y-110240D01*
X137135Y-109059D02*
X137247Y-109059D01*
X137360Y-109115D01*
X137416Y-109171D01*
X137472Y-109284D01*
X137528Y-109509D01*
X137528Y-109790D01*
X137472Y-110015D01*
X137416Y-110127D01*
X137360Y-110183D01*
X137247Y-110240D01*
X137135Y-110240D01*
X137022Y-110183D01*
X136966Y-110127D01*
X136910Y-110015D01*
X136853Y-109790D01*
X136853Y-109509D01*
X136910Y-109284D01*
X136966Y-109171D01*
X137022Y-109115D01*
X137135Y-109059D01*
X137922Y-109059D02*
X138653Y-109059D01*
X138259Y-109509D01*
X138428Y-109509D01*
X138541Y-109565D01*
X138597Y-109621D01*
X138653Y-109733D01*
X138653Y-110015D01*
X138597Y-110127D01*
X138541Y-110183D01*
X138428Y-110240D01*
X138091Y-110240D01*
X137978Y-110183D01*
X137922Y-110127D01*
X139103Y-109171D02*
X139159Y-109115D01*
X139272Y-109059D01*
X139553Y-109059D01*
X139666Y-109115D01*
X139722Y-109171D01*
X139778Y-109284D01*
X139778Y-109396D01*
X139722Y-109565D01*
X139047Y-110240D01*
X139778Y-110240D01*
X140228Y-109059D02*
X140228Y-109284D01*
X140678Y-109059D02*
X140678Y-109284D01*
X142421Y-110690D02*
X142365Y-110633D01*
X142253Y-110465D01*
X142196Y-110352D01*
X142140Y-110183D01*
X142084Y-109902D01*
X142084Y-109677D01*
X142140Y-109396D01*
X142196Y-109227D01*
X142253Y-109115D01*
X142365Y-108946D01*
X142421Y-108890D01*
X143378Y-109452D02*
X143378Y-110240D01*
X143096Y-109002D02*
X142815Y-109846D01*
X143546Y-109846D01*
X144896Y-110240D02*
X144896Y-109059D01*
X145402Y-110240D02*
X145402Y-109621D01*
X145346Y-109509D01*
X145234Y-109452D01*
X145065Y-109452D01*
X144952Y-109509D01*
X144896Y-109565D01*
X146133Y-110240D02*
X146021Y-110183D01*
X145965Y-110127D01*
X145908Y-110015D01*
X145908Y-109677D01*
X145965Y-109565D01*
X146021Y-109509D01*
X146133Y-109452D01*
X146302Y-109452D01*
X146415Y-109509D01*
X146471Y-109565D01*
X146527Y-109677D01*
X146527Y-110015D01*
X146471Y-110127D01*
X146415Y-110183D01*
X146302Y-110240D01*
X146133Y-110240D01*
X147202Y-110240D02*
X147090Y-110183D01*
X147033Y-110071D01*
X147033Y-109059D01*
X148102Y-110183D02*
X147989Y-110240D01*
X147765Y-110240D01*
X147652Y-110183D01*
X147596Y-110071D01*
X147596Y-109621D01*
X147652Y-109509D01*
X147765Y-109452D01*
X147989Y-109452D01*
X148102Y-109509D01*
X148158Y-109621D01*
X148158Y-109733D01*
X147596Y-109846D01*
X148608Y-110183D02*
X148721Y-110240D01*
X148946Y-110240D01*
X149058Y-110183D01*
X149114Y-110071D01*
X149114Y-110015D01*
X149058Y-109902D01*
X148946Y-109846D01*
X148777Y-109846D01*
X148664Y-109790D01*
X148608Y-109677D01*
X148608Y-109621D01*
X148664Y-109509D01*
X148777Y-109452D01*
X148946Y-109452D01*
X149058Y-109509D01*
X149508Y-110690D02*
X149564Y-110633D01*
X149677Y-110465D01*
X149733Y-110352D01*
X149789Y-110183D01*
X149845Y-109902D01*
X149845Y-109677D01*
X149789Y-109396D01*
X149733Y-109227D01*
X149677Y-109115D01*
X149564Y-108946D01*
X149508Y-108890D01*
M02*
