G04 #@! TF.FileFunction,Legend,Bot*
%FSLAX46Y46*%
G04 Gerber Fmt 4.6, Leading zero omitted, Abs format (unit mm)*
G04 Created by KiCad (PCBNEW 4.0.5+dfsg1-4) date Fri Oct 12 17:02:05 2018*
%MOMM*%
%LPD*%
G01*
G04 APERTURE LIST*
%ADD10C,0.100000*%
%ADD11C,0.150000*%
G04 APERTURE END LIST*
D10*
D11*
X88646000Y-125730000D02*
X94234000Y-125730000D01*
X94234000Y-125730000D02*
X94234000Y-123190000D01*
X94234000Y-123190000D02*
X88646000Y-123190000D01*
X88646000Y-123190000D02*
X88646000Y-125730000D01*
X64008000Y-118872000D02*
X73152000Y-118872000D01*
X64008000Y-121412000D02*
X73152000Y-121412000D01*
X73152000Y-121412000D02*
X73152000Y-118872000D01*
X64008000Y-118872000D02*
X64008000Y-121412000D01*
X105612000Y-127198000D02*
X109422000Y-127198000D01*
X109422000Y-127198000D02*
X109422000Y-124658000D01*
X109422000Y-124658000D02*
X105612000Y-124658000D01*
X105612000Y-124658000D02*
X105612000Y-127198000D01*
X100306095Y-133040381D02*
X100306095Y-132040381D01*
X99925142Y-132040381D01*
X99829904Y-132088000D01*
X99782285Y-132135619D01*
X99734666Y-132230857D01*
X99734666Y-132373714D01*
X99782285Y-132468952D01*
X99829904Y-132516571D01*
X99925142Y-132564190D01*
X100306095Y-132564190D01*
X99353714Y-132135619D02*
X99306095Y-132088000D01*
X99210857Y-132040381D01*
X98972761Y-132040381D01*
X98877523Y-132088000D01*
X98829904Y-132135619D01*
X98782285Y-132230857D01*
X98782285Y-132326095D01*
X98829904Y-132468952D01*
X99401333Y-133040381D01*
X98782285Y-133040381D01*
X68556095Y-107640381D02*
X68556095Y-106640381D01*
X68175142Y-106640381D01*
X68079904Y-106688000D01*
X68032285Y-106735619D01*
X67984666Y-106830857D01*
X67984666Y-106973714D01*
X68032285Y-107068952D01*
X68079904Y-107116571D01*
X68175142Y-107164190D01*
X68556095Y-107164190D01*
X67032285Y-107640381D02*
X67603714Y-107640381D01*
X67318000Y-107640381D02*
X67318000Y-106640381D01*
X67413238Y-106783238D01*
X67508476Y-106878476D01*
X67603714Y-106926095D01*
X109450095Y-120086381D02*
X109450095Y-119086381D01*
X109069142Y-119086381D01*
X108973904Y-119134000D01*
X108926285Y-119181619D01*
X108878666Y-119276857D01*
X108878666Y-119419714D01*
X108926285Y-119514952D01*
X108973904Y-119562571D01*
X109069142Y-119610190D01*
X109450095Y-119610190D01*
X108021523Y-119419714D02*
X108021523Y-120086381D01*
X108259619Y-119038762D02*
X108497714Y-119753048D01*
X107878666Y-119753048D01*
M02*
