G04 #@! TF.FileFunction,Legend,Bot*
%FSLAX46Y46*%
G04 Gerber Fmt 4.6, Leading zero omitted, Abs format (unit mm)*
G04 Created by KiCad (PCBNEW 4.0.5+dfsg1-4) date Thu Oct 18 19:18:12 2018*
%MOMM*%
%LPD*%
G01*
G04 APERTURE LIST*
%ADD10C,0.100000*%
%ADD11C,0.150000*%
%ADD12C,0.250000*%
G04 APERTURE END LIST*
D10*
D11*
X88646000Y-125730000D02*
X94234000Y-125730000D01*
X94234000Y-125730000D02*
X94234000Y-123190000D01*
X94234000Y-123190000D02*
X88646000Y-123190000D01*
X88646000Y-123190000D02*
X88646000Y-125730000D01*
X64008000Y-118872000D02*
X73152000Y-118872000D01*
X64008000Y-121412000D02*
X73152000Y-121412000D01*
X73152000Y-121412000D02*
X73152000Y-118872000D01*
X64008000Y-118872000D02*
X64008000Y-121412000D01*
X105612000Y-127198000D02*
X109422000Y-127198000D01*
X109422000Y-127198000D02*
X109422000Y-124658000D01*
X109422000Y-124658000D02*
X105612000Y-124658000D01*
X105612000Y-124658000D02*
X105612000Y-127198000D01*
X117283000Y-130791000D02*
X117283000Y-130541000D01*
X125033000Y-130791000D02*
X125033000Y-130446000D01*
X125033000Y-112541000D02*
X125033000Y-112886000D01*
X117283000Y-112541000D02*
X117283000Y-112886000D01*
X117283000Y-130791000D02*
X125033000Y-130791000D01*
X117283000Y-112541000D02*
X125033000Y-112541000D01*
X117283000Y-130541000D02*
X115458000Y-130541000D01*
D12*
X152603200Y-136499600D02*
X152603200Y-155295600D01*
X152603200Y-155295600D02*
X59131200Y-155295600D01*
X59131200Y-155295600D02*
X59131200Y-136499600D01*
X59131200Y-136499600D02*
X152603200Y-136499600D01*
X94183200Y-149326600D02*
X89103200Y-149326600D01*
X94183200Y-154406600D02*
X94183200Y-149326600D01*
X89103200Y-154406600D02*
X89103200Y-149326600D01*
X94183200Y-154406600D02*
X89103200Y-154406600D01*
X65735200Y-154406600D02*
X60655200Y-154406600D01*
X60655200Y-154406600D02*
X60655200Y-149326600D01*
X65735200Y-154406600D02*
X65735200Y-149326600D01*
X65735200Y-149326600D02*
X60655200Y-149326600D01*
X79959200Y-154406600D02*
X74879200Y-154406600D01*
X74879200Y-154406600D02*
X74879200Y-149326600D01*
X79959200Y-154406600D02*
X79959200Y-149326600D01*
X79959200Y-149326600D02*
X74879200Y-149326600D01*
X72847200Y-149326600D02*
X67767200Y-149326600D01*
X72847200Y-154406600D02*
X72847200Y-149326600D01*
X67767200Y-154406600D02*
X67767200Y-149326600D01*
X72847200Y-154406600D02*
X67767200Y-154406600D01*
X87071200Y-154406600D02*
X81991200Y-154406600D01*
X81991200Y-154406600D02*
X81991200Y-149326600D01*
X87071200Y-154406600D02*
X87071200Y-149326600D01*
X87071200Y-149326600D02*
X81991200Y-149326600D01*
X122631200Y-149326600D02*
X117551200Y-149326600D01*
X122631200Y-154406600D02*
X122631200Y-149326600D01*
X117551200Y-154406600D02*
X117551200Y-149326600D01*
X122631200Y-154406600D02*
X117551200Y-154406600D01*
X108407200Y-154406600D02*
X103327200Y-154406600D01*
X103327200Y-154406600D02*
X103327200Y-149326600D01*
X108407200Y-154406600D02*
X108407200Y-149326600D01*
X108407200Y-149326600D02*
X103327200Y-149326600D01*
X115519200Y-149326600D02*
X110439200Y-149326600D01*
X115519200Y-154406600D02*
X115519200Y-149326600D01*
X110439200Y-154406600D02*
X110439200Y-149326600D01*
X115519200Y-154406600D02*
X110439200Y-154406600D01*
X101295200Y-149326600D02*
X96215200Y-149326600D01*
X101295200Y-154406600D02*
X101295200Y-149326600D01*
X96215200Y-154406600D02*
X96215200Y-149326600D01*
X101295200Y-154406600D02*
X96215200Y-154406600D01*
X129743200Y-154406600D02*
X124663200Y-154406600D01*
X124663200Y-154406600D02*
X124663200Y-149326600D01*
X129743200Y-154406600D02*
X129743200Y-149326600D01*
X129743200Y-149326600D02*
X124663200Y-149326600D01*
X143967200Y-154406600D02*
X138887200Y-154406600D01*
X138887200Y-154406600D02*
X138887200Y-149326600D01*
X143967200Y-154406600D02*
X143967200Y-149326600D01*
X143967200Y-149326600D02*
X138887200Y-149326600D01*
X136855200Y-149326600D02*
X131775200Y-149326600D01*
X136855200Y-154406600D02*
X136855200Y-149326600D01*
X131775200Y-154406600D02*
X131775200Y-149326600D01*
X136855200Y-154406600D02*
X131775200Y-154406600D01*
X151079200Y-154406600D02*
X145999200Y-154406600D01*
X145999200Y-154406600D02*
X145999200Y-149326600D01*
X151079200Y-154406600D02*
X151079200Y-149326600D01*
X151079200Y-149326600D02*
X145999200Y-149326600D01*
X151079200Y-143230600D02*
X145999200Y-143230600D01*
X151079200Y-148310600D02*
X151079200Y-143230600D01*
X145999200Y-148310600D02*
X145999200Y-143230600D01*
X151079200Y-148310600D02*
X145999200Y-148310600D01*
X136855200Y-148310600D02*
X131775200Y-148310600D01*
X131775200Y-148310600D02*
X131775200Y-143230600D01*
X136855200Y-148310600D02*
X136855200Y-143230600D01*
X136855200Y-143230600D02*
X131775200Y-143230600D01*
X143967200Y-143230600D02*
X138887200Y-143230600D01*
X143967200Y-148310600D02*
X143967200Y-143230600D01*
X138887200Y-148310600D02*
X138887200Y-143230600D01*
X143967200Y-148310600D02*
X138887200Y-148310600D01*
X129743200Y-143230600D02*
X124663200Y-143230600D01*
X129743200Y-148310600D02*
X129743200Y-143230600D01*
X124663200Y-148310600D02*
X124663200Y-143230600D01*
X129743200Y-148310600D02*
X124663200Y-148310600D01*
X101295200Y-148310600D02*
X96215200Y-148310600D01*
X96215200Y-148310600D02*
X96215200Y-143230600D01*
X101295200Y-148310600D02*
X101295200Y-143230600D01*
X101295200Y-143230600D02*
X96215200Y-143230600D01*
X115519200Y-148310600D02*
X110439200Y-148310600D01*
X110439200Y-148310600D02*
X110439200Y-143230600D01*
X115519200Y-148310600D02*
X115519200Y-143230600D01*
X115519200Y-143230600D02*
X110439200Y-143230600D01*
X108407200Y-143230600D02*
X103327200Y-143230600D01*
X108407200Y-148310600D02*
X108407200Y-143230600D01*
X103327200Y-148310600D02*
X103327200Y-143230600D01*
X108407200Y-148310600D02*
X103327200Y-148310600D01*
X122631200Y-148310600D02*
X117551200Y-148310600D01*
X117551200Y-148310600D02*
X117551200Y-143230600D01*
X122631200Y-148310600D02*
X122631200Y-143230600D01*
X122631200Y-143230600D02*
X117551200Y-143230600D01*
X87071200Y-143230600D02*
X81991200Y-143230600D01*
X87071200Y-148310600D02*
X87071200Y-143230600D01*
X81991200Y-148310600D02*
X81991200Y-143230600D01*
X87071200Y-148310600D02*
X81991200Y-148310600D01*
X72847200Y-148310600D02*
X67767200Y-148310600D01*
X67767200Y-148310600D02*
X67767200Y-143230600D01*
X72847200Y-148310600D02*
X72847200Y-143230600D01*
X72847200Y-143230600D02*
X67767200Y-143230600D01*
X79959200Y-143230600D02*
X74879200Y-143230600D01*
X79959200Y-148310600D02*
X79959200Y-143230600D01*
X74879200Y-148310600D02*
X74879200Y-143230600D01*
X79959200Y-148310600D02*
X74879200Y-148310600D01*
X65735200Y-143230600D02*
X60655200Y-143230600D01*
X65735200Y-148310600D02*
X65735200Y-143230600D01*
X60655200Y-148310600D02*
X60655200Y-143230600D01*
X65735200Y-148310600D02*
X60655200Y-148310600D01*
X94183200Y-148310600D02*
X89103200Y-148310600D01*
X89103200Y-148310600D02*
X89103200Y-143230600D01*
X94183200Y-148310600D02*
X94183200Y-143230600D01*
X94183200Y-143230600D02*
X89103200Y-143230600D01*
X94183200Y-137261600D02*
X89103200Y-137261600D01*
X94183200Y-142341600D02*
X94183200Y-137261600D01*
X89103200Y-142341600D02*
X89103200Y-137261600D01*
X94183200Y-142341600D02*
X89103200Y-142341600D01*
X65735200Y-142341600D02*
X60655200Y-142341600D01*
X60655200Y-142341600D02*
X60655200Y-137261600D01*
X65735200Y-142341600D02*
X65735200Y-137261600D01*
X65735200Y-137261600D02*
X60655200Y-137261600D01*
X79959200Y-142341600D02*
X74879200Y-142341600D01*
X74879200Y-142341600D02*
X74879200Y-137261600D01*
X79959200Y-142341600D02*
X79959200Y-137261600D01*
X79959200Y-137261600D02*
X74879200Y-137261600D01*
X72847200Y-137261600D02*
X67767200Y-137261600D01*
X72847200Y-142341600D02*
X72847200Y-137261600D01*
X67767200Y-142341600D02*
X67767200Y-137261600D01*
X72847200Y-142341600D02*
X67767200Y-142341600D01*
X87071200Y-142341600D02*
X81991200Y-142341600D01*
X81991200Y-142341600D02*
X81991200Y-137261600D01*
X87071200Y-142341600D02*
X87071200Y-137261600D01*
X87071200Y-137261600D02*
X81991200Y-137261600D01*
X122631200Y-137261600D02*
X117551200Y-137261600D01*
X122631200Y-142341600D02*
X122631200Y-137261600D01*
X117551200Y-142341600D02*
X117551200Y-137261600D01*
X122631200Y-142341600D02*
X117551200Y-142341600D01*
X108407200Y-142341600D02*
X103327200Y-142341600D01*
X103327200Y-142341600D02*
X103327200Y-137261600D01*
X108407200Y-142341600D02*
X108407200Y-137261600D01*
X108407200Y-137261600D02*
X103327200Y-137261600D01*
X115519200Y-137261600D02*
X110439200Y-137261600D01*
X115519200Y-142341600D02*
X115519200Y-137261600D01*
X110439200Y-142341600D02*
X110439200Y-137261600D01*
X115519200Y-142341600D02*
X110439200Y-142341600D01*
X101295200Y-137261600D02*
X96215200Y-137261600D01*
X101295200Y-142341600D02*
X101295200Y-137261600D01*
X96215200Y-142341600D02*
X96215200Y-137261600D01*
X101295200Y-142341600D02*
X96215200Y-142341600D01*
X129743200Y-142341600D02*
X124663200Y-142341600D01*
X124663200Y-142341600D02*
X124663200Y-137261600D01*
X129743200Y-142341600D02*
X129743200Y-137261600D01*
X129743200Y-137261600D02*
X124663200Y-137261600D01*
X143967200Y-142341600D02*
X138887200Y-142341600D01*
X138887200Y-142341600D02*
X138887200Y-137261600D01*
X143967200Y-142341600D02*
X143967200Y-137261600D01*
X143967200Y-137261600D02*
X138887200Y-137261600D01*
X136855200Y-137261600D02*
X131775200Y-137261600D01*
X136855200Y-142341600D02*
X136855200Y-137261600D01*
X131775200Y-142341600D02*
X131775200Y-137261600D01*
X136855200Y-142341600D02*
X131775200Y-142341600D01*
X151079200Y-142341600D02*
X145999200Y-142341600D01*
X145999200Y-142341600D02*
X145999200Y-137261600D01*
X151079200Y-142341600D02*
X151079200Y-137261600D01*
X151079200Y-137261600D02*
X145999200Y-137261600D01*
D11*
X100306095Y-133040381D02*
X100306095Y-132040381D01*
X99925142Y-132040381D01*
X99829904Y-132088000D01*
X99782285Y-132135619D01*
X99734666Y-132230857D01*
X99734666Y-132373714D01*
X99782285Y-132468952D01*
X99829904Y-132516571D01*
X99925142Y-132564190D01*
X100306095Y-132564190D01*
X99353714Y-132135619D02*
X99306095Y-132088000D01*
X99210857Y-132040381D01*
X98972761Y-132040381D01*
X98877523Y-132088000D01*
X98829904Y-132135619D01*
X98782285Y-132230857D01*
X98782285Y-132326095D01*
X98829904Y-132468952D01*
X99401333Y-133040381D01*
X98782285Y-133040381D01*
X68556095Y-107640381D02*
X68556095Y-106640381D01*
X68175142Y-106640381D01*
X68079904Y-106688000D01*
X68032285Y-106735619D01*
X67984666Y-106830857D01*
X67984666Y-106973714D01*
X68032285Y-107068952D01*
X68079904Y-107116571D01*
X68175142Y-107164190D01*
X68556095Y-107164190D01*
X67032285Y-107640381D02*
X67603714Y-107640381D01*
X67318000Y-107640381D02*
X67318000Y-106640381D01*
X67413238Y-106783238D01*
X67508476Y-106878476D01*
X67603714Y-106926095D01*
X109450095Y-120086381D02*
X109450095Y-119086381D01*
X109069142Y-119086381D01*
X108973904Y-119134000D01*
X108926285Y-119181619D01*
X108878666Y-119276857D01*
X108878666Y-119419714D01*
X108926285Y-119514952D01*
X108973904Y-119562571D01*
X109069142Y-119610190D01*
X109450095Y-119610190D01*
X108021523Y-119419714D02*
X108021523Y-120086381D01*
X108259619Y-119038762D02*
X108497714Y-119753048D01*
X107878666Y-119753048D01*
X121896095Y-132168381D02*
X121896095Y-131168381D01*
X121515142Y-131168381D01*
X121419904Y-131216000D01*
X121372285Y-131263619D01*
X121324666Y-131358857D01*
X121324666Y-131501714D01*
X121372285Y-131596952D01*
X121419904Y-131644571D01*
X121515142Y-131692190D01*
X121896095Y-131692190D01*
X120419904Y-131168381D02*
X120896095Y-131168381D01*
X120943714Y-131644571D01*
X120896095Y-131596952D01*
X120800857Y-131549333D01*
X120562761Y-131549333D01*
X120467523Y-131596952D01*
X120419904Y-131644571D01*
X120372285Y-131739810D01*
X120372285Y-131977905D01*
X120419904Y-132073143D01*
X120467523Y-132120762D01*
X120562761Y-132168381D01*
X120800857Y-132168381D01*
X120896095Y-132120762D01*
X120943714Y-132073143D01*
X152476105Y-134808981D02*
X152476105Y-135618505D01*
X152428486Y-135713743D01*
X152380867Y-135761362D01*
X152285629Y-135808981D01*
X152095152Y-135808981D01*
X151999914Y-135761362D01*
X151952295Y-135713743D01*
X151904676Y-135618505D01*
X151904676Y-134808981D01*
X150999914Y-135142314D02*
X150999914Y-135808981D01*
X151238010Y-134761362D02*
X151476105Y-135475648D01*
X150857057Y-135475648D01*
X149618010Y-135808981D02*
X149618010Y-134808981D01*
X149046581Y-135808981D01*
X149046581Y-134808981D01*
X148522772Y-135808981D02*
X148332296Y-135808981D01*
X148237057Y-135761362D01*
X148189438Y-135713743D01*
X148094200Y-135570886D01*
X148046581Y-135380410D01*
X148046581Y-134999457D01*
X148094200Y-134904219D01*
X148141819Y-134856600D01*
X148237057Y-134808981D01*
X148427534Y-134808981D01*
X148522772Y-134856600D01*
X148570391Y-134904219D01*
X148618010Y-134999457D01*
X148618010Y-135237552D01*
X148570391Y-135332790D01*
X148522772Y-135380410D01*
X148427534Y-135428029D01*
X148237057Y-135428029D01*
X148141819Y-135380410D01*
X148094200Y-135332790D01*
X148046581Y-135237552D01*
X147427534Y-134808981D02*
X147332295Y-134808981D01*
X147237057Y-134856600D01*
X147189438Y-134904219D01*
X147141819Y-134999457D01*
X147094200Y-135189933D01*
X147094200Y-135428029D01*
X147141819Y-135618505D01*
X147189438Y-135713743D01*
X147237057Y-135761362D01*
X147332295Y-135808981D01*
X147427534Y-135808981D01*
X147522772Y-135761362D01*
X147570391Y-135713743D01*
X147618010Y-135618505D01*
X147665629Y-135428029D01*
X147665629Y-135189933D01*
X147618010Y-134999457D01*
X147570391Y-134904219D01*
X147522772Y-134856600D01*
X147427534Y-134808981D01*
X146475153Y-134808981D02*
X146379914Y-134808981D01*
X146284676Y-134856600D01*
X146237057Y-134904219D01*
X146189438Y-134999457D01*
X146141819Y-135189933D01*
X146141819Y-135428029D01*
X146189438Y-135618505D01*
X146237057Y-135713743D01*
X146284676Y-135761362D01*
X146379914Y-135808981D01*
X146475153Y-135808981D01*
X146570391Y-135761362D01*
X146618010Y-135713743D01*
X146665629Y-135618505D01*
X146713248Y-135428029D01*
X146713248Y-135189933D01*
X146665629Y-134999457D01*
X146618010Y-134904219D01*
X146570391Y-134856600D01*
X146475153Y-134808981D01*
X145951343Y-135904219D02*
X145189438Y-135904219D01*
X144951343Y-135808981D02*
X144951343Y-134808981D01*
X144379914Y-135808981D02*
X144808486Y-135237552D01*
X144379914Y-134808981D02*
X144951343Y-135380410D01*
X143570390Y-135761362D02*
X143665628Y-135808981D01*
X143856105Y-135808981D01*
X143951343Y-135761362D01*
X143998962Y-135666124D01*
X143998962Y-135285171D01*
X143951343Y-135189933D01*
X143856105Y-135142314D01*
X143665628Y-135142314D01*
X143570390Y-135189933D01*
X143522771Y-135285171D01*
X143522771Y-135380410D01*
X143998962Y-135475648D01*
X143189438Y-135142314D02*
X142951343Y-135808981D01*
X142713247Y-135142314D02*
X142951343Y-135808981D01*
X143046581Y-136047076D01*
X143094200Y-136094695D01*
X143189438Y-136142314D01*
X142332295Y-135808981D02*
X142332295Y-134808981D01*
X142332295Y-135189933D02*
X142237057Y-135142314D01*
X142046580Y-135142314D01*
X141951342Y-135189933D01*
X141903723Y-135237552D01*
X141856104Y-135332790D01*
X141856104Y-135618505D01*
X141903723Y-135713743D01*
X141951342Y-135761362D01*
X142046580Y-135808981D01*
X142237057Y-135808981D01*
X142332295Y-135761362D01*
X141284676Y-135808981D02*
X141379914Y-135761362D01*
X141427533Y-135713743D01*
X141475152Y-135618505D01*
X141475152Y-135332790D01*
X141427533Y-135237552D01*
X141379914Y-135189933D01*
X141284676Y-135142314D01*
X141141818Y-135142314D01*
X141046580Y-135189933D01*
X140998961Y-135237552D01*
X140951342Y-135332790D01*
X140951342Y-135618505D01*
X140998961Y-135713743D01*
X141046580Y-135761362D01*
X141141818Y-135808981D01*
X141284676Y-135808981D01*
X140094199Y-135808981D02*
X140094199Y-135285171D01*
X140141818Y-135189933D01*
X140237056Y-135142314D01*
X140427533Y-135142314D01*
X140522771Y-135189933D01*
X140094199Y-135761362D02*
X140189437Y-135808981D01*
X140427533Y-135808981D01*
X140522771Y-135761362D01*
X140570390Y-135666124D01*
X140570390Y-135570886D01*
X140522771Y-135475648D01*
X140427533Y-135428029D01*
X140189437Y-135428029D01*
X140094199Y-135380410D01*
X139618009Y-135808981D02*
X139618009Y-135142314D01*
X139618009Y-135332790D02*
X139570390Y-135237552D01*
X139522771Y-135189933D01*
X139427533Y-135142314D01*
X139332294Y-135142314D01*
X138570389Y-135808981D02*
X138570389Y-134808981D01*
X138570389Y-135761362D02*
X138665627Y-135808981D01*
X138856104Y-135808981D01*
X138951342Y-135761362D01*
X138998961Y-135713743D01*
X139046580Y-135618505D01*
X139046580Y-135332790D01*
X138998961Y-135237552D01*
X138951342Y-135189933D01*
X138856104Y-135142314D01*
X138665627Y-135142314D01*
X138570389Y-135189933D01*
M02*
