G04 #@! TF.FileFunction,Copper,L1,Top,Signal*
%FSLAX46Y46*%
G04 Gerber Fmt 4.6, Leading zero omitted, Abs format (unit mm)*
G04 Created by KiCad (PCBNEW 4.0.5+dfsg1-4) date Fri Oct 12 17:17:42 2018*
%MOMM*%
%LPD*%
G01*
G04 APERTURE LIST*
%ADD10C,0.100000*%
%ADD11R,4.500000X2.000000*%
%ADD12R,2.000000X4.500000*%
%ADD13R,2.000000X2.000000*%
%ADD14R,2.750000X1.000000*%
%ADD15R,6.500000X2.000000*%
%ADD16C,0.500000*%
%ADD17C,0.200000*%
%ADD18C,0.254000*%
G04 APERTURE END LIST*
D10*
D11*
X76136500Y-121151500D03*
X76136500Y-118751500D03*
X61023500Y-121151500D03*
X61023500Y-118751500D03*
D12*
X67380000Y-127508000D03*
X69780000Y-127508000D03*
X69780000Y-112268000D03*
X67380000Y-112268000D03*
D13*
X84836000Y-122936000D03*
X84836000Y-125984000D03*
X89916000Y-125984000D03*
X89916000Y-122936000D03*
X98044000Y-122936000D03*
X98044000Y-125984000D03*
X92964000Y-125984000D03*
X92964000Y-122936000D03*
D14*
X110345000Y-123902000D03*
X104595000Y-123902000D03*
X104595000Y-127902000D03*
X110345000Y-127902000D03*
D15*
X120142000Y-153582000D03*
X120142000Y-150222000D03*
X148590000Y-150222000D03*
X148590000Y-153582000D03*
X134366000Y-150222000D03*
X134366000Y-153582000D03*
X141478000Y-153582000D03*
X141478000Y-150222000D03*
X127254000Y-150222000D03*
X127254000Y-153582000D03*
X91694000Y-153582000D03*
X91694000Y-150222000D03*
X105918000Y-150222000D03*
X105918000Y-153582000D03*
X98806000Y-153582000D03*
X98806000Y-150222000D03*
X113030000Y-153582000D03*
X113030000Y-150222000D03*
X84582000Y-150222000D03*
X84582000Y-153582000D03*
X70358000Y-150222000D03*
X70358000Y-153582000D03*
X77470000Y-153582000D03*
X77470000Y-150222000D03*
X63246000Y-150222000D03*
X63246000Y-153582000D03*
X63246000Y-147486000D03*
X63246000Y-144126000D03*
X77470000Y-144126000D03*
X77470000Y-147486000D03*
X70358000Y-147486000D03*
X70358000Y-144126000D03*
X84582000Y-147486000D03*
X84582000Y-144126000D03*
X113030000Y-144126000D03*
X113030000Y-147486000D03*
X98806000Y-144126000D03*
X98806000Y-147486000D03*
X105918000Y-147486000D03*
X105918000Y-144126000D03*
X91694000Y-144126000D03*
X91694000Y-147486000D03*
X127254000Y-147486000D03*
X127254000Y-144126000D03*
X141478000Y-144126000D03*
X141478000Y-147486000D03*
X134366000Y-147486000D03*
X134366000Y-144126000D03*
X148590000Y-147486000D03*
X148590000Y-144126000D03*
X120142000Y-144126000D03*
X120142000Y-147486000D03*
X120142000Y-141517000D03*
X120142000Y-138157000D03*
X148590000Y-138157000D03*
X148590000Y-141517000D03*
X134366000Y-138157000D03*
X134366000Y-141517000D03*
X141478000Y-141517000D03*
X141478000Y-138157000D03*
X127254000Y-138157000D03*
X127254000Y-141517000D03*
X91694000Y-141517000D03*
X91694000Y-138157000D03*
X105918000Y-138157000D03*
X105918000Y-141517000D03*
X98806000Y-141517000D03*
X98806000Y-138157000D03*
X113030000Y-141517000D03*
X113030000Y-138157000D03*
X84582000Y-138157000D03*
X84582000Y-141517000D03*
X70358000Y-138157000D03*
X70358000Y-141517000D03*
X77470000Y-141517000D03*
X77470000Y-138157000D03*
X63246000Y-138157000D03*
X63246000Y-141517000D03*
D16*
X65024000Y-120142000D03*
X68580000Y-120142000D03*
X66802000Y-120142000D03*
X70358000Y-120142000D03*
X72136000Y-120142000D03*
X91440000Y-122936000D03*
X88900000Y-125984000D03*
X93980000Y-125984000D03*
X104648000Y-124206000D03*
X110490000Y-127508000D03*
X120142000Y-150222000D03*
X120142000Y-144272000D03*
X120142000Y-144126000D03*
X120142000Y-138176000D03*
X148590000Y-150222000D03*
X148590000Y-144272000D03*
X148590000Y-144126000D03*
X148590000Y-138176000D03*
X134366000Y-150222000D03*
X134366000Y-144272000D03*
X134366000Y-144126000D03*
X134366000Y-138176000D03*
X134366000Y-138157000D03*
X141478000Y-150222000D03*
X141478000Y-144272000D03*
X141478000Y-144126000D03*
X141478000Y-138176000D03*
X127254000Y-150222000D03*
X127254000Y-144272000D03*
X127254000Y-144126000D03*
X127254000Y-138176000D03*
X91694000Y-150222000D03*
X91694000Y-144272000D03*
X91694000Y-144126000D03*
X91694000Y-138176000D03*
X105918000Y-150222000D03*
X105918000Y-144272000D03*
X105918000Y-144126000D03*
X105918000Y-138176000D03*
X98806000Y-150222000D03*
X98806000Y-144272000D03*
X98806000Y-144126000D03*
X98806000Y-138176000D03*
X113030000Y-150222000D03*
X113030000Y-144272000D03*
X113030000Y-144126000D03*
X113030000Y-138176000D03*
X84582000Y-150222000D03*
X84582000Y-144272000D03*
X84582000Y-144126000D03*
X84582000Y-138176000D03*
X70358000Y-150222000D03*
X70358000Y-144272000D03*
X70358000Y-144126000D03*
X70358000Y-138176000D03*
X77470000Y-150222000D03*
X77470000Y-144272000D03*
X77470000Y-144126000D03*
X77470000Y-138176000D03*
X63246000Y-150222000D03*
X63246000Y-144272000D03*
X63246000Y-144126000D03*
X63246000Y-138176000D03*
D17*
X61023500Y-121151500D02*
X64014500Y-121151500D01*
X64014500Y-121151500D02*
X65024000Y-120142000D01*
X69780000Y-127508000D02*
X69780000Y-123374000D01*
X68580000Y-122174000D02*
X68580000Y-120142000D01*
X69780000Y-123374000D02*
X68580000Y-122174000D01*
X67380000Y-112268000D02*
X67380000Y-119564000D01*
X67380000Y-119564000D02*
X66802000Y-120142000D01*
X76136500Y-118751500D02*
X70732500Y-118751500D01*
X70358000Y-119126000D02*
X70358000Y-120142000D01*
X70732500Y-118751500D02*
X70358000Y-119126000D01*
X67380000Y-127508000D02*
X59182000Y-127508000D01*
X57537500Y-118751500D02*
X61023500Y-118751500D01*
X57404000Y-118618000D02*
X57537500Y-118751500D01*
X57404000Y-125730000D02*
X57404000Y-118618000D01*
X59182000Y-127508000D02*
X57404000Y-125730000D01*
X61023500Y-118751500D02*
X61976000Y-117799000D01*
X61976000Y-117799000D02*
X61976000Y-110236000D01*
X61976000Y-110236000D02*
X63246000Y-108966000D01*
X63246000Y-108966000D02*
X69596000Y-108966000D01*
X69596000Y-108966000D02*
X69780000Y-109150000D01*
X69780000Y-109150000D02*
X69780000Y-112268000D01*
X76136500Y-121151500D02*
X76136500Y-130365500D01*
X67380000Y-130372000D02*
X67380000Y-127508000D01*
X67818000Y-130810000D02*
X67380000Y-130372000D01*
X75692000Y-130810000D02*
X67818000Y-130810000D01*
X76136500Y-130365500D02*
X75692000Y-130810000D01*
X76136500Y-121151500D02*
X73145500Y-121151500D01*
X73145500Y-121151500D02*
X72136000Y-120142000D01*
X84836000Y-122936000D02*
X89916000Y-122936000D01*
X89916000Y-122936000D02*
X91440000Y-122936000D01*
X91440000Y-122936000D02*
X92964000Y-122936000D01*
X92964000Y-122936000D02*
X98044000Y-122936000D01*
X84836000Y-125984000D02*
X88900000Y-125984000D01*
X88900000Y-125984000D02*
X89916000Y-125984000D01*
X89916000Y-125984000D02*
X89662000Y-126238000D01*
X92964000Y-125984000D02*
X93980000Y-125984000D01*
X93980000Y-125984000D02*
X98044000Y-125984000D01*
X93218000Y-126238000D02*
X93472000Y-125984000D01*
X104648000Y-124206000D02*
X104595000Y-124153000D01*
X104595000Y-124153000D02*
X104595000Y-123902000D01*
X104595000Y-123902000D02*
X110345000Y-123902000D01*
X110490000Y-127508000D02*
X110345000Y-127653000D01*
X110345000Y-127653000D02*
X110345000Y-127902000D01*
X104595000Y-127902000D02*
X110345000Y-127902000D01*
X63246000Y-153582000D02*
X70358000Y-153582000D01*
X70358000Y-153582000D02*
X77470000Y-153582000D01*
X77470000Y-153582000D02*
X84582000Y-153582000D01*
X84582000Y-153582000D02*
X91694000Y-153582000D01*
X91694000Y-153582000D02*
X98806000Y-153582000D01*
X98806000Y-153582000D02*
X105918000Y-153582000D01*
X105918000Y-153582000D02*
X113030000Y-153582000D01*
X113030000Y-153582000D02*
X120142000Y-153582000D01*
X120142000Y-153582000D02*
X127254000Y-153582000D01*
X127254000Y-153582000D02*
X134366000Y-153582000D01*
X134366000Y-153582000D02*
X141478000Y-153582000D01*
X141478000Y-153582000D02*
X148590000Y-153582000D01*
X120142000Y-144126000D02*
X120142000Y-144272000D01*
X120142000Y-138176000D02*
X120142000Y-138157000D01*
X148590000Y-144126000D02*
X148590000Y-144272000D01*
X148590000Y-138176000D02*
X148590000Y-138157000D01*
X134366000Y-144126000D02*
X134366000Y-144272000D01*
X134366000Y-138176000D02*
X134366000Y-138157000D01*
X141478000Y-144126000D02*
X141478000Y-144272000D01*
X141478000Y-138176000D02*
X141478000Y-138157000D01*
X127254000Y-144126000D02*
X127254000Y-144272000D01*
X127254000Y-138176000D02*
X127254000Y-138157000D01*
X91694000Y-144126000D02*
X91694000Y-144272000D01*
X91694000Y-138176000D02*
X91694000Y-138157000D01*
X105918000Y-144126000D02*
X105918000Y-144272000D01*
X105918000Y-138176000D02*
X105918000Y-138157000D01*
X98806000Y-144126000D02*
X98806000Y-144272000D01*
X98806000Y-138176000D02*
X98806000Y-138157000D01*
X113030000Y-144126000D02*
X113030000Y-144272000D01*
X113030000Y-138176000D02*
X113030000Y-138157000D01*
X84582000Y-144126000D02*
X84582000Y-144272000D01*
X84582000Y-138176000D02*
X84582000Y-138157000D01*
X70358000Y-144126000D02*
X70358000Y-144272000D01*
X70358000Y-138176000D02*
X70358000Y-138157000D01*
X77470000Y-144126000D02*
X77470000Y-144272000D01*
X77470000Y-138176000D02*
X77470000Y-138157000D01*
X63246000Y-144126000D02*
X63246000Y-144272000D01*
X63246000Y-138176000D02*
X63246000Y-138157000D01*
X148590000Y-147486000D02*
X141478000Y-147486000D01*
X141478000Y-147486000D02*
X134366000Y-147486000D01*
X134366000Y-147486000D02*
X127254000Y-147486000D01*
X127254000Y-147486000D02*
X120142000Y-147486000D01*
X120142000Y-147486000D02*
X113030000Y-147486000D01*
X113030000Y-147486000D02*
X105918000Y-147486000D01*
X105918000Y-147486000D02*
X98806000Y-147486000D01*
X98806000Y-147486000D02*
X91694000Y-147486000D01*
X91694000Y-147486000D02*
X84582000Y-147486000D01*
X84582000Y-147486000D02*
X77470000Y-147486000D01*
X77470000Y-147486000D02*
X70358000Y-147486000D01*
X70358000Y-147486000D02*
X63246000Y-147486000D01*
X63246000Y-141517000D02*
X70358000Y-141517000D01*
X70358000Y-141517000D02*
X77470000Y-141517000D01*
X77470000Y-141517000D02*
X84582000Y-141517000D01*
X84582000Y-141517000D02*
X91694000Y-141517000D01*
X91694000Y-141517000D02*
X98806000Y-141517000D01*
X98806000Y-141517000D02*
X105918000Y-141517000D01*
X105918000Y-141517000D02*
X113030000Y-141517000D01*
X113030000Y-141517000D02*
X120142000Y-141517000D01*
X120142000Y-141517000D02*
X127254000Y-141517000D01*
X127254000Y-141517000D02*
X134366000Y-141517000D01*
X134366000Y-141517000D02*
X141478000Y-141517000D01*
X141478000Y-141517000D02*
X148590000Y-141517000D01*
D18*
G36*
X78090345Y-109078345D02*
X77813318Y-109492945D01*
X77716039Y-109982000D01*
X77813318Y-110471055D01*
X78090345Y-110885655D01*
X78504945Y-111162682D01*
X78994000Y-111259961D01*
X79483055Y-111162682D01*
X79897655Y-110885655D01*
X80062000Y-110639695D01*
X80062000Y-129136305D01*
X79897655Y-128890345D01*
X79483055Y-128613318D01*
X78994000Y-128516039D01*
X78504945Y-128613318D01*
X78090345Y-128890345D01*
X77813318Y-129304945D01*
X77716039Y-129794000D01*
X77813318Y-130283055D01*
X78090345Y-130697655D01*
X78336305Y-130862000D01*
X58823695Y-130862000D01*
X59069655Y-130697655D01*
X59346682Y-130283055D01*
X59443961Y-129794000D01*
X59346682Y-129304945D01*
X59069655Y-128890345D01*
X58655055Y-128613318D01*
X58166000Y-128516039D01*
X57676945Y-128613318D01*
X57262345Y-128890345D01*
X57098000Y-129136305D01*
X57098000Y-127793750D01*
X65745000Y-127793750D01*
X65745000Y-129884310D01*
X65841673Y-130117699D01*
X66020302Y-130296327D01*
X66253691Y-130393000D01*
X67094250Y-130393000D01*
X67253000Y-130234250D01*
X67253000Y-127635000D01*
X65903750Y-127635000D01*
X65745000Y-127793750D01*
X57098000Y-127793750D01*
X57098000Y-125131690D01*
X65745000Y-125131690D01*
X65745000Y-127222250D01*
X65903750Y-127381000D01*
X67253000Y-127381000D01*
X67253000Y-124781750D01*
X67094250Y-124623000D01*
X66253691Y-124623000D01*
X66020302Y-124719673D01*
X65841673Y-124898301D01*
X65745000Y-125131690D01*
X57098000Y-125131690D01*
X57098000Y-120151500D01*
X58126060Y-120151500D01*
X58126060Y-122151500D01*
X58170338Y-122386817D01*
X58309410Y-122602941D01*
X58521610Y-122747931D01*
X58773500Y-122798940D01*
X63273500Y-122798940D01*
X63508817Y-122754662D01*
X63724941Y-122615590D01*
X63869931Y-122403390D01*
X63920940Y-122151500D01*
X63920940Y-121886500D01*
X64014500Y-121886500D01*
X64295772Y-121830551D01*
X64534223Y-121671223D01*
X65178312Y-121027135D01*
X65199265Y-121027153D01*
X65524657Y-120892704D01*
X65773829Y-120643967D01*
X65908846Y-120318810D01*
X65909153Y-119966735D01*
X65774704Y-119641343D01*
X65525967Y-119392171D01*
X65200810Y-119257154D01*
X64848735Y-119256847D01*
X64523343Y-119391296D01*
X64274171Y-119640033D01*
X64139154Y-119965190D01*
X64139135Y-119987419D01*
X63920940Y-120205614D01*
X63920940Y-120151500D01*
X63881642Y-119942650D01*
X63908500Y-119877809D01*
X63908500Y-119037250D01*
X63749750Y-118878500D01*
X61150500Y-118878500D01*
X61150500Y-118898500D01*
X60896500Y-118898500D01*
X60896500Y-118878500D01*
X58297250Y-118878500D01*
X58138500Y-119037250D01*
X58138500Y-119877809D01*
X58167370Y-119947507D01*
X58126060Y-120151500D01*
X57098000Y-120151500D01*
X57098000Y-117625191D01*
X58138500Y-117625191D01*
X58138500Y-118465750D01*
X58297250Y-118624500D01*
X60896500Y-118624500D01*
X60896500Y-117275250D01*
X61150500Y-117275250D01*
X61150500Y-118624500D01*
X63749750Y-118624500D01*
X63908500Y-118465750D01*
X63908500Y-117625191D01*
X63811827Y-117391802D01*
X63633199Y-117213173D01*
X63399810Y-117116500D01*
X61309250Y-117116500D01*
X61150500Y-117275250D01*
X60896500Y-117275250D01*
X60737750Y-117116500D01*
X58647190Y-117116500D01*
X58413801Y-117213173D01*
X58235173Y-117391802D01*
X58138500Y-117625191D01*
X57098000Y-117625191D01*
X57098000Y-110639695D01*
X57262345Y-110885655D01*
X57676945Y-111162682D01*
X58166000Y-111259961D01*
X58655055Y-111162682D01*
X59069655Y-110885655D01*
X59346682Y-110471055D01*
X59436800Y-110018000D01*
X65732560Y-110018000D01*
X65732560Y-114518000D01*
X65776838Y-114753317D01*
X65915910Y-114969441D01*
X66128110Y-115114431D01*
X66380000Y-115165440D01*
X66645000Y-115165440D01*
X66645000Y-119256863D01*
X66626735Y-119256847D01*
X66301343Y-119391296D01*
X66052171Y-119640033D01*
X65917154Y-119965190D01*
X65916847Y-120317265D01*
X66051296Y-120642657D01*
X66300033Y-120891829D01*
X66625190Y-121026846D01*
X66977265Y-121027153D01*
X67302657Y-120892704D01*
X67551829Y-120643967D01*
X67686846Y-120318810D01*
X67686865Y-120296581D01*
X67694872Y-120288575D01*
X67694847Y-120317265D01*
X67829296Y-120642657D01*
X67845000Y-120658388D01*
X67845000Y-122174000D01*
X67890629Y-122403390D01*
X67900949Y-122455272D01*
X68060277Y-122693723D01*
X69045000Y-123678447D01*
X69045000Y-124610560D01*
X68780000Y-124610560D01*
X68571150Y-124649858D01*
X68506309Y-124623000D01*
X67665750Y-124623000D01*
X67507000Y-124781750D01*
X67507000Y-127381000D01*
X67527000Y-127381000D01*
X67527000Y-127635000D01*
X67507000Y-127635000D01*
X67507000Y-130234250D01*
X67665750Y-130393000D01*
X68506309Y-130393000D01*
X68576007Y-130364130D01*
X68780000Y-130405440D01*
X70780000Y-130405440D01*
X71015317Y-130361162D01*
X71231441Y-130222090D01*
X71376431Y-130009890D01*
X71427440Y-129758000D01*
X71427440Y-125258000D01*
X71383162Y-125022683D01*
X71244090Y-124806559D01*
X71031890Y-124661569D01*
X70780000Y-124610560D01*
X70515000Y-124610560D01*
X70515000Y-123374000D01*
X70459051Y-123092728D01*
X70336288Y-122909000D01*
X70299723Y-122854276D01*
X69315000Y-121869554D01*
X69315000Y-121437250D01*
X73251500Y-121437250D01*
X73251500Y-122277809D01*
X73348173Y-122511198D01*
X73526801Y-122689827D01*
X73760190Y-122786500D01*
X75850750Y-122786500D01*
X76009500Y-122627750D01*
X76009500Y-121278500D01*
X76263500Y-121278500D01*
X76263500Y-122627750D01*
X76422250Y-122786500D01*
X78512810Y-122786500D01*
X78746199Y-122689827D01*
X78924827Y-122511198D01*
X79021500Y-122277809D01*
X79021500Y-121437250D01*
X78862750Y-121278500D01*
X76263500Y-121278500D01*
X76009500Y-121278500D01*
X73410250Y-121278500D01*
X73251500Y-121437250D01*
X69315000Y-121437250D01*
X69315000Y-120658770D01*
X69329829Y-120643967D01*
X69464846Y-120318810D01*
X69464847Y-120317265D01*
X69472847Y-120317265D01*
X69607296Y-120642657D01*
X69856033Y-120891829D01*
X70181190Y-121026846D01*
X70533265Y-121027153D01*
X70858657Y-120892704D01*
X71107829Y-120643967D01*
X71242846Y-120318810D01*
X71243153Y-119966735D01*
X71108704Y-119641343D01*
X71093000Y-119625612D01*
X71093000Y-119486500D01*
X73239060Y-119486500D01*
X73239060Y-119751500D01*
X73278358Y-119960350D01*
X73251500Y-120025191D01*
X73251500Y-120865750D01*
X73410250Y-121024500D01*
X76009500Y-121024500D01*
X76009500Y-121004500D01*
X76263500Y-121004500D01*
X76263500Y-121024500D01*
X78862750Y-121024500D01*
X79021500Y-120865750D01*
X79021500Y-120025191D01*
X78992630Y-119955493D01*
X79033940Y-119751500D01*
X79033940Y-117751500D01*
X78989662Y-117516183D01*
X78850590Y-117300059D01*
X78638390Y-117155069D01*
X78386500Y-117104060D01*
X73886500Y-117104060D01*
X73651183Y-117148338D01*
X73435059Y-117287410D01*
X73290069Y-117499610D01*
X73239060Y-117751500D01*
X73239060Y-118016500D01*
X70732500Y-118016500D01*
X70451228Y-118072449D01*
X70212777Y-118231777D01*
X69838277Y-118606277D01*
X69678949Y-118844728D01*
X69623000Y-119126000D01*
X69623000Y-119625230D01*
X69608171Y-119640033D01*
X69473154Y-119965190D01*
X69472847Y-120317265D01*
X69464847Y-120317265D01*
X69465153Y-119966735D01*
X69330704Y-119641343D01*
X69081967Y-119392171D01*
X68756810Y-119257154D01*
X68404735Y-119256847D01*
X68115000Y-119376563D01*
X68115000Y-115165440D01*
X68380000Y-115165440D01*
X68588850Y-115126142D01*
X68653691Y-115153000D01*
X69494250Y-115153000D01*
X69653000Y-114994250D01*
X69653000Y-112395000D01*
X69907000Y-112395000D01*
X69907000Y-114994250D01*
X70065750Y-115153000D01*
X70906309Y-115153000D01*
X71139698Y-115056327D01*
X71318327Y-114877699D01*
X71415000Y-114644310D01*
X71415000Y-112553750D01*
X71256250Y-112395000D01*
X69907000Y-112395000D01*
X69653000Y-112395000D01*
X69633000Y-112395000D01*
X69633000Y-112141000D01*
X69653000Y-112141000D01*
X69653000Y-109541750D01*
X69907000Y-109541750D01*
X69907000Y-112141000D01*
X71256250Y-112141000D01*
X71415000Y-111982250D01*
X71415000Y-109891690D01*
X71318327Y-109658301D01*
X71139698Y-109479673D01*
X70906309Y-109383000D01*
X70065750Y-109383000D01*
X69907000Y-109541750D01*
X69653000Y-109541750D01*
X69494250Y-109383000D01*
X68653691Y-109383000D01*
X68583993Y-109411870D01*
X68380000Y-109370560D01*
X66380000Y-109370560D01*
X66144683Y-109414838D01*
X65928559Y-109553910D01*
X65783569Y-109766110D01*
X65732560Y-110018000D01*
X59436800Y-110018000D01*
X59443961Y-109982000D01*
X59346682Y-109492945D01*
X59069655Y-109078345D01*
X58823695Y-108914000D01*
X78336305Y-108914000D01*
X78090345Y-109078345D01*
X78090345Y-109078345D01*
G37*
X78090345Y-109078345D02*
X77813318Y-109492945D01*
X77716039Y-109982000D01*
X77813318Y-110471055D01*
X78090345Y-110885655D01*
X78504945Y-111162682D01*
X78994000Y-111259961D01*
X79483055Y-111162682D01*
X79897655Y-110885655D01*
X80062000Y-110639695D01*
X80062000Y-129136305D01*
X79897655Y-128890345D01*
X79483055Y-128613318D01*
X78994000Y-128516039D01*
X78504945Y-128613318D01*
X78090345Y-128890345D01*
X77813318Y-129304945D01*
X77716039Y-129794000D01*
X77813318Y-130283055D01*
X78090345Y-130697655D01*
X78336305Y-130862000D01*
X58823695Y-130862000D01*
X59069655Y-130697655D01*
X59346682Y-130283055D01*
X59443961Y-129794000D01*
X59346682Y-129304945D01*
X59069655Y-128890345D01*
X58655055Y-128613318D01*
X58166000Y-128516039D01*
X57676945Y-128613318D01*
X57262345Y-128890345D01*
X57098000Y-129136305D01*
X57098000Y-127793750D01*
X65745000Y-127793750D01*
X65745000Y-129884310D01*
X65841673Y-130117699D01*
X66020302Y-130296327D01*
X66253691Y-130393000D01*
X67094250Y-130393000D01*
X67253000Y-130234250D01*
X67253000Y-127635000D01*
X65903750Y-127635000D01*
X65745000Y-127793750D01*
X57098000Y-127793750D01*
X57098000Y-125131690D01*
X65745000Y-125131690D01*
X65745000Y-127222250D01*
X65903750Y-127381000D01*
X67253000Y-127381000D01*
X67253000Y-124781750D01*
X67094250Y-124623000D01*
X66253691Y-124623000D01*
X66020302Y-124719673D01*
X65841673Y-124898301D01*
X65745000Y-125131690D01*
X57098000Y-125131690D01*
X57098000Y-120151500D01*
X58126060Y-120151500D01*
X58126060Y-122151500D01*
X58170338Y-122386817D01*
X58309410Y-122602941D01*
X58521610Y-122747931D01*
X58773500Y-122798940D01*
X63273500Y-122798940D01*
X63508817Y-122754662D01*
X63724941Y-122615590D01*
X63869931Y-122403390D01*
X63920940Y-122151500D01*
X63920940Y-121886500D01*
X64014500Y-121886500D01*
X64295772Y-121830551D01*
X64534223Y-121671223D01*
X65178312Y-121027135D01*
X65199265Y-121027153D01*
X65524657Y-120892704D01*
X65773829Y-120643967D01*
X65908846Y-120318810D01*
X65909153Y-119966735D01*
X65774704Y-119641343D01*
X65525967Y-119392171D01*
X65200810Y-119257154D01*
X64848735Y-119256847D01*
X64523343Y-119391296D01*
X64274171Y-119640033D01*
X64139154Y-119965190D01*
X64139135Y-119987419D01*
X63920940Y-120205614D01*
X63920940Y-120151500D01*
X63881642Y-119942650D01*
X63908500Y-119877809D01*
X63908500Y-119037250D01*
X63749750Y-118878500D01*
X61150500Y-118878500D01*
X61150500Y-118898500D01*
X60896500Y-118898500D01*
X60896500Y-118878500D01*
X58297250Y-118878500D01*
X58138500Y-119037250D01*
X58138500Y-119877809D01*
X58167370Y-119947507D01*
X58126060Y-120151500D01*
X57098000Y-120151500D01*
X57098000Y-117625191D01*
X58138500Y-117625191D01*
X58138500Y-118465750D01*
X58297250Y-118624500D01*
X60896500Y-118624500D01*
X60896500Y-117275250D01*
X61150500Y-117275250D01*
X61150500Y-118624500D01*
X63749750Y-118624500D01*
X63908500Y-118465750D01*
X63908500Y-117625191D01*
X63811827Y-117391802D01*
X63633199Y-117213173D01*
X63399810Y-117116500D01*
X61309250Y-117116500D01*
X61150500Y-117275250D01*
X60896500Y-117275250D01*
X60737750Y-117116500D01*
X58647190Y-117116500D01*
X58413801Y-117213173D01*
X58235173Y-117391802D01*
X58138500Y-117625191D01*
X57098000Y-117625191D01*
X57098000Y-110639695D01*
X57262345Y-110885655D01*
X57676945Y-111162682D01*
X58166000Y-111259961D01*
X58655055Y-111162682D01*
X59069655Y-110885655D01*
X59346682Y-110471055D01*
X59436800Y-110018000D01*
X65732560Y-110018000D01*
X65732560Y-114518000D01*
X65776838Y-114753317D01*
X65915910Y-114969441D01*
X66128110Y-115114431D01*
X66380000Y-115165440D01*
X66645000Y-115165440D01*
X66645000Y-119256863D01*
X66626735Y-119256847D01*
X66301343Y-119391296D01*
X66052171Y-119640033D01*
X65917154Y-119965190D01*
X65916847Y-120317265D01*
X66051296Y-120642657D01*
X66300033Y-120891829D01*
X66625190Y-121026846D01*
X66977265Y-121027153D01*
X67302657Y-120892704D01*
X67551829Y-120643967D01*
X67686846Y-120318810D01*
X67686865Y-120296581D01*
X67694872Y-120288575D01*
X67694847Y-120317265D01*
X67829296Y-120642657D01*
X67845000Y-120658388D01*
X67845000Y-122174000D01*
X67890629Y-122403390D01*
X67900949Y-122455272D01*
X68060277Y-122693723D01*
X69045000Y-123678447D01*
X69045000Y-124610560D01*
X68780000Y-124610560D01*
X68571150Y-124649858D01*
X68506309Y-124623000D01*
X67665750Y-124623000D01*
X67507000Y-124781750D01*
X67507000Y-127381000D01*
X67527000Y-127381000D01*
X67527000Y-127635000D01*
X67507000Y-127635000D01*
X67507000Y-130234250D01*
X67665750Y-130393000D01*
X68506309Y-130393000D01*
X68576007Y-130364130D01*
X68780000Y-130405440D01*
X70780000Y-130405440D01*
X71015317Y-130361162D01*
X71231441Y-130222090D01*
X71376431Y-130009890D01*
X71427440Y-129758000D01*
X71427440Y-125258000D01*
X71383162Y-125022683D01*
X71244090Y-124806559D01*
X71031890Y-124661569D01*
X70780000Y-124610560D01*
X70515000Y-124610560D01*
X70515000Y-123374000D01*
X70459051Y-123092728D01*
X70336288Y-122909000D01*
X70299723Y-122854276D01*
X69315000Y-121869554D01*
X69315000Y-121437250D01*
X73251500Y-121437250D01*
X73251500Y-122277809D01*
X73348173Y-122511198D01*
X73526801Y-122689827D01*
X73760190Y-122786500D01*
X75850750Y-122786500D01*
X76009500Y-122627750D01*
X76009500Y-121278500D01*
X76263500Y-121278500D01*
X76263500Y-122627750D01*
X76422250Y-122786500D01*
X78512810Y-122786500D01*
X78746199Y-122689827D01*
X78924827Y-122511198D01*
X79021500Y-122277809D01*
X79021500Y-121437250D01*
X78862750Y-121278500D01*
X76263500Y-121278500D01*
X76009500Y-121278500D01*
X73410250Y-121278500D01*
X73251500Y-121437250D01*
X69315000Y-121437250D01*
X69315000Y-120658770D01*
X69329829Y-120643967D01*
X69464846Y-120318810D01*
X69464847Y-120317265D01*
X69472847Y-120317265D01*
X69607296Y-120642657D01*
X69856033Y-120891829D01*
X70181190Y-121026846D01*
X70533265Y-121027153D01*
X70858657Y-120892704D01*
X71107829Y-120643967D01*
X71242846Y-120318810D01*
X71243153Y-119966735D01*
X71108704Y-119641343D01*
X71093000Y-119625612D01*
X71093000Y-119486500D01*
X73239060Y-119486500D01*
X73239060Y-119751500D01*
X73278358Y-119960350D01*
X73251500Y-120025191D01*
X73251500Y-120865750D01*
X73410250Y-121024500D01*
X76009500Y-121024500D01*
X76009500Y-121004500D01*
X76263500Y-121004500D01*
X76263500Y-121024500D01*
X78862750Y-121024500D01*
X79021500Y-120865750D01*
X79021500Y-120025191D01*
X78992630Y-119955493D01*
X79033940Y-119751500D01*
X79033940Y-117751500D01*
X78989662Y-117516183D01*
X78850590Y-117300059D01*
X78638390Y-117155069D01*
X78386500Y-117104060D01*
X73886500Y-117104060D01*
X73651183Y-117148338D01*
X73435059Y-117287410D01*
X73290069Y-117499610D01*
X73239060Y-117751500D01*
X73239060Y-118016500D01*
X70732500Y-118016500D01*
X70451228Y-118072449D01*
X70212777Y-118231777D01*
X69838277Y-118606277D01*
X69678949Y-118844728D01*
X69623000Y-119126000D01*
X69623000Y-119625230D01*
X69608171Y-119640033D01*
X69473154Y-119965190D01*
X69472847Y-120317265D01*
X69464847Y-120317265D01*
X69465153Y-119966735D01*
X69330704Y-119641343D01*
X69081967Y-119392171D01*
X68756810Y-119257154D01*
X68404735Y-119256847D01*
X68115000Y-119376563D01*
X68115000Y-115165440D01*
X68380000Y-115165440D01*
X68588850Y-115126142D01*
X68653691Y-115153000D01*
X69494250Y-115153000D01*
X69653000Y-114994250D01*
X69653000Y-112395000D01*
X69907000Y-112395000D01*
X69907000Y-114994250D01*
X70065750Y-115153000D01*
X70906309Y-115153000D01*
X71139698Y-115056327D01*
X71318327Y-114877699D01*
X71415000Y-114644310D01*
X71415000Y-112553750D01*
X71256250Y-112395000D01*
X69907000Y-112395000D01*
X69653000Y-112395000D01*
X69633000Y-112395000D01*
X69633000Y-112141000D01*
X69653000Y-112141000D01*
X69653000Y-109541750D01*
X69907000Y-109541750D01*
X69907000Y-112141000D01*
X71256250Y-112141000D01*
X71415000Y-111982250D01*
X71415000Y-109891690D01*
X71318327Y-109658301D01*
X71139698Y-109479673D01*
X70906309Y-109383000D01*
X70065750Y-109383000D01*
X69907000Y-109541750D01*
X69653000Y-109541750D01*
X69494250Y-109383000D01*
X68653691Y-109383000D01*
X68583993Y-109411870D01*
X68380000Y-109370560D01*
X66380000Y-109370560D01*
X66144683Y-109414838D01*
X65928559Y-109553910D01*
X65783569Y-109766110D01*
X65732560Y-110018000D01*
X59436800Y-110018000D01*
X59443961Y-109982000D01*
X59346682Y-109492945D01*
X59069655Y-109078345D01*
X58823695Y-108914000D01*
X78336305Y-108914000D01*
X78090345Y-109078345D01*
G36*
X109563318Y-120922945D02*
X109466039Y-121412000D01*
X109563318Y-121901055D01*
X109840345Y-122315655D01*
X110254945Y-122592682D01*
X110744000Y-122689961D01*
X111233055Y-122592682D01*
X111647655Y-122315655D01*
X111812000Y-122069695D01*
X111812000Y-122767000D01*
X110630750Y-122767000D01*
X110472000Y-122925750D01*
X110472000Y-123775000D01*
X110492000Y-123775000D01*
X110492000Y-124029000D01*
X110472000Y-124029000D01*
X110472000Y-124878250D01*
X110630750Y-125037000D01*
X111812000Y-125037000D01*
X111812000Y-126773190D01*
X111720000Y-126754560D01*
X110983271Y-126754560D01*
X110666810Y-126623154D01*
X110314735Y-126622847D01*
X109995965Y-126754560D01*
X108970000Y-126754560D01*
X108734683Y-126798838D01*
X108518559Y-126937910D01*
X108373569Y-127150110D01*
X108370149Y-127167000D01*
X106573222Y-127167000D01*
X106573162Y-127166683D01*
X106434090Y-126950559D01*
X106221890Y-126805569D01*
X105970000Y-126754560D01*
X103220000Y-126754560D01*
X103072000Y-126782408D01*
X103072000Y-125028015D01*
X103093691Y-125037000D01*
X104309250Y-125037000D01*
X104468000Y-124878250D01*
X104468000Y-124029000D01*
X104722000Y-124029000D01*
X104722000Y-124878250D01*
X104880750Y-125037000D01*
X106096309Y-125037000D01*
X106329698Y-124940327D01*
X106508327Y-124761699D01*
X106605000Y-124528310D01*
X106605000Y-124187750D01*
X108335000Y-124187750D01*
X108335000Y-124528310D01*
X108431673Y-124761699D01*
X108610302Y-124940327D01*
X108843691Y-125037000D01*
X110059250Y-125037000D01*
X110218000Y-124878250D01*
X110218000Y-124029000D01*
X108493750Y-124029000D01*
X108335000Y-124187750D01*
X106605000Y-124187750D01*
X106446250Y-124029000D01*
X104722000Y-124029000D01*
X104468000Y-124029000D01*
X104448000Y-124029000D01*
X104448000Y-123775000D01*
X104468000Y-123775000D01*
X104468000Y-122925750D01*
X104722000Y-122925750D01*
X104722000Y-123775000D01*
X106446250Y-123775000D01*
X106605000Y-123616250D01*
X106605000Y-123275690D01*
X108335000Y-123275690D01*
X108335000Y-123616250D01*
X108493750Y-123775000D01*
X110218000Y-123775000D01*
X110218000Y-122925750D01*
X110059250Y-122767000D01*
X108843691Y-122767000D01*
X108610302Y-122863673D01*
X108431673Y-123042301D01*
X108335000Y-123275690D01*
X106605000Y-123275690D01*
X106508327Y-123042301D01*
X106329698Y-122863673D01*
X106096309Y-122767000D01*
X104880750Y-122767000D01*
X104722000Y-122925750D01*
X104468000Y-122925750D01*
X104309250Y-122767000D01*
X103093691Y-122767000D01*
X103072000Y-122775985D01*
X103072000Y-122069695D01*
X103236345Y-122315655D01*
X103650945Y-122592682D01*
X104140000Y-122689961D01*
X104629055Y-122592682D01*
X105043655Y-122315655D01*
X105320682Y-121901055D01*
X105417961Y-121412000D01*
X105320682Y-120922945D01*
X105273278Y-120852000D01*
X109610722Y-120852000D01*
X109563318Y-120922945D01*
X109563318Y-120922945D01*
G37*
X109563318Y-120922945D02*
X109466039Y-121412000D01*
X109563318Y-121901055D01*
X109840345Y-122315655D01*
X110254945Y-122592682D01*
X110744000Y-122689961D01*
X111233055Y-122592682D01*
X111647655Y-122315655D01*
X111812000Y-122069695D01*
X111812000Y-122767000D01*
X110630750Y-122767000D01*
X110472000Y-122925750D01*
X110472000Y-123775000D01*
X110492000Y-123775000D01*
X110492000Y-124029000D01*
X110472000Y-124029000D01*
X110472000Y-124878250D01*
X110630750Y-125037000D01*
X111812000Y-125037000D01*
X111812000Y-126773190D01*
X111720000Y-126754560D01*
X110983271Y-126754560D01*
X110666810Y-126623154D01*
X110314735Y-126622847D01*
X109995965Y-126754560D01*
X108970000Y-126754560D01*
X108734683Y-126798838D01*
X108518559Y-126937910D01*
X108373569Y-127150110D01*
X108370149Y-127167000D01*
X106573222Y-127167000D01*
X106573162Y-127166683D01*
X106434090Y-126950559D01*
X106221890Y-126805569D01*
X105970000Y-126754560D01*
X103220000Y-126754560D01*
X103072000Y-126782408D01*
X103072000Y-125028015D01*
X103093691Y-125037000D01*
X104309250Y-125037000D01*
X104468000Y-124878250D01*
X104468000Y-124029000D01*
X104722000Y-124029000D01*
X104722000Y-124878250D01*
X104880750Y-125037000D01*
X106096309Y-125037000D01*
X106329698Y-124940327D01*
X106508327Y-124761699D01*
X106605000Y-124528310D01*
X106605000Y-124187750D01*
X108335000Y-124187750D01*
X108335000Y-124528310D01*
X108431673Y-124761699D01*
X108610302Y-124940327D01*
X108843691Y-125037000D01*
X110059250Y-125037000D01*
X110218000Y-124878250D01*
X110218000Y-124029000D01*
X108493750Y-124029000D01*
X108335000Y-124187750D01*
X106605000Y-124187750D01*
X106446250Y-124029000D01*
X104722000Y-124029000D01*
X104468000Y-124029000D01*
X104448000Y-124029000D01*
X104448000Y-123775000D01*
X104468000Y-123775000D01*
X104468000Y-122925750D01*
X104722000Y-122925750D01*
X104722000Y-123775000D01*
X106446250Y-123775000D01*
X106605000Y-123616250D01*
X106605000Y-123275690D01*
X108335000Y-123275690D01*
X108335000Y-123616250D01*
X108493750Y-123775000D01*
X110218000Y-123775000D01*
X110218000Y-122925750D01*
X110059250Y-122767000D01*
X108843691Y-122767000D01*
X108610302Y-122863673D01*
X108431673Y-123042301D01*
X108335000Y-123275690D01*
X106605000Y-123275690D01*
X106508327Y-123042301D01*
X106329698Y-122863673D01*
X106096309Y-122767000D01*
X104880750Y-122767000D01*
X104722000Y-122925750D01*
X104468000Y-122925750D01*
X104309250Y-122767000D01*
X103093691Y-122767000D01*
X103072000Y-122775985D01*
X103072000Y-122069695D01*
X103236345Y-122315655D01*
X103650945Y-122592682D01*
X104140000Y-122689961D01*
X104629055Y-122592682D01*
X105043655Y-122315655D01*
X105320682Y-121901055D01*
X105417961Y-121412000D01*
X105320682Y-120922945D01*
X105273278Y-120852000D01*
X109610722Y-120852000D01*
X109563318Y-120922945D01*
G36*
X83655318Y-118128945D02*
X83558039Y-118618000D01*
X83655318Y-119107055D01*
X83932345Y-119521655D01*
X84346945Y-119798682D01*
X84836000Y-119895961D01*
X85325055Y-119798682D01*
X85739655Y-119521655D01*
X86016682Y-119107055D01*
X86113961Y-118618000D01*
X86016682Y-118128945D01*
X85969278Y-118058000D01*
X96910722Y-118058000D01*
X96863318Y-118128945D01*
X96766039Y-118618000D01*
X96863318Y-119107055D01*
X97140345Y-119521655D01*
X97554945Y-119798682D01*
X98044000Y-119895961D01*
X98533055Y-119798682D01*
X98947655Y-119521655D01*
X99224682Y-119107055D01*
X99321961Y-118618000D01*
X99224682Y-118128945D01*
X99177278Y-118058000D01*
X99366000Y-118058000D01*
X99366000Y-121382058D01*
X99170309Y-121301000D01*
X98329750Y-121301000D01*
X98171000Y-121459750D01*
X98171000Y-122809000D01*
X98191000Y-122809000D01*
X98191000Y-123063000D01*
X98171000Y-123063000D01*
X98171000Y-123083000D01*
X97917000Y-123083000D01*
X97917000Y-123063000D01*
X96567750Y-123063000D01*
X96409000Y-123221750D01*
X96409000Y-124062310D01*
X96505673Y-124295699D01*
X96676117Y-124466142D01*
X96592559Y-124519910D01*
X96447569Y-124732110D01*
X96396560Y-124984000D01*
X96396560Y-125249000D01*
X94611440Y-125249000D01*
X94611440Y-124984000D01*
X94567162Y-124748683D01*
X94428090Y-124532559D01*
X94331478Y-124466547D01*
X94502327Y-124295699D01*
X94599000Y-124062310D01*
X94599000Y-123221750D01*
X94440250Y-123063000D01*
X93091000Y-123063000D01*
X93091000Y-123083000D01*
X92837000Y-123083000D01*
X92837000Y-123063000D01*
X91487750Y-123063000D01*
X91440000Y-123110750D01*
X91392250Y-123063000D01*
X90043000Y-123063000D01*
X90043000Y-123083000D01*
X89789000Y-123083000D01*
X89789000Y-123063000D01*
X88439750Y-123063000D01*
X88281000Y-123221750D01*
X88281000Y-124062310D01*
X88377673Y-124295699D01*
X88548117Y-124466142D01*
X88464559Y-124519910D01*
X88319569Y-124732110D01*
X88268560Y-124984000D01*
X88268560Y-125249000D01*
X86483440Y-125249000D01*
X86483440Y-124984000D01*
X86439162Y-124748683D01*
X86300090Y-124532559D01*
X86203478Y-124466547D01*
X86374327Y-124295699D01*
X86471000Y-124062310D01*
X86471000Y-123221750D01*
X86312250Y-123063000D01*
X84963000Y-123063000D01*
X84963000Y-123083000D01*
X84709000Y-123083000D01*
X84709000Y-123063000D01*
X84689000Y-123063000D01*
X84689000Y-122809000D01*
X84709000Y-122809000D01*
X84709000Y-121459750D01*
X84963000Y-121459750D01*
X84963000Y-122809000D01*
X86312250Y-122809000D01*
X86471000Y-122650250D01*
X86471000Y-121809690D01*
X88281000Y-121809690D01*
X88281000Y-122650250D01*
X88439750Y-122809000D01*
X89789000Y-122809000D01*
X89789000Y-121459750D01*
X90043000Y-121459750D01*
X90043000Y-122809000D01*
X91392250Y-122809000D01*
X91440000Y-122761250D01*
X91487750Y-122809000D01*
X92837000Y-122809000D01*
X92837000Y-121459750D01*
X93091000Y-121459750D01*
X93091000Y-122809000D01*
X94440250Y-122809000D01*
X94599000Y-122650250D01*
X94599000Y-121809690D01*
X96409000Y-121809690D01*
X96409000Y-122650250D01*
X96567750Y-122809000D01*
X97917000Y-122809000D01*
X97917000Y-121459750D01*
X97758250Y-121301000D01*
X96917691Y-121301000D01*
X96684302Y-121397673D01*
X96505673Y-121576301D01*
X96409000Y-121809690D01*
X94599000Y-121809690D01*
X94502327Y-121576301D01*
X94323698Y-121397673D01*
X94090309Y-121301000D01*
X93249750Y-121301000D01*
X93091000Y-121459750D01*
X92837000Y-121459750D01*
X92678250Y-121301000D01*
X91837691Y-121301000D01*
X91604302Y-121397673D01*
X91440000Y-121561974D01*
X91275698Y-121397673D01*
X91042309Y-121301000D01*
X90201750Y-121301000D01*
X90043000Y-121459750D01*
X89789000Y-121459750D01*
X89630250Y-121301000D01*
X88789691Y-121301000D01*
X88556302Y-121397673D01*
X88377673Y-121576301D01*
X88281000Y-121809690D01*
X86471000Y-121809690D01*
X86374327Y-121576301D01*
X86195698Y-121397673D01*
X85962309Y-121301000D01*
X85121750Y-121301000D01*
X84963000Y-121459750D01*
X84709000Y-121459750D01*
X84550250Y-121301000D01*
X83709691Y-121301000D01*
X83514000Y-121382058D01*
X83514000Y-118058000D01*
X83702722Y-118058000D01*
X83655318Y-118128945D01*
X83655318Y-118128945D01*
G37*
X83655318Y-118128945D02*
X83558039Y-118618000D01*
X83655318Y-119107055D01*
X83932345Y-119521655D01*
X84346945Y-119798682D01*
X84836000Y-119895961D01*
X85325055Y-119798682D01*
X85739655Y-119521655D01*
X86016682Y-119107055D01*
X86113961Y-118618000D01*
X86016682Y-118128945D01*
X85969278Y-118058000D01*
X96910722Y-118058000D01*
X96863318Y-118128945D01*
X96766039Y-118618000D01*
X96863318Y-119107055D01*
X97140345Y-119521655D01*
X97554945Y-119798682D01*
X98044000Y-119895961D01*
X98533055Y-119798682D01*
X98947655Y-119521655D01*
X99224682Y-119107055D01*
X99321961Y-118618000D01*
X99224682Y-118128945D01*
X99177278Y-118058000D01*
X99366000Y-118058000D01*
X99366000Y-121382058D01*
X99170309Y-121301000D01*
X98329750Y-121301000D01*
X98171000Y-121459750D01*
X98171000Y-122809000D01*
X98191000Y-122809000D01*
X98191000Y-123063000D01*
X98171000Y-123063000D01*
X98171000Y-123083000D01*
X97917000Y-123083000D01*
X97917000Y-123063000D01*
X96567750Y-123063000D01*
X96409000Y-123221750D01*
X96409000Y-124062310D01*
X96505673Y-124295699D01*
X96676117Y-124466142D01*
X96592559Y-124519910D01*
X96447569Y-124732110D01*
X96396560Y-124984000D01*
X96396560Y-125249000D01*
X94611440Y-125249000D01*
X94611440Y-124984000D01*
X94567162Y-124748683D01*
X94428090Y-124532559D01*
X94331478Y-124466547D01*
X94502327Y-124295699D01*
X94599000Y-124062310D01*
X94599000Y-123221750D01*
X94440250Y-123063000D01*
X93091000Y-123063000D01*
X93091000Y-123083000D01*
X92837000Y-123083000D01*
X92837000Y-123063000D01*
X91487750Y-123063000D01*
X91440000Y-123110750D01*
X91392250Y-123063000D01*
X90043000Y-123063000D01*
X90043000Y-123083000D01*
X89789000Y-123083000D01*
X89789000Y-123063000D01*
X88439750Y-123063000D01*
X88281000Y-123221750D01*
X88281000Y-124062310D01*
X88377673Y-124295699D01*
X88548117Y-124466142D01*
X88464559Y-124519910D01*
X88319569Y-124732110D01*
X88268560Y-124984000D01*
X88268560Y-125249000D01*
X86483440Y-125249000D01*
X86483440Y-124984000D01*
X86439162Y-124748683D01*
X86300090Y-124532559D01*
X86203478Y-124466547D01*
X86374327Y-124295699D01*
X86471000Y-124062310D01*
X86471000Y-123221750D01*
X86312250Y-123063000D01*
X84963000Y-123063000D01*
X84963000Y-123083000D01*
X84709000Y-123083000D01*
X84709000Y-123063000D01*
X84689000Y-123063000D01*
X84689000Y-122809000D01*
X84709000Y-122809000D01*
X84709000Y-121459750D01*
X84963000Y-121459750D01*
X84963000Y-122809000D01*
X86312250Y-122809000D01*
X86471000Y-122650250D01*
X86471000Y-121809690D01*
X88281000Y-121809690D01*
X88281000Y-122650250D01*
X88439750Y-122809000D01*
X89789000Y-122809000D01*
X89789000Y-121459750D01*
X90043000Y-121459750D01*
X90043000Y-122809000D01*
X91392250Y-122809000D01*
X91440000Y-122761250D01*
X91487750Y-122809000D01*
X92837000Y-122809000D01*
X92837000Y-121459750D01*
X93091000Y-121459750D01*
X93091000Y-122809000D01*
X94440250Y-122809000D01*
X94599000Y-122650250D01*
X94599000Y-121809690D01*
X96409000Y-121809690D01*
X96409000Y-122650250D01*
X96567750Y-122809000D01*
X97917000Y-122809000D01*
X97917000Y-121459750D01*
X97758250Y-121301000D01*
X96917691Y-121301000D01*
X96684302Y-121397673D01*
X96505673Y-121576301D01*
X96409000Y-121809690D01*
X94599000Y-121809690D01*
X94502327Y-121576301D01*
X94323698Y-121397673D01*
X94090309Y-121301000D01*
X93249750Y-121301000D01*
X93091000Y-121459750D01*
X92837000Y-121459750D01*
X92678250Y-121301000D01*
X91837691Y-121301000D01*
X91604302Y-121397673D01*
X91440000Y-121561974D01*
X91275698Y-121397673D01*
X91042309Y-121301000D01*
X90201750Y-121301000D01*
X90043000Y-121459750D01*
X89789000Y-121459750D01*
X89630250Y-121301000D01*
X88789691Y-121301000D01*
X88556302Y-121397673D01*
X88377673Y-121576301D01*
X88281000Y-121809690D01*
X86471000Y-121809690D01*
X86374327Y-121576301D01*
X86195698Y-121397673D01*
X85962309Y-121301000D01*
X85121750Y-121301000D01*
X84963000Y-121459750D01*
X84709000Y-121459750D01*
X84550250Y-121301000D01*
X83709691Y-121301000D01*
X83514000Y-121382058D01*
X83514000Y-118058000D01*
X83702722Y-118058000D01*
X83655318Y-118128945D01*
M02*
