G04 #@! TF.FileFunction,Legend,Top*
%FSLAX46Y46*%
G04 Gerber Fmt 4.6, Leading zero omitted, Abs format (unit mm)*
G04 Created by KiCad (PCBNEW 4.0.5+dfsg1-4) date Tue Aug 14 17:39:56 2018*
%MOMM*%
%LPD*%
G01*
G04 APERTURE LIST*
%ADD10C,0.100000*%
%ADD11C,0.150000*%
G04 APERTURE END LIST*
D10*
D11*
X121158000Y-132334000D02*
X130302000Y-132334000D01*
X121158000Y-129794000D02*
X130302000Y-129794000D01*
X130302000Y-129794000D02*
X130302000Y-132334000D01*
X121158000Y-132334000D02*
X121158000Y-129794000D01*
X144018000Y-129286000D02*
X149606000Y-129286000D01*
X149606000Y-129286000D02*
X149606000Y-131826000D01*
X149606000Y-131826000D02*
X144018000Y-131826000D01*
X144018000Y-131826000D02*
X144018000Y-129286000D01*
X141224000Y-113538000D02*
X145034000Y-113538000D01*
X145034000Y-113538000D02*
X145034000Y-116078000D01*
X145034000Y-116078000D02*
X141224000Y-116078000D01*
X141224000Y-116078000D02*
X141224000Y-113538000D01*
X113538000Y-106426000D02*
X137922000Y-106426000D01*
X137922000Y-106426000D02*
X137922000Y-129794000D01*
X137922000Y-129794000D02*
X113538000Y-129794000D01*
X113538000Y-106426000D02*
X113538000Y-129794000D01*
X146431000Y-123825000D02*
X146431000Y-129159000D01*
X139065000Y-123825000D02*
X146431000Y-123825000D01*
X139065000Y-129159000D02*
X139065000Y-123825000D01*
X146431000Y-129159000D02*
X139065000Y-129159000D01*
X154559000Y-129159000D02*
X147193000Y-129159000D01*
X147193000Y-129159000D02*
X147193000Y-123825000D01*
X147193000Y-123825000D02*
X154559000Y-123825000D01*
X154559000Y-123825000D02*
X154559000Y-129159000D01*
X123467905Y-133548381D02*
X123467905Y-132548381D01*
X123848858Y-132548381D01*
X123944096Y-132596000D01*
X123991715Y-132643619D01*
X124039334Y-132738857D01*
X124039334Y-132881714D01*
X123991715Y-132976952D01*
X123944096Y-133024571D01*
X123848858Y-133072190D01*
X123467905Y-133072190D01*
X124991715Y-133548381D02*
X124420286Y-133548381D01*
X124706000Y-133548381D02*
X124706000Y-132548381D01*
X124610762Y-132691238D01*
X124515524Y-132786476D01*
X124420286Y-132834095D01*
X149121905Y-134564381D02*
X149121905Y-133564381D01*
X149502858Y-133564381D01*
X149598096Y-133612000D01*
X149645715Y-133659619D01*
X149693334Y-133754857D01*
X149693334Y-133897714D01*
X149645715Y-133992952D01*
X149598096Y-134040571D01*
X149502858Y-134088190D01*
X149121905Y-134088190D01*
X150074286Y-133659619D02*
X150121905Y-133612000D01*
X150217143Y-133564381D01*
X150455239Y-133564381D01*
X150550477Y-133612000D01*
X150598096Y-133659619D01*
X150645715Y-133754857D01*
X150645715Y-133850095D01*
X150598096Y-133992952D01*
X150026667Y-134564381D01*
X150645715Y-134564381D01*
X127531905Y-104846381D02*
X127531905Y-103846381D01*
X127912858Y-103846381D01*
X128008096Y-103894000D01*
X128055715Y-103941619D01*
X128103334Y-104036857D01*
X128103334Y-104179714D01*
X128055715Y-104274952D01*
X128008096Y-104322571D01*
X127912858Y-104370190D01*
X127531905Y-104370190D01*
X128960477Y-104179714D02*
X128960477Y-104846381D01*
X128722381Y-103798762D02*
X128484286Y-104513048D01*
X129103334Y-104513048D01*
X122428095Y-105116381D02*
X122428095Y-105925905D01*
X122475714Y-106021143D01*
X122523333Y-106068762D01*
X122618571Y-106116381D01*
X122809048Y-106116381D01*
X122904286Y-106068762D01*
X122951905Y-106021143D01*
X122999524Y-105925905D01*
X122999524Y-105116381D01*
X123999524Y-106116381D02*
X123428095Y-106116381D01*
X123713809Y-106116381D02*
X123713809Y-105116381D01*
X123618571Y-105259238D01*
X123523333Y-105354476D01*
X123428095Y-105402095D01*
X113649619Y-106116381D02*
X113649619Y-105116381D01*
X114221048Y-106116381D01*
X114221048Y-105116381D01*
X114697238Y-106116381D02*
X114697238Y-105116381D01*
X114935333Y-105116381D01*
X115078191Y-105164000D01*
X115173429Y-105259238D01*
X115221048Y-105354476D01*
X115268667Y-105544952D01*
X115268667Y-105687810D01*
X115221048Y-105878286D01*
X115173429Y-105973524D01*
X115078191Y-106068762D01*
X114935333Y-106116381D01*
X114697238Y-106116381D01*
X115649619Y-106068762D02*
X115792476Y-106116381D01*
X116030572Y-106116381D01*
X116125810Y-106068762D01*
X116173429Y-106021143D01*
X116221048Y-105925905D01*
X116221048Y-105830667D01*
X116173429Y-105735429D01*
X116125810Y-105687810D01*
X116030572Y-105640190D01*
X115840095Y-105592571D01*
X115744857Y-105544952D01*
X115697238Y-105497333D01*
X115649619Y-105402095D01*
X115649619Y-105306857D01*
X115697238Y-105211619D01*
X115744857Y-105164000D01*
X115840095Y-105116381D01*
X116078191Y-105116381D01*
X116221048Y-105164000D01*
X117125810Y-106116381D02*
X116649619Y-106116381D01*
X116649619Y-105116381D01*
X117221048Y-106211619D02*
X117982953Y-106211619D01*
X118221048Y-106116381D02*
X118221048Y-105116381D01*
X118459143Y-105116381D01*
X118602001Y-105164000D01*
X118697239Y-105259238D01*
X118744858Y-105354476D01*
X118792477Y-105544952D01*
X118792477Y-105687810D01*
X118744858Y-105878286D01*
X118697239Y-105973524D01*
X118602001Y-106068762D01*
X118459143Y-106116381D01*
X118221048Y-106116381D01*
X119221048Y-106116381D02*
X119221048Y-105116381D01*
X119602001Y-105116381D01*
X119697239Y-105164000D01*
X119744858Y-105211619D01*
X119792477Y-105306857D01*
X119792477Y-105449714D01*
X119744858Y-105544952D01*
X119697239Y-105592571D01*
X119602001Y-105640190D01*
X119221048Y-105640190D01*
X120649620Y-106116381D02*
X120649620Y-105592571D01*
X120602001Y-105497333D01*
X120506763Y-105449714D01*
X120316286Y-105449714D01*
X120221048Y-105497333D01*
X120649620Y-106068762D02*
X120554382Y-106116381D01*
X120316286Y-106116381D01*
X120221048Y-106068762D01*
X120173429Y-105973524D01*
X120173429Y-105878286D01*
X120221048Y-105783048D01*
X120316286Y-105735429D01*
X120554382Y-105735429D01*
X120649620Y-105687810D01*
X121554382Y-106116381D02*
X121554382Y-105116381D01*
X121554382Y-106068762D02*
X121459144Y-106116381D01*
X121268667Y-106116381D01*
X121173429Y-106068762D01*
X121125810Y-106021143D01*
X121078191Y-105925905D01*
X121078191Y-105640190D01*
X121125810Y-105544952D01*
X121173429Y-105497333D01*
X121268667Y-105449714D01*
X121459144Y-105449714D01*
X121554382Y-105497333D01*
X138453905Y-105100381D02*
X138453905Y-104100381D01*
X138834858Y-104100381D01*
X138930096Y-104148000D01*
X138977715Y-104195619D01*
X139025334Y-104290857D01*
X139025334Y-104433714D01*
X138977715Y-104528952D01*
X138930096Y-104576571D01*
X138834858Y-104624190D01*
X138453905Y-104624190D01*
X139358667Y-104100381D02*
X139977715Y-104100381D01*
X139644381Y-104481333D01*
X139787239Y-104481333D01*
X139882477Y-104528952D01*
X139930096Y-104576571D01*
X139977715Y-104671810D01*
X139977715Y-104909905D01*
X139930096Y-105005143D01*
X139882477Y-105052762D01*
X139787239Y-105100381D01*
X139501524Y-105100381D01*
X139406286Y-105052762D01*
X139358667Y-105005143D01*
X138978191Y-106275143D02*
X138930572Y-106322762D01*
X138787715Y-106370381D01*
X138692477Y-106370381D01*
X138549619Y-106322762D01*
X138454381Y-106227524D01*
X138406762Y-106132286D01*
X138359143Y-105941810D01*
X138359143Y-105798952D01*
X138406762Y-105608476D01*
X138454381Y-105513238D01*
X138549619Y-105418000D01*
X138692477Y-105370381D01*
X138787715Y-105370381D01*
X138930572Y-105418000D01*
X138978191Y-105465619D01*
X139597238Y-105370381D02*
X139787715Y-105370381D01*
X139882953Y-105418000D01*
X139978191Y-105513238D01*
X140025810Y-105703714D01*
X140025810Y-106037048D01*
X139978191Y-106227524D01*
X139882953Y-106322762D01*
X139787715Y-106370381D01*
X139597238Y-106370381D01*
X139502000Y-106322762D01*
X139406762Y-106227524D01*
X139359143Y-106037048D01*
X139359143Y-105703714D01*
X139406762Y-105513238D01*
X139502000Y-105418000D01*
X139597238Y-105370381D01*
X140454381Y-106370381D02*
X140454381Y-105370381D01*
X141025810Y-106370381D01*
X141025810Y-105370381D01*
X141502000Y-106370381D02*
X141502000Y-105370381D01*
X142073429Y-106370381D01*
X142073429Y-105370381D01*
X142311524Y-106465619D02*
X143073429Y-106465619D01*
X143502000Y-105370381D02*
X143597239Y-105370381D01*
X143692477Y-105418000D01*
X143740096Y-105465619D01*
X143787715Y-105560857D01*
X143835334Y-105751333D01*
X143835334Y-105989429D01*
X143787715Y-106179905D01*
X143740096Y-106275143D01*
X143692477Y-106322762D01*
X143597239Y-106370381D01*
X143502000Y-106370381D01*
X143406762Y-106322762D01*
X143359143Y-106275143D01*
X143311524Y-106179905D01*
X143263905Y-105989429D01*
X143263905Y-105751333D01*
X143311524Y-105560857D01*
X143359143Y-105465619D01*
X143406762Y-105418000D01*
X143502000Y-105370381D01*
X144787715Y-106370381D02*
X144216286Y-106370381D01*
X144502000Y-106370381D02*
X144502000Y-105370381D01*
X144406762Y-105513238D01*
X144311524Y-105608476D01*
X144216286Y-105656095D01*
X145121048Y-105370381D02*
X145787715Y-106370381D01*
X145787715Y-105370381D02*
X145121048Y-106370381D01*
X146359143Y-105370381D02*
X146454382Y-105370381D01*
X146549620Y-105418000D01*
X146597239Y-105465619D01*
X146644858Y-105560857D01*
X146692477Y-105751333D01*
X146692477Y-105989429D01*
X146644858Y-106179905D01*
X146597239Y-106275143D01*
X146549620Y-106322762D01*
X146454382Y-106370381D01*
X146359143Y-106370381D01*
X146263905Y-106322762D01*
X146216286Y-106275143D01*
X146168667Y-106179905D01*
X146121048Y-105989429D01*
X146121048Y-105751333D01*
X146168667Y-105560857D01*
X146216286Y-105465619D01*
X146263905Y-105418000D01*
X146359143Y-105370381D01*
X147073429Y-105465619D02*
X147121048Y-105418000D01*
X147216286Y-105370381D01*
X147454382Y-105370381D01*
X147549620Y-105418000D01*
X147597239Y-105465619D01*
X147644858Y-105560857D01*
X147644858Y-105656095D01*
X147597239Y-105798952D01*
X147025810Y-106370381D01*
X147644858Y-106370381D01*
X138430095Y-133564381D02*
X138430095Y-134373905D01*
X138477714Y-134469143D01*
X138525333Y-134516762D01*
X138620571Y-134564381D01*
X138811048Y-134564381D01*
X138906286Y-134516762D01*
X138953905Y-134469143D01*
X139001524Y-134373905D01*
X139001524Y-133564381D01*
X139430095Y-133659619D02*
X139477714Y-133612000D01*
X139572952Y-133564381D01*
X139811048Y-133564381D01*
X139906286Y-133612000D01*
X139953905Y-133659619D01*
X140001524Y-133754857D01*
X140001524Y-133850095D01*
X139953905Y-133992952D01*
X139382476Y-134564381D01*
X140001524Y-134564381D01*
X149146000Y-133294381D02*
X149146000Y-132294381D01*
X149717429Y-133294381D01*
X149717429Y-132294381D01*
X150193619Y-133294381D02*
X150193619Y-132294381D01*
X150431714Y-132294381D01*
X150574572Y-132342000D01*
X150669810Y-132437238D01*
X150717429Y-132532476D01*
X150765048Y-132722952D01*
X150765048Y-132865810D01*
X150717429Y-133056286D01*
X150669810Y-133151524D01*
X150574572Y-133246762D01*
X150431714Y-133294381D01*
X150193619Y-133294381D01*
X151146000Y-133246762D02*
X151288857Y-133294381D01*
X151526953Y-133294381D01*
X151622191Y-133246762D01*
X151669810Y-133199143D01*
X151717429Y-133103905D01*
X151717429Y-133008667D01*
X151669810Y-132913429D01*
X151622191Y-132865810D01*
X151526953Y-132818190D01*
X151336476Y-132770571D01*
X151241238Y-132722952D01*
X151193619Y-132675333D01*
X151146000Y-132580095D01*
X151146000Y-132484857D01*
X151193619Y-132389619D01*
X151241238Y-132342000D01*
X151336476Y-132294381D01*
X151574572Y-132294381D01*
X151717429Y-132342000D01*
X152622191Y-133294381D02*
X152146000Y-133294381D01*
X152146000Y-132294381D01*
X152717429Y-133389619D02*
X153479334Y-133389619D01*
X153669810Y-133246762D02*
X153812667Y-133294381D01*
X154050763Y-133294381D01*
X154146001Y-133246762D01*
X154193620Y-133199143D01*
X154241239Y-133103905D01*
X154241239Y-133008667D01*
X154193620Y-132913429D01*
X154146001Y-132865810D01*
X154050763Y-132818190D01*
X153860286Y-132770571D01*
X153765048Y-132722952D01*
X153717429Y-132675333D01*
X153669810Y-132580095D01*
X153669810Y-132484857D01*
X153717429Y-132389619D01*
X153765048Y-132342000D01*
X153860286Y-132294381D01*
X154098382Y-132294381D01*
X154241239Y-132342000D01*
X154622191Y-133246762D02*
X154765048Y-133294381D01*
X155003144Y-133294381D01*
X155098382Y-133246762D01*
X155146001Y-133199143D01*
X155193620Y-133103905D01*
X155193620Y-133008667D01*
X155146001Y-132913429D01*
X155098382Y-132865810D01*
X155003144Y-132818190D01*
X154812667Y-132770571D01*
X154717429Y-132722952D01*
X154669810Y-132675333D01*
X154622191Y-132580095D01*
X154622191Y-132484857D01*
X154669810Y-132389619D01*
X154717429Y-132342000D01*
X154812667Y-132294381D01*
X155050763Y-132294381D01*
X155193620Y-132342000D01*
M02*
