G04 #@! TF.FileFunction,Legend,Top*
%FSLAX46Y46*%
G04 Gerber Fmt 4.6, Leading zero omitted, Abs format (unit mm)*
G04 Created by KiCad (PCBNEW 4.0.5+dfsg1-4) date Tue Aug 14 16:23:05 2018*
%MOMM*%
%LPD*%
G01*
G04 APERTURE LIST*
%ADD10C,0.100000*%
%ADD11C,0.150000*%
G04 APERTURE END LIST*
D10*
D11*
X121158000Y-132334000D02*
X130302000Y-132334000D01*
X121158000Y-129794000D02*
X130302000Y-129794000D01*
X130302000Y-129794000D02*
X130302000Y-132334000D01*
X121158000Y-132334000D02*
X121158000Y-129794000D01*
X145034000Y-129286000D02*
X150622000Y-129286000D01*
X150622000Y-129286000D02*
X150622000Y-131826000D01*
X150622000Y-131826000D02*
X145034000Y-131826000D01*
X145034000Y-131826000D02*
X145034000Y-129286000D01*
X142240000Y-113792000D02*
X146050000Y-113792000D01*
X146050000Y-113792000D02*
X146050000Y-116332000D01*
X146050000Y-116332000D02*
X142240000Y-116332000D01*
X142240000Y-116332000D02*
X142240000Y-113792000D01*
X113538000Y-106426000D02*
X137922000Y-106426000D01*
X137922000Y-106426000D02*
X137922000Y-129794000D01*
X137922000Y-129794000D02*
X113538000Y-129794000D01*
X113538000Y-106426000D02*
X113538000Y-129794000D01*
X147447000Y-123825000D02*
X147447000Y-129159000D01*
X140081000Y-123825000D02*
X147447000Y-123825000D01*
X140081000Y-129159000D02*
X140081000Y-123825000D01*
X147447000Y-129159000D02*
X140081000Y-129159000D01*
X155575000Y-129159000D02*
X148209000Y-129159000D01*
X148209000Y-129159000D02*
X148209000Y-123825000D01*
X148209000Y-123825000D02*
X155575000Y-123825000D01*
X155575000Y-123825000D02*
X155575000Y-129159000D01*
X123467905Y-133548381D02*
X123467905Y-132548381D01*
X123848858Y-132548381D01*
X123944096Y-132596000D01*
X123991715Y-132643619D01*
X124039334Y-132738857D01*
X124039334Y-132881714D01*
X123991715Y-132976952D01*
X123944096Y-133024571D01*
X123848858Y-133072190D01*
X123467905Y-133072190D01*
X124991715Y-133548381D02*
X124420286Y-133548381D01*
X124706000Y-133548381D02*
X124706000Y-132548381D01*
X124610762Y-132691238D01*
X124515524Y-132786476D01*
X124420286Y-132834095D01*
X150137905Y-134564381D02*
X150137905Y-133564381D01*
X150518858Y-133564381D01*
X150614096Y-133612000D01*
X150661715Y-133659619D01*
X150709334Y-133754857D01*
X150709334Y-133897714D01*
X150661715Y-133992952D01*
X150614096Y-134040571D01*
X150518858Y-134088190D01*
X150137905Y-134088190D01*
X151090286Y-133659619D02*
X151137905Y-133612000D01*
X151233143Y-133564381D01*
X151471239Y-133564381D01*
X151566477Y-133612000D01*
X151614096Y-133659619D01*
X151661715Y-133754857D01*
X151661715Y-133850095D01*
X151614096Y-133992952D01*
X151042667Y-134564381D01*
X151661715Y-134564381D01*
X139723905Y-119070381D02*
X139723905Y-118070381D01*
X140104858Y-118070381D01*
X140200096Y-118118000D01*
X140247715Y-118165619D01*
X140295334Y-118260857D01*
X140295334Y-118403714D01*
X140247715Y-118498952D01*
X140200096Y-118546571D01*
X140104858Y-118594190D01*
X139723905Y-118594190D01*
X141152477Y-118403714D02*
X141152477Y-119070381D01*
X140914381Y-118022762D02*
X140676286Y-118737048D01*
X141295334Y-118737048D01*
X122428095Y-105116381D02*
X122428095Y-105925905D01*
X122475714Y-106021143D01*
X122523333Y-106068762D01*
X122618571Y-106116381D01*
X122809048Y-106116381D01*
X122904286Y-106068762D01*
X122951905Y-106021143D01*
X122999524Y-105925905D01*
X122999524Y-105116381D01*
X123999524Y-106116381D02*
X123428095Y-106116381D01*
X123713809Y-106116381D02*
X123713809Y-105116381D01*
X123618571Y-105259238D01*
X123523333Y-105354476D01*
X123428095Y-105402095D01*
X113649619Y-106116381D02*
X113649619Y-105116381D01*
X114221048Y-106116381D01*
X114221048Y-105116381D01*
X114697238Y-106116381D02*
X114697238Y-105116381D01*
X114935333Y-105116381D01*
X115078191Y-105164000D01*
X115173429Y-105259238D01*
X115221048Y-105354476D01*
X115268667Y-105544952D01*
X115268667Y-105687810D01*
X115221048Y-105878286D01*
X115173429Y-105973524D01*
X115078191Y-106068762D01*
X114935333Y-106116381D01*
X114697238Y-106116381D01*
X115649619Y-106068762D02*
X115792476Y-106116381D01*
X116030572Y-106116381D01*
X116125810Y-106068762D01*
X116173429Y-106021143D01*
X116221048Y-105925905D01*
X116221048Y-105830667D01*
X116173429Y-105735429D01*
X116125810Y-105687810D01*
X116030572Y-105640190D01*
X115840095Y-105592571D01*
X115744857Y-105544952D01*
X115697238Y-105497333D01*
X115649619Y-105402095D01*
X115649619Y-105306857D01*
X115697238Y-105211619D01*
X115744857Y-105164000D01*
X115840095Y-105116381D01*
X116078191Y-105116381D01*
X116221048Y-105164000D01*
X117125810Y-106116381D02*
X116649619Y-106116381D01*
X116649619Y-105116381D01*
X117221048Y-106211619D02*
X117982953Y-106211619D01*
X118221048Y-106116381D02*
X118221048Y-105116381D01*
X118459143Y-105116381D01*
X118602001Y-105164000D01*
X118697239Y-105259238D01*
X118744858Y-105354476D01*
X118792477Y-105544952D01*
X118792477Y-105687810D01*
X118744858Y-105878286D01*
X118697239Y-105973524D01*
X118602001Y-106068762D01*
X118459143Y-106116381D01*
X118221048Y-106116381D01*
X119221048Y-106116381D02*
X119221048Y-105116381D01*
X119602001Y-105116381D01*
X119697239Y-105164000D01*
X119744858Y-105211619D01*
X119792477Y-105306857D01*
X119792477Y-105449714D01*
X119744858Y-105544952D01*
X119697239Y-105592571D01*
X119602001Y-105640190D01*
X119221048Y-105640190D01*
X120649620Y-106116381D02*
X120649620Y-105592571D01*
X120602001Y-105497333D01*
X120506763Y-105449714D01*
X120316286Y-105449714D01*
X120221048Y-105497333D01*
X120649620Y-106068762D02*
X120554382Y-106116381D01*
X120316286Y-106116381D01*
X120221048Y-106068762D01*
X120173429Y-105973524D01*
X120173429Y-105878286D01*
X120221048Y-105783048D01*
X120316286Y-105735429D01*
X120554382Y-105735429D01*
X120649620Y-105687810D01*
X121554382Y-106116381D02*
X121554382Y-105116381D01*
X121554382Y-106068762D02*
X121459144Y-106116381D01*
X121268667Y-106116381D01*
X121173429Y-106068762D01*
X121125810Y-106021143D01*
X121078191Y-105925905D01*
X121078191Y-105640190D01*
X121125810Y-105544952D01*
X121173429Y-105497333D01*
X121268667Y-105449714D01*
X121459144Y-105449714D01*
X121554382Y-105497333D01*
X139469905Y-105354381D02*
X139469905Y-104354381D01*
X139850858Y-104354381D01*
X139946096Y-104402000D01*
X139993715Y-104449619D01*
X140041334Y-104544857D01*
X140041334Y-104687714D01*
X139993715Y-104782952D01*
X139946096Y-104830571D01*
X139850858Y-104878190D01*
X139469905Y-104878190D01*
X140374667Y-104354381D02*
X140993715Y-104354381D01*
X140660381Y-104735333D01*
X140803239Y-104735333D01*
X140898477Y-104782952D01*
X140946096Y-104830571D01*
X140993715Y-104925810D01*
X140993715Y-105163905D01*
X140946096Y-105259143D01*
X140898477Y-105306762D01*
X140803239Y-105354381D01*
X140517524Y-105354381D01*
X140422286Y-105306762D01*
X140374667Y-105259143D01*
X139994191Y-106529143D02*
X139946572Y-106576762D01*
X139803715Y-106624381D01*
X139708477Y-106624381D01*
X139565619Y-106576762D01*
X139470381Y-106481524D01*
X139422762Y-106386286D01*
X139375143Y-106195810D01*
X139375143Y-106052952D01*
X139422762Y-105862476D01*
X139470381Y-105767238D01*
X139565619Y-105672000D01*
X139708477Y-105624381D01*
X139803715Y-105624381D01*
X139946572Y-105672000D01*
X139994191Y-105719619D01*
X140613238Y-105624381D02*
X140803715Y-105624381D01*
X140898953Y-105672000D01*
X140994191Y-105767238D01*
X141041810Y-105957714D01*
X141041810Y-106291048D01*
X140994191Y-106481524D01*
X140898953Y-106576762D01*
X140803715Y-106624381D01*
X140613238Y-106624381D01*
X140518000Y-106576762D01*
X140422762Y-106481524D01*
X140375143Y-106291048D01*
X140375143Y-105957714D01*
X140422762Y-105767238D01*
X140518000Y-105672000D01*
X140613238Y-105624381D01*
X141470381Y-106624381D02*
X141470381Y-105624381D01*
X142041810Y-106624381D01*
X142041810Y-105624381D01*
X142518000Y-106624381D02*
X142518000Y-105624381D01*
X143089429Y-106624381D01*
X143089429Y-105624381D01*
X143327524Y-106719619D02*
X144089429Y-106719619D01*
X144518000Y-105624381D02*
X144613239Y-105624381D01*
X144708477Y-105672000D01*
X144756096Y-105719619D01*
X144803715Y-105814857D01*
X144851334Y-106005333D01*
X144851334Y-106243429D01*
X144803715Y-106433905D01*
X144756096Y-106529143D01*
X144708477Y-106576762D01*
X144613239Y-106624381D01*
X144518000Y-106624381D01*
X144422762Y-106576762D01*
X144375143Y-106529143D01*
X144327524Y-106433905D01*
X144279905Y-106243429D01*
X144279905Y-106005333D01*
X144327524Y-105814857D01*
X144375143Y-105719619D01*
X144422762Y-105672000D01*
X144518000Y-105624381D01*
X145803715Y-106624381D02*
X145232286Y-106624381D01*
X145518000Y-106624381D02*
X145518000Y-105624381D01*
X145422762Y-105767238D01*
X145327524Y-105862476D01*
X145232286Y-105910095D01*
X146137048Y-105624381D02*
X146803715Y-106624381D01*
X146803715Y-105624381D02*
X146137048Y-106624381D01*
X147375143Y-105624381D02*
X147470382Y-105624381D01*
X147565620Y-105672000D01*
X147613239Y-105719619D01*
X147660858Y-105814857D01*
X147708477Y-106005333D01*
X147708477Y-106243429D01*
X147660858Y-106433905D01*
X147613239Y-106529143D01*
X147565620Y-106576762D01*
X147470382Y-106624381D01*
X147375143Y-106624381D01*
X147279905Y-106576762D01*
X147232286Y-106529143D01*
X147184667Y-106433905D01*
X147137048Y-106243429D01*
X147137048Y-106005333D01*
X147184667Y-105814857D01*
X147232286Y-105719619D01*
X147279905Y-105672000D01*
X147375143Y-105624381D01*
X148089429Y-105719619D02*
X148137048Y-105672000D01*
X148232286Y-105624381D01*
X148470382Y-105624381D01*
X148565620Y-105672000D01*
X148613239Y-105719619D01*
X148660858Y-105814857D01*
X148660858Y-105910095D01*
X148613239Y-106052952D01*
X148041810Y-106624381D01*
X148660858Y-106624381D01*
X139446095Y-133564381D02*
X139446095Y-134373905D01*
X139493714Y-134469143D01*
X139541333Y-134516762D01*
X139636571Y-134564381D01*
X139827048Y-134564381D01*
X139922286Y-134516762D01*
X139969905Y-134469143D01*
X140017524Y-134373905D01*
X140017524Y-133564381D01*
X140446095Y-133659619D02*
X140493714Y-133612000D01*
X140588952Y-133564381D01*
X140827048Y-133564381D01*
X140922286Y-133612000D01*
X140969905Y-133659619D01*
X141017524Y-133754857D01*
X141017524Y-133850095D01*
X140969905Y-133992952D01*
X140398476Y-134564381D01*
X141017524Y-134564381D01*
X150162000Y-133294381D02*
X150162000Y-132294381D01*
X150733429Y-133294381D01*
X150733429Y-132294381D01*
X151209619Y-133294381D02*
X151209619Y-132294381D01*
X151447714Y-132294381D01*
X151590572Y-132342000D01*
X151685810Y-132437238D01*
X151733429Y-132532476D01*
X151781048Y-132722952D01*
X151781048Y-132865810D01*
X151733429Y-133056286D01*
X151685810Y-133151524D01*
X151590572Y-133246762D01*
X151447714Y-133294381D01*
X151209619Y-133294381D01*
X152162000Y-133246762D02*
X152304857Y-133294381D01*
X152542953Y-133294381D01*
X152638191Y-133246762D01*
X152685810Y-133199143D01*
X152733429Y-133103905D01*
X152733429Y-133008667D01*
X152685810Y-132913429D01*
X152638191Y-132865810D01*
X152542953Y-132818190D01*
X152352476Y-132770571D01*
X152257238Y-132722952D01*
X152209619Y-132675333D01*
X152162000Y-132580095D01*
X152162000Y-132484857D01*
X152209619Y-132389619D01*
X152257238Y-132342000D01*
X152352476Y-132294381D01*
X152590572Y-132294381D01*
X152733429Y-132342000D01*
X153638191Y-133294381D02*
X153162000Y-133294381D01*
X153162000Y-132294381D01*
X153733429Y-133389619D02*
X154495334Y-133389619D01*
X154685810Y-133246762D02*
X154828667Y-133294381D01*
X155066763Y-133294381D01*
X155162001Y-133246762D01*
X155209620Y-133199143D01*
X155257239Y-133103905D01*
X155257239Y-133008667D01*
X155209620Y-132913429D01*
X155162001Y-132865810D01*
X155066763Y-132818190D01*
X154876286Y-132770571D01*
X154781048Y-132722952D01*
X154733429Y-132675333D01*
X154685810Y-132580095D01*
X154685810Y-132484857D01*
X154733429Y-132389619D01*
X154781048Y-132342000D01*
X154876286Y-132294381D01*
X155114382Y-132294381D01*
X155257239Y-132342000D01*
X155638191Y-133246762D02*
X155781048Y-133294381D01*
X156019144Y-133294381D01*
X156114382Y-133246762D01*
X156162001Y-133199143D01*
X156209620Y-133103905D01*
X156209620Y-133008667D01*
X156162001Y-132913429D01*
X156114382Y-132865810D01*
X156019144Y-132818190D01*
X155828667Y-132770571D01*
X155733429Y-132722952D01*
X155685810Y-132675333D01*
X155638191Y-132580095D01*
X155638191Y-132484857D01*
X155685810Y-132389619D01*
X155733429Y-132342000D01*
X155828667Y-132294381D01*
X156066763Y-132294381D01*
X156209620Y-132342000D01*
M02*
