G04 #@! TF.FileFunction,Other,Fab,Top*
%FSLAX46Y46*%
G04 Gerber Fmt 4.6, Leading zero omitted, Abs format (unit mm)*
G04 Created by KiCad (PCBNEW 4.0.5+dfsg1-4) date Tue Aug 14 17:39:56 2018*
%MOMM*%
%LPD*%
G01*
G04 APERTURE LIST*
%ADD10C,0.100000*%
%ADD11C,0.150000*%
G04 APERTURE END LIST*
D10*
D11*
X114086191Y-133453143D02*
X114038572Y-133500762D01*
X113895715Y-133548381D01*
X113800477Y-133548381D01*
X113657619Y-133500762D01*
X113562381Y-133405524D01*
X113514762Y-133310286D01*
X113467143Y-133119810D01*
X113467143Y-132976952D01*
X113514762Y-132786476D01*
X113562381Y-132691238D01*
X113657619Y-132596000D01*
X113800477Y-132548381D01*
X113895715Y-132548381D01*
X114038572Y-132596000D01*
X114086191Y-132643619D01*
X114705238Y-132548381D02*
X114895715Y-132548381D01*
X114990953Y-132596000D01*
X115086191Y-132691238D01*
X115133810Y-132881714D01*
X115133810Y-133215048D01*
X115086191Y-133405524D01*
X114990953Y-133500762D01*
X114895715Y-133548381D01*
X114705238Y-133548381D01*
X114610000Y-133500762D01*
X114514762Y-133405524D01*
X114467143Y-133215048D01*
X114467143Y-132881714D01*
X114514762Y-132691238D01*
X114610000Y-132596000D01*
X114705238Y-132548381D01*
X115562381Y-133548381D02*
X115562381Y-132548381D01*
X116133810Y-133548381D01*
X116133810Y-132548381D01*
X116610000Y-133548381D02*
X116610000Y-132548381D01*
X117181429Y-133548381D01*
X117181429Y-132548381D01*
X117419524Y-133643619D02*
X118181429Y-133643619D01*
X118610000Y-132548381D02*
X118705239Y-132548381D01*
X118800477Y-132596000D01*
X118848096Y-132643619D01*
X118895715Y-132738857D01*
X118943334Y-132929333D01*
X118943334Y-133167429D01*
X118895715Y-133357905D01*
X118848096Y-133453143D01*
X118800477Y-133500762D01*
X118705239Y-133548381D01*
X118610000Y-133548381D01*
X118514762Y-133500762D01*
X118467143Y-133453143D01*
X118419524Y-133357905D01*
X118371905Y-133167429D01*
X118371905Y-132929333D01*
X118419524Y-132738857D01*
X118467143Y-132643619D01*
X118514762Y-132596000D01*
X118610000Y-132548381D01*
X119895715Y-133548381D02*
X119324286Y-133548381D01*
X119610000Y-133548381D02*
X119610000Y-132548381D01*
X119514762Y-132691238D01*
X119419524Y-132786476D01*
X119324286Y-132834095D01*
X120229048Y-132548381D02*
X120895715Y-133548381D01*
X120895715Y-132548381D02*
X120229048Y-133548381D01*
X121467143Y-132548381D02*
X121562382Y-132548381D01*
X121657620Y-132596000D01*
X121705239Y-132643619D01*
X121752858Y-132738857D01*
X121800477Y-132929333D01*
X121800477Y-133167429D01*
X121752858Y-133357905D01*
X121705239Y-133453143D01*
X121657620Y-133500762D01*
X121562382Y-133548381D01*
X121467143Y-133548381D01*
X121371905Y-133500762D01*
X121324286Y-133453143D01*
X121276667Y-133357905D01*
X121229048Y-133167429D01*
X121229048Y-132929333D01*
X121276667Y-132738857D01*
X121324286Y-132643619D01*
X121371905Y-132596000D01*
X121467143Y-132548381D01*
X122705239Y-132548381D02*
X122229048Y-132548381D01*
X122181429Y-133024571D01*
X122229048Y-132976952D01*
X122324286Y-132929333D01*
X122562382Y-132929333D01*
X122657620Y-132976952D01*
X122705239Y-133024571D01*
X122752858Y-133119810D01*
X122752858Y-133357905D01*
X122705239Y-133453143D01*
X122657620Y-133500762D01*
X122562382Y-133548381D01*
X122324286Y-133548381D01*
X122229048Y-133500762D01*
X122181429Y-133453143D01*
X138978191Y-133199143D02*
X138930572Y-133246762D01*
X138787715Y-133294381D01*
X138692477Y-133294381D01*
X138549619Y-133246762D01*
X138454381Y-133151524D01*
X138406762Y-133056286D01*
X138359143Y-132865810D01*
X138359143Y-132722952D01*
X138406762Y-132532476D01*
X138454381Y-132437238D01*
X138549619Y-132342000D01*
X138692477Y-132294381D01*
X138787715Y-132294381D01*
X138930572Y-132342000D01*
X138978191Y-132389619D01*
X139597238Y-132294381D02*
X139787715Y-132294381D01*
X139882953Y-132342000D01*
X139978191Y-132437238D01*
X140025810Y-132627714D01*
X140025810Y-132961048D01*
X139978191Y-133151524D01*
X139882953Y-133246762D01*
X139787715Y-133294381D01*
X139597238Y-133294381D01*
X139502000Y-133246762D01*
X139406762Y-133151524D01*
X139359143Y-132961048D01*
X139359143Y-132627714D01*
X139406762Y-132437238D01*
X139502000Y-132342000D01*
X139597238Y-132294381D01*
X140454381Y-133294381D02*
X140454381Y-132294381D01*
X141025810Y-133294381D01*
X141025810Y-132294381D01*
X141502000Y-133294381D02*
X141502000Y-132294381D01*
X142073429Y-133294381D01*
X142073429Y-132294381D01*
X142311524Y-133389619D02*
X143073429Y-133389619D01*
X143502000Y-132294381D02*
X143597239Y-132294381D01*
X143692477Y-132342000D01*
X143740096Y-132389619D01*
X143787715Y-132484857D01*
X143835334Y-132675333D01*
X143835334Y-132913429D01*
X143787715Y-133103905D01*
X143740096Y-133199143D01*
X143692477Y-133246762D01*
X143597239Y-133294381D01*
X143502000Y-133294381D01*
X143406762Y-133246762D01*
X143359143Y-133199143D01*
X143311524Y-133103905D01*
X143263905Y-132913429D01*
X143263905Y-132675333D01*
X143311524Y-132484857D01*
X143359143Y-132389619D01*
X143406762Y-132342000D01*
X143502000Y-132294381D01*
X144787715Y-133294381D02*
X144216286Y-133294381D01*
X144502000Y-133294381D02*
X144502000Y-132294381D01*
X144406762Y-132437238D01*
X144311524Y-132532476D01*
X144216286Y-132580095D01*
X145121048Y-132294381D02*
X145787715Y-133294381D01*
X145787715Y-132294381D02*
X145121048Y-133294381D01*
X146359143Y-132294381D02*
X146454382Y-132294381D01*
X146549620Y-132342000D01*
X146597239Y-132389619D01*
X146644858Y-132484857D01*
X146692477Y-132675333D01*
X146692477Y-132913429D01*
X146644858Y-133103905D01*
X146597239Y-133199143D01*
X146549620Y-133246762D01*
X146454382Y-133294381D01*
X146359143Y-133294381D01*
X146263905Y-133246762D01*
X146216286Y-133199143D01*
X146168667Y-133103905D01*
X146121048Y-132913429D01*
X146121048Y-132675333D01*
X146168667Y-132484857D01*
X146216286Y-132389619D01*
X146263905Y-132342000D01*
X146359143Y-132294381D01*
X147025810Y-132294381D02*
X147644858Y-132294381D01*
X147311524Y-132675333D01*
X147454382Y-132675333D01*
X147549620Y-132722952D01*
X147597239Y-132770571D01*
X147644858Y-132865810D01*
X147644858Y-133103905D01*
X147597239Y-133199143D01*
X147549620Y-133246762D01*
X147454382Y-133294381D01*
X147168667Y-133294381D01*
X147073429Y-133246762D01*
X147025810Y-133199143D01*
X128056191Y-106021143D02*
X128008572Y-106068762D01*
X127865715Y-106116381D01*
X127770477Y-106116381D01*
X127627619Y-106068762D01*
X127532381Y-105973524D01*
X127484762Y-105878286D01*
X127437143Y-105687810D01*
X127437143Y-105544952D01*
X127484762Y-105354476D01*
X127532381Y-105259238D01*
X127627619Y-105164000D01*
X127770477Y-105116381D01*
X127865715Y-105116381D01*
X128008572Y-105164000D01*
X128056191Y-105211619D01*
X128675238Y-105116381D02*
X128865715Y-105116381D01*
X128960953Y-105164000D01*
X129056191Y-105259238D01*
X129103810Y-105449714D01*
X129103810Y-105783048D01*
X129056191Y-105973524D01*
X128960953Y-106068762D01*
X128865715Y-106116381D01*
X128675238Y-106116381D01*
X128580000Y-106068762D01*
X128484762Y-105973524D01*
X128437143Y-105783048D01*
X128437143Y-105449714D01*
X128484762Y-105259238D01*
X128580000Y-105164000D01*
X128675238Y-105116381D01*
X129532381Y-106116381D02*
X129532381Y-105116381D01*
X130103810Y-106116381D01*
X130103810Y-105116381D01*
X130580000Y-106116381D02*
X130580000Y-105116381D01*
X131151429Y-106116381D01*
X131151429Y-105116381D01*
X131389524Y-106211619D02*
X132151429Y-106211619D01*
X132580000Y-105116381D02*
X132675239Y-105116381D01*
X132770477Y-105164000D01*
X132818096Y-105211619D01*
X132865715Y-105306857D01*
X132913334Y-105497333D01*
X132913334Y-105735429D01*
X132865715Y-105925905D01*
X132818096Y-106021143D01*
X132770477Y-106068762D01*
X132675239Y-106116381D01*
X132580000Y-106116381D01*
X132484762Y-106068762D01*
X132437143Y-106021143D01*
X132389524Y-105925905D01*
X132341905Y-105735429D01*
X132341905Y-105497333D01*
X132389524Y-105306857D01*
X132437143Y-105211619D01*
X132484762Y-105164000D01*
X132580000Y-105116381D01*
X133865715Y-106116381D02*
X133294286Y-106116381D01*
X133580000Y-106116381D02*
X133580000Y-105116381D01*
X133484762Y-105259238D01*
X133389524Y-105354476D01*
X133294286Y-105402095D01*
X134199048Y-105116381D02*
X134865715Y-106116381D01*
X134865715Y-105116381D02*
X134199048Y-106116381D01*
X135437143Y-105116381D02*
X135532382Y-105116381D01*
X135627620Y-105164000D01*
X135675239Y-105211619D01*
X135722858Y-105306857D01*
X135770477Y-105497333D01*
X135770477Y-105735429D01*
X135722858Y-105925905D01*
X135675239Y-106021143D01*
X135627620Y-106068762D01*
X135532382Y-106116381D01*
X135437143Y-106116381D01*
X135341905Y-106068762D01*
X135294286Y-106021143D01*
X135246667Y-105925905D01*
X135199048Y-105735429D01*
X135199048Y-105497333D01*
X135246667Y-105306857D01*
X135294286Y-105211619D01*
X135341905Y-105164000D01*
X135437143Y-105116381D01*
X136151429Y-105211619D02*
X136199048Y-105164000D01*
X136294286Y-105116381D01*
X136532382Y-105116381D01*
X136627620Y-105164000D01*
X136675239Y-105211619D01*
X136722858Y-105306857D01*
X136722858Y-105402095D01*
X136675239Y-105544952D01*
X136103810Y-106116381D01*
X136722858Y-106116381D01*
M02*
