G04 #@! TF.FileFunction,Profile,NP*
%FSLAX46Y46*%
G04 Gerber Fmt 4.6, Leading zero omitted, Abs format (unit mm)*
G04 Created by KiCad (PCBNEW 4.0.5+dfsg1-4) date Tue Aug 14 16:23:05 2018*
%MOMM*%
%LPD*%
G01*
G04 APERTURE LIST*
%ADD10C,0.100000*%
%ADD11C,0.150000*%
G04 APERTURE END LIST*
D10*
D11*
X139446000Y-116586000D02*
X148844000Y-116586000D01*
X148844000Y-106680000D02*
X139446000Y-106680000D01*
X139446000Y-116586000D02*
X139446000Y-106680000D01*
X148844000Y-106680000D02*
X148844000Y-116586000D01*
X148367269Y-108204000D02*
G75*
G03X148367269Y-108204000I-1047269J0D01*
G01*
X148367269Y-115062000D02*
G75*
G03X148367269Y-115062000I-1047269J0D01*
G01*
X139446000Y-132080000D02*
X139446000Y-120904000D01*
X156210000Y-120904000D02*
X156210000Y-132080000D01*
X156210000Y-132080000D02*
X139446000Y-132080000D01*
X139446000Y-120904000D02*
X156210000Y-120904000D01*
X142017269Y-115062000D02*
G75*
G03X142017269Y-115062000I-1047269J0D01*
G01*
X142017269Y-108204000D02*
G75*
G03X142017269Y-108204000I-1047269J0D01*
G01*
X142271269Y-122428000D02*
G75*
G03X142271269Y-122428000I-1047269J0D01*
G01*
X155479269Y-122428000D02*
G75*
G03X155479269Y-122428000I-1047269J0D01*
G01*
X155733269Y-130556000D02*
G75*
G03X155733269Y-130556000I-1047269J0D01*
G01*
X142271269Y-130556000D02*
G75*
G03X142271269Y-130556000I-1047269J0D01*
G01*
X137445269Y-130556000D02*
G75*
G03X137445269Y-130556000I-1047269J0D01*
G01*
X116109269Y-130556000D02*
G75*
G03X116109269Y-130556000I-1047269J0D01*
G01*
X137445269Y-107950000D02*
G75*
G03X137445269Y-107950000I-1047269J0D01*
G01*
X116109269Y-107950000D02*
G75*
G03X116109269Y-107950000I-1047269J0D01*
G01*
X113538000Y-132080000D02*
X113538000Y-106426000D01*
X137922000Y-132080000D02*
X113538000Y-132080000D01*
X137922000Y-106426000D02*
X137922000Y-132080000D01*
X113538000Y-106426000D02*
X137922000Y-106426000D01*
M02*
