G04 #@! TF.FileFunction,Other,Fab,Top*
%FSLAX46Y46*%
G04 Gerber Fmt 4.6, Leading zero omitted, Abs format (unit mm)*
G04 Created by KiCad (PCBNEW 4.0.5+dfsg1-4) date Tue Aug 14 16:23:05 2018*
%MOMM*%
%LPD*%
G01*
G04 APERTURE LIST*
%ADD10C,0.100000*%
%ADD11C,0.150000*%
G04 APERTURE END LIST*
D10*
D11*
X114086191Y-133453143D02*
X114038572Y-133500762D01*
X113895715Y-133548381D01*
X113800477Y-133548381D01*
X113657619Y-133500762D01*
X113562381Y-133405524D01*
X113514762Y-133310286D01*
X113467143Y-133119810D01*
X113467143Y-132976952D01*
X113514762Y-132786476D01*
X113562381Y-132691238D01*
X113657619Y-132596000D01*
X113800477Y-132548381D01*
X113895715Y-132548381D01*
X114038572Y-132596000D01*
X114086191Y-132643619D01*
X114705238Y-132548381D02*
X114895715Y-132548381D01*
X114990953Y-132596000D01*
X115086191Y-132691238D01*
X115133810Y-132881714D01*
X115133810Y-133215048D01*
X115086191Y-133405524D01*
X114990953Y-133500762D01*
X114895715Y-133548381D01*
X114705238Y-133548381D01*
X114610000Y-133500762D01*
X114514762Y-133405524D01*
X114467143Y-133215048D01*
X114467143Y-132881714D01*
X114514762Y-132691238D01*
X114610000Y-132596000D01*
X114705238Y-132548381D01*
X115562381Y-133548381D02*
X115562381Y-132548381D01*
X116133810Y-133548381D01*
X116133810Y-132548381D01*
X116610000Y-133548381D02*
X116610000Y-132548381D01*
X117181429Y-133548381D01*
X117181429Y-132548381D01*
X117419524Y-133643619D02*
X118181429Y-133643619D01*
X118610000Y-132548381D02*
X118705239Y-132548381D01*
X118800477Y-132596000D01*
X118848096Y-132643619D01*
X118895715Y-132738857D01*
X118943334Y-132929333D01*
X118943334Y-133167429D01*
X118895715Y-133357905D01*
X118848096Y-133453143D01*
X118800477Y-133500762D01*
X118705239Y-133548381D01*
X118610000Y-133548381D01*
X118514762Y-133500762D01*
X118467143Y-133453143D01*
X118419524Y-133357905D01*
X118371905Y-133167429D01*
X118371905Y-132929333D01*
X118419524Y-132738857D01*
X118467143Y-132643619D01*
X118514762Y-132596000D01*
X118610000Y-132548381D01*
X119895715Y-133548381D02*
X119324286Y-133548381D01*
X119610000Y-133548381D02*
X119610000Y-132548381D01*
X119514762Y-132691238D01*
X119419524Y-132786476D01*
X119324286Y-132834095D01*
X120229048Y-132548381D02*
X120895715Y-133548381D01*
X120895715Y-132548381D02*
X120229048Y-133548381D01*
X121467143Y-132548381D02*
X121562382Y-132548381D01*
X121657620Y-132596000D01*
X121705239Y-132643619D01*
X121752858Y-132738857D01*
X121800477Y-132929333D01*
X121800477Y-133167429D01*
X121752858Y-133357905D01*
X121705239Y-133453143D01*
X121657620Y-133500762D01*
X121562382Y-133548381D01*
X121467143Y-133548381D01*
X121371905Y-133500762D01*
X121324286Y-133453143D01*
X121276667Y-133357905D01*
X121229048Y-133167429D01*
X121229048Y-132929333D01*
X121276667Y-132738857D01*
X121324286Y-132643619D01*
X121371905Y-132596000D01*
X121467143Y-132548381D01*
X122705239Y-132548381D02*
X122229048Y-132548381D01*
X122181429Y-133024571D01*
X122229048Y-132976952D01*
X122324286Y-132929333D01*
X122562382Y-132929333D01*
X122657620Y-132976952D01*
X122705239Y-133024571D01*
X122752858Y-133119810D01*
X122752858Y-133357905D01*
X122705239Y-133453143D01*
X122657620Y-133500762D01*
X122562382Y-133548381D01*
X122324286Y-133548381D01*
X122229048Y-133500762D01*
X122181429Y-133453143D01*
X139994191Y-133199143D02*
X139946572Y-133246762D01*
X139803715Y-133294381D01*
X139708477Y-133294381D01*
X139565619Y-133246762D01*
X139470381Y-133151524D01*
X139422762Y-133056286D01*
X139375143Y-132865810D01*
X139375143Y-132722952D01*
X139422762Y-132532476D01*
X139470381Y-132437238D01*
X139565619Y-132342000D01*
X139708477Y-132294381D01*
X139803715Y-132294381D01*
X139946572Y-132342000D01*
X139994191Y-132389619D01*
X140613238Y-132294381D02*
X140803715Y-132294381D01*
X140898953Y-132342000D01*
X140994191Y-132437238D01*
X141041810Y-132627714D01*
X141041810Y-132961048D01*
X140994191Y-133151524D01*
X140898953Y-133246762D01*
X140803715Y-133294381D01*
X140613238Y-133294381D01*
X140518000Y-133246762D01*
X140422762Y-133151524D01*
X140375143Y-132961048D01*
X140375143Y-132627714D01*
X140422762Y-132437238D01*
X140518000Y-132342000D01*
X140613238Y-132294381D01*
X141470381Y-133294381D02*
X141470381Y-132294381D01*
X142041810Y-133294381D01*
X142041810Y-132294381D01*
X142518000Y-133294381D02*
X142518000Y-132294381D01*
X143089429Y-133294381D01*
X143089429Y-132294381D01*
X143327524Y-133389619D02*
X144089429Y-133389619D01*
X144518000Y-132294381D02*
X144613239Y-132294381D01*
X144708477Y-132342000D01*
X144756096Y-132389619D01*
X144803715Y-132484857D01*
X144851334Y-132675333D01*
X144851334Y-132913429D01*
X144803715Y-133103905D01*
X144756096Y-133199143D01*
X144708477Y-133246762D01*
X144613239Y-133294381D01*
X144518000Y-133294381D01*
X144422762Y-133246762D01*
X144375143Y-133199143D01*
X144327524Y-133103905D01*
X144279905Y-132913429D01*
X144279905Y-132675333D01*
X144327524Y-132484857D01*
X144375143Y-132389619D01*
X144422762Y-132342000D01*
X144518000Y-132294381D01*
X145803715Y-133294381D02*
X145232286Y-133294381D01*
X145518000Y-133294381D02*
X145518000Y-132294381D01*
X145422762Y-132437238D01*
X145327524Y-132532476D01*
X145232286Y-132580095D01*
X146137048Y-132294381D02*
X146803715Y-133294381D01*
X146803715Y-132294381D02*
X146137048Y-133294381D01*
X147375143Y-132294381D02*
X147470382Y-132294381D01*
X147565620Y-132342000D01*
X147613239Y-132389619D01*
X147660858Y-132484857D01*
X147708477Y-132675333D01*
X147708477Y-132913429D01*
X147660858Y-133103905D01*
X147613239Y-133199143D01*
X147565620Y-133246762D01*
X147470382Y-133294381D01*
X147375143Y-133294381D01*
X147279905Y-133246762D01*
X147232286Y-133199143D01*
X147184667Y-133103905D01*
X147137048Y-132913429D01*
X147137048Y-132675333D01*
X147184667Y-132484857D01*
X147232286Y-132389619D01*
X147279905Y-132342000D01*
X147375143Y-132294381D01*
X148041810Y-132294381D02*
X148660858Y-132294381D01*
X148327524Y-132675333D01*
X148470382Y-132675333D01*
X148565620Y-132722952D01*
X148613239Y-132770571D01*
X148660858Y-132865810D01*
X148660858Y-133103905D01*
X148613239Y-133199143D01*
X148565620Y-133246762D01*
X148470382Y-133294381D01*
X148184667Y-133294381D01*
X148089429Y-133246762D01*
X148041810Y-133199143D01*
X140248191Y-117705143D02*
X140200572Y-117752762D01*
X140057715Y-117800381D01*
X139962477Y-117800381D01*
X139819619Y-117752762D01*
X139724381Y-117657524D01*
X139676762Y-117562286D01*
X139629143Y-117371810D01*
X139629143Y-117228952D01*
X139676762Y-117038476D01*
X139724381Y-116943238D01*
X139819619Y-116848000D01*
X139962477Y-116800381D01*
X140057715Y-116800381D01*
X140200572Y-116848000D01*
X140248191Y-116895619D01*
X140867238Y-116800381D02*
X141057715Y-116800381D01*
X141152953Y-116848000D01*
X141248191Y-116943238D01*
X141295810Y-117133714D01*
X141295810Y-117467048D01*
X141248191Y-117657524D01*
X141152953Y-117752762D01*
X141057715Y-117800381D01*
X140867238Y-117800381D01*
X140772000Y-117752762D01*
X140676762Y-117657524D01*
X140629143Y-117467048D01*
X140629143Y-117133714D01*
X140676762Y-116943238D01*
X140772000Y-116848000D01*
X140867238Y-116800381D01*
X141724381Y-117800381D02*
X141724381Y-116800381D01*
X142295810Y-117800381D01*
X142295810Y-116800381D01*
X142772000Y-117800381D02*
X142772000Y-116800381D01*
X143343429Y-117800381D01*
X143343429Y-116800381D01*
X143581524Y-117895619D02*
X144343429Y-117895619D01*
X144772000Y-116800381D02*
X144867239Y-116800381D01*
X144962477Y-116848000D01*
X145010096Y-116895619D01*
X145057715Y-116990857D01*
X145105334Y-117181333D01*
X145105334Y-117419429D01*
X145057715Y-117609905D01*
X145010096Y-117705143D01*
X144962477Y-117752762D01*
X144867239Y-117800381D01*
X144772000Y-117800381D01*
X144676762Y-117752762D01*
X144629143Y-117705143D01*
X144581524Y-117609905D01*
X144533905Y-117419429D01*
X144533905Y-117181333D01*
X144581524Y-116990857D01*
X144629143Y-116895619D01*
X144676762Y-116848000D01*
X144772000Y-116800381D01*
X146057715Y-117800381D02*
X145486286Y-117800381D01*
X145772000Y-117800381D02*
X145772000Y-116800381D01*
X145676762Y-116943238D01*
X145581524Y-117038476D01*
X145486286Y-117086095D01*
X146391048Y-116800381D02*
X147057715Y-117800381D01*
X147057715Y-116800381D02*
X146391048Y-117800381D01*
X147629143Y-116800381D02*
X147724382Y-116800381D01*
X147819620Y-116848000D01*
X147867239Y-116895619D01*
X147914858Y-116990857D01*
X147962477Y-117181333D01*
X147962477Y-117419429D01*
X147914858Y-117609905D01*
X147867239Y-117705143D01*
X147819620Y-117752762D01*
X147724382Y-117800381D01*
X147629143Y-117800381D01*
X147533905Y-117752762D01*
X147486286Y-117705143D01*
X147438667Y-117609905D01*
X147391048Y-117419429D01*
X147391048Y-117181333D01*
X147438667Y-116990857D01*
X147486286Y-116895619D01*
X147533905Y-116848000D01*
X147629143Y-116800381D01*
X148343429Y-116895619D02*
X148391048Y-116848000D01*
X148486286Y-116800381D01*
X148724382Y-116800381D01*
X148819620Y-116848000D01*
X148867239Y-116895619D01*
X148914858Y-116990857D01*
X148914858Y-117086095D01*
X148867239Y-117228952D01*
X148295810Y-117800381D01*
X148914858Y-117800381D01*
M02*
