G04 #@! TF.FileFunction,Other,Fab,Top*
%FSLAX46Y46*%
G04 Gerber Fmt 4.6, Leading zero omitted, Abs format (unit mm)*
G04 Created by KiCad (PCBNEW 4.0.5+dfsg1-4) date Thu Oct 18 19:18:12 2018*
%MOMM*%
%LPD*%
G01*
G04 APERTURE LIST*
%ADD10C,0.100000*%
%ADD11C,0.150000*%
G04 APERTURE END LIST*
D10*
D11*
X118408000Y-112716000D02*
X124908000Y-112716000D01*
X124908000Y-112716000D02*
X124908000Y-130616000D01*
X124908000Y-130616000D02*
X117408000Y-130616000D01*
X117408000Y-130616000D02*
X117408000Y-113716000D01*
X117408000Y-113716000D02*
X118408000Y-112716000D01*
X103164191Y-119737143D02*
X103116572Y-119784762D01*
X102973715Y-119832381D01*
X102878477Y-119832381D01*
X102735619Y-119784762D01*
X102640381Y-119689524D01*
X102592762Y-119594286D01*
X102545143Y-119403810D01*
X102545143Y-119260952D01*
X102592762Y-119070476D01*
X102640381Y-118975238D01*
X102735619Y-118880000D01*
X102878477Y-118832381D01*
X102973715Y-118832381D01*
X103116572Y-118880000D01*
X103164191Y-118927619D01*
X103783238Y-118832381D02*
X103973715Y-118832381D01*
X104068953Y-118880000D01*
X104164191Y-118975238D01*
X104211810Y-119165714D01*
X104211810Y-119499048D01*
X104164191Y-119689524D01*
X104068953Y-119784762D01*
X103973715Y-119832381D01*
X103783238Y-119832381D01*
X103688000Y-119784762D01*
X103592762Y-119689524D01*
X103545143Y-119499048D01*
X103545143Y-119165714D01*
X103592762Y-118975238D01*
X103688000Y-118880000D01*
X103783238Y-118832381D01*
X104640381Y-119832381D02*
X104640381Y-118832381D01*
X105211810Y-119832381D01*
X105211810Y-118832381D01*
X105688000Y-119832381D02*
X105688000Y-118832381D01*
X106259429Y-119832381D01*
X106259429Y-118832381D01*
X106497524Y-119927619D02*
X107259429Y-119927619D01*
X107688000Y-118832381D02*
X107783239Y-118832381D01*
X107878477Y-118880000D01*
X107926096Y-118927619D01*
X107973715Y-119022857D01*
X108021334Y-119213333D01*
X108021334Y-119451429D01*
X107973715Y-119641905D01*
X107926096Y-119737143D01*
X107878477Y-119784762D01*
X107783239Y-119832381D01*
X107688000Y-119832381D01*
X107592762Y-119784762D01*
X107545143Y-119737143D01*
X107497524Y-119641905D01*
X107449905Y-119451429D01*
X107449905Y-119213333D01*
X107497524Y-119022857D01*
X107545143Y-118927619D01*
X107592762Y-118880000D01*
X107688000Y-118832381D01*
X108973715Y-119832381D02*
X108402286Y-119832381D01*
X108688000Y-119832381D02*
X108688000Y-118832381D01*
X108592762Y-118975238D01*
X108497524Y-119070476D01*
X108402286Y-119118095D01*
X109307048Y-118832381D02*
X109973715Y-119832381D01*
X109973715Y-118832381D02*
X109307048Y-119832381D01*
X110545143Y-118832381D02*
X110640382Y-118832381D01*
X110735620Y-118880000D01*
X110783239Y-118927619D01*
X110830858Y-119022857D01*
X110878477Y-119213333D01*
X110878477Y-119451429D01*
X110830858Y-119641905D01*
X110783239Y-119737143D01*
X110735620Y-119784762D01*
X110640382Y-119832381D01*
X110545143Y-119832381D01*
X110449905Y-119784762D01*
X110402286Y-119737143D01*
X110354667Y-119641905D01*
X110307048Y-119451429D01*
X110307048Y-119213333D01*
X110354667Y-119022857D01*
X110402286Y-118927619D01*
X110449905Y-118880000D01*
X110545143Y-118832381D01*
X111259429Y-118927619D02*
X111307048Y-118880000D01*
X111402286Y-118832381D01*
X111640382Y-118832381D01*
X111735620Y-118880000D01*
X111783239Y-118927619D01*
X111830858Y-119022857D01*
X111830858Y-119118095D01*
X111783239Y-119260952D01*
X111211810Y-119832381D01*
X111830858Y-119832381D01*
X117134191Y-132073143D02*
X117086572Y-132120762D01*
X116943715Y-132168381D01*
X116848477Y-132168381D01*
X116705619Y-132120762D01*
X116610381Y-132025524D01*
X116562762Y-131930286D01*
X116515143Y-131739810D01*
X116515143Y-131596952D01*
X116562762Y-131406476D01*
X116610381Y-131311238D01*
X116705619Y-131216000D01*
X116848477Y-131168381D01*
X116943715Y-131168381D01*
X117086572Y-131216000D01*
X117134191Y-131263619D01*
X117753238Y-131168381D02*
X117943715Y-131168381D01*
X118038953Y-131216000D01*
X118134191Y-131311238D01*
X118181810Y-131501714D01*
X118181810Y-131835048D01*
X118134191Y-132025524D01*
X118038953Y-132120762D01*
X117943715Y-132168381D01*
X117753238Y-132168381D01*
X117658000Y-132120762D01*
X117562762Y-132025524D01*
X117515143Y-131835048D01*
X117515143Y-131501714D01*
X117562762Y-131311238D01*
X117658000Y-131216000D01*
X117753238Y-131168381D01*
X118610381Y-132168381D02*
X118610381Y-131168381D01*
X119181810Y-132168381D01*
X119181810Y-131168381D01*
X119658000Y-132168381D02*
X119658000Y-131168381D01*
X120229429Y-132168381D01*
X120229429Y-131168381D01*
X120467524Y-132263619D02*
X121229429Y-132263619D01*
X121658000Y-131168381D02*
X121753239Y-131168381D01*
X121848477Y-131216000D01*
X121896096Y-131263619D01*
X121943715Y-131358857D01*
X121991334Y-131549333D01*
X121991334Y-131787429D01*
X121943715Y-131977905D01*
X121896096Y-132073143D01*
X121848477Y-132120762D01*
X121753239Y-132168381D01*
X121658000Y-132168381D01*
X121562762Y-132120762D01*
X121515143Y-132073143D01*
X121467524Y-131977905D01*
X121419905Y-131787429D01*
X121419905Y-131549333D01*
X121467524Y-131358857D01*
X121515143Y-131263619D01*
X121562762Y-131216000D01*
X121658000Y-131168381D01*
X122943715Y-132168381D02*
X122372286Y-132168381D01*
X122658000Y-132168381D02*
X122658000Y-131168381D01*
X122562762Y-131311238D01*
X122467524Y-131406476D01*
X122372286Y-131454095D01*
X123277048Y-131168381D02*
X123943715Y-132168381D01*
X123943715Y-131168381D02*
X123277048Y-132168381D01*
X124277048Y-131263619D02*
X124324667Y-131216000D01*
X124419905Y-131168381D01*
X124658001Y-131168381D01*
X124753239Y-131216000D01*
X124800858Y-131263619D01*
X124848477Y-131358857D01*
X124848477Y-131454095D01*
X124800858Y-131596952D01*
X124229429Y-132168381D01*
X124848477Y-132168381D01*
X125419905Y-131596952D02*
X125324667Y-131549333D01*
X125277048Y-131501714D01*
X125229429Y-131406476D01*
X125229429Y-131358857D01*
X125277048Y-131263619D01*
X125324667Y-131216000D01*
X125419905Y-131168381D01*
X125610382Y-131168381D01*
X125705620Y-131216000D01*
X125753239Y-131263619D01*
X125800858Y-131358857D01*
X125800858Y-131406476D01*
X125753239Y-131501714D01*
X125705620Y-131549333D01*
X125610382Y-131596952D01*
X125419905Y-131596952D01*
X125324667Y-131644571D01*
X125277048Y-131692190D01*
X125229429Y-131787429D01*
X125229429Y-131977905D01*
X125277048Y-132073143D01*
X125324667Y-132120762D01*
X125419905Y-132168381D01*
X125610382Y-132168381D01*
X125705620Y-132120762D01*
X125753239Y-132073143D01*
X125800858Y-131977905D01*
X125800858Y-131787429D01*
X125753239Y-131692190D01*
X125705620Y-131644571D01*
X125610382Y-131596952D01*
M02*
