G04 #@! TF.FileFunction,Copper,L1,Top,Signal*
%FSLAX46Y46*%
G04 Gerber Fmt 4.6, Leading zero omitted, Abs format (unit mm)*
G04 Created by KiCad (PCBNEW 4.0.5+dfsg1-4) date Tue Aug 14 17:39:56 2018*
%MOMM*%
%LPD*%
G01*
G04 APERTURE LIST*
%ADD10C,0.100000*%
%ADD11C,0.150000*%
%ADD12R,1.000000X2.000000*%
%ADD13R,2.000000X4.500000*%
%ADD14R,1.600000X2.000000*%
%ADD15R,2.000000X2.000000*%
%ADD16C,0.200000*%
%ADD17C,0.254000*%
G04 APERTURE END LIST*
D10*
D11*
X142799249Y-108490277D02*
G75*
G03X142802000Y-112490000I202751J-1999723D01*
G01*
X142798800Y-108508800D02*
X142798800Y-112471200D01*
X142773400Y-111531400D02*
X141376400Y-111531400D01*
X142773400Y-111658400D02*
X141452600Y-111658400D01*
X142773400Y-111785400D02*
X141528800Y-111785400D01*
X142773400Y-111912400D02*
X141655800Y-111912400D01*
X142773400Y-112039400D02*
X141782800Y-112039400D01*
X142773400Y-112166400D02*
X141986000Y-112166400D01*
X142773400Y-112293400D02*
X142214600Y-112293400D01*
X142773400Y-112395000D02*
X142570200Y-112395000D01*
X141173200Y-111201200D02*
X141173200Y-109778800D01*
X141071600Y-110871000D02*
X141071600Y-110058200D01*
X142773400Y-109448600D02*
X141376400Y-109448600D01*
X142773400Y-109321600D02*
X141427200Y-109321600D01*
X142773400Y-109194600D02*
X141554200Y-109194600D01*
X142773400Y-109067600D02*
X141655800Y-109067600D01*
X142773400Y-108966000D02*
X141782800Y-108966000D01*
X142773400Y-108839000D02*
X141909800Y-108839000D01*
X142773400Y-108712000D02*
X142138400Y-108712000D01*
X142773400Y-108610400D02*
X142468600Y-108610400D01*
X143230600Y-108610400D02*
X143535400Y-108610400D01*
X143230600Y-108712000D02*
X143865600Y-108712000D01*
X143230600Y-108839000D02*
X144094200Y-108839000D01*
X143230600Y-108966000D02*
X144221200Y-108966000D01*
X143230600Y-109067600D02*
X144348200Y-109067600D01*
X143230600Y-109194600D02*
X144449800Y-109194600D01*
X143230600Y-109321600D02*
X144576800Y-109321600D01*
X143230600Y-109448600D02*
X144627600Y-109448600D01*
X144932400Y-110871000D02*
X144932400Y-110058200D01*
X144830800Y-111201200D02*
X144830800Y-109778800D01*
X143230600Y-112395000D02*
X143433800Y-112395000D01*
X143230600Y-112293400D02*
X143789400Y-112293400D01*
X143230600Y-112166400D02*
X144018000Y-112166400D01*
X143230600Y-112039400D02*
X144221200Y-112039400D01*
X143230600Y-111912400D02*
X144348200Y-111912400D01*
X143230600Y-111785400D02*
X144475200Y-111785400D01*
X143230600Y-111658400D02*
X144551400Y-111658400D01*
X143230600Y-111531400D02*
X144627600Y-111531400D01*
X143205200Y-108508800D02*
X143205200Y-112471200D01*
X143204751Y-108490277D02*
G75*
G02X143202000Y-112490000I-202751J-1999723D01*
G01*
D12*
X125730000Y-131064000D03*
X123952000Y-131064000D03*
X122174000Y-131064000D03*
X127508000Y-131064000D03*
X129286000Y-131064000D03*
X148590000Y-130556000D03*
X146812000Y-130556000D03*
X145034000Y-130556000D03*
X144018000Y-114808000D03*
X142240000Y-114808000D03*
D13*
X132150000Y-118110000D03*
X134550000Y-118110000D03*
X119310000Y-118110000D03*
X116910000Y-118110000D03*
X124530000Y-125730000D03*
X126930000Y-125730000D03*
X126930000Y-110490000D03*
X124530000Y-110490000D03*
D14*
X142011400Y-110490000D03*
X143992600Y-110490000D03*
D15*
X140208000Y-124968000D03*
X140208000Y-128016000D03*
X145288000Y-128016000D03*
X145288000Y-124968000D03*
X153416000Y-124968000D03*
X153416000Y-128016000D03*
X148336000Y-128016000D03*
X148336000Y-124968000D03*
D16*
X116910000Y-118110000D02*
X116910000Y-130626000D01*
X117348000Y-131064000D02*
X122174000Y-131064000D01*
X116910000Y-130626000D02*
X117348000Y-131064000D01*
X124530000Y-125730000D02*
X124530000Y-128340000D01*
X125730000Y-129540000D02*
X125730000Y-131064000D01*
X124530000Y-128340000D02*
X125730000Y-129540000D01*
X124530000Y-110490000D02*
X122428000Y-110490000D01*
X123952000Y-129540000D02*
X123952000Y-131064000D01*
X123698000Y-129286000D02*
X123952000Y-129540000D01*
X122682000Y-129286000D02*
X123698000Y-129286000D01*
X122174000Y-128778000D02*
X122682000Y-129286000D01*
X122174000Y-110744000D02*
X122174000Y-128778000D01*
X122428000Y-110490000D02*
X122174000Y-110744000D01*
X127508000Y-131064000D02*
X127508000Y-129540000D01*
X129794000Y-118110000D02*
X132150000Y-118110000D01*
X129032000Y-118872000D02*
X129794000Y-118110000D01*
X129032000Y-128016000D02*
X129032000Y-118872000D01*
X127508000Y-129540000D02*
X129032000Y-128016000D01*
X129286000Y-131064000D02*
X129286000Y-129540000D01*
X134550000Y-127832000D02*
X134550000Y-118110000D01*
X134112000Y-128270000D02*
X134550000Y-127832000D01*
X130556000Y-128270000D02*
X134112000Y-128270000D01*
X129286000Y-129540000D02*
X130556000Y-128270000D01*
X127000000Y-107442000D02*
X127000000Y-110420000D01*
X127000000Y-110420000D02*
X126930000Y-110490000D01*
X119310000Y-118110000D02*
X119310000Y-108020000D01*
X134550000Y-107880000D02*
X134550000Y-118110000D01*
X134112000Y-107442000D02*
X134550000Y-107880000D01*
X119888000Y-107442000D02*
X127000000Y-107442000D01*
X127000000Y-107442000D02*
X134112000Y-107442000D01*
X119310000Y-108020000D02*
X119888000Y-107442000D01*
X126930000Y-125730000D02*
X126930000Y-110490000D01*
X146812000Y-130556000D02*
X146812000Y-124968000D01*
X146812000Y-124968000D02*
X140208000Y-124968000D01*
X140208000Y-124968000D02*
X145288000Y-124968000D01*
X145288000Y-124968000D02*
X148336000Y-124968000D01*
X148336000Y-124968000D02*
X153416000Y-124968000D01*
X140208000Y-128016000D02*
X145288000Y-128016000D01*
X145288000Y-128016000D02*
X145034000Y-128270000D01*
X145034000Y-128270000D02*
X145034000Y-130556000D01*
X148590000Y-130556000D02*
X148590000Y-128270000D01*
X148590000Y-128270000D02*
X148844000Y-128016000D01*
X148844000Y-128016000D02*
X153416000Y-128016000D01*
X142240000Y-114808000D02*
X142240000Y-110718600D01*
X142240000Y-110718600D02*
X142011400Y-110490000D01*
X143992600Y-110490000D02*
X143992600Y-114782600D01*
X143992600Y-114782600D02*
X144018000Y-114808000D01*
D17*
G36*
X146939000Y-130429000D02*
X146959000Y-130429000D01*
X146959000Y-130683000D01*
X146939000Y-130683000D01*
X146939000Y-130703000D01*
X146685000Y-130703000D01*
X146685000Y-130683000D01*
X146665000Y-130683000D01*
X146665000Y-130429000D01*
X146685000Y-130429000D01*
X146685000Y-130409000D01*
X146939000Y-130409000D01*
X146939000Y-130429000D01*
X146939000Y-130429000D01*
G37*
X146939000Y-130429000D02*
X146959000Y-130429000D01*
X146959000Y-130683000D01*
X146939000Y-130683000D01*
X146939000Y-130703000D01*
X146685000Y-130703000D01*
X146685000Y-130683000D01*
X146665000Y-130683000D01*
X146665000Y-130429000D01*
X146685000Y-130429000D01*
X146685000Y-130409000D01*
X146939000Y-130409000D01*
X146939000Y-130429000D01*
G36*
X147325954Y-121406046D02*
X147556295Y-121559954D01*
X147828000Y-121614000D01*
X151887057Y-121614000D01*
X151792495Y-121755522D01*
X151658731Y-122428000D01*
X151792495Y-123100478D01*
X152030018Y-123455957D01*
X151877673Y-123608301D01*
X151781000Y-123841690D01*
X151781000Y-124682250D01*
X151939750Y-124841000D01*
X153289000Y-124841000D01*
X153289000Y-124821000D01*
X153543000Y-124821000D01*
X153543000Y-124841000D01*
X153563000Y-124841000D01*
X153563000Y-125095000D01*
X153543000Y-125095000D01*
X153543000Y-125115000D01*
X153289000Y-125115000D01*
X153289000Y-125095000D01*
X151939750Y-125095000D01*
X151781000Y-125253750D01*
X151781000Y-126094310D01*
X151877673Y-126327699D01*
X152048117Y-126498142D01*
X151964559Y-126551910D01*
X151819569Y-126764110D01*
X151768560Y-127016000D01*
X151768560Y-127281000D01*
X149983440Y-127281000D01*
X149983440Y-127016000D01*
X149939162Y-126780683D01*
X149800090Y-126564559D01*
X149703478Y-126498547D01*
X149874327Y-126327699D01*
X149971000Y-126094310D01*
X149971000Y-125253750D01*
X149812250Y-125095000D01*
X148463000Y-125095000D01*
X148463000Y-125115000D01*
X148209000Y-125115000D01*
X148209000Y-125095000D01*
X146859750Y-125095000D01*
X146812000Y-125142750D01*
X146764250Y-125095000D01*
X145415000Y-125095000D01*
X145415000Y-125115000D01*
X145161000Y-125115000D01*
X145161000Y-125095000D01*
X143811750Y-125095000D01*
X143653000Y-125253750D01*
X143653000Y-126094310D01*
X143749673Y-126327699D01*
X143920117Y-126498142D01*
X143836559Y-126551910D01*
X143691569Y-126764110D01*
X143640560Y-127016000D01*
X143640560Y-127281000D01*
X141855440Y-127281000D01*
X141855440Y-127016000D01*
X141811162Y-126780683D01*
X141672090Y-126564559D01*
X141575478Y-126498547D01*
X141746327Y-126327699D01*
X141843000Y-126094310D01*
X141843000Y-125253750D01*
X141684250Y-125095000D01*
X140335000Y-125095000D01*
X140335000Y-125115000D01*
X140081000Y-125115000D01*
X140081000Y-125095000D01*
X140061000Y-125095000D01*
X140061000Y-124841000D01*
X140081000Y-124841000D01*
X140081000Y-124821000D01*
X140335000Y-124821000D01*
X140335000Y-124841000D01*
X141684250Y-124841000D01*
X141843000Y-124682250D01*
X141843000Y-123841690D01*
X143653000Y-123841690D01*
X143653000Y-124682250D01*
X143811750Y-124841000D01*
X145161000Y-124841000D01*
X145161000Y-123491750D01*
X145415000Y-123491750D01*
X145415000Y-124841000D01*
X146764250Y-124841000D01*
X146812000Y-124793250D01*
X146859750Y-124841000D01*
X148209000Y-124841000D01*
X148209000Y-123491750D01*
X148463000Y-123491750D01*
X148463000Y-124841000D01*
X149812250Y-124841000D01*
X149971000Y-124682250D01*
X149971000Y-123841690D01*
X149874327Y-123608301D01*
X149695698Y-123429673D01*
X149462309Y-123333000D01*
X148621750Y-123333000D01*
X148463000Y-123491750D01*
X148209000Y-123491750D01*
X148050250Y-123333000D01*
X147209691Y-123333000D01*
X146976302Y-123429673D01*
X146812000Y-123593974D01*
X146647698Y-123429673D01*
X146414309Y-123333000D01*
X145573750Y-123333000D01*
X145415000Y-123491750D01*
X145161000Y-123491750D01*
X145002250Y-123333000D01*
X144161691Y-123333000D01*
X143928302Y-123429673D01*
X143749673Y-123608301D01*
X143653000Y-123841690D01*
X141843000Y-123841690D01*
X141746327Y-123608301D01*
X141593982Y-123455957D01*
X141831505Y-123100478D01*
X141965269Y-122428000D01*
X141831505Y-121755522D01*
X141567226Y-121360000D01*
X147295187Y-121360000D01*
X147325954Y-121406046D01*
X147325954Y-121406046D01*
G37*
X147325954Y-121406046D02*
X147556295Y-121559954D01*
X147828000Y-121614000D01*
X151887057Y-121614000D01*
X151792495Y-121755522D01*
X151658731Y-122428000D01*
X151792495Y-123100478D01*
X152030018Y-123455957D01*
X151877673Y-123608301D01*
X151781000Y-123841690D01*
X151781000Y-124682250D01*
X151939750Y-124841000D01*
X153289000Y-124841000D01*
X153289000Y-124821000D01*
X153543000Y-124821000D01*
X153543000Y-124841000D01*
X153563000Y-124841000D01*
X153563000Y-125095000D01*
X153543000Y-125095000D01*
X153543000Y-125115000D01*
X153289000Y-125115000D01*
X153289000Y-125095000D01*
X151939750Y-125095000D01*
X151781000Y-125253750D01*
X151781000Y-126094310D01*
X151877673Y-126327699D01*
X152048117Y-126498142D01*
X151964559Y-126551910D01*
X151819569Y-126764110D01*
X151768560Y-127016000D01*
X151768560Y-127281000D01*
X149983440Y-127281000D01*
X149983440Y-127016000D01*
X149939162Y-126780683D01*
X149800090Y-126564559D01*
X149703478Y-126498547D01*
X149874327Y-126327699D01*
X149971000Y-126094310D01*
X149971000Y-125253750D01*
X149812250Y-125095000D01*
X148463000Y-125095000D01*
X148463000Y-125115000D01*
X148209000Y-125115000D01*
X148209000Y-125095000D01*
X146859750Y-125095000D01*
X146812000Y-125142750D01*
X146764250Y-125095000D01*
X145415000Y-125095000D01*
X145415000Y-125115000D01*
X145161000Y-125115000D01*
X145161000Y-125095000D01*
X143811750Y-125095000D01*
X143653000Y-125253750D01*
X143653000Y-126094310D01*
X143749673Y-126327699D01*
X143920117Y-126498142D01*
X143836559Y-126551910D01*
X143691569Y-126764110D01*
X143640560Y-127016000D01*
X143640560Y-127281000D01*
X141855440Y-127281000D01*
X141855440Y-127016000D01*
X141811162Y-126780683D01*
X141672090Y-126564559D01*
X141575478Y-126498547D01*
X141746327Y-126327699D01*
X141843000Y-126094310D01*
X141843000Y-125253750D01*
X141684250Y-125095000D01*
X140335000Y-125095000D01*
X140335000Y-125115000D01*
X140081000Y-125115000D01*
X140081000Y-125095000D01*
X140061000Y-125095000D01*
X140061000Y-124841000D01*
X140081000Y-124841000D01*
X140081000Y-124821000D01*
X140335000Y-124821000D01*
X140335000Y-124841000D01*
X141684250Y-124841000D01*
X141843000Y-124682250D01*
X141843000Y-123841690D01*
X143653000Y-123841690D01*
X143653000Y-124682250D01*
X143811750Y-124841000D01*
X145161000Y-124841000D01*
X145161000Y-123491750D01*
X145415000Y-123491750D01*
X145415000Y-124841000D01*
X146764250Y-124841000D01*
X146812000Y-124793250D01*
X146859750Y-124841000D01*
X148209000Y-124841000D01*
X148209000Y-123491750D01*
X148463000Y-123491750D01*
X148463000Y-124841000D01*
X149812250Y-124841000D01*
X149971000Y-124682250D01*
X149971000Y-123841690D01*
X149874327Y-123608301D01*
X149695698Y-123429673D01*
X149462309Y-123333000D01*
X148621750Y-123333000D01*
X148463000Y-123491750D01*
X148209000Y-123491750D01*
X148050250Y-123333000D01*
X147209691Y-123333000D01*
X146976302Y-123429673D01*
X146812000Y-123593974D01*
X146647698Y-123429673D01*
X146414309Y-123333000D01*
X145573750Y-123333000D01*
X145415000Y-123491750D01*
X145161000Y-123491750D01*
X145002250Y-123333000D01*
X144161691Y-123333000D01*
X143928302Y-123429673D01*
X143749673Y-123608301D01*
X143653000Y-123841690D01*
X141843000Y-123841690D01*
X141746327Y-123608301D01*
X141593982Y-123455957D01*
X141831505Y-123100478D01*
X141965269Y-122428000D01*
X141831505Y-121755522D01*
X141567226Y-121360000D01*
X147295187Y-121360000D01*
X147325954Y-121406046D01*
G36*
X134774495Y-107277522D02*
X134640731Y-107950000D01*
X134774495Y-108622478D01*
X135155423Y-109192577D01*
X135725522Y-109573505D01*
X136398000Y-109707269D01*
X137070478Y-109573505D01*
X137212000Y-109478943D01*
X137212000Y-129027057D01*
X137070478Y-128932495D01*
X136398000Y-128798731D01*
X135725522Y-128932495D01*
X135155423Y-129313423D01*
X134774495Y-129883522D01*
X134640731Y-130556000D01*
X134774495Y-131228478D01*
X134869057Y-131370000D01*
X130421000Y-131370000D01*
X130421000Y-131349750D01*
X130262250Y-131191000D01*
X129413000Y-131191000D01*
X129413000Y-131211000D01*
X129159000Y-131211000D01*
X129159000Y-131191000D01*
X129139000Y-131191000D01*
X129139000Y-130937000D01*
X129159000Y-130937000D01*
X129159000Y-129587750D01*
X129413000Y-129587750D01*
X129413000Y-130937000D01*
X130262250Y-130937000D01*
X130421000Y-130778250D01*
X130421000Y-129937690D01*
X130324327Y-129704301D01*
X130145698Y-129525673D01*
X129912309Y-129429000D01*
X129571750Y-129429000D01*
X129413000Y-129587750D01*
X129159000Y-129587750D01*
X129000250Y-129429000D01*
X128659691Y-129429000D01*
X128657566Y-129429880D01*
X129551723Y-128535724D01*
X129711051Y-128297273D01*
X129727353Y-128215317D01*
X129767000Y-128016000D01*
X129767000Y-119176446D01*
X130098447Y-118845000D01*
X130502560Y-118845000D01*
X130502560Y-120360000D01*
X130546838Y-120595317D01*
X130685910Y-120811441D01*
X130898110Y-120956431D01*
X131150000Y-121007440D01*
X133150000Y-121007440D01*
X133358850Y-120968142D01*
X133423691Y-120995000D01*
X134264250Y-120995000D01*
X134423000Y-120836250D01*
X134423000Y-118237000D01*
X134677000Y-118237000D01*
X134677000Y-120836250D01*
X134835750Y-120995000D01*
X135676309Y-120995000D01*
X135909698Y-120898327D01*
X136088327Y-120719699D01*
X136185000Y-120486310D01*
X136185000Y-118395750D01*
X136026250Y-118237000D01*
X134677000Y-118237000D01*
X134423000Y-118237000D01*
X134403000Y-118237000D01*
X134403000Y-117983000D01*
X134423000Y-117983000D01*
X134423000Y-115383750D01*
X134677000Y-115383750D01*
X134677000Y-117983000D01*
X136026250Y-117983000D01*
X136185000Y-117824250D01*
X136185000Y-115733690D01*
X136088327Y-115500301D01*
X135909698Y-115321673D01*
X135676309Y-115225000D01*
X134835750Y-115225000D01*
X134677000Y-115383750D01*
X134423000Y-115383750D01*
X134264250Y-115225000D01*
X133423691Y-115225000D01*
X133353993Y-115253870D01*
X133150000Y-115212560D01*
X131150000Y-115212560D01*
X130914683Y-115256838D01*
X130698559Y-115395910D01*
X130553569Y-115608110D01*
X130502560Y-115860000D01*
X130502560Y-117375000D01*
X129794000Y-117375000D01*
X129512728Y-117430949D01*
X129274277Y-117590276D01*
X128512277Y-118352277D01*
X128352949Y-118590728D01*
X128297000Y-118872000D01*
X128297000Y-122948975D01*
X128289698Y-122941673D01*
X128056309Y-122845000D01*
X127215750Y-122845000D01*
X127057000Y-123003750D01*
X127057000Y-125603000D01*
X127077000Y-125603000D01*
X127077000Y-125857000D01*
X127057000Y-125857000D01*
X127057000Y-128456250D01*
X127215750Y-128615000D01*
X127393554Y-128615000D01*
X126988277Y-129020277D01*
X126828949Y-129258728D01*
X126789371Y-129457698D01*
X126772683Y-129460838D01*
X126617853Y-129560468D01*
X126481890Y-129467569D01*
X126449279Y-129460965D01*
X126409051Y-129258728D01*
X126275779Y-129059272D01*
X126249723Y-129020276D01*
X125844447Y-128615000D01*
X126644250Y-128615000D01*
X126803000Y-128456250D01*
X126803000Y-125857000D01*
X126783000Y-125857000D01*
X126783000Y-125603000D01*
X126803000Y-125603000D01*
X126803000Y-123003750D01*
X126644250Y-122845000D01*
X125803691Y-122845000D01*
X125733993Y-122873870D01*
X125530000Y-122832560D01*
X123530000Y-122832560D01*
X123294683Y-122876838D01*
X123078559Y-123015910D01*
X122933569Y-123228110D01*
X122909000Y-123349435D01*
X122909000Y-112880516D01*
X122926838Y-112975317D01*
X123065910Y-113191441D01*
X123278110Y-113336431D01*
X123530000Y-113387440D01*
X125530000Y-113387440D01*
X125738850Y-113348142D01*
X125803691Y-113375000D01*
X126644250Y-113375000D01*
X126803000Y-113216250D01*
X126803000Y-110617000D01*
X127057000Y-110617000D01*
X127057000Y-113216250D01*
X127215750Y-113375000D01*
X128056309Y-113375000D01*
X128289698Y-113278327D01*
X128468327Y-113099699D01*
X128565000Y-112866310D01*
X128565000Y-110775750D01*
X128406250Y-110617000D01*
X127057000Y-110617000D01*
X126803000Y-110617000D01*
X126783000Y-110617000D01*
X126783000Y-110363000D01*
X126803000Y-110363000D01*
X126803000Y-107763750D01*
X127057000Y-107763750D01*
X127057000Y-110363000D01*
X128406250Y-110363000D01*
X128565000Y-110204250D01*
X128565000Y-108113690D01*
X128468327Y-107880301D01*
X128289698Y-107701673D01*
X128056309Y-107605000D01*
X127215750Y-107605000D01*
X127057000Y-107763750D01*
X126803000Y-107763750D01*
X126644250Y-107605000D01*
X125803691Y-107605000D01*
X125733993Y-107633870D01*
X125530000Y-107592560D01*
X123530000Y-107592560D01*
X123294683Y-107636838D01*
X123078559Y-107775910D01*
X122933569Y-107988110D01*
X122882560Y-108240000D01*
X122882560Y-109755000D01*
X122428000Y-109755000D01*
X122146728Y-109810949D01*
X121908276Y-109970277D01*
X121654277Y-110224277D01*
X121494949Y-110462728D01*
X121439000Y-110744000D01*
X121439000Y-128778000D01*
X121487192Y-129020276D01*
X121494949Y-129059272D01*
X121654277Y-129297723D01*
X121773114Y-129416560D01*
X121674000Y-129416560D01*
X121438683Y-129460838D01*
X121222559Y-129599910D01*
X121077569Y-129812110D01*
X121026560Y-130064000D01*
X121026560Y-130329000D01*
X117652447Y-130329000D01*
X117645000Y-130321554D01*
X117645000Y-121007440D01*
X117910000Y-121007440D01*
X118118850Y-120968142D01*
X118183691Y-120995000D01*
X119024250Y-120995000D01*
X119183000Y-120836250D01*
X119183000Y-118237000D01*
X119437000Y-118237000D01*
X119437000Y-120836250D01*
X119595750Y-120995000D01*
X120436309Y-120995000D01*
X120669698Y-120898327D01*
X120848327Y-120719699D01*
X120945000Y-120486310D01*
X120945000Y-118395750D01*
X120786250Y-118237000D01*
X119437000Y-118237000D01*
X119183000Y-118237000D01*
X119163000Y-118237000D01*
X119163000Y-117983000D01*
X119183000Y-117983000D01*
X119183000Y-115383750D01*
X119437000Y-115383750D01*
X119437000Y-117983000D01*
X120786250Y-117983000D01*
X120945000Y-117824250D01*
X120945000Y-115733690D01*
X120848327Y-115500301D01*
X120669698Y-115321673D01*
X120436309Y-115225000D01*
X119595750Y-115225000D01*
X119437000Y-115383750D01*
X119183000Y-115383750D01*
X119024250Y-115225000D01*
X118183691Y-115225000D01*
X118113993Y-115253870D01*
X117910000Y-115212560D01*
X115910000Y-115212560D01*
X115674683Y-115256838D01*
X115458559Y-115395910D01*
X115313569Y-115608110D01*
X115262560Y-115860000D01*
X115262560Y-120360000D01*
X115306838Y-120595317D01*
X115445910Y-120811441D01*
X115658110Y-120956431D01*
X115910000Y-121007440D01*
X116175000Y-121007440D01*
X116175000Y-129226842D01*
X115734478Y-128932495D01*
X115062000Y-128798731D01*
X114389522Y-128932495D01*
X114248000Y-129027057D01*
X114248000Y-109478943D01*
X114389522Y-109573505D01*
X115062000Y-109707269D01*
X115734478Y-109573505D01*
X116304577Y-109192577D01*
X116685505Y-108622478D01*
X116819269Y-107950000D01*
X116685505Y-107277522D01*
X116590943Y-107136000D01*
X134869057Y-107136000D01*
X134774495Y-107277522D01*
X134774495Y-107277522D01*
G37*
X134774495Y-107277522D02*
X134640731Y-107950000D01*
X134774495Y-108622478D01*
X135155423Y-109192577D01*
X135725522Y-109573505D01*
X136398000Y-109707269D01*
X137070478Y-109573505D01*
X137212000Y-109478943D01*
X137212000Y-129027057D01*
X137070478Y-128932495D01*
X136398000Y-128798731D01*
X135725522Y-128932495D01*
X135155423Y-129313423D01*
X134774495Y-129883522D01*
X134640731Y-130556000D01*
X134774495Y-131228478D01*
X134869057Y-131370000D01*
X130421000Y-131370000D01*
X130421000Y-131349750D01*
X130262250Y-131191000D01*
X129413000Y-131191000D01*
X129413000Y-131211000D01*
X129159000Y-131211000D01*
X129159000Y-131191000D01*
X129139000Y-131191000D01*
X129139000Y-130937000D01*
X129159000Y-130937000D01*
X129159000Y-129587750D01*
X129413000Y-129587750D01*
X129413000Y-130937000D01*
X130262250Y-130937000D01*
X130421000Y-130778250D01*
X130421000Y-129937690D01*
X130324327Y-129704301D01*
X130145698Y-129525673D01*
X129912309Y-129429000D01*
X129571750Y-129429000D01*
X129413000Y-129587750D01*
X129159000Y-129587750D01*
X129000250Y-129429000D01*
X128659691Y-129429000D01*
X128657566Y-129429880D01*
X129551723Y-128535724D01*
X129711051Y-128297273D01*
X129727353Y-128215317D01*
X129767000Y-128016000D01*
X129767000Y-119176446D01*
X130098447Y-118845000D01*
X130502560Y-118845000D01*
X130502560Y-120360000D01*
X130546838Y-120595317D01*
X130685910Y-120811441D01*
X130898110Y-120956431D01*
X131150000Y-121007440D01*
X133150000Y-121007440D01*
X133358850Y-120968142D01*
X133423691Y-120995000D01*
X134264250Y-120995000D01*
X134423000Y-120836250D01*
X134423000Y-118237000D01*
X134677000Y-118237000D01*
X134677000Y-120836250D01*
X134835750Y-120995000D01*
X135676309Y-120995000D01*
X135909698Y-120898327D01*
X136088327Y-120719699D01*
X136185000Y-120486310D01*
X136185000Y-118395750D01*
X136026250Y-118237000D01*
X134677000Y-118237000D01*
X134423000Y-118237000D01*
X134403000Y-118237000D01*
X134403000Y-117983000D01*
X134423000Y-117983000D01*
X134423000Y-115383750D01*
X134677000Y-115383750D01*
X134677000Y-117983000D01*
X136026250Y-117983000D01*
X136185000Y-117824250D01*
X136185000Y-115733690D01*
X136088327Y-115500301D01*
X135909698Y-115321673D01*
X135676309Y-115225000D01*
X134835750Y-115225000D01*
X134677000Y-115383750D01*
X134423000Y-115383750D01*
X134264250Y-115225000D01*
X133423691Y-115225000D01*
X133353993Y-115253870D01*
X133150000Y-115212560D01*
X131150000Y-115212560D01*
X130914683Y-115256838D01*
X130698559Y-115395910D01*
X130553569Y-115608110D01*
X130502560Y-115860000D01*
X130502560Y-117375000D01*
X129794000Y-117375000D01*
X129512728Y-117430949D01*
X129274277Y-117590276D01*
X128512277Y-118352277D01*
X128352949Y-118590728D01*
X128297000Y-118872000D01*
X128297000Y-122948975D01*
X128289698Y-122941673D01*
X128056309Y-122845000D01*
X127215750Y-122845000D01*
X127057000Y-123003750D01*
X127057000Y-125603000D01*
X127077000Y-125603000D01*
X127077000Y-125857000D01*
X127057000Y-125857000D01*
X127057000Y-128456250D01*
X127215750Y-128615000D01*
X127393554Y-128615000D01*
X126988277Y-129020277D01*
X126828949Y-129258728D01*
X126789371Y-129457698D01*
X126772683Y-129460838D01*
X126617853Y-129560468D01*
X126481890Y-129467569D01*
X126449279Y-129460965D01*
X126409051Y-129258728D01*
X126275779Y-129059272D01*
X126249723Y-129020276D01*
X125844447Y-128615000D01*
X126644250Y-128615000D01*
X126803000Y-128456250D01*
X126803000Y-125857000D01*
X126783000Y-125857000D01*
X126783000Y-125603000D01*
X126803000Y-125603000D01*
X126803000Y-123003750D01*
X126644250Y-122845000D01*
X125803691Y-122845000D01*
X125733993Y-122873870D01*
X125530000Y-122832560D01*
X123530000Y-122832560D01*
X123294683Y-122876838D01*
X123078559Y-123015910D01*
X122933569Y-123228110D01*
X122909000Y-123349435D01*
X122909000Y-112880516D01*
X122926838Y-112975317D01*
X123065910Y-113191441D01*
X123278110Y-113336431D01*
X123530000Y-113387440D01*
X125530000Y-113387440D01*
X125738850Y-113348142D01*
X125803691Y-113375000D01*
X126644250Y-113375000D01*
X126803000Y-113216250D01*
X126803000Y-110617000D01*
X127057000Y-110617000D01*
X127057000Y-113216250D01*
X127215750Y-113375000D01*
X128056309Y-113375000D01*
X128289698Y-113278327D01*
X128468327Y-113099699D01*
X128565000Y-112866310D01*
X128565000Y-110775750D01*
X128406250Y-110617000D01*
X127057000Y-110617000D01*
X126803000Y-110617000D01*
X126783000Y-110617000D01*
X126783000Y-110363000D01*
X126803000Y-110363000D01*
X126803000Y-107763750D01*
X127057000Y-107763750D01*
X127057000Y-110363000D01*
X128406250Y-110363000D01*
X128565000Y-110204250D01*
X128565000Y-108113690D01*
X128468327Y-107880301D01*
X128289698Y-107701673D01*
X128056309Y-107605000D01*
X127215750Y-107605000D01*
X127057000Y-107763750D01*
X126803000Y-107763750D01*
X126644250Y-107605000D01*
X125803691Y-107605000D01*
X125733993Y-107633870D01*
X125530000Y-107592560D01*
X123530000Y-107592560D01*
X123294683Y-107636838D01*
X123078559Y-107775910D01*
X122933569Y-107988110D01*
X122882560Y-108240000D01*
X122882560Y-109755000D01*
X122428000Y-109755000D01*
X122146728Y-109810949D01*
X121908276Y-109970277D01*
X121654277Y-110224277D01*
X121494949Y-110462728D01*
X121439000Y-110744000D01*
X121439000Y-128778000D01*
X121487192Y-129020276D01*
X121494949Y-129059272D01*
X121654277Y-129297723D01*
X121773114Y-129416560D01*
X121674000Y-129416560D01*
X121438683Y-129460838D01*
X121222559Y-129599910D01*
X121077569Y-129812110D01*
X121026560Y-130064000D01*
X121026560Y-130329000D01*
X117652447Y-130329000D01*
X117645000Y-130321554D01*
X117645000Y-121007440D01*
X117910000Y-121007440D01*
X118118850Y-120968142D01*
X118183691Y-120995000D01*
X119024250Y-120995000D01*
X119183000Y-120836250D01*
X119183000Y-118237000D01*
X119437000Y-118237000D01*
X119437000Y-120836250D01*
X119595750Y-120995000D01*
X120436309Y-120995000D01*
X120669698Y-120898327D01*
X120848327Y-120719699D01*
X120945000Y-120486310D01*
X120945000Y-118395750D01*
X120786250Y-118237000D01*
X119437000Y-118237000D01*
X119183000Y-118237000D01*
X119163000Y-118237000D01*
X119163000Y-117983000D01*
X119183000Y-117983000D01*
X119183000Y-115383750D01*
X119437000Y-115383750D01*
X119437000Y-117983000D01*
X120786250Y-117983000D01*
X120945000Y-117824250D01*
X120945000Y-115733690D01*
X120848327Y-115500301D01*
X120669698Y-115321673D01*
X120436309Y-115225000D01*
X119595750Y-115225000D01*
X119437000Y-115383750D01*
X119183000Y-115383750D01*
X119024250Y-115225000D01*
X118183691Y-115225000D01*
X118113993Y-115253870D01*
X117910000Y-115212560D01*
X115910000Y-115212560D01*
X115674683Y-115256838D01*
X115458559Y-115395910D01*
X115313569Y-115608110D01*
X115262560Y-115860000D01*
X115262560Y-120360000D01*
X115306838Y-120595317D01*
X115445910Y-120811441D01*
X115658110Y-120956431D01*
X115910000Y-121007440D01*
X116175000Y-121007440D01*
X116175000Y-129226842D01*
X115734478Y-128932495D01*
X115062000Y-128798731D01*
X114389522Y-128932495D01*
X114248000Y-129027057D01*
X114248000Y-109478943D01*
X114389522Y-109573505D01*
X115062000Y-109707269D01*
X115734478Y-109573505D01*
X116304577Y-109192577D01*
X116685505Y-108622478D01*
X116819269Y-107950000D01*
X116685505Y-107277522D01*
X116590943Y-107136000D01*
X134869057Y-107136000D01*
X134774495Y-107277522D01*
M02*
