G04 #@! TF.FileFunction,Soldermask,Bot*
%FSLAX46Y46*%
G04 Gerber Fmt 4.6, Leading zero omitted, Abs format (unit mm)*
G04 Created by KiCad (PCBNEW 4.0.5+dfsg1-4) date Thu Oct 18 19:18:12 2018*
%MOMM*%
%LPD*%
G01*
G04 APERTURE LIST*
%ADD10C,0.100000*%
%ADD11R,1.400000X2.400000*%
%ADD12R,1.400000X4.400000*%
%ADD13R,2.400000X1.000000*%
%ADD14R,2.400000X2.400000*%
%ADD15R,6.900000X2.400000*%
G04 APERTURE END LIST*
D10*
D11*
X93218000Y-124460000D03*
D12*
X91440000Y-124460000D03*
D11*
X89662000Y-124460000D03*
X68580000Y-120142000D03*
X66802000Y-120142000D03*
X65024000Y-120142000D03*
X70358000Y-120142000D03*
D12*
X72136000Y-120142000D03*
D11*
X108406000Y-125928000D03*
X106628000Y-125928000D03*
D13*
X116458000Y-129921000D03*
X116458000Y-128651000D03*
X116458000Y-127381000D03*
X116458000Y-126111000D03*
X116458000Y-124841000D03*
X116458000Y-123571000D03*
X116458000Y-122301000D03*
X116458000Y-121031000D03*
X116458000Y-119761000D03*
X116458000Y-118491000D03*
X116458000Y-117221000D03*
X116458000Y-115951000D03*
X116458000Y-114681000D03*
X116458000Y-113411000D03*
X125858000Y-113411000D03*
X125858000Y-114681000D03*
X125858000Y-115951000D03*
X125858000Y-117221000D03*
X125858000Y-118491000D03*
X125858000Y-119761000D03*
X125858000Y-121031000D03*
X125858000Y-122301000D03*
X125858000Y-123571000D03*
X125858000Y-124841000D03*
X125858000Y-126111000D03*
X125858000Y-127381000D03*
X125858000Y-128651000D03*
X125858000Y-129921000D03*
D14*
X150825200Y-153517600D03*
X150825200Y-147421600D03*
D15*
X91643200Y-138131600D03*
X63195200Y-138131600D03*
X77419200Y-138131600D03*
X70307200Y-138131600D03*
X84531200Y-138131600D03*
X120091200Y-138131600D03*
X105867200Y-138131600D03*
X112979200Y-138131600D03*
X98755200Y-138131600D03*
X127203200Y-138131600D03*
X141427200Y-138131600D03*
X134315200Y-138131600D03*
X148539200Y-138131600D03*
D14*
X150825200Y-141452600D03*
M02*
