G04 #@! TF.FileFunction,Profile,NP*
%FSLAX46Y46*%
G04 Gerber Fmt 4.6, Leading zero omitted, Abs format (unit mm)*
G04 Created by KiCad (PCBNEW 4.0.5+dfsg1-4) date Thu Oct 18 19:18:12 2018*
%MOMM*%
%LPD*%
G01*
G04 APERTURE LIST*
%ADD10C,0.100000*%
%ADD11C,0.150000*%
G04 APERTURE END LIST*
D10*
D11*
X56388000Y-131572000D02*
X56388000Y-108204000D01*
X80772000Y-131572000D02*
X56388000Y-131572000D01*
X80772000Y-108204000D02*
X80772000Y-131572000D01*
X56388000Y-108204000D02*
X80772000Y-108204000D01*
X82804000Y-131572000D02*
X82804000Y-117348000D01*
X100076000Y-131572000D02*
X82804000Y-131572000D01*
X100076000Y-117348000D02*
X100076000Y-131572000D01*
X82804000Y-117348000D02*
X100076000Y-117348000D01*
X102362000Y-131572000D02*
X102362000Y-120142000D01*
X112522000Y-131572000D02*
X102362000Y-131572000D01*
X112522000Y-120142000D02*
X112522000Y-131572000D01*
X102362000Y-120142000D02*
X112522000Y-120142000D01*
X100076000Y-120142000D02*
X100076000Y-117348000D01*
X100076000Y-120904000D02*
X100076000Y-130810000D01*
X102362000Y-130810000D02*
X102362000Y-120904000D01*
X80772000Y-117348000D02*
X80772000Y-108204000D01*
X80772000Y-130810000D02*
X80772000Y-118110000D01*
X82804000Y-118110000D02*
X82804000Y-130810000D01*
X103124000Y-131572000D02*
X111760000Y-131572000D01*
X83566000Y-131572000D02*
X99314000Y-131572000D01*
X57150000Y-131572000D02*
X80010000Y-131572000D01*
X56388000Y-131572000D02*
X56388000Y-108204000D01*
X56388000Y-108204000D02*
X80772000Y-108204000D01*
X82804000Y-117348000D02*
X100076000Y-117348000D01*
X102362000Y-120142000D02*
X102616000Y-120142000D01*
X112522000Y-120142000D02*
X112522000Y-131572000D01*
X102616000Y-120142000D02*
X112522000Y-120142000D01*
X58733961Y-109982000D02*
G75*
G03X58733961Y-109982000I-567961J0D01*
G01*
X58733961Y-129794000D02*
G75*
G03X58733961Y-129794000I-567961J0D01*
G01*
X79561961Y-129794000D02*
G75*
G03X79561961Y-129794000I-567961J0D01*
G01*
X79561961Y-109982000D02*
G75*
G03X79561961Y-109982000I-567961J0D01*
G01*
X104707961Y-121412000D02*
G75*
G03X104707961Y-121412000I-567961J0D01*
G01*
X104707961Y-130302000D02*
G75*
G03X104707961Y-130302000I-567961J0D01*
G01*
X111311961Y-130302000D02*
G75*
G03X111311961Y-130302000I-567961J0D01*
G01*
X111311961Y-121412000D02*
G75*
G03X111311961Y-121412000I-567961J0D01*
G01*
X98865961Y-130302000D02*
G75*
G03X98865961Y-130302000I-567961J0D01*
G01*
X85403961Y-118618000D02*
G75*
G03X85403961Y-118618000I-567961J0D01*
G01*
X98611961Y-118618000D02*
G75*
G03X98611961Y-118618000I-567961J0D01*
G01*
X85403961Y-130302000D02*
G75*
G03X85403961Y-130302000I-567961J0D01*
G01*
X56388000Y-134112000D02*
X132588000Y-134112000D01*
X115316000Y-131064000D02*
X115316000Y-112268000D01*
X127000000Y-131064000D02*
X115316000Y-131064000D01*
X127000000Y-112268000D02*
X127000000Y-131064000D01*
X115316000Y-112268000D02*
X127000000Y-112268000D01*
X109982000Y-134112000D02*
X71628000Y-134112000D01*
X112522000Y-134112000D02*
X155448000Y-134112000D01*
X103124000Y-134112000D02*
X111760000Y-134112000D01*
X100076000Y-134112000D02*
X102362000Y-134112000D01*
X83566000Y-134112000D02*
X99314000Y-134112000D01*
X80772000Y-134112000D02*
X82804000Y-134112000D01*
X80010000Y-134112000D02*
X57150000Y-134112000D01*
X56388000Y-134112000D02*
X56388000Y-157988000D01*
X155448000Y-157988000D02*
X56388000Y-157988000D01*
X155448000Y-134112000D02*
X155448000Y-157988000D01*
X58479961Y-139954000D02*
G75*
G03X58479961Y-139954000I-567961J0D01*
G01*
X58479961Y-145542000D02*
G75*
G03X58479961Y-145542000I-567961J0D01*
G01*
X58479961Y-151892000D02*
G75*
G03X58479961Y-151892000I-567961J0D01*
G01*
X60257961Y-156464000D02*
G75*
G03X60257961Y-156464000I-567961J0D01*
G01*
X67369961Y-156464000D02*
G75*
G03X67369961Y-156464000I-567961J0D01*
G01*
X81593961Y-156464000D02*
G75*
G03X81593961Y-156464000I-567961J0D01*
G01*
X74481961Y-156464000D02*
G75*
G03X74481961Y-156464000I-567961J0D01*
G01*
X102929961Y-156464000D02*
G75*
G03X102929961Y-156464000I-567961J0D01*
G01*
X110041961Y-156464000D02*
G75*
G03X110041961Y-156464000I-567961J0D01*
G01*
X95817961Y-156464000D02*
G75*
G03X95817961Y-156464000I-567961J0D01*
G01*
X88705961Y-156464000D02*
G75*
G03X88705961Y-156464000I-567961J0D01*
G01*
X117153961Y-156464000D02*
G75*
G03X117153961Y-156464000I-567961J0D01*
G01*
X124265961Y-156464000D02*
G75*
G03X124265961Y-156464000I-567961J0D01*
G01*
X138489961Y-156464000D02*
G75*
G03X138489961Y-156464000I-567961J0D01*
G01*
X131377961Y-156464000D02*
G75*
G03X131377961Y-156464000I-567961J0D01*
G01*
X145601961Y-156464000D02*
G75*
G03X145601961Y-156464000I-567961J0D01*
G01*
X152713961Y-156464000D02*
G75*
G03X152713961Y-156464000I-567961J0D01*
G01*
X154491961Y-151892000D02*
G75*
G03X154491961Y-151892000I-567961J0D01*
G01*
X154491961Y-145542000D02*
G75*
G03X154491961Y-145542000I-567961J0D01*
G01*
X154491961Y-139954000D02*
G75*
G03X154491961Y-139954000I-567961J0D01*
G01*
X152713961Y-135382000D02*
G75*
G03X152713961Y-135382000I-567961J0D01*
G01*
X145601961Y-135382000D02*
G75*
G03X145601961Y-135382000I-567961J0D01*
G01*
X131377961Y-135382000D02*
G75*
G03X131377961Y-135382000I-567961J0D01*
G01*
X138489961Y-135382000D02*
G75*
G03X138489961Y-135382000I-567961J0D01*
G01*
X124265961Y-135382000D02*
G75*
G03X124265961Y-135382000I-567961J0D01*
G01*
X117153961Y-135382000D02*
G75*
G03X117153961Y-135382000I-567961J0D01*
G01*
X88705961Y-135382000D02*
G75*
G03X88705961Y-135382000I-567961J0D01*
G01*
X95817961Y-135382000D02*
G75*
G03X95817961Y-135382000I-567961J0D01*
G01*
X110041961Y-135382000D02*
G75*
G03X110041961Y-135382000I-567961J0D01*
G01*
X102929961Y-135382000D02*
G75*
G03X102929961Y-135382000I-567961J0D01*
G01*
X74481961Y-135382000D02*
G75*
G03X74481961Y-135382000I-567961J0D01*
G01*
X81593961Y-135382000D02*
G75*
G03X81593961Y-135382000I-567961J0D01*
G01*
X67369961Y-135382000D02*
G75*
G03X67369961Y-135382000I-567961J0D01*
G01*
X60257961Y-135382000D02*
G75*
G03X60257961Y-135382000I-567961J0D01*
G01*
M02*
