M48
;DRILL file {KiCad 4.0.5+dfsg1-4} date Fri Oct 12 17:17:44 2018
;FORMAT={-:-/ absolute / inch / decimal}
FMAT,2
INCH,TZ
T1C0.012
%
G90
G05
M72
T1
X2.49Y-5.44
X2.49Y-5.6743
X2.49Y-5.68
X2.49Y-5.9143
X2.56Y-4.73
X2.63Y-4.73
X2.7Y-4.73
X2.77Y-4.73
X2.77Y-5.44
X2.77Y-5.6743
X2.77Y-5.68
X2.77Y-5.9143
X2.84Y-4.73
X3.05Y-5.44
X3.05Y-5.6743
X3.05Y-5.68
X3.05Y-5.9143
X3.33Y-5.44
X3.33Y-5.6743
X3.33Y-5.68
X3.33Y-5.9143
X3.5Y-4.96
X3.6Y-4.84
X3.61Y-5.44
X3.61Y-5.6743
X3.61Y-5.68
X3.61Y-5.9143
X3.7Y-4.96
X3.89Y-5.44
X3.89Y-5.6743
X3.89Y-5.68
X3.89Y-5.9143
X4.12Y-4.89
X4.17Y-5.44
X4.17Y-5.6743
X4.17Y-5.68
X4.17Y-5.9143
X4.35Y-5.02
X4.45Y-5.44
X4.45Y-5.6743
X4.45Y-5.68
X4.45Y-5.9143
X4.73Y-5.44
X4.73Y-5.6743
X4.73Y-5.68
X4.73Y-5.9143
X5.01Y-5.44
X5.01Y-5.6743
X5.01Y-5.68
X5.01Y-5.9143
X5.29Y-5.4393
X5.29Y-5.44
X5.29Y-5.6743
X5.29Y-5.68
X5.29Y-5.9143
X5.57Y-5.44
X5.57Y-5.6743
X5.57Y-5.68
X5.57Y-5.9143
X5.85Y-5.44
X5.85Y-5.6743
X5.85Y-5.68
X5.85Y-5.9143
T0
M30
