G04 #@! TF.FileFunction,Soldermask,Top*
%FSLAX46Y46*%
G04 Gerber Fmt 4.6, Leading zero omitted, Abs format (unit mm)*
G04 Created by KiCad (PCBNEW 4.0.5+dfsg1-4) date Thu Oct 18 11:42:42 2018*
%MOMM*%
%LPD*%
G01*
G04 APERTURE LIST*
%ADD10C,0.100000*%
%ADD11R,4.900000X2.400000*%
%ADD12R,2.400000X4.900000*%
%ADD13R,2.400000X2.400000*%
%ADD14R,3.150000X1.400000*%
%ADD15R,2.400000X1.000000*%
%ADD16R,6.900000X2.400000*%
G04 APERTURE END LIST*
D10*
D11*
X76136500Y-121151500D03*
X76136500Y-118751500D03*
X61023500Y-121151500D03*
X61023500Y-118751500D03*
D12*
X67380000Y-127508000D03*
X69780000Y-127508000D03*
X69780000Y-112268000D03*
X67380000Y-112268000D03*
D13*
X84836000Y-122936000D03*
X84836000Y-125984000D03*
X89916000Y-125984000D03*
X89916000Y-122936000D03*
X98044000Y-122936000D03*
X98044000Y-125984000D03*
X92964000Y-125984000D03*
X92964000Y-122936000D03*
D14*
X110345000Y-123902000D03*
X104595000Y-123902000D03*
X104595000Y-127902000D03*
X110345000Y-127902000D03*
D15*
X116458000Y-113411000D03*
X116458000Y-114681000D03*
X116458000Y-115951000D03*
X116458000Y-117221000D03*
X116458000Y-118491000D03*
X116458000Y-119761000D03*
X116458000Y-121031000D03*
X116458000Y-122301000D03*
X116458000Y-123571000D03*
X116458000Y-124841000D03*
X116458000Y-126111000D03*
X116458000Y-127381000D03*
X116458000Y-128651000D03*
X116458000Y-129921000D03*
X125858000Y-129921000D03*
X125858000Y-128651000D03*
X125858000Y-127381000D03*
X125858000Y-126111000D03*
X125858000Y-124841000D03*
X125858000Y-123571000D03*
X125858000Y-122301000D03*
X125858000Y-121031000D03*
X125858000Y-119761000D03*
X125858000Y-118491000D03*
X125858000Y-117221000D03*
X125858000Y-115951000D03*
X125858000Y-114681000D03*
X125858000Y-113411000D03*
D10*
G36*
X123001000Y-124880000D02*
X121601000Y-124880000D01*
X121601000Y-124080000D01*
X123001000Y-124080000D01*
X123001000Y-124880000D01*
X123001000Y-124880000D01*
G37*
G36*
X123001000Y-124270000D02*
X121601000Y-124270000D01*
X121601000Y-123670000D01*
X123001000Y-123670000D01*
X123001000Y-124270000D01*
X123001000Y-124270000D01*
G37*
G36*
X123001000Y-123860000D02*
X121601000Y-123860000D01*
X121601000Y-123260000D01*
X123001000Y-123260000D01*
X123001000Y-123860000D01*
X123001000Y-123860000D01*
G37*
G36*
X123001000Y-123450000D02*
X121601000Y-123450000D01*
X121601000Y-122850000D01*
X123001000Y-122850000D01*
X123001000Y-123450000D01*
X123001000Y-123450000D01*
G37*
G36*
X123001000Y-123040000D02*
X121601000Y-123040000D01*
X121601000Y-122440000D01*
X123001000Y-122440000D01*
X123001000Y-123040000D01*
X123001000Y-123040000D01*
G37*
G36*
X123001000Y-122630000D02*
X121601000Y-122630000D01*
X121601000Y-122030000D01*
X123001000Y-122030000D01*
X123001000Y-122630000D01*
X123001000Y-122630000D01*
G37*
G36*
X123001000Y-122220000D02*
X121601000Y-122220000D01*
X121601000Y-121620000D01*
X123001000Y-121620000D01*
X123001000Y-122220000D01*
X123001000Y-122220000D01*
G37*
G36*
X123001000Y-121810000D02*
X121601000Y-121810000D01*
X121601000Y-121210000D01*
X123001000Y-121210000D01*
X123001000Y-121810000D01*
X123001000Y-121810000D01*
G37*
G36*
X123001000Y-121400000D02*
X121601000Y-121400000D01*
X121601000Y-120800000D01*
X123001000Y-120800000D01*
X123001000Y-121400000D01*
X123001000Y-121400000D01*
G37*
G36*
X123001000Y-120990000D02*
X121601000Y-120990000D01*
X121601000Y-120390000D01*
X123001000Y-120390000D01*
X123001000Y-120990000D01*
X123001000Y-120990000D01*
G37*
G36*
X123001000Y-120580000D02*
X121601000Y-120580000D01*
X121601000Y-119980000D01*
X123001000Y-119980000D01*
X123001000Y-120580000D01*
X123001000Y-120580000D01*
G37*
G36*
X123001000Y-120170000D02*
X121601000Y-120170000D01*
X121601000Y-119570000D01*
X123001000Y-119570000D01*
X123001000Y-120170000D01*
X123001000Y-120170000D01*
G37*
G36*
X123001000Y-119760000D02*
X121601000Y-119760000D01*
X121601000Y-119160000D01*
X123001000Y-119160000D01*
X123001000Y-119760000D01*
X123001000Y-119760000D01*
G37*
G36*
X123001000Y-119350000D02*
X121601000Y-119350000D01*
X121601000Y-118550000D01*
X123001000Y-118550000D01*
X123001000Y-119350000D01*
X123001000Y-119350000D01*
G37*
G36*
X120715000Y-124880000D02*
X119315000Y-124880000D01*
X119315000Y-124080000D01*
X120715000Y-124080000D01*
X120715000Y-124880000D01*
X120715000Y-124880000D01*
G37*
G36*
X120715000Y-124270000D02*
X119315000Y-124270000D01*
X119315000Y-123670000D01*
X120715000Y-123670000D01*
X120715000Y-124270000D01*
X120715000Y-124270000D01*
G37*
G36*
X120715000Y-123860000D02*
X119315000Y-123860000D01*
X119315000Y-123260000D01*
X120715000Y-123260000D01*
X120715000Y-123860000D01*
X120715000Y-123860000D01*
G37*
G36*
X120715000Y-123450000D02*
X119315000Y-123450000D01*
X119315000Y-122850000D01*
X120715000Y-122850000D01*
X120715000Y-123450000D01*
X120715000Y-123450000D01*
G37*
G36*
X120715000Y-123040000D02*
X119315000Y-123040000D01*
X119315000Y-122440000D01*
X120715000Y-122440000D01*
X120715000Y-123040000D01*
X120715000Y-123040000D01*
G37*
G36*
X120715000Y-122630000D02*
X119315000Y-122630000D01*
X119315000Y-122030000D01*
X120715000Y-122030000D01*
X120715000Y-122630000D01*
X120715000Y-122630000D01*
G37*
G36*
X120715000Y-122220000D02*
X119315000Y-122220000D01*
X119315000Y-121620000D01*
X120715000Y-121620000D01*
X120715000Y-122220000D01*
X120715000Y-122220000D01*
G37*
G36*
X120715000Y-121810000D02*
X119315000Y-121810000D01*
X119315000Y-121210000D01*
X120715000Y-121210000D01*
X120715000Y-121810000D01*
X120715000Y-121810000D01*
G37*
G36*
X120715000Y-121400000D02*
X119315000Y-121400000D01*
X119315000Y-120800000D01*
X120715000Y-120800000D01*
X120715000Y-121400000D01*
X120715000Y-121400000D01*
G37*
G36*
X120715000Y-120990000D02*
X119315000Y-120990000D01*
X119315000Y-120390000D01*
X120715000Y-120390000D01*
X120715000Y-120990000D01*
X120715000Y-120990000D01*
G37*
G36*
X120715000Y-120580000D02*
X119315000Y-120580000D01*
X119315000Y-119980000D01*
X120715000Y-119980000D01*
X120715000Y-120580000D01*
X120715000Y-120580000D01*
G37*
G36*
X120715000Y-120170000D02*
X119315000Y-120170000D01*
X119315000Y-119570000D01*
X120715000Y-119570000D01*
X120715000Y-120170000D01*
X120715000Y-120170000D01*
G37*
G36*
X120715000Y-119760000D02*
X119315000Y-119760000D01*
X119315000Y-119160000D01*
X120715000Y-119160000D01*
X120715000Y-119760000D01*
X120715000Y-119760000D01*
G37*
G36*
X120715000Y-119350000D02*
X119315000Y-119350000D01*
X119315000Y-118550000D01*
X120715000Y-118550000D01*
X120715000Y-119350000D01*
X120715000Y-119350000D01*
G37*
D16*
X120142000Y-153582000D03*
X120142000Y-150222000D03*
X148590000Y-150222000D03*
X148590000Y-153582000D03*
X134366000Y-150222000D03*
X134366000Y-153582000D03*
X141478000Y-153582000D03*
X141478000Y-150222000D03*
X127254000Y-150222000D03*
X127254000Y-153582000D03*
X91694000Y-153582000D03*
X91694000Y-150222000D03*
X105918000Y-150222000D03*
X105918000Y-153582000D03*
X98806000Y-153582000D03*
X98806000Y-150222000D03*
X113030000Y-153582000D03*
X113030000Y-150222000D03*
X84582000Y-150222000D03*
X84582000Y-153582000D03*
X70358000Y-150222000D03*
X70358000Y-153582000D03*
X77470000Y-153582000D03*
X77470000Y-150222000D03*
X63246000Y-150222000D03*
X63246000Y-153582000D03*
X63246000Y-147486000D03*
X63246000Y-144126000D03*
X77470000Y-144126000D03*
X77470000Y-147486000D03*
X70358000Y-147486000D03*
X70358000Y-144126000D03*
X84582000Y-147486000D03*
X84582000Y-144126000D03*
X113030000Y-144126000D03*
X113030000Y-147486000D03*
X98806000Y-144126000D03*
X98806000Y-147486000D03*
X105918000Y-147486000D03*
X105918000Y-144126000D03*
X91694000Y-144126000D03*
X91694000Y-147486000D03*
X127254000Y-147486000D03*
X127254000Y-144126000D03*
X141478000Y-144126000D03*
X141478000Y-147486000D03*
X134366000Y-147486000D03*
X134366000Y-144126000D03*
X148590000Y-147486000D03*
X148590000Y-144126000D03*
X120142000Y-144126000D03*
X120142000Y-147486000D03*
X120142000Y-141517000D03*
X120142000Y-138157000D03*
X148590000Y-138157000D03*
X148590000Y-141517000D03*
X134366000Y-138157000D03*
X134366000Y-141517000D03*
X141478000Y-141517000D03*
X141478000Y-138157000D03*
X127254000Y-138157000D03*
X127254000Y-141517000D03*
X91694000Y-141517000D03*
X91694000Y-138157000D03*
X105918000Y-138157000D03*
X105918000Y-141517000D03*
X98806000Y-141517000D03*
X98806000Y-138157000D03*
X113030000Y-141517000D03*
X113030000Y-138157000D03*
X84582000Y-138157000D03*
X84582000Y-141517000D03*
X70358000Y-138157000D03*
X70358000Y-141517000D03*
X77470000Y-141517000D03*
X77470000Y-138157000D03*
X63246000Y-138157000D03*
X63246000Y-141517000D03*
X63246000Y-153582000D03*
X63246000Y-147486000D03*
X120142000Y-138157000D03*
X148590000Y-138157000D03*
X134366000Y-138157000D03*
X141478000Y-138157000D03*
X127254000Y-138157000D03*
X91694000Y-138157000D03*
X105918000Y-138157000D03*
X98806000Y-138157000D03*
X113030000Y-138157000D03*
X84582000Y-138157000D03*
X70358000Y-138157000D03*
X77470000Y-138157000D03*
X63246000Y-138157000D03*
X63246000Y-141517000D03*
M02*
