G04 #@! TF.FileFunction,Paste,Top*
%FSLAX46Y46*%
G04 Gerber Fmt 4.6, Leading zero omitted, Abs format (unit mm)*
G04 Created by KiCad (PCBNEW 4.0.5+dfsg1-4) date Thu Oct 18 19:18:12 2018*
%MOMM*%
%LPD*%
G01*
G04 APERTURE LIST*
%ADD10C,0.100000*%
%ADD11R,4.500000X2.000000*%
%ADD12R,2.000000X4.500000*%
%ADD13R,2.000000X2.000000*%
%ADD14R,2.750000X1.000000*%
%ADD15R,2.000000X0.600000*%
%ADD16R,6.500000X2.000000*%
G04 APERTURE END LIST*
D10*
D11*
X76136500Y-121151500D03*
X76136500Y-118751500D03*
X61023500Y-121151500D03*
X61023500Y-118751500D03*
D12*
X67380000Y-127508000D03*
X69780000Y-127508000D03*
X69780000Y-112268000D03*
X67380000Y-112268000D03*
D13*
X84836000Y-122936000D03*
X84836000Y-125984000D03*
X89916000Y-125984000D03*
X89916000Y-122936000D03*
X98044000Y-122936000D03*
X98044000Y-125984000D03*
X92964000Y-125984000D03*
X92964000Y-122936000D03*
D14*
X110345000Y-123902000D03*
X104595000Y-123902000D03*
X104595000Y-127902000D03*
X110345000Y-127902000D03*
D15*
X116458000Y-113411000D03*
X116458000Y-114681000D03*
X116458000Y-115951000D03*
X116458000Y-117221000D03*
X116458000Y-118491000D03*
X116458000Y-119761000D03*
X116458000Y-121031000D03*
X116458000Y-122301000D03*
X116458000Y-123571000D03*
X116458000Y-124841000D03*
X116458000Y-126111000D03*
X116458000Y-127381000D03*
X116458000Y-128651000D03*
X116458000Y-129921000D03*
X125858000Y-129921000D03*
X125858000Y-128651000D03*
X125858000Y-127381000D03*
X125858000Y-126111000D03*
X125858000Y-124841000D03*
X125858000Y-123571000D03*
X125858000Y-122301000D03*
X125858000Y-121031000D03*
X125858000Y-119761000D03*
X125858000Y-118491000D03*
X125858000Y-117221000D03*
X125858000Y-115951000D03*
X125858000Y-114681000D03*
X125858000Y-113411000D03*
D10*
G36*
X122801000Y-124680000D02*
X121801000Y-124680000D01*
X121801000Y-124280000D01*
X122801000Y-124280000D01*
X122801000Y-124680000D01*
X122801000Y-124680000D01*
G37*
G36*
X122801000Y-124070000D02*
X121801000Y-124070000D01*
X121801000Y-123870000D01*
X122801000Y-123870000D01*
X122801000Y-124070000D01*
X122801000Y-124070000D01*
G37*
G36*
X122801000Y-123660000D02*
X121801000Y-123660000D01*
X121801000Y-123460000D01*
X122801000Y-123460000D01*
X122801000Y-123660000D01*
X122801000Y-123660000D01*
G37*
G36*
X122801000Y-123250000D02*
X121801000Y-123250000D01*
X121801000Y-123050000D01*
X122801000Y-123050000D01*
X122801000Y-123250000D01*
X122801000Y-123250000D01*
G37*
G36*
X122801000Y-122840000D02*
X121801000Y-122840000D01*
X121801000Y-122640000D01*
X122801000Y-122640000D01*
X122801000Y-122840000D01*
X122801000Y-122840000D01*
G37*
G36*
X122801000Y-122430000D02*
X121801000Y-122430000D01*
X121801000Y-122230000D01*
X122801000Y-122230000D01*
X122801000Y-122430000D01*
X122801000Y-122430000D01*
G37*
G36*
X122801000Y-122020000D02*
X121801000Y-122020000D01*
X121801000Y-121820000D01*
X122801000Y-121820000D01*
X122801000Y-122020000D01*
X122801000Y-122020000D01*
G37*
G36*
X122801000Y-121610000D02*
X121801000Y-121610000D01*
X121801000Y-121410000D01*
X122801000Y-121410000D01*
X122801000Y-121610000D01*
X122801000Y-121610000D01*
G37*
G36*
X122801000Y-121200000D02*
X121801000Y-121200000D01*
X121801000Y-121000000D01*
X122801000Y-121000000D01*
X122801000Y-121200000D01*
X122801000Y-121200000D01*
G37*
G36*
X122801000Y-120790000D02*
X121801000Y-120790000D01*
X121801000Y-120590000D01*
X122801000Y-120590000D01*
X122801000Y-120790000D01*
X122801000Y-120790000D01*
G37*
G36*
X122801000Y-120380000D02*
X121801000Y-120380000D01*
X121801000Y-120180000D01*
X122801000Y-120180000D01*
X122801000Y-120380000D01*
X122801000Y-120380000D01*
G37*
G36*
X122801000Y-119970000D02*
X121801000Y-119970000D01*
X121801000Y-119770000D01*
X122801000Y-119770000D01*
X122801000Y-119970000D01*
X122801000Y-119970000D01*
G37*
G36*
X122801000Y-119560000D02*
X121801000Y-119560000D01*
X121801000Y-119360000D01*
X122801000Y-119360000D01*
X122801000Y-119560000D01*
X122801000Y-119560000D01*
G37*
G36*
X122801000Y-119150000D02*
X121801000Y-119150000D01*
X121801000Y-118750000D01*
X122801000Y-118750000D01*
X122801000Y-119150000D01*
X122801000Y-119150000D01*
G37*
G36*
X120515000Y-124680000D02*
X119515000Y-124680000D01*
X119515000Y-124280000D01*
X120515000Y-124280000D01*
X120515000Y-124680000D01*
X120515000Y-124680000D01*
G37*
G36*
X120515000Y-124070000D02*
X119515000Y-124070000D01*
X119515000Y-123870000D01*
X120515000Y-123870000D01*
X120515000Y-124070000D01*
X120515000Y-124070000D01*
G37*
G36*
X120515000Y-123660000D02*
X119515000Y-123660000D01*
X119515000Y-123460000D01*
X120515000Y-123460000D01*
X120515000Y-123660000D01*
X120515000Y-123660000D01*
G37*
G36*
X120515000Y-123250000D02*
X119515000Y-123250000D01*
X119515000Y-123050000D01*
X120515000Y-123050000D01*
X120515000Y-123250000D01*
X120515000Y-123250000D01*
G37*
G36*
X120515000Y-122840000D02*
X119515000Y-122840000D01*
X119515000Y-122640000D01*
X120515000Y-122640000D01*
X120515000Y-122840000D01*
X120515000Y-122840000D01*
G37*
G36*
X120515000Y-122430000D02*
X119515000Y-122430000D01*
X119515000Y-122230000D01*
X120515000Y-122230000D01*
X120515000Y-122430000D01*
X120515000Y-122430000D01*
G37*
G36*
X120515000Y-122020000D02*
X119515000Y-122020000D01*
X119515000Y-121820000D01*
X120515000Y-121820000D01*
X120515000Y-122020000D01*
X120515000Y-122020000D01*
G37*
G36*
X120515000Y-121610000D02*
X119515000Y-121610000D01*
X119515000Y-121410000D01*
X120515000Y-121410000D01*
X120515000Y-121610000D01*
X120515000Y-121610000D01*
G37*
G36*
X120515000Y-121200000D02*
X119515000Y-121200000D01*
X119515000Y-121000000D01*
X120515000Y-121000000D01*
X120515000Y-121200000D01*
X120515000Y-121200000D01*
G37*
G36*
X120515000Y-120790000D02*
X119515000Y-120790000D01*
X119515000Y-120590000D01*
X120515000Y-120590000D01*
X120515000Y-120790000D01*
X120515000Y-120790000D01*
G37*
G36*
X120515000Y-120380000D02*
X119515000Y-120380000D01*
X119515000Y-120180000D01*
X120515000Y-120180000D01*
X120515000Y-120380000D01*
X120515000Y-120380000D01*
G37*
G36*
X120515000Y-119970000D02*
X119515000Y-119970000D01*
X119515000Y-119770000D01*
X120515000Y-119770000D01*
X120515000Y-119970000D01*
X120515000Y-119970000D01*
G37*
G36*
X120515000Y-119560000D02*
X119515000Y-119560000D01*
X119515000Y-119360000D01*
X120515000Y-119360000D01*
X120515000Y-119560000D01*
X120515000Y-119560000D01*
G37*
G36*
X120515000Y-119150000D02*
X119515000Y-119150000D01*
X119515000Y-118750000D01*
X120515000Y-118750000D01*
X120515000Y-119150000D01*
X120515000Y-119150000D01*
G37*
D16*
X120142000Y-153582000D03*
X120142000Y-150222000D03*
X148590000Y-150222000D03*
X148590000Y-153582000D03*
X134366000Y-150222000D03*
X134366000Y-153582000D03*
X141478000Y-153582000D03*
X141478000Y-150222000D03*
X127254000Y-150222000D03*
X127254000Y-153582000D03*
X91694000Y-153582000D03*
X91694000Y-150222000D03*
X105918000Y-150222000D03*
X105918000Y-153582000D03*
X98806000Y-153582000D03*
X98806000Y-150222000D03*
X113030000Y-153582000D03*
X113030000Y-150222000D03*
X84582000Y-150222000D03*
X84582000Y-153582000D03*
X70358000Y-150222000D03*
X70358000Y-153582000D03*
X77470000Y-153582000D03*
X77470000Y-150222000D03*
X63246000Y-150222000D03*
X63246000Y-153582000D03*
X63246000Y-147486000D03*
X63246000Y-144126000D03*
X77470000Y-144126000D03*
X77470000Y-147486000D03*
X70358000Y-147486000D03*
X70358000Y-144126000D03*
X84582000Y-147486000D03*
X84582000Y-144126000D03*
X113030000Y-144126000D03*
X113030000Y-147486000D03*
X98806000Y-144126000D03*
X98806000Y-147486000D03*
X105918000Y-147486000D03*
X105918000Y-144126000D03*
X91694000Y-144126000D03*
X91694000Y-147486000D03*
X127254000Y-147486000D03*
X127254000Y-144126000D03*
X141478000Y-144126000D03*
X141478000Y-147486000D03*
X134366000Y-147486000D03*
X134366000Y-144126000D03*
X148590000Y-147486000D03*
X148590000Y-144126000D03*
X120142000Y-144126000D03*
X120142000Y-147486000D03*
X120142000Y-141517000D03*
X120142000Y-138157000D03*
X148590000Y-138157000D03*
X148590000Y-141517000D03*
X134366000Y-138157000D03*
X134366000Y-141517000D03*
X141478000Y-141517000D03*
X141478000Y-138157000D03*
X127254000Y-138157000D03*
X127254000Y-141517000D03*
X91694000Y-141517000D03*
X91694000Y-138157000D03*
X105918000Y-138157000D03*
X105918000Y-141517000D03*
X98806000Y-141517000D03*
X98806000Y-138157000D03*
X113030000Y-141517000D03*
X113030000Y-138157000D03*
X84582000Y-138157000D03*
X84582000Y-141517000D03*
X70358000Y-138157000D03*
X70358000Y-141517000D03*
X77470000Y-141517000D03*
X77470000Y-138157000D03*
X63246000Y-138157000D03*
X63246000Y-141517000D03*
M02*
