G04 #@! TF.FileFunction,Other,Fab,Bot*
%FSLAX46Y46*%
G04 Gerber Fmt 4.6, Leading zero omitted, Abs format (unit mm)*
G04 Created by KiCad (PCBNEW 4.0.5+dfsg1-4) date Thu Oct 18 11:42:42 2018*
%MOMM*%
%LPD*%
G01*
G04 APERTURE LIST*
%ADD10C,0.100000*%
%ADD11C,0.150000*%
G04 APERTURE END LIST*
D10*
D11*
X118408000Y-130616000D02*
X124908000Y-130616000D01*
X124908000Y-130616000D02*
X124908000Y-112716000D01*
X124908000Y-112716000D02*
X117408000Y-112716000D01*
X117408000Y-112716000D02*
X117408000Y-129616000D01*
X117408000Y-129616000D02*
X118408000Y-130616000D01*
X91653809Y-132945143D02*
X91701428Y-132992762D01*
X91844285Y-133040381D01*
X91939523Y-133040381D01*
X92082381Y-132992762D01*
X92177619Y-132897524D01*
X92225238Y-132802286D01*
X92272857Y-132611810D01*
X92272857Y-132468952D01*
X92225238Y-132278476D01*
X92177619Y-132183238D01*
X92082381Y-132088000D01*
X91939523Y-132040381D01*
X91844285Y-132040381D01*
X91701428Y-132088000D01*
X91653809Y-132135619D01*
X91034762Y-132040381D02*
X90844285Y-132040381D01*
X90749047Y-132088000D01*
X90653809Y-132183238D01*
X90606190Y-132373714D01*
X90606190Y-132707048D01*
X90653809Y-132897524D01*
X90749047Y-132992762D01*
X90844285Y-133040381D01*
X91034762Y-133040381D01*
X91130000Y-132992762D01*
X91225238Y-132897524D01*
X91272857Y-132707048D01*
X91272857Y-132373714D01*
X91225238Y-132183238D01*
X91130000Y-132088000D01*
X91034762Y-132040381D01*
X90177619Y-133040381D02*
X90177619Y-132040381D01*
X89606190Y-133040381D01*
X89606190Y-132040381D01*
X89130000Y-133040381D02*
X89130000Y-132040381D01*
X88558571Y-133040381D01*
X88558571Y-132040381D01*
X88320476Y-133135619D02*
X87558571Y-133135619D01*
X87130000Y-132040381D02*
X87034761Y-132040381D01*
X86939523Y-132088000D01*
X86891904Y-132135619D01*
X86844285Y-132230857D01*
X86796666Y-132421333D01*
X86796666Y-132659429D01*
X86844285Y-132849905D01*
X86891904Y-132945143D01*
X86939523Y-132992762D01*
X87034761Y-133040381D01*
X87130000Y-133040381D01*
X87225238Y-132992762D01*
X87272857Y-132945143D01*
X87320476Y-132849905D01*
X87368095Y-132659429D01*
X87368095Y-132421333D01*
X87320476Y-132230857D01*
X87272857Y-132135619D01*
X87225238Y-132088000D01*
X87130000Y-132040381D01*
X85844285Y-133040381D02*
X86415714Y-133040381D01*
X86130000Y-133040381D02*
X86130000Y-132040381D01*
X86225238Y-132183238D01*
X86320476Y-132278476D01*
X86415714Y-132326095D01*
X85510952Y-132040381D02*
X84844285Y-133040381D01*
X84844285Y-132040381D02*
X85510952Y-133040381D01*
X84272857Y-132040381D02*
X84177618Y-132040381D01*
X84082380Y-132088000D01*
X84034761Y-132135619D01*
X83987142Y-132230857D01*
X83939523Y-132421333D01*
X83939523Y-132659429D01*
X83987142Y-132849905D01*
X84034761Y-132945143D01*
X84082380Y-132992762D01*
X84177618Y-133040381D01*
X84272857Y-133040381D01*
X84368095Y-132992762D01*
X84415714Y-132945143D01*
X84463333Y-132849905D01*
X84510952Y-132659429D01*
X84510952Y-132421333D01*
X84463333Y-132230857D01*
X84415714Y-132135619D01*
X84368095Y-132088000D01*
X84272857Y-132040381D01*
X83606190Y-132040381D02*
X82987142Y-132040381D01*
X83320476Y-132421333D01*
X83177618Y-132421333D01*
X83082380Y-132468952D01*
X83034761Y-132516571D01*
X82987142Y-132611810D01*
X82987142Y-132849905D01*
X83034761Y-132945143D01*
X83082380Y-132992762D01*
X83177618Y-133040381D01*
X83463333Y-133040381D01*
X83558571Y-132992762D01*
X83606190Y-132945143D01*
X80223809Y-107799143D02*
X80271428Y-107846762D01*
X80414285Y-107894381D01*
X80509523Y-107894381D01*
X80652381Y-107846762D01*
X80747619Y-107751524D01*
X80795238Y-107656286D01*
X80842857Y-107465810D01*
X80842857Y-107322952D01*
X80795238Y-107132476D01*
X80747619Y-107037238D01*
X80652381Y-106942000D01*
X80509523Y-106894381D01*
X80414285Y-106894381D01*
X80271428Y-106942000D01*
X80223809Y-106989619D01*
X79604762Y-106894381D02*
X79414285Y-106894381D01*
X79319047Y-106942000D01*
X79223809Y-107037238D01*
X79176190Y-107227714D01*
X79176190Y-107561048D01*
X79223809Y-107751524D01*
X79319047Y-107846762D01*
X79414285Y-107894381D01*
X79604762Y-107894381D01*
X79700000Y-107846762D01*
X79795238Y-107751524D01*
X79842857Y-107561048D01*
X79842857Y-107227714D01*
X79795238Y-107037238D01*
X79700000Y-106942000D01*
X79604762Y-106894381D01*
X78747619Y-107894381D02*
X78747619Y-106894381D01*
X78176190Y-107894381D01*
X78176190Y-106894381D01*
X77700000Y-107894381D02*
X77700000Y-106894381D01*
X77128571Y-107894381D01*
X77128571Y-106894381D01*
X76890476Y-107989619D02*
X76128571Y-107989619D01*
X75700000Y-106894381D02*
X75604761Y-106894381D01*
X75509523Y-106942000D01*
X75461904Y-106989619D01*
X75414285Y-107084857D01*
X75366666Y-107275333D01*
X75366666Y-107513429D01*
X75414285Y-107703905D01*
X75461904Y-107799143D01*
X75509523Y-107846762D01*
X75604761Y-107894381D01*
X75700000Y-107894381D01*
X75795238Y-107846762D01*
X75842857Y-107799143D01*
X75890476Y-107703905D01*
X75938095Y-107513429D01*
X75938095Y-107275333D01*
X75890476Y-107084857D01*
X75842857Y-106989619D01*
X75795238Y-106942000D01*
X75700000Y-106894381D01*
X74414285Y-107894381D02*
X74985714Y-107894381D01*
X74700000Y-107894381D02*
X74700000Y-106894381D01*
X74795238Y-107037238D01*
X74890476Y-107132476D01*
X74985714Y-107180095D01*
X74080952Y-106894381D02*
X73414285Y-107894381D01*
X73414285Y-106894381D02*
X74080952Y-107894381D01*
X72842857Y-106894381D02*
X72747618Y-106894381D01*
X72652380Y-106942000D01*
X72604761Y-106989619D01*
X72557142Y-107084857D01*
X72509523Y-107275333D01*
X72509523Y-107513429D01*
X72557142Y-107703905D01*
X72604761Y-107799143D01*
X72652380Y-107846762D01*
X72747618Y-107894381D01*
X72842857Y-107894381D01*
X72938095Y-107846762D01*
X72985714Y-107799143D01*
X73033333Y-107703905D01*
X73080952Y-107513429D01*
X73080952Y-107275333D01*
X73033333Y-107084857D01*
X72985714Y-106989619D01*
X72938095Y-106942000D01*
X72842857Y-106894381D01*
X71604761Y-106894381D02*
X72080952Y-106894381D01*
X72128571Y-107370571D01*
X72080952Y-107322952D01*
X71985714Y-107275333D01*
X71747618Y-107275333D01*
X71652380Y-107322952D01*
X71604761Y-107370571D01*
X71557142Y-107465810D01*
X71557142Y-107703905D01*
X71604761Y-107799143D01*
X71652380Y-107846762D01*
X71747618Y-107894381D01*
X71985714Y-107894381D01*
X72080952Y-107846762D01*
X72128571Y-107799143D01*
X111465809Y-119737143D02*
X111513428Y-119784762D01*
X111656285Y-119832381D01*
X111751523Y-119832381D01*
X111894381Y-119784762D01*
X111989619Y-119689524D01*
X112037238Y-119594286D01*
X112084857Y-119403810D01*
X112084857Y-119260952D01*
X112037238Y-119070476D01*
X111989619Y-118975238D01*
X111894381Y-118880000D01*
X111751523Y-118832381D01*
X111656285Y-118832381D01*
X111513428Y-118880000D01*
X111465809Y-118927619D01*
X110846762Y-118832381D02*
X110656285Y-118832381D01*
X110561047Y-118880000D01*
X110465809Y-118975238D01*
X110418190Y-119165714D01*
X110418190Y-119499048D01*
X110465809Y-119689524D01*
X110561047Y-119784762D01*
X110656285Y-119832381D01*
X110846762Y-119832381D01*
X110942000Y-119784762D01*
X111037238Y-119689524D01*
X111084857Y-119499048D01*
X111084857Y-119165714D01*
X111037238Y-118975238D01*
X110942000Y-118880000D01*
X110846762Y-118832381D01*
X109989619Y-119832381D02*
X109989619Y-118832381D01*
X109418190Y-119832381D01*
X109418190Y-118832381D01*
X108942000Y-119832381D02*
X108942000Y-118832381D01*
X108370571Y-119832381D01*
X108370571Y-118832381D01*
X108132476Y-119927619D02*
X107370571Y-119927619D01*
X106942000Y-118832381D02*
X106846761Y-118832381D01*
X106751523Y-118880000D01*
X106703904Y-118927619D01*
X106656285Y-119022857D01*
X106608666Y-119213333D01*
X106608666Y-119451429D01*
X106656285Y-119641905D01*
X106703904Y-119737143D01*
X106751523Y-119784762D01*
X106846761Y-119832381D01*
X106942000Y-119832381D01*
X107037238Y-119784762D01*
X107084857Y-119737143D01*
X107132476Y-119641905D01*
X107180095Y-119451429D01*
X107180095Y-119213333D01*
X107132476Y-119022857D01*
X107084857Y-118927619D01*
X107037238Y-118880000D01*
X106942000Y-118832381D01*
X105656285Y-119832381D02*
X106227714Y-119832381D01*
X105942000Y-119832381D02*
X105942000Y-118832381D01*
X106037238Y-118975238D01*
X106132476Y-119070476D01*
X106227714Y-119118095D01*
X105322952Y-118832381D02*
X104656285Y-119832381D01*
X104656285Y-118832381D02*
X105322952Y-119832381D01*
X104084857Y-118832381D02*
X103989618Y-118832381D01*
X103894380Y-118880000D01*
X103846761Y-118927619D01*
X103799142Y-119022857D01*
X103751523Y-119213333D01*
X103751523Y-119451429D01*
X103799142Y-119641905D01*
X103846761Y-119737143D01*
X103894380Y-119784762D01*
X103989618Y-119832381D01*
X104084857Y-119832381D01*
X104180095Y-119784762D01*
X104227714Y-119737143D01*
X104275333Y-119641905D01*
X104322952Y-119451429D01*
X104322952Y-119213333D01*
X104275333Y-119022857D01*
X104227714Y-118927619D01*
X104180095Y-118880000D01*
X104084857Y-118832381D01*
X103370571Y-118927619D02*
X103322952Y-118880000D01*
X103227714Y-118832381D01*
X102989618Y-118832381D01*
X102894380Y-118880000D01*
X102846761Y-118927619D01*
X102799142Y-119022857D01*
X102799142Y-119118095D01*
X102846761Y-119260952D01*
X103418190Y-119832381D01*
X102799142Y-119832381D01*
X125181809Y-111973143D02*
X125229428Y-112020762D01*
X125372285Y-112068381D01*
X125467523Y-112068381D01*
X125610381Y-112020762D01*
X125705619Y-111925524D01*
X125753238Y-111830286D01*
X125800857Y-111639810D01*
X125800857Y-111496952D01*
X125753238Y-111306476D01*
X125705619Y-111211238D01*
X125610381Y-111116000D01*
X125467523Y-111068381D01*
X125372285Y-111068381D01*
X125229428Y-111116000D01*
X125181809Y-111163619D01*
X124562762Y-111068381D02*
X124372285Y-111068381D01*
X124277047Y-111116000D01*
X124181809Y-111211238D01*
X124134190Y-111401714D01*
X124134190Y-111735048D01*
X124181809Y-111925524D01*
X124277047Y-112020762D01*
X124372285Y-112068381D01*
X124562762Y-112068381D01*
X124658000Y-112020762D01*
X124753238Y-111925524D01*
X124800857Y-111735048D01*
X124800857Y-111401714D01*
X124753238Y-111211238D01*
X124658000Y-111116000D01*
X124562762Y-111068381D01*
X123705619Y-112068381D02*
X123705619Y-111068381D01*
X123134190Y-112068381D01*
X123134190Y-111068381D01*
X122658000Y-112068381D02*
X122658000Y-111068381D01*
X122086571Y-112068381D01*
X122086571Y-111068381D01*
X121848476Y-112163619D02*
X121086571Y-112163619D01*
X120658000Y-111068381D02*
X120562761Y-111068381D01*
X120467523Y-111116000D01*
X120419904Y-111163619D01*
X120372285Y-111258857D01*
X120324666Y-111449333D01*
X120324666Y-111687429D01*
X120372285Y-111877905D01*
X120419904Y-111973143D01*
X120467523Y-112020762D01*
X120562761Y-112068381D01*
X120658000Y-112068381D01*
X120753238Y-112020762D01*
X120800857Y-111973143D01*
X120848476Y-111877905D01*
X120896095Y-111687429D01*
X120896095Y-111449333D01*
X120848476Y-111258857D01*
X120800857Y-111163619D01*
X120753238Y-111116000D01*
X120658000Y-111068381D01*
X119372285Y-112068381D02*
X119943714Y-112068381D01*
X119658000Y-112068381D02*
X119658000Y-111068381D01*
X119753238Y-111211238D01*
X119848476Y-111306476D01*
X119943714Y-111354095D01*
X119038952Y-111068381D02*
X118372285Y-112068381D01*
X118372285Y-111068381D02*
X119038952Y-112068381D01*
X118038952Y-111163619D02*
X117991333Y-111116000D01*
X117896095Y-111068381D01*
X117657999Y-111068381D01*
X117562761Y-111116000D01*
X117515142Y-111163619D01*
X117467523Y-111258857D01*
X117467523Y-111354095D01*
X117515142Y-111496952D01*
X118086571Y-112068381D01*
X117467523Y-112068381D01*
X116896095Y-111496952D02*
X116991333Y-111449333D01*
X117038952Y-111401714D01*
X117086571Y-111306476D01*
X117086571Y-111258857D01*
X117038952Y-111163619D01*
X116991333Y-111116000D01*
X116896095Y-111068381D01*
X116705618Y-111068381D01*
X116610380Y-111116000D01*
X116562761Y-111163619D01*
X116515142Y-111258857D01*
X116515142Y-111306476D01*
X116562761Y-111401714D01*
X116610380Y-111449333D01*
X116705618Y-111496952D01*
X116896095Y-111496952D01*
X116991333Y-111544571D01*
X117038952Y-111592190D01*
X117086571Y-111687429D01*
X117086571Y-111877905D01*
X117038952Y-111973143D01*
X116991333Y-112020762D01*
X116896095Y-112068381D01*
X116705618Y-112068381D01*
X116610380Y-112020762D01*
X116562761Y-111973143D01*
X116515142Y-111877905D01*
X116515142Y-111687429D01*
X116562761Y-111592190D01*
X116610380Y-111544571D01*
X116705618Y-111496952D01*
M02*
