G04 #@! TF.FileFunction,Copper,L1,Top,Signal*
%FSLAX46Y46*%
G04 Gerber Fmt 4.6, Leading zero omitted, Abs format (unit mm)*
G04 Created by KiCad (PCBNEW 4.0.5+dfsg1-4) date Tue Aug 14 16:23:05 2018*
%MOMM*%
%LPD*%
G01*
G04 APERTURE LIST*
%ADD10C,0.100000*%
%ADD11C,0.150000*%
%ADD12R,1.000000X2.000000*%
%ADD13R,2.000000X4.500000*%
%ADD14R,1.600000X2.000000*%
%ADD15R,2.000000X2.000000*%
%ADD16C,0.200000*%
G04 APERTURE END LIST*
D10*
D11*
X143815249Y-108744277D02*
G75*
G03X143818000Y-112744000I202751J-1999723D01*
G01*
X143814800Y-108762800D02*
X143814800Y-112725200D01*
X143789400Y-111785400D02*
X142392400Y-111785400D01*
X143789400Y-111912400D02*
X142468600Y-111912400D01*
X143789400Y-112039400D02*
X142544800Y-112039400D01*
X143789400Y-112166400D02*
X142671800Y-112166400D01*
X143789400Y-112293400D02*
X142798800Y-112293400D01*
X143789400Y-112420400D02*
X143002000Y-112420400D01*
X143789400Y-112547400D02*
X143230600Y-112547400D01*
X143789400Y-112649000D02*
X143586200Y-112649000D01*
X142189200Y-111455200D02*
X142189200Y-110032800D01*
X142087600Y-111125000D02*
X142087600Y-110312200D01*
X143789400Y-109702600D02*
X142392400Y-109702600D01*
X143789400Y-109575600D02*
X142443200Y-109575600D01*
X143789400Y-109448600D02*
X142570200Y-109448600D01*
X143789400Y-109321600D02*
X142671800Y-109321600D01*
X143789400Y-109220000D02*
X142798800Y-109220000D01*
X143789400Y-109093000D02*
X142925800Y-109093000D01*
X143789400Y-108966000D02*
X143154400Y-108966000D01*
X143789400Y-108864400D02*
X143484600Y-108864400D01*
X144246600Y-108864400D02*
X144551400Y-108864400D01*
X144246600Y-108966000D02*
X144881600Y-108966000D01*
X144246600Y-109093000D02*
X145110200Y-109093000D01*
X144246600Y-109220000D02*
X145237200Y-109220000D01*
X144246600Y-109321600D02*
X145364200Y-109321600D01*
X144246600Y-109448600D02*
X145465800Y-109448600D01*
X144246600Y-109575600D02*
X145592800Y-109575600D01*
X144246600Y-109702600D02*
X145643600Y-109702600D01*
X145948400Y-111125000D02*
X145948400Y-110312200D01*
X145846800Y-111455200D02*
X145846800Y-110032800D01*
X144246600Y-112649000D02*
X144449800Y-112649000D01*
X144246600Y-112547400D02*
X144805400Y-112547400D01*
X144246600Y-112420400D02*
X145034000Y-112420400D01*
X144246600Y-112293400D02*
X145237200Y-112293400D01*
X144246600Y-112166400D02*
X145364200Y-112166400D01*
X144246600Y-112039400D02*
X145491200Y-112039400D01*
X144246600Y-111912400D02*
X145567400Y-111912400D01*
X144246600Y-111785400D02*
X145643600Y-111785400D01*
X144221200Y-108762800D02*
X144221200Y-112725200D01*
X144220751Y-108744277D02*
G75*
G02X144218000Y-112744000I-202751J-1999723D01*
G01*
D12*
X125730000Y-131064000D03*
X123952000Y-131064000D03*
X122174000Y-131064000D03*
X127508000Y-131064000D03*
X129286000Y-131064000D03*
X149606000Y-130556000D03*
X147828000Y-130556000D03*
X146050000Y-130556000D03*
X145034000Y-115062000D03*
X143256000Y-115062000D03*
D13*
X132150000Y-118110000D03*
X134550000Y-118110000D03*
X119310000Y-118110000D03*
X116910000Y-118110000D03*
X124530000Y-125730000D03*
X126930000Y-125730000D03*
X126930000Y-110490000D03*
X124530000Y-110490000D03*
D14*
X143027400Y-110744000D03*
X145008600Y-110744000D03*
D15*
X141224000Y-124968000D03*
X141224000Y-128016000D03*
X146304000Y-128016000D03*
X146304000Y-124968000D03*
X154432000Y-124968000D03*
X154432000Y-128016000D03*
X149352000Y-128016000D03*
X149352000Y-124968000D03*
D16*
X116910000Y-118110000D02*
X116910000Y-130626000D01*
X117348000Y-131064000D02*
X122174000Y-131064000D01*
X116910000Y-130626000D02*
X117348000Y-131064000D01*
X124530000Y-125730000D02*
X124530000Y-128340000D01*
X125730000Y-129540000D02*
X125730000Y-131064000D01*
X124530000Y-128340000D02*
X125730000Y-129540000D01*
X124530000Y-110490000D02*
X122428000Y-110490000D01*
X123952000Y-129540000D02*
X123952000Y-131064000D01*
X123698000Y-129286000D02*
X123952000Y-129540000D01*
X122682000Y-129286000D02*
X123698000Y-129286000D01*
X122174000Y-128778000D02*
X122682000Y-129286000D01*
X122174000Y-110744000D02*
X122174000Y-128778000D01*
X122428000Y-110490000D02*
X122174000Y-110744000D01*
X127508000Y-131064000D02*
X127508000Y-129540000D01*
X129794000Y-118110000D02*
X132150000Y-118110000D01*
X129032000Y-118872000D02*
X129794000Y-118110000D01*
X129032000Y-128016000D02*
X129032000Y-118872000D01*
X127508000Y-129540000D02*
X129032000Y-128016000D01*
X129286000Y-131064000D02*
X129286000Y-129540000D01*
X134550000Y-127832000D02*
X134550000Y-118110000D01*
X134112000Y-128270000D02*
X134550000Y-127832000D01*
X130556000Y-128270000D02*
X134112000Y-128270000D01*
X129286000Y-129540000D02*
X130556000Y-128270000D01*
X127000000Y-107442000D02*
X127000000Y-110420000D01*
X127000000Y-110420000D02*
X126930000Y-110490000D01*
X119310000Y-118110000D02*
X119310000Y-108020000D01*
X134550000Y-107880000D02*
X134550000Y-118110000D01*
X134112000Y-107442000D02*
X134550000Y-107880000D01*
X119888000Y-107442000D02*
X127000000Y-107442000D01*
X127000000Y-107442000D02*
X134112000Y-107442000D01*
X119310000Y-108020000D02*
X119888000Y-107442000D01*
X126930000Y-125730000D02*
X126930000Y-110490000D01*
X147828000Y-130556000D02*
X147828000Y-124968000D01*
X147828000Y-124968000D02*
X141224000Y-124968000D01*
X141224000Y-124968000D02*
X146304000Y-124968000D01*
X146304000Y-124968000D02*
X149352000Y-124968000D01*
X149352000Y-124968000D02*
X154432000Y-124968000D01*
X141224000Y-128016000D02*
X146304000Y-128016000D01*
X146304000Y-128016000D02*
X146050000Y-128270000D01*
X146050000Y-128270000D02*
X146050000Y-130556000D01*
X149606000Y-130556000D02*
X149606000Y-128270000D01*
X149606000Y-128270000D02*
X149860000Y-128016000D01*
X149860000Y-128016000D02*
X154432000Y-128016000D01*
X143256000Y-115062000D02*
X143256000Y-110972600D01*
X143256000Y-110972600D02*
X143027400Y-110744000D01*
X145008600Y-110744000D02*
X145008600Y-115036600D01*
X145008600Y-115036600D02*
X145034000Y-115062000D01*
M02*
