G04 #@! TF.FileFunction,Legend,Top*
%FSLAX46Y46*%
G04 Gerber Fmt 4.6, Leading zero omitted, Abs format (unit mm)*
G04 Created by KiCad (PCBNEW 4.0.5+dfsg1-4) date Thu Oct 18 19:18:12 2018*
%MOMM*%
%LPD*%
G01*
G04 APERTURE LIST*
%ADD10C,0.100000*%
%ADD11C,0.250000*%
%ADD12C,0.150000*%
G04 APERTURE END LIST*
D10*
D11*
X68580000Y-130556000D02*
X68580000Y-131572000D01*
X68580000Y-131572000D02*
X69088000Y-131064000D01*
X69088000Y-131064000D02*
X68580000Y-131572000D01*
X68580000Y-131572000D02*
X68072000Y-131064000D01*
D12*
X56388000Y-108204000D02*
X80772000Y-108204000D01*
X80772000Y-108204000D02*
X80772000Y-131572000D01*
X80772000Y-131572000D02*
X56388000Y-131572000D01*
X56388000Y-108204000D02*
X56388000Y-131572000D01*
X91059000Y-121793000D02*
X91059000Y-127127000D01*
X83693000Y-121793000D02*
X91059000Y-121793000D01*
X83693000Y-127127000D02*
X83693000Y-121793000D01*
X91059000Y-127127000D02*
X83693000Y-127127000D01*
X99187000Y-127127000D02*
X91821000Y-127127000D01*
X91821000Y-127127000D02*
X91821000Y-121793000D01*
X91821000Y-121793000D02*
X99187000Y-121793000D01*
X99187000Y-121793000D02*
X99187000Y-127127000D01*
X110470000Y-122902000D02*
X110470000Y-123102000D01*
X110470000Y-128902000D02*
X110470000Y-128702000D01*
X104470000Y-128902000D02*
X104470000Y-128702000D01*
X104470000Y-122902000D02*
X104470000Y-123102000D01*
X104470000Y-124702000D02*
X104470000Y-127102000D01*
X110470000Y-124702000D02*
X110470000Y-127102000D01*
X110470000Y-122902000D02*
X104470000Y-122902000D01*
X104470000Y-128902000D02*
X110470000Y-128902000D01*
X109170000Y-125902000D02*
G75*
G03X109170000Y-125902000I-1700000J0D01*
G01*
X117283000Y-112541000D02*
X117283000Y-112791000D01*
X125033000Y-112541000D02*
X125033000Y-112886000D01*
X125033000Y-130791000D02*
X125033000Y-130446000D01*
X117283000Y-130791000D02*
X117283000Y-130446000D01*
X117283000Y-112541000D02*
X125033000Y-112541000D01*
X117283000Y-130791000D02*
X125033000Y-130791000D01*
X117283000Y-112791000D02*
X115458000Y-112791000D01*
X119888000Y-118618000D02*
X119888000Y-117602000D01*
X119888000Y-117602000D02*
X122174000Y-117602000D01*
X122174000Y-117602000D02*
X122174000Y-118618000D01*
X119888000Y-124841000D02*
X119888000Y-125857000D01*
X119888000Y-125857000D02*
X122174000Y-125857000D01*
X122174000Y-125857000D02*
X122174000Y-124841000D01*
D11*
X59182000Y-136525000D02*
X59182000Y-155321000D01*
X59182000Y-155321000D02*
X152654000Y-155321000D01*
X152654000Y-155321000D02*
X152654000Y-136525000D01*
X152654000Y-136525000D02*
X59182000Y-136525000D01*
X117602000Y-149352000D02*
X122682000Y-149352000D01*
X117602000Y-154432000D02*
X117602000Y-149352000D01*
X122682000Y-154432000D02*
X122682000Y-149352000D01*
X117602000Y-154432000D02*
X122682000Y-154432000D01*
X146050000Y-154432000D02*
X151130000Y-154432000D01*
X151130000Y-154432000D02*
X151130000Y-149352000D01*
X146050000Y-154432000D02*
X146050000Y-149352000D01*
X146050000Y-149352000D02*
X151130000Y-149352000D01*
X131826000Y-154432000D02*
X136906000Y-154432000D01*
X136906000Y-154432000D02*
X136906000Y-149352000D01*
X131826000Y-154432000D02*
X131826000Y-149352000D01*
X131826000Y-149352000D02*
X136906000Y-149352000D01*
X138938000Y-149352000D02*
X144018000Y-149352000D01*
X138938000Y-154432000D02*
X138938000Y-149352000D01*
X144018000Y-154432000D02*
X144018000Y-149352000D01*
X138938000Y-154432000D02*
X144018000Y-154432000D01*
X124714000Y-154432000D02*
X129794000Y-154432000D01*
X129794000Y-154432000D02*
X129794000Y-149352000D01*
X124714000Y-154432000D02*
X124714000Y-149352000D01*
X124714000Y-149352000D02*
X129794000Y-149352000D01*
X89154000Y-149352000D02*
X94234000Y-149352000D01*
X89154000Y-154432000D02*
X89154000Y-149352000D01*
X94234000Y-154432000D02*
X94234000Y-149352000D01*
X89154000Y-154432000D02*
X94234000Y-154432000D01*
X103378000Y-154432000D02*
X108458000Y-154432000D01*
X108458000Y-154432000D02*
X108458000Y-149352000D01*
X103378000Y-154432000D02*
X103378000Y-149352000D01*
X103378000Y-149352000D02*
X108458000Y-149352000D01*
X96266000Y-149352000D02*
X101346000Y-149352000D01*
X96266000Y-154432000D02*
X96266000Y-149352000D01*
X101346000Y-154432000D02*
X101346000Y-149352000D01*
X96266000Y-154432000D02*
X101346000Y-154432000D01*
X110490000Y-149352000D02*
X115570000Y-149352000D01*
X110490000Y-154432000D02*
X110490000Y-149352000D01*
X115570000Y-154432000D02*
X115570000Y-149352000D01*
X110490000Y-154432000D02*
X115570000Y-154432000D01*
X82042000Y-154432000D02*
X87122000Y-154432000D01*
X87122000Y-154432000D02*
X87122000Y-149352000D01*
X82042000Y-154432000D02*
X82042000Y-149352000D01*
X82042000Y-149352000D02*
X87122000Y-149352000D01*
X67818000Y-154432000D02*
X72898000Y-154432000D01*
X72898000Y-154432000D02*
X72898000Y-149352000D01*
X67818000Y-154432000D02*
X67818000Y-149352000D01*
X67818000Y-149352000D02*
X72898000Y-149352000D01*
X74930000Y-149352000D02*
X80010000Y-149352000D01*
X74930000Y-154432000D02*
X74930000Y-149352000D01*
X80010000Y-154432000D02*
X80010000Y-149352000D01*
X74930000Y-154432000D02*
X80010000Y-154432000D01*
X60706000Y-154432000D02*
X65786000Y-154432000D01*
X65786000Y-154432000D02*
X65786000Y-149352000D01*
X60706000Y-154432000D02*
X60706000Y-149352000D01*
X60706000Y-149352000D02*
X65786000Y-149352000D01*
X60706000Y-143256000D02*
X65786000Y-143256000D01*
X60706000Y-148336000D02*
X60706000Y-143256000D01*
X65786000Y-148336000D02*
X65786000Y-143256000D01*
X60706000Y-148336000D02*
X65786000Y-148336000D01*
X74930000Y-148336000D02*
X80010000Y-148336000D01*
X80010000Y-148336000D02*
X80010000Y-143256000D01*
X74930000Y-148336000D02*
X74930000Y-143256000D01*
X74930000Y-143256000D02*
X80010000Y-143256000D01*
X67818000Y-143256000D02*
X72898000Y-143256000D01*
X67818000Y-148336000D02*
X67818000Y-143256000D01*
X72898000Y-148336000D02*
X72898000Y-143256000D01*
X67818000Y-148336000D02*
X72898000Y-148336000D01*
X82042000Y-143256000D02*
X87122000Y-143256000D01*
X82042000Y-148336000D02*
X82042000Y-143256000D01*
X87122000Y-148336000D02*
X87122000Y-143256000D01*
X82042000Y-148336000D02*
X87122000Y-148336000D01*
X110490000Y-148336000D02*
X115570000Y-148336000D01*
X115570000Y-148336000D02*
X115570000Y-143256000D01*
X110490000Y-148336000D02*
X110490000Y-143256000D01*
X110490000Y-143256000D02*
X115570000Y-143256000D01*
X96266000Y-148336000D02*
X101346000Y-148336000D01*
X101346000Y-148336000D02*
X101346000Y-143256000D01*
X96266000Y-148336000D02*
X96266000Y-143256000D01*
X96266000Y-143256000D02*
X101346000Y-143256000D01*
X103378000Y-143256000D02*
X108458000Y-143256000D01*
X103378000Y-148336000D02*
X103378000Y-143256000D01*
X108458000Y-148336000D02*
X108458000Y-143256000D01*
X103378000Y-148336000D02*
X108458000Y-148336000D01*
X89154000Y-148336000D02*
X94234000Y-148336000D01*
X94234000Y-148336000D02*
X94234000Y-143256000D01*
X89154000Y-148336000D02*
X89154000Y-143256000D01*
X89154000Y-143256000D02*
X94234000Y-143256000D01*
X124714000Y-143256000D02*
X129794000Y-143256000D01*
X124714000Y-148336000D02*
X124714000Y-143256000D01*
X129794000Y-148336000D02*
X129794000Y-143256000D01*
X124714000Y-148336000D02*
X129794000Y-148336000D01*
X138938000Y-148336000D02*
X144018000Y-148336000D01*
X144018000Y-148336000D02*
X144018000Y-143256000D01*
X138938000Y-148336000D02*
X138938000Y-143256000D01*
X138938000Y-143256000D02*
X144018000Y-143256000D01*
X131826000Y-143256000D02*
X136906000Y-143256000D01*
X131826000Y-148336000D02*
X131826000Y-143256000D01*
X136906000Y-148336000D02*
X136906000Y-143256000D01*
X131826000Y-148336000D02*
X136906000Y-148336000D01*
X146050000Y-143256000D02*
X151130000Y-143256000D01*
X146050000Y-148336000D02*
X146050000Y-143256000D01*
X151130000Y-148336000D02*
X151130000Y-143256000D01*
X146050000Y-148336000D02*
X151130000Y-148336000D01*
X117602000Y-148336000D02*
X122682000Y-148336000D01*
X122682000Y-148336000D02*
X122682000Y-143256000D01*
X117602000Y-148336000D02*
X117602000Y-143256000D01*
X117602000Y-143256000D02*
X122682000Y-143256000D01*
X117602000Y-137287000D02*
X122682000Y-137287000D01*
X117602000Y-142367000D02*
X117602000Y-137287000D01*
X122682000Y-142367000D02*
X122682000Y-137287000D01*
X117602000Y-142367000D02*
X122682000Y-142367000D01*
X146050000Y-142367000D02*
X151130000Y-142367000D01*
X151130000Y-142367000D02*
X151130000Y-137287000D01*
X146050000Y-142367000D02*
X146050000Y-137287000D01*
X146050000Y-137287000D02*
X151130000Y-137287000D01*
X131826000Y-142367000D02*
X136906000Y-142367000D01*
X136906000Y-142367000D02*
X136906000Y-137287000D01*
X131826000Y-142367000D02*
X131826000Y-137287000D01*
X131826000Y-137287000D02*
X136906000Y-137287000D01*
X138938000Y-137287000D02*
X144018000Y-137287000D01*
X138938000Y-142367000D02*
X138938000Y-137287000D01*
X144018000Y-142367000D02*
X144018000Y-137287000D01*
X138938000Y-142367000D02*
X144018000Y-142367000D01*
X124714000Y-142367000D02*
X129794000Y-142367000D01*
X129794000Y-142367000D02*
X129794000Y-137287000D01*
X124714000Y-142367000D02*
X124714000Y-137287000D01*
X124714000Y-137287000D02*
X129794000Y-137287000D01*
X89154000Y-137287000D02*
X94234000Y-137287000D01*
X89154000Y-142367000D02*
X89154000Y-137287000D01*
X94234000Y-142367000D02*
X94234000Y-137287000D01*
X89154000Y-142367000D02*
X94234000Y-142367000D01*
X103378000Y-142367000D02*
X108458000Y-142367000D01*
X108458000Y-142367000D02*
X108458000Y-137287000D01*
X103378000Y-142367000D02*
X103378000Y-137287000D01*
X103378000Y-137287000D02*
X108458000Y-137287000D01*
X96266000Y-137287000D02*
X101346000Y-137287000D01*
X96266000Y-142367000D02*
X96266000Y-137287000D01*
X101346000Y-142367000D02*
X101346000Y-137287000D01*
X96266000Y-142367000D02*
X101346000Y-142367000D01*
X110490000Y-137287000D02*
X115570000Y-137287000D01*
X110490000Y-142367000D02*
X110490000Y-137287000D01*
X115570000Y-142367000D02*
X115570000Y-137287000D01*
X110490000Y-142367000D02*
X115570000Y-142367000D01*
X82042000Y-142367000D02*
X87122000Y-142367000D01*
X87122000Y-142367000D02*
X87122000Y-137287000D01*
X82042000Y-142367000D02*
X82042000Y-137287000D01*
X82042000Y-137287000D02*
X87122000Y-137287000D01*
X67818000Y-142367000D02*
X72898000Y-142367000D01*
X72898000Y-142367000D02*
X72898000Y-137287000D01*
X67818000Y-142367000D02*
X67818000Y-137287000D01*
X67818000Y-137287000D02*
X72898000Y-137287000D01*
X74930000Y-137287000D02*
X80010000Y-137287000D01*
X74930000Y-142367000D02*
X74930000Y-137287000D01*
X80010000Y-142367000D02*
X80010000Y-137287000D01*
X74930000Y-142367000D02*
X80010000Y-142367000D01*
X60706000Y-142367000D02*
X65786000Y-142367000D01*
X65786000Y-142367000D02*
X65786000Y-137287000D01*
X60706000Y-142367000D02*
X60706000Y-137287000D01*
X60706000Y-137287000D02*
X65786000Y-137287000D01*
D12*
X56388095Y-105624381D02*
X56388095Y-106433905D01*
X56435714Y-106529143D01*
X56483333Y-106576762D01*
X56578571Y-106624381D01*
X56769048Y-106624381D01*
X56864286Y-106576762D01*
X56911905Y-106529143D01*
X56959524Y-106433905D01*
X56959524Y-105624381D01*
X57959524Y-106624381D02*
X57388095Y-106624381D01*
X57673809Y-106624381D02*
X57673809Y-105624381D01*
X57578571Y-105767238D01*
X57483333Y-105862476D01*
X57388095Y-105910095D01*
X56499619Y-107894381D02*
X56499619Y-106894381D01*
X57071048Y-107894381D01*
X57071048Y-106894381D01*
X57547238Y-107894381D02*
X57547238Y-106894381D01*
X57785333Y-106894381D01*
X57928191Y-106942000D01*
X58023429Y-107037238D01*
X58071048Y-107132476D01*
X58118667Y-107322952D01*
X58118667Y-107465810D01*
X58071048Y-107656286D01*
X58023429Y-107751524D01*
X57928191Y-107846762D01*
X57785333Y-107894381D01*
X57547238Y-107894381D01*
X58499619Y-107846762D02*
X58642476Y-107894381D01*
X58880572Y-107894381D01*
X58975810Y-107846762D01*
X59023429Y-107799143D01*
X59071048Y-107703905D01*
X59071048Y-107608667D01*
X59023429Y-107513429D01*
X58975810Y-107465810D01*
X58880572Y-107418190D01*
X58690095Y-107370571D01*
X58594857Y-107322952D01*
X58547238Y-107275333D01*
X58499619Y-107180095D01*
X58499619Y-107084857D01*
X58547238Y-106989619D01*
X58594857Y-106942000D01*
X58690095Y-106894381D01*
X58928191Y-106894381D01*
X59071048Y-106942000D01*
X59975810Y-107894381D02*
X59499619Y-107894381D01*
X59499619Y-106894381D01*
X60071048Y-107989619D02*
X60832953Y-107989619D01*
X61071048Y-107894381D02*
X61071048Y-106894381D01*
X61309143Y-106894381D01*
X61452001Y-106942000D01*
X61547239Y-107037238D01*
X61594858Y-107132476D01*
X61642477Y-107322952D01*
X61642477Y-107465810D01*
X61594858Y-107656286D01*
X61547239Y-107751524D01*
X61452001Y-107846762D01*
X61309143Y-107894381D01*
X61071048Y-107894381D01*
X62071048Y-107894381D02*
X62071048Y-106894381D01*
X62452001Y-106894381D01*
X62547239Y-106942000D01*
X62594858Y-106989619D01*
X62642477Y-107084857D01*
X62642477Y-107227714D01*
X62594858Y-107322952D01*
X62547239Y-107370571D01*
X62452001Y-107418190D01*
X62071048Y-107418190D01*
X63499620Y-107894381D02*
X63499620Y-107370571D01*
X63452001Y-107275333D01*
X63356763Y-107227714D01*
X63166286Y-107227714D01*
X63071048Y-107275333D01*
X63499620Y-107846762D02*
X63404382Y-107894381D01*
X63166286Y-107894381D01*
X63071048Y-107846762D01*
X63023429Y-107751524D01*
X63023429Y-107656286D01*
X63071048Y-107561048D01*
X63166286Y-107513429D01*
X63404382Y-107513429D01*
X63499620Y-107465810D01*
X64404382Y-107894381D02*
X64404382Y-106894381D01*
X64404382Y-107846762D02*
X64309144Y-107894381D01*
X64118667Y-107894381D01*
X64023429Y-107846762D01*
X63975810Y-107799143D01*
X63928191Y-107703905D01*
X63928191Y-107418190D01*
X63975810Y-107322952D01*
X64023429Y-107275333D01*
X64118667Y-107227714D01*
X64309144Y-107227714D01*
X64404382Y-107275333D01*
X98552095Y-115784381D02*
X98552095Y-116593905D01*
X98599714Y-116689143D01*
X98647333Y-116736762D01*
X98742571Y-116784381D01*
X98933048Y-116784381D01*
X99028286Y-116736762D01*
X99075905Y-116689143D01*
X99123524Y-116593905D01*
X99123524Y-115784381D01*
X99552095Y-115879619D02*
X99599714Y-115832000D01*
X99694952Y-115784381D01*
X99933048Y-115784381D01*
X100028286Y-115832000D01*
X100075905Y-115879619D01*
X100123524Y-115974857D01*
X100123524Y-116070095D01*
X100075905Y-116212952D01*
X99504476Y-116784381D01*
X100123524Y-116784381D01*
X83106000Y-116784381D02*
X83106000Y-115784381D01*
X83677429Y-116784381D01*
X83677429Y-115784381D01*
X84153619Y-116784381D02*
X84153619Y-115784381D01*
X84391714Y-115784381D01*
X84534572Y-115832000D01*
X84629810Y-115927238D01*
X84677429Y-116022476D01*
X84725048Y-116212952D01*
X84725048Y-116355810D01*
X84677429Y-116546286D01*
X84629810Y-116641524D01*
X84534572Y-116736762D01*
X84391714Y-116784381D01*
X84153619Y-116784381D01*
X85106000Y-116736762D02*
X85248857Y-116784381D01*
X85486953Y-116784381D01*
X85582191Y-116736762D01*
X85629810Y-116689143D01*
X85677429Y-116593905D01*
X85677429Y-116498667D01*
X85629810Y-116403429D01*
X85582191Y-116355810D01*
X85486953Y-116308190D01*
X85296476Y-116260571D01*
X85201238Y-116212952D01*
X85153619Y-116165333D01*
X85106000Y-116070095D01*
X85106000Y-115974857D01*
X85153619Y-115879619D01*
X85201238Y-115832000D01*
X85296476Y-115784381D01*
X85534572Y-115784381D01*
X85677429Y-115832000D01*
X86582191Y-116784381D02*
X86106000Y-116784381D01*
X86106000Y-115784381D01*
X86677429Y-116879619D02*
X87439334Y-116879619D01*
X87629810Y-116736762D02*
X87772667Y-116784381D01*
X88010763Y-116784381D01*
X88106001Y-116736762D01*
X88153620Y-116689143D01*
X88201239Y-116593905D01*
X88201239Y-116498667D01*
X88153620Y-116403429D01*
X88106001Y-116355810D01*
X88010763Y-116308190D01*
X87820286Y-116260571D01*
X87725048Y-116212952D01*
X87677429Y-116165333D01*
X87629810Y-116070095D01*
X87629810Y-115974857D01*
X87677429Y-115879619D01*
X87725048Y-115832000D01*
X87820286Y-115784381D01*
X88058382Y-115784381D01*
X88201239Y-115832000D01*
X88582191Y-116736762D02*
X88725048Y-116784381D01*
X88963144Y-116784381D01*
X89058382Y-116736762D01*
X89106001Y-116689143D01*
X89153620Y-116593905D01*
X89153620Y-116498667D01*
X89106001Y-116403429D01*
X89058382Y-116355810D01*
X88963144Y-116308190D01*
X88772667Y-116260571D01*
X88677429Y-116212952D01*
X88629810Y-116165333D01*
X88582191Y-116070095D01*
X88582191Y-115974857D01*
X88629810Y-115879619D01*
X88677429Y-115832000D01*
X88772667Y-115784381D01*
X89010763Y-115784381D01*
X89153620Y-115832000D01*
X110767905Y-119832381D02*
X110767905Y-118832381D01*
X111148858Y-118832381D01*
X111244096Y-118880000D01*
X111291715Y-118927619D01*
X111339334Y-119022857D01*
X111339334Y-119165714D01*
X111291715Y-119260952D01*
X111244096Y-119308571D01*
X111148858Y-119356190D01*
X110767905Y-119356190D01*
X111672667Y-118832381D02*
X112291715Y-118832381D01*
X111958381Y-119213333D01*
X112101239Y-119213333D01*
X112196477Y-119260952D01*
X112244096Y-119308571D01*
X112291715Y-119403810D01*
X112291715Y-119641905D01*
X112244096Y-119737143D01*
X112196477Y-119784762D01*
X112101239Y-119832381D01*
X111815524Y-119832381D01*
X111720286Y-119784762D01*
X111672667Y-119737143D01*
X120419905Y-112068381D02*
X120419905Y-111068381D01*
X120800858Y-111068381D01*
X120896096Y-111116000D01*
X120943715Y-111163619D01*
X120991334Y-111258857D01*
X120991334Y-111401714D01*
X120943715Y-111496952D01*
X120896096Y-111544571D01*
X120800858Y-111592190D01*
X120419905Y-111592190D01*
X121562762Y-111496952D02*
X121467524Y-111449333D01*
X121419905Y-111401714D01*
X121372286Y-111306476D01*
X121372286Y-111258857D01*
X121419905Y-111163619D01*
X121467524Y-111116000D01*
X121562762Y-111068381D01*
X121753239Y-111068381D01*
X121848477Y-111116000D01*
X121896096Y-111163619D01*
X121943715Y-111258857D01*
X121943715Y-111306476D01*
X121896096Y-111401714D01*
X121848477Y-111449333D01*
X121753239Y-111496952D01*
X121562762Y-111496952D01*
X121467524Y-111544571D01*
X121419905Y-111592190D01*
X121372286Y-111687429D01*
X121372286Y-111877905D01*
X121419905Y-111973143D01*
X121467524Y-112020762D01*
X121562762Y-112068381D01*
X121753239Y-112068381D01*
X121848477Y-112020762D01*
X121896096Y-111973143D01*
X121943715Y-111877905D01*
X121943715Y-111687429D01*
X121896096Y-111592190D01*
X121848477Y-111544571D01*
X121753239Y-111496952D01*
X117355881Y-122531095D02*
X116355881Y-122531095D01*
X116355881Y-122150142D01*
X116403500Y-122054904D01*
X116451119Y-122007285D01*
X116546357Y-121959666D01*
X116689214Y-121959666D01*
X116784452Y-122007285D01*
X116832071Y-122054904D01*
X116879690Y-122150142D01*
X116879690Y-122531095D01*
X116355881Y-121626333D02*
X116355881Y-120959666D01*
X117355881Y-121388238D01*
X118657643Y-124800809D02*
X118705262Y-124848428D01*
X118752881Y-124991285D01*
X118752881Y-125086523D01*
X118705262Y-125229381D01*
X118610024Y-125324619D01*
X118514786Y-125372238D01*
X118324310Y-125419857D01*
X118181452Y-125419857D01*
X117990976Y-125372238D01*
X117895738Y-125324619D01*
X117800500Y-125229381D01*
X117752881Y-125086523D01*
X117752881Y-124991285D01*
X117800500Y-124848428D01*
X117848119Y-124800809D01*
X117752881Y-124181762D02*
X117752881Y-123991285D01*
X117800500Y-123896047D01*
X117895738Y-123800809D01*
X118086214Y-123753190D01*
X118419548Y-123753190D01*
X118610024Y-123800809D01*
X118705262Y-123896047D01*
X118752881Y-123991285D01*
X118752881Y-124181762D01*
X118705262Y-124277000D01*
X118610024Y-124372238D01*
X118419548Y-124419857D01*
X118086214Y-124419857D01*
X117895738Y-124372238D01*
X117800500Y-124277000D01*
X117752881Y-124181762D01*
X118752881Y-123324619D02*
X117752881Y-123324619D01*
X118752881Y-122753190D01*
X117752881Y-122753190D01*
X118752881Y-122277000D02*
X117752881Y-122277000D01*
X118752881Y-121705571D01*
X117752881Y-121705571D01*
X118848119Y-121467476D02*
X118848119Y-120705571D01*
X117752881Y-120277000D02*
X117752881Y-120181761D01*
X117800500Y-120086523D01*
X117848119Y-120038904D01*
X117943357Y-119991285D01*
X118133833Y-119943666D01*
X118371929Y-119943666D01*
X118562405Y-119991285D01*
X118657643Y-120038904D01*
X118705262Y-120086523D01*
X118752881Y-120181761D01*
X118752881Y-120277000D01*
X118705262Y-120372238D01*
X118657643Y-120419857D01*
X118562405Y-120467476D01*
X118371929Y-120515095D01*
X118133833Y-120515095D01*
X117943357Y-120467476D01*
X117848119Y-120419857D01*
X117800500Y-120372238D01*
X117752881Y-120277000D01*
X118752881Y-118991285D02*
X118752881Y-119562714D01*
X118752881Y-119277000D02*
X117752881Y-119277000D01*
X117895738Y-119372238D01*
X117990976Y-119467476D01*
X118038595Y-119562714D01*
X117752881Y-118657952D02*
X118752881Y-117991285D01*
X117752881Y-117991285D02*
X118752881Y-118657952D01*
X117848119Y-117657952D02*
X117800500Y-117610333D01*
X117752881Y-117515095D01*
X117752881Y-117276999D01*
X117800500Y-117181761D01*
X117848119Y-117134142D01*
X117943357Y-117086523D01*
X118038595Y-117086523D01*
X118181452Y-117134142D01*
X118752881Y-117705571D01*
X118752881Y-117086523D01*
X118181452Y-116515095D02*
X118133833Y-116610333D01*
X118086214Y-116657952D01*
X117990976Y-116705571D01*
X117943357Y-116705571D01*
X117848119Y-116657952D01*
X117800500Y-116610333D01*
X117752881Y-116515095D01*
X117752881Y-116324618D01*
X117800500Y-116229380D01*
X117848119Y-116181761D01*
X117943357Y-116134142D01*
X117990976Y-116134142D01*
X118086214Y-116181761D01*
X118133833Y-116229380D01*
X118181452Y-116324618D01*
X118181452Y-116515095D01*
X118229071Y-116610333D01*
X118276690Y-116657952D01*
X118371929Y-116705571D01*
X118562405Y-116705571D01*
X118657643Y-116657952D01*
X118705262Y-116610333D01*
X118752881Y-116515095D01*
X118752881Y-116324618D01*
X118705262Y-116229380D01*
X118657643Y-116181761D01*
X118562405Y-116134142D01*
X118371929Y-116134142D01*
X118276690Y-116181761D01*
X118229071Y-116229380D01*
X118181452Y-116324618D01*
X56388095Y-132548381D02*
X56388095Y-133357905D01*
X56435714Y-133453143D01*
X56483333Y-133500762D01*
X56578571Y-133548381D01*
X56769048Y-133548381D01*
X56864286Y-133500762D01*
X56911905Y-133453143D01*
X56959524Y-133357905D01*
X56959524Y-132548381D01*
X57340476Y-132548381D02*
X57959524Y-132548381D01*
X57626190Y-132929333D01*
X57769048Y-132929333D01*
X57864286Y-132976952D01*
X57911905Y-133024571D01*
X57959524Y-133119810D01*
X57959524Y-133357905D01*
X57911905Y-133453143D01*
X57864286Y-133500762D01*
X57769048Y-133548381D01*
X57483333Y-133548381D01*
X57388095Y-133500762D01*
X57340476Y-133453143D01*
X58738190Y-133548381D02*
X58738190Y-132548381D01*
X59309619Y-133548381D01*
X59309619Y-132548381D01*
X59833428Y-133548381D02*
X60023904Y-133548381D01*
X60119143Y-133500762D01*
X60166762Y-133453143D01*
X60262000Y-133310286D01*
X60309619Y-133119810D01*
X60309619Y-132738857D01*
X60262000Y-132643619D01*
X60214381Y-132596000D01*
X60119143Y-132548381D01*
X59928666Y-132548381D01*
X59833428Y-132596000D01*
X59785809Y-132643619D01*
X59738190Y-132738857D01*
X59738190Y-132976952D01*
X59785809Y-133072190D01*
X59833428Y-133119810D01*
X59928666Y-133167429D01*
X60119143Y-133167429D01*
X60214381Y-133119810D01*
X60262000Y-133072190D01*
X60309619Y-132976952D01*
X60928666Y-132548381D02*
X61023905Y-132548381D01*
X61119143Y-132596000D01*
X61166762Y-132643619D01*
X61214381Y-132738857D01*
X61262000Y-132929333D01*
X61262000Y-133167429D01*
X61214381Y-133357905D01*
X61166762Y-133453143D01*
X61119143Y-133500762D01*
X61023905Y-133548381D01*
X60928666Y-133548381D01*
X60833428Y-133500762D01*
X60785809Y-133453143D01*
X60738190Y-133357905D01*
X60690571Y-133167429D01*
X60690571Y-132929333D01*
X60738190Y-132738857D01*
X60785809Y-132643619D01*
X60833428Y-132596000D01*
X60928666Y-132548381D01*
X61881047Y-132548381D02*
X61976286Y-132548381D01*
X62071524Y-132596000D01*
X62119143Y-132643619D01*
X62166762Y-132738857D01*
X62214381Y-132929333D01*
X62214381Y-133167429D01*
X62166762Y-133357905D01*
X62119143Y-133453143D01*
X62071524Y-133500762D01*
X61976286Y-133548381D01*
X61881047Y-133548381D01*
X61785809Y-133500762D01*
X61738190Y-133453143D01*
X61690571Y-133357905D01*
X61642952Y-133167429D01*
X61642952Y-132929333D01*
X61690571Y-132738857D01*
X61738190Y-132643619D01*
X61785809Y-132596000D01*
X61881047Y-132548381D01*
X62404857Y-133643619D02*
X63166762Y-133643619D01*
X63404857Y-133548381D02*
X63404857Y-132548381D01*
X63976286Y-133548381D02*
X63547714Y-132976952D01*
X63976286Y-132548381D02*
X63404857Y-133119810D01*
X64785810Y-133500762D02*
X64690572Y-133548381D01*
X64500095Y-133548381D01*
X64404857Y-133500762D01*
X64357238Y-133405524D01*
X64357238Y-133024571D01*
X64404857Y-132929333D01*
X64500095Y-132881714D01*
X64690572Y-132881714D01*
X64785810Y-132929333D01*
X64833429Y-133024571D01*
X64833429Y-133119810D01*
X64357238Y-133215048D01*
X65166762Y-132881714D02*
X65404857Y-133548381D01*
X65642953Y-132881714D02*
X65404857Y-133548381D01*
X65309619Y-133786476D01*
X65262000Y-133834095D01*
X65166762Y-133881714D01*
X66023905Y-133548381D02*
X66023905Y-132548381D01*
X66023905Y-132929333D02*
X66119143Y-132881714D01*
X66309620Y-132881714D01*
X66404858Y-132929333D01*
X66452477Y-132976952D01*
X66500096Y-133072190D01*
X66500096Y-133357905D01*
X66452477Y-133453143D01*
X66404858Y-133500762D01*
X66309620Y-133548381D01*
X66119143Y-133548381D01*
X66023905Y-133500762D01*
X67071524Y-133548381D02*
X66976286Y-133500762D01*
X66928667Y-133453143D01*
X66881048Y-133357905D01*
X66881048Y-133072190D01*
X66928667Y-132976952D01*
X66976286Y-132929333D01*
X67071524Y-132881714D01*
X67214382Y-132881714D01*
X67309620Y-132929333D01*
X67357239Y-132976952D01*
X67404858Y-133072190D01*
X67404858Y-133357905D01*
X67357239Y-133453143D01*
X67309620Y-133500762D01*
X67214382Y-133548381D01*
X67071524Y-133548381D01*
X68262001Y-133548381D02*
X68262001Y-133024571D01*
X68214382Y-132929333D01*
X68119144Y-132881714D01*
X67928667Y-132881714D01*
X67833429Y-132929333D01*
X68262001Y-133500762D02*
X68166763Y-133548381D01*
X67928667Y-133548381D01*
X67833429Y-133500762D01*
X67785810Y-133405524D01*
X67785810Y-133310286D01*
X67833429Y-133215048D01*
X67928667Y-133167429D01*
X68166763Y-133167429D01*
X68262001Y-133119810D01*
X68738191Y-133548381D02*
X68738191Y-132881714D01*
X68738191Y-133072190D02*
X68785810Y-132976952D01*
X68833429Y-132929333D01*
X68928667Y-132881714D01*
X69023906Y-132881714D01*
X69785811Y-133548381D02*
X69785811Y-132548381D01*
X69785811Y-133500762D02*
X69690573Y-133548381D01*
X69500096Y-133548381D01*
X69404858Y-133500762D01*
X69357239Y-133453143D01*
X69309620Y-133357905D01*
X69309620Y-133072190D01*
X69357239Y-132976952D01*
X69404858Y-132929333D01*
X69500096Y-132881714D01*
X69690573Y-132881714D01*
X69785811Y-132929333D01*
M02*
