G04 #@! TF.FileFunction,Profile,NP*
%FSLAX46Y46*%
G04 Gerber Fmt 4.6, Leading zero omitted, Abs format (unit mm)*
G04 Created by KiCad (PCBNEW 4.0.5+dfsg1-4) date Tue Aug 14 17:39:56 2018*
%MOMM*%
%LPD*%
G01*
G04 APERTURE LIST*
%ADD10C,0.100000*%
%ADD11C,0.150000*%
G04 APERTURE END LIST*
D10*
D11*
X138938000Y-120650000D02*
X147320000Y-120650000D01*
X138938000Y-116332000D02*
X147320000Y-116332000D01*
X147320000Y-116332000D02*
X147320000Y-120650000D01*
X138938000Y-116332000D02*
X138938000Y-120650000D01*
X138430000Y-106934000D02*
X138430000Y-131572000D01*
X137922000Y-131572000D02*
X137922000Y-106934000D01*
X138430000Y-131572000D02*
X137922000Y-131572000D01*
X137922000Y-106934000D02*
X138430000Y-106934000D01*
X113538000Y-132080000D02*
X113538000Y-106426000D01*
X155194000Y-132080000D02*
X113538000Y-132080000D01*
X155194000Y-120904000D02*
X155194000Y-132080000D01*
X147828000Y-120904000D02*
X155194000Y-120904000D01*
X147828000Y-106426000D02*
X147828000Y-120904000D01*
X113538000Y-106426000D02*
X147828000Y-106426000D01*
X147828000Y-106426000D02*
X147828000Y-116332000D01*
X147351269Y-107950000D02*
G75*
G03X147351269Y-107950000I-1047269J0D01*
G01*
X147351269Y-114808000D02*
G75*
G03X147351269Y-114808000I-1047269J0D01*
G01*
X155194000Y-120904000D02*
X155194000Y-132080000D01*
X155194000Y-132080000D02*
X138430000Y-132080000D01*
X141001269Y-114808000D02*
G75*
G03X141001269Y-114808000I-1047269J0D01*
G01*
X141001269Y-107950000D02*
G75*
G03X141001269Y-107950000I-1047269J0D01*
G01*
X141255269Y-122428000D02*
G75*
G03X141255269Y-122428000I-1047269J0D01*
G01*
X154463269Y-122428000D02*
G75*
G03X154463269Y-122428000I-1047269J0D01*
G01*
X154717269Y-130556000D02*
G75*
G03X154717269Y-130556000I-1047269J0D01*
G01*
X141255269Y-130556000D02*
G75*
G03X141255269Y-130556000I-1047269J0D01*
G01*
X137445269Y-130556000D02*
G75*
G03X137445269Y-130556000I-1047269J0D01*
G01*
X116109269Y-130556000D02*
G75*
G03X116109269Y-130556000I-1047269J0D01*
G01*
X137445269Y-107950000D02*
G75*
G03X137445269Y-107950000I-1047269J0D01*
G01*
X116109269Y-107950000D02*
G75*
G03X116109269Y-107950000I-1047269J0D01*
G01*
X113538000Y-132080000D02*
X113538000Y-106426000D01*
M02*
