G04 #@! TF.FileFunction,Other,Fab,Top*
%FSLAX46Y46*%
G04 Gerber Fmt 4.6, Leading zero omitted, Abs format (unit mm)*
G04 Created by KiCad (PCBNEW 4.0.5+dfsg1-4) date Fri Oct 12 17:02:05 2018*
%MOMM*%
%LPD*%
G01*
G04 APERTURE LIST*
%ADD10C,0.100000*%
%ADD11C,0.150000*%
G04 APERTURE END LIST*
D10*
D11*
X103164191Y-119737143D02*
X103116572Y-119784762D01*
X102973715Y-119832381D01*
X102878477Y-119832381D01*
X102735619Y-119784762D01*
X102640381Y-119689524D01*
X102592762Y-119594286D01*
X102545143Y-119403810D01*
X102545143Y-119260952D01*
X102592762Y-119070476D01*
X102640381Y-118975238D01*
X102735619Y-118880000D01*
X102878477Y-118832381D01*
X102973715Y-118832381D01*
X103116572Y-118880000D01*
X103164191Y-118927619D01*
X103783238Y-118832381D02*
X103973715Y-118832381D01*
X104068953Y-118880000D01*
X104164191Y-118975238D01*
X104211810Y-119165714D01*
X104211810Y-119499048D01*
X104164191Y-119689524D01*
X104068953Y-119784762D01*
X103973715Y-119832381D01*
X103783238Y-119832381D01*
X103688000Y-119784762D01*
X103592762Y-119689524D01*
X103545143Y-119499048D01*
X103545143Y-119165714D01*
X103592762Y-118975238D01*
X103688000Y-118880000D01*
X103783238Y-118832381D01*
X104640381Y-119832381D02*
X104640381Y-118832381D01*
X105211810Y-119832381D01*
X105211810Y-118832381D01*
X105688000Y-119832381D02*
X105688000Y-118832381D01*
X106259429Y-119832381D01*
X106259429Y-118832381D01*
X106497524Y-119927619D02*
X107259429Y-119927619D01*
X107688000Y-118832381D02*
X107783239Y-118832381D01*
X107878477Y-118880000D01*
X107926096Y-118927619D01*
X107973715Y-119022857D01*
X108021334Y-119213333D01*
X108021334Y-119451429D01*
X107973715Y-119641905D01*
X107926096Y-119737143D01*
X107878477Y-119784762D01*
X107783239Y-119832381D01*
X107688000Y-119832381D01*
X107592762Y-119784762D01*
X107545143Y-119737143D01*
X107497524Y-119641905D01*
X107449905Y-119451429D01*
X107449905Y-119213333D01*
X107497524Y-119022857D01*
X107545143Y-118927619D01*
X107592762Y-118880000D01*
X107688000Y-118832381D01*
X108973715Y-119832381D02*
X108402286Y-119832381D01*
X108688000Y-119832381D02*
X108688000Y-118832381D01*
X108592762Y-118975238D01*
X108497524Y-119070476D01*
X108402286Y-119118095D01*
X109307048Y-118832381D02*
X109973715Y-119832381D01*
X109973715Y-118832381D02*
X109307048Y-119832381D01*
X110545143Y-118832381D02*
X110640382Y-118832381D01*
X110735620Y-118880000D01*
X110783239Y-118927619D01*
X110830858Y-119022857D01*
X110878477Y-119213333D01*
X110878477Y-119451429D01*
X110830858Y-119641905D01*
X110783239Y-119737143D01*
X110735620Y-119784762D01*
X110640382Y-119832381D01*
X110545143Y-119832381D01*
X110449905Y-119784762D01*
X110402286Y-119737143D01*
X110354667Y-119641905D01*
X110307048Y-119451429D01*
X110307048Y-119213333D01*
X110354667Y-119022857D01*
X110402286Y-118927619D01*
X110449905Y-118880000D01*
X110545143Y-118832381D01*
X111259429Y-118927619D02*
X111307048Y-118880000D01*
X111402286Y-118832381D01*
X111640382Y-118832381D01*
X111735620Y-118880000D01*
X111783239Y-118927619D01*
X111830858Y-119022857D01*
X111830858Y-119118095D01*
X111783239Y-119260952D01*
X111211810Y-119832381D01*
X111830858Y-119832381D01*
M02*
