M48
;DRILL file {KiCad 4.0.5+dfsg1-4} date Thu Oct 18 19:18:13 2018
;FORMAT={-:-/ absolute / inch / decimal}
FMAT,2
INCH,TZ
T1C0.012
%
G90
G05
M72
T1
X2.49Y-5.4393
X2.49Y-5.44
X2.49Y-5.6743
X2.49Y-5.68
X2.49Y-5.9143
X2.56Y-4.73
X2.63Y-4.73
X2.7Y-4.73
X2.77Y-4.73
X2.77Y-5.4393
X2.77Y-5.44
X2.77Y-5.6743
X2.77Y-5.68
X2.77Y-5.9143
X2.84Y-4.73
X3.05Y-5.4393
X3.05Y-5.44
X3.05Y-5.6743
X3.05Y-5.68
X3.05Y-5.9143
X3.33Y-5.4393
X3.33Y-5.44
X3.33Y-5.6743
X3.33Y-5.68
X3.33Y-5.9143
X3.5Y-4.96
X3.6Y-4.84
X3.61Y-5.4393
X3.61Y-5.44
X3.61Y-5.6743
X3.61Y-5.68
X3.61Y-5.9143
X3.7Y-4.96
X3.89Y-5.4393
X3.89Y-5.44
X3.89Y-5.6743
X3.89Y-5.68
X3.89Y-5.9143
X4.12Y-4.89
X4.17Y-5.4393
X4.17Y-5.44
X4.17Y-5.6743
X4.17Y-5.68
X4.17Y-5.9143
X4.35Y-5.02
X4.45Y-5.4393
X4.45Y-5.44
X4.45Y-5.6743
X4.45Y-5.68
X4.45Y-5.9143
X4.585Y-4.465
X4.585Y-4.515
X4.585Y-4.565
X4.585Y-4.615
X4.585Y-4.665
X4.585Y-4.715
X4.585Y-4.765
X4.585Y-4.815
X4.585Y-4.865
X4.585Y-4.915
X4.585Y-4.965
X4.585Y-5.015
X4.585Y-5.065
X4.585Y-5.115
X4.73Y-5.4393
X4.73Y-5.44
X4.73Y-5.6743
X4.73Y-5.68
X4.73Y-5.9143
X4.955Y-4.465
X4.955Y-4.515
X4.955Y-4.565
X4.955Y-4.615
X4.955Y-4.665
X4.955Y-4.715
X4.955Y-4.765
X4.955Y-4.815
X4.955Y-4.865
X4.955Y-4.915
X4.955Y-4.965
X4.955Y-5.015
X4.955Y-5.065
X4.955Y-5.115
X5.01Y-5.4393
X5.01Y-5.44
X5.01Y-5.6743
X5.01Y-5.68
X5.01Y-5.9143
X5.29Y-5.4393
X5.29Y-5.44
X5.29Y-5.6743
X5.29Y-5.68
X5.29Y-5.9143
X5.57Y-5.4393
X5.57Y-5.44
X5.57Y-5.6743
X5.57Y-5.68
X5.57Y-5.9143
X5.85Y-5.4393
X5.85Y-5.44
X5.85Y-5.6743
X5.85Y-5.68
X5.85Y-5.9143
X5.938Y-5.569
X5.938Y-5.804
X5.938Y-6.044
T0
M30
