G04 (created by PCBNEW (22-Jun-2014 BZR 4027)-stable) date Thu 03 May 2018 06:01:57 PM CST*
%MOIN*%
G04 Gerber Fmt 3.4, Leading zero omitted, Abs format*
%FSLAX34Y34*%
G01*
G70*
G90*
G04 APERTURE LIST*
%ADD10C,0.00393701*%
%ADD11C,0.00472441*%
%ADD12C,0.0019685*%
%ADD13C,0.00590551*%
%ADD14C,0.012*%
%ADD15C,0.0059*%
%ADD16C,0.005*%
%ADD17C,0.00492126*%
G04 APERTURE END LIST*
G54D10*
G54D11*
X126872Y-99502D02*
X126376Y-99502D01*
X124187Y-99502D02*
X124683Y-99502D01*
G54D12*
X124112Y-98521D02*
X124112Y-101986D01*
X126947Y-98521D02*
X124112Y-98521D01*
X126947Y-101986D02*
X126947Y-98521D01*
X124112Y-101986D02*
X126947Y-101986D01*
G54D13*
X124211Y-100982D02*
X126848Y-100982D01*
G54D11*
X126872Y-100982D02*
X126872Y-99502D01*
G54D13*
X124211Y-100982D02*
X124211Y-99525D01*
G54D11*
X124187Y-101868D02*
X124187Y-99502D01*
G54D13*
X126848Y-100982D02*
X126848Y-99525D01*
X124211Y-99525D02*
X126848Y-99525D01*
G54D12*
X156068Y-99769D02*
X154611Y-99769D01*
X156068Y-99178D02*
X154611Y-99178D01*
X156068Y-99769D02*
X156068Y-99178D01*
X154611Y-99769D02*
X154611Y-99178D01*
G54D13*
X155477Y-99710D02*
X155202Y-99710D01*
X155202Y-99237D02*
X155477Y-99237D01*
G54D12*
X142027Y-96510D02*
X142027Y-94777D01*
X139192Y-96510D02*
X142027Y-96510D01*
X139192Y-94777D02*
X139192Y-96510D01*
X142027Y-94777D02*
X139192Y-94777D01*
G54D13*
X141633Y-96313D02*
X139940Y-96313D01*
X139566Y-94974D02*
X141633Y-94974D01*
G54D12*
X142088Y-94739D02*
X140631Y-94739D01*
X142088Y-94148D02*
X140631Y-94148D01*
X142088Y-94739D02*
X142088Y-94148D01*
X140631Y-94739D02*
X140631Y-94148D01*
G54D13*
X141497Y-94680D02*
X141222Y-94680D01*
X141222Y-94207D02*
X141497Y-94207D01*
G54D12*
X139131Y-94148D02*
X140588Y-94148D01*
X139131Y-94739D02*
X140588Y-94739D01*
X139131Y-94148D02*
X139131Y-94739D01*
X140588Y-94148D02*
X140588Y-94739D01*
G54D13*
X139722Y-94207D02*
X139997Y-94207D01*
X139997Y-94680D02*
X139722Y-94680D01*
G54D12*
X154455Y-99885D02*
X154455Y-101342D01*
X153864Y-99885D02*
X153864Y-101342D01*
X154455Y-99885D02*
X153864Y-99885D01*
X154455Y-101342D02*
X153864Y-101342D01*
G54D13*
X154396Y-100476D02*
X154396Y-100751D01*
X153923Y-100751D02*
X153923Y-100476D01*
G54D12*
X137864Y-100972D02*
X137864Y-99515D01*
X138455Y-100972D02*
X138455Y-99515D01*
X137864Y-100972D02*
X138455Y-100972D01*
X137864Y-99515D02*
X138455Y-99515D01*
G54D13*
X137923Y-100381D02*
X137923Y-100106D01*
X138396Y-100106D02*
X138396Y-100381D01*
G54D12*
X139133Y-96540D02*
X140590Y-96540D01*
X139133Y-97131D02*
X140590Y-97131D01*
X139133Y-96540D02*
X139133Y-97131D01*
X140590Y-96540D02*
X140590Y-97131D01*
G54D13*
X139724Y-96599D02*
X139999Y-96599D01*
X139999Y-97072D02*
X139724Y-97072D01*
G54D12*
X142570Y-101909D02*
X141113Y-101909D01*
X142570Y-101318D02*
X141113Y-101318D01*
X142570Y-101909D02*
X142570Y-101318D01*
X141113Y-101909D02*
X141113Y-101318D01*
G54D13*
X141979Y-101850D02*
X141704Y-101850D01*
X141704Y-101377D02*
X141979Y-101377D01*
G54D12*
X143205Y-97817D02*
X143205Y-99274D01*
X142614Y-97817D02*
X142614Y-99274D01*
X143205Y-97817D02*
X142614Y-97817D01*
X143205Y-99274D02*
X142614Y-99274D01*
G54D13*
X143146Y-98408D02*
X143146Y-98683D01*
X142673Y-98683D02*
X142673Y-98408D01*
X154510Y-99804D02*
X157410Y-99804D01*
X157410Y-99804D02*
X157410Y-101904D01*
X157410Y-101904D02*
X154510Y-101904D01*
X154510Y-101904D02*
X154510Y-99804D01*
X124110Y-92664D02*
X127010Y-92664D01*
X127010Y-92664D02*
X127010Y-94764D01*
X127010Y-94764D02*
X124110Y-94764D01*
X124110Y-94764D02*
X124110Y-92664D01*
X154510Y-92664D02*
X157410Y-92664D01*
X157410Y-92664D02*
X157410Y-94764D01*
X157410Y-94764D02*
X154510Y-94764D01*
X154510Y-94764D02*
X154510Y-92664D01*
X136010Y-102244D02*
X138910Y-102244D01*
X138910Y-102244D02*
X138910Y-104344D01*
X138910Y-104344D02*
X136010Y-104344D01*
X136010Y-104344D02*
X136010Y-102244D01*
X142510Y-102244D02*
X145410Y-102244D01*
X145410Y-102244D02*
X145410Y-104344D01*
X145410Y-104344D02*
X142510Y-104344D01*
X142510Y-104344D02*
X142510Y-102244D01*
X154510Y-102244D02*
X157410Y-102244D01*
X157410Y-102244D02*
X157410Y-104344D01*
X157410Y-104344D02*
X154510Y-104344D01*
X154510Y-104344D02*
X154510Y-102244D01*
X151510Y-102244D02*
X154410Y-102244D01*
X154410Y-102244D02*
X154410Y-104344D01*
X154410Y-104344D02*
X151510Y-104344D01*
X151510Y-104344D02*
X151510Y-102244D01*
X124110Y-102244D02*
X127010Y-102244D01*
X127010Y-102244D02*
X127010Y-104344D01*
X127010Y-104344D02*
X124110Y-104344D01*
X124110Y-104344D02*
X124110Y-102244D01*
X127110Y-102244D02*
X130010Y-102244D01*
X130010Y-102244D02*
X130010Y-104344D01*
X130010Y-104344D02*
X127110Y-104344D01*
X127110Y-104344D02*
X127110Y-102244D01*
X139060Y-103244D02*
X142360Y-103244D01*
X142360Y-103244D02*
X142360Y-104344D01*
X142360Y-104344D02*
X139060Y-104344D01*
X139060Y-104344D02*
X139060Y-103244D01*
G54D14*
X142680Y-93934D02*
X142680Y-93934D01*
X142680Y-92934D02*
X142680Y-93934D01*
X142680Y-93934D02*
X142680Y-93934D01*
X142680Y-93934D02*
X138680Y-93934D01*
X138680Y-93934D02*
X138680Y-92934D01*
X138680Y-92934D02*
X142680Y-92934D01*
X141680Y-92934D02*
X141680Y-93934D01*
G54D13*
X141662Y-97984D02*
X141701Y-97984D01*
X141701Y-97984D02*
X141819Y-98102D01*
X141819Y-98102D02*
X141819Y-100385D01*
X141819Y-100385D02*
X141701Y-100503D01*
X141701Y-100503D02*
X139418Y-100503D01*
X139418Y-100503D02*
X139300Y-100385D01*
X139300Y-100385D02*
X139300Y-98102D01*
X139300Y-98102D02*
X139418Y-97984D01*
X139418Y-97984D02*
X141662Y-97984D01*
G54D15*
X142252Y-97630D02*
X142173Y-97551D01*
X142095Y-97551D02*
X142252Y-97708D01*
X142252Y-97787D02*
X142016Y-97551D01*
X141937Y-97551D02*
X142252Y-97866D01*
X141858Y-97551D02*
X142252Y-97551D01*
X142252Y-97551D02*
X142252Y-97945D01*
X142252Y-97945D02*
X141858Y-97551D01*
X138827Y-97945D02*
X138827Y-97551D01*
X138827Y-97551D02*
X139221Y-97551D01*
X139221Y-100936D02*
X138827Y-100936D01*
X138827Y-100936D02*
X138827Y-100542D01*
X142292Y-100542D02*
X142292Y-100936D01*
X142292Y-100936D02*
X141898Y-100936D01*
G54D16*
X141621Y-98294D02*
G75*
G03X141621Y-98294I-111J0D01*
G74*
G01*
G54D12*
X126974Y-101832D02*
X126974Y-100375D01*
X127565Y-101832D02*
X127565Y-100375D01*
X126974Y-101832D02*
X127565Y-101832D01*
X126974Y-100375D02*
X127565Y-100375D01*
G54D13*
X127033Y-101241D02*
X127033Y-100966D01*
X127506Y-100966D02*
X127506Y-101241D01*
G54D17*
X124280Y-99566D02*
X124280Y-99821D01*
X124289Y-99851D01*
X124298Y-99866D01*
X124317Y-99881D01*
X124355Y-99881D01*
X124373Y-99866D01*
X124383Y-99851D01*
X124392Y-99821D01*
X124392Y-99566D01*
X124476Y-99596D02*
X124486Y-99581D01*
X124504Y-99566D01*
X124551Y-99566D01*
X124570Y-99581D01*
X124579Y-99596D01*
X124589Y-99626D01*
X124589Y-99656D01*
X124579Y-99701D01*
X124467Y-99881D01*
X124589Y-99881D01*
X124305Y-100191D02*
X124399Y-100191D01*
X124287Y-100281D02*
X124352Y-99966D01*
X124418Y-100281D01*
X124483Y-100281D02*
X124483Y-99966D01*
X124549Y-100191D01*
X124615Y-99966D01*
X124615Y-100281D01*
X124699Y-100266D02*
X124727Y-100281D01*
X124774Y-100281D01*
X124793Y-100266D01*
X124802Y-100251D01*
X124811Y-100221D01*
X124811Y-100191D01*
X124802Y-100161D01*
X124793Y-100146D01*
X124774Y-100131D01*
X124736Y-100116D01*
X124718Y-100101D01*
X124708Y-100086D01*
X124699Y-100056D01*
X124699Y-100026D01*
X124708Y-99996D01*
X124718Y-99981D01*
X124736Y-99966D01*
X124783Y-99966D01*
X124811Y-99981D01*
X124999Y-100281D02*
X124886Y-100281D01*
X124943Y-100281D02*
X124943Y-99966D01*
X124924Y-100011D01*
X124905Y-100041D01*
X124886Y-100056D01*
X125186Y-100281D02*
X125074Y-100281D01*
X125130Y-100281D02*
X125130Y-99966D01*
X125111Y-100011D01*
X125093Y-100041D01*
X125074Y-100056D01*
X125374Y-100281D02*
X125261Y-100281D01*
X125318Y-100281D02*
X125318Y-99966D01*
X125299Y-100011D01*
X125280Y-100041D01*
X125261Y-100056D01*
X125439Y-99966D02*
X125571Y-99966D01*
X125486Y-100281D01*
X125646Y-100161D02*
X125796Y-100161D01*
X125871Y-99966D02*
X125993Y-99966D01*
X125927Y-100086D01*
X125955Y-100086D01*
X125974Y-100101D01*
X125983Y-100116D01*
X125993Y-100146D01*
X125993Y-100221D01*
X125983Y-100251D01*
X125974Y-100266D01*
X125955Y-100281D01*
X125899Y-100281D01*
X125880Y-100266D01*
X125871Y-100251D01*
X126077Y-100251D02*
X126086Y-100266D01*
X126077Y-100281D01*
X126068Y-100266D01*
X126077Y-100251D01*
X126077Y-100281D01*
X126152Y-99966D02*
X126274Y-99966D01*
X126208Y-100086D01*
X126236Y-100086D01*
X126255Y-100101D01*
X126264Y-100116D01*
X126274Y-100146D01*
X126274Y-100221D01*
X126264Y-100251D01*
X126255Y-100266D01*
X126236Y-100281D01*
X126180Y-100281D01*
X126161Y-100266D01*
X126152Y-100251D01*
X156857Y-99751D02*
X156791Y-99601D01*
X156744Y-99751D02*
X156744Y-99436D01*
X156819Y-99436D01*
X156838Y-99451D01*
X156847Y-99466D01*
X156857Y-99496D01*
X156857Y-99541D01*
X156847Y-99571D01*
X156838Y-99586D01*
X156819Y-99601D01*
X156744Y-99601D01*
X157044Y-99751D02*
X156932Y-99751D01*
X156988Y-99751D02*
X156988Y-99436D01*
X156969Y-99481D01*
X156950Y-99511D01*
X156932Y-99526D01*
X156254Y-99751D02*
X156141Y-99751D01*
X156197Y-99751D02*
X156197Y-99436D01*
X156179Y-99481D01*
X156160Y-99511D01*
X156141Y-99526D01*
X156375Y-99436D02*
X156394Y-99436D01*
X156413Y-99451D01*
X156422Y-99466D01*
X156432Y-99496D01*
X156441Y-99556D01*
X156441Y-99631D01*
X156432Y-99691D01*
X156422Y-99721D01*
X156413Y-99736D01*
X156394Y-99751D01*
X156375Y-99751D01*
X156357Y-99736D01*
X156347Y-99721D01*
X156338Y-99691D01*
X156329Y-99631D01*
X156329Y-99556D01*
X156338Y-99496D01*
X156347Y-99466D01*
X156357Y-99451D01*
X156375Y-99436D01*
X156525Y-99751D02*
X156525Y-99436D01*
X156638Y-99751D02*
X156554Y-99571D01*
X156638Y-99436D02*
X156525Y-99616D01*
X131837Y-95906D02*
X131865Y-95921D01*
X131912Y-95921D01*
X131931Y-95906D01*
X131940Y-95891D01*
X131950Y-95861D01*
X131950Y-95831D01*
X131940Y-95801D01*
X131931Y-95786D01*
X131912Y-95771D01*
X131875Y-95756D01*
X131856Y-95741D01*
X131846Y-95726D01*
X131837Y-95696D01*
X131837Y-95666D01*
X131846Y-95636D01*
X131856Y-95621D01*
X131875Y-95606D01*
X131921Y-95606D01*
X131950Y-95621D01*
X132015Y-95606D02*
X132062Y-95921D01*
X132100Y-95696D01*
X132137Y-95921D01*
X132184Y-95606D01*
X132362Y-95921D02*
X132249Y-95921D01*
X132306Y-95921D02*
X132306Y-95606D01*
X132287Y-95651D01*
X132268Y-95681D01*
X132249Y-95696D01*
X131965Y-96006D02*
X131965Y-96261D01*
X131974Y-96291D01*
X131984Y-96306D01*
X132002Y-96321D01*
X132040Y-96321D01*
X132059Y-96306D01*
X132068Y-96291D01*
X132077Y-96261D01*
X132077Y-96006D01*
X132171Y-96321D02*
X132171Y-96006D01*
X132246Y-96006D01*
X132265Y-96021D01*
X132274Y-96036D01*
X132284Y-96066D01*
X132284Y-96111D01*
X132274Y-96141D01*
X132265Y-96156D01*
X132246Y-96171D01*
X132171Y-96171D01*
X149197Y-95906D02*
X149225Y-95921D01*
X149272Y-95921D01*
X149291Y-95906D01*
X149300Y-95891D01*
X149310Y-95861D01*
X149310Y-95831D01*
X149300Y-95801D01*
X149291Y-95786D01*
X149272Y-95771D01*
X149235Y-95756D01*
X149216Y-95741D01*
X149206Y-95726D01*
X149197Y-95696D01*
X149197Y-95666D01*
X149206Y-95636D01*
X149216Y-95621D01*
X149235Y-95606D01*
X149281Y-95606D01*
X149310Y-95621D01*
X149375Y-95606D02*
X149422Y-95921D01*
X149460Y-95696D01*
X149497Y-95921D01*
X149544Y-95606D01*
X149647Y-95741D02*
X149628Y-95726D01*
X149619Y-95711D01*
X149609Y-95681D01*
X149609Y-95666D01*
X149619Y-95636D01*
X149628Y-95621D01*
X149647Y-95606D01*
X149684Y-95606D01*
X149703Y-95621D01*
X149713Y-95636D01*
X149722Y-95666D01*
X149722Y-95681D01*
X149713Y-95711D01*
X149703Y-95726D01*
X149684Y-95741D01*
X149647Y-95741D01*
X149628Y-95756D01*
X149619Y-95771D01*
X149609Y-95801D01*
X149609Y-95861D01*
X149619Y-95891D01*
X149628Y-95906D01*
X149647Y-95921D01*
X149684Y-95921D01*
X149703Y-95906D01*
X149713Y-95891D01*
X149722Y-95861D01*
X149722Y-95801D01*
X149713Y-95771D01*
X149703Y-95756D01*
X149684Y-95741D01*
X149394Y-96006D02*
X149525Y-96321D01*
X149525Y-96006D02*
X149394Y-96321D01*
X149197Y-99156D02*
X149225Y-99171D01*
X149272Y-99171D01*
X149291Y-99156D01*
X149300Y-99141D01*
X149310Y-99111D01*
X149310Y-99081D01*
X149300Y-99051D01*
X149291Y-99036D01*
X149272Y-99021D01*
X149235Y-99006D01*
X149216Y-98991D01*
X149206Y-98976D01*
X149197Y-98946D01*
X149197Y-98916D01*
X149206Y-98886D01*
X149216Y-98871D01*
X149235Y-98856D01*
X149281Y-98856D01*
X149310Y-98871D01*
X149375Y-98856D02*
X149422Y-99171D01*
X149460Y-98946D01*
X149497Y-99171D01*
X149544Y-98856D01*
X149703Y-98856D02*
X149666Y-98856D01*
X149647Y-98871D01*
X149638Y-98886D01*
X149619Y-98931D01*
X149609Y-98991D01*
X149609Y-99111D01*
X149619Y-99141D01*
X149628Y-99156D01*
X149647Y-99171D01*
X149684Y-99171D01*
X149703Y-99156D01*
X149713Y-99141D01*
X149722Y-99111D01*
X149722Y-99036D01*
X149713Y-99006D01*
X149703Y-98991D01*
X149684Y-98976D01*
X149647Y-98976D01*
X149628Y-98991D01*
X149619Y-99006D01*
X149609Y-99036D01*
X149474Y-99406D02*
X149502Y-99421D01*
X149511Y-99436D01*
X149520Y-99466D01*
X149520Y-99511D01*
X149511Y-99541D01*
X149502Y-99556D01*
X149483Y-99571D01*
X149408Y-99571D01*
X149408Y-99256D01*
X149474Y-99256D01*
X149492Y-99271D01*
X149502Y-99286D01*
X149511Y-99316D01*
X149511Y-99346D01*
X149502Y-99376D01*
X149492Y-99391D01*
X149474Y-99406D01*
X149408Y-99406D01*
X131777Y-99166D02*
X131805Y-99181D01*
X131852Y-99181D01*
X131871Y-99166D01*
X131880Y-99151D01*
X131890Y-99121D01*
X131890Y-99091D01*
X131880Y-99061D01*
X131871Y-99046D01*
X131852Y-99031D01*
X131815Y-99016D01*
X131796Y-99001D01*
X131786Y-98986D01*
X131777Y-98956D01*
X131777Y-98926D01*
X131786Y-98896D01*
X131796Y-98881D01*
X131815Y-98866D01*
X131861Y-98866D01*
X131890Y-98881D01*
X131955Y-98866D02*
X132002Y-99181D01*
X132040Y-98956D01*
X132077Y-99181D01*
X132124Y-98866D01*
X132189Y-98896D02*
X132199Y-98881D01*
X132218Y-98866D01*
X132264Y-98866D01*
X132283Y-98881D01*
X132293Y-98896D01*
X132302Y-98926D01*
X132302Y-98956D01*
X132293Y-99001D01*
X132180Y-99181D01*
X132302Y-99181D01*
X131689Y-99561D02*
X131689Y-99246D01*
X131736Y-99246D01*
X131764Y-99261D01*
X131783Y-99291D01*
X131792Y-99321D01*
X131802Y-99381D01*
X131802Y-99426D01*
X131792Y-99486D01*
X131783Y-99516D01*
X131764Y-99546D01*
X131736Y-99561D01*
X131689Y-99561D01*
X131924Y-99246D02*
X131961Y-99246D01*
X131980Y-99261D01*
X131999Y-99291D01*
X132008Y-99351D01*
X132008Y-99456D01*
X131999Y-99516D01*
X131980Y-99546D01*
X131961Y-99561D01*
X131924Y-99561D01*
X131905Y-99546D01*
X131886Y-99516D01*
X131877Y-99456D01*
X131877Y-99351D01*
X131886Y-99291D01*
X131905Y-99261D01*
X131924Y-99246D01*
X132074Y-99246D02*
X132120Y-99561D01*
X132158Y-99336D01*
X132195Y-99561D01*
X132242Y-99246D01*
X132317Y-99561D02*
X132317Y-99246D01*
X132430Y-99561D01*
X132430Y-99246D01*
X150897Y-97506D02*
X150925Y-97521D01*
X150972Y-97521D01*
X150991Y-97506D01*
X151000Y-97491D01*
X151010Y-97461D01*
X151010Y-97431D01*
X151000Y-97401D01*
X150991Y-97386D01*
X150972Y-97371D01*
X150935Y-97356D01*
X150916Y-97341D01*
X150906Y-97326D01*
X150897Y-97296D01*
X150897Y-97266D01*
X150906Y-97236D01*
X150916Y-97221D01*
X150935Y-97206D01*
X150981Y-97206D01*
X151010Y-97221D01*
X151075Y-97206D02*
X151122Y-97521D01*
X151160Y-97296D01*
X151197Y-97521D01*
X151244Y-97206D01*
X151413Y-97206D02*
X151319Y-97206D01*
X151309Y-97356D01*
X151319Y-97341D01*
X151338Y-97326D01*
X151384Y-97326D01*
X151403Y-97341D01*
X151413Y-97356D01*
X151422Y-97386D01*
X151422Y-97461D01*
X151413Y-97491D01*
X151403Y-97506D01*
X151384Y-97521D01*
X151338Y-97521D01*
X151319Y-97506D01*
X151309Y-97491D01*
X151113Y-97881D02*
X151206Y-97881D01*
X151094Y-97971D02*
X151160Y-97656D01*
X151225Y-97971D01*
X133497Y-97506D02*
X133525Y-97521D01*
X133572Y-97521D01*
X133591Y-97506D01*
X133600Y-97491D01*
X133610Y-97461D01*
X133610Y-97431D01*
X133600Y-97401D01*
X133591Y-97386D01*
X133572Y-97371D01*
X133535Y-97356D01*
X133516Y-97341D01*
X133506Y-97326D01*
X133497Y-97296D01*
X133497Y-97266D01*
X133506Y-97236D01*
X133516Y-97221D01*
X133535Y-97206D01*
X133581Y-97206D01*
X133610Y-97221D01*
X133675Y-97206D02*
X133722Y-97521D01*
X133760Y-97296D01*
X133797Y-97521D01*
X133844Y-97206D01*
X134003Y-97311D02*
X134003Y-97521D01*
X133956Y-97191D02*
X133909Y-97416D01*
X134031Y-97416D01*
X133347Y-97971D02*
X133281Y-97821D01*
X133235Y-97971D02*
X133235Y-97656D01*
X133310Y-97656D01*
X133328Y-97671D01*
X133338Y-97686D01*
X133347Y-97716D01*
X133347Y-97761D01*
X133338Y-97791D01*
X133328Y-97806D01*
X133310Y-97821D01*
X133235Y-97821D01*
X133431Y-97971D02*
X133431Y-97656D01*
X133628Y-97671D02*
X133610Y-97656D01*
X133581Y-97656D01*
X133553Y-97671D01*
X133535Y-97701D01*
X133525Y-97731D01*
X133516Y-97791D01*
X133516Y-97836D01*
X133525Y-97896D01*
X133535Y-97926D01*
X133553Y-97956D01*
X133581Y-97971D01*
X133600Y-97971D01*
X133628Y-97956D01*
X133638Y-97941D01*
X133638Y-97836D01*
X133600Y-97836D01*
X133722Y-97971D02*
X133722Y-97656D01*
X133722Y-97806D02*
X133834Y-97806D01*
X133834Y-97971D02*
X133834Y-97656D01*
X133900Y-97656D02*
X134013Y-97656D01*
X133956Y-97971D02*
X133956Y-97656D01*
X130097Y-97506D02*
X130125Y-97521D01*
X130172Y-97521D01*
X130191Y-97506D01*
X130200Y-97491D01*
X130210Y-97461D01*
X130210Y-97431D01*
X130200Y-97401D01*
X130191Y-97386D01*
X130172Y-97371D01*
X130135Y-97356D01*
X130116Y-97341D01*
X130106Y-97326D01*
X130097Y-97296D01*
X130097Y-97266D01*
X130106Y-97236D01*
X130116Y-97221D01*
X130135Y-97206D01*
X130181Y-97206D01*
X130210Y-97221D01*
X130275Y-97206D02*
X130322Y-97521D01*
X130360Y-97296D01*
X130397Y-97521D01*
X130444Y-97206D01*
X130500Y-97206D02*
X130622Y-97206D01*
X130556Y-97326D01*
X130584Y-97326D01*
X130603Y-97341D01*
X130613Y-97356D01*
X130622Y-97386D01*
X130622Y-97461D01*
X130613Y-97491D01*
X130603Y-97506D01*
X130584Y-97521D01*
X130528Y-97521D01*
X130509Y-97506D01*
X130500Y-97491D01*
X130222Y-97971D02*
X130128Y-97971D01*
X130128Y-97656D01*
X130288Y-97806D02*
X130353Y-97806D01*
X130381Y-97971D02*
X130288Y-97971D01*
X130288Y-97656D01*
X130381Y-97656D01*
X130531Y-97806D02*
X130466Y-97806D01*
X130466Y-97971D02*
X130466Y-97656D01*
X130559Y-97656D01*
X130606Y-97656D02*
X130719Y-97656D01*
X130663Y-97971D02*
X130663Y-97656D01*
X147497Y-97506D02*
X147525Y-97521D01*
X147572Y-97521D01*
X147591Y-97506D01*
X147600Y-97491D01*
X147610Y-97461D01*
X147610Y-97431D01*
X147600Y-97401D01*
X147591Y-97386D01*
X147572Y-97371D01*
X147535Y-97356D01*
X147516Y-97341D01*
X147506Y-97326D01*
X147497Y-97296D01*
X147497Y-97266D01*
X147506Y-97236D01*
X147516Y-97221D01*
X147535Y-97206D01*
X147581Y-97206D01*
X147610Y-97221D01*
X147675Y-97206D02*
X147722Y-97521D01*
X147760Y-97296D01*
X147797Y-97521D01*
X147844Y-97206D01*
X147928Y-97521D02*
X147966Y-97521D01*
X147984Y-97506D01*
X147994Y-97491D01*
X148013Y-97446D01*
X148022Y-97386D01*
X148022Y-97266D01*
X148013Y-97236D01*
X148003Y-97221D01*
X147984Y-97206D01*
X147947Y-97206D01*
X147928Y-97221D01*
X147919Y-97236D01*
X147909Y-97266D01*
X147909Y-97341D01*
X147919Y-97371D01*
X147928Y-97386D01*
X147947Y-97401D01*
X147984Y-97401D01*
X148003Y-97386D01*
X148013Y-97371D01*
X148022Y-97341D01*
X147760Y-97821D02*
X147760Y-97971D01*
X147694Y-97656D02*
X147760Y-97821D01*
X147825Y-97656D01*
X142366Y-95971D02*
X142366Y-96121D01*
X142300Y-95806D02*
X142366Y-95971D01*
X142431Y-95806D01*
X142600Y-96121D02*
X142488Y-96121D01*
X142544Y-96121D02*
X142544Y-95806D01*
X142525Y-95851D01*
X142506Y-95881D01*
X142488Y-95896D01*
X142145Y-96341D02*
X142127Y-96326D01*
X142117Y-96311D01*
X142108Y-96281D01*
X142108Y-96266D01*
X142117Y-96236D01*
X142127Y-96221D01*
X142145Y-96206D01*
X142183Y-96206D01*
X142202Y-96221D01*
X142211Y-96236D01*
X142220Y-96266D01*
X142220Y-96281D01*
X142211Y-96311D01*
X142202Y-96326D01*
X142183Y-96341D01*
X142145Y-96341D01*
X142127Y-96356D01*
X142117Y-96371D01*
X142108Y-96401D01*
X142108Y-96461D01*
X142117Y-96491D01*
X142127Y-96506D01*
X142145Y-96521D01*
X142183Y-96521D01*
X142202Y-96506D01*
X142211Y-96491D01*
X142220Y-96461D01*
X142220Y-96401D01*
X142211Y-96371D01*
X142202Y-96356D01*
X142183Y-96341D01*
X142305Y-96521D02*
X142305Y-96206D01*
X142370Y-96431D01*
X142436Y-96206D01*
X142436Y-96521D01*
X142530Y-96521D02*
X142530Y-96206D01*
X142530Y-96356D02*
X142642Y-96356D01*
X142642Y-96521D02*
X142642Y-96206D01*
X142717Y-96311D02*
X142820Y-96311D01*
X142717Y-96521D01*
X142820Y-96521D01*
X142307Y-94311D02*
X142297Y-94326D01*
X142269Y-94341D01*
X142250Y-94341D01*
X142222Y-94326D01*
X142204Y-94296D01*
X142194Y-94266D01*
X142185Y-94206D01*
X142185Y-94161D01*
X142194Y-94101D01*
X142204Y-94071D01*
X142222Y-94041D01*
X142250Y-94026D01*
X142269Y-94026D01*
X142297Y-94041D01*
X142307Y-94056D01*
X142372Y-94026D02*
X142504Y-94026D01*
X142419Y-94341D01*
X142253Y-94741D02*
X142140Y-94741D01*
X142197Y-94741D02*
X142197Y-94426D01*
X142178Y-94471D01*
X142159Y-94501D01*
X142140Y-94516D01*
X142375Y-94426D02*
X142394Y-94426D01*
X142412Y-94441D01*
X142422Y-94456D01*
X142431Y-94486D01*
X142440Y-94546D01*
X142440Y-94621D01*
X142431Y-94681D01*
X142422Y-94711D01*
X142412Y-94726D01*
X142394Y-94741D01*
X142375Y-94741D01*
X142356Y-94726D01*
X142347Y-94711D01*
X142337Y-94681D01*
X142328Y-94621D01*
X142328Y-94546D01*
X142337Y-94486D01*
X142347Y-94456D01*
X142356Y-94441D01*
X142375Y-94426D01*
X142525Y-94531D02*
X142525Y-94846D01*
X142525Y-94546D02*
X142544Y-94531D01*
X142581Y-94531D01*
X142600Y-94546D01*
X142609Y-94561D01*
X142619Y-94591D01*
X142619Y-94681D01*
X142609Y-94711D01*
X142600Y-94726D01*
X142581Y-94741D01*
X142544Y-94741D01*
X142525Y-94726D01*
X138747Y-94331D02*
X138737Y-94346D01*
X138709Y-94361D01*
X138690Y-94361D01*
X138662Y-94346D01*
X138644Y-94316D01*
X138634Y-94286D01*
X138625Y-94226D01*
X138625Y-94181D01*
X138634Y-94121D01*
X138644Y-94091D01*
X138662Y-94061D01*
X138690Y-94046D01*
X138709Y-94046D01*
X138737Y-94061D01*
X138747Y-94076D01*
X138915Y-94046D02*
X138878Y-94046D01*
X138859Y-94061D01*
X138850Y-94076D01*
X138831Y-94121D01*
X138822Y-94181D01*
X138822Y-94301D01*
X138831Y-94331D01*
X138840Y-94346D01*
X138859Y-94361D01*
X138897Y-94361D01*
X138915Y-94346D01*
X138925Y-94331D01*
X138934Y-94301D01*
X138934Y-94226D01*
X138925Y-94196D01*
X138915Y-94181D01*
X138897Y-94166D01*
X138859Y-94166D01*
X138840Y-94181D01*
X138831Y-94196D01*
X138822Y-94226D01*
X138713Y-94761D02*
X138600Y-94761D01*
X138657Y-94761D02*
X138657Y-94446D01*
X138638Y-94491D01*
X138619Y-94521D01*
X138600Y-94536D01*
X138835Y-94446D02*
X138854Y-94446D01*
X138872Y-94461D01*
X138882Y-94476D01*
X138891Y-94506D01*
X138900Y-94566D01*
X138900Y-94641D01*
X138891Y-94701D01*
X138882Y-94731D01*
X138872Y-94746D01*
X138854Y-94761D01*
X138835Y-94761D01*
X138816Y-94746D01*
X138807Y-94731D01*
X138797Y-94701D01*
X138788Y-94641D01*
X138788Y-94566D01*
X138797Y-94506D01*
X138807Y-94476D01*
X138816Y-94461D01*
X138835Y-94446D01*
X138985Y-94551D02*
X138985Y-94866D01*
X138985Y-94566D02*
X139004Y-94551D01*
X139041Y-94551D01*
X139060Y-94566D01*
X139069Y-94581D01*
X139079Y-94611D01*
X139079Y-94701D01*
X139069Y-94731D01*
X139060Y-94746D01*
X139041Y-94761D01*
X139004Y-94761D01*
X138985Y-94746D01*
X154107Y-102346D02*
X154122Y-102356D01*
X154137Y-102384D01*
X154137Y-102403D01*
X154122Y-102431D01*
X154092Y-102449D01*
X154062Y-102459D01*
X154002Y-102468D01*
X153957Y-102468D01*
X153897Y-102459D01*
X153867Y-102449D01*
X153837Y-102431D01*
X153822Y-102403D01*
X153822Y-102384D01*
X153837Y-102356D01*
X153852Y-102346D01*
X153822Y-102168D02*
X153822Y-102262D01*
X153972Y-102271D01*
X153957Y-102262D01*
X153942Y-102243D01*
X153942Y-102196D01*
X153957Y-102178D01*
X153972Y-102168D01*
X154002Y-102159D01*
X154077Y-102159D01*
X154107Y-102168D01*
X154122Y-102178D01*
X154137Y-102196D01*
X154137Y-102243D01*
X154122Y-102262D01*
X154107Y-102271D01*
X154137Y-101924D02*
X154137Y-102037D01*
X154137Y-101981D02*
X153822Y-101981D01*
X153867Y-101999D01*
X153897Y-102018D01*
X153912Y-102037D01*
X153822Y-101803D02*
X153822Y-101784D01*
X153837Y-101765D01*
X153852Y-101756D01*
X153882Y-101746D01*
X153942Y-101737D01*
X154017Y-101737D01*
X154077Y-101746D01*
X154107Y-101756D01*
X154122Y-101765D01*
X154137Y-101784D01*
X154137Y-101803D01*
X154122Y-101821D01*
X154107Y-101831D01*
X154077Y-101840D01*
X154017Y-101849D01*
X153942Y-101849D01*
X153882Y-101840D01*
X153852Y-101831D01*
X153837Y-101821D01*
X153822Y-101803D01*
X153927Y-101568D02*
X154137Y-101568D01*
X153927Y-101653D02*
X154092Y-101653D01*
X154122Y-101643D01*
X154137Y-101624D01*
X154137Y-101596D01*
X154122Y-101578D01*
X154107Y-101568D01*
X153972Y-101409D02*
X153972Y-101474D01*
X154137Y-101474D02*
X153822Y-101474D01*
X153822Y-101381D01*
X138152Y-101666D02*
X138142Y-101681D01*
X138114Y-101696D01*
X138095Y-101696D01*
X138067Y-101681D01*
X138049Y-101651D01*
X138039Y-101621D01*
X138030Y-101561D01*
X138030Y-101516D01*
X138039Y-101456D01*
X138049Y-101426D01*
X138067Y-101396D01*
X138095Y-101381D01*
X138114Y-101381D01*
X138142Y-101396D01*
X138152Y-101411D01*
X138320Y-101486D02*
X138320Y-101696D01*
X138274Y-101366D02*
X138227Y-101591D01*
X138349Y-101591D01*
X138053Y-101296D02*
X137941Y-101296D01*
X137997Y-101296D02*
X137997Y-100981D01*
X137978Y-101026D01*
X137960Y-101056D01*
X137941Y-101071D01*
X138175Y-100981D02*
X138194Y-100981D01*
X138213Y-100996D01*
X138222Y-101011D01*
X138231Y-101041D01*
X138241Y-101101D01*
X138241Y-101176D01*
X138231Y-101236D01*
X138222Y-101266D01*
X138213Y-101281D01*
X138194Y-101296D01*
X138175Y-101296D01*
X138156Y-101281D01*
X138147Y-101266D01*
X138138Y-101236D01*
X138128Y-101176D01*
X138128Y-101101D01*
X138138Y-101041D01*
X138147Y-101011D01*
X138156Y-100996D01*
X138175Y-100981D01*
X138409Y-101086D02*
X138409Y-101296D01*
X138363Y-100966D02*
X138316Y-101191D01*
X138438Y-101191D01*
X138329Y-96783D02*
X138319Y-96798D01*
X138291Y-96813D01*
X138272Y-96813D01*
X138244Y-96798D01*
X138226Y-96768D01*
X138216Y-96738D01*
X138207Y-96678D01*
X138207Y-96633D01*
X138216Y-96573D01*
X138226Y-96543D01*
X138244Y-96513D01*
X138272Y-96498D01*
X138291Y-96498D01*
X138319Y-96513D01*
X138329Y-96528D01*
X138394Y-96498D02*
X138516Y-96498D01*
X138451Y-96618D01*
X138479Y-96618D01*
X138497Y-96633D01*
X138507Y-96648D01*
X138516Y-96678D01*
X138516Y-96753D01*
X138507Y-96783D01*
X138497Y-96798D01*
X138479Y-96813D01*
X138422Y-96813D01*
X138404Y-96798D01*
X138394Y-96783D01*
X138730Y-96813D02*
X138618Y-96813D01*
X138674Y-96813D02*
X138674Y-96498D01*
X138655Y-96543D01*
X138637Y-96573D01*
X138618Y-96588D01*
X138852Y-96498D02*
X138871Y-96498D01*
X138890Y-96513D01*
X138899Y-96528D01*
X138908Y-96558D01*
X138918Y-96618D01*
X138918Y-96693D01*
X138908Y-96753D01*
X138899Y-96783D01*
X138890Y-96798D01*
X138871Y-96813D01*
X138852Y-96813D01*
X138833Y-96798D01*
X138824Y-96783D01*
X138815Y-96753D01*
X138805Y-96693D01*
X138805Y-96618D01*
X138815Y-96558D01*
X138824Y-96528D01*
X138833Y-96513D01*
X138852Y-96498D01*
X139086Y-96603D02*
X139086Y-96813D01*
X139040Y-96483D02*
X138993Y-96708D01*
X139115Y-96708D01*
X140309Y-101561D02*
X140299Y-101576D01*
X140271Y-101591D01*
X140252Y-101591D01*
X140224Y-101576D01*
X140206Y-101546D01*
X140196Y-101516D01*
X140187Y-101456D01*
X140187Y-101411D01*
X140196Y-101351D01*
X140206Y-101321D01*
X140224Y-101291D01*
X140252Y-101276D01*
X140271Y-101276D01*
X140299Y-101291D01*
X140309Y-101306D01*
X140384Y-101306D02*
X140393Y-101291D01*
X140412Y-101276D01*
X140459Y-101276D01*
X140477Y-101291D01*
X140487Y-101306D01*
X140496Y-101336D01*
X140496Y-101366D01*
X140487Y-101411D01*
X140374Y-101591D01*
X140496Y-101591D01*
X140710Y-101591D02*
X140598Y-101591D01*
X140654Y-101591D02*
X140654Y-101276D01*
X140635Y-101321D01*
X140617Y-101351D01*
X140598Y-101366D01*
X140832Y-101276D02*
X140851Y-101276D01*
X140870Y-101291D01*
X140879Y-101306D01*
X140888Y-101336D01*
X140898Y-101396D01*
X140898Y-101471D01*
X140888Y-101531D01*
X140879Y-101561D01*
X140870Y-101576D01*
X140851Y-101591D01*
X140832Y-101591D01*
X140813Y-101576D01*
X140804Y-101561D01*
X140795Y-101531D01*
X140785Y-101471D01*
X140785Y-101396D01*
X140795Y-101336D01*
X140804Y-101306D01*
X140813Y-101291D01*
X140832Y-101276D01*
X141066Y-101381D02*
X141066Y-101591D01*
X141020Y-101261D02*
X140973Y-101486D01*
X141095Y-101486D01*
X142827Y-97343D02*
X142817Y-97358D01*
X142789Y-97373D01*
X142770Y-97373D01*
X142742Y-97358D01*
X142724Y-97328D01*
X142714Y-97298D01*
X142705Y-97238D01*
X142705Y-97193D01*
X142714Y-97133D01*
X142724Y-97103D01*
X142742Y-97073D01*
X142770Y-97058D01*
X142789Y-97058D01*
X142817Y-97073D01*
X142827Y-97088D01*
X143014Y-97373D02*
X142902Y-97373D01*
X142958Y-97373D02*
X142958Y-97058D01*
X142939Y-97103D01*
X142920Y-97133D01*
X142902Y-97148D01*
X142728Y-97773D02*
X142616Y-97773D01*
X142672Y-97773D02*
X142672Y-97458D01*
X142653Y-97503D01*
X142635Y-97533D01*
X142616Y-97548D01*
X142850Y-97458D02*
X142869Y-97458D01*
X142888Y-97473D01*
X142897Y-97488D01*
X142906Y-97518D01*
X142916Y-97578D01*
X142916Y-97653D01*
X142906Y-97713D01*
X142897Y-97743D01*
X142888Y-97758D01*
X142869Y-97773D01*
X142850Y-97773D01*
X142831Y-97758D01*
X142822Y-97743D01*
X142813Y-97713D01*
X142803Y-97653D01*
X142803Y-97578D01*
X142813Y-97518D01*
X142822Y-97488D01*
X142831Y-97473D01*
X142850Y-97458D01*
X143084Y-97563D02*
X143084Y-97773D01*
X143038Y-97443D02*
X142991Y-97668D01*
X143113Y-97668D01*
X155697Y-100566D02*
X155725Y-100581D01*
X155772Y-100581D01*
X155791Y-100566D01*
X155800Y-100551D01*
X155810Y-100521D01*
X155810Y-100491D01*
X155800Y-100461D01*
X155791Y-100446D01*
X155772Y-100431D01*
X155735Y-100416D01*
X155716Y-100401D01*
X155706Y-100386D01*
X155697Y-100356D01*
X155697Y-100326D01*
X155706Y-100296D01*
X155716Y-100281D01*
X155735Y-100266D01*
X155781Y-100266D01*
X155810Y-100281D01*
X155875Y-100266D02*
X155922Y-100581D01*
X155960Y-100356D01*
X155997Y-100581D01*
X156044Y-100266D01*
X156100Y-100266D02*
X156231Y-100266D01*
X156147Y-100581D01*
X155852Y-100181D02*
X155786Y-100031D01*
X155739Y-100181D02*
X155739Y-99866D01*
X155814Y-99866D01*
X155833Y-99881D01*
X155842Y-99896D01*
X155852Y-99926D01*
X155852Y-99971D01*
X155842Y-100001D01*
X155833Y-100016D01*
X155814Y-100031D01*
X155739Y-100031D01*
X155927Y-100166D02*
X155955Y-100181D01*
X156002Y-100181D01*
X156020Y-100166D01*
X156030Y-100151D01*
X156039Y-100121D01*
X156039Y-100091D01*
X156030Y-100061D01*
X156020Y-100046D01*
X156002Y-100031D01*
X155964Y-100016D01*
X155945Y-100001D01*
X155936Y-99986D01*
X155927Y-99956D01*
X155927Y-99926D01*
X155936Y-99896D01*
X155945Y-99881D01*
X155964Y-99866D01*
X156011Y-99866D01*
X156039Y-99881D01*
X156095Y-99866D02*
X156208Y-99866D01*
X156152Y-100181D02*
X156152Y-99866D01*
X124153Y-95176D02*
X124181Y-95191D01*
X124228Y-95191D01*
X124247Y-95176D01*
X124256Y-95161D01*
X124266Y-95131D01*
X124266Y-95101D01*
X124256Y-95071D01*
X124247Y-95056D01*
X124228Y-95041D01*
X124191Y-95026D01*
X124172Y-95011D01*
X124163Y-94996D01*
X124153Y-94966D01*
X124153Y-94936D01*
X124163Y-94906D01*
X124172Y-94891D01*
X124191Y-94876D01*
X124238Y-94876D01*
X124266Y-94891D01*
X124331Y-94876D02*
X124378Y-95191D01*
X124416Y-94966D01*
X124453Y-95191D01*
X124500Y-94876D01*
X124678Y-95191D02*
X124566Y-95191D01*
X124622Y-95191D02*
X124622Y-94876D01*
X124603Y-94921D01*
X124584Y-94951D01*
X124566Y-94966D01*
X124800Y-94876D02*
X124819Y-94876D01*
X124838Y-94891D01*
X124847Y-94906D01*
X124856Y-94936D01*
X124866Y-94996D01*
X124866Y-95071D01*
X124856Y-95131D01*
X124847Y-95161D01*
X124838Y-95176D01*
X124819Y-95191D01*
X124800Y-95191D01*
X124781Y-95176D01*
X124772Y-95161D01*
X124763Y-95131D01*
X124753Y-95071D01*
X124753Y-94996D01*
X124763Y-94936D01*
X124772Y-94906D01*
X124781Y-94891D01*
X124800Y-94876D01*
X125170Y-95191D02*
X125077Y-95191D01*
X125077Y-94876D01*
X154503Y-95126D02*
X154531Y-95141D01*
X154578Y-95141D01*
X154597Y-95126D01*
X154606Y-95111D01*
X154616Y-95081D01*
X154616Y-95051D01*
X154606Y-95021D01*
X154597Y-95006D01*
X154578Y-94991D01*
X154541Y-94976D01*
X154522Y-94961D01*
X154513Y-94946D01*
X154503Y-94916D01*
X154503Y-94886D01*
X154513Y-94856D01*
X154522Y-94841D01*
X154541Y-94826D01*
X154588Y-94826D01*
X154616Y-94841D01*
X154681Y-94826D02*
X154728Y-95141D01*
X154766Y-94916D01*
X154803Y-95141D01*
X154850Y-94826D01*
X155028Y-95141D02*
X154916Y-95141D01*
X154972Y-95141D02*
X154972Y-94826D01*
X154953Y-94871D01*
X154934Y-94901D01*
X154916Y-94916D01*
X155216Y-95141D02*
X155103Y-95141D01*
X155159Y-95141D02*
X155159Y-94826D01*
X155141Y-94871D01*
X155122Y-94901D01*
X155103Y-94916D01*
X155470Y-95141D02*
X155405Y-94991D01*
X155358Y-95141D02*
X155358Y-94826D01*
X155433Y-94826D01*
X155452Y-94841D01*
X155461Y-94856D01*
X155470Y-94886D01*
X155470Y-94931D01*
X155461Y-94961D01*
X155452Y-94976D01*
X155433Y-94991D01*
X155358Y-94991D01*
X137103Y-103006D02*
X137131Y-103021D01*
X137178Y-103021D01*
X137197Y-103006D01*
X137206Y-102991D01*
X137216Y-102961D01*
X137216Y-102931D01*
X137206Y-102901D01*
X137197Y-102886D01*
X137178Y-102871D01*
X137141Y-102856D01*
X137122Y-102841D01*
X137113Y-102826D01*
X137103Y-102796D01*
X137103Y-102766D01*
X137113Y-102736D01*
X137122Y-102721D01*
X137141Y-102706D01*
X137188Y-102706D01*
X137216Y-102721D01*
X137281Y-102706D02*
X137328Y-103021D01*
X137366Y-102796D01*
X137403Y-103021D01*
X137450Y-102706D01*
X137628Y-103021D02*
X137516Y-103021D01*
X137572Y-103021D02*
X137572Y-102706D01*
X137553Y-102751D01*
X137534Y-102781D01*
X137516Y-102796D01*
X137703Y-102736D02*
X137713Y-102721D01*
X137731Y-102706D01*
X137778Y-102706D01*
X137797Y-102721D01*
X137806Y-102736D01*
X137816Y-102766D01*
X137816Y-102796D01*
X137806Y-102841D01*
X137694Y-103021D01*
X137816Y-103021D01*
X136972Y-102606D02*
X137000Y-102621D01*
X137047Y-102621D01*
X137066Y-102606D01*
X137075Y-102591D01*
X137085Y-102561D01*
X137085Y-102531D01*
X137075Y-102501D01*
X137066Y-102486D01*
X137047Y-102471D01*
X137010Y-102456D01*
X136991Y-102441D01*
X136981Y-102426D01*
X136972Y-102396D01*
X136972Y-102366D01*
X136981Y-102336D01*
X136991Y-102321D01*
X137010Y-102306D01*
X137056Y-102306D01*
X137085Y-102321D01*
X137169Y-102456D02*
X137235Y-102456D01*
X137263Y-102621D02*
X137169Y-102621D01*
X137169Y-102306D01*
X137263Y-102306D01*
X137441Y-102621D02*
X137347Y-102621D01*
X137347Y-102306D01*
X137506Y-102456D02*
X137572Y-102456D01*
X137600Y-102621D02*
X137506Y-102621D01*
X137506Y-102306D01*
X137600Y-102306D01*
X137797Y-102591D02*
X137788Y-102606D01*
X137759Y-102621D01*
X137741Y-102621D01*
X137713Y-102606D01*
X137694Y-102576D01*
X137684Y-102546D01*
X137675Y-102486D01*
X137675Y-102441D01*
X137684Y-102381D01*
X137694Y-102351D01*
X137713Y-102321D01*
X137741Y-102306D01*
X137759Y-102306D01*
X137788Y-102321D01*
X137797Y-102336D01*
X137853Y-102306D02*
X137966Y-102306D01*
X137909Y-102621D02*
X137909Y-102306D01*
X143553Y-103006D02*
X143581Y-103021D01*
X143628Y-103021D01*
X143647Y-103006D01*
X143656Y-102991D01*
X143666Y-102961D01*
X143666Y-102931D01*
X143656Y-102901D01*
X143647Y-102886D01*
X143628Y-102871D01*
X143591Y-102856D01*
X143572Y-102841D01*
X143563Y-102826D01*
X143553Y-102796D01*
X143553Y-102766D01*
X143563Y-102736D01*
X143572Y-102721D01*
X143591Y-102706D01*
X143638Y-102706D01*
X143666Y-102721D01*
X143731Y-102706D02*
X143778Y-103021D01*
X143816Y-102796D01*
X143853Y-103021D01*
X143900Y-102706D01*
X144078Y-103021D02*
X143966Y-103021D01*
X144022Y-103021D02*
X144022Y-102706D01*
X144003Y-102751D01*
X143984Y-102781D01*
X143966Y-102796D01*
X144144Y-102706D02*
X144266Y-102706D01*
X144200Y-102826D01*
X144228Y-102826D01*
X144247Y-102841D01*
X144256Y-102856D01*
X144266Y-102886D01*
X144266Y-102961D01*
X144256Y-102991D01*
X144247Y-103006D01*
X144228Y-103021D01*
X144172Y-103021D01*
X144153Y-103006D01*
X144144Y-102991D01*
X143520Y-102606D02*
X143549Y-102621D01*
X143595Y-102621D01*
X143614Y-102606D01*
X143624Y-102591D01*
X143633Y-102561D01*
X143633Y-102531D01*
X143624Y-102501D01*
X143614Y-102486D01*
X143595Y-102471D01*
X143558Y-102456D01*
X143539Y-102441D01*
X143530Y-102426D01*
X143520Y-102396D01*
X143520Y-102366D01*
X143530Y-102336D01*
X143539Y-102321D01*
X143558Y-102306D01*
X143605Y-102306D01*
X143633Y-102321D01*
X143689Y-102306D02*
X143802Y-102306D01*
X143745Y-102621D02*
X143745Y-102306D01*
X143858Y-102531D02*
X143952Y-102531D01*
X143839Y-102621D02*
X143905Y-102306D01*
X143970Y-102621D01*
X144149Y-102621D02*
X144083Y-102471D01*
X144036Y-102621D02*
X144036Y-102306D01*
X144111Y-102306D01*
X144130Y-102321D01*
X144139Y-102336D01*
X144149Y-102366D01*
X144149Y-102411D01*
X144139Y-102441D01*
X144130Y-102456D01*
X144111Y-102471D01*
X144036Y-102471D01*
X144205Y-102306D02*
X144317Y-102306D01*
X144261Y-102621D02*
X144261Y-102306D01*
X155603Y-103086D02*
X155631Y-103101D01*
X155678Y-103101D01*
X155697Y-103086D01*
X155706Y-103071D01*
X155716Y-103041D01*
X155716Y-103011D01*
X155706Y-102981D01*
X155697Y-102966D01*
X155678Y-102951D01*
X155641Y-102936D01*
X155622Y-102921D01*
X155613Y-102906D01*
X155603Y-102876D01*
X155603Y-102846D01*
X155613Y-102816D01*
X155622Y-102801D01*
X155641Y-102786D01*
X155688Y-102786D01*
X155716Y-102801D01*
X155781Y-102786D02*
X155828Y-103101D01*
X155866Y-102876D01*
X155903Y-103101D01*
X155950Y-102786D01*
X156128Y-103101D02*
X156016Y-103101D01*
X156072Y-103101D02*
X156072Y-102786D01*
X156053Y-102831D01*
X156034Y-102861D01*
X156016Y-102876D01*
X156297Y-102891D02*
X156297Y-103101D01*
X156250Y-102771D02*
X156203Y-102996D01*
X156325Y-102996D01*
X155801Y-102556D02*
X155830Y-102571D01*
X155839Y-102586D01*
X155848Y-102616D01*
X155848Y-102661D01*
X155839Y-102691D01*
X155830Y-102706D01*
X155811Y-102721D01*
X155736Y-102721D01*
X155736Y-102406D01*
X155801Y-102406D01*
X155820Y-102421D01*
X155830Y-102436D01*
X155839Y-102466D01*
X155839Y-102496D01*
X155830Y-102526D01*
X155820Y-102541D01*
X155801Y-102556D01*
X155736Y-102556D01*
X155933Y-102721D02*
X155933Y-102406D01*
X156045Y-102721D02*
X155961Y-102541D01*
X156045Y-102406D02*
X155933Y-102586D01*
X156233Y-102721D02*
X156120Y-102721D01*
X156176Y-102721D02*
X156176Y-102406D01*
X156158Y-102451D01*
X156139Y-102481D01*
X156120Y-102496D01*
X152623Y-103106D02*
X152651Y-103121D01*
X152698Y-103121D01*
X152717Y-103106D01*
X152726Y-103091D01*
X152736Y-103061D01*
X152736Y-103031D01*
X152726Y-103001D01*
X152717Y-102986D01*
X152698Y-102971D01*
X152661Y-102956D01*
X152642Y-102941D01*
X152633Y-102926D01*
X152623Y-102896D01*
X152623Y-102866D01*
X152633Y-102836D01*
X152642Y-102821D01*
X152661Y-102806D01*
X152708Y-102806D01*
X152736Y-102821D01*
X152801Y-102806D02*
X152848Y-103121D01*
X152886Y-102896D01*
X152923Y-103121D01*
X152970Y-102806D01*
X153148Y-103121D02*
X153036Y-103121D01*
X153092Y-103121D02*
X153092Y-102806D01*
X153073Y-102851D01*
X153054Y-102881D01*
X153036Y-102896D01*
X153326Y-102806D02*
X153233Y-102806D01*
X153223Y-102956D01*
X153233Y-102941D01*
X153251Y-102926D01*
X153298Y-102926D01*
X153317Y-102941D01*
X153326Y-102956D01*
X153336Y-102986D01*
X153336Y-103061D01*
X153326Y-103091D01*
X153317Y-103106D01*
X153298Y-103121D01*
X153251Y-103121D01*
X153233Y-103106D01*
X153223Y-103091D01*
X152781Y-102576D02*
X152810Y-102591D01*
X152819Y-102606D01*
X152828Y-102636D01*
X152828Y-102681D01*
X152819Y-102711D01*
X152810Y-102726D01*
X152791Y-102741D01*
X152716Y-102741D01*
X152716Y-102426D01*
X152781Y-102426D01*
X152800Y-102441D01*
X152810Y-102456D01*
X152819Y-102486D01*
X152819Y-102516D01*
X152810Y-102546D01*
X152800Y-102561D01*
X152781Y-102576D01*
X152716Y-102576D01*
X152913Y-102741D02*
X152913Y-102426D01*
X153025Y-102741D02*
X152941Y-102561D01*
X153025Y-102426D02*
X152913Y-102606D01*
X153100Y-102456D02*
X153109Y-102441D01*
X153128Y-102426D01*
X153175Y-102426D01*
X153194Y-102441D01*
X153203Y-102456D01*
X153213Y-102486D01*
X153213Y-102516D01*
X153203Y-102561D01*
X153091Y-102741D01*
X153213Y-102741D01*
X125193Y-103026D02*
X125221Y-103041D01*
X125268Y-103041D01*
X125287Y-103026D01*
X125296Y-103011D01*
X125306Y-102981D01*
X125306Y-102951D01*
X125296Y-102921D01*
X125287Y-102906D01*
X125268Y-102891D01*
X125231Y-102876D01*
X125212Y-102861D01*
X125203Y-102846D01*
X125193Y-102816D01*
X125193Y-102786D01*
X125203Y-102756D01*
X125212Y-102741D01*
X125231Y-102726D01*
X125278Y-102726D01*
X125306Y-102741D01*
X125371Y-102726D02*
X125418Y-103041D01*
X125456Y-102816D01*
X125493Y-103041D01*
X125540Y-102726D01*
X125718Y-103041D02*
X125606Y-103041D01*
X125662Y-103041D02*
X125662Y-102726D01*
X125643Y-102771D01*
X125624Y-102801D01*
X125606Y-102816D01*
X125887Y-102726D02*
X125849Y-102726D01*
X125831Y-102741D01*
X125821Y-102756D01*
X125803Y-102801D01*
X125793Y-102861D01*
X125793Y-102981D01*
X125803Y-103011D01*
X125812Y-103026D01*
X125831Y-103041D01*
X125868Y-103041D01*
X125887Y-103026D01*
X125896Y-103011D01*
X125906Y-102981D01*
X125906Y-102906D01*
X125896Y-102876D01*
X125887Y-102861D01*
X125868Y-102846D01*
X125831Y-102846D01*
X125812Y-102861D01*
X125803Y-102876D01*
X125793Y-102906D01*
X125351Y-102496D02*
X125380Y-102511D01*
X125389Y-102526D01*
X125398Y-102556D01*
X125398Y-102601D01*
X125389Y-102631D01*
X125380Y-102646D01*
X125361Y-102661D01*
X125286Y-102661D01*
X125286Y-102346D01*
X125351Y-102346D01*
X125370Y-102361D01*
X125380Y-102376D01*
X125389Y-102406D01*
X125389Y-102436D01*
X125380Y-102466D01*
X125370Y-102481D01*
X125351Y-102496D01*
X125286Y-102496D01*
X125483Y-102661D02*
X125483Y-102346D01*
X125595Y-102661D02*
X125511Y-102481D01*
X125595Y-102346D02*
X125483Y-102526D01*
X125661Y-102346D02*
X125783Y-102346D01*
X125717Y-102466D01*
X125745Y-102466D01*
X125764Y-102481D01*
X125773Y-102496D01*
X125783Y-102526D01*
X125783Y-102601D01*
X125773Y-102631D01*
X125764Y-102646D01*
X125745Y-102661D01*
X125689Y-102661D01*
X125670Y-102646D01*
X125661Y-102631D01*
X128203Y-102986D02*
X128231Y-103001D01*
X128278Y-103001D01*
X128297Y-102986D01*
X128306Y-102971D01*
X128316Y-102941D01*
X128316Y-102911D01*
X128306Y-102881D01*
X128297Y-102866D01*
X128278Y-102851D01*
X128241Y-102836D01*
X128222Y-102821D01*
X128213Y-102806D01*
X128203Y-102776D01*
X128203Y-102746D01*
X128213Y-102716D01*
X128222Y-102701D01*
X128241Y-102686D01*
X128288Y-102686D01*
X128316Y-102701D01*
X128381Y-102686D02*
X128428Y-103001D01*
X128466Y-102776D01*
X128503Y-103001D01*
X128550Y-102686D01*
X128728Y-103001D02*
X128616Y-103001D01*
X128672Y-103001D02*
X128672Y-102686D01*
X128653Y-102731D01*
X128634Y-102761D01*
X128616Y-102776D01*
X128794Y-102686D02*
X128925Y-102686D01*
X128841Y-103001D01*
X128361Y-102456D02*
X128390Y-102471D01*
X128399Y-102486D01*
X128408Y-102516D01*
X128408Y-102561D01*
X128399Y-102591D01*
X128390Y-102606D01*
X128371Y-102621D01*
X128296Y-102621D01*
X128296Y-102306D01*
X128361Y-102306D01*
X128380Y-102321D01*
X128390Y-102336D01*
X128399Y-102366D01*
X128399Y-102396D01*
X128390Y-102426D01*
X128380Y-102441D01*
X128361Y-102456D01*
X128296Y-102456D01*
X128493Y-102621D02*
X128493Y-102306D01*
X128605Y-102621D02*
X128521Y-102441D01*
X128605Y-102306D02*
X128493Y-102486D01*
X128774Y-102411D02*
X128774Y-102621D01*
X128727Y-102291D02*
X128680Y-102516D01*
X128802Y-102516D01*
X140094Y-102856D02*
X140094Y-103081D01*
X140085Y-103126D01*
X140066Y-103156D01*
X140038Y-103171D01*
X140019Y-103171D01*
X140291Y-103171D02*
X140178Y-103171D01*
X140234Y-103171D02*
X140234Y-102856D01*
X140216Y-102901D01*
X140197Y-102931D01*
X140178Y-102946D01*
X139038Y-102856D02*
X139038Y-103111D01*
X139047Y-103141D01*
X139056Y-103156D01*
X139075Y-103171D01*
X139113Y-103171D01*
X139131Y-103156D01*
X139141Y-103141D01*
X139150Y-103111D01*
X139150Y-102856D01*
X139235Y-103156D02*
X139263Y-103171D01*
X139310Y-103171D01*
X139328Y-103156D01*
X139338Y-103141D01*
X139347Y-103111D01*
X139347Y-103081D01*
X139338Y-103051D01*
X139328Y-103036D01*
X139310Y-103021D01*
X139272Y-103006D01*
X139253Y-102991D01*
X139244Y-102976D01*
X139235Y-102946D01*
X139235Y-102916D01*
X139244Y-102886D01*
X139253Y-102871D01*
X139272Y-102856D01*
X139319Y-102856D01*
X139347Y-102871D01*
X139497Y-103006D02*
X139525Y-103021D01*
X139534Y-103036D01*
X139544Y-103066D01*
X139544Y-103111D01*
X139534Y-103141D01*
X139525Y-103156D01*
X139506Y-103171D01*
X139431Y-103171D01*
X139431Y-102856D01*
X139497Y-102856D01*
X139516Y-102871D01*
X139525Y-102886D01*
X139534Y-102916D01*
X139534Y-102946D01*
X139525Y-102976D01*
X139516Y-102991D01*
X139497Y-103006D01*
X139431Y-103006D01*
X139581Y-103201D02*
X139731Y-103201D01*
X139844Y-103006D02*
X139872Y-103021D01*
X139881Y-103036D01*
X139891Y-103066D01*
X139891Y-103111D01*
X139881Y-103141D01*
X139872Y-103156D01*
X139853Y-103171D01*
X139778Y-103171D01*
X139778Y-102856D01*
X139844Y-102856D01*
X139863Y-102871D01*
X139872Y-102886D01*
X139881Y-102916D01*
X139881Y-102946D01*
X139872Y-102976D01*
X139863Y-102991D01*
X139844Y-103006D01*
X139778Y-103006D01*
X142784Y-93961D02*
X142784Y-93646D01*
X142859Y-93646D01*
X142878Y-93661D01*
X142887Y-93676D01*
X142897Y-93706D01*
X142897Y-93751D01*
X142887Y-93781D01*
X142878Y-93796D01*
X142859Y-93811D01*
X142784Y-93811D01*
X143084Y-93961D02*
X142972Y-93961D01*
X143028Y-93961D02*
X143028Y-93646D01*
X143009Y-93691D01*
X142990Y-93721D01*
X142972Y-93736D01*
X139450Y-98064D02*
X139450Y-98319D01*
X139459Y-98349D01*
X139468Y-98364D01*
X139487Y-98379D01*
X139525Y-98379D01*
X139543Y-98364D01*
X139553Y-98349D01*
X139562Y-98319D01*
X139562Y-98064D01*
X139759Y-98379D02*
X139646Y-98379D01*
X139703Y-98379D02*
X139703Y-98064D01*
X139684Y-98109D01*
X139665Y-98139D01*
X139646Y-98154D01*
X139274Y-98756D02*
X139302Y-98771D01*
X139349Y-98771D01*
X139368Y-98756D01*
X139377Y-98741D01*
X139386Y-98711D01*
X139386Y-98681D01*
X139377Y-98651D01*
X139368Y-98636D01*
X139349Y-98621D01*
X139311Y-98606D01*
X139293Y-98591D01*
X139283Y-98576D01*
X139274Y-98546D01*
X139274Y-98516D01*
X139283Y-98486D01*
X139293Y-98471D01*
X139311Y-98456D01*
X139358Y-98456D01*
X139386Y-98471D01*
X139443Y-98456D02*
X139555Y-98456D01*
X139499Y-98771D02*
X139499Y-98456D01*
X139621Y-98771D02*
X139621Y-98456D01*
X139686Y-98681D01*
X139752Y-98456D01*
X139752Y-98771D01*
X139827Y-98456D02*
X139949Y-98456D01*
X139883Y-98576D01*
X139911Y-98576D01*
X139930Y-98591D01*
X139939Y-98606D01*
X139949Y-98636D01*
X139949Y-98711D01*
X139939Y-98741D01*
X139930Y-98756D01*
X139911Y-98771D01*
X139855Y-98771D01*
X139836Y-98756D01*
X139827Y-98741D01*
X140024Y-98486D02*
X140033Y-98471D01*
X140052Y-98456D01*
X140099Y-98456D01*
X140117Y-98471D01*
X140127Y-98486D01*
X140136Y-98516D01*
X140136Y-98546D01*
X140127Y-98591D01*
X140014Y-98771D01*
X140136Y-98771D01*
X140286Y-98606D02*
X140221Y-98606D01*
X140221Y-98771D02*
X140221Y-98456D01*
X140314Y-98456D01*
X140492Y-98771D02*
X140380Y-98771D01*
X140436Y-98771D02*
X140436Y-98456D01*
X140417Y-98501D01*
X140399Y-98531D01*
X140380Y-98546D01*
X140614Y-98456D02*
X140633Y-98456D01*
X140652Y-98471D01*
X140661Y-98486D01*
X140671Y-98516D01*
X140680Y-98576D01*
X140680Y-98651D01*
X140671Y-98711D01*
X140661Y-98741D01*
X140652Y-98756D01*
X140633Y-98771D01*
X140614Y-98771D01*
X140596Y-98756D01*
X140586Y-98741D01*
X140577Y-98711D01*
X140567Y-98651D01*
X140567Y-98576D01*
X140577Y-98516D01*
X140586Y-98486D01*
X140596Y-98471D01*
X140614Y-98456D01*
X140746Y-98456D02*
X140867Y-98456D01*
X140802Y-98576D01*
X140830Y-98576D01*
X140849Y-98591D01*
X140858Y-98606D01*
X140867Y-98636D01*
X140867Y-98711D01*
X140858Y-98741D01*
X140849Y-98756D01*
X140830Y-98771D01*
X140774Y-98771D01*
X140755Y-98756D01*
X140746Y-98741D01*
X140905Y-98801D02*
X141055Y-98801D01*
X141186Y-98561D02*
X141186Y-98771D01*
X141139Y-98441D02*
X141092Y-98666D01*
X141214Y-98666D01*
X141317Y-98591D02*
X141299Y-98576D01*
X141289Y-98561D01*
X141280Y-98531D01*
X141280Y-98516D01*
X141289Y-98486D01*
X141299Y-98471D01*
X141317Y-98456D01*
X141355Y-98456D01*
X141374Y-98471D01*
X141383Y-98486D01*
X141392Y-98516D01*
X141392Y-98531D01*
X141383Y-98561D01*
X141374Y-98576D01*
X141355Y-98591D01*
X141317Y-98591D01*
X141299Y-98606D01*
X141289Y-98621D01*
X141280Y-98651D01*
X141280Y-98711D01*
X141289Y-98741D01*
X141299Y-98756D01*
X141317Y-98771D01*
X141355Y-98771D01*
X141374Y-98756D01*
X141383Y-98741D01*
X141392Y-98711D01*
X141392Y-98651D01*
X141383Y-98621D01*
X141374Y-98606D01*
X141355Y-98591D01*
X141477Y-98771D02*
X141477Y-98456D01*
X141552Y-98456D01*
X141570Y-98471D01*
X141580Y-98486D01*
X141589Y-98516D01*
X141589Y-98561D01*
X141580Y-98591D01*
X141570Y-98606D01*
X141552Y-98621D01*
X141477Y-98621D01*
X141674Y-98771D02*
X141674Y-98456D01*
X141767Y-98771D02*
X141767Y-98456D01*
X141880Y-98771D01*
X141880Y-98456D01*
X126917Y-100996D02*
X126767Y-101062D01*
X126917Y-101109D02*
X126602Y-101109D01*
X126602Y-101034D01*
X126617Y-101015D01*
X126632Y-101006D01*
X126662Y-100996D01*
X126707Y-100996D01*
X126737Y-101006D01*
X126752Y-101015D01*
X126767Y-101034D01*
X126767Y-101109D01*
X126632Y-100921D02*
X126617Y-100912D01*
X126602Y-100893D01*
X126602Y-100846D01*
X126617Y-100828D01*
X126632Y-100818D01*
X126662Y-100809D01*
X126692Y-100809D01*
X126737Y-100818D01*
X126917Y-100931D01*
X126917Y-100809D01*
X126917Y-101706D02*
X126917Y-101819D01*
X126917Y-101763D02*
X126602Y-101763D01*
X126647Y-101781D01*
X126677Y-101800D01*
X126692Y-101819D01*
X126887Y-101622D02*
X126902Y-101613D01*
X126917Y-101622D01*
X126902Y-101631D01*
X126887Y-101622D01*
X126917Y-101622D01*
X126602Y-101434D02*
X126602Y-101528D01*
X126752Y-101538D01*
X126737Y-101528D01*
X126722Y-101509D01*
X126722Y-101463D01*
X126737Y-101444D01*
X126752Y-101434D01*
X126782Y-101425D01*
X126857Y-101425D01*
X126887Y-101434D01*
X126902Y-101444D01*
X126917Y-101463D01*
X126917Y-101509D01*
X126902Y-101528D01*
X126887Y-101538D01*
X126917Y-101341D02*
X126602Y-101341D01*
X126917Y-101228D02*
X126737Y-101313D01*
X126602Y-101228D02*
X126782Y-101341D01*
M02*
