G04 (created by PCBNEW (22-Jun-2014 BZR 4027)-stable) date Sun 04 Dec 2016 05:29:31 PM CST*
%MOIN*%
G04 Gerber Fmt 3.4, Leading zero omitted, Abs format*
%FSLAX34Y34*%
G01*
G70*
G90*
G04 APERTURE LIST*
%ADD10C,0.005*%
%ADD11C,0.00393701*%
%ADD12C,0.00787402*%
%ADD13C,0.011811*%
G04 APERTURE END LIST*
G54D10*
G54D11*
X51435Y-53680D02*
X51435Y-34590D01*
X76472Y-53680D02*
X51435Y-53680D01*
X76472Y-34584D02*
X76472Y-53680D01*
X51436Y-34584D02*
X76472Y-34584D01*
G54D12*
X67882Y-36757D02*
X68082Y-36957D01*
X68082Y-36757D02*
X67882Y-36957D01*
X67582Y-36918D02*
X68382Y-36918D01*
X67582Y-36797D02*
X68382Y-36797D01*
X68382Y-36918D02*
G75*
G03X68382Y-36797I0J60D01*
G74*
G01*
X67582Y-36797D02*
G75*
G03X67582Y-36918I0J-60D01*
G74*
G01*
X67882Y-37155D02*
X68082Y-37355D01*
X68082Y-37155D02*
X67882Y-37355D01*
X67582Y-37316D02*
X68382Y-37316D01*
X67582Y-37194D02*
X68382Y-37194D01*
X68382Y-37316D02*
G75*
G03X68382Y-37194I0J60D01*
G74*
G01*
X67582Y-37194D02*
G75*
G03X67582Y-37316I0J-60D01*
G74*
G01*
X67882Y-37553D02*
X68082Y-37753D01*
X68082Y-37553D02*
X67882Y-37753D01*
X67582Y-37713D02*
X68382Y-37713D01*
X67582Y-37592D02*
X68382Y-37592D01*
X68382Y-37713D02*
G75*
G03X68382Y-37592I0J60D01*
G74*
G01*
X67582Y-37592D02*
G75*
G03X67582Y-37713I0J-60D01*
G74*
G01*
X67882Y-37950D02*
X68082Y-38150D01*
X68082Y-37950D02*
X67882Y-38150D01*
X67582Y-38111D02*
X68382Y-38111D01*
X67582Y-37990D02*
X68382Y-37990D01*
X68382Y-38111D02*
G75*
G03X68382Y-37990I0J60D01*
G74*
G01*
X67582Y-37990D02*
G75*
G03X67582Y-38111I0J-60D01*
G74*
G01*
X67882Y-38348D02*
X68082Y-38548D01*
X68082Y-38348D02*
X67882Y-38548D01*
X67582Y-38509D02*
X68382Y-38509D01*
X67582Y-38387D02*
X68382Y-38387D01*
X68382Y-38509D02*
G75*
G03X68382Y-38387I0J60D01*
G74*
G01*
X67582Y-38387D02*
G75*
G03X67582Y-38509I0J-60D01*
G74*
G01*
X67882Y-38746D02*
X68082Y-38946D01*
X68082Y-38746D02*
X67882Y-38946D01*
X67582Y-38906D02*
X68382Y-38906D01*
X67582Y-38785D02*
X68382Y-38785D01*
X68382Y-38906D02*
G75*
G03X68382Y-38785I0J60D01*
G74*
G01*
X67582Y-38785D02*
G75*
G03X67582Y-38906I0J-60D01*
G74*
G01*
X67882Y-39143D02*
X68082Y-39343D01*
X68082Y-39143D02*
X67882Y-39343D01*
X67582Y-39304D02*
X68382Y-39304D01*
X67582Y-39183D02*
X68382Y-39183D01*
X68382Y-39304D02*
G75*
G03X68382Y-39183I0J60D01*
G74*
G01*
X67582Y-39183D02*
G75*
G03X67582Y-39304I0J-60D01*
G74*
G01*
X67882Y-39541D02*
X68082Y-39741D01*
X68082Y-39541D02*
X67882Y-39741D01*
X67582Y-39701D02*
X68382Y-39701D01*
X67582Y-39580D02*
X68382Y-39580D01*
X68382Y-39701D02*
G75*
G03X68382Y-39580I0J60D01*
G74*
G01*
X67582Y-39580D02*
G75*
G03X67582Y-39701I0J-60D01*
G74*
G01*
X67882Y-39938D02*
X68082Y-40138D01*
X68082Y-39938D02*
X67882Y-40138D01*
X67582Y-40099D02*
X68382Y-40099D01*
X67582Y-39978D02*
X68382Y-39978D01*
X68382Y-40099D02*
G75*
G03X68382Y-39978I0J60D01*
G74*
G01*
X67582Y-39978D02*
G75*
G03X67582Y-40099I0J-60D01*
G74*
G01*
X67882Y-40336D02*
X68082Y-40536D01*
X68082Y-40336D02*
X67882Y-40536D01*
X67582Y-40497D02*
X68382Y-40497D01*
X67582Y-40375D02*
X68382Y-40375D01*
X68382Y-40497D02*
G75*
G03X68382Y-40375I0J60D01*
G74*
G01*
X67582Y-40375D02*
G75*
G03X67582Y-40497I0J-60D01*
G74*
G01*
X67882Y-40734D02*
X68082Y-40934D01*
X68082Y-40734D02*
X67882Y-40934D01*
X67582Y-40894D02*
X68382Y-40894D01*
X67582Y-40773D02*
X68382Y-40773D01*
X68382Y-40894D02*
G75*
G03X68382Y-40773I0J60D01*
G74*
G01*
X67582Y-40773D02*
G75*
G03X67582Y-40894I0J-60D01*
G74*
G01*
X67882Y-41131D02*
X68082Y-41331D01*
X68082Y-41131D02*
X67882Y-41331D01*
X67582Y-41292D02*
X68382Y-41292D01*
X67582Y-41171D02*
X68382Y-41171D01*
X68382Y-41292D02*
G75*
G03X68382Y-41171I0J60D01*
G74*
G01*
X67582Y-41171D02*
G75*
G03X67582Y-41292I0J-60D01*
G74*
G01*
X67882Y-41529D02*
X68082Y-41729D01*
X68082Y-41529D02*
X67882Y-41729D01*
X67582Y-41690D02*
X68382Y-41690D01*
X67582Y-41568D02*
X68382Y-41568D01*
X68382Y-41690D02*
G75*
G03X68382Y-41568I0J60D01*
G74*
G01*
X67582Y-41568D02*
G75*
G03X67582Y-41690I0J-60D01*
G74*
G01*
X67882Y-41927D02*
X68082Y-42127D01*
X68082Y-41927D02*
X67882Y-42127D01*
X67582Y-42087D02*
X68382Y-42087D01*
X67582Y-41966D02*
X68382Y-41966D01*
X68382Y-42087D02*
G75*
G03X68382Y-41966I0J60D01*
G74*
G01*
X67582Y-41966D02*
G75*
G03X67582Y-42087I0J-60D01*
G74*
G01*
X67882Y-42324D02*
X68082Y-42524D01*
X68082Y-42324D02*
X67882Y-42524D01*
X67582Y-42485D02*
X68382Y-42485D01*
X67582Y-42364D02*
X68382Y-42364D01*
X68382Y-42485D02*
G75*
G03X68382Y-42364I0J60D01*
G74*
G01*
X67582Y-42364D02*
G75*
G03X67582Y-42485I0J-60D01*
G74*
G01*
X67882Y-42722D02*
X68082Y-42922D01*
X68082Y-42722D02*
X67882Y-42922D01*
X67582Y-42883D02*
X68382Y-42883D01*
X67582Y-42761D02*
X68382Y-42761D01*
X68382Y-42883D02*
G75*
G03X68382Y-42761I0J60D01*
G74*
G01*
X67582Y-42761D02*
G75*
G03X67582Y-42883I0J-60D01*
G74*
G01*
X67882Y-43120D02*
X68082Y-43320D01*
X68082Y-43120D02*
X67882Y-43320D01*
X67582Y-43280D02*
X68382Y-43280D01*
X67582Y-43159D02*
X68382Y-43159D01*
X68382Y-43280D02*
G75*
G03X68382Y-43159I0J60D01*
G74*
G01*
X67582Y-43159D02*
G75*
G03X67582Y-43280I0J-60D01*
G74*
G01*
X67882Y-44710D02*
X68082Y-44910D01*
X68082Y-44710D02*
X67882Y-44910D01*
X67582Y-44871D02*
X68382Y-44871D01*
X67582Y-44750D02*
X68382Y-44750D01*
X68382Y-44871D02*
G75*
G03X68382Y-44750I0J60D01*
G74*
G01*
X67582Y-44750D02*
G75*
G03X67582Y-44871I0J-60D01*
G74*
G01*
X67882Y-45108D02*
X68082Y-45308D01*
X68082Y-45108D02*
X67882Y-45308D01*
X67582Y-45268D02*
X68382Y-45268D01*
X67582Y-45147D02*
X68382Y-45147D01*
X68382Y-45268D02*
G75*
G03X68382Y-45147I0J60D01*
G74*
G01*
X67582Y-45147D02*
G75*
G03X67582Y-45268I0J-60D01*
G74*
G01*
X67882Y-45505D02*
X68082Y-45705D01*
X68082Y-45505D02*
X67882Y-45705D01*
X67582Y-45666D02*
X68382Y-45666D01*
X67582Y-45545D02*
X68382Y-45545D01*
X68382Y-45666D02*
G75*
G03X68382Y-45545I0J60D01*
G74*
G01*
X67582Y-45545D02*
G75*
G03X67582Y-45666I0J-60D01*
G74*
G01*
X67882Y-45903D02*
X68082Y-46103D01*
X68082Y-45903D02*
X67882Y-46103D01*
X67582Y-46064D02*
X68382Y-46064D01*
X67582Y-45942D02*
X68382Y-45942D01*
X68382Y-46064D02*
G75*
G03X68382Y-45942I0J60D01*
G74*
G01*
X67582Y-45942D02*
G75*
G03X67582Y-46064I0J-60D01*
G74*
G01*
X67882Y-46301D02*
X68082Y-46501D01*
X68082Y-46301D02*
X67882Y-46501D01*
X67582Y-46461D02*
X68382Y-46461D01*
X67582Y-46340D02*
X68382Y-46340D01*
X68382Y-46461D02*
G75*
G03X68382Y-46340I0J60D01*
G74*
G01*
X67582Y-46340D02*
G75*
G03X67582Y-46461I0J-60D01*
G74*
G01*
X67882Y-46698D02*
X68082Y-46898D01*
X68082Y-46698D02*
X67882Y-46898D01*
X67582Y-46859D02*
X68382Y-46859D01*
X67582Y-46738D02*
X68382Y-46738D01*
X68382Y-46859D02*
G75*
G03X68382Y-46738I0J60D01*
G74*
G01*
X67582Y-46738D02*
G75*
G03X67582Y-46859I0J-60D01*
G74*
G01*
X67882Y-47096D02*
X68082Y-47296D01*
X68082Y-47096D02*
X67882Y-47296D01*
X67582Y-47257D02*
X68382Y-47257D01*
X67582Y-47135D02*
X68382Y-47135D01*
X68382Y-47257D02*
G75*
G03X68382Y-47135I0J60D01*
G74*
G01*
X67582Y-47135D02*
G75*
G03X67582Y-47257I0J-60D01*
G74*
G01*
X67882Y-47494D02*
X68082Y-47694D01*
X68082Y-47494D02*
X67882Y-47694D01*
X67582Y-47654D02*
X68382Y-47654D01*
X67582Y-47533D02*
X68382Y-47533D01*
X68382Y-47654D02*
G75*
G03X68382Y-47533I0J60D01*
G74*
G01*
X67582Y-47533D02*
G75*
G03X67582Y-47654I0J-60D01*
G74*
G01*
X67882Y-47891D02*
X68082Y-48091D01*
X68082Y-47891D02*
X67882Y-48091D01*
X67582Y-48052D02*
X68382Y-48052D01*
X67582Y-47931D02*
X68382Y-47931D01*
X68382Y-48052D02*
G75*
G03X68382Y-47931I0J60D01*
G74*
G01*
X67582Y-47931D02*
G75*
G03X67582Y-48052I0J-60D01*
G74*
G01*
X67882Y-48289D02*
X68082Y-48489D01*
X68082Y-48289D02*
X67882Y-48489D01*
X67582Y-48450D02*
X68382Y-48450D01*
X67582Y-48328D02*
X68382Y-48328D01*
X68382Y-48450D02*
G75*
G03X68382Y-48328I0J60D01*
G74*
G01*
X67582Y-48328D02*
G75*
G03X67582Y-48450I0J-60D01*
G74*
G01*
X67882Y-48687D02*
X68082Y-48887D01*
X68082Y-48687D02*
X67882Y-48887D01*
X67582Y-48847D02*
X68382Y-48847D01*
X67582Y-48726D02*
X68382Y-48726D01*
X68382Y-48847D02*
G75*
G03X68382Y-48726I0J60D01*
G74*
G01*
X67582Y-48726D02*
G75*
G03X67582Y-48847I0J-60D01*
G74*
G01*
X67882Y-49084D02*
X68082Y-49284D01*
X68082Y-49084D02*
X67882Y-49284D01*
X67582Y-49245D02*
X68382Y-49245D01*
X67582Y-49124D02*
X68382Y-49124D01*
X68382Y-49245D02*
G75*
G03X68382Y-49124I0J60D01*
G74*
G01*
X67582Y-49124D02*
G75*
G03X67582Y-49245I0J-60D01*
G74*
G01*
X67882Y-49482D02*
X68082Y-49682D01*
X68082Y-49482D02*
X67882Y-49682D01*
X67582Y-49642D02*
X68382Y-49642D01*
X67582Y-49521D02*
X68382Y-49521D01*
X68382Y-49642D02*
G75*
G03X68382Y-49521I0J60D01*
G74*
G01*
X67582Y-49521D02*
G75*
G03X67582Y-49642I0J-60D01*
G74*
G01*
X67882Y-49879D02*
X68082Y-50079D01*
X68082Y-49879D02*
X67882Y-50079D01*
X67582Y-50040D02*
X68382Y-50040D01*
X67582Y-49919D02*
X68382Y-49919D01*
X68382Y-50040D02*
G75*
G03X68382Y-49919I0J60D01*
G74*
G01*
X67582Y-49919D02*
G75*
G03X67582Y-50040I0J-60D01*
G74*
G01*
X67882Y-50277D02*
X68082Y-50477D01*
X68082Y-50277D02*
X67882Y-50477D01*
X67582Y-50438D02*
X68382Y-50438D01*
X67582Y-50316D02*
X68382Y-50316D01*
X68382Y-50438D02*
G75*
G03X68382Y-50316I0J60D01*
G74*
G01*
X67582Y-50316D02*
G75*
G03X67582Y-50438I0J-60D01*
G74*
G01*
X67882Y-50675D02*
X68082Y-50875D01*
X68082Y-50675D02*
X67882Y-50875D01*
X67582Y-50835D02*
X68382Y-50835D01*
X67582Y-50714D02*
X68382Y-50714D01*
X68382Y-50835D02*
G75*
G03X68382Y-50714I0J60D01*
G74*
G01*
X67582Y-50714D02*
G75*
G03X67582Y-50835I0J-60D01*
G74*
G01*
X67882Y-51072D02*
X68082Y-51272D01*
X68082Y-51072D02*
X67882Y-51272D01*
X67582Y-51233D02*
X68382Y-51233D01*
X67582Y-51112D02*
X68382Y-51112D01*
X68382Y-51233D02*
G75*
G03X68382Y-51112I0J60D01*
G74*
G01*
X67582Y-51112D02*
G75*
G03X67582Y-51233I0J-60D01*
G74*
G01*
X52605Y-37060D02*
G75*
G03X52605Y-37060I-125J0D01*
G74*
G01*
X52605Y-41600D02*
G75*
G03X52605Y-41600I-125J0D01*
G74*
G01*
X53345Y-42370D02*
G75*
G03X53345Y-42370I-125J0D01*
G74*
G01*
X53359Y-41564D02*
G75*
G03X53359Y-41564I-125J0D01*
G74*
G01*
X54145Y-46780D02*
G75*
G03X54145Y-46780I-125J0D01*
G74*
G01*
X54655Y-38900D02*
G75*
G03X54655Y-38900I-125J0D01*
G74*
G01*
X54672Y-48787D02*
G75*
G03X54672Y-48787I-125J0D01*
G74*
G01*
X54885Y-36890D02*
G75*
G03X54885Y-36890I-125J0D01*
G74*
G01*
X55115Y-38890D02*
G75*
G03X55115Y-38890I-125J0D01*
G74*
G01*
X55117Y-45633D02*
G75*
G03X55117Y-45633I-125J0D01*
G74*
G01*
X55117Y-47586D02*
G75*
G03X55117Y-47586I-125J0D01*
G74*
G01*
X55545Y-46000D02*
G75*
G03X55545Y-46000I-125J0D01*
G74*
G01*
X55915Y-42340D02*
G75*
G03X55915Y-42340I-125J0D01*
G74*
G01*
X55940Y-42885D02*
G75*
G03X55940Y-42885I-125J0D01*
G74*
G01*
X55955Y-43400D02*
G75*
G03X55955Y-43400I-125J0D01*
G74*
G01*
X55955Y-50370D02*
G75*
G03X55955Y-50370I-125J0D01*
G74*
G01*
X56315Y-34905D02*
G75*
G03X56315Y-34905I-125J0D01*
G74*
G01*
X56355Y-43770D02*
G75*
G03X56355Y-43770I-125J0D01*
G74*
G01*
X56355Y-51140D02*
G75*
G03X56355Y-51140I-125J0D01*
G74*
G01*
X56495Y-35380D02*
G75*
G03X56495Y-35380I-125J0D01*
G74*
G01*
X56555Y-38890D02*
G75*
G03X56555Y-38890I-125J0D01*
G74*
G01*
X56735Y-36890D02*
G75*
G03X56735Y-36890I-125J0D01*
G74*
G01*
X56745Y-44080D02*
G75*
G03X56745Y-44080I-125J0D01*
G74*
G01*
X56745Y-45600D02*
G75*
G03X56745Y-45600I-125J0D01*
G74*
G01*
X57075Y-44500D02*
G75*
G03X57075Y-44500I-125J0D01*
G74*
G01*
X57075Y-46360D02*
G75*
G03X57075Y-46360I-125J0D01*
G74*
G01*
X57245Y-35710D02*
G75*
G03X57245Y-35710I-125J0D01*
G74*
G01*
X57455Y-44880D02*
G75*
G03X57455Y-44880I-125J0D01*
G74*
G01*
X57455Y-47190D02*
G75*
G03X57455Y-47190I-125J0D01*
G74*
G01*
X57575Y-36110D02*
G75*
G03X57575Y-36110I-125J0D01*
G74*
G01*
X57825Y-45180D02*
G75*
G03X57825Y-45180I-125J0D01*
G74*
G01*
X57825Y-47970D02*
G75*
G03X57825Y-47970I-125J0D01*
G74*
G01*
X57845Y-36510D02*
G75*
G03X57845Y-36510I-125J0D01*
G74*
G01*
X58085Y-36927D02*
G75*
G03X58085Y-36927I-125J0D01*
G74*
G01*
X58293Y-44858D02*
G75*
G03X58293Y-44858I-125J0D01*
G74*
G01*
X58293Y-49148D02*
G75*
G03X58293Y-49148I-125J0D01*
G74*
G01*
X58435Y-36435D02*
G75*
G03X58435Y-36435I-125J0D01*
G74*
G01*
X58775Y-39080D02*
G75*
G03X58775Y-39080I-125J0D01*
G74*
G01*
X58918Y-44905D02*
G75*
G03X58918Y-44905I-125J0D01*
G74*
G01*
X59289Y-44464D02*
G75*
G03X59289Y-44464I-125J0D01*
G74*
G01*
X59675Y-45210D02*
G75*
G03X59675Y-45210I-125J0D01*
G74*
G01*
X60053Y-43912D02*
G75*
G03X60053Y-43912I-125J0D01*
G74*
G01*
X60080Y-38605D02*
G75*
G03X60080Y-38605I-125J0D01*
G74*
G01*
X60435Y-39080D02*
G75*
G03X60435Y-39080I-125J0D01*
G74*
G01*
X60435Y-43100D02*
G75*
G03X60435Y-43100I-125J0D01*
G74*
G01*
X61430Y-36840D02*
G75*
G03X61430Y-36840I-125J0D01*
G74*
G01*
X61438Y-38605D02*
G75*
G03X61438Y-38605I-125J0D01*
G74*
G01*
X61935Y-42301D02*
G75*
G03X61935Y-42301I-125J0D01*
G74*
G01*
X62045Y-36840D02*
G75*
G03X62045Y-36840I-125J0D01*
G74*
G01*
X62055Y-35700D02*
G75*
G03X62055Y-35700I-125J0D01*
G74*
G01*
X62575Y-35680D02*
G75*
G03X62575Y-35680I-125J0D01*
G74*
G01*
X62575Y-36840D02*
G75*
G03X62575Y-36840I-125J0D01*
G74*
G01*
X62645Y-43530D02*
G75*
G03X62645Y-43530I-125J0D01*
G74*
G01*
X62660Y-49740D02*
G75*
G03X62660Y-49740I-125J0D01*
G74*
G01*
X63530Y-35190D02*
G75*
G03X63530Y-35190I-125J0D01*
G74*
G01*
X63965Y-44820D02*
G75*
G03X63965Y-44820I-125J0D01*
G74*
G01*
X63965Y-45990D02*
G75*
G03X63965Y-45990I-125J0D01*
G74*
G01*
X64040Y-38625D02*
G75*
G03X64040Y-38625I-125J0D01*
G74*
G01*
X64445Y-44835D02*
G75*
G03X64445Y-44835I-125J0D01*
G74*
G01*
X64445Y-46770D02*
G75*
G03X64445Y-46770I-125J0D01*
G74*
G01*
X64615Y-35640D02*
G75*
G03X64615Y-35640I-125J0D01*
G74*
G01*
X64615Y-36850D02*
G75*
G03X64615Y-36850I-125J0D01*
G74*
G01*
X64925Y-44820D02*
G75*
G03X64925Y-44820I-125J0D01*
G74*
G01*
X64925Y-47580D02*
G75*
G03X64925Y-47580I-125J0D01*
G74*
G01*
X65425Y-44820D02*
G75*
G03X65425Y-44820I-125J0D01*
G74*
G01*
X65425Y-48400D02*
G75*
G03X65425Y-48400I-125J0D01*
G74*
G01*
X66680Y-36870D02*
G75*
G03X66680Y-36870I-125J0D01*
G74*
G01*
X69054Y-47593D02*
G75*
G03X69054Y-47593I-125J0D01*
G74*
G01*
X69054Y-48384D02*
G75*
G03X69054Y-48384I-125J0D01*
G74*
G01*
X69061Y-46802D02*
G75*
G03X69061Y-46802I-125J0D01*
G74*
G01*
X69085Y-50780D02*
G75*
G03X69085Y-50780I-125J0D01*
G74*
G01*
X69095Y-45980D02*
G75*
G03X69095Y-45980I-125J0D01*
G74*
G01*
X70215Y-45630D02*
G75*
G03X70215Y-45630I-125J0D01*
G74*
G01*
X70215Y-48800D02*
G75*
G03X70215Y-48800I-125J0D01*
G74*
G01*
X71645Y-35660D02*
G75*
G03X71645Y-35660I-125J0D01*
G74*
G01*
X71645Y-38850D02*
G75*
G03X71645Y-38850I-125J0D01*
G74*
G01*
X72185Y-35230D02*
G75*
G03X72185Y-35230I-125J0D01*
G74*
G01*
X72185Y-37680D02*
G75*
G03X72185Y-37680I-125J0D01*
G74*
G01*
X72860Y-36435D02*
G75*
G03X72860Y-36435I-125J0D01*
G74*
G01*
X72860Y-42870D02*
G75*
G03X72860Y-42870I-125J0D01*
G74*
G01*
X74060Y-44660D02*
G75*
G03X74060Y-44660I-125J0D01*
G74*
G01*
X74060Y-46170D02*
G75*
G03X74060Y-46170I-125J0D01*
G74*
G01*
G54D13*
X52483Y-55476D02*
X52483Y-54295D01*
X52765Y-54295D01*
X52933Y-54352D01*
X53046Y-54464D01*
X53102Y-54577D01*
X53158Y-54802D01*
X53158Y-54970D01*
X53102Y-55195D01*
X53046Y-55308D01*
X52933Y-55420D01*
X52765Y-55476D01*
X52483Y-55476D01*
X53665Y-55476D02*
X53665Y-54689D01*
X53665Y-54914D02*
X53721Y-54802D01*
X53777Y-54745D01*
X53890Y-54689D01*
X54002Y-54689D01*
X54396Y-55476D02*
X54396Y-54689D01*
X54396Y-54295D02*
X54339Y-54352D01*
X54396Y-54408D01*
X54452Y-54352D01*
X54396Y-54295D01*
X54396Y-54408D01*
X55127Y-55476D02*
X55014Y-55420D01*
X54958Y-55308D01*
X54958Y-54295D01*
X55746Y-55476D02*
X55633Y-55420D01*
X55577Y-55308D01*
X55577Y-54295D01*
X57095Y-55476D02*
X57095Y-54295D01*
X57489Y-55139D01*
X57883Y-54295D01*
X57883Y-55476D01*
X58951Y-55476D02*
X58951Y-54858D01*
X58895Y-54745D01*
X58783Y-54689D01*
X58558Y-54689D01*
X58445Y-54745D01*
X58951Y-55420D02*
X58839Y-55476D01*
X58558Y-55476D01*
X58445Y-55420D01*
X58389Y-55308D01*
X58389Y-55195D01*
X58445Y-55083D01*
X58558Y-55027D01*
X58839Y-55027D01*
X58951Y-54970D01*
X59514Y-54689D02*
X59514Y-55870D01*
X59514Y-54745D02*
X59626Y-54689D01*
X59851Y-54689D01*
X59964Y-54745D01*
X60020Y-54802D01*
X60076Y-54914D01*
X60076Y-55251D01*
X60020Y-55364D01*
X59964Y-55420D01*
X59851Y-55476D01*
X59626Y-55476D01*
X59514Y-55420D01*
X60582Y-55364D02*
X60639Y-55420D01*
X60582Y-55476D01*
X60526Y-55420D01*
X60582Y-55364D01*
X60582Y-55476D01*
X60582Y-54745D02*
X60639Y-54802D01*
X60582Y-54858D01*
X60526Y-54802D01*
X60582Y-54745D01*
X60582Y-54858D01*
X51215Y-57379D02*
X51415Y-57579D01*
X51415Y-57379D02*
X51215Y-57579D01*
X52708Y-56776D02*
X52821Y-56776D01*
X52933Y-56832D01*
X52990Y-56888D01*
X53046Y-57001D01*
X53102Y-57226D01*
X53102Y-57507D01*
X53046Y-57732D01*
X52990Y-57844D01*
X52933Y-57901D01*
X52821Y-57957D01*
X52708Y-57957D01*
X52596Y-57901D01*
X52540Y-57844D01*
X52483Y-57732D01*
X52427Y-57507D01*
X52427Y-57226D01*
X52483Y-57001D01*
X52540Y-56888D01*
X52596Y-56832D01*
X52708Y-56776D01*
X53608Y-57844D02*
X53665Y-57901D01*
X53608Y-57957D01*
X53552Y-57901D01*
X53608Y-57844D01*
X53608Y-57957D01*
X54733Y-56776D02*
X54171Y-56776D01*
X54114Y-57338D01*
X54171Y-57282D01*
X54283Y-57226D01*
X54564Y-57226D01*
X54677Y-57282D01*
X54733Y-57338D01*
X54789Y-57451D01*
X54789Y-57732D01*
X54733Y-57844D01*
X54677Y-57901D01*
X54564Y-57957D01*
X54283Y-57957D01*
X54171Y-57901D01*
X54114Y-57844D01*
X55914Y-57957D02*
X55239Y-57957D01*
X55577Y-57957D02*
X55577Y-56776D01*
X55464Y-56944D01*
X55352Y-57057D01*
X55239Y-57113D01*
X56420Y-57957D02*
X56420Y-57169D01*
X56420Y-57282D02*
X56477Y-57226D01*
X56589Y-57169D01*
X56758Y-57169D01*
X56870Y-57226D01*
X56927Y-57338D01*
X56927Y-57957D01*
X56927Y-57338D02*
X56983Y-57226D01*
X57095Y-57169D01*
X57264Y-57169D01*
X57377Y-57226D01*
X57433Y-57338D01*
X57433Y-57957D01*
X57995Y-57957D02*
X57995Y-57169D01*
X57995Y-57282D02*
X58051Y-57226D01*
X58164Y-57169D01*
X58333Y-57169D01*
X58445Y-57226D01*
X58501Y-57338D01*
X58501Y-57957D01*
X58501Y-57338D02*
X58558Y-57226D01*
X58670Y-57169D01*
X58839Y-57169D01*
X58951Y-57226D01*
X59008Y-57338D01*
X59008Y-57957D01*
X61314Y-56719D02*
X60301Y-58238D01*
X62832Y-56776D02*
X62945Y-56776D01*
X63057Y-56832D01*
X63113Y-56888D01*
X63170Y-57001D01*
X63226Y-57226D01*
X63226Y-57507D01*
X63170Y-57732D01*
X63113Y-57844D01*
X63057Y-57901D01*
X62945Y-57957D01*
X62832Y-57957D01*
X62720Y-57901D01*
X62663Y-57844D01*
X62607Y-57732D01*
X62551Y-57507D01*
X62551Y-57226D01*
X62607Y-57001D01*
X62663Y-56888D01*
X62720Y-56832D01*
X62832Y-56776D01*
X63732Y-57844D02*
X63788Y-57901D01*
X63732Y-57957D01*
X63676Y-57901D01*
X63732Y-57844D01*
X63732Y-57957D01*
X64519Y-56776D02*
X64632Y-56776D01*
X64744Y-56832D01*
X64801Y-56888D01*
X64857Y-57001D01*
X64913Y-57226D01*
X64913Y-57507D01*
X64857Y-57732D01*
X64801Y-57844D01*
X64744Y-57901D01*
X64632Y-57957D01*
X64519Y-57957D01*
X64407Y-57901D01*
X64351Y-57844D01*
X64294Y-57732D01*
X64238Y-57507D01*
X64238Y-57226D01*
X64294Y-57001D01*
X64351Y-56888D01*
X64407Y-56832D01*
X64519Y-56776D01*
X65363Y-56888D02*
X65419Y-56832D01*
X65532Y-56776D01*
X65813Y-56776D01*
X65926Y-56832D01*
X65982Y-56888D01*
X66038Y-57001D01*
X66038Y-57113D01*
X65982Y-57282D01*
X65307Y-57957D01*
X66038Y-57957D01*
X66769Y-56776D02*
X66882Y-56776D01*
X66994Y-56832D01*
X67050Y-56888D01*
X67107Y-57001D01*
X67163Y-57226D01*
X67163Y-57507D01*
X67107Y-57732D01*
X67050Y-57844D01*
X66994Y-57901D01*
X66882Y-57957D01*
X66769Y-57957D01*
X66657Y-57901D01*
X66600Y-57844D01*
X66544Y-57732D01*
X66488Y-57507D01*
X66488Y-57226D01*
X66544Y-57001D01*
X66600Y-56888D01*
X66657Y-56832D01*
X66769Y-56776D01*
X67613Y-56776D02*
X67613Y-57001D01*
X68063Y-56776D02*
X68063Y-57001D01*
X69806Y-58407D02*
X69750Y-58350D01*
X69638Y-58182D01*
X69581Y-58069D01*
X69525Y-57901D01*
X69469Y-57619D01*
X69469Y-57394D01*
X69525Y-57113D01*
X69581Y-56944D01*
X69638Y-56832D01*
X69750Y-56663D01*
X69806Y-56607D01*
X70481Y-56776D02*
X70594Y-56776D01*
X70706Y-56832D01*
X70762Y-56888D01*
X70819Y-57001D01*
X70875Y-57226D01*
X70875Y-57507D01*
X70819Y-57732D01*
X70762Y-57844D01*
X70706Y-57901D01*
X70594Y-57957D01*
X70481Y-57957D01*
X70369Y-57901D01*
X70312Y-57844D01*
X70256Y-57732D01*
X70200Y-57507D01*
X70200Y-57226D01*
X70256Y-57001D01*
X70312Y-56888D01*
X70369Y-56832D01*
X70481Y-56776D01*
X72281Y-57957D02*
X72281Y-56776D01*
X72787Y-57957D02*
X72787Y-57338D01*
X72731Y-57226D01*
X72618Y-57169D01*
X72450Y-57169D01*
X72337Y-57226D01*
X72281Y-57282D01*
X73518Y-57957D02*
X73406Y-57901D01*
X73350Y-57844D01*
X73293Y-57732D01*
X73293Y-57394D01*
X73350Y-57282D01*
X73406Y-57226D01*
X73518Y-57169D01*
X73687Y-57169D01*
X73800Y-57226D01*
X73856Y-57282D01*
X73912Y-57394D01*
X73912Y-57732D01*
X73856Y-57844D01*
X73800Y-57901D01*
X73687Y-57957D01*
X73518Y-57957D01*
X74587Y-57957D02*
X74474Y-57901D01*
X74418Y-57788D01*
X74418Y-56776D01*
X75487Y-57901D02*
X75374Y-57957D01*
X75149Y-57957D01*
X75037Y-57901D01*
X74981Y-57788D01*
X74981Y-57338D01*
X75037Y-57226D01*
X75149Y-57169D01*
X75374Y-57169D01*
X75487Y-57226D01*
X75543Y-57338D01*
X75543Y-57451D01*
X74981Y-57563D01*
X75993Y-57901D02*
X76105Y-57957D01*
X76330Y-57957D01*
X76443Y-57901D01*
X76499Y-57788D01*
X76499Y-57732D01*
X76443Y-57619D01*
X76330Y-57563D01*
X76162Y-57563D01*
X76049Y-57507D01*
X75993Y-57394D01*
X75993Y-57338D01*
X76049Y-57226D01*
X76162Y-57169D01*
X76330Y-57169D01*
X76443Y-57226D01*
X77905Y-57507D02*
X78805Y-57507D01*
X78355Y-57957D02*
X78355Y-57057D01*
X80155Y-56776D02*
X80886Y-56776D01*
X80492Y-57226D01*
X80661Y-57226D01*
X80774Y-57282D01*
X80830Y-57338D01*
X80886Y-57451D01*
X80886Y-57732D01*
X80830Y-57844D01*
X80774Y-57901D01*
X80661Y-57957D01*
X80324Y-57957D01*
X80211Y-57901D01*
X80155Y-57844D01*
X81899Y-57169D02*
X81899Y-57957D01*
X81617Y-56719D02*
X81336Y-57563D01*
X82067Y-57563D01*
X83361Y-57901D02*
X83473Y-57957D01*
X83698Y-57957D01*
X83811Y-57901D01*
X83867Y-57788D01*
X83867Y-57732D01*
X83811Y-57619D01*
X83698Y-57563D01*
X83530Y-57563D01*
X83417Y-57507D01*
X83361Y-57394D01*
X83361Y-57338D01*
X83417Y-57226D01*
X83530Y-57169D01*
X83698Y-57169D01*
X83811Y-57226D01*
X84542Y-57957D02*
X84429Y-57901D01*
X84373Y-57788D01*
X84373Y-56776D01*
X85161Y-57957D02*
X85048Y-57901D01*
X84992Y-57844D01*
X84936Y-57732D01*
X84936Y-57394D01*
X84992Y-57282D01*
X85048Y-57226D01*
X85161Y-57169D01*
X85329Y-57169D01*
X85442Y-57226D01*
X85498Y-57282D01*
X85554Y-57394D01*
X85554Y-57732D01*
X85498Y-57844D01*
X85442Y-57901D01*
X85329Y-57957D01*
X85161Y-57957D01*
X85892Y-57169D02*
X86342Y-57169D01*
X86060Y-56776D02*
X86060Y-57788D01*
X86117Y-57901D01*
X86229Y-57957D01*
X86342Y-57957D01*
X86679Y-57901D02*
X86792Y-57957D01*
X87017Y-57957D01*
X87129Y-57901D01*
X87185Y-57788D01*
X87185Y-57732D01*
X87129Y-57619D01*
X87017Y-57563D01*
X86848Y-57563D01*
X86735Y-57507D01*
X86679Y-57394D01*
X86679Y-57338D01*
X86735Y-57226D01*
X86848Y-57169D01*
X87017Y-57169D01*
X87129Y-57226D01*
X87579Y-58407D02*
X87635Y-58350D01*
X87748Y-58182D01*
X87804Y-58069D01*
X87860Y-57901D01*
X87917Y-57619D01*
X87917Y-57394D01*
X87860Y-57113D01*
X87804Y-56944D01*
X87748Y-56832D01*
X87635Y-56663D01*
X87579Y-56607D01*
G54D12*
X51415Y-59038D02*
G75*
G03X51415Y-59038I-125J0D01*
G74*
G01*
G54D13*
X52708Y-58335D02*
X52821Y-58335D01*
X52933Y-58391D01*
X52990Y-58447D01*
X53046Y-58560D01*
X53102Y-58785D01*
X53102Y-59066D01*
X53046Y-59291D01*
X52990Y-59403D01*
X52933Y-59460D01*
X52821Y-59516D01*
X52708Y-59516D01*
X52596Y-59460D01*
X52540Y-59403D01*
X52483Y-59291D01*
X52427Y-59066D01*
X52427Y-58785D01*
X52483Y-58560D01*
X52540Y-58447D01*
X52596Y-58391D01*
X52708Y-58335D01*
X53608Y-59403D02*
X53665Y-59460D01*
X53608Y-59516D01*
X53552Y-59460D01*
X53608Y-59403D01*
X53608Y-59516D01*
X54677Y-58335D02*
X54452Y-58335D01*
X54339Y-58391D01*
X54283Y-58447D01*
X54171Y-58616D01*
X54114Y-58841D01*
X54114Y-59291D01*
X54171Y-59403D01*
X54227Y-59460D01*
X54339Y-59516D01*
X54564Y-59516D01*
X54677Y-59460D01*
X54733Y-59403D01*
X54789Y-59291D01*
X54789Y-59010D01*
X54733Y-58897D01*
X54677Y-58841D01*
X54564Y-58785D01*
X54339Y-58785D01*
X54227Y-58841D01*
X54171Y-58897D01*
X54114Y-59010D01*
X55802Y-58728D02*
X55802Y-59516D01*
X55521Y-58278D02*
X55239Y-59122D01*
X55970Y-59122D01*
X56420Y-59516D02*
X56420Y-58728D01*
X56420Y-58841D02*
X56477Y-58785D01*
X56589Y-58728D01*
X56758Y-58728D01*
X56870Y-58785D01*
X56927Y-58897D01*
X56927Y-59516D01*
X56927Y-58897D02*
X56983Y-58785D01*
X57095Y-58728D01*
X57264Y-58728D01*
X57377Y-58785D01*
X57433Y-58897D01*
X57433Y-59516D01*
X57995Y-59516D02*
X57995Y-58728D01*
X57995Y-58841D02*
X58051Y-58785D01*
X58164Y-58728D01*
X58333Y-58728D01*
X58445Y-58785D01*
X58501Y-58897D01*
X58501Y-59516D01*
X58501Y-58897D02*
X58558Y-58785D01*
X58670Y-58728D01*
X58839Y-58728D01*
X58951Y-58785D01*
X59008Y-58897D01*
X59008Y-59516D01*
X61314Y-58278D02*
X60301Y-59797D01*
X62832Y-58335D02*
X62945Y-58335D01*
X63057Y-58391D01*
X63113Y-58447D01*
X63170Y-58560D01*
X63226Y-58785D01*
X63226Y-59066D01*
X63170Y-59291D01*
X63113Y-59403D01*
X63057Y-59460D01*
X62945Y-59516D01*
X62832Y-59516D01*
X62720Y-59460D01*
X62663Y-59403D01*
X62607Y-59291D01*
X62551Y-59066D01*
X62551Y-58785D01*
X62607Y-58560D01*
X62663Y-58447D01*
X62720Y-58391D01*
X62832Y-58335D01*
X63732Y-59403D02*
X63788Y-59460D01*
X63732Y-59516D01*
X63676Y-59460D01*
X63732Y-59403D01*
X63732Y-59516D01*
X64519Y-58335D02*
X64632Y-58335D01*
X64744Y-58391D01*
X64801Y-58447D01*
X64857Y-58560D01*
X64913Y-58785D01*
X64913Y-59066D01*
X64857Y-59291D01*
X64801Y-59403D01*
X64744Y-59460D01*
X64632Y-59516D01*
X64519Y-59516D01*
X64407Y-59460D01*
X64351Y-59403D01*
X64294Y-59291D01*
X64238Y-59066D01*
X64238Y-58785D01*
X64294Y-58560D01*
X64351Y-58447D01*
X64407Y-58391D01*
X64519Y-58335D01*
X65363Y-58447D02*
X65419Y-58391D01*
X65532Y-58335D01*
X65813Y-58335D01*
X65926Y-58391D01*
X65982Y-58447D01*
X66038Y-58560D01*
X66038Y-58672D01*
X65982Y-58841D01*
X65307Y-59516D01*
X66038Y-59516D01*
X67107Y-58335D02*
X66544Y-58335D01*
X66488Y-58897D01*
X66544Y-58841D01*
X66657Y-58785D01*
X66938Y-58785D01*
X67050Y-58841D01*
X67107Y-58897D01*
X67163Y-59010D01*
X67163Y-59291D01*
X67107Y-59403D01*
X67050Y-59460D01*
X66938Y-59516D01*
X66657Y-59516D01*
X66544Y-59460D01*
X66488Y-59403D01*
X67613Y-58335D02*
X67613Y-58560D01*
X68063Y-58335D02*
X68063Y-58560D01*
X69806Y-59966D02*
X69750Y-59910D01*
X69638Y-59741D01*
X69581Y-59628D01*
X69525Y-59460D01*
X69469Y-59178D01*
X69469Y-58953D01*
X69525Y-58672D01*
X69581Y-58503D01*
X69638Y-58391D01*
X69750Y-58222D01*
X69806Y-58166D01*
X70425Y-58841D02*
X70312Y-58785D01*
X70256Y-58728D01*
X70200Y-58616D01*
X70200Y-58560D01*
X70256Y-58447D01*
X70312Y-58391D01*
X70425Y-58335D01*
X70650Y-58335D01*
X70762Y-58391D01*
X70819Y-58447D01*
X70875Y-58560D01*
X70875Y-58616D01*
X70819Y-58728D01*
X70762Y-58785D01*
X70650Y-58841D01*
X70425Y-58841D01*
X70312Y-58897D01*
X70256Y-58953D01*
X70200Y-59066D01*
X70200Y-59291D01*
X70256Y-59403D01*
X70312Y-59460D01*
X70425Y-59516D01*
X70650Y-59516D01*
X70762Y-59460D01*
X70819Y-59403D01*
X70875Y-59291D01*
X70875Y-59066D01*
X70819Y-58953D01*
X70762Y-58897D01*
X70650Y-58841D01*
X71325Y-58447D02*
X71381Y-58391D01*
X71494Y-58335D01*
X71775Y-58335D01*
X71887Y-58391D01*
X71943Y-58447D01*
X72000Y-58560D01*
X72000Y-58672D01*
X71943Y-58841D01*
X71269Y-59516D01*
X72000Y-59516D01*
X73406Y-59516D02*
X73406Y-58335D01*
X73912Y-59516D02*
X73912Y-58897D01*
X73856Y-58785D01*
X73743Y-58728D01*
X73575Y-58728D01*
X73462Y-58785D01*
X73406Y-58841D01*
X74643Y-59516D02*
X74531Y-59460D01*
X74474Y-59403D01*
X74418Y-59291D01*
X74418Y-58953D01*
X74474Y-58841D01*
X74531Y-58785D01*
X74643Y-58728D01*
X74812Y-58728D01*
X74924Y-58785D01*
X74981Y-58841D01*
X75037Y-58953D01*
X75037Y-59291D01*
X74981Y-59403D01*
X74924Y-59460D01*
X74812Y-59516D01*
X74643Y-59516D01*
X75712Y-59516D02*
X75599Y-59460D01*
X75543Y-59347D01*
X75543Y-58335D01*
X76612Y-59460D02*
X76499Y-59516D01*
X76274Y-59516D01*
X76162Y-59460D01*
X76105Y-59347D01*
X76105Y-58897D01*
X76162Y-58785D01*
X76274Y-58728D01*
X76499Y-58728D01*
X76612Y-58785D01*
X76668Y-58897D01*
X76668Y-59010D01*
X76105Y-59122D01*
X77118Y-59460D02*
X77230Y-59516D01*
X77455Y-59516D01*
X77568Y-59460D01*
X77624Y-59347D01*
X77624Y-59291D01*
X77568Y-59178D01*
X77455Y-59122D01*
X77287Y-59122D01*
X77174Y-59066D01*
X77118Y-58953D01*
X77118Y-58897D01*
X77174Y-58785D01*
X77287Y-58728D01*
X77455Y-58728D01*
X77568Y-58785D01*
X78018Y-59966D02*
X78074Y-59910D01*
X78186Y-59741D01*
X78243Y-59628D01*
X78299Y-59460D01*
X78355Y-59178D01*
X78355Y-58953D01*
X78299Y-58672D01*
X78243Y-58503D01*
X78186Y-58391D01*
X78074Y-58222D01*
X78018Y-58166D01*
M02*
