M48
;DRILL file {Pcbnew (22-Jun-2014 BZR 4027)-stable} date Sun 04 Dec 2016 05:29:29 PM CST
;FORMAT={-:-/ absolute / inch / decimal}
FMAT,2
INCH,TZ
T1C0.020
T2C0.025
%
G90
G05
M72
T2
X5.248Y-3.706
X5.248Y-4.16
X5.322Y-4.237
X5.3234Y-4.1564
X5.402Y-4.678
X5.453Y-3.89
X5.4548Y-4.8787
X5.476Y-3.689
X5.499Y-3.889
X5.4992Y-4.5633
X5.4992Y-4.7586
X5.542Y-4.6
X5.579Y-4.234
X5.5815Y-4.2885
X5.583Y-4.34
X5.583Y-5.037
X5.619Y-3.4905
X5.623Y-4.377
X5.623Y-5.114
X5.637Y-3.538
X5.643Y-3.889
X5.661Y-3.689
X5.662Y-4.408
X5.662Y-4.56
X5.695Y-4.45
X5.695Y-4.636
X5.712Y-3.571
X5.733Y-4.488
X5.733Y-4.719
X5.745Y-3.611
X5.77Y-4.518
X5.77Y-4.797
X5.772Y-3.651
X5.796Y-3.6927
X5.8168Y-4.4858
X5.8168Y-4.9148
X5.831Y-3.6435
X5.865Y-3.908
X5.8793Y-4.4905
X5.9164Y-4.4464
X5.955Y-4.521
X5.9928Y-4.3912
X5.9955Y-3.8605
X6.031Y-3.908
X6.031Y-4.31
X6.1305Y-3.684
X6.1313Y-3.8605
X6.181Y-4.2301
X6.192Y-3.684
X6.193Y-3.57
X6.245Y-3.568
X6.245Y-3.684
X6.252Y-4.353
X6.2535Y-4.974
X6.3405Y-3.519
X6.384Y-4.482
X6.384Y-4.599
X6.3915Y-3.8625
X6.432Y-4.4835
X6.432Y-4.677
X6.449Y-3.564
X6.449Y-3.685
X6.48Y-4.482
X6.48Y-4.758
X6.53Y-4.482
X6.53Y-4.84
X6.6555Y-3.687
X6.8929Y-4.7593
X6.8929Y-4.8384
X6.8936Y-4.6802
X6.896Y-5.078
X6.897Y-4.598
X7.009Y-4.563
X7.009Y-4.88
X7.152Y-3.566
X7.152Y-3.885
X7.206Y-3.523
X7.206Y-3.768
X7.2735Y-3.6435
X7.2735Y-4.287
X7.3935Y-4.466
X7.3935Y-4.617
T1
X6.7583Y-3.6858G85X6.8383Y-3.6858
G05
X6.7583Y-3.7256G85X6.8383Y-3.7256
G05
X6.7583Y-3.7653G85X6.8383Y-3.7653
G05
X6.7583Y-3.8051G85X6.8383Y-3.8051
G05
X6.7583Y-3.8448G85X6.8383Y-3.8448
G05
X6.7583Y-3.8846G85X6.8383Y-3.8846
G05
X6.7583Y-3.9244G85X6.8383Y-3.9244
G05
X6.7583Y-3.9641G85X6.8383Y-3.9641
G05
X6.7583Y-4.0039G85X6.8383Y-4.0039
G05
X6.7583Y-4.0437G85X6.8383Y-4.0437
G05
X6.7583Y-4.0834G85X6.8383Y-4.0834
G05
X6.7583Y-4.1232G85X6.8383Y-4.1232
G05
X6.7583Y-4.163G85X6.8383Y-4.163
G05
X6.7583Y-4.2027G85X6.8383Y-4.2027
G05
X6.7583Y-4.2425G85X6.8383Y-4.2425
G05
X6.7583Y-4.2822G85X6.8383Y-4.2822
G05
X6.7583Y-4.322G85X6.8383Y-4.322
G05
X6.7583Y-4.4811G85X6.8383Y-4.4811
G05
X6.7583Y-4.5208G85X6.8383Y-4.5208
G05
X6.7583Y-4.5606G85X6.8383Y-4.5606
G05
X6.7583Y-4.6004G85X6.8383Y-4.6004
G05
X6.7583Y-4.6401G85X6.8383Y-4.6401
G05
X6.7583Y-4.6799G85X6.8383Y-4.6799
G05
X6.7583Y-4.7196G85X6.8383Y-4.7196
G05
X6.7583Y-4.7594G85X6.8383Y-4.7594
G05
X6.7583Y-4.7992G85X6.8383Y-4.7992
G05
X6.7583Y-4.8389G85X6.8383Y-4.8389
G05
X6.7583Y-4.8787G85X6.8383Y-4.8787
G05
X6.7583Y-4.9185G85X6.8383Y-4.9185
G05
X6.7583Y-4.9582G85X6.8383Y-4.9582
G05
X6.7583Y-4.998G85X6.8383Y-4.998
G05
X6.7583Y-5.0378G85X6.8383Y-5.0378
G05
X6.7583Y-5.0775G85X6.8383Y-5.0775
G05
X6.7583Y-5.1173G85X6.8383Y-5.1173
G05
T0
M30
