M48
;DRILL file {Pcbnew (22-Jun-2014 BZR 4027)-stable} date Thu 28 Jun 2018 06:29:00 PM CST
;FORMAT={-:-/ absolute / inch / decimal}
FMAT,2
INCH,TZ
T1C0.016
T2C0.032
%
G90
G05
M72
T1
X11.315Y-9.895
X11.32Y-10.245
X11.55Y-9.895
X13.355Y-10.08
X13.445Y-10.025
X13.525Y-9.825
X13.53Y-10.22
X13.59Y-10.055
X13.615Y-10.005
X13.735Y-10.185
X13.805Y-9.85
X13.895Y-10.2
X14.205Y-10.08
X14.24Y-10.2
X15.045Y-9.645
X15.05Y-9.84
T2
X15.82Y-9.99
X15.82Y-10.09
X15.82Y-10.19
X15.82Y-10.29
T0
M30
