G04 (created by PCBNEW (22-Jun-2014 BZR 4027)-stable) date Thu 28 Jun 2018 06:28:58 PM CST*
%MOIN*%
G04 Gerber Fmt 3.4, Leading zero omitted, Abs format*
%FSLAX34Y34*%
G01*
G70*
G90*
G04 APERTURE LIST*
%ADD10C,0.00393701*%
%ADD11C,0.00472441*%
%ADD12C,0.0019685*%
%ADD13C,0.00590551*%
%ADD14C,0.012*%
%ADD15C,0.0059*%
%ADD16C,0.005*%
%ADD17C,0.00492126*%
G04 APERTURE END LIST*
G54D10*
G54D11*
X114542Y-101048D02*
X114046Y-101048D01*
X111857Y-101048D02*
X112353Y-101048D01*
G54D12*
X111782Y-100067D02*
X111782Y-103532D01*
X114617Y-100067D02*
X111782Y-100067D01*
X114617Y-103532D02*
X114617Y-100067D01*
X111782Y-103532D02*
X114617Y-103532D01*
G54D13*
X111881Y-102528D02*
X114518Y-102528D01*
G54D11*
X114542Y-102528D02*
X114542Y-101048D01*
G54D13*
X111881Y-102528D02*
X111881Y-101071D01*
G54D11*
X111857Y-103414D02*
X111857Y-101048D01*
G54D13*
X114518Y-102528D02*
X114518Y-101071D01*
X111881Y-101071D02*
X114518Y-101071D01*
G54D12*
X140321Y-100754D02*
X141778Y-100754D01*
X140321Y-101345D02*
X141778Y-101345D01*
X140321Y-100754D02*
X140321Y-101345D01*
X141778Y-100754D02*
X141778Y-101345D01*
G54D13*
X140912Y-100813D02*
X141187Y-100813D01*
X141187Y-101286D02*
X140912Y-101286D01*
G54D12*
X136727Y-96660D02*
X136727Y-94927D01*
X133892Y-96660D02*
X136727Y-96660D01*
X133892Y-94927D02*
X133892Y-96660D01*
X136727Y-94927D02*
X133892Y-94927D01*
G54D13*
X136333Y-96463D02*
X134640Y-96463D01*
X134266Y-95124D02*
X136333Y-95124D01*
G54D12*
X136788Y-94889D02*
X135331Y-94889D01*
X136788Y-94298D02*
X135331Y-94298D01*
X136788Y-94889D02*
X136788Y-94298D01*
X135331Y-94889D02*
X135331Y-94298D01*
G54D13*
X136197Y-94830D02*
X135922Y-94830D01*
X135922Y-94357D02*
X136197Y-94357D01*
G54D12*
X133831Y-94298D02*
X135288Y-94298D01*
X133831Y-94889D02*
X135288Y-94889D01*
X133831Y-94298D02*
X133831Y-94889D01*
X135288Y-94298D02*
X135288Y-94889D01*
G54D13*
X134422Y-94357D02*
X134697Y-94357D01*
X134697Y-94830D02*
X134422Y-94830D01*
G54D12*
X144645Y-101871D02*
X144645Y-103328D01*
X144054Y-101871D02*
X144054Y-103328D01*
X144645Y-101871D02*
X144054Y-101871D01*
X144645Y-103328D02*
X144054Y-103328D01*
G54D13*
X144586Y-102462D02*
X144586Y-102737D01*
X144113Y-102737D02*
X144113Y-102462D01*
G54D12*
X132564Y-101122D02*
X132564Y-99665D01*
X133155Y-101122D02*
X133155Y-99665D01*
X132564Y-101122D02*
X133155Y-101122D01*
X132564Y-99665D02*
X133155Y-99665D01*
G54D13*
X132623Y-100531D02*
X132623Y-100256D01*
X133096Y-100256D02*
X133096Y-100531D01*
G54D12*
X133833Y-96690D02*
X135290Y-96690D01*
X133833Y-97281D02*
X135290Y-97281D01*
X133833Y-96690D02*
X133833Y-97281D01*
X135290Y-96690D02*
X135290Y-97281D01*
G54D13*
X134424Y-96749D02*
X134699Y-96749D01*
X134699Y-97222D02*
X134424Y-97222D01*
G54D12*
X137228Y-102095D02*
X135771Y-102095D01*
X137228Y-101504D02*
X135771Y-101504D01*
X137228Y-102095D02*
X137228Y-101504D01*
X135771Y-102095D02*
X135771Y-101504D01*
G54D13*
X136637Y-102036D02*
X136362Y-102036D01*
X136362Y-101563D02*
X136637Y-101563D01*
G54D12*
X137905Y-97967D02*
X137905Y-99424D01*
X137314Y-97967D02*
X137314Y-99424D01*
X137905Y-97967D02*
X137314Y-97967D01*
X137905Y-99424D02*
X137314Y-99424D01*
G54D13*
X137846Y-98558D02*
X137846Y-98833D01*
X137373Y-98833D02*
X137373Y-98558D01*
X140950Y-101550D02*
X143850Y-101550D01*
X143850Y-101550D02*
X143850Y-103650D01*
X143850Y-103650D02*
X140950Y-103650D01*
X140950Y-103650D02*
X140950Y-101550D01*
X111950Y-94150D02*
X114850Y-94150D01*
X114850Y-94150D02*
X114850Y-96250D01*
X114850Y-96250D02*
X111950Y-96250D01*
X111950Y-96250D02*
X111950Y-94150D01*
X155750Y-94150D02*
X158650Y-94150D01*
X158650Y-94150D02*
X158650Y-96250D01*
X158650Y-96250D02*
X155750Y-96250D01*
X155750Y-96250D02*
X155750Y-94150D01*
X130550Y-101250D02*
X133450Y-101250D01*
X133450Y-101250D02*
X133450Y-103350D01*
X133450Y-103350D02*
X130550Y-103350D01*
X130550Y-103350D02*
X130550Y-101250D01*
X137550Y-101550D02*
X140450Y-101550D01*
X140450Y-101550D02*
X140450Y-103650D01*
X140450Y-103650D02*
X137550Y-103650D01*
X137550Y-103650D02*
X137550Y-101550D01*
X140250Y-96250D02*
X137350Y-96250D01*
X137350Y-96250D02*
X137350Y-94150D01*
X137350Y-94150D02*
X140250Y-94150D01*
X140250Y-94150D02*
X140250Y-96250D01*
X143850Y-96250D02*
X140950Y-96250D01*
X140950Y-96250D02*
X140950Y-94150D01*
X140950Y-94150D02*
X143850Y-94150D01*
X143850Y-94150D02*
X143850Y-96250D01*
X133250Y-96250D02*
X130350Y-96250D01*
X130350Y-96250D02*
X130350Y-94150D01*
X130350Y-94150D02*
X133250Y-94150D01*
X133250Y-94150D02*
X133250Y-96250D01*
X127200Y-101250D02*
X130100Y-101250D01*
X130100Y-101250D02*
X130100Y-103350D01*
X130100Y-103350D02*
X127200Y-103350D01*
X127200Y-103350D02*
X127200Y-101250D01*
X111950Y-99950D02*
X111950Y-96650D01*
X111950Y-96650D02*
X113050Y-96650D01*
X113050Y-96650D02*
X113050Y-99950D01*
X113050Y-99950D02*
X111950Y-99950D01*
G54D14*
X158700Y-99400D02*
X158700Y-99400D01*
X157700Y-99400D02*
X158700Y-99400D01*
X158700Y-99400D02*
X158700Y-99400D01*
X158700Y-99400D02*
X158700Y-103400D01*
X158700Y-103400D02*
X157700Y-103400D01*
X157700Y-103400D02*
X157700Y-99400D01*
X157700Y-100400D02*
X158700Y-100400D01*
G54D13*
X136362Y-98134D02*
X136401Y-98134D01*
X136401Y-98134D02*
X136519Y-98252D01*
X136519Y-98252D02*
X136519Y-100535D01*
X136519Y-100535D02*
X136401Y-100653D01*
X136401Y-100653D02*
X134118Y-100653D01*
X134118Y-100653D02*
X134000Y-100535D01*
X134000Y-100535D02*
X134000Y-98252D01*
X134000Y-98252D02*
X134118Y-98134D01*
X134118Y-98134D02*
X136362Y-98134D01*
G54D15*
X136952Y-97780D02*
X136873Y-97701D01*
X136795Y-97701D02*
X136952Y-97858D01*
X136952Y-97937D02*
X136716Y-97701D01*
X136637Y-97701D02*
X136952Y-98016D01*
X136558Y-97701D02*
X136952Y-97701D01*
X136952Y-97701D02*
X136952Y-98095D01*
X136952Y-98095D02*
X136558Y-97701D01*
X133527Y-98095D02*
X133527Y-97701D01*
X133527Y-97701D02*
X133921Y-97701D01*
X133921Y-101086D02*
X133527Y-101086D01*
X133527Y-101086D02*
X133527Y-100692D01*
X136992Y-100692D02*
X136992Y-101086D01*
X136992Y-101086D02*
X136598Y-101086D01*
G54D16*
X136321Y-98444D02*
G75*
G03X136321Y-98444I-111J0D01*
G74*
G01*
G54D12*
X114671Y-102954D02*
X116128Y-102954D01*
X114671Y-103545D02*
X116128Y-103545D01*
X114671Y-102954D02*
X114671Y-103545D01*
X116128Y-102954D02*
X116128Y-103545D01*
G54D13*
X115262Y-103013D02*
X115537Y-103013D01*
X115537Y-103486D02*
X115262Y-103486D01*
G54D17*
X111950Y-101112D02*
X111950Y-101367D01*
X111959Y-101397D01*
X111968Y-101412D01*
X111987Y-101427D01*
X112025Y-101427D01*
X112043Y-101412D01*
X112053Y-101397D01*
X112062Y-101367D01*
X112062Y-101112D01*
X112146Y-101142D02*
X112156Y-101127D01*
X112174Y-101112D01*
X112221Y-101112D01*
X112240Y-101127D01*
X112249Y-101142D01*
X112259Y-101172D01*
X112259Y-101202D01*
X112249Y-101247D01*
X112137Y-101427D01*
X112259Y-101427D01*
X111975Y-101737D02*
X112069Y-101737D01*
X111957Y-101827D02*
X112022Y-101512D01*
X112088Y-101827D01*
X112153Y-101827D02*
X112153Y-101512D01*
X112219Y-101737D01*
X112285Y-101512D01*
X112285Y-101827D01*
X112369Y-101812D02*
X112397Y-101827D01*
X112444Y-101827D01*
X112463Y-101812D01*
X112472Y-101797D01*
X112481Y-101767D01*
X112481Y-101737D01*
X112472Y-101707D01*
X112463Y-101692D01*
X112444Y-101677D01*
X112406Y-101662D01*
X112388Y-101647D01*
X112378Y-101632D01*
X112369Y-101602D01*
X112369Y-101572D01*
X112378Y-101542D01*
X112388Y-101527D01*
X112406Y-101512D01*
X112453Y-101512D01*
X112481Y-101527D01*
X112669Y-101827D02*
X112556Y-101827D01*
X112613Y-101827D02*
X112613Y-101512D01*
X112594Y-101557D01*
X112575Y-101587D01*
X112556Y-101602D01*
X112856Y-101827D02*
X112744Y-101827D01*
X112800Y-101827D02*
X112800Y-101512D01*
X112781Y-101557D01*
X112763Y-101587D01*
X112744Y-101602D01*
X113044Y-101827D02*
X112931Y-101827D01*
X112988Y-101827D02*
X112988Y-101512D01*
X112969Y-101557D01*
X112950Y-101587D01*
X112931Y-101602D01*
X113109Y-101512D02*
X113241Y-101512D01*
X113156Y-101827D01*
X113316Y-101707D02*
X113466Y-101707D01*
X113541Y-101512D02*
X113663Y-101512D01*
X113597Y-101632D01*
X113625Y-101632D01*
X113644Y-101647D01*
X113653Y-101662D01*
X113663Y-101692D01*
X113663Y-101767D01*
X113653Y-101797D01*
X113644Y-101812D01*
X113625Y-101827D01*
X113569Y-101827D01*
X113550Y-101812D01*
X113541Y-101797D01*
X113747Y-101797D02*
X113756Y-101812D01*
X113747Y-101827D01*
X113738Y-101812D01*
X113747Y-101797D01*
X113747Y-101827D01*
X113822Y-101512D02*
X113944Y-101512D01*
X113878Y-101632D01*
X113906Y-101632D01*
X113925Y-101647D01*
X113934Y-101662D01*
X113944Y-101692D01*
X113944Y-101767D01*
X113934Y-101797D01*
X113925Y-101812D01*
X113906Y-101827D01*
X113850Y-101827D01*
X113831Y-101812D01*
X113822Y-101797D01*
X140067Y-101327D02*
X140001Y-101177D01*
X139954Y-101327D02*
X139954Y-101012D01*
X140029Y-101012D01*
X140048Y-101027D01*
X140057Y-101042D01*
X140067Y-101072D01*
X140067Y-101117D01*
X140057Y-101147D01*
X140048Y-101162D01*
X140029Y-101177D01*
X139954Y-101177D01*
X140254Y-101327D02*
X140142Y-101327D01*
X140198Y-101327D02*
X140198Y-101012D01*
X140179Y-101057D01*
X140160Y-101087D01*
X140142Y-101102D01*
X139414Y-101327D02*
X139301Y-101327D01*
X139357Y-101327D02*
X139357Y-101012D01*
X139339Y-101057D01*
X139320Y-101087D01*
X139301Y-101102D01*
X139535Y-101012D02*
X139554Y-101012D01*
X139573Y-101027D01*
X139582Y-101042D01*
X139592Y-101072D01*
X139601Y-101132D01*
X139601Y-101207D01*
X139592Y-101267D01*
X139582Y-101297D01*
X139573Y-101312D01*
X139554Y-101327D01*
X139535Y-101327D01*
X139517Y-101312D01*
X139507Y-101297D01*
X139498Y-101267D01*
X139489Y-101207D01*
X139489Y-101132D01*
X139498Y-101072D01*
X139507Y-101042D01*
X139517Y-101027D01*
X139535Y-101012D01*
X139685Y-101327D02*
X139685Y-101012D01*
X139798Y-101327D02*
X139714Y-101147D01*
X139798Y-101012D02*
X139685Y-101192D01*
X121337Y-97206D02*
X121365Y-97221D01*
X121412Y-97221D01*
X121431Y-97206D01*
X121440Y-97191D01*
X121450Y-97161D01*
X121450Y-97131D01*
X121440Y-97101D01*
X121431Y-97086D01*
X121412Y-97071D01*
X121375Y-97056D01*
X121356Y-97041D01*
X121346Y-97026D01*
X121337Y-96996D01*
X121337Y-96966D01*
X121346Y-96936D01*
X121356Y-96921D01*
X121375Y-96906D01*
X121421Y-96906D01*
X121450Y-96921D01*
X121515Y-96906D02*
X121562Y-97221D01*
X121600Y-96996D01*
X121637Y-97221D01*
X121684Y-96906D01*
X121862Y-97221D02*
X121749Y-97221D01*
X121806Y-97221D02*
X121806Y-96906D01*
X121787Y-96951D01*
X121768Y-96981D01*
X121749Y-96996D01*
X121465Y-97306D02*
X121465Y-97561D01*
X121474Y-97591D01*
X121484Y-97606D01*
X121502Y-97621D01*
X121540Y-97621D01*
X121559Y-97606D01*
X121568Y-97591D01*
X121577Y-97561D01*
X121577Y-97306D01*
X121671Y-97621D02*
X121671Y-97306D01*
X121746Y-97306D01*
X121765Y-97321D01*
X121774Y-97336D01*
X121784Y-97366D01*
X121784Y-97411D01*
X121774Y-97441D01*
X121765Y-97456D01*
X121746Y-97471D01*
X121671Y-97471D01*
X148697Y-97206D02*
X148725Y-97221D01*
X148772Y-97221D01*
X148791Y-97206D01*
X148800Y-97191D01*
X148810Y-97161D01*
X148810Y-97131D01*
X148800Y-97101D01*
X148791Y-97086D01*
X148772Y-97071D01*
X148735Y-97056D01*
X148716Y-97041D01*
X148706Y-97026D01*
X148697Y-96996D01*
X148697Y-96966D01*
X148706Y-96936D01*
X148716Y-96921D01*
X148735Y-96906D01*
X148781Y-96906D01*
X148810Y-96921D01*
X148875Y-96906D02*
X148922Y-97221D01*
X148960Y-96996D01*
X148997Y-97221D01*
X149044Y-96906D01*
X149147Y-97041D02*
X149128Y-97026D01*
X149119Y-97011D01*
X149109Y-96981D01*
X149109Y-96966D01*
X149119Y-96936D01*
X149128Y-96921D01*
X149147Y-96906D01*
X149184Y-96906D01*
X149203Y-96921D01*
X149213Y-96936D01*
X149222Y-96966D01*
X149222Y-96981D01*
X149213Y-97011D01*
X149203Y-97026D01*
X149184Y-97041D01*
X149147Y-97041D01*
X149128Y-97056D01*
X149119Y-97071D01*
X149109Y-97101D01*
X149109Y-97161D01*
X149119Y-97191D01*
X149128Y-97206D01*
X149147Y-97221D01*
X149184Y-97221D01*
X149203Y-97206D01*
X149213Y-97191D01*
X149222Y-97161D01*
X149222Y-97101D01*
X149213Y-97071D01*
X149203Y-97056D01*
X149184Y-97041D01*
X148894Y-97306D02*
X149025Y-97621D01*
X149025Y-97306D02*
X148894Y-97621D01*
X148697Y-100456D02*
X148725Y-100471D01*
X148772Y-100471D01*
X148791Y-100456D01*
X148800Y-100441D01*
X148810Y-100411D01*
X148810Y-100381D01*
X148800Y-100351D01*
X148791Y-100336D01*
X148772Y-100321D01*
X148735Y-100306D01*
X148716Y-100291D01*
X148706Y-100276D01*
X148697Y-100246D01*
X148697Y-100216D01*
X148706Y-100186D01*
X148716Y-100171D01*
X148735Y-100156D01*
X148781Y-100156D01*
X148810Y-100171D01*
X148875Y-100156D02*
X148922Y-100471D01*
X148960Y-100246D01*
X148997Y-100471D01*
X149044Y-100156D01*
X149203Y-100156D02*
X149166Y-100156D01*
X149147Y-100171D01*
X149138Y-100186D01*
X149119Y-100231D01*
X149109Y-100291D01*
X149109Y-100411D01*
X149119Y-100441D01*
X149128Y-100456D01*
X149147Y-100471D01*
X149184Y-100471D01*
X149203Y-100456D01*
X149213Y-100441D01*
X149222Y-100411D01*
X149222Y-100336D01*
X149213Y-100306D01*
X149203Y-100291D01*
X149184Y-100276D01*
X149147Y-100276D01*
X149128Y-100291D01*
X149119Y-100306D01*
X149109Y-100336D01*
X148974Y-100706D02*
X149002Y-100721D01*
X149011Y-100736D01*
X149020Y-100766D01*
X149020Y-100811D01*
X149011Y-100841D01*
X149002Y-100856D01*
X148983Y-100871D01*
X148908Y-100871D01*
X148908Y-100556D01*
X148974Y-100556D01*
X148992Y-100571D01*
X149002Y-100586D01*
X149011Y-100616D01*
X149011Y-100646D01*
X149002Y-100676D01*
X148992Y-100691D01*
X148974Y-100706D01*
X148908Y-100706D01*
X121277Y-100466D02*
X121305Y-100481D01*
X121352Y-100481D01*
X121371Y-100466D01*
X121380Y-100451D01*
X121390Y-100421D01*
X121390Y-100391D01*
X121380Y-100361D01*
X121371Y-100346D01*
X121352Y-100331D01*
X121315Y-100316D01*
X121296Y-100301D01*
X121286Y-100286D01*
X121277Y-100256D01*
X121277Y-100226D01*
X121286Y-100196D01*
X121296Y-100181D01*
X121315Y-100166D01*
X121361Y-100166D01*
X121390Y-100181D01*
X121455Y-100166D02*
X121502Y-100481D01*
X121540Y-100256D01*
X121577Y-100481D01*
X121624Y-100166D01*
X121689Y-100196D02*
X121699Y-100181D01*
X121718Y-100166D01*
X121764Y-100166D01*
X121783Y-100181D01*
X121793Y-100196D01*
X121802Y-100226D01*
X121802Y-100256D01*
X121793Y-100301D01*
X121680Y-100481D01*
X121802Y-100481D01*
X121189Y-100861D02*
X121189Y-100546D01*
X121236Y-100546D01*
X121264Y-100561D01*
X121283Y-100591D01*
X121292Y-100621D01*
X121302Y-100681D01*
X121302Y-100726D01*
X121292Y-100786D01*
X121283Y-100816D01*
X121264Y-100846D01*
X121236Y-100861D01*
X121189Y-100861D01*
X121424Y-100546D02*
X121461Y-100546D01*
X121480Y-100561D01*
X121499Y-100591D01*
X121508Y-100651D01*
X121508Y-100756D01*
X121499Y-100816D01*
X121480Y-100846D01*
X121461Y-100861D01*
X121424Y-100861D01*
X121405Y-100846D01*
X121386Y-100816D01*
X121377Y-100756D01*
X121377Y-100651D01*
X121386Y-100591D01*
X121405Y-100561D01*
X121424Y-100546D01*
X121574Y-100546D02*
X121620Y-100861D01*
X121658Y-100636D01*
X121695Y-100861D01*
X121742Y-100546D01*
X121817Y-100861D02*
X121817Y-100546D01*
X121930Y-100861D01*
X121930Y-100546D01*
X150397Y-98806D02*
X150425Y-98821D01*
X150472Y-98821D01*
X150491Y-98806D01*
X150500Y-98791D01*
X150510Y-98761D01*
X150510Y-98731D01*
X150500Y-98701D01*
X150491Y-98686D01*
X150472Y-98671D01*
X150435Y-98656D01*
X150416Y-98641D01*
X150406Y-98626D01*
X150397Y-98596D01*
X150397Y-98566D01*
X150406Y-98536D01*
X150416Y-98521D01*
X150435Y-98506D01*
X150481Y-98506D01*
X150510Y-98521D01*
X150575Y-98506D02*
X150622Y-98821D01*
X150660Y-98596D01*
X150697Y-98821D01*
X150744Y-98506D01*
X150913Y-98506D02*
X150819Y-98506D01*
X150809Y-98656D01*
X150819Y-98641D01*
X150838Y-98626D01*
X150884Y-98626D01*
X150903Y-98641D01*
X150913Y-98656D01*
X150922Y-98686D01*
X150922Y-98761D01*
X150913Y-98791D01*
X150903Y-98806D01*
X150884Y-98821D01*
X150838Y-98821D01*
X150819Y-98806D01*
X150809Y-98791D01*
X150613Y-99181D02*
X150706Y-99181D01*
X150594Y-99271D02*
X150660Y-98956D01*
X150725Y-99271D01*
X122997Y-98806D02*
X123025Y-98821D01*
X123072Y-98821D01*
X123091Y-98806D01*
X123100Y-98791D01*
X123110Y-98761D01*
X123110Y-98731D01*
X123100Y-98701D01*
X123091Y-98686D01*
X123072Y-98671D01*
X123035Y-98656D01*
X123016Y-98641D01*
X123006Y-98626D01*
X122997Y-98596D01*
X122997Y-98566D01*
X123006Y-98536D01*
X123016Y-98521D01*
X123035Y-98506D01*
X123081Y-98506D01*
X123110Y-98521D01*
X123175Y-98506D02*
X123222Y-98821D01*
X123260Y-98596D01*
X123297Y-98821D01*
X123344Y-98506D01*
X123503Y-98611D02*
X123503Y-98821D01*
X123456Y-98491D02*
X123409Y-98716D01*
X123531Y-98716D01*
X122847Y-99271D02*
X122781Y-99121D01*
X122735Y-99271D02*
X122735Y-98956D01*
X122810Y-98956D01*
X122828Y-98971D01*
X122838Y-98986D01*
X122847Y-99016D01*
X122847Y-99061D01*
X122838Y-99091D01*
X122828Y-99106D01*
X122810Y-99121D01*
X122735Y-99121D01*
X122931Y-99271D02*
X122931Y-98956D01*
X123128Y-98971D02*
X123110Y-98956D01*
X123081Y-98956D01*
X123053Y-98971D01*
X123035Y-99001D01*
X123025Y-99031D01*
X123016Y-99091D01*
X123016Y-99136D01*
X123025Y-99196D01*
X123035Y-99226D01*
X123053Y-99256D01*
X123081Y-99271D01*
X123100Y-99271D01*
X123128Y-99256D01*
X123138Y-99241D01*
X123138Y-99136D01*
X123100Y-99136D01*
X123222Y-99271D02*
X123222Y-98956D01*
X123222Y-99106D02*
X123334Y-99106D01*
X123334Y-99271D02*
X123334Y-98956D01*
X123400Y-98956D02*
X123513Y-98956D01*
X123456Y-99271D02*
X123456Y-98956D01*
X116987Y-99212D02*
X117015Y-99227D01*
X117062Y-99227D01*
X117081Y-99212D01*
X117090Y-99197D01*
X117100Y-99167D01*
X117100Y-99137D01*
X117090Y-99107D01*
X117081Y-99092D01*
X117062Y-99077D01*
X117025Y-99062D01*
X117006Y-99047D01*
X116996Y-99032D01*
X116987Y-99002D01*
X116987Y-98972D01*
X116996Y-98942D01*
X117006Y-98927D01*
X117025Y-98912D01*
X117071Y-98912D01*
X117100Y-98927D01*
X117165Y-98912D02*
X117212Y-99227D01*
X117250Y-99002D01*
X117287Y-99227D01*
X117334Y-98912D01*
X117390Y-98912D02*
X117512Y-98912D01*
X117446Y-99032D01*
X117474Y-99032D01*
X117493Y-99047D01*
X117503Y-99062D01*
X117512Y-99092D01*
X117512Y-99167D01*
X117503Y-99197D01*
X117493Y-99212D01*
X117474Y-99227D01*
X117418Y-99227D01*
X117399Y-99212D01*
X117390Y-99197D01*
X117012Y-98777D02*
X116918Y-98777D01*
X116918Y-98462D01*
X117078Y-98612D02*
X117143Y-98612D01*
X117171Y-98777D02*
X117078Y-98777D01*
X117078Y-98462D01*
X117171Y-98462D01*
X117321Y-98612D02*
X117256Y-98612D01*
X117256Y-98777D02*
X117256Y-98462D01*
X117349Y-98462D01*
X117396Y-98462D02*
X117509Y-98462D01*
X117453Y-98777D02*
X117453Y-98462D01*
X146997Y-98806D02*
X147025Y-98821D01*
X147072Y-98821D01*
X147091Y-98806D01*
X147100Y-98791D01*
X147110Y-98761D01*
X147110Y-98731D01*
X147100Y-98701D01*
X147091Y-98686D01*
X147072Y-98671D01*
X147035Y-98656D01*
X147016Y-98641D01*
X147006Y-98626D01*
X146997Y-98596D01*
X146997Y-98566D01*
X147006Y-98536D01*
X147016Y-98521D01*
X147035Y-98506D01*
X147081Y-98506D01*
X147110Y-98521D01*
X147175Y-98506D02*
X147222Y-98821D01*
X147260Y-98596D01*
X147297Y-98821D01*
X147344Y-98506D01*
X147428Y-98821D02*
X147466Y-98821D01*
X147484Y-98806D01*
X147494Y-98791D01*
X147513Y-98746D01*
X147522Y-98686D01*
X147522Y-98566D01*
X147513Y-98536D01*
X147503Y-98521D01*
X147484Y-98506D01*
X147447Y-98506D01*
X147428Y-98521D01*
X147419Y-98536D01*
X147409Y-98566D01*
X147409Y-98641D01*
X147419Y-98671D01*
X147428Y-98686D01*
X147447Y-98701D01*
X147484Y-98701D01*
X147503Y-98686D01*
X147513Y-98671D01*
X147522Y-98641D01*
X147260Y-99121D02*
X147260Y-99271D01*
X147194Y-98956D02*
X147260Y-99121D01*
X147325Y-98956D01*
X136856Y-96127D02*
X136856Y-96277D01*
X136790Y-95962D02*
X136856Y-96127D01*
X136921Y-95962D01*
X137090Y-96277D02*
X136978Y-96277D01*
X137034Y-96277D02*
X137034Y-95962D01*
X137015Y-96007D01*
X136996Y-96037D01*
X136978Y-96052D01*
X136845Y-96491D02*
X136827Y-96476D01*
X136817Y-96461D01*
X136808Y-96431D01*
X136808Y-96416D01*
X136817Y-96386D01*
X136827Y-96371D01*
X136845Y-96356D01*
X136883Y-96356D01*
X136902Y-96371D01*
X136911Y-96386D01*
X136920Y-96416D01*
X136920Y-96431D01*
X136911Y-96461D01*
X136902Y-96476D01*
X136883Y-96491D01*
X136845Y-96491D01*
X136827Y-96506D01*
X136817Y-96521D01*
X136808Y-96551D01*
X136808Y-96611D01*
X136817Y-96641D01*
X136827Y-96656D01*
X136845Y-96671D01*
X136883Y-96671D01*
X136902Y-96656D01*
X136911Y-96641D01*
X136920Y-96611D01*
X136920Y-96551D01*
X136911Y-96521D01*
X136902Y-96506D01*
X136883Y-96491D01*
X137005Y-96671D02*
X137005Y-96356D01*
X137070Y-96581D01*
X137136Y-96356D01*
X137136Y-96671D01*
X137230Y-96671D02*
X137230Y-96356D01*
X137230Y-96506D02*
X137342Y-96506D01*
X137342Y-96671D02*
X137342Y-96356D01*
X137417Y-96461D02*
X137520Y-96461D01*
X137417Y-96671D01*
X137520Y-96671D01*
X137007Y-94461D02*
X136997Y-94476D01*
X136969Y-94491D01*
X136950Y-94491D01*
X136922Y-94476D01*
X136904Y-94446D01*
X136894Y-94416D01*
X136885Y-94356D01*
X136885Y-94311D01*
X136894Y-94251D01*
X136904Y-94221D01*
X136922Y-94191D01*
X136950Y-94176D01*
X136969Y-94176D01*
X136997Y-94191D01*
X137007Y-94206D01*
X137072Y-94176D02*
X137204Y-94176D01*
X137119Y-94491D01*
X136953Y-94891D02*
X136840Y-94891D01*
X136897Y-94891D02*
X136897Y-94576D01*
X136878Y-94621D01*
X136859Y-94651D01*
X136840Y-94666D01*
X137075Y-94576D02*
X137094Y-94576D01*
X137112Y-94591D01*
X137122Y-94606D01*
X137131Y-94636D01*
X137140Y-94696D01*
X137140Y-94771D01*
X137131Y-94831D01*
X137122Y-94861D01*
X137112Y-94876D01*
X137094Y-94891D01*
X137075Y-94891D01*
X137056Y-94876D01*
X137047Y-94861D01*
X137037Y-94831D01*
X137028Y-94771D01*
X137028Y-94696D01*
X137037Y-94636D01*
X137047Y-94606D01*
X137056Y-94591D01*
X137075Y-94576D01*
X137225Y-94681D02*
X137225Y-94996D01*
X137225Y-94696D02*
X137244Y-94681D01*
X137281Y-94681D01*
X137300Y-94696D01*
X137309Y-94711D01*
X137319Y-94741D01*
X137319Y-94831D01*
X137309Y-94861D01*
X137300Y-94876D01*
X137281Y-94891D01*
X137244Y-94891D01*
X137225Y-94876D01*
X133447Y-94481D02*
X133437Y-94496D01*
X133409Y-94511D01*
X133390Y-94511D01*
X133362Y-94496D01*
X133344Y-94466D01*
X133334Y-94436D01*
X133325Y-94376D01*
X133325Y-94331D01*
X133334Y-94271D01*
X133344Y-94241D01*
X133362Y-94211D01*
X133390Y-94196D01*
X133409Y-94196D01*
X133437Y-94211D01*
X133447Y-94226D01*
X133615Y-94196D02*
X133578Y-94196D01*
X133559Y-94211D01*
X133550Y-94226D01*
X133531Y-94271D01*
X133522Y-94331D01*
X133522Y-94451D01*
X133531Y-94481D01*
X133540Y-94496D01*
X133559Y-94511D01*
X133597Y-94511D01*
X133615Y-94496D01*
X133625Y-94481D01*
X133634Y-94451D01*
X133634Y-94376D01*
X133625Y-94346D01*
X133615Y-94331D01*
X133597Y-94316D01*
X133559Y-94316D01*
X133540Y-94331D01*
X133531Y-94346D01*
X133522Y-94376D01*
X133413Y-94911D02*
X133300Y-94911D01*
X133357Y-94911D02*
X133357Y-94596D01*
X133338Y-94641D01*
X133319Y-94671D01*
X133300Y-94686D01*
X133535Y-94596D02*
X133554Y-94596D01*
X133572Y-94611D01*
X133582Y-94626D01*
X133591Y-94656D01*
X133600Y-94716D01*
X133600Y-94791D01*
X133591Y-94851D01*
X133582Y-94881D01*
X133572Y-94896D01*
X133554Y-94911D01*
X133535Y-94911D01*
X133516Y-94896D01*
X133507Y-94881D01*
X133497Y-94851D01*
X133488Y-94791D01*
X133488Y-94716D01*
X133497Y-94656D01*
X133507Y-94626D01*
X133516Y-94611D01*
X133535Y-94596D01*
X133685Y-94701D02*
X133685Y-95016D01*
X133685Y-94716D02*
X133704Y-94701D01*
X133741Y-94701D01*
X133760Y-94716D01*
X133769Y-94731D01*
X133779Y-94761D01*
X133779Y-94851D01*
X133769Y-94881D01*
X133760Y-94896D01*
X133741Y-94911D01*
X133704Y-94911D01*
X133685Y-94896D01*
X144167Y-101747D02*
X144157Y-101762D01*
X144129Y-101777D01*
X144110Y-101777D01*
X144082Y-101762D01*
X144064Y-101732D01*
X144054Y-101702D01*
X144045Y-101642D01*
X144045Y-101597D01*
X144054Y-101537D01*
X144064Y-101507D01*
X144082Y-101477D01*
X144110Y-101462D01*
X144129Y-101462D01*
X144157Y-101477D01*
X144167Y-101492D01*
X144345Y-101462D02*
X144251Y-101462D01*
X144242Y-101612D01*
X144251Y-101597D01*
X144270Y-101582D01*
X144317Y-101582D01*
X144335Y-101597D01*
X144345Y-101612D01*
X144354Y-101642D01*
X144354Y-101717D01*
X144345Y-101747D01*
X144335Y-101762D01*
X144317Y-101777D01*
X144270Y-101777D01*
X144251Y-101762D01*
X144242Y-101747D01*
X144189Y-103727D02*
X144076Y-103727D01*
X144132Y-103727D02*
X144132Y-103412D01*
X144114Y-103457D01*
X144095Y-103487D01*
X144076Y-103502D01*
X144310Y-103412D02*
X144329Y-103412D01*
X144348Y-103427D01*
X144357Y-103442D01*
X144367Y-103472D01*
X144376Y-103532D01*
X144376Y-103607D01*
X144367Y-103667D01*
X144357Y-103697D01*
X144348Y-103712D01*
X144329Y-103727D01*
X144310Y-103727D01*
X144292Y-103712D01*
X144282Y-103697D01*
X144273Y-103667D01*
X144264Y-103607D01*
X144264Y-103532D01*
X144273Y-103472D01*
X144282Y-103442D01*
X144292Y-103427D01*
X144310Y-103412D01*
X144545Y-103517D02*
X144545Y-103727D01*
X144460Y-103517D02*
X144460Y-103682D01*
X144470Y-103712D01*
X144489Y-103727D01*
X144517Y-103727D01*
X144535Y-103712D01*
X144545Y-103697D01*
X144704Y-103562D02*
X144639Y-103562D01*
X144639Y-103727D02*
X144639Y-103412D01*
X144732Y-103412D01*
X132217Y-100647D02*
X132207Y-100662D01*
X132179Y-100677D01*
X132160Y-100677D01*
X132132Y-100662D01*
X132114Y-100632D01*
X132104Y-100602D01*
X132095Y-100542D01*
X132095Y-100497D01*
X132104Y-100437D01*
X132114Y-100407D01*
X132132Y-100377D01*
X132160Y-100362D01*
X132179Y-100362D01*
X132207Y-100377D01*
X132217Y-100392D01*
X132385Y-100467D02*
X132385Y-100677D01*
X132339Y-100347D02*
X132292Y-100572D01*
X132414Y-100572D01*
X132168Y-101077D02*
X132056Y-101077D01*
X132112Y-101077D02*
X132112Y-100762D01*
X132093Y-100807D01*
X132075Y-100837D01*
X132056Y-100852D01*
X132290Y-100762D02*
X132309Y-100762D01*
X132328Y-100777D01*
X132337Y-100792D01*
X132346Y-100822D01*
X132356Y-100882D01*
X132356Y-100957D01*
X132346Y-101017D01*
X132337Y-101047D01*
X132328Y-101062D01*
X132309Y-101077D01*
X132290Y-101077D01*
X132271Y-101062D01*
X132262Y-101047D01*
X132253Y-101017D01*
X132243Y-100957D01*
X132243Y-100882D01*
X132253Y-100822D01*
X132262Y-100792D01*
X132271Y-100777D01*
X132290Y-100762D01*
X132524Y-100867D02*
X132524Y-101077D01*
X132478Y-100747D02*
X132431Y-100972D01*
X132553Y-100972D01*
X133517Y-96797D02*
X133507Y-96812D01*
X133479Y-96827D01*
X133460Y-96827D01*
X133432Y-96812D01*
X133414Y-96782D01*
X133404Y-96752D01*
X133395Y-96692D01*
X133395Y-96647D01*
X133404Y-96587D01*
X133414Y-96557D01*
X133432Y-96527D01*
X133460Y-96512D01*
X133479Y-96512D01*
X133507Y-96527D01*
X133517Y-96542D01*
X133582Y-96512D02*
X133704Y-96512D01*
X133639Y-96632D01*
X133667Y-96632D01*
X133685Y-96647D01*
X133695Y-96662D01*
X133704Y-96692D01*
X133704Y-96767D01*
X133695Y-96797D01*
X133685Y-96812D01*
X133667Y-96827D01*
X133610Y-96827D01*
X133592Y-96812D01*
X133582Y-96797D01*
X133418Y-97227D02*
X133306Y-97227D01*
X133362Y-97227D02*
X133362Y-96912D01*
X133343Y-96957D01*
X133325Y-96987D01*
X133306Y-97002D01*
X133540Y-96912D02*
X133559Y-96912D01*
X133578Y-96927D01*
X133587Y-96942D01*
X133596Y-96972D01*
X133606Y-97032D01*
X133606Y-97107D01*
X133596Y-97167D01*
X133587Y-97197D01*
X133578Y-97212D01*
X133559Y-97227D01*
X133540Y-97227D01*
X133521Y-97212D01*
X133512Y-97197D01*
X133503Y-97167D01*
X133493Y-97107D01*
X133493Y-97032D01*
X133503Y-96972D01*
X133512Y-96942D01*
X133521Y-96927D01*
X133540Y-96912D01*
X133774Y-97017D02*
X133774Y-97227D01*
X133728Y-96897D02*
X133681Y-97122D01*
X133803Y-97122D01*
X135525Y-102033D02*
X135515Y-102048D01*
X135487Y-102063D01*
X135468Y-102063D01*
X135440Y-102048D01*
X135422Y-102018D01*
X135412Y-101988D01*
X135403Y-101928D01*
X135403Y-101883D01*
X135412Y-101823D01*
X135422Y-101793D01*
X135440Y-101763D01*
X135468Y-101748D01*
X135487Y-101748D01*
X135515Y-101763D01*
X135525Y-101778D01*
X135600Y-101778D02*
X135609Y-101763D01*
X135628Y-101748D01*
X135675Y-101748D01*
X135693Y-101763D01*
X135703Y-101778D01*
X135712Y-101808D01*
X135712Y-101838D01*
X135703Y-101883D01*
X135590Y-102063D01*
X135712Y-102063D01*
X136726Y-101463D02*
X136614Y-101463D01*
X136670Y-101463D02*
X136670Y-101148D01*
X136651Y-101193D01*
X136633Y-101223D01*
X136614Y-101238D01*
X136848Y-101148D02*
X136867Y-101148D01*
X136886Y-101163D01*
X136895Y-101178D01*
X136904Y-101208D01*
X136914Y-101268D01*
X136914Y-101343D01*
X136904Y-101403D01*
X136895Y-101433D01*
X136886Y-101448D01*
X136867Y-101463D01*
X136848Y-101463D01*
X136829Y-101448D01*
X136820Y-101433D01*
X136811Y-101403D01*
X136801Y-101343D01*
X136801Y-101268D01*
X136811Y-101208D01*
X136820Y-101178D01*
X136829Y-101163D01*
X136848Y-101148D01*
X137082Y-101253D02*
X137082Y-101463D01*
X137036Y-101133D02*
X136989Y-101358D01*
X137111Y-101358D01*
X137527Y-97493D02*
X137517Y-97508D01*
X137489Y-97523D01*
X137470Y-97523D01*
X137442Y-97508D01*
X137424Y-97478D01*
X137414Y-97448D01*
X137405Y-97388D01*
X137405Y-97343D01*
X137414Y-97283D01*
X137424Y-97253D01*
X137442Y-97223D01*
X137470Y-97208D01*
X137489Y-97208D01*
X137517Y-97223D01*
X137527Y-97238D01*
X137714Y-97523D02*
X137602Y-97523D01*
X137658Y-97523D02*
X137658Y-97208D01*
X137639Y-97253D01*
X137620Y-97283D01*
X137602Y-97298D01*
X137428Y-97923D02*
X137316Y-97923D01*
X137372Y-97923D02*
X137372Y-97608D01*
X137353Y-97653D01*
X137335Y-97683D01*
X137316Y-97698D01*
X137550Y-97608D02*
X137569Y-97608D01*
X137588Y-97623D01*
X137597Y-97638D01*
X137606Y-97668D01*
X137616Y-97728D01*
X137616Y-97803D01*
X137606Y-97863D01*
X137597Y-97893D01*
X137588Y-97908D01*
X137569Y-97923D01*
X137550Y-97923D01*
X137531Y-97908D01*
X137522Y-97893D01*
X137513Y-97863D01*
X137503Y-97803D01*
X137503Y-97728D01*
X137513Y-97668D01*
X137522Y-97638D01*
X137531Y-97623D01*
X137550Y-97608D01*
X137784Y-97713D02*
X137784Y-97923D01*
X137738Y-97593D02*
X137691Y-97818D01*
X137813Y-97818D01*
X142237Y-103062D02*
X142265Y-103077D01*
X142312Y-103077D01*
X142331Y-103062D01*
X142340Y-103047D01*
X142350Y-103017D01*
X142350Y-102987D01*
X142340Y-102957D01*
X142331Y-102942D01*
X142312Y-102927D01*
X142275Y-102912D01*
X142256Y-102897D01*
X142246Y-102882D01*
X142237Y-102852D01*
X142237Y-102822D01*
X142246Y-102792D01*
X142256Y-102777D01*
X142275Y-102762D01*
X142321Y-102762D01*
X142350Y-102777D01*
X142415Y-102762D02*
X142462Y-103077D01*
X142500Y-102852D01*
X142537Y-103077D01*
X142584Y-102762D01*
X142640Y-102762D02*
X142771Y-102762D01*
X142687Y-103077D01*
X142392Y-102677D02*
X142326Y-102527D01*
X142279Y-102677D02*
X142279Y-102362D01*
X142354Y-102362D01*
X142373Y-102377D01*
X142382Y-102392D01*
X142392Y-102422D01*
X142392Y-102467D01*
X142382Y-102497D01*
X142373Y-102512D01*
X142354Y-102527D01*
X142279Y-102527D01*
X142467Y-102662D02*
X142495Y-102677D01*
X142542Y-102677D01*
X142560Y-102662D01*
X142570Y-102647D01*
X142579Y-102617D01*
X142579Y-102587D01*
X142570Y-102557D01*
X142560Y-102542D01*
X142542Y-102527D01*
X142504Y-102512D01*
X142485Y-102497D01*
X142476Y-102482D01*
X142467Y-102452D01*
X142467Y-102422D01*
X142476Y-102392D01*
X142485Y-102377D01*
X142504Y-102362D01*
X142551Y-102362D01*
X142579Y-102377D01*
X142635Y-102362D02*
X142748Y-102362D01*
X142692Y-102677D02*
X142692Y-102362D01*
X114943Y-96212D02*
X114971Y-96227D01*
X115018Y-96227D01*
X115037Y-96212D01*
X115046Y-96197D01*
X115056Y-96167D01*
X115056Y-96137D01*
X115046Y-96107D01*
X115037Y-96092D01*
X115018Y-96077D01*
X114981Y-96062D01*
X114962Y-96047D01*
X114953Y-96032D01*
X114943Y-96002D01*
X114943Y-95972D01*
X114953Y-95942D01*
X114962Y-95927D01*
X114981Y-95912D01*
X115028Y-95912D01*
X115056Y-95927D01*
X115121Y-95912D02*
X115168Y-96227D01*
X115206Y-96002D01*
X115243Y-96227D01*
X115290Y-95912D01*
X115468Y-96227D02*
X115356Y-96227D01*
X115412Y-96227D02*
X115412Y-95912D01*
X115393Y-95957D01*
X115374Y-95987D01*
X115356Y-96002D01*
X115590Y-95912D02*
X115609Y-95912D01*
X115628Y-95927D01*
X115637Y-95942D01*
X115646Y-95972D01*
X115656Y-96032D01*
X115656Y-96107D01*
X115646Y-96167D01*
X115637Y-96197D01*
X115628Y-96212D01*
X115609Y-96227D01*
X115590Y-96227D01*
X115571Y-96212D01*
X115562Y-96197D01*
X115553Y-96167D01*
X115543Y-96107D01*
X115543Y-96032D01*
X115553Y-95972D01*
X115562Y-95942D01*
X115571Y-95927D01*
X115590Y-95912D01*
X115060Y-95777D02*
X114967Y-95777D01*
X114967Y-95462D01*
X154943Y-96212D02*
X154971Y-96227D01*
X155018Y-96227D01*
X155037Y-96212D01*
X155046Y-96197D01*
X155056Y-96167D01*
X155056Y-96137D01*
X155046Y-96107D01*
X155037Y-96092D01*
X155018Y-96077D01*
X154981Y-96062D01*
X154962Y-96047D01*
X154953Y-96032D01*
X154943Y-96002D01*
X154943Y-95972D01*
X154953Y-95942D01*
X154962Y-95927D01*
X154981Y-95912D01*
X155028Y-95912D01*
X155056Y-95927D01*
X155121Y-95912D02*
X155168Y-96227D01*
X155206Y-96002D01*
X155243Y-96227D01*
X155290Y-95912D01*
X155468Y-96227D02*
X155356Y-96227D01*
X155412Y-96227D02*
X155412Y-95912D01*
X155393Y-95957D01*
X155374Y-95987D01*
X155356Y-96002D01*
X155656Y-96227D02*
X155543Y-96227D01*
X155599Y-96227D02*
X155599Y-95912D01*
X155581Y-95957D01*
X155562Y-95987D01*
X155543Y-96002D01*
X155560Y-95827D02*
X155495Y-95677D01*
X155448Y-95827D02*
X155448Y-95512D01*
X155523Y-95512D01*
X155542Y-95527D01*
X155551Y-95542D01*
X155560Y-95572D01*
X155560Y-95617D01*
X155551Y-95647D01*
X155542Y-95662D01*
X155523Y-95677D01*
X155448Y-95677D01*
X131643Y-102012D02*
X131671Y-102027D01*
X131718Y-102027D01*
X131737Y-102012D01*
X131746Y-101997D01*
X131756Y-101967D01*
X131756Y-101937D01*
X131746Y-101907D01*
X131737Y-101892D01*
X131718Y-101877D01*
X131681Y-101862D01*
X131662Y-101847D01*
X131653Y-101832D01*
X131643Y-101802D01*
X131643Y-101772D01*
X131653Y-101742D01*
X131662Y-101727D01*
X131681Y-101712D01*
X131728Y-101712D01*
X131756Y-101727D01*
X131821Y-101712D02*
X131868Y-102027D01*
X131906Y-101802D01*
X131943Y-102027D01*
X131990Y-101712D01*
X132168Y-102027D02*
X132056Y-102027D01*
X132112Y-102027D02*
X132112Y-101712D01*
X132093Y-101757D01*
X132074Y-101787D01*
X132056Y-101802D01*
X132243Y-101742D02*
X132253Y-101727D01*
X132271Y-101712D01*
X132318Y-101712D01*
X132337Y-101727D01*
X132346Y-101742D01*
X132356Y-101772D01*
X132356Y-101802D01*
X132346Y-101847D01*
X132234Y-102027D01*
X132356Y-102027D01*
X131512Y-101612D02*
X131540Y-101627D01*
X131587Y-101627D01*
X131606Y-101612D01*
X131615Y-101597D01*
X131625Y-101567D01*
X131625Y-101537D01*
X131615Y-101507D01*
X131606Y-101492D01*
X131587Y-101477D01*
X131550Y-101462D01*
X131531Y-101447D01*
X131521Y-101432D01*
X131512Y-101402D01*
X131512Y-101372D01*
X131521Y-101342D01*
X131531Y-101327D01*
X131550Y-101312D01*
X131596Y-101312D01*
X131625Y-101327D01*
X131709Y-101462D02*
X131775Y-101462D01*
X131803Y-101627D02*
X131709Y-101627D01*
X131709Y-101312D01*
X131803Y-101312D01*
X131981Y-101627D02*
X131887Y-101627D01*
X131887Y-101312D01*
X132046Y-101462D02*
X132112Y-101462D01*
X132140Y-101627D02*
X132046Y-101627D01*
X132046Y-101312D01*
X132140Y-101312D01*
X132337Y-101597D02*
X132328Y-101612D01*
X132299Y-101627D01*
X132281Y-101627D01*
X132253Y-101612D01*
X132234Y-101582D01*
X132224Y-101552D01*
X132215Y-101492D01*
X132215Y-101447D01*
X132224Y-101387D01*
X132234Y-101357D01*
X132253Y-101327D01*
X132281Y-101312D01*
X132299Y-101312D01*
X132328Y-101327D01*
X132337Y-101342D01*
X132393Y-101312D02*
X132506Y-101312D01*
X132449Y-101627D02*
X132449Y-101312D01*
X138643Y-103062D02*
X138671Y-103077D01*
X138718Y-103077D01*
X138737Y-103062D01*
X138746Y-103047D01*
X138756Y-103017D01*
X138756Y-102987D01*
X138746Y-102957D01*
X138737Y-102942D01*
X138718Y-102927D01*
X138681Y-102912D01*
X138662Y-102897D01*
X138653Y-102882D01*
X138643Y-102852D01*
X138643Y-102822D01*
X138653Y-102792D01*
X138662Y-102777D01*
X138681Y-102762D01*
X138728Y-102762D01*
X138756Y-102777D01*
X138821Y-102762D02*
X138868Y-103077D01*
X138906Y-102852D01*
X138943Y-103077D01*
X138990Y-102762D01*
X139168Y-103077D02*
X139056Y-103077D01*
X139112Y-103077D02*
X139112Y-102762D01*
X139093Y-102807D01*
X139074Y-102837D01*
X139056Y-102852D01*
X139234Y-102762D02*
X139356Y-102762D01*
X139290Y-102882D01*
X139318Y-102882D01*
X139337Y-102897D01*
X139346Y-102912D01*
X139356Y-102942D01*
X139356Y-103017D01*
X139346Y-103047D01*
X139337Y-103062D01*
X139318Y-103077D01*
X139262Y-103077D01*
X139243Y-103062D01*
X139234Y-103047D01*
X138660Y-102612D02*
X138689Y-102627D01*
X138735Y-102627D01*
X138754Y-102612D01*
X138764Y-102597D01*
X138773Y-102567D01*
X138773Y-102537D01*
X138764Y-102507D01*
X138754Y-102492D01*
X138735Y-102477D01*
X138698Y-102462D01*
X138679Y-102447D01*
X138670Y-102432D01*
X138660Y-102402D01*
X138660Y-102372D01*
X138670Y-102342D01*
X138679Y-102327D01*
X138698Y-102312D01*
X138745Y-102312D01*
X138773Y-102327D01*
X138829Y-102312D02*
X138942Y-102312D01*
X138885Y-102627D02*
X138885Y-102312D01*
X138998Y-102537D02*
X139092Y-102537D01*
X138979Y-102627D02*
X139045Y-102312D01*
X139110Y-102627D01*
X139289Y-102627D02*
X139223Y-102477D01*
X139176Y-102627D02*
X139176Y-102312D01*
X139251Y-102312D01*
X139270Y-102327D01*
X139279Y-102342D01*
X139289Y-102372D01*
X139289Y-102417D01*
X139279Y-102447D01*
X139270Y-102462D01*
X139251Y-102477D01*
X139176Y-102477D01*
X139345Y-102312D02*
X139457Y-102312D01*
X139401Y-102627D02*
X139401Y-102312D01*
X138443Y-95632D02*
X138471Y-95647D01*
X138518Y-95647D01*
X138537Y-95632D01*
X138546Y-95617D01*
X138556Y-95587D01*
X138556Y-95557D01*
X138546Y-95527D01*
X138537Y-95512D01*
X138518Y-95497D01*
X138481Y-95482D01*
X138462Y-95467D01*
X138453Y-95452D01*
X138443Y-95422D01*
X138443Y-95392D01*
X138453Y-95362D01*
X138462Y-95347D01*
X138481Y-95332D01*
X138528Y-95332D01*
X138556Y-95347D01*
X138621Y-95332D02*
X138668Y-95647D01*
X138706Y-95422D01*
X138743Y-95647D01*
X138790Y-95332D01*
X138968Y-95647D02*
X138856Y-95647D01*
X138912Y-95647D02*
X138912Y-95332D01*
X138893Y-95377D01*
X138874Y-95407D01*
X138856Y-95422D01*
X139137Y-95437D02*
X139137Y-95647D01*
X139090Y-95317D02*
X139043Y-95542D01*
X139165Y-95542D01*
X138601Y-95862D02*
X138630Y-95877D01*
X138639Y-95892D01*
X138648Y-95922D01*
X138648Y-95967D01*
X138639Y-95997D01*
X138630Y-96012D01*
X138611Y-96027D01*
X138536Y-96027D01*
X138536Y-95712D01*
X138601Y-95712D01*
X138620Y-95727D01*
X138630Y-95742D01*
X138639Y-95772D01*
X138639Y-95802D01*
X138630Y-95832D01*
X138620Y-95847D01*
X138601Y-95862D01*
X138536Y-95862D01*
X138733Y-96027D02*
X138733Y-95712D01*
X138845Y-96027D02*
X138761Y-95847D01*
X138845Y-95712D02*
X138733Y-95892D01*
X139033Y-96027D02*
X138920Y-96027D01*
X138976Y-96027D02*
X138976Y-95712D01*
X138958Y-95757D01*
X138939Y-95787D01*
X138920Y-95802D01*
X142023Y-95612D02*
X142051Y-95627D01*
X142098Y-95627D01*
X142117Y-95612D01*
X142126Y-95597D01*
X142136Y-95567D01*
X142136Y-95537D01*
X142126Y-95507D01*
X142117Y-95492D01*
X142098Y-95477D01*
X142061Y-95462D01*
X142042Y-95447D01*
X142033Y-95432D01*
X142023Y-95402D01*
X142023Y-95372D01*
X142033Y-95342D01*
X142042Y-95327D01*
X142061Y-95312D01*
X142108Y-95312D01*
X142136Y-95327D01*
X142201Y-95312D02*
X142248Y-95627D01*
X142286Y-95402D01*
X142323Y-95627D01*
X142370Y-95312D01*
X142548Y-95627D02*
X142436Y-95627D01*
X142492Y-95627D02*
X142492Y-95312D01*
X142473Y-95357D01*
X142454Y-95387D01*
X142436Y-95402D01*
X142726Y-95312D02*
X142633Y-95312D01*
X142623Y-95462D01*
X142633Y-95447D01*
X142651Y-95432D01*
X142698Y-95432D01*
X142717Y-95447D01*
X142726Y-95462D01*
X142736Y-95492D01*
X142736Y-95567D01*
X142726Y-95597D01*
X142717Y-95612D01*
X142698Y-95627D01*
X142651Y-95627D01*
X142633Y-95612D01*
X142623Y-95597D01*
X142221Y-95842D02*
X142250Y-95857D01*
X142259Y-95872D01*
X142268Y-95902D01*
X142268Y-95947D01*
X142259Y-95977D01*
X142250Y-95992D01*
X142231Y-96007D01*
X142156Y-96007D01*
X142156Y-95692D01*
X142221Y-95692D01*
X142240Y-95707D01*
X142250Y-95722D01*
X142259Y-95752D01*
X142259Y-95782D01*
X142250Y-95812D01*
X142240Y-95827D01*
X142221Y-95842D01*
X142156Y-95842D01*
X142353Y-96007D02*
X142353Y-95692D01*
X142465Y-96007D02*
X142381Y-95827D01*
X142465Y-95692D02*
X142353Y-95872D01*
X142540Y-95722D02*
X142549Y-95707D01*
X142568Y-95692D01*
X142615Y-95692D01*
X142634Y-95707D01*
X142643Y-95722D01*
X142653Y-95752D01*
X142653Y-95782D01*
X142643Y-95827D01*
X142531Y-96007D01*
X142653Y-96007D01*
X131453Y-95692D02*
X131481Y-95707D01*
X131528Y-95707D01*
X131547Y-95692D01*
X131556Y-95677D01*
X131566Y-95647D01*
X131566Y-95617D01*
X131556Y-95587D01*
X131547Y-95572D01*
X131528Y-95557D01*
X131491Y-95542D01*
X131472Y-95527D01*
X131463Y-95512D01*
X131453Y-95482D01*
X131453Y-95452D01*
X131463Y-95422D01*
X131472Y-95407D01*
X131491Y-95392D01*
X131538Y-95392D01*
X131566Y-95407D01*
X131631Y-95392D02*
X131678Y-95707D01*
X131716Y-95482D01*
X131753Y-95707D01*
X131800Y-95392D01*
X131978Y-95707D02*
X131866Y-95707D01*
X131922Y-95707D02*
X131922Y-95392D01*
X131903Y-95437D01*
X131884Y-95467D01*
X131866Y-95482D01*
X132147Y-95392D02*
X132109Y-95392D01*
X132091Y-95407D01*
X132081Y-95422D01*
X132063Y-95467D01*
X132053Y-95527D01*
X132053Y-95647D01*
X132063Y-95677D01*
X132072Y-95692D01*
X132091Y-95707D01*
X132128Y-95707D01*
X132147Y-95692D01*
X132156Y-95677D01*
X132166Y-95647D01*
X132166Y-95572D01*
X132156Y-95542D01*
X132147Y-95527D01*
X132128Y-95512D01*
X132091Y-95512D01*
X132072Y-95527D01*
X132063Y-95542D01*
X132053Y-95572D01*
X131651Y-95922D02*
X131680Y-95937D01*
X131689Y-95952D01*
X131698Y-95982D01*
X131698Y-96027D01*
X131689Y-96057D01*
X131680Y-96072D01*
X131661Y-96087D01*
X131586Y-96087D01*
X131586Y-95772D01*
X131651Y-95772D01*
X131670Y-95787D01*
X131680Y-95802D01*
X131689Y-95832D01*
X131689Y-95862D01*
X131680Y-95892D01*
X131670Y-95907D01*
X131651Y-95922D01*
X131586Y-95922D01*
X131783Y-96087D02*
X131783Y-95772D01*
X131895Y-96087D02*
X131811Y-95907D01*
X131895Y-95772D02*
X131783Y-95952D01*
X131961Y-95772D02*
X132083Y-95772D01*
X132017Y-95892D01*
X132045Y-95892D01*
X132064Y-95907D01*
X132073Y-95922D01*
X132083Y-95952D01*
X132083Y-96027D01*
X132073Y-96057D01*
X132064Y-96072D01*
X132045Y-96087D01*
X131989Y-96087D01*
X131970Y-96072D01*
X131961Y-96057D01*
X128293Y-101992D02*
X128321Y-102007D01*
X128368Y-102007D01*
X128387Y-101992D01*
X128396Y-101977D01*
X128406Y-101947D01*
X128406Y-101917D01*
X128396Y-101887D01*
X128387Y-101872D01*
X128368Y-101857D01*
X128331Y-101842D01*
X128312Y-101827D01*
X128303Y-101812D01*
X128293Y-101782D01*
X128293Y-101752D01*
X128303Y-101722D01*
X128312Y-101707D01*
X128331Y-101692D01*
X128378Y-101692D01*
X128406Y-101707D01*
X128471Y-101692D02*
X128518Y-102007D01*
X128556Y-101782D01*
X128593Y-102007D01*
X128640Y-101692D01*
X128818Y-102007D02*
X128706Y-102007D01*
X128762Y-102007D02*
X128762Y-101692D01*
X128743Y-101737D01*
X128724Y-101767D01*
X128706Y-101782D01*
X128884Y-101692D02*
X129015Y-101692D01*
X128931Y-102007D01*
X128451Y-101462D02*
X128480Y-101477D01*
X128489Y-101492D01*
X128498Y-101522D01*
X128498Y-101567D01*
X128489Y-101597D01*
X128480Y-101612D01*
X128461Y-101627D01*
X128386Y-101627D01*
X128386Y-101312D01*
X128451Y-101312D01*
X128470Y-101327D01*
X128480Y-101342D01*
X128489Y-101372D01*
X128489Y-101402D01*
X128480Y-101432D01*
X128470Y-101447D01*
X128451Y-101462D01*
X128386Y-101462D01*
X128583Y-101627D02*
X128583Y-101312D01*
X128695Y-101627D02*
X128611Y-101447D01*
X128695Y-101312D02*
X128583Y-101492D01*
X128864Y-101417D02*
X128864Y-101627D01*
X128817Y-101297D02*
X128770Y-101522D01*
X128892Y-101522D01*
X113234Y-99112D02*
X113234Y-99337D01*
X113225Y-99382D01*
X113206Y-99412D01*
X113178Y-99427D01*
X113159Y-99427D01*
X113431Y-99427D02*
X113318Y-99427D01*
X113374Y-99427D02*
X113374Y-99112D01*
X113356Y-99157D01*
X113337Y-99187D01*
X113318Y-99202D01*
X113178Y-99562D02*
X113178Y-99817D01*
X113187Y-99847D01*
X113196Y-99862D01*
X113215Y-99877D01*
X113253Y-99877D01*
X113271Y-99862D01*
X113281Y-99847D01*
X113290Y-99817D01*
X113290Y-99562D01*
X113375Y-99862D02*
X113403Y-99877D01*
X113450Y-99877D01*
X113468Y-99862D01*
X113478Y-99847D01*
X113487Y-99817D01*
X113487Y-99787D01*
X113478Y-99757D01*
X113468Y-99742D01*
X113450Y-99727D01*
X113412Y-99712D01*
X113393Y-99697D01*
X113384Y-99682D01*
X113375Y-99652D01*
X113375Y-99622D01*
X113384Y-99592D01*
X113393Y-99577D01*
X113412Y-99562D01*
X113459Y-99562D01*
X113487Y-99577D01*
X113637Y-99712D02*
X113665Y-99727D01*
X113674Y-99742D01*
X113684Y-99772D01*
X113684Y-99817D01*
X113674Y-99847D01*
X113665Y-99862D01*
X113646Y-99877D01*
X113571Y-99877D01*
X113571Y-99562D01*
X113637Y-99562D01*
X113656Y-99577D01*
X113665Y-99592D01*
X113674Y-99622D01*
X113674Y-99652D01*
X113665Y-99682D01*
X113656Y-99697D01*
X113637Y-99712D01*
X113571Y-99712D01*
X113721Y-99907D02*
X113871Y-99907D01*
X113984Y-99712D02*
X114012Y-99727D01*
X114021Y-99742D01*
X114031Y-99772D01*
X114031Y-99817D01*
X114021Y-99847D01*
X114012Y-99862D01*
X113993Y-99877D01*
X113918Y-99877D01*
X113918Y-99562D01*
X113984Y-99562D01*
X114003Y-99577D01*
X114012Y-99592D01*
X114021Y-99622D01*
X114021Y-99652D01*
X114012Y-99682D01*
X114003Y-99697D01*
X113984Y-99712D01*
X113918Y-99712D01*
X157704Y-99277D02*
X157704Y-98962D01*
X157779Y-98962D01*
X157798Y-98977D01*
X157807Y-98992D01*
X157817Y-99022D01*
X157817Y-99067D01*
X157807Y-99097D01*
X157798Y-99112D01*
X157779Y-99127D01*
X157704Y-99127D01*
X158004Y-99277D02*
X157892Y-99277D01*
X157948Y-99277D02*
X157948Y-98962D01*
X157929Y-99007D01*
X157910Y-99037D01*
X157892Y-99052D01*
X134150Y-98214D02*
X134150Y-98469D01*
X134159Y-98499D01*
X134168Y-98514D01*
X134187Y-98529D01*
X134225Y-98529D01*
X134243Y-98514D01*
X134253Y-98499D01*
X134262Y-98469D01*
X134262Y-98214D01*
X134459Y-98529D02*
X134346Y-98529D01*
X134403Y-98529D02*
X134403Y-98214D01*
X134384Y-98259D01*
X134365Y-98289D01*
X134346Y-98304D01*
X133974Y-98906D02*
X134002Y-98921D01*
X134049Y-98921D01*
X134068Y-98906D01*
X134077Y-98891D01*
X134086Y-98861D01*
X134086Y-98831D01*
X134077Y-98801D01*
X134068Y-98786D01*
X134049Y-98771D01*
X134011Y-98756D01*
X133993Y-98741D01*
X133983Y-98726D01*
X133974Y-98696D01*
X133974Y-98666D01*
X133983Y-98636D01*
X133993Y-98621D01*
X134011Y-98606D01*
X134058Y-98606D01*
X134086Y-98621D01*
X134143Y-98606D02*
X134255Y-98606D01*
X134199Y-98921D02*
X134199Y-98606D01*
X134321Y-98921D02*
X134321Y-98606D01*
X134386Y-98831D01*
X134452Y-98606D01*
X134452Y-98921D01*
X134527Y-98606D02*
X134649Y-98606D01*
X134583Y-98726D01*
X134611Y-98726D01*
X134630Y-98741D01*
X134639Y-98756D01*
X134649Y-98786D01*
X134649Y-98861D01*
X134639Y-98891D01*
X134630Y-98906D01*
X134611Y-98921D01*
X134555Y-98921D01*
X134536Y-98906D01*
X134527Y-98891D01*
X134724Y-98636D02*
X134733Y-98621D01*
X134752Y-98606D01*
X134799Y-98606D01*
X134817Y-98621D01*
X134827Y-98636D01*
X134836Y-98666D01*
X134836Y-98696D01*
X134827Y-98741D01*
X134714Y-98921D01*
X134836Y-98921D01*
X134986Y-98756D02*
X134921Y-98756D01*
X134921Y-98921D02*
X134921Y-98606D01*
X135014Y-98606D01*
X135192Y-98921D02*
X135080Y-98921D01*
X135136Y-98921D02*
X135136Y-98606D01*
X135117Y-98651D01*
X135099Y-98681D01*
X135080Y-98696D01*
X135314Y-98606D02*
X135333Y-98606D01*
X135352Y-98621D01*
X135361Y-98636D01*
X135371Y-98666D01*
X135380Y-98726D01*
X135380Y-98801D01*
X135371Y-98861D01*
X135361Y-98891D01*
X135352Y-98906D01*
X135333Y-98921D01*
X135314Y-98921D01*
X135296Y-98906D01*
X135286Y-98891D01*
X135277Y-98861D01*
X135267Y-98801D01*
X135267Y-98726D01*
X135277Y-98666D01*
X135286Y-98636D01*
X135296Y-98621D01*
X135314Y-98606D01*
X135446Y-98606D02*
X135567Y-98606D01*
X135502Y-98726D01*
X135530Y-98726D01*
X135549Y-98741D01*
X135558Y-98756D01*
X135567Y-98786D01*
X135567Y-98861D01*
X135558Y-98891D01*
X135549Y-98906D01*
X135530Y-98921D01*
X135474Y-98921D01*
X135455Y-98906D01*
X135446Y-98891D01*
X135605Y-98951D02*
X135755Y-98951D01*
X135886Y-98711D02*
X135886Y-98921D01*
X135839Y-98591D02*
X135792Y-98816D01*
X135914Y-98816D01*
X136017Y-98741D02*
X135999Y-98726D01*
X135989Y-98711D01*
X135980Y-98681D01*
X135980Y-98666D01*
X135989Y-98636D01*
X135999Y-98621D01*
X136017Y-98606D01*
X136055Y-98606D01*
X136074Y-98621D01*
X136083Y-98636D01*
X136092Y-98666D01*
X136092Y-98681D01*
X136083Y-98711D01*
X136074Y-98726D01*
X136055Y-98741D01*
X136017Y-98741D01*
X135999Y-98756D01*
X135989Y-98771D01*
X135980Y-98801D01*
X135980Y-98861D01*
X135989Y-98891D01*
X135999Y-98906D01*
X136017Y-98921D01*
X136055Y-98921D01*
X136074Y-98906D01*
X136083Y-98891D01*
X136092Y-98861D01*
X136092Y-98801D01*
X136083Y-98771D01*
X136074Y-98756D01*
X136055Y-98741D01*
X136177Y-98921D02*
X136177Y-98606D01*
X136252Y-98606D01*
X136270Y-98621D01*
X136280Y-98636D01*
X136289Y-98666D01*
X136289Y-98711D01*
X136280Y-98741D01*
X136270Y-98756D01*
X136252Y-98771D01*
X136177Y-98771D01*
X136374Y-98921D02*
X136374Y-98606D01*
X136467Y-98921D02*
X136467Y-98606D01*
X136580Y-98921D01*
X136580Y-98606D01*
X115507Y-102897D02*
X115441Y-102747D01*
X115394Y-102897D02*
X115394Y-102582D01*
X115469Y-102582D01*
X115488Y-102597D01*
X115497Y-102612D01*
X115507Y-102642D01*
X115507Y-102687D01*
X115497Y-102717D01*
X115488Y-102732D01*
X115469Y-102747D01*
X115394Y-102747D01*
X115582Y-102612D02*
X115591Y-102597D01*
X115610Y-102582D01*
X115657Y-102582D01*
X115675Y-102597D01*
X115685Y-102612D01*
X115694Y-102642D01*
X115694Y-102672D01*
X115685Y-102717D01*
X115572Y-102897D01*
X115694Y-102897D01*
X114797Y-102897D02*
X114684Y-102897D01*
X114740Y-102897D02*
X114740Y-102582D01*
X114722Y-102627D01*
X114703Y-102657D01*
X114684Y-102672D01*
X114881Y-102867D02*
X114890Y-102882D01*
X114881Y-102897D01*
X114872Y-102882D01*
X114881Y-102867D01*
X114881Y-102897D01*
X115069Y-102582D02*
X114975Y-102582D01*
X114965Y-102732D01*
X114975Y-102717D01*
X114994Y-102702D01*
X115040Y-102702D01*
X115059Y-102717D01*
X115069Y-102732D01*
X115078Y-102762D01*
X115078Y-102837D01*
X115069Y-102867D01*
X115059Y-102882D01*
X115040Y-102897D01*
X114994Y-102897D01*
X114975Y-102882D01*
X114965Y-102867D01*
X115162Y-102897D02*
X115162Y-102582D01*
X115275Y-102897D02*
X115190Y-102717D01*
X115275Y-102582D02*
X115162Y-102762D01*
M02*
