G04 (created by PCBNEW (22-Jun-2014 BZR 4027)-stable) date Wed 20 Dec 2017 04:57:12 PM CST*
%MOIN*%
G04 Gerber Fmt 3.4, Leading zero omitted, Abs format*
%FSLAX34Y34*%
G01*
G70*
G90*
G04 APERTURE LIST*
%ADD10C,0.00393701*%
%ADD11R,0.055X0.055*%
%ADD12C,0.055*%
%ADD13C,0.023622*%
%ADD14C,0.00708661*%
%ADD15C,0.01*%
G04 APERTURE END LIST*
G54D10*
G54D11*
X100980Y-63840D03*
G54D12*
X99980Y-63840D03*
X98980Y-63840D03*
X97980Y-63840D03*
G54D13*
X101660Y-72760D03*
X101660Y-68660D03*
X96620Y-70740D03*
X91800Y-72740D03*
X89500Y-73920D03*
X98240Y-75680D03*
X98740Y-65280D03*
X98740Y-67700D03*
X97500Y-67700D03*
X89600Y-65500D03*
X95580Y-65500D03*
X87580Y-76300D03*
X87580Y-73920D03*
X100020Y-74640D03*
X99140Y-74640D03*
X99201Y-71238D03*
X100020Y-73460D03*
X99140Y-73460D03*
X102000Y-71220D03*
X99980Y-69020D03*
X90840Y-74300D03*
X99840Y-74300D03*
X99100Y-66520D03*
X99500Y-68920D03*
G54D14*
X101660Y-68660D02*
X101660Y-72760D01*
X97980Y-69280D02*
X101600Y-69280D01*
X101660Y-69220D02*
X101660Y-68660D01*
X101600Y-69280D02*
X101660Y-69220D01*
X97980Y-70740D02*
X96620Y-70740D01*
X97980Y-72660D02*
X97980Y-70740D01*
X97980Y-70740D02*
X97980Y-69280D01*
X97980Y-69280D02*
X97980Y-63840D01*
X97900Y-72740D02*
X97980Y-72660D01*
X91800Y-72740D02*
X97900Y-72740D01*
X89580Y-76600D02*
X89560Y-76600D01*
X89500Y-76500D02*
X89500Y-73920D01*
X98240Y-75680D02*
X98240Y-76560D01*
X98240Y-76560D02*
X98200Y-76600D01*
X98200Y-76600D02*
X89580Y-76600D01*
X89500Y-76540D02*
X89500Y-76500D01*
X89560Y-76600D02*
X89500Y-76540D01*
X98740Y-65660D02*
X98740Y-65280D01*
X98740Y-67700D02*
X98740Y-65660D01*
X97500Y-65620D02*
X97500Y-65540D01*
X97500Y-67700D02*
X97500Y-65620D01*
X95580Y-65500D02*
X97380Y-65500D01*
X97460Y-65500D02*
X97380Y-65500D01*
X97500Y-65540D02*
X97460Y-65500D01*
X89600Y-65500D02*
X95580Y-65500D01*
X87580Y-73920D02*
X87580Y-76300D01*
X99140Y-74640D02*
X100020Y-74640D01*
X99201Y-71238D02*
X99958Y-71238D01*
X100020Y-73460D02*
X100020Y-72056D01*
X100020Y-71300D02*
X100020Y-72056D01*
X99958Y-71238D02*
X100020Y-71300D01*
X99140Y-73460D02*
X100020Y-73460D01*
X101900Y-63840D02*
X101960Y-63840D01*
X102000Y-71220D02*
X102000Y-63940D01*
X100980Y-63840D02*
X101900Y-63840D01*
X102000Y-63880D02*
X102000Y-63940D01*
X101960Y-63840D02*
X102000Y-63880D01*
X99980Y-69020D02*
X99980Y-63840D01*
X99800Y-74300D02*
X99840Y-74300D01*
X90840Y-74300D02*
X99260Y-74300D01*
X99260Y-74300D02*
X99800Y-74300D01*
X99440Y-66520D02*
X99100Y-66520D01*
X99500Y-66580D02*
X99440Y-66520D01*
X99500Y-68920D02*
X99500Y-66580D01*
G54D10*
G36*
X112099Y-76649D02*
X102239Y-76649D01*
X102239Y-71172D01*
X102202Y-71084D01*
X102156Y-71038D01*
X102156Y-63940D01*
X102156Y-63880D01*
X102144Y-63820D01*
X102110Y-63769D01*
X102070Y-63729D01*
X102019Y-63695D01*
X101960Y-63683D01*
X101900Y-63683D01*
X101375Y-63683D01*
X101375Y-63541D01*
X101357Y-63496D01*
X101323Y-63462D01*
X101279Y-63444D01*
X101231Y-63444D01*
X100681Y-63444D01*
X100636Y-63462D01*
X100602Y-63496D01*
X100584Y-63540D01*
X100584Y-63588D01*
X100584Y-64138D01*
X100602Y-64183D01*
X100636Y-64217D01*
X100680Y-64235D01*
X100728Y-64235D01*
X101278Y-64235D01*
X101323Y-64217D01*
X101357Y-64183D01*
X101375Y-64139D01*
X101375Y-64091D01*
X101375Y-63996D01*
X101843Y-63996D01*
X101843Y-68505D01*
X101795Y-68457D01*
X101707Y-68421D01*
X101612Y-68420D01*
X101524Y-68457D01*
X101457Y-68524D01*
X101421Y-68612D01*
X101420Y-68707D01*
X101457Y-68795D01*
X101503Y-68841D01*
X101503Y-69123D01*
X100195Y-69123D01*
X100218Y-69067D01*
X100219Y-68972D01*
X100182Y-68884D01*
X100136Y-68838D01*
X100136Y-64203D01*
X100203Y-64175D01*
X100315Y-64064D01*
X100375Y-63919D01*
X100375Y-63761D01*
X100315Y-63616D01*
X100204Y-63504D01*
X100059Y-63444D01*
X99901Y-63444D01*
X99756Y-63504D01*
X99644Y-63615D01*
X99584Y-63760D01*
X99584Y-63918D01*
X99644Y-64063D01*
X99755Y-64175D01*
X99823Y-64203D01*
X99823Y-68838D01*
X99777Y-68884D01*
X99741Y-68972D01*
X99740Y-69067D01*
X99764Y-69123D01*
X99632Y-69123D01*
X99635Y-69122D01*
X99702Y-69055D01*
X99738Y-68967D01*
X99739Y-68872D01*
X99702Y-68784D01*
X99656Y-68738D01*
X99656Y-66580D01*
X99646Y-66530D01*
X99644Y-66520D01*
X99644Y-66520D01*
X99610Y-66469D01*
X99550Y-66409D01*
X99509Y-66382D01*
X99509Y-63915D01*
X99498Y-63707D01*
X99440Y-63567D01*
X99347Y-63542D01*
X99277Y-63613D01*
X99277Y-63472D01*
X99252Y-63379D01*
X99055Y-63310D01*
X98847Y-63321D01*
X98707Y-63379D01*
X98682Y-63472D01*
X98980Y-63769D01*
X99277Y-63472D01*
X99277Y-63613D01*
X99050Y-63840D01*
X99347Y-64137D01*
X99440Y-64112D01*
X99509Y-63915D01*
X99509Y-66382D01*
X99499Y-66375D01*
X99440Y-66363D01*
X99281Y-66363D01*
X99277Y-66359D01*
X99277Y-64207D01*
X98980Y-63910D01*
X98909Y-63981D01*
X98909Y-63840D01*
X98612Y-63542D01*
X98519Y-63567D01*
X98450Y-63764D01*
X98461Y-63972D01*
X98519Y-64112D01*
X98612Y-64137D01*
X98909Y-63840D01*
X98909Y-63981D01*
X98682Y-64207D01*
X98707Y-64300D01*
X98904Y-64369D01*
X99112Y-64358D01*
X99252Y-64300D01*
X99277Y-64207D01*
X99277Y-66359D01*
X99235Y-66317D01*
X99147Y-66281D01*
X99052Y-66280D01*
X98964Y-66317D01*
X98897Y-66384D01*
X98861Y-66472D01*
X98860Y-66567D01*
X98897Y-66655D01*
X98964Y-66722D01*
X99052Y-66758D01*
X99147Y-66759D01*
X99235Y-66722D01*
X99281Y-66676D01*
X99343Y-66676D01*
X99343Y-68738D01*
X99297Y-68784D01*
X99261Y-68872D01*
X99260Y-68967D01*
X99297Y-69055D01*
X99364Y-69122D01*
X99367Y-69123D01*
X98136Y-69123D01*
X98136Y-64203D01*
X98203Y-64175D01*
X98315Y-64064D01*
X98375Y-63919D01*
X98375Y-63761D01*
X98315Y-63616D01*
X98204Y-63504D01*
X98059Y-63444D01*
X97901Y-63444D01*
X97756Y-63504D01*
X97644Y-63615D01*
X97584Y-63760D01*
X97584Y-63918D01*
X97644Y-64063D01*
X97755Y-64175D01*
X97823Y-64203D01*
X97823Y-69280D01*
X97823Y-70583D01*
X96801Y-70583D01*
X96755Y-70537D01*
X96667Y-70501D01*
X96572Y-70500D01*
X96484Y-70537D01*
X96417Y-70604D01*
X96381Y-70692D01*
X96380Y-70787D01*
X96417Y-70875D01*
X96484Y-70942D01*
X96572Y-70978D01*
X96667Y-70979D01*
X96755Y-70942D01*
X96801Y-70896D01*
X97823Y-70896D01*
X97823Y-72583D01*
X91981Y-72583D01*
X91935Y-72537D01*
X91847Y-72501D01*
X91752Y-72500D01*
X91664Y-72537D01*
X91597Y-72604D01*
X91561Y-72692D01*
X91560Y-72787D01*
X91597Y-72875D01*
X91664Y-72942D01*
X91752Y-72978D01*
X91847Y-72979D01*
X91935Y-72942D01*
X91981Y-72896D01*
X97900Y-72896D01*
X97900Y-72896D01*
X97959Y-72884D01*
X98010Y-72850D01*
X98090Y-72770D01*
X98090Y-72770D01*
X98124Y-72719D01*
X98124Y-72719D01*
X98126Y-72709D01*
X98136Y-72660D01*
X98136Y-72660D01*
X98136Y-70740D01*
X98136Y-69436D01*
X101503Y-69436D01*
X101503Y-72578D01*
X101457Y-72624D01*
X101421Y-72712D01*
X101420Y-72807D01*
X101457Y-72895D01*
X101524Y-72962D01*
X101612Y-72998D01*
X101707Y-72999D01*
X101795Y-72962D01*
X101862Y-72895D01*
X101898Y-72807D01*
X101899Y-72712D01*
X101862Y-72624D01*
X101816Y-72578D01*
X101816Y-71374D01*
X101864Y-71422D01*
X101952Y-71458D01*
X102047Y-71459D01*
X102135Y-71422D01*
X102202Y-71355D01*
X102238Y-71267D01*
X102239Y-71172D01*
X102239Y-76649D01*
X100259Y-76649D01*
X100259Y-73412D01*
X100222Y-73324D01*
X100176Y-73278D01*
X100176Y-72056D01*
X100176Y-71300D01*
X100164Y-71240D01*
X100130Y-71189D01*
X100068Y-71127D01*
X100018Y-71094D01*
X99958Y-71082D01*
X99383Y-71082D01*
X99337Y-71035D01*
X99249Y-70999D01*
X99154Y-70999D01*
X99066Y-71035D01*
X98999Y-71102D01*
X98962Y-71190D01*
X98962Y-71285D01*
X98998Y-71373D01*
X99066Y-71440D01*
X99153Y-71477D01*
X99248Y-71477D01*
X99336Y-71441D01*
X99383Y-71394D01*
X99863Y-71394D01*
X99863Y-72056D01*
X99863Y-73278D01*
X99838Y-73303D01*
X99321Y-73303D01*
X99275Y-73257D01*
X99187Y-73221D01*
X99092Y-73220D01*
X99004Y-73257D01*
X98937Y-73324D01*
X98901Y-73412D01*
X98900Y-73507D01*
X98937Y-73595D01*
X99004Y-73662D01*
X99092Y-73698D01*
X99187Y-73699D01*
X99275Y-73662D01*
X99321Y-73616D01*
X99838Y-73616D01*
X99884Y-73662D01*
X99972Y-73698D01*
X100067Y-73699D01*
X100155Y-73662D01*
X100222Y-73595D01*
X100258Y-73507D01*
X100259Y-73412D01*
X100259Y-76649D01*
X100079Y-76649D01*
X100079Y-74252D01*
X100042Y-74164D01*
X99975Y-74097D01*
X99887Y-74061D01*
X99792Y-74060D01*
X99704Y-74097D01*
X99658Y-74143D01*
X99260Y-74143D01*
X91021Y-74143D01*
X90975Y-74097D01*
X90887Y-74061D01*
X90792Y-74060D01*
X90704Y-74097D01*
X90637Y-74164D01*
X90601Y-74252D01*
X90600Y-74347D01*
X90637Y-74435D01*
X90704Y-74502D01*
X90792Y-74538D01*
X90887Y-74539D01*
X90975Y-74502D01*
X91021Y-74456D01*
X99260Y-74456D01*
X99658Y-74456D01*
X99704Y-74502D01*
X99792Y-74538D01*
X99887Y-74539D01*
X99975Y-74502D01*
X100042Y-74435D01*
X100078Y-74347D01*
X100079Y-74252D01*
X100079Y-76649D01*
X98364Y-76649D01*
X98384Y-76619D01*
X98396Y-76560D01*
X98396Y-76560D01*
X98396Y-75861D01*
X98442Y-75815D01*
X98478Y-75727D01*
X98479Y-75632D01*
X98442Y-75544D01*
X98375Y-75477D01*
X98287Y-75441D01*
X98192Y-75440D01*
X98104Y-75477D01*
X98037Y-75544D01*
X98001Y-75632D01*
X98000Y-75727D01*
X98037Y-75815D01*
X98083Y-75861D01*
X98083Y-76443D01*
X89656Y-76443D01*
X89656Y-74101D01*
X89702Y-74055D01*
X89738Y-73967D01*
X89739Y-73872D01*
X89702Y-73784D01*
X89635Y-73717D01*
X89547Y-73681D01*
X89452Y-73680D01*
X89364Y-73717D01*
X89297Y-73784D01*
X89261Y-73872D01*
X89260Y-73967D01*
X89297Y-74055D01*
X89343Y-74101D01*
X89343Y-76500D01*
X89343Y-76540D01*
X89355Y-76599D01*
X89388Y-76649D01*
X86800Y-76649D01*
X86800Y-63150D01*
X112099Y-63150D01*
X112099Y-76649D01*
X112099Y-76649D01*
G37*
G54D15*
X112099Y-76649D02*
X102239Y-76649D01*
X102239Y-71172D01*
X102202Y-71084D01*
X102156Y-71038D01*
X102156Y-63940D01*
X102156Y-63880D01*
X102144Y-63820D01*
X102110Y-63769D01*
X102070Y-63729D01*
X102019Y-63695D01*
X101960Y-63683D01*
X101900Y-63683D01*
X101375Y-63683D01*
X101375Y-63541D01*
X101357Y-63496D01*
X101323Y-63462D01*
X101279Y-63444D01*
X101231Y-63444D01*
X100681Y-63444D01*
X100636Y-63462D01*
X100602Y-63496D01*
X100584Y-63540D01*
X100584Y-63588D01*
X100584Y-64138D01*
X100602Y-64183D01*
X100636Y-64217D01*
X100680Y-64235D01*
X100728Y-64235D01*
X101278Y-64235D01*
X101323Y-64217D01*
X101357Y-64183D01*
X101375Y-64139D01*
X101375Y-64091D01*
X101375Y-63996D01*
X101843Y-63996D01*
X101843Y-68505D01*
X101795Y-68457D01*
X101707Y-68421D01*
X101612Y-68420D01*
X101524Y-68457D01*
X101457Y-68524D01*
X101421Y-68612D01*
X101420Y-68707D01*
X101457Y-68795D01*
X101503Y-68841D01*
X101503Y-69123D01*
X100195Y-69123D01*
X100218Y-69067D01*
X100219Y-68972D01*
X100182Y-68884D01*
X100136Y-68838D01*
X100136Y-64203D01*
X100203Y-64175D01*
X100315Y-64064D01*
X100375Y-63919D01*
X100375Y-63761D01*
X100315Y-63616D01*
X100204Y-63504D01*
X100059Y-63444D01*
X99901Y-63444D01*
X99756Y-63504D01*
X99644Y-63615D01*
X99584Y-63760D01*
X99584Y-63918D01*
X99644Y-64063D01*
X99755Y-64175D01*
X99823Y-64203D01*
X99823Y-68838D01*
X99777Y-68884D01*
X99741Y-68972D01*
X99740Y-69067D01*
X99764Y-69123D01*
X99632Y-69123D01*
X99635Y-69122D01*
X99702Y-69055D01*
X99738Y-68967D01*
X99739Y-68872D01*
X99702Y-68784D01*
X99656Y-68738D01*
X99656Y-66580D01*
X99646Y-66530D01*
X99644Y-66520D01*
X99644Y-66520D01*
X99610Y-66469D01*
X99550Y-66409D01*
X99509Y-66382D01*
X99509Y-63915D01*
X99498Y-63707D01*
X99440Y-63567D01*
X99347Y-63542D01*
X99277Y-63613D01*
X99277Y-63472D01*
X99252Y-63379D01*
X99055Y-63310D01*
X98847Y-63321D01*
X98707Y-63379D01*
X98682Y-63472D01*
X98980Y-63769D01*
X99277Y-63472D01*
X99277Y-63613D01*
X99050Y-63840D01*
X99347Y-64137D01*
X99440Y-64112D01*
X99509Y-63915D01*
X99509Y-66382D01*
X99499Y-66375D01*
X99440Y-66363D01*
X99281Y-66363D01*
X99277Y-66359D01*
X99277Y-64207D01*
X98980Y-63910D01*
X98909Y-63981D01*
X98909Y-63840D01*
X98612Y-63542D01*
X98519Y-63567D01*
X98450Y-63764D01*
X98461Y-63972D01*
X98519Y-64112D01*
X98612Y-64137D01*
X98909Y-63840D01*
X98909Y-63981D01*
X98682Y-64207D01*
X98707Y-64300D01*
X98904Y-64369D01*
X99112Y-64358D01*
X99252Y-64300D01*
X99277Y-64207D01*
X99277Y-66359D01*
X99235Y-66317D01*
X99147Y-66281D01*
X99052Y-66280D01*
X98964Y-66317D01*
X98897Y-66384D01*
X98861Y-66472D01*
X98860Y-66567D01*
X98897Y-66655D01*
X98964Y-66722D01*
X99052Y-66758D01*
X99147Y-66759D01*
X99235Y-66722D01*
X99281Y-66676D01*
X99343Y-66676D01*
X99343Y-68738D01*
X99297Y-68784D01*
X99261Y-68872D01*
X99260Y-68967D01*
X99297Y-69055D01*
X99364Y-69122D01*
X99367Y-69123D01*
X98136Y-69123D01*
X98136Y-64203D01*
X98203Y-64175D01*
X98315Y-64064D01*
X98375Y-63919D01*
X98375Y-63761D01*
X98315Y-63616D01*
X98204Y-63504D01*
X98059Y-63444D01*
X97901Y-63444D01*
X97756Y-63504D01*
X97644Y-63615D01*
X97584Y-63760D01*
X97584Y-63918D01*
X97644Y-64063D01*
X97755Y-64175D01*
X97823Y-64203D01*
X97823Y-69280D01*
X97823Y-70583D01*
X96801Y-70583D01*
X96755Y-70537D01*
X96667Y-70501D01*
X96572Y-70500D01*
X96484Y-70537D01*
X96417Y-70604D01*
X96381Y-70692D01*
X96380Y-70787D01*
X96417Y-70875D01*
X96484Y-70942D01*
X96572Y-70978D01*
X96667Y-70979D01*
X96755Y-70942D01*
X96801Y-70896D01*
X97823Y-70896D01*
X97823Y-72583D01*
X91981Y-72583D01*
X91935Y-72537D01*
X91847Y-72501D01*
X91752Y-72500D01*
X91664Y-72537D01*
X91597Y-72604D01*
X91561Y-72692D01*
X91560Y-72787D01*
X91597Y-72875D01*
X91664Y-72942D01*
X91752Y-72978D01*
X91847Y-72979D01*
X91935Y-72942D01*
X91981Y-72896D01*
X97900Y-72896D01*
X97900Y-72896D01*
X97959Y-72884D01*
X98010Y-72850D01*
X98090Y-72770D01*
X98090Y-72770D01*
X98124Y-72719D01*
X98124Y-72719D01*
X98126Y-72709D01*
X98136Y-72660D01*
X98136Y-72660D01*
X98136Y-70740D01*
X98136Y-69436D01*
X101503Y-69436D01*
X101503Y-72578D01*
X101457Y-72624D01*
X101421Y-72712D01*
X101420Y-72807D01*
X101457Y-72895D01*
X101524Y-72962D01*
X101612Y-72998D01*
X101707Y-72999D01*
X101795Y-72962D01*
X101862Y-72895D01*
X101898Y-72807D01*
X101899Y-72712D01*
X101862Y-72624D01*
X101816Y-72578D01*
X101816Y-71374D01*
X101864Y-71422D01*
X101952Y-71458D01*
X102047Y-71459D01*
X102135Y-71422D01*
X102202Y-71355D01*
X102238Y-71267D01*
X102239Y-71172D01*
X102239Y-76649D01*
X100259Y-76649D01*
X100259Y-73412D01*
X100222Y-73324D01*
X100176Y-73278D01*
X100176Y-72056D01*
X100176Y-71300D01*
X100164Y-71240D01*
X100130Y-71189D01*
X100068Y-71127D01*
X100018Y-71094D01*
X99958Y-71082D01*
X99383Y-71082D01*
X99337Y-71035D01*
X99249Y-70999D01*
X99154Y-70999D01*
X99066Y-71035D01*
X98999Y-71102D01*
X98962Y-71190D01*
X98962Y-71285D01*
X98998Y-71373D01*
X99066Y-71440D01*
X99153Y-71477D01*
X99248Y-71477D01*
X99336Y-71441D01*
X99383Y-71394D01*
X99863Y-71394D01*
X99863Y-72056D01*
X99863Y-73278D01*
X99838Y-73303D01*
X99321Y-73303D01*
X99275Y-73257D01*
X99187Y-73221D01*
X99092Y-73220D01*
X99004Y-73257D01*
X98937Y-73324D01*
X98901Y-73412D01*
X98900Y-73507D01*
X98937Y-73595D01*
X99004Y-73662D01*
X99092Y-73698D01*
X99187Y-73699D01*
X99275Y-73662D01*
X99321Y-73616D01*
X99838Y-73616D01*
X99884Y-73662D01*
X99972Y-73698D01*
X100067Y-73699D01*
X100155Y-73662D01*
X100222Y-73595D01*
X100258Y-73507D01*
X100259Y-73412D01*
X100259Y-76649D01*
X100079Y-76649D01*
X100079Y-74252D01*
X100042Y-74164D01*
X99975Y-74097D01*
X99887Y-74061D01*
X99792Y-74060D01*
X99704Y-74097D01*
X99658Y-74143D01*
X99260Y-74143D01*
X91021Y-74143D01*
X90975Y-74097D01*
X90887Y-74061D01*
X90792Y-74060D01*
X90704Y-74097D01*
X90637Y-74164D01*
X90601Y-74252D01*
X90600Y-74347D01*
X90637Y-74435D01*
X90704Y-74502D01*
X90792Y-74538D01*
X90887Y-74539D01*
X90975Y-74502D01*
X91021Y-74456D01*
X99260Y-74456D01*
X99658Y-74456D01*
X99704Y-74502D01*
X99792Y-74538D01*
X99887Y-74539D01*
X99975Y-74502D01*
X100042Y-74435D01*
X100078Y-74347D01*
X100079Y-74252D01*
X100079Y-76649D01*
X98364Y-76649D01*
X98384Y-76619D01*
X98396Y-76560D01*
X98396Y-76560D01*
X98396Y-75861D01*
X98442Y-75815D01*
X98478Y-75727D01*
X98479Y-75632D01*
X98442Y-75544D01*
X98375Y-75477D01*
X98287Y-75441D01*
X98192Y-75440D01*
X98104Y-75477D01*
X98037Y-75544D01*
X98001Y-75632D01*
X98000Y-75727D01*
X98037Y-75815D01*
X98083Y-75861D01*
X98083Y-76443D01*
X89656Y-76443D01*
X89656Y-74101D01*
X89702Y-74055D01*
X89738Y-73967D01*
X89739Y-73872D01*
X89702Y-73784D01*
X89635Y-73717D01*
X89547Y-73681D01*
X89452Y-73680D01*
X89364Y-73717D01*
X89297Y-73784D01*
X89261Y-73872D01*
X89260Y-73967D01*
X89297Y-74055D01*
X89343Y-74101D01*
X89343Y-76500D01*
X89343Y-76540D01*
X89355Y-76599D01*
X89388Y-76649D01*
X86800Y-76649D01*
X86800Y-63150D01*
X112099Y-63150D01*
X112099Y-76649D01*
M02*
