G04 (created by PCBNEW (22-Jun-2014 BZR 4027)-stable) date Wed 20 Dec 2017 04:57:16 PM CST*
%MOIN*%
G04 Gerber Fmt 3.4, Leading zero omitted, Abs format*
%FSLAX34Y34*%
G01*
G70*
G90*
G04 APERTURE LIST*
%ADD10C,0.005*%
%ADD11C,0.00590551*%
%ADD12C,0.00787402*%
%ADD13C,0.011811*%
G04 APERTURE END LIST*
G54D10*
G54D11*
X86650Y-76800D02*
X86650Y-63000D01*
X112250Y-76800D02*
X86650Y-76800D01*
X112250Y-63000D02*
X112250Y-76800D01*
X86650Y-63000D02*
X112250Y-63000D01*
G54D12*
X87501Y-73841D02*
X87658Y-73998D01*
X87658Y-73841D02*
X87501Y-73998D01*
X87501Y-76221D02*
X87658Y-76378D01*
X87658Y-76221D02*
X87501Y-76378D01*
X89421Y-73841D02*
X89578Y-73998D01*
X89578Y-73841D02*
X89421Y-73998D01*
X89521Y-65421D02*
X89678Y-65578D01*
X89678Y-65421D02*
X89521Y-65578D01*
X90761Y-74221D02*
X90918Y-74378D01*
X90918Y-74221D02*
X90761Y-74378D01*
X91721Y-72661D02*
X91878Y-72818D01*
X91878Y-72661D02*
X91721Y-72818D01*
X95501Y-65421D02*
X95658Y-65578D01*
X95658Y-65421D02*
X95501Y-65578D01*
X96541Y-70661D02*
X96698Y-70818D01*
X96698Y-70661D02*
X96541Y-70818D01*
X97421Y-67621D02*
X97578Y-67778D01*
X97578Y-67621D02*
X97421Y-67778D01*
X98161Y-75601D02*
X98318Y-75758D01*
X98318Y-75601D02*
X98161Y-75758D01*
X98661Y-65201D02*
X98818Y-65358D01*
X98818Y-65201D02*
X98661Y-65358D01*
X98661Y-67621D02*
X98818Y-67778D01*
X98818Y-67621D02*
X98661Y-67778D01*
X99021Y-66441D02*
X99178Y-66598D01*
X99178Y-66441D02*
X99021Y-66598D01*
X99061Y-73381D02*
X99218Y-73538D01*
X99218Y-73381D02*
X99061Y-73538D01*
X99061Y-74561D02*
X99218Y-74718D01*
X99218Y-74561D02*
X99061Y-74718D01*
X99122Y-71159D02*
X99280Y-71317D01*
X99280Y-71159D02*
X99122Y-71317D01*
X99421Y-68841D02*
X99578Y-68998D01*
X99578Y-68841D02*
X99421Y-68998D01*
X99761Y-74221D02*
X99918Y-74378D01*
X99918Y-74221D02*
X99761Y-74378D01*
X99901Y-68941D02*
X100058Y-69098D01*
X100058Y-68941D02*
X99901Y-69098D01*
X99941Y-73381D02*
X100098Y-73538D01*
X100098Y-73381D02*
X99941Y-73538D01*
X99941Y-74561D02*
X100098Y-74718D01*
X100098Y-74561D02*
X99941Y-74718D01*
X101581Y-68581D02*
X101738Y-68738D01*
X101738Y-68581D02*
X101581Y-68738D01*
X101581Y-72681D02*
X101738Y-72838D01*
X101738Y-72681D02*
X101581Y-72838D01*
X101921Y-71141D02*
X102078Y-71298D01*
X102078Y-71141D02*
X101921Y-71298D01*
X98140Y-63840D02*
G75*
G03X98140Y-63840I-160J0D01*
G74*
G01*
X99140Y-63840D02*
G75*
G03X99140Y-63840I-160J0D01*
G74*
G01*
X100140Y-63840D02*
G75*
G03X100140Y-63840I-160J0D01*
G74*
G01*
X101140Y-63840D02*
G75*
G03X101140Y-63840I-160J0D01*
G74*
G01*
G54D13*
X87689Y-78606D02*
X87689Y-77425D01*
X87970Y-77425D01*
X88139Y-77481D01*
X88251Y-77594D01*
X88307Y-77706D01*
X88364Y-77931D01*
X88364Y-78100D01*
X88307Y-78325D01*
X88251Y-78438D01*
X88139Y-78550D01*
X87970Y-78606D01*
X87689Y-78606D01*
X88870Y-78606D02*
X88870Y-77819D01*
X88870Y-78044D02*
X88926Y-77931D01*
X88982Y-77875D01*
X89095Y-77819D01*
X89207Y-77819D01*
X89601Y-78606D02*
X89601Y-77819D01*
X89601Y-77425D02*
X89545Y-77481D01*
X89601Y-77538D01*
X89657Y-77481D01*
X89601Y-77425D01*
X89601Y-77538D01*
X90332Y-78606D02*
X90220Y-78550D01*
X90163Y-78438D01*
X90163Y-77425D01*
X90951Y-78606D02*
X90838Y-78550D01*
X90782Y-78438D01*
X90782Y-77425D01*
X92301Y-78606D02*
X92301Y-77425D01*
X92694Y-78269D01*
X93088Y-77425D01*
X93088Y-78606D01*
X94157Y-78606D02*
X94157Y-77988D01*
X94100Y-77875D01*
X93988Y-77819D01*
X93763Y-77819D01*
X93650Y-77875D01*
X94157Y-78550D02*
X94044Y-78606D01*
X93763Y-78606D01*
X93650Y-78550D01*
X93594Y-78438D01*
X93594Y-78325D01*
X93650Y-78213D01*
X93763Y-78156D01*
X94044Y-78156D01*
X94157Y-78100D01*
X94719Y-77819D02*
X94719Y-79000D01*
X94719Y-77875D02*
X94831Y-77819D01*
X95056Y-77819D01*
X95169Y-77875D01*
X95225Y-77931D01*
X95281Y-78044D01*
X95281Y-78381D01*
X95225Y-78494D01*
X95169Y-78550D01*
X95056Y-78606D01*
X94831Y-78606D01*
X94719Y-78550D01*
X95788Y-78494D02*
X95844Y-78550D01*
X95788Y-78606D01*
X95731Y-78550D01*
X95788Y-78494D01*
X95788Y-78606D01*
X95788Y-77875D02*
X95844Y-77931D01*
X95788Y-77988D01*
X95731Y-77931D01*
X95788Y-77875D01*
X95788Y-77988D01*
X86462Y-80530D02*
X86620Y-80687D01*
X86620Y-80530D02*
X86462Y-80687D01*
X87914Y-79906D02*
X88026Y-79906D01*
X88139Y-79962D01*
X88195Y-80018D01*
X88251Y-80130D01*
X88307Y-80355D01*
X88307Y-80637D01*
X88251Y-80862D01*
X88195Y-80974D01*
X88139Y-81030D01*
X88026Y-81087D01*
X87914Y-81087D01*
X87801Y-81030D01*
X87745Y-80974D01*
X87689Y-80862D01*
X87632Y-80637D01*
X87632Y-80355D01*
X87689Y-80130D01*
X87745Y-80018D01*
X87801Y-79962D01*
X87914Y-79906D01*
X88813Y-80974D02*
X88870Y-81030D01*
X88813Y-81087D01*
X88757Y-81030D01*
X88813Y-80974D01*
X88813Y-81087D01*
X89882Y-80299D02*
X89882Y-81087D01*
X89601Y-79849D02*
X89320Y-80693D01*
X90051Y-80693D01*
X90726Y-79906D02*
X90838Y-79906D01*
X90951Y-79962D01*
X91007Y-80018D01*
X91063Y-80130D01*
X91119Y-80355D01*
X91119Y-80637D01*
X91063Y-80862D01*
X91007Y-80974D01*
X90951Y-81030D01*
X90838Y-81087D01*
X90726Y-81087D01*
X90613Y-81030D01*
X90557Y-80974D01*
X90501Y-80862D01*
X90444Y-80637D01*
X90444Y-80355D01*
X90501Y-80130D01*
X90557Y-80018D01*
X90613Y-79962D01*
X90726Y-79906D01*
X91626Y-81087D02*
X91626Y-80299D01*
X91626Y-80412D02*
X91682Y-80355D01*
X91794Y-80299D01*
X91963Y-80299D01*
X92076Y-80355D01*
X92132Y-80468D01*
X92132Y-81087D01*
X92132Y-80468D02*
X92188Y-80355D01*
X92301Y-80299D01*
X92469Y-80299D01*
X92582Y-80355D01*
X92638Y-80468D01*
X92638Y-81087D01*
X93200Y-81087D02*
X93200Y-80299D01*
X93200Y-80412D02*
X93257Y-80355D01*
X93369Y-80299D01*
X93538Y-80299D01*
X93650Y-80355D01*
X93707Y-80468D01*
X93707Y-81087D01*
X93707Y-80468D02*
X93763Y-80355D01*
X93875Y-80299D01*
X94044Y-80299D01*
X94157Y-80355D01*
X94213Y-80468D01*
X94213Y-81087D01*
X96519Y-79849D02*
X95506Y-81368D01*
X98037Y-79906D02*
X98150Y-79906D01*
X98262Y-79962D01*
X98319Y-80018D01*
X98375Y-80130D01*
X98431Y-80355D01*
X98431Y-80637D01*
X98375Y-80862D01*
X98319Y-80974D01*
X98262Y-81030D01*
X98150Y-81087D01*
X98037Y-81087D01*
X97925Y-81030D01*
X97869Y-80974D01*
X97812Y-80862D01*
X97756Y-80637D01*
X97756Y-80355D01*
X97812Y-80130D01*
X97869Y-80018D01*
X97925Y-79962D01*
X98037Y-79906D01*
X98937Y-80974D02*
X98993Y-81030D01*
X98937Y-81087D01*
X98881Y-81030D01*
X98937Y-80974D01*
X98937Y-81087D01*
X99725Y-79906D02*
X99837Y-79906D01*
X99950Y-79962D01*
X100006Y-80018D01*
X100062Y-80130D01*
X100118Y-80355D01*
X100118Y-80637D01*
X100062Y-80862D01*
X100006Y-80974D01*
X99950Y-81030D01*
X99837Y-81087D01*
X99725Y-81087D01*
X99612Y-81030D01*
X99556Y-80974D01*
X99500Y-80862D01*
X99443Y-80637D01*
X99443Y-80355D01*
X99500Y-80130D01*
X99556Y-80018D01*
X99612Y-79962D01*
X99725Y-79906D01*
X101243Y-81087D02*
X100568Y-81087D01*
X100906Y-81087D02*
X100906Y-79906D01*
X100793Y-80074D01*
X100681Y-80187D01*
X100568Y-80243D01*
X102256Y-79906D02*
X102031Y-79906D01*
X101918Y-79962D01*
X101862Y-80018D01*
X101749Y-80187D01*
X101693Y-80412D01*
X101693Y-80862D01*
X101749Y-80974D01*
X101806Y-81030D01*
X101918Y-81087D01*
X102143Y-81087D01*
X102256Y-81030D01*
X102312Y-80974D01*
X102368Y-80862D01*
X102368Y-80580D01*
X102312Y-80468D01*
X102256Y-80412D01*
X102143Y-80355D01*
X101918Y-80355D01*
X101806Y-80412D01*
X101749Y-80468D01*
X101693Y-80580D01*
X102818Y-79906D02*
X102818Y-80130D01*
X103268Y-79906D02*
X103268Y-80130D01*
X105011Y-81537D02*
X104955Y-81480D01*
X104843Y-81312D01*
X104786Y-81199D01*
X104730Y-81030D01*
X104674Y-80749D01*
X104674Y-80524D01*
X104730Y-80243D01*
X104786Y-80074D01*
X104843Y-79962D01*
X104955Y-79793D01*
X105011Y-79737D01*
X105405Y-80018D02*
X105461Y-79962D01*
X105574Y-79906D01*
X105855Y-79906D01*
X105968Y-79962D01*
X106024Y-80018D01*
X106080Y-80130D01*
X106080Y-80243D01*
X106024Y-80412D01*
X105349Y-81087D01*
X106080Y-81087D01*
X107092Y-80299D02*
X107092Y-81087D01*
X106811Y-79849D02*
X106530Y-80693D01*
X107261Y-80693D01*
X108611Y-81087D02*
X108611Y-79906D01*
X109117Y-81087D02*
X109117Y-80468D01*
X109061Y-80355D01*
X108948Y-80299D01*
X108780Y-80299D01*
X108667Y-80355D01*
X108611Y-80412D01*
X109848Y-81087D02*
X109736Y-81030D01*
X109680Y-80974D01*
X109623Y-80862D01*
X109623Y-80524D01*
X109680Y-80412D01*
X109736Y-80355D01*
X109848Y-80299D01*
X110017Y-80299D01*
X110130Y-80355D01*
X110186Y-80412D01*
X110242Y-80524D01*
X110242Y-80862D01*
X110186Y-80974D01*
X110130Y-81030D01*
X110017Y-81087D01*
X109848Y-81087D01*
X110917Y-81087D02*
X110804Y-81030D01*
X110748Y-80918D01*
X110748Y-79906D01*
X111817Y-81030D02*
X111704Y-81087D01*
X111479Y-81087D01*
X111367Y-81030D01*
X111311Y-80918D01*
X111311Y-80468D01*
X111367Y-80355D01*
X111479Y-80299D01*
X111704Y-80299D01*
X111817Y-80355D01*
X111873Y-80468D01*
X111873Y-80580D01*
X111311Y-80693D01*
X112323Y-81030D02*
X112435Y-81087D01*
X112660Y-81087D01*
X112773Y-81030D01*
X112829Y-80918D01*
X112829Y-80862D01*
X112773Y-80749D01*
X112660Y-80693D01*
X112492Y-80693D01*
X112379Y-80637D01*
X112323Y-80524D01*
X112323Y-80468D01*
X112379Y-80355D01*
X112492Y-80299D01*
X112660Y-80299D01*
X112773Y-80355D01*
X113223Y-81537D02*
X113279Y-81480D01*
X113392Y-81312D01*
X113448Y-81199D01*
X113504Y-81030D01*
X113560Y-80749D01*
X113560Y-80524D01*
X113504Y-80243D01*
X113448Y-80074D01*
X113392Y-79962D01*
X113279Y-79793D01*
X113223Y-79737D01*
G54D12*
X86620Y-82168D02*
G75*
G03X86620Y-82168I-160J0D01*
G74*
G01*
G54D13*
X87914Y-81465D02*
X88026Y-81465D01*
X88139Y-81521D01*
X88195Y-81577D01*
X88251Y-81690D01*
X88307Y-81915D01*
X88307Y-82196D01*
X88251Y-82421D01*
X88195Y-82533D01*
X88139Y-82589D01*
X88026Y-82646D01*
X87914Y-82646D01*
X87801Y-82589D01*
X87745Y-82533D01*
X87689Y-82421D01*
X87632Y-82196D01*
X87632Y-81915D01*
X87689Y-81690D01*
X87745Y-81577D01*
X87801Y-81521D01*
X87914Y-81465D01*
X88813Y-82533D02*
X88870Y-82589D01*
X88813Y-82646D01*
X88757Y-82589D01*
X88813Y-82533D01*
X88813Y-82646D01*
X89545Y-81971D02*
X89432Y-81915D01*
X89376Y-81858D01*
X89320Y-81746D01*
X89320Y-81690D01*
X89376Y-81577D01*
X89432Y-81521D01*
X89545Y-81465D01*
X89770Y-81465D01*
X89882Y-81521D01*
X89938Y-81577D01*
X89995Y-81690D01*
X89995Y-81746D01*
X89938Y-81858D01*
X89882Y-81915D01*
X89770Y-81971D01*
X89545Y-81971D01*
X89432Y-82027D01*
X89376Y-82083D01*
X89320Y-82196D01*
X89320Y-82421D01*
X89376Y-82533D01*
X89432Y-82589D01*
X89545Y-82646D01*
X89770Y-82646D01*
X89882Y-82589D01*
X89938Y-82533D01*
X89995Y-82421D01*
X89995Y-82196D01*
X89938Y-82083D01*
X89882Y-82027D01*
X89770Y-81971D01*
X91119Y-82646D02*
X90444Y-82646D01*
X90782Y-82646D02*
X90782Y-81465D01*
X90669Y-81633D01*
X90557Y-81746D01*
X90444Y-81802D01*
X91626Y-82646D02*
X91626Y-81858D01*
X91626Y-81971D02*
X91682Y-81915D01*
X91794Y-81858D01*
X91963Y-81858D01*
X92076Y-81915D01*
X92132Y-82027D01*
X92132Y-82646D01*
X92132Y-82027D02*
X92188Y-81915D01*
X92301Y-81858D01*
X92469Y-81858D01*
X92582Y-81915D01*
X92638Y-82027D01*
X92638Y-82646D01*
X93200Y-82646D02*
X93200Y-81858D01*
X93200Y-81971D02*
X93257Y-81915D01*
X93369Y-81858D01*
X93538Y-81858D01*
X93650Y-81915D01*
X93707Y-82027D01*
X93707Y-82646D01*
X93707Y-82027D02*
X93763Y-81915D01*
X93875Y-81858D01*
X94044Y-81858D01*
X94157Y-81915D01*
X94213Y-82027D01*
X94213Y-82646D01*
X96519Y-81408D02*
X95506Y-82927D01*
X98037Y-81465D02*
X98150Y-81465D01*
X98262Y-81521D01*
X98319Y-81577D01*
X98375Y-81690D01*
X98431Y-81915D01*
X98431Y-82196D01*
X98375Y-82421D01*
X98319Y-82533D01*
X98262Y-82589D01*
X98150Y-82646D01*
X98037Y-82646D01*
X97925Y-82589D01*
X97869Y-82533D01*
X97812Y-82421D01*
X97756Y-82196D01*
X97756Y-81915D01*
X97812Y-81690D01*
X97869Y-81577D01*
X97925Y-81521D01*
X98037Y-81465D01*
X98937Y-82533D02*
X98993Y-82589D01*
X98937Y-82646D01*
X98881Y-82589D01*
X98937Y-82533D01*
X98937Y-82646D01*
X99725Y-81465D02*
X99837Y-81465D01*
X99950Y-81521D01*
X100006Y-81577D01*
X100062Y-81690D01*
X100118Y-81915D01*
X100118Y-82196D01*
X100062Y-82421D01*
X100006Y-82533D01*
X99950Y-82589D01*
X99837Y-82646D01*
X99725Y-82646D01*
X99612Y-82589D01*
X99556Y-82533D01*
X99500Y-82421D01*
X99443Y-82196D01*
X99443Y-81915D01*
X99500Y-81690D01*
X99556Y-81577D01*
X99612Y-81521D01*
X99725Y-81465D01*
X100512Y-81465D02*
X101243Y-81465D01*
X100849Y-81915D01*
X101018Y-81915D01*
X101131Y-81971D01*
X101187Y-82027D01*
X101243Y-82139D01*
X101243Y-82421D01*
X101187Y-82533D01*
X101131Y-82589D01*
X101018Y-82646D01*
X100681Y-82646D01*
X100568Y-82589D01*
X100512Y-82533D01*
X101693Y-81577D02*
X101749Y-81521D01*
X101862Y-81465D01*
X102143Y-81465D01*
X102256Y-81521D01*
X102312Y-81577D01*
X102368Y-81690D01*
X102368Y-81802D01*
X102312Y-81971D01*
X101637Y-82646D01*
X102368Y-82646D01*
X102818Y-81465D02*
X102818Y-81690D01*
X103268Y-81465D02*
X103268Y-81690D01*
X105011Y-83096D02*
X104955Y-83039D01*
X104843Y-82871D01*
X104786Y-82758D01*
X104730Y-82589D01*
X104674Y-82308D01*
X104674Y-82083D01*
X104730Y-81802D01*
X104786Y-81633D01*
X104843Y-81521D01*
X104955Y-81352D01*
X105011Y-81296D01*
X105968Y-81858D02*
X105968Y-82646D01*
X105686Y-81408D02*
X105405Y-82252D01*
X106136Y-82252D01*
X107486Y-82646D02*
X107486Y-81465D01*
X107992Y-82646D02*
X107992Y-82027D01*
X107936Y-81915D01*
X107824Y-81858D01*
X107655Y-81858D01*
X107542Y-81915D01*
X107486Y-81971D01*
X108723Y-82646D02*
X108611Y-82589D01*
X108555Y-82533D01*
X108498Y-82421D01*
X108498Y-82083D01*
X108555Y-81971D01*
X108611Y-81915D01*
X108723Y-81858D01*
X108892Y-81858D01*
X109005Y-81915D01*
X109061Y-81971D01*
X109117Y-82083D01*
X109117Y-82421D01*
X109061Y-82533D01*
X109005Y-82589D01*
X108892Y-82646D01*
X108723Y-82646D01*
X109792Y-82646D02*
X109680Y-82589D01*
X109623Y-82477D01*
X109623Y-81465D01*
X110692Y-82589D02*
X110579Y-82646D01*
X110355Y-82646D01*
X110242Y-82589D01*
X110186Y-82477D01*
X110186Y-82027D01*
X110242Y-81915D01*
X110355Y-81858D01*
X110579Y-81858D01*
X110692Y-81915D01*
X110748Y-82027D01*
X110748Y-82139D01*
X110186Y-82252D01*
X111198Y-82589D02*
X111311Y-82646D01*
X111536Y-82646D01*
X111648Y-82589D01*
X111704Y-82477D01*
X111704Y-82421D01*
X111648Y-82308D01*
X111536Y-82252D01*
X111367Y-82252D01*
X111254Y-82196D01*
X111198Y-82083D01*
X111198Y-82027D01*
X111254Y-81915D01*
X111367Y-81858D01*
X111536Y-81858D01*
X111648Y-81915D01*
X112098Y-83096D02*
X112154Y-83039D01*
X112267Y-82871D01*
X112323Y-82758D01*
X112379Y-82589D01*
X112435Y-82308D01*
X112435Y-82083D01*
X112379Y-81802D01*
X112323Y-81633D01*
X112267Y-81521D01*
X112154Y-81352D01*
X112098Y-81296D01*
M02*
