M48
;DRILL file {Pcbnew (22-Jun-2014 BZR 4027)-stable} date Wed 20 Dec 2017 04:57:15 PM CST
;FORMAT={-:-/ absolute / inch / decimal}
FMAT,2
INCH,TZ
T1C0.016
T2C0.032
%
G90
G05
M72
T1
X8.758Y-7.392
X8.758Y-7.63
X8.95Y-7.392
X8.96Y-6.55
X9.084Y-7.43
X9.18Y-7.274
X9.558Y-6.55
X9.662Y-7.074
X9.75Y-6.77
X9.824Y-7.568
X9.874Y-6.528
X9.874Y-6.77
X9.91Y-6.652
X9.914Y-7.346
X9.914Y-7.464
X9.9202Y-7.1238
X9.95Y-6.892
X9.984Y-7.43
X9.998Y-6.902
X10.002Y-7.346
X10.002Y-7.464
X10.166Y-6.866
X10.166Y-7.276
X10.2Y-7.122
T2
X9.798Y-6.384
X9.898Y-6.384
X9.998Y-6.384
X10.098Y-6.384
T0
M30
