G04 (created by PCBNEW (22-Jun-2014 BZR 4027)-stable) date Wed 20 Dec 2017 04:57:12 PM CST*
%MOIN*%
G04 Gerber Fmt 3.4, Leading zero omitted, Abs format*
%FSLAX34Y34*%
G01*
G70*
G90*
G04 APERTURE LIST*
%ADD10C,0.00393701*%
%ADD11C,0.00472441*%
%ADD12C,0.0019685*%
%ADD13C,0.00590551*%
%ADD14C,0.012*%
%ADD15C,0.0059*%
%ADD16C,0.005*%
%ADD17C,0.00492126*%
G04 APERTURE END LIST*
G54D10*
G54D11*
X89462Y-71928D02*
X88966Y-71928D01*
X86777Y-71928D02*
X87273Y-71928D01*
G54D12*
X86702Y-70947D02*
X86702Y-74412D01*
X89537Y-70947D02*
X86702Y-70947D01*
X89537Y-74412D02*
X89537Y-70947D01*
X86702Y-74412D02*
X89537Y-74412D01*
G54D13*
X86801Y-73408D02*
X89438Y-73408D01*
G54D11*
X89462Y-73408D02*
X89462Y-71928D01*
G54D13*
X86801Y-73408D02*
X86801Y-71951D01*
G54D11*
X86777Y-74294D02*
X86777Y-71928D01*
G54D13*
X89438Y-73408D02*
X89438Y-71951D01*
X86801Y-71951D02*
X89438Y-71951D01*
G54D12*
X102528Y-74395D02*
X101071Y-74395D01*
X102528Y-73804D02*
X101071Y-73804D01*
X102528Y-74395D02*
X102528Y-73804D01*
X101071Y-74395D02*
X101071Y-73804D01*
G54D13*
X101937Y-74336D02*
X101662Y-74336D01*
X101662Y-73863D02*
X101937Y-73863D01*
G54D12*
X100767Y-67366D02*
X100767Y-65633D01*
X97932Y-67366D02*
X100767Y-67366D01*
X97932Y-65633D02*
X97932Y-67366D01*
X100767Y-65633D02*
X97932Y-65633D01*
G54D13*
X100373Y-67169D02*
X98680Y-67169D01*
X98306Y-65830D02*
X100373Y-65830D01*
G54D12*
X100828Y-65595D02*
X99371Y-65595D01*
X100828Y-65004D02*
X99371Y-65004D01*
X100828Y-65595D02*
X100828Y-65004D01*
X99371Y-65595D02*
X99371Y-65004D01*
G54D13*
X100237Y-65536D02*
X99962Y-65536D01*
X99962Y-65063D02*
X100237Y-65063D01*
G54D12*
X97871Y-65004D02*
X99328Y-65004D01*
X97871Y-65595D02*
X99328Y-65595D01*
X97871Y-65004D02*
X97871Y-65595D01*
X99328Y-65004D02*
X99328Y-65595D01*
G54D13*
X98462Y-65063D02*
X98737Y-65063D01*
X98737Y-65536D02*
X98462Y-65536D01*
G54D12*
X101071Y-73154D02*
X102528Y-73154D01*
X101071Y-73745D02*
X102528Y-73745D01*
X101071Y-73154D02*
X101071Y-73745D01*
X102528Y-73154D02*
X102528Y-73745D01*
G54D13*
X101662Y-73213D02*
X101937Y-73213D01*
X101937Y-73686D02*
X101662Y-73686D01*
G54D12*
X97195Y-70371D02*
X97195Y-71828D01*
X96604Y-70371D02*
X96604Y-71828D01*
X97195Y-70371D02*
X96604Y-70371D01*
X97195Y-71828D02*
X96604Y-71828D01*
G54D13*
X97136Y-70962D02*
X97136Y-71237D01*
X96663Y-71237D02*
X96663Y-70962D01*
G54D12*
X99568Y-67995D02*
X98111Y-67995D01*
X99568Y-67404D02*
X98111Y-67404D01*
X99568Y-67995D02*
X99568Y-67404D01*
X98111Y-67995D02*
X98111Y-67404D01*
G54D13*
X98977Y-67936D02*
X98702Y-67936D01*
X98702Y-67463D02*
X98977Y-67463D01*
G54D12*
X99871Y-72164D02*
X101328Y-72164D01*
X99871Y-72755D02*
X101328Y-72755D01*
X99871Y-72164D02*
X99871Y-72755D01*
X101328Y-72164D02*
X101328Y-72755D01*
G54D13*
X100462Y-72223D02*
X100737Y-72223D01*
X100737Y-72696D02*
X100462Y-72696D01*
G54D12*
X101945Y-68671D02*
X101945Y-70128D01*
X101354Y-68671D02*
X101354Y-70128D01*
X101945Y-68671D02*
X101354Y-68671D01*
X101945Y-70128D02*
X101354Y-70128D01*
G54D13*
X101886Y-69262D02*
X101886Y-69537D01*
X101413Y-69537D02*
X101413Y-69262D01*
X98100Y-73000D02*
X101000Y-73000D01*
X101000Y-73000D02*
X101000Y-75100D01*
X101000Y-75100D02*
X98100Y-75100D01*
X98100Y-75100D02*
X98100Y-73000D01*
X86700Y-63050D02*
X89600Y-63050D01*
X89600Y-63050D02*
X89600Y-65150D01*
X89600Y-65150D02*
X86700Y-65150D01*
X86700Y-65150D02*
X86700Y-63050D01*
X109300Y-63050D02*
X112200Y-63050D01*
X112200Y-63050D02*
X112200Y-65150D01*
X112200Y-65150D02*
X109300Y-65150D01*
X109300Y-65150D02*
X109300Y-63050D01*
X94900Y-74650D02*
X97800Y-74650D01*
X97800Y-74650D02*
X97800Y-76750D01*
X97800Y-76750D02*
X94900Y-76750D01*
X94900Y-76750D02*
X94900Y-74650D01*
X101300Y-74650D02*
X104200Y-74650D01*
X104200Y-74650D02*
X104200Y-76750D01*
X104200Y-76750D02*
X101300Y-76750D01*
X101300Y-76750D02*
X101300Y-74650D01*
X109250Y-74600D02*
X112150Y-74600D01*
X112150Y-74600D02*
X112150Y-76700D01*
X112150Y-76700D02*
X109250Y-76700D01*
X109250Y-76700D02*
X109250Y-74600D01*
X106200Y-74600D02*
X109100Y-74600D01*
X109100Y-74600D02*
X109100Y-76700D01*
X109100Y-76700D02*
X106200Y-76700D01*
X106200Y-76700D02*
X106200Y-74600D01*
X86700Y-74650D02*
X89600Y-74650D01*
X89600Y-74650D02*
X89600Y-76750D01*
X89600Y-76750D02*
X86700Y-76750D01*
X86700Y-76750D02*
X86700Y-74650D01*
X89750Y-74650D02*
X92650Y-74650D01*
X92650Y-74650D02*
X92650Y-76750D01*
X92650Y-76750D02*
X89750Y-76750D01*
X89750Y-76750D02*
X89750Y-74650D01*
X97900Y-75650D02*
X101200Y-75650D01*
X101200Y-75650D02*
X101200Y-76750D01*
X101200Y-76750D02*
X97900Y-76750D01*
X97900Y-76750D02*
X97900Y-75650D01*
G54D14*
X101480Y-64340D02*
X101480Y-64340D01*
X101480Y-63340D02*
X101480Y-64340D01*
X101480Y-64340D02*
X101480Y-64340D01*
X101480Y-64340D02*
X97480Y-64340D01*
X97480Y-64340D02*
X97480Y-63340D01*
X97480Y-63340D02*
X101480Y-63340D01*
X100480Y-63340D02*
X100480Y-64340D01*
G54D13*
X100402Y-68840D02*
X100441Y-68840D01*
X100441Y-68840D02*
X100559Y-68958D01*
X100559Y-68958D02*
X100559Y-71241D01*
X100559Y-71241D02*
X100441Y-71359D01*
X100441Y-71359D02*
X98158Y-71359D01*
X98158Y-71359D02*
X98040Y-71241D01*
X98040Y-71241D02*
X98040Y-68958D01*
X98040Y-68958D02*
X98158Y-68840D01*
X98158Y-68840D02*
X100402Y-68840D01*
G54D15*
X100992Y-68486D02*
X100913Y-68407D01*
X100835Y-68407D02*
X100992Y-68564D01*
X100992Y-68643D02*
X100756Y-68407D01*
X100677Y-68407D02*
X100992Y-68722D01*
X100598Y-68407D02*
X100992Y-68407D01*
X100992Y-68407D02*
X100992Y-68801D01*
X100992Y-68801D02*
X100598Y-68407D01*
X97567Y-68801D02*
X97567Y-68407D01*
X97567Y-68407D02*
X97961Y-68407D01*
X97961Y-71792D02*
X97567Y-71792D01*
X97567Y-71792D02*
X97567Y-71398D01*
X101032Y-71398D02*
X101032Y-71792D01*
X101032Y-71792D02*
X100638Y-71792D01*
G54D16*
X100361Y-69150D02*
G75*
G03X100361Y-69150I-111J0D01*
G74*
G01*
G54D12*
X89731Y-73624D02*
X91188Y-73624D01*
X89731Y-74215D02*
X91188Y-74215D01*
X89731Y-73624D02*
X89731Y-74215D01*
X91188Y-73624D02*
X91188Y-74215D01*
G54D13*
X90322Y-73683D02*
X90597Y-73683D01*
X90597Y-74156D02*
X90322Y-74156D01*
G54D17*
X86870Y-71992D02*
X86870Y-72247D01*
X86879Y-72277D01*
X86888Y-72292D01*
X86907Y-72307D01*
X86945Y-72307D01*
X86963Y-72292D01*
X86973Y-72277D01*
X86982Y-72247D01*
X86982Y-71992D01*
X87066Y-72022D02*
X87076Y-72007D01*
X87094Y-71992D01*
X87141Y-71992D01*
X87160Y-72007D01*
X87169Y-72022D01*
X87179Y-72052D01*
X87179Y-72082D01*
X87169Y-72127D01*
X87057Y-72307D01*
X87179Y-72307D01*
X86895Y-72617D02*
X86989Y-72617D01*
X86877Y-72707D02*
X86942Y-72392D01*
X87008Y-72707D01*
X87073Y-72707D02*
X87073Y-72392D01*
X87139Y-72617D01*
X87205Y-72392D01*
X87205Y-72707D01*
X87289Y-72692D02*
X87317Y-72707D01*
X87364Y-72707D01*
X87383Y-72692D01*
X87392Y-72677D01*
X87401Y-72647D01*
X87401Y-72617D01*
X87392Y-72587D01*
X87383Y-72572D01*
X87364Y-72557D01*
X87326Y-72542D01*
X87308Y-72527D01*
X87298Y-72512D01*
X87289Y-72482D01*
X87289Y-72452D01*
X87298Y-72422D01*
X87308Y-72407D01*
X87326Y-72392D01*
X87373Y-72392D01*
X87401Y-72407D01*
X87589Y-72707D02*
X87476Y-72707D01*
X87533Y-72707D02*
X87533Y-72392D01*
X87514Y-72437D01*
X87495Y-72467D01*
X87476Y-72482D01*
X87776Y-72707D02*
X87664Y-72707D01*
X87720Y-72707D02*
X87720Y-72392D01*
X87701Y-72437D01*
X87683Y-72467D01*
X87664Y-72482D01*
X87964Y-72707D02*
X87851Y-72707D01*
X87908Y-72707D02*
X87908Y-72392D01*
X87889Y-72437D01*
X87870Y-72467D01*
X87851Y-72482D01*
X88029Y-72392D02*
X88161Y-72392D01*
X88076Y-72707D01*
X88236Y-72587D02*
X88386Y-72587D01*
X88461Y-72392D02*
X88583Y-72392D01*
X88517Y-72512D01*
X88545Y-72512D01*
X88564Y-72527D01*
X88573Y-72542D01*
X88583Y-72572D01*
X88583Y-72647D01*
X88573Y-72677D01*
X88564Y-72692D01*
X88545Y-72707D01*
X88489Y-72707D01*
X88470Y-72692D01*
X88461Y-72677D01*
X88667Y-72677D02*
X88676Y-72692D01*
X88667Y-72707D01*
X88658Y-72692D01*
X88667Y-72677D01*
X88667Y-72707D01*
X88742Y-72392D02*
X88864Y-72392D01*
X88798Y-72512D01*
X88826Y-72512D01*
X88845Y-72527D01*
X88854Y-72542D01*
X88864Y-72572D01*
X88864Y-72647D01*
X88854Y-72677D01*
X88845Y-72692D01*
X88826Y-72707D01*
X88770Y-72707D01*
X88751Y-72692D01*
X88742Y-72677D01*
X103317Y-74377D02*
X103251Y-74227D01*
X103204Y-74377D02*
X103204Y-74062D01*
X103279Y-74062D01*
X103298Y-74077D01*
X103307Y-74092D01*
X103317Y-74122D01*
X103317Y-74167D01*
X103307Y-74197D01*
X103298Y-74212D01*
X103279Y-74227D01*
X103204Y-74227D01*
X103504Y-74377D02*
X103392Y-74377D01*
X103448Y-74377D02*
X103448Y-74062D01*
X103429Y-74107D01*
X103410Y-74137D01*
X103392Y-74152D01*
X102714Y-74377D02*
X102601Y-74377D01*
X102657Y-74377D02*
X102657Y-74062D01*
X102639Y-74107D01*
X102620Y-74137D01*
X102601Y-74152D01*
X102835Y-74062D02*
X102854Y-74062D01*
X102873Y-74077D01*
X102882Y-74092D01*
X102892Y-74122D01*
X102901Y-74182D01*
X102901Y-74257D01*
X102892Y-74317D01*
X102882Y-74347D01*
X102873Y-74362D01*
X102854Y-74377D01*
X102835Y-74377D01*
X102817Y-74362D01*
X102807Y-74347D01*
X102798Y-74317D01*
X102789Y-74257D01*
X102789Y-74182D01*
X102798Y-74122D01*
X102807Y-74092D01*
X102817Y-74077D01*
X102835Y-74062D01*
X102985Y-74377D02*
X102985Y-74062D01*
X103098Y-74377D02*
X103014Y-74197D01*
X103098Y-74062D02*
X102985Y-74242D01*
X92337Y-65712D02*
X92365Y-65727D01*
X92412Y-65727D01*
X92431Y-65712D01*
X92440Y-65697D01*
X92450Y-65667D01*
X92450Y-65637D01*
X92440Y-65607D01*
X92431Y-65592D01*
X92412Y-65577D01*
X92375Y-65562D01*
X92356Y-65547D01*
X92346Y-65532D01*
X92337Y-65502D01*
X92337Y-65472D01*
X92346Y-65442D01*
X92356Y-65427D01*
X92375Y-65412D01*
X92421Y-65412D01*
X92450Y-65427D01*
X92515Y-65412D02*
X92562Y-65727D01*
X92600Y-65502D01*
X92637Y-65727D01*
X92684Y-65412D01*
X92862Y-65727D02*
X92749Y-65727D01*
X92806Y-65727D02*
X92806Y-65412D01*
X92787Y-65457D01*
X92768Y-65487D01*
X92749Y-65502D01*
X92395Y-65812D02*
X92395Y-66067D01*
X92404Y-66097D01*
X92414Y-66112D01*
X92432Y-66127D01*
X92470Y-66127D01*
X92489Y-66112D01*
X92498Y-66097D01*
X92507Y-66067D01*
X92507Y-65812D01*
X92601Y-66127D02*
X92601Y-65812D01*
X92676Y-65812D01*
X92695Y-65827D01*
X92704Y-65842D01*
X92714Y-65872D01*
X92714Y-65917D01*
X92704Y-65947D01*
X92695Y-65962D01*
X92676Y-65977D01*
X92601Y-65977D01*
X105937Y-65712D02*
X105965Y-65727D01*
X106012Y-65727D01*
X106031Y-65712D01*
X106040Y-65697D01*
X106050Y-65667D01*
X106050Y-65637D01*
X106040Y-65607D01*
X106031Y-65592D01*
X106012Y-65577D01*
X105975Y-65562D01*
X105956Y-65547D01*
X105946Y-65532D01*
X105937Y-65502D01*
X105937Y-65472D01*
X105946Y-65442D01*
X105956Y-65427D01*
X105975Y-65412D01*
X106021Y-65412D01*
X106050Y-65427D01*
X106115Y-65412D02*
X106162Y-65727D01*
X106200Y-65502D01*
X106237Y-65727D01*
X106284Y-65412D01*
X106387Y-65547D02*
X106368Y-65532D01*
X106359Y-65517D01*
X106349Y-65487D01*
X106349Y-65472D01*
X106359Y-65442D01*
X106368Y-65427D01*
X106387Y-65412D01*
X106424Y-65412D01*
X106443Y-65427D01*
X106453Y-65442D01*
X106462Y-65472D01*
X106462Y-65487D01*
X106453Y-65517D01*
X106443Y-65532D01*
X106424Y-65547D01*
X106387Y-65547D01*
X106368Y-65562D01*
X106359Y-65577D01*
X106349Y-65607D01*
X106349Y-65667D01*
X106359Y-65697D01*
X106368Y-65712D01*
X106387Y-65727D01*
X106424Y-65727D01*
X106443Y-65712D01*
X106453Y-65697D01*
X106462Y-65667D01*
X106462Y-65607D01*
X106453Y-65577D01*
X106443Y-65562D01*
X106424Y-65547D01*
X106134Y-65812D02*
X106265Y-66127D01*
X106265Y-65812D02*
X106134Y-66127D01*
X105937Y-68962D02*
X105965Y-68977D01*
X106012Y-68977D01*
X106031Y-68962D01*
X106040Y-68947D01*
X106050Y-68917D01*
X106050Y-68887D01*
X106040Y-68857D01*
X106031Y-68842D01*
X106012Y-68827D01*
X105975Y-68812D01*
X105956Y-68797D01*
X105946Y-68782D01*
X105937Y-68752D01*
X105937Y-68722D01*
X105946Y-68692D01*
X105956Y-68677D01*
X105975Y-68662D01*
X106021Y-68662D01*
X106050Y-68677D01*
X106115Y-68662D02*
X106162Y-68977D01*
X106200Y-68752D01*
X106237Y-68977D01*
X106284Y-68662D01*
X106443Y-68662D02*
X106406Y-68662D01*
X106387Y-68677D01*
X106378Y-68692D01*
X106359Y-68737D01*
X106349Y-68797D01*
X106349Y-68917D01*
X106359Y-68947D01*
X106368Y-68962D01*
X106387Y-68977D01*
X106424Y-68977D01*
X106443Y-68962D01*
X106453Y-68947D01*
X106462Y-68917D01*
X106462Y-68842D01*
X106453Y-68812D01*
X106443Y-68797D01*
X106424Y-68782D01*
X106387Y-68782D01*
X106368Y-68797D01*
X106359Y-68812D01*
X106349Y-68842D01*
X106214Y-69212D02*
X106242Y-69227D01*
X106251Y-69242D01*
X106260Y-69272D01*
X106260Y-69317D01*
X106251Y-69347D01*
X106242Y-69362D01*
X106223Y-69377D01*
X106148Y-69377D01*
X106148Y-69062D01*
X106214Y-69062D01*
X106232Y-69077D01*
X106242Y-69092D01*
X106251Y-69122D01*
X106251Y-69152D01*
X106242Y-69182D01*
X106232Y-69197D01*
X106214Y-69212D01*
X106148Y-69212D01*
X92287Y-68962D02*
X92315Y-68977D01*
X92362Y-68977D01*
X92381Y-68962D01*
X92390Y-68947D01*
X92400Y-68917D01*
X92400Y-68887D01*
X92390Y-68857D01*
X92381Y-68842D01*
X92362Y-68827D01*
X92325Y-68812D01*
X92306Y-68797D01*
X92296Y-68782D01*
X92287Y-68752D01*
X92287Y-68722D01*
X92296Y-68692D01*
X92306Y-68677D01*
X92325Y-68662D01*
X92371Y-68662D01*
X92400Y-68677D01*
X92465Y-68662D02*
X92512Y-68977D01*
X92550Y-68752D01*
X92587Y-68977D01*
X92634Y-68662D01*
X92699Y-68692D02*
X92709Y-68677D01*
X92728Y-68662D01*
X92774Y-68662D01*
X92793Y-68677D01*
X92803Y-68692D01*
X92812Y-68722D01*
X92812Y-68752D01*
X92803Y-68797D01*
X92690Y-68977D01*
X92812Y-68977D01*
X92229Y-69377D02*
X92229Y-69062D01*
X92276Y-69062D01*
X92304Y-69077D01*
X92323Y-69107D01*
X92332Y-69137D01*
X92342Y-69197D01*
X92342Y-69242D01*
X92332Y-69302D01*
X92323Y-69332D01*
X92304Y-69362D01*
X92276Y-69377D01*
X92229Y-69377D01*
X92464Y-69062D02*
X92501Y-69062D01*
X92520Y-69077D01*
X92539Y-69107D01*
X92548Y-69167D01*
X92548Y-69272D01*
X92539Y-69332D01*
X92520Y-69362D01*
X92501Y-69377D01*
X92464Y-69377D01*
X92445Y-69362D01*
X92426Y-69332D01*
X92417Y-69272D01*
X92417Y-69167D01*
X92426Y-69107D01*
X92445Y-69077D01*
X92464Y-69062D01*
X92614Y-69062D02*
X92660Y-69377D01*
X92698Y-69152D01*
X92735Y-69377D01*
X92782Y-69062D01*
X92857Y-69377D02*
X92857Y-69062D01*
X92970Y-69377D01*
X92970Y-69062D01*
X107637Y-67312D02*
X107665Y-67327D01*
X107712Y-67327D01*
X107731Y-67312D01*
X107740Y-67297D01*
X107750Y-67267D01*
X107750Y-67237D01*
X107740Y-67207D01*
X107731Y-67192D01*
X107712Y-67177D01*
X107675Y-67162D01*
X107656Y-67147D01*
X107646Y-67132D01*
X107637Y-67102D01*
X107637Y-67072D01*
X107646Y-67042D01*
X107656Y-67027D01*
X107675Y-67012D01*
X107721Y-67012D01*
X107750Y-67027D01*
X107815Y-67012D02*
X107862Y-67327D01*
X107900Y-67102D01*
X107937Y-67327D01*
X107984Y-67012D01*
X108153Y-67012D02*
X108059Y-67012D01*
X108049Y-67162D01*
X108059Y-67147D01*
X108078Y-67132D01*
X108124Y-67132D01*
X108143Y-67147D01*
X108153Y-67162D01*
X108162Y-67192D01*
X108162Y-67267D01*
X108153Y-67297D01*
X108143Y-67312D01*
X108124Y-67327D01*
X108078Y-67327D01*
X108059Y-67312D01*
X108049Y-67297D01*
X107853Y-67687D02*
X107946Y-67687D01*
X107834Y-67777D02*
X107900Y-67462D01*
X107965Y-67777D01*
X94037Y-67312D02*
X94065Y-67327D01*
X94112Y-67327D01*
X94131Y-67312D01*
X94140Y-67297D01*
X94150Y-67267D01*
X94150Y-67237D01*
X94140Y-67207D01*
X94131Y-67192D01*
X94112Y-67177D01*
X94075Y-67162D01*
X94056Y-67147D01*
X94046Y-67132D01*
X94037Y-67102D01*
X94037Y-67072D01*
X94046Y-67042D01*
X94056Y-67027D01*
X94075Y-67012D01*
X94121Y-67012D01*
X94150Y-67027D01*
X94215Y-67012D02*
X94262Y-67327D01*
X94300Y-67102D01*
X94337Y-67327D01*
X94384Y-67012D01*
X94543Y-67117D02*
X94543Y-67327D01*
X94496Y-66997D02*
X94449Y-67222D01*
X94571Y-67222D01*
X93887Y-67777D02*
X93821Y-67627D01*
X93775Y-67777D02*
X93775Y-67462D01*
X93850Y-67462D01*
X93868Y-67477D01*
X93878Y-67492D01*
X93887Y-67522D01*
X93887Y-67567D01*
X93878Y-67597D01*
X93868Y-67612D01*
X93850Y-67627D01*
X93775Y-67627D01*
X93971Y-67777D02*
X93971Y-67462D01*
X94168Y-67477D02*
X94150Y-67462D01*
X94121Y-67462D01*
X94093Y-67477D01*
X94075Y-67507D01*
X94065Y-67537D01*
X94056Y-67597D01*
X94056Y-67642D01*
X94065Y-67702D01*
X94075Y-67732D01*
X94093Y-67762D01*
X94121Y-67777D01*
X94140Y-67777D01*
X94168Y-67762D01*
X94178Y-67747D01*
X94178Y-67642D01*
X94140Y-67642D01*
X94262Y-67777D02*
X94262Y-67462D01*
X94262Y-67612D02*
X94374Y-67612D01*
X94374Y-67777D02*
X94374Y-67462D01*
X94440Y-67462D02*
X94553Y-67462D01*
X94496Y-67777D02*
X94496Y-67462D01*
X90637Y-67312D02*
X90665Y-67327D01*
X90712Y-67327D01*
X90731Y-67312D01*
X90740Y-67297D01*
X90750Y-67267D01*
X90750Y-67237D01*
X90740Y-67207D01*
X90731Y-67192D01*
X90712Y-67177D01*
X90675Y-67162D01*
X90656Y-67147D01*
X90646Y-67132D01*
X90637Y-67102D01*
X90637Y-67072D01*
X90646Y-67042D01*
X90656Y-67027D01*
X90675Y-67012D01*
X90721Y-67012D01*
X90750Y-67027D01*
X90815Y-67012D02*
X90862Y-67327D01*
X90900Y-67102D01*
X90937Y-67327D01*
X90984Y-67012D01*
X91040Y-67012D02*
X91162Y-67012D01*
X91096Y-67132D01*
X91124Y-67132D01*
X91143Y-67147D01*
X91153Y-67162D01*
X91162Y-67192D01*
X91162Y-67267D01*
X91153Y-67297D01*
X91143Y-67312D01*
X91124Y-67327D01*
X91068Y-67327D01*
X91049Y-67312D01*
X91040Y-67297D01*
X90762Y-67777D02*
X90668Y-67777D01*
X90668Y-67462D01*
X90828Y-67612D02*
X90893Y-67612D01*
X90921Y-67777D02*
X90828Y-67777D01*
X90828Y-67462D01*
X90921Y-67462D01*
X91071Y-67612D02*
X91006Y-67612D01*
X91006Y-67777D02*
X91006Y-67462D01*
X91099Y-67462D01*
X91146Y-67462D02*
X91259Y-67462D01*
X91203Y-67777D02*
X91203Y-67462D01*
X104237Y-67312D02*
X104265Y-67327D01*
X104312Y-67327D01*
X104331Y-67312D01*
X104340Y-67297D01*
X104350Y-67267D01*
X104350Y-67237D01*
X104340Y-67207D01*
X104331Y-67192D01*
X104312Y-67177D01*
X104275Y-67162D01*
X104256Y-67147D01*
X104246Y-67132D01*
X104237Y-67102D01*
X104237Y-67072D01*
X104246Y-67042D01*
X104256Y-67027D01*
X104275Y-67012D01*
X104321Y-67012D01*
X104350Y-67027D01*
X104415Y-67012D02*
X104462Y-67327D01*
X104500Y-67102D01*
X104537Y-67327D01*
X104584Y-67012D01*
X104668Y-67327D02*
X104706Y-67327D01*
X104724Y-67312D01*
X104734Y-67297D01*
X104753Y-67252D01*
X104762Y-67192D01*
X104762Y-67072D01*
X104753Y-67042D01*
X104743Y-67027D01*
X104724Y-67012D01*
X104687Y-67012D01*
X104668Y-67027D01*
X104659Y-67042D01*
X104649Y-67072D01*
X104649Y-67147D01*
X104659Y-67177D01*
X104668Y-67192D01*
X104687Y-67207D01*
X104724Y-67207D01*
X104743Y-67192D01*
X104753Y-67177D01*
X104762Y-67147D01*
X104500Y-67627D02*
X104500Y-67777D01*
X104434Y-67462D02*
X104500Y-67627D01*
X104565Y-67462D01*
X101106Y-66827D02*
X101106Y-66977D01*
X101040Y-66662D02*
X101106Y-66827D01*
X101171Y-66662D01*
X101340Y-66977D02*
X101228Y-66977D01*
X101284Y-66977D02*
X101284Y-66662D01*
X101265Y-66707D01*
X101246Y-66737D01*
X101228Y-66752D01*
X100885Y-67197D02*
X100867Y-67182D01*
X100857Y-67167D01*
X100848Y-67137D01*
X100848Y-67122D01*
X100857Y-67092D01*
X100867Y-67077D01*
X100885Y-67062D01*
X100923Y-67062D01*
X100942Y-67077D01*
X100951Y-67092D01*
X100960Y-67122D01*
X100960Y-67137D01*
X100951Y-67167D01*
X100942Y-67182D01*
X100923Y-67197D01*
X100885Y-67197D01*
X100867Y-67212D01*
X100857Y-67227D01*
X100848Y-67257D01*
X100848Y-67317D01*
X100857Y-67347D01*
X100867Y-67362D01*
X100885Y-67377D01*
X100923Y-67377D01*
X100942Y-67362D01*
X100951Y-67347D01*
X100960Y-67317D01*
X100960Y-67257D01*
X100951Y-67227D01*
X100942Y-67212D01*
X100923Y-67197D01*
X101045Y-67377D02*
X101045Y-67062D01*
X101110Y-67287D01*
X101176Y-67062D01*
X101176Y-67377D01*
X101270Y-67377D02*
X101270Y-67062D01*
X101270Y-67212D02*
X101382Y-67212D01*
X101382Y-67377D02*
X101382Y-67062D01*
X101457Y-67167D02*
X101560Y-67167D01*
X101457Y-67377D01*
X101560Y-67377D01*
X100092Y-64922D02*
X100082Y-64937D01*
X100054Y-64952D01*
X100035Y-64952D01*
X100007Y-64937D01*
X99989Y-64907D01*
X99979Y-64877D01*
X99970Y-64817D01*
X99970Y-64772D01*
X99979Y-64712D01*
X99989Y-64682D01*
X100007Y-64652D01*
X100035Y-64637D01*
X100054Y-64637D01*
X100082Y-64652D01*
X100092Y-64667D01*
X100157Y-64637D02*
X100289Y-64637D01*
X100204Y-64952D01*
X99498Y-64952D02*
X99385Y-64952D01*
X99442Y-64952D02*
X99442Y-64637D01*
X99423Y-64682D01*
X99404Y-64712D01*
X99385Y-64727D01*
X99620Y-64637D02*
X99639Y-64637D01*
X99657Y-64652D01*
X99667Y-64667D01*
X99676Y-64697D01*
X99685Y-64757D01*
X99685Y-64832D01*
X99676Y-64892D01*
X99667Y-64922D01*
X99657Y-64937D01*
X99639Y-64952D01*
X99620Y-64952D01*
X99601Y-64937D01*
X99592Y-64922D01*
X99582Y-64892D01*
X99573Y-64832D01*
X99573Y-64757D01*
X99582Y-64697D01*
X99592Y-64667D01*
X99601Y-64652D01*
X99620Y-64637D01*
X99770Y-64742D02*
X99770Y-65057D01*
X99770Y-64757D02*
X99789Y-64742D01*
X99826Y-64742D01*
X99845Y-64757D01*
X99854Y-64772D01*
X99864Y-64802D01*
X99864Y-64892D01*
X99854Y-64922D01*
X99845Y-64937D01*
X99826Y-64952D01*
X99789Y-64952D01*
X99770Y-64937D01*
X98592Y-64922D02*
X98582Y-64937D01*
X98554Y-64952D01*
X98535Y-64952D01*
X98507Y-64937D01*
X98489Y-64907D01*
X98479Y-64877D01*
X98470Y-64817D01*
X98470Y-64772D01*
X98479Y-64712D01*
X98489Y-64682D01*
X98507Y-64652D01*
X98535Y-64637D01*
X98554Y-64637D01*
X98582Y-64652D01*
X98592Y-64667D01*
X98760Y-64637D02*
X98723Y-64637D01*
X98704Y-64652D01*
X98695Y-64667D01*
X98676Y-64712D01*
X98667Y-64772D01*
X98667Y-64892D01*
X98676Y-64922D01*
X98685Y-64937D01*
X98704Y-64952D01*
X98742Y-64952D01*
X98760Y-64937D01*
X98770Y-64922D01*
X98779Y-64892D01*
X98779Y-64817D01*
X98770Y-64787D01*
X98760Y-64772D01*
X98742Y-64757D01*
X98704Y-64757D01*
X98685Y-64772D01*
X98676Y-64787D01*
X98667Y-64817D01*
X97998Y-64952D02*
X97885Y-64952D01*
X97942Y-64952D02*
X97942Y-64637D01*
X97923Y-64682D01*
X97904Y-64712D01*
X97885Y-64727D01*
X98120Y-64637D02*
X98139Y-64637D01*
X98157Y-64652D01*
X98167Y-64667D01*
X98176Y-64697D01*
X98185Y-64757D01*
X98185Y-64832D01*
X98176Y-64892D01*
X98167Y-64922D01*
X98157Y-64937D01*
X98139Y-64952D01*
X98120Y-64952D01*
X98101Y-64937D01*
X98092Y-64922D01*
X98082Y-64892D01*
X98073Y-64832D01*
X98073Y-64757D01*
X98082Y-64697D01*
X98092Y-64667D01*
X98101Y-64652D01*
X98120Y-64637D01*
X98270Y-64742D02*
X98270Y-65057D01*
X98270Y-64757D02*
X98289Y-64742D01*
X98326Y-64742D01*
X98345Y-64757D01*
X98354Y-64772D01*
X98364Y-64802D01*
X98364Y-64892D01*
X98354Y-64922D01*
X98345Y-64937D01*
X98326Y-64952D01*
X98289Y-64952D01*
X98270Y-64937D01*
X103467Y-73697D02*
X103457Y-73712D01*
X103429Y-73727D01*
X103410Y-73727D01*
X103382Y-73712D01*
X103364Y-73682D01*
X103354Y-73652D01*
X103345Y-73592D01*
X103345Y-73547D01*
X103354Y-73487D01*
X103364Y-73457D01*
X103382Y-73427D01*
X103410Y-73412D01*
X103429Y-73412D01*
X103457Y-73427D01*
X103467Y-73442D01*
X103645Y-73412D02*
X103551Y-73412D01*
X103542Y-73562D01*
X103551Y-73547D01*
X103570Y-73532D01*
X103617Y-73532D01*
X103635Y-73547D01*
X103645Y-73562D01*
X103654Y-73592D01*
X103654Y-73667D01*
X103645Y-73697D01*
X103635Y-73712D01*
X103617Y-73727D01*
X103570Y-73727D01*
X103551Y-73712D01*
X103542Y-73697D01*
X102689Y-73727D02*
X102576Y-73727D01*
X102632Y-73727D02*
X102632Y-73412D01*
X102614Y-73457D01*
X102595Y-73487D01*
X102576Y-73502D01*
X102810Y-73412D02*
X102829Y-73412D01*
X102848Y-73427D01*
X102857Y-73442D01*
X102867Y-73472D01*
X102876Y-73532D01*
X102876Y-73607D01*
X102867Y-73667D01*
X102857Y-73697D01*
X102848Y-73712D01*
X102829Y-73727D01*
X102810Y-73727D01*
X102792Y-73712D01*
X102782Y-73697D01*
X102773Y-73667D01*
X102764Y-73607D01*
X102764Y-73532D01*
X102773Y-73472D01*
X102782Y-73442D01*
X102792Y-73427D01*
X102810Y-73412D01*
X103045Y-73517D02*
X103045Y-73727D01*
X102960Y-73517D02*
X102960Y-73682D01*
X102970Y-73712D01*
X102989Y-73727D01*
X103017Y-73727D01*
X103035Y-73712D01*
X103045Y-73697D01*
X103204Y-73562D02*
X103139Y-73562D01*
X103139Y-73727D02*
X103139Y-73412D01*
X103232Y-73412D01*
X96842Y-69872D02*
X96832Y-69887D01*
X96804Y-69902D01*
X96785Y-69902D01*
X96757Y-69887D01*
X96739Y-69857D01*
X96729Y-69827D01*
X96720Y-69767D01*
X96720Y-69722D01*
X96729Y-69662D01*
X96739Y-69632D01*
X96757Y-69602D01*
X96785Y-69587D01*
X96804Y-69587D01*
X96832Y-69602D01*
X96842Y-69617D01*
X97010Y-69692D02*
X97010Y-69902D01*
X96964Y-69572D02*
X96917Y-69797D01*
X97039Y-69797D01*
X96743Y-70302D02*
X96631Y-70302D01*
X96687Y-70302D02*
X96687Y-69987D01*
X96668Y-70032D01*
X96650Y-70062D01*
X96631Y-70077D01*
X96865Y-69987D02*
X96884Y-69987D01*
X96903Y-70002D01*
X96912Y-70017D01*
X96921Y-70047D01*
X96931Y-70107D01*
X96931Y-70182D01*
X96921Y-70242D01*
X96912Y-70272D01*
X96903Y-70287D01*
X96884Y-70302D01*
X96865Y-70302D01*
X96846Y-70287D01*
X96837Y-70272D01*
X96828Y-70242D01*
X96818Y-70182D01*
X96818Y-70107D01*
X96828Y-70047D01*
X96837Y-70017D01*
X96846Y-70002D01*
X96865Y-69987D01*
X97099Y-70092D02*
X97099Y-70302D01*
X97053Y-69972D02*
X97006Y-70197D01*
X97128Y-70197D01*
X100307Y-67947D02*
X100297Y-67962D01*
X100269Y-67977D01*
X100250Y-67977D01*
X100222Y-67962D01*
X100204Y-67932D01*
X100194Y-67902D01*
X100185Y-67842D01*
X100185Y-67797D01*
X100194Y-67737D01*
X100204Y-67707D01*
X100222Y-67677D01*
X100250Y-67662D01*
X100269Y-67662D01*
X100297Y-67677D01*
X100307Y-67692D01*
X100372Y-67662D02*
X100494Y-67662D01*
X100429Y-67782D01*
X100457Y-67782D01*
X100475Y-67797D01*
X100485Y-67812D01*
X100494Y-67842D01*
X100494Y-67917D01*
X100485Y-67947D01*
X100475Y-67962D01*
X100457Y-67977D01*
X100400Y-67977D01*
X100382Y-67962D01*
X100372Y-67947D01*
X99708Y-67977D02*
X99596Y-67977D01*
X99652Y-67977D02*
X99652Y-67662D01*
X99633Y-67707D01*
X99615Y-67737D01*
X99596Y-67752D01*
X99830Y-67662D02*
X99849Y-67662D01*
X99868Y-67677D01*
X99877Y-67692D01*
X99886Y-67722D01*
X99896Y-67782D01*
X99896Y-67857D01*
X99886Y-67917D01*
X99877Y-67947D01*
X99868Y-67962D01*
X99849Y-67977D01*
X99830Y-67977D01*
X99811Y-67962D01*
X99802Y-67947D01*
X99793Y-67917D01*
X99783Y-67857D01*
X99783Y-67782D01*
X99793Y-67722D01*
X99802Y-67692D01*
X99811Y-67677D01*
X99830Y-67662D01*
X100064Y-67767D02*
X100064Y-67977D01*
X100018Y-67647D02*
X99971Y-67872D01*
X100093Y-67872D01*
X102067Y-72707D02*
X102057Y-72722D01*
X102029Y-72737D01*
X102010Y-72737D01*
X101982Y-72722D01*
X101964Y-72692D01*
X101954Y-72662D01*
X101945Y-72602D01*
X101945Y-72557D01*
X101954Y-72497D01*
X101964Y-72467D01*
X101982Y-72437D01*
X102010Y-72422D01*
X102029Y-72422D01*
X102057Y-72437D01*
X102067Y-72452D01*
X102142Y-72452D02*
X102151Y-72437D01*
X102170Y-72422D01*
X102217Y-72422D01*
X102235Y-72437D01*
X102245Y-72452D01*
X102254Y-72482D01*
X102254Y-72512D01*
X102245Y-72557D01*
X102132Y-72737D01*
X102254Y-72737D01*
X101468Y-72737D02*
X101356Y-72737D01*
X101412Y-72737D02*
X101412Y-72422D01*
X101393Y-72467D01*
X101375Y-72497D01*
X101356Y-72512D01*
X101590Y-72422D02*
X101609Y-72422D01*
X101628Y-72437D01*
X101637Y-72452D01*
X101646Y-72482D01*
X101656Y-72542D01*
X101656Y-72617D01*
X101646Y-72677D01*
X101637Y-72707D01*
X101628Y-72722D01*
X101609Y-72737D01*
X101590Y-72737D01*
X101571Y-72722D01*
X101562Y-72707D01*
X101553Y-72677D01*
X101543Y-72617D01*
X101543Y-72542D01*
X101553Y-72482D01*
X101562Y-72452D01*
X101571Y-72437D01*
X101590Y-72422D01*
X101824Y-72527D02*
X101824Y-72737D01*
X101778Y-72407D02*
X101731Y-72632D01*
X101853Y-72632D01*
X101567Y-68197D02*
X101557Y-68212D01*
X101529Y-68227D01*
X101510Y-68227D01*
X101482Y-68212D01*
X101464Y-68182D01*
X101454Y-68152D01*
X101445Y-68092D01*
X101445Y-68047D01*
X101454Y-67987D01*
X101464Y-67957D01*
X101482Y-67927D01*
X101510Y-67912D01*
X101529Y-67912D01*
X101557Y-67927D01*
X101567Y-67942D01*
X101754Y-68227D02*
X101642Y-68227D01*
X101698Y-68227D02*
X101698Y-67912D01*
X101679Y-67957D01*
X101660Y-67987D01*
X101642Y-68002D01*
X101468Y-68627D02*
X101356Y-68627D01*
X101412Y-68627D02*
X101412Y-68312D01*
X101393Y-68357D01*
X101375Y-68387D01*
X101356Y-68402D01*
X101590Y-68312D02*
X101609Y-68312D01*
X101628Y-68327D01*
X101637Y-68342D01*
X101646Y-68372D01*
X101656Y-68432D01*
X101656Y-68507D01*
X101646Y-68567D01*
X101637Y-68597D01*
X101628Y-68612D01*
X101609Y-68627D01*
X101590Y-68627D01*
X101571Y-68612D01*
X101562Y-68597D01*
X101553Y-68567D01*
X101543Y-68507D01*
X101543Y-68432D01*
X101553Y-68372D01*
X101562Y-68342D01*
X101571Y-68327D01*
X101590Y-68312D01*
X101824Y-68417D02*
X101824Y-68627D01*
X101778Y-68297D02*
X101731Y-68522D01*
X101853Y-68522D01*
X99287Y-73762D02*
X99315Y-73777D01*
X99362Y-73777D01*
X99381Y-73762D01*
X99390Y-73747D01*
X99400Y-73717D01*
X99400Y-73687D01*
X99390Y-73657D01*
X99381Y-73642D01*
X99362Y-73627D01*
X99325Y-73612D01*
X99306Y-73597D01*
X99296Y-73582D01*
X99287Y-73552D01*
X99287Y-73522D01*
X99296Y-73492D01*
X99306Y-73477D01*
X99325Y-73462D01*
X99371Y-73462D01*
X99400Y-73477D01*
X99465Y-73462D02*
X99512Y-73777D01*
X99550Y-73552D01*
X99587Y-73777D01*
X99634Y-73462D01*
X99690Y-73462D02*
X99821Y-73462D01*
X99737Y-73777D01*
X99442Y-73377D02*
X99376Y-73227D01*
X99329Y-73377D02*
X99329Y-73062D01*
X99404Y-73062D01*
X99423Y-73077D01*
X99432Y-73092D01*
X99442Y-73122D01*
X99442Y-73167D01*
X99432Y-73197D01*
X99423Y-73212D01*
X99404Y-73227D01*
X99329Y-73227D01*
X99517Y-73362D02*
X99545Y-73377D01*
X99592Y-73377D01*
X99610Y-73362D01*
X99620Y-73347D01*
X99629Y-73317D01*
X99629Y-73287D01*
X99620Y-73257D01*
X99610Y-73242D01*
X99592Y-73227D01*
X99554Y-73212D01*
X99535Y-73197D01*
X99526Y-73182D01*
X99517Y-73152D01*
X99517Y-73122D01*
X99526Y-73092D01*
X99535Y-73077D01*
X99554Y-73062D01*
X99601Y-73062D01*
X99629Y-73077D01*
X99685Y-73062D02*
X99798Y-73062D01*
X99742Y-73377D02*
X99742Y-73062D01*
X86743Y-65562D02*
X86771Y-65577D01*
X86818Y-65577D01*
X86837Y-65562D01*
X86846Y-65547D01*
X86856Y-65517D01*
X86856Y-65487D01*
X86846Y-65457D01*
X86837Y-65442D01*
X86818Y-65427D01*
X86781Y-65412D01*
X86762Y-65397D01*
X86753Y-65382D01*
X86743Y-65352D01*
X86743Y-65322D01*
X86753Y-65292D01*
X86762Y-65277D01*
X86781Y-65262D01*
X86828Y-65262D01*
X86856Y-65277D01*
X86921Y-65262D02*
X86968Y-65577D01*
X87006Y-65352D01*
X87043Y-65577D01*
X87090Y-65262D01*
X87268Y-65577D02*
X87156Y-65577D01*
X87212Y-65577D02*
X87212Y-65262D01*
X87193Y-65307D01*
X87174Y-65337D01*
X87156Y-65352D01*
X87390Y-65262D02*
X87409Y-65262D01*
X87428Y-65277D01*
X87437Y-65292D01*
X87446Y-65322D01*
X87456Y-65382D01*
X87456Y-65457D01*
X87446Y-65517D01*
X87437Y-65547D01*
X87428Y-65562D01*
X87409Y-65577D01*
X87390Y-65577D01*
X87371Y-65562D01*
X87362Y-65547D01*
X87353Y-65517D01*
X87343Y-65457D01*
X87343Y-65382D01*
X87353Y-65322D01*
X87362Y-65292D01*
X87371Y-65277D01*
X87390Y-65262D01*
X87760Y-65577D02*
X87667Y-65577D01*
X87667Y-65262D01*
X109293Y-65512D02*
X109321Y-65527D01*
X109368Y-65527D01*
X109387Y-65512D01*
X109396Y-65497D01*
X109406Y-65467D01*
X109406Y-65437D01*
X109396Y-65407D01*
X109387Y-65392D01*
X109368Y-65377D01*
X109331Y-65362D01*
X109312Y-65347D01*
X109303Y-65332D01*
X109293Y-65302D01*
X109293Y-65272D01*
X109303Y-65242D01*
X109312Y-65227D01*
X109331Y-65212D01*
X109378Y-65212D01*
X109406Y-65227D01*
X109471Y-65212D02*
X109518Y-65527D01*
X109556Y-65302D01*
X109593Y-65527D01*
X109640Y-65212D01*
X109818Y-65527D02*
X109706Y-65527D01*
X109762Y-65527D02*
X109762Y-65212D01*
X109743Y-65257D01*
X109724Y-65287D01*
X109706Y-65302D01*
X110006Y-65527D02*
X109893Y-65527D01*
X109949Y-65527D02*
X109949Y-65212D01*
X109931Y-65257D01*
X109912Y-65287D01*
X109893Y-65302D01*
X110260Y-65527D02*
X110195Y-65377D01*
X110148Y-65527D02*
X110148Y-65212D01*
X110223Y-65212D01*
X110242Y-65227D01*
X110251Y-65242D01*
X110260Y-65272D01*
X110260Y-65317D01*
X110251Y-65347D01*
X110242Y-65362D01*
X110223Y-65377D01*
X110148Y-65377D01*
X95993Y-75412D02*
X96021Y-75427D01*
X96068Y-75427D01*
X96087Y-75412D01*
X96096Y-75397D01*
X96106Y-75367D01*
X96106Y-75337D01*
X96096Y-75307D01*
X96087Y-75292D01*
X96068Y-75277D01*
X96031Y-75262D01*
X96012Y-75247D01*
X96003Y-75232D01*
X95993Y-75202D01*
X95993Y-75172D01*
X96003Y-75142D01*
X96012Y-75127D01*
X96031Y-75112D01*
X96078Y-75112D01*
X96106Y-75127D01*
X96171Y-75112D02*
X96218Y-75427D01*
X96256Y-75202D01*
X96293Y-75427D01*
X96340Y-75112D01*
X96518Y-75427D02*
X96406Y-75427D01*
X96462Y-75427D02*
X96462Y-75112D01*
X96443Y-75157D01*
X96424Y-75187D01*
X96406Y-75202D01*
X96593Y-75142D02*
X96603Y-75127D01*
X96621Y-75112D01*
X96668Y-75112D01*
X96687Y-75127D01*
X96696Y-75142D01*
X96706Y-75172D01*
X96706Y-75202D01*
X96696Y-75247D01*
X96584Y-75427D01*
X96706Y-75427D01*
X95862Y-75012D02*
X95890Y-75027D01*
X95937Y-75027D01*
X95956Y-75012D01*
X95965Y-74997D01*
X95975Y-74967D01*
X95975Y-74937D01*
X95965Y-74907D01*
X95956Y-74892D01*
X95937Y-74877D01*
X95900Y-74862D01*
X95881Y-74847D01*
X95871Y-74832D01*
X95862Y-74802D01*
X95862Y-74772D01*
X95871Y-74742D01*
X95881Y-74727D01*
X95900Y-74712D01*
X95946Y-74712D01*
X95975Y-74727D01*
X96059Y-74862D02*
X96125Y-74862D01*
X96153Y-75027D02*
X96059Y-75027D01*
X96059Y-74712D01*
X96153Y-74712D01*
X96331Y-75027D02*
X96237Y-75027D01*
X96237Y-74712D01*
X96396Y-74862D02*
X96462Y-74862D01*
X96490Y-75027D02*
X96396Y-75027D01*
X96396Y-74712D01*
X96490Y-74712D01*
X96687Y-74997D02*
X96678Y-75012D01*
X96649Y-75027D01*
X96631Y-75027D01*
X96603Y-75012D01*
X96584Y-74982D01*
X96574Y-74952D01*
X96565Y-74892D01*
X96565Y-74847D01*
X96574Y-74787D01*
X96584Y-74757D01*
X96603Y-74727D01*
X96631Y-74712D01*
X96649Y-74712D01*
X96678Y-74727D01*
X96687Y-74742D01*
X96743Y-74712D02*
X96856Y-74712D01*
X96799Y-75027D02*
X96799Y-74712D01*
X102343Y-75412D02*
X102371Y-75427D01*
X102418Y-75427D01*
X102437Y-75412D01*
X102446Y-75397D01*
X102456Y-75367D01*
X102456Y-75337D01*
X102446Y-75307D01*
X102437Y-75292D01*
X102418Y-75277D01*
X102381Y-75262D01*
X102362Y-75247D01*
X102353Y-75232D01*
X102343Y-75202D01*
X102343Y-75172D01*
X102353Y-75142D01*
X102362Y-75127D01*
X102381Y-75112D01*
X102428Y-75112D01*
X102456Y-75127D01*
X102521Y-75112D02*
X102568Y-75427D01*
X102606Y-75202D01*
X102643Y-75427D01*
X102690Y-75112D01*
X102868Y-75427D02*
X102756Y-75427D01*
X102812Y-75427D02*
X102812Y-75112D01*
X102793Y-75157D01*
X102774Y-75187D01*
X102756Y-75202D01*
X102934Y-75112D02*
X103056Y-75112D01*
X102990Y-75232D01*
X103018Y-75232D01*
X103037Y-75247D01*
X103046Y-75262D01*
X103056Y-75292D01*
X103056Y-75367D01*
X103046Y-75397D01*
X103037Y-75412D01*
X103018Y-75427D01*
X102962Y-75427D01*
X102943Y-75412D01*
X102934Y-75397D01*
X102310Y-75012D02*
X102339Y-75027D01*
X102385Y-75027D01*
X102404Y-75012D01*
X102414Y-74997D01*
X102423Y-74967D01*
X102423Y-74937D01*
X102414Y-74907D01*
X102404Y-74892D01*
X102385Y-74877D01*
X102348Y-74862D01*
X102329Y-74847D01*
X102320Y-74832D01*
X102310Y-74802D01*
X102310Y-74772D01*
X102320Y-74742D01*
X102329Y-74727D01*
X102348Y-74712D01*
X102395Y-74712D01*
X102423Y-74727D01*
X102479Y-74712D02*
X102592Y-74712D01*
X102535Y-75027D02*
X102535Y-74712D01*
X102648Y-74937D02*
X102742Y-74937D01*
X102629Y-75027D02*
X102695Y-74712D01*
X102760Y-75027D01*
X102939Y-75027D02*
X102873Y-74877D01*
X102826Y-75027D02*
X102826Y-74712D01*
X102901Y-74712D01*
X102920Y-74727D01*
X102929Y-74742D01*
X102939Y-74772D01*
X102939Y-74817D01*
X102929Y-74847D01*
X102920Y-74862D01*
X102901Y-74877D01*
X102826Y-74877D01*
X102995Y-74712D02*
X103107Y-74712D01*
X103051Y-75027D02*
X103051Y-74712D01*
X109243Y-74462D02*
X109271Y-74477D01*
X109318Y-74477D01*
X109337Y-74462D01*
X109346Y-74447D01*
X109356Y-74417D01*
X109356Y-74387D01*
X109346Y-74357D01*
X109337Y-74342D01*
X109318Y-74327D01*
X109281Y-74312D01*
X109262Y-74297D01*
X109253Y-74282D01*
X109243Y-74252D01*
X109243Y-74222D01*
X109253Y-74192D01*
X109262Y-74177D01*
X109281Y-74162D01*
X109328Y-74162D01*
X109356Y-74177D01*
X109421Y-74162D02*
X109468Y-74477D01*
X109506Y-74252D01*
X109543Y-74477D01*
X109590Y-74162D01*
X109768Y-74477D02*
X109656Y-74477D01*
X109712Y-74477D02*
X109712Y-74162D01*
X109693Y-74207D01*
X109674Y-74237D01*
X109656Y-74252D01*
X109937Y-74267D02*
X109937Y-74477D01*
X109890Y-74147D02*
X109843Y-74372D01*
X109965Y-74372D01*
X110221Y-74312D02*
X110250Y-74327D01*
X110259Y-74342D01*
X110268Y-74372D01*
X110268Y-74417D01*
X110259Y-74447D01*
X110250Y-74462D01*
X110231Y-74477D01*
X110156Y-74477D01*
X110156Y-74162D01*
X110221Y-74162D01*
X110240Y-74177D01*
X110250Y-74192D01*
X110259Y-74222D01*
X110259Y-74252D01*
X110250Y-74282D01*
X110240Y-74297D01*
X110221Y-74312D01*
X110156Y-74312D01*
X110353Y-74477D02*
X110353Y-74162D01*
X110465Y-74477D02*
X110381Y-74297D01*
X110465Y-74162D02*
X110353Y-74342D01*
X110653Y-74477D02*
X110540Y-74477D01*
X110596Y-74477D02*
X110596Y-74162D01*
X110578Y-74207D01*
X110559Y-74237D01*
X110540Y-74252D01*
X106193Y-74462D02*
X106221Y-74477D01*
X106268Y-74477D01*
X106287Y-74462D01*
X106296Y-74447D01*
X106306Y-74417D01*
X106306Y-74387D01*
X106296Y-74357D01*
X106287Y-74342D01*
X106268Y-74327D01*
X106231Y-74312D01*
X106212Y-74297D01*
X106203Y-74282D01*
X106193Y-74252D01*
X106193Y-74222D01*
X106203Y-74192D01*
X106212Y-74177D01*
X106231Y-74162D01*
X106278Y-74162D01*
X106306Y-74177D01*
X106371Y-74162D02*
X106418Y-74477D01*
X106456Y-74252D01*
X106493Y-74477D01*
X106540Y-74162D01*
X106718Y-74477D02*
X106606Y-74477D01*
X106662Y-74477D02*
X106662Y-74162D01*
X106643Y-74207D01*
X106624Y-74237D01*
X106606Y-74252D01*
X106896Y-74162D02*
X106803Y-74162D01*
X106793Y-74312D01*
X106803Y-74297D01*
X106821Y-74282D01*
X106868Y-74282D01*
X106887Y-74297D01*
X106896Y-74312D01*
X106906Y-74342D01*
X106906Y-74417D01*
X106896Y-74447D01*
X106887Y-74462D01*
X106868Y-74477D01*
X106821Y-74477D01*
X106803Y-74462D01*
X106793Y-74447D01*
X107171Y-74312D02*
X107200Y-74327D01*
X107209Y-74342D01*
X107218Y-74372D01*
X107218Y-74417D01*
X107209Y-74447D01*
X107200Y-74462D01*
X107181Y-74477D01*
X107106Y-74477D01*
X107106Y-74162D01*
X107171Y-74162D01*
X107190Y-74177D01*
X107200Y-74192D01*
X107209Y-74222D01*
X107209Y-74252D01*
X107200Y-74282D01*
X107190Y-74297D01*
X107171Y-74312D01*
X107106Y-74312D01*
X107303Y-74477D02*
X107303Y-74162D01*
X107415Y-74477D02*
X107331Y-74297D01*
X107415Y-74162D02*
X107303Y-74342D01*
X107490Y-74192D02*
X107499Y-74177D01*
X107518Y-74162D01*
X107565Y-74162D01*
X107584Y-74177D01*
X107593Y-74192D01*
X107603Y-74222D01*
X107603Y-74252D01*
X107593Y-74297D01*
X107481Y-74477D01*
X107603Y-74477D01*
X87783Y-75432D02*
X87811Y-75447D01*
X87858Y-75447D01*
X87877Y-75432D01*
X87886Y-75417D01*
X87896Y-75387D01*
X87896Y-75357D01*
X87886Y-75327D01*
X87877Y-75312D01*
X87858Y-75297D01*
X87821Y-75282D01*
X87802Y-75267D01*
X87793Y-75252D01*
X87783Y-75222D01*
X87783Y-75192D01*
X87793Y-75162D01*
X87802Y-75147D01*
X87821Y-75132D01*
X87868Y-75132D01*
X87896Y-75147D01*
X87961Y-75132D02*
X88008Y-75447D01*
X88046Y-75222D01*
X88083Y-75447D01*
X88130Y-75132D01*
X88308Y-75447D02*
X88196Y-75447D01*
X88252Y-75447D02*
X88252Y-75132D01*
X88233Y-75177D01*
X88214Y-75207D01*
X88196Y-75222D01*
X88477Y-75132D02*
X88439Y-75132D01*
X88421Y-75147D01*
X88411Y-75162D01*
X88393Y-75207D01*
X88383Y-75267D01*
X88383Y-75387D01*
X88393Y-75417D01*
X88402Y-75432D01*
X88421Y-75447D01*
X88458Y-75447D01*
X88477Y-75432D01*
X88486Y-75417D01*
X88496Y-75387D01*
X88496Y-75312D01*
X88486Y-75282D01*
X88477Y-75267D01*
X88458Y-75252D01*
X88421Y-75252D01*
X88402Y-75267D01*
X88393Y-75282D01*
X88383Y-75312D01*
X87941Y-74902D02*
X87970Y-74917D01*
X87979Y-74932D01*
X87988Y-74962D01*
X87988Y-75007D01*
X87979Y-75037D01*
X87970Y-75052D01*
X87951Y-75067D01*
X87876Y-75067D01*
X87876Y-74752D01*
X87941Y-74752D01*
X87960Y-74767D01*
X87970Y-74782D01*
X87979Y-74812D01*
X87979Y-74842D01*
X87970Y-74872D01*
X87960Y-74887D01*
X87941Y-74902D01*
X87876Y-74902D01*
X88073Y-75067D02*
X88073Y-74752D01*
X88185Y-75067D02*
X88101Y-74887D01*
X88185Y-74752D02*
X88073Y-74932D01*
X88251Y-74752D02*
X88373Y-74752D01*
X88307Y-74872D01*
X88335Y-74872D01*
X88354Y-74887D01*
X88363Y-74902D01*
X88373Y-74932D01*
X88373Y-75007D01*
X88363Y-75037D01*
X88354Y-75052D01*
X88335Y-75067D01*
X88279Y-75067D01*
X88260Y-75052D01*
X88251Y-75037D01*
X90843Y-75392D02*
X90871Y-75407D01*
X90918Y-75407D01*
X90937Y-75392D01*
X90946Y-75377D01*
X90956Y-75347D01*
X90956Y-75317D01*
X90946Y-75287D01*
X90937Y-75272D01*
X90918Y-75257D01*
X90881Y-75242D01*
X90862Y-75227D01*
X90853Y-75212D01*
X90843Y-75182D01*
X90843Y-75152D01*
X90853Y-75122D01*
X90862Y-75107D01*
X90881Y-75092D01*
X90928Y-75092D01*
X90956Y-75107D01*
X91021Y-75092D02*
X91068Y-75407D01*
X91106Y-75182D01*
X91143Y-75407D01*
X91190Y-75092D01*
X91368Y-75407D02*
X91256Y-75407D01*
X91312Y-75407D02*
X91312Y-75092D01*
X91293Y-75137D01*
X91274Y-75167D01*
X91256Y-75182D01*
X91434Y-75092D02*
X91565Y-75092D01*
X91481Y-75407D01*
X91001Y-74862D02*
X91030Y-74877D01*
X91039Y-74892D01*
X91048Y-74922D01*
X91048Y-74967D01*
X91039Y-74997D01*
X91030Y-75012D01*
X91011Y-75027D01*
X90936Y-75027D01*
X90936Y-74712D01*
X91001Y-74712D01*
X91020Y-74727D01*
X91030Y-74742D01*
X91039Y-74772D01*
X91039Y-74802D01*
X91030Y-74832D01*
X91020Y-74847D01*
X91001Y-74862D01*
X90936Y-74862D01*
X91133Y-75027D02*
X91133Y-74712D01*
X91245Y-75027D02*
X91161Y-74847D01*
X91245Y-74712D02*
X91133Y-74892D01*
X91414Y-74817D02*
X91414Y-75027D01*
X91367Y-74697D02*
X91320Y-74922D01*
X91442Y-74922D01*
X98934Y-75262D02*
X98934Y-75487D01*
X98925Y-75532D01*
X98906Y-75562D01*
X98878Y-75577D01*
X98859Y-75577D01*
X99131Y-75577D02*
X99018Y-75577D01*
X99074Y-75577D02*
X99074Y-75262D01*
X99056Y-75307D01*
X99037Y-75337D01*
X99018Y-75352D01*
X97878Y-75262D02*
X97878Y-75517D01*
X97887Y-75547D01*
X97896Y-75562D01*
X97915Y-75577D01*
X97953Y-75577D01*
X97971Y-75562D01*
X97981Y-75547D01*
X97990Y-75517D01*
X97990Y-75262D01*
X98075Y-75562D02*
X98103Y-75577D01*
X98150Y-75577D01*
X98168Y-75562D01*
X98178Y-75547D01*
X98187Y-75517D01*
X98187Y-75487D01*
X98178Y-75457D01*
X98168Y-75442D01*
X98150Y-75427D01*
X98112Y-75412D01*
X98093Y-75397D01*
X98084Y-75382D01*
X98075Y-75352D01*
X98075Y-75322D01*
X98084Y-75292D01*
X98093Y-75277D01*
X98112Y-75262D01*
X98159Y-75262D01*
X98187Y-75277D01*
X98337Y-75412D02*
X98365Y-75427D01*
X98374Y-75442D01*
X98384Y-75472D01*
X98384Y-75517D01*
X98374Y-75547D01*
X98365Y-75562D01*
X98346Y-75577D01*
X98271Y-75577D01*
X98271Y-75262D01*
X98337Y-75262D01*
X98356Y-75277D01*
X98365Y-75292D01*
X98374Y-75322D01*
X98374Y-75352D01*
X98365Y-75382D01*
X98356Y-75397D01*
X98337Y-75412D01*
X98271Y-75412D01*
X98421Y-75607D02*
X98571Y-75607D01*
X98684Y-75412D02*
X98712Y-75427D01*
X98721Y-75442D01*
X98731Y-75472D01*
X98731Y-75517D01*
X98721Y-75547D01*
X98712Y-75562D01*
X98693Y-75577D01*
X98618Y-75577D01*
X98618Y-75262D01*
X98684Y-75262D01*
X98703Y-75277D01*
X98712Y-75292D01*
X98721Y-75322D01*
X98721Y-75352D01*
X98712Y-75382D01*
X98703Y-75397D01*
X98684Y-75412D01*
X98618Y-75412D01*
X101584Y-64367D02*
X101584Y-64052D01*
X101659Y-64052D01*
X101678Y-64067D01*
X101687Y-64082D01*
X101697Y-64112D01*
X101697Y-64157D01*
X101687Y-64187D01*
X101678Y-64202D01*
X101659Y-64217D01*
X101584Y-64217D01*
X101884Y-64367D02*
X101772Y-64367D01*
X101828Y-64367D02*
X101828Y-64052D01*
X101809Y-64097D01*
X101790Y-64127D01*
X101772Y-64142D01*
X99150Y-69462D02*
X99150Y-69717D01*
X99159Y-69747D01*
X99168Y-69762D01*
X99187Y-69777D01*
X99225Y-69777D01*
X99243Y-69762D01*
X99253Y-69747D01*
X99262Y-69717D01*
X99262Y-69462D01*
X99459Y-69777D02*
X99346Y-69777D01*
X99403Y-69777D02*
X99403Y-69462D01*
X99384Y-69507D01*
X99365Y-69537D01*
X99346Y-69552D01*
X97992Y-70162D02*
X98020Y-70177D01*
X98067Y-70177D01*
X98086Y-70162D01*
X98095Y-70147D01*
X98104Y-70117D01*
X98104Y-70087D01*
X98095Y-70057D01*
X98086Y-70042D01*
X98067Y-70027D01*
X98029Y-70012D01*
X98011Y-69997D01*
X98001Y-69982D01*
X97992Y-69952D01*
X97992Y-69922D01*
X98001Y-69892D01*
X98011Y-69877D01*
X98029Y-69862D01*
X98076Y-69862D01*
X98104Y-69877D01*
X98161Y-69862D02*
X98273Y-69862D01*
X98217Y-70177D02*
X98217Y-69862D01*
X98339Y-70177D02*
X98339Y-69862D01*
X98404Y-70087D01*
X98470Y-69862D01*
X98470Y-70177D01*
X98545Y-69862D02*
X98667Y-69862D01*
X98601Y-69982D01*
X98629Y-69982D01*
X98648Y-69997D01*
X98657Y-70012D01*
X98667Y-70042D01*
X98667Y-70117D01*
X98657Y-70147D01*
X98648Y-70162D01*
X98629Y-70177D01*
X98573Y-70177D01*
X98554Y-70162D01*
X98545Y-70147D01*
X98742Y-69892D02*
X98751Y-69877D01*
X98770Y-69862D01*
X98817Y-69862D01*
X98835Y-69877D01*
X98845Y-69892D01*
X98854Y-69922D01*
X98854Y-69952D01*
X98845Y-69997D01*
X98732Y-70177D01*
X98854Y-70177D01*
X99004Y-70012D02*
X98939Y-70012D01*
X98939Y-70177D02*
X98939Y-69862D01*
X99032Y-69862D01*
X99210Y-70177D02*
X99098Y-70177D01*
X99154Y-70177D02*
X99154Y-69862D01*
X99135Y-69907D01*
X99117Y-69937D01*
X99098Y-69952D01*
X99332Y-69862D02*
X99351Y-69862D01*
X99370Y-69877D01*
X99379Y-69892D01*
X99389Y-69922D01*
X99398Y-69982D01*
X99398Y-70057D01*
X99389Y-70117D01*
X99379Y-70147D01*
X99370Y-70162D01*
X99351Y-70177D01*
X99332Y-70177D01*
X99314Y-70162D01*
X99304Y-70147D01*
X99295Y-70117D01*
X99285Y-70057D01*
X99285Y-69982D01*
X99295Y-69922D01*
X99304Y-69892D01*
X99314Y-69877D01*
X99332Y-69862D01*
X99464Y-69862D02*
X99585Y-69862D01*
X99520Y-69982D01*
X99548Y-69982D01*
X99567Y-69997D01*
X99576Y-70012D01*
X99585Y-70042D01*
X99585Y-70117D01*
X99576Y-70147D01*
X99567Y-70162D01*
X99548Y-70177D01*
X99492Y-70177D01*
X99473Y-70162D01*
X99464Y-70147D01*
X99623Y-70207D02*
X99773Y-70207D01*
X99904Y-69967D02*
X99904Y-70177D01*
X99857Y-69847D02*
X99810Y-70072D01*
X99932Y-70072D01*
X100035Y-69997D02*
X100017Y-69982D01*
X100007Y-69967D01*
X99998Y-69937D01*
X99998Y-69922D01*
X100007Y-69892D01*
X100017Y-69877D01*
X100035Y-69862D01*
X100073Y-69862D01*
X100092Y-69877D01*
X100101Y-69892D01*
X100110Y-69922D01*
X100110Y-69937D01*
X100101Y-69967D01*
X100092Y-69982D01*
X100073Y-69997D01*
X100035Y-69997D01*
X100017Y-70012D01*
X100007Y-70027D01*
X99998Y-70057D01*
X99998Y-70117D01*
X100007Y-70147D01*
X100017Y-70162D01*
X100035Y-70177D01*
X100073Y-70177D01*
X100092Y-70162D01*
X100101Y-70147D01*
X100110Y-70117D01*
X100110Y-70057D01*
X100101Y-70027D01*
X100092Y-70012D01*
X100073Y-69997D01*
X100195Y-70177D02*
X100195Y-69862D01*
X100270Y-69862D01*
X100288Y-69877D01*
X100298Y-69892D01*
X100307Y-69922D01*
X100307Y-69967D01*
X100298Y-69997D01*
X100288Y-70012D01*
X100270Y-70027D01*
X100195Y-70027D01*
X100392Y-70177D02*
X100392Y-69862D01*
X100485Y-70177D02*
X100485Y-69862D01*
X100598Y-70177D01*
X100598Y-69862D01*
X90587Y-73567D02*
X90521Y-73417D01*
X90474Y-73567D02*
X90474Y-73252D01*
X90549Y-73252D01*
X90568Y-73267D01*
X90577Y-73282D01*
X90587Y-73312D01*
X90587Y-73357D01*
X90577Y-73387D01*
X90568Y-73402D01*
X90549Y-73417D01*
X90474Y-73417D01*
X90662Y-73282D02*
X90671Y-73267D01*
X90690Y-73252D01*
X90737Y-73252D01*
X90755Y-73267D01*
X90765Y-73282D01*
X90774Y-73312D01*
X90774Y-73342D01*
X90765Y-73387D01*
X90652Y-73567D01*
X90774Y-73567D01*
X89857Y-73567D02*
X89744Y-73567D01*
X89800Y-73567D02*
X89800Y-73252D01*
X89782Y-73297D01*
X89763Y-73327D01*
X89744Y-73342D01*
X89941Y-73537D02*
X89950Y-73552D01*
X89941Y-73567D01*
X89932Y-73552D01*
X89941Y-73537D01*
X89941Y-73567D01*
X90129Y-73252D02*
X90035Y-73252D01*
X90025Y-73402D01*
X90035Y-73387D01*
X90054Y-73372D01*
X90100Y-73372D01*
X90119Y-73387D01*
X90129Y-73402D01*
X90138Y-73432D01*
X90138Y-73507D01*
X90129Y-73537D01*
X90119Y-73552D01*
X90100Y-73567D01*
X90054Y-73567D01*
X90035Y-73552D01*
X90025Y-73537D01*
X90222Y-73567D02*
X90222Y-73252D01*
X90335Y-73567D02*
X90250Y-73387D01*
X90335Y-73252D02*
X90222Y-73432D01*
M02*
