G04 (created by PCBNEW (22-Jun-2014 BZR 4027)-stable) date Wed 20 Dec 2017 04:57:12 PM CST*
%MOIN*%
G04 Gerber Fmt 3.4, Leading zero omitted, Abs format*
%FSLAX34Y34*%
G01*
G70*
G90*
G04 APERTURE LIST*
%ADD10C,0.00393701*%
%ADD11C,0.011811*%
G04 APERTURE END LIST*
G54D10*
G54D11*
X85820Y-67425D02*
X85820Y-67790D01*
X85595Y-67594D01*
X85595Y-67678D01*
X85566Y-67734D01*
X85538Y-67762D01*
X85482Y-67790D01*
X85341Y-67790D01*
X85285Y-67762D01*
X85257Y-67734D01*
X85229Y-67678D01*
X85229Y-67509D01*
X85257Y-67453D01*
X85285Y-67425D01*
X85820Y-68325D02*
X85820Y-68043D01*
X85538Y-68015D01*
X85566Y-68043D01*
X85595Y-68100D01*
X85595Y-68240D01*
X85566Y-68297D01*
X85538Y-68325D01*
X85482Y-68353D01*
X85341Y-68353D01*
X85285Y-68325D01*
X85257Y-68297D01*
X85229Y-68240D01*
X85229Y-68100D01*
X85257Y-68043D01*
X85285Y-68015D01*
X85285Y-68606D02*
X85257Y-68634D01*
X85229Y-68606D01*
X85257Y-68578D01*
X85285Y-68606D01*
X85229Y-68606D01*
X85820Y-69000D02*
X85820Y-69056D01*
X85791Y-69112D01*
X85763Y-69140D01*
X85707Y-69168D01*
X85595Y-69196D01*
X85454Y-69196D01*
X85341Y-69168D01*
X85285Y-69140D01*
X85257Y-69112D01*
X85229Y-69056D01*
X85229Y-69000D01*
X85257Y-68943D01*
X85285Y-68915D01*
X85341Y-68887D01*
X85454Y-68859D01*
X85595Y-68859D01*
X85707Y-68887D01*
X85763Y-68915D01*
X85791Y-68943D01*
X85820Y-69000D01*
X85820Y-69731D02*
X85820Y-69450D01*
X85538Y-69421D01*
X85566Y-69450D01*
X85595Y-69506D01*
X85595Y-69646D01*
X85566Y-69703D01*
X85538Y-69731D01*
X85482Y-69759D01*
X85341Y-69759D01*
X85285Y-69731D01*
X85257Y-69703D01*
X85229Y-69646D01*
X85229Y-69506D01*
X85257Y-69450D01*
X85285Y-69421D01*
X85763Y-69984D02*
X85791Y-70012D01*
X85820Y-70068D01*
X85820Y-70209D01*
X85791Y-70265D01*
X85763Y-70293D01*
X85707Y-70321D01*
X85651Y-70321D01*
X85566Y-70293D01*
X85229Y-69956D01*
X85229Y-70321D01*
X85229Y-71024D02*
X85623Y-71024D01*
X85566Y-71024D02*
X85595Y-71052D01*
X85623Y-71109D01*
X85623Y-71193D01*
X85595Y-71249D01*
X85538Y-71277D01*
X85229Y-71277D01*
X85538Y-71277D02*
X85595Y-71306D01*
X85623Y-71362D01*
X85623Y-71446D01*
X85595Y-71502D01*
X85538Y-71531D01*
X85229Y-71531D01*
X85229Y-71812D02*
X85623Y-71812D01*
X85566Y-71812D02*
X85595Y-71840D01*
X85623Y-71896D01*
X85623Y-71980D01*
X85595Y-72037D01*
X85538Y-72065D01*
X85229Y-72065D01*
X85538Y-72065D02*
X85595Y-72093D01*
X85623Y-72149D01*
X85623Y-72234D01*
X85595Y-72290D01*
X85538Y-72318D01*
X85229Y-72318D01*
X86000Y-63000D02*
X86000Y-76800D01*
X86400Y-63000D02*
X84937Y-63000D01*
X86400Y-76800D02*
X84937Y-76800D01*
X86000Y-76800D02*
X85769Y-76356D01*
X86000Y-76800D02*
X86230Y-76356D01*
X86000Y-63000D02*
X85769Y-63443D01*
X86000Y-63000D02*
X86230Y-63443D01*
X97334Y-77779D02*
X97222Y-77779D01*
X97165Y-77808D01*
X97137Y-77836D01*
X97081Y-77920D01*
X97053Y-78033D01*
X97053Y-78258D01*
X97081Y-78314D01*
X97109Y-78342D01*
X97165Y-78370D01*
X97278Y-78370D01*
X97334Y-78342D01*
X97362Y-78314D01*
X97390Y-78258D01*
X97390Y-78117D01*
X97362Y-78061D01*
X97334Y-78033D01*
X97278Y-78004D01*
X97165Y-78004D01*
X97109Y-78033D01*
X97081Y-78061D01*
X97053Y-78117D01*
X97897Y-77976D02*
X97897Y-78370D01*
X97756Y-77751D02*
X97615Y-78173D01*
X97981Y-78173D01*
X98206Y-78314D02*
X98234Y-78342D01*
X98206Y-78370D01*
X98178Y-78342D01*
X98206Y-78314D01*
X98206Y-78370D01*
X98768Y-77779D02*
X98487Y-77779D01*
X98459Y-78061D01*
X98487Y-78033D01*
X98543Y-78004D01*
X98684Y-78004D01*
X98740Y-78033D01*
X98768Y-78061D01*
X98796Y-78117D01*
X98796Y-78258D01*
X98768Y-78314D01*
X98740Y-78342D01*
X98684Y-78370D01*
X98543Y-78370D01*
X98487Y-78342D01*
X98459Y-78314D01*
X99359Y-78370D02*
X99021Y-78370D01*
X99190Y-78370D02*
X99190Y-77779D01*
X99134Y-77864D01*
X99078Y-77920D01*
X99021Y-77948D01*
X99865Y-77779D02*
X99753Y-77779D01*
X99696Y-77808D01*
X99668Y-77836D01*
X99612Y-77920D01*
X99584Y-78033D01*
X99584Y-78258D01*
X99612Y-78314D01*
X99640Y-78342D01*
X99696Y-78370D01*
X99809Y-78370D01*
X99865Y-78342D01*
X99893Y-78314D01*
X99921Y-78258D01*
X99921Y-78117D01*
X99893Y-78061D01*
X99865Y-78033D01*
X99809Y-78004D01*
X99696Y-78004D01*
X99640Y-78033D01*
X99612Y-78061D01*
X99584Y-78117D01*
X100624Y-78370D02*
X100624Y-77976D01*
X100624Y-78033D02*
X100652Y-78004D01*
X100709Y-77976D01*
X100793Y-77976D01*
X100849Y-78004D01*
X100877Y-78061D01*
X100877Y-78370D01*
X100877Y-78061D02*
X100906Y-78004D01*
X100962Y-77976D01*
X101046Y-77976D01*
X101102Y-78004D01*
X101131Y-78061D01*
X101131Y-78370D01*
X101412Y-78370D02*
X101412Y-77976D01*
X101412Y-78033D02*
X101440Y-78004D01*
X101496Y-77976D01*
X101580Y-77976D01*
X101637Y-78004D01*
X101665Y-78061D01*
X101665Y-78370D01*
X101665Y-78061D02*
X101693Y-78004D01*
X101749Y-77976D01*
X101834Y-77976D01*
X101890Y-78004D01*
X101918Y-78061D01*
X101918Y-78370D01*
X86800Y-77599D02*
X112200Y-77599D01*
X86800Y-77200D02*
X86800Y-78662D01*
X112200Y-77200D02*
X112200Y-78662D01*
X112200Y-77599D02*
X111756Y-77830D01*
X112200Y-77599D02*
X111756Y-77369D01*
X86800Y-77599D02*
X87243Y-77830D01*
X86800Y-77599D02*
X87243Y-77369D01*
M02*
