G04 (created by PCBNEW (22-Jun-2014 BZR 4027)-stable) date Wed 20 Dec 2017 04:57:12 PM CST*
%MOIN*%
G04 Gerber Fmt 3.4, Leading zero omitted, Abs format*
%FSLAX34Y34*%
G01*
G70*
G90*
G04 APERTURE LIST*
%ADD10C,0.00393701*%
%ADD11R,0.165354X0.0944882*%
%ADD12R,0.0748031X0.0944882*%
%ADD13R,0.0629921X0.0452756*%
%ADD14R,0.0944882X0.192913*%
%ADD15R,0.192913X0.0944882*%
%ADD16R,0.0944882X0.110236*%
%ADD17R,0.0452756X0.0629921*%
%ADD18R,0.0944882X0.0944882*%
%ADD19R,0.0551181X0.0944882*%
%ADD20R,0.070748X0.070748*%
%ADD21C,0.070748*%
%ADD22R,0.0267717X0.0748031*%
%ADD23R,0.0354331X0.0748031*%
%ADD24R,0.0748031X0.0354331*%
%ADD25R,0.0748031X0.0267717*%
G04 APERTURE END LIST*
G54D10*
G54D11*
X88120Y-71439D03*
G54D12*
X88120Y-73920D03*
X89025Y-73920D03*
X87214Y-73920D03*
G54D13*
X102174Y-74100D03*
X101425Y-74100D03*
G54D14*
X93072Y-64400D03*
X92127Y-64400D03*
X106672Y-64400D03*
X105727Y-64400D03*
X106672Y-70400D03*
X105727Y-70400D03*
X93072Y-70400D03*
X92127Y-70400D03*
G54D15*
X109200Y-66927D03*
X109200Y-67872D03*
X95600Y-66927D03*
X95600Y-67872D03*
X89600Y-66927D03*
X89600Y-67872D03*
X103200Y-66927D03*
X103200Y-67872D03*
G54D16*
X98542Y-66500D03*
X100157Y-66500D03*
G54D13*
X100474Y-65300D03*
X99725Y-65300D03*
X98225Y-65300D03*
X98974Y-65300D03*
X101425Y-73450D03*
X102174Y-73450D03*
G54D17*
X96900Y-70725D03*
X96900Y-71474D03*
G54D13*
X99214Y-67700D03*
X98465Y-67700D03*
X100225Y-72460D03*
X100974Y-72460D03*
G54D17*
X101650Y-69025D03*
X101650Y-69774D03*
G54D18*
X98550Y-74650D03*
X98550Y-73450D03*
X100550Y-73450D03*
X100550Y-74650D03*
X87150Y-64700D03*
X87150Y-63500D03*
X89150Y-63500D03*
X89150Y-64700D03*
X109750Y-64700D03*
X109750Y-63500D03*
X111750Y-63500D03*
X111750Y-64700D03*
X95350Y-76300D03*
X95350Y-75100D03*
X97350Y-75100D03*
X97350Y-76300D03*
X101750Y-76300D03*
X101750Y-75100D03*
X103750Y-75100D03*
X103750Y-76300D03*
X109700Y-76250D03*
X109700Y-75050D03*
X111700Y-75050D03*
X111700Y-76250D03*
X106650Y-76250D03*
X106650Y-75050D03*
X108650Y-75050D03*
X108650Y-76250D03*
X87150Y-76300D03*
X87150Y-75100D03*
X89150Y-75100D03*
X89150Y-76300D03*
X90200Y-76300D03*
X90200Y-75100D03*
X92200Y-75100D03*
X92200Y-76300D03*
G54D19*
X98250Y-76200D03*
X98900Y-76200D03*
X99550Y-76200D03*
X100200Y-76200D03*
X100850Y-76200D03*
G54D20*
X100980Y-63840D03*
G54D21*
X99980Y-63840D03*
X98980Y-63840D03*
X97980Y-63840D03*
G54D22*
X99792Y-68357D03*
X99595Y-68357D03*
X99398Y-68357D03*
X99201Y-68357D03*
X99004Y-68357D03*
G54D23*
X100422Y-68357D03*
G54D22*
X100185Y-68357D03*
X99988Y-68357D03*
G54D24*
X97557Y-68977D03*
G54D25*
X97557Y-69214D03*
X97557Y-69411D03*
X97557Y-69607D03*
X97557Y-69804D03*
X97557Y-70001D03*
X97557Y-70198D03*
X97557Y-70395D03*
G54D23*
X98177Y-71842D03*
G54D22*
X98414Y-71842D03*
X98611Y-71842D03*
X98807Y-71842D03*
X99004Y-71842D03*
X99201Y-71842D03*
X99398Y-71842D03*
X99595Y-71842D03*
G54D24*
X101042Y-71222D03*
G54D25*
X101042Y-70985D03*
X101042Y-70788D03*
X101042Y-70592D03*
X101042Y-70395D03*
X101042Y-70198D03*
X101042Y-70001D03*
X101042Y-69804D03*
G54D22*
X98807Y-68357D03*
X98611Y-68357D03*
X98414Y-68357D03*
G54D23*
X98177Y-68357D03*
G54D25*
X97557Y-70592D03*
X97557Y-70788D03*
X97557Y-70985D03*
G54D24*
X97557Y-71222D03*
G54D22*
X99792Y-71842D03*
X99988Y-71842D03*
X100185Y-71842D03*
G54D23*
X100422Y-71842D03*
G54D25*
X101042Y-69607D03*
X101042Y-69411D03*
X101042Y-69214D03*
G54D24*
X101042Y-68977D03*
G54D13*
X90085Y-73920D03*
X90834Y-73920D03*
M02*
