G04 (created by PCBNEW (22-Jun-2014 BZR 4027)-stable) date Sun 04 Dec 2016 05:28:58 PM CST*
%MOIN*%
G04 Gerber Fmt 3.4, Leading zero omitted, Abs format*
%FSLAX34Y34*%
G01*
G70*
G90*
G04 APERTURE LIST*
%ADD10C,0.00590551*%
%ADD11C,0.011811*%
%ADD12C,0.0019685*%
%ADD13C,0.00984252*%
%ADD14C,0.005*%
G04 APERTURE END LIST*
G54D10*
G54D11*
X54764Y-52220D02*
X55045Y-52220D01*
X54708Y-52389D02*
X54905Y-51798D01*
X55102Y-52389D01*
X55242Y-51798D02*
X55608Y-51798D01*
X55411Y-52023D01*
X55495Y-52023D01*
X55551Y-52051D01*
X55580Y-52079D01*
X55608Y-52135D01*
X55608Y-52276D01*
X55580Y-52332D01*
X55551Y-52360D01*
X55495Y-52389D01*
X55326Y-52389D01*
X55270Y-52360D01*
X55242Y-52332D01*
X55833Y-51854D02*
X55861Y-51826D01*
X55917Y-51798D01*
X56058Y-51798D01*
X56114Y-51826D01*
X56142Y-51854D01*
X56170Y-51910D01*
X56170Y-51967D01*
X56142Y-52051D01*
X55805Y-52389D01*
X56170Y-52389D01*
X56536Y-51798D02*
X56592Y-51798D01*
X56648Y-51826D01*
X56676Y-51854D01*
X56704Y-51910D01*
X56733Y-52023D01*
X56733Y-52164D01*
X56704Y-52276D01*
X56676Y-52332D01*
X56648Y-52360D01*
X56592Y-52389D01*
X56536Y-52389D01*
X56479Y-52360D01*
X56451Y-52332D01*
X56423Y-52276D01*
X56395Y-52164D01*
X56395Y-52023D01*
X56423Y-51910D01*
X56451Y-51854D01*
X56479Y-51826D01*
X56536Y-51798D01*
X57548Y-51798D02*
X57661Y-51798D01*
X57717Y-51826D01*
X57773Y-51882D01*
X57801Y-51995D01*
X57801Y-52192D01*
X57773Y-52304D01*
X57717Y-52360D01*
X57661Y-52389D01*
X57548Y-52389D01*
X57492Y-52360D01*
X57436Y-52304D01*
X57407Y-52192D01*
X57407Y-51995D01*
X57436Y-51882D01*
X57492Y-51826D01*
X57548Y-51798D01*
X58335Y-52389D02*
X58054Y-52389D01*
X58054Y-51798D01*
X58532Y-52079D02*
X58729Y-52079D01*
X58814Y-52389D02*
X58532Y-52389D01*
X58532Y-51798D01*
X58814Y-51798D01*
X59067Y-52389D02*
X59067Y-51798D01*
X59207Y-51798D01*
X59292Y-51826D01*
X59348Y-51882D01*
X59376Y-51939D01*
X59404Y-52051D01*
X59404Y-52135D01*
X59376Y-52248D01*
X59348Y-52304D01*
X59292Y-52360D01*
X59207Y-52389D01*
X59067Y-52389D01*
X60079Y-52360D02*
X60163Y-52389D01*
X60304Y-52389D01*
X60360Y-52360D01*
X60388Y-52332D01*
X60416Y-52276D01*
X60416Y-52220D01*
X60388Y-52164D01*
X60360Y-52135D01*
X60304Y-52107D01*
X60192Y-52079D01*
X60135Y-52051D01*
X60107Y-52023D01*
X60079Y-51967D01*
X60079Y-51910D01*
X60107Y-51854D01*
X60135Y-51826D01*
X60192Y-51798D01*
X60332Y-51798D01*
X60416Y-51826D01*
X60923Y-52360D02*
X60866Y-52389D01*
X60754Y-52389D01*
X60698Y-52360D01*
X60670Y-52332D01*
X60641Y-52276D01*
X60641Y-52107D01*
X60670Y-52051D01*
X60698Y-52023D01*
X60754Y-51995D01*
X60866Y-51995D01*
X60923Y-52023D01*
X61176Y-52389D02*
X61176Y-51995D01*
X61176Y-52107D02*
X61204Y-52051D01*
X61232Y-52023D01*
X61288Y-51995D01*
X61344Y-51995D01*
X61766Y-52360D02*
X61710Y-52389D01*
X61598Y-52389D01*
X61541Y-52360D01*
X61513Y-52304D01*
X61513Y-52079D01*
X61541Y-52023D01*
X61598Y-51995D01*
X61710Y-51995D01*
X61766Y-52023D01*
X61794Y-52079D01*
X61794Y-52135D01*
X61513Y-52192D01*
X62273Y-52360D02*
X62216Y-52389D01*
X62104Y-52389D01*
X62048Y-52360D01*
X62019Y-52304D01*
X62019Y-52079D01*
X62048Y-52023D01*
X62104Y-51995D01*
X62216Y-51995D01*
X62273Y-52023D01*
X62301Y-52079D01*
X62301Y-52135D01*
X62019Y-52192D01*
X62554Y-51995D02*
X62554Y-52389D01*
X62554Y-52051D02*
X62582Y-52023D01*
X62638Y-51995D01*
X62722Y-51995D01*
X62779Y-52023D01*
X62807Y-52079D01*
X62807Y-52389D01*
X51839Y-52799D02*
X51868Y-52771D01*
X51924Y-52743D01*
X52064Y-52743D01*
X52121Y-52771D01*
X52149Y-52799D01*
X52177Y-52855D01*
X52177Y-52912D01*
X52149Y-52996D01*
X51811Y-53333D01*
X52177Y-53333D01*
X52542Y-52743D02*
X52599Y-52743D01*
X52655Y-52771D01*
X52683Y-52799D01*
X52711Y-52855D01*
X52739Y-52968D01*
X52739Y-53108D01*
X52711Y-53221D01*
X52683Y-53277D01*
X52655Y-53305D01*
X52599Y-53333D01*
X52542Y-53333D01*
X52486Y-53305D01*
X52458Y-53277D01*
X52430Y-53221D01*
X52402Y-53108D01*
X52402Y-52968D01*
X52430Y-52855D01*
X52458Y-52799D01*
X52486Y-52771D01*
X52542Y-52743D01*
X53302Y-53333D02*
X52964Y-53333D01*
X53133Y-53333D02*
X53133Y-52743D01*
X53077Y-52827D01*
X53021Y-52883D01*
X52964Y-52912D01*
X53808Y-52743D02*
X53695Y-52743D01*
X53639Y-52771D01*
X53611Y-52799D01*
X53555Y-52883D01*
X53527Y-52996D01*
X53527Y-53221D01*
X53555Y-53277D01*
X53583Y-53305D01*
X53639Y-53333D01*
X53752Y-53333D01*
X53808Y-53305D01*
X53836Y-53277D01*
X53864Y-53221D01*
X53864Y-53080D01*
X53836Y-53024D01*
X53808Y-52996D01*
X53752Y-52968D01*
X53639Y-52968D01*
X53583Y-52996D01*
X53555Y-53024D01*
X53527Y-53080D01*
X54427Y-53333D02*
X54089Y-53333D01*
X54258Y-53333D02*
X54258Y-52743D01*
X54202Y-52827D01*
X54145Y-52883D01*
X54089Y-52912D01*
X54652Y-52799D02*
X54680Y-52771D01*
X54736Y-52743D01*
X54877Y-52743D01*
X54933Y-52771D01*
X54961Y-52799D01*
X54989Y-52855D01*
X54989Y-52912D01*
X54961Y-52996D01*
X54623Y-53333D01*
X54989Y-53333D01*
X55355Y-52743D02*
X55411Y-52743D01*
X55467Y-52771D01*
X55495Y-52799D01*
X55523Y-52855D01*
X55551Y-52968D01*
X55551Y-53108D01*
X55523Y-53221D01*
X55495Y-53277D01*
X55467Y-53305D01*
X55411Y-53333D01*
X55355Y-53333D01*
X55298Y-53305D01*
X55270Y-53277D01*
X55242Y-53221D01*
X55214Y-53108D01*
X55214Y-52968D01*
X55242Y-52855D01*
X55270Y-52799D01*
X55298Y-52771D01*
X55355Y-52743D01*
X56058Y-52940D02*
X56058Y-53333D01*
X55917Y-52715D02*
X55776Y-53137D01*
X56142Y-53137D01*
X57154Y-53333D02*
X56958Y-53052D01*
X56817Y-53333D02*
X56817Y-52743D01*
X57042Y-52743D01*
X57098Y-52771D01*
X57126Y-52799D01*
X57154Y-52855D01*
X57154Y-52940D01*
X57126Y-52996D01*
X57098Y-53024D01*
X57042Y-53052D01*
X56817Y-53052D01*
X57632Y-53305D02*
X57576Y-53333D01*
X57464Y-53333D01*
X57407Y-53305D01*
X57379Y-53249D01*
X57379Y-53024D01*
X57407Y-52968D01*
X57464Y-52940D01*
X57576Y-52940D01*
X57632Y-52968D01*
X57661Y-53024D01*
X57661Y-53080D01*
X57379Y-53137D01*
X57857Y-52940D02*
X57998Y-53333D01*
X58139Y-52940D01*
X58757Y-52940D02*
X58898Y-53333D01*
X59039Y-52940D01*
X59235Y-52799D02*
X59264Y-52771D01*
X59320Y-52743D01*
X59460Y-52743D01*
X59517Y-52771D01*
X59545Y-52799D01*
X59573Y-52855D01*
X59573Y-52912D01*
X59545Y-52996D01*
X59207Y-53333D01*
X59573Y-53333D01*
X59826Y-53277D02*
X59854Y-53305D01*
X59826Y-53333D01*
X59798Y-53305D01*
X59826Y-53277D01*
X59826Y-53333D01*
X60220Y-52743D02*
X60276Y-52743D01*
X60332Y-52771D01*
X60360Y-52799D01*
X60388Y-52855D01*
X60416Y-52968D01*
X60416Y-53108D01*
X60388Y-53221D01*
X60360Y-53277D01*
X60332Y-53305D01*
X60276Y-53333D01*
X60220Y-53333D01*
X60163Y-53305D01*
X60135Y-53277D01*
X60107Y-53221D01*
X60079Y-53108D01*
X60079Y-52968D01*
X60107Y-52855D01*
X60135Y-52799D01*
X60163Y-52771D01*
X60220Y-52743D01*
X61120Y-53333D02*
X61120Y-52743D01*
X61120Y-52968D02*
X61176Y-52940D01*
X61288Y-52940D01*
X61344Y-52968D01*
X61373Y-52996D01*
X61401Y-53052D01*
X61401Y-53221D01*
X61373Y-53277D01*
X61344Y-53305D01*
X61288Y-53333D01*
X61176Y-53333D01*
X61120Y-53305D01*
X61598Y-52940D02*
X61738Y-53333D01*
X61879Y-52940D02*
X61738Y-53333D01*
X61682Y-53474D01*
X61654Y-53502D01*
X61598Y-53530D01*
X62526Y-53305D02*
X62610Y-53333D01*
X62751Y-53333D01*
X62807Y-53305D01*
X62835Y-53277D01*
X62863Y-53221D01*
X62863Y-53165D01*
X62835Y-53108D01*
X62807Y-53080D01*
X62751Y-53052D01*
X62638Y-53024D01*
X62582Y-52996D01*
X62554Y-52968D01*
X62526Y-52912D01*
X62526Y-52855D01*
X62554Y-52799D01*
X62582Y-52771D01*
X62638Y-52743D01*
X62779Y-52743D01*
X62863Y-52771D01*
X63032Y-52940D02*
X63257Y-52940D01*
X63116Y-52743D02*
X63116Y-53249D01*
X63144Y-53305D01*
X63201Y-53333D01*
X63257Y-53333D01*
X63679Y-53305D02*
X63622Y-53333D01*
X63510Y-53333D01*
X63454Y-53305D01*
X63425Y-53249D01*
X63425Y-53024D01*
X63454Y-52968D01*
X63510Y-52940D01*
X63622Y-52940D01*
X63679Y-52968D01*
X63707Y-53024D01*
X63707Y-53080D01*
X63425Y-53137D01*
X63904Y-52940D02*
X64016Y-53333D01*
X64129Y-53052D01*
X64241Y-53333D01*
X64353Y-52940D01*
X64832Y-53333D02*
X64832Y-53024D01*
X64803Y-52968D01*
X64747Y-52940D01*
X64635Y-52940D01*
X64578Y-52968D01*
X64832Y-53305D02*
X64775Y-53333D01*
X64635Y-53333D01*
X64578Y-53305D01*
X64550Y-53249D01*
X64550Y-53193D01*
X64578Y-53137D01*
X64635Y-53108D01*
X64775Y-53108D01*
X64832Y-53080D01*
X65113Y-53333D02*
X65113Y-52940D01*
X65113Y-53052D02*
X65141Y-52996D01*
X65169Y-52968D01*
X65225Y-52940D01*
X65282Y-52940D01*
X65731Y-53333D02*
X65731Y-52743D01*
X65731Y-53305D02*
X65675Y-53333D01*
X65563Y-53333D01*
X65506Y-53305D01*
X65478Y-53277D01*
X65450Y-53221D01*
X65450Y-53052D01*
X65478Y-52996D01*
X65506Y-52968D01*
X65563Y-52940D01*
X65675Y-52940D01*
X65731Y-52968D01*
G54D12*
X59881Y-42010D02*
X61338Y-42010D01*
X59881Y-42601D02*
X61338Y-42601D01*
X59881Y-42010D02*
X59881Y-42601D01*
X61338Y-42010D02*
X61338Y-42601D01*
G54D10*
X60472Y-42069D02*
X60747Y-42069D01*
X60747Y-42542D02*
X60472Y-42542D01*
G54D12*
X73491Y-37879D02*
X74948Y-37879D01*
X73491Y-38470D02*
X74948Y-38470D01*
X73491Y-37879D02*
X73491Y-38470D01*
X74948Y-37879D02*
X74948Y-38470D01*
G54D10*
X74082Y-37938D02*
X74357Y-37938D01*
X74357Y-38411D02*
X74082Y-38411D01*
G54D12*
X52765Y-38811D02*
X52765Y-40268D01*
X52174Y-38811D02*
X52174Y-40268D01*
X52765Y-38811D02*
X52174Y-38811D01*
X52765Y-40268D02*
X52174Y-40268D01*
G54D10*
X52706Y-39402D02*
X52706Y-39677D01*
X52233Y-39677D02*
X52233Y-39402D01*
G54D12*
X52184Y-38798D02*
X52184Y-37341D01*
X52775Y-38798D02*
X52775Y-37341D01*
X52184Y-38798D02*
X52775Y-38798D01*
X52184Y-37341D02*
X52775Y-37341D01*
G54D10*
X52243Y-38207D02*
X52243Y-37932D01*
X52716Y-37932D02*
X52716Y-38207D01*
G54D12*
X53598Y-36795D02*
X52141Y-36795D01*
X53598Y-36204D02*
X52141Y-36204D01*
X53598Y-36795D02*
X53598Y-36204D01*
X52141Y-36795D02*
X52141Y-36204D01*
G54D10*
X53007Y-36736D02*
X52732Y-36736D01*
X52732Y-36263D02*
X53007Y-36263D01*
G54D12*
X53588Y-41245D02*
X52131Y-41245D01*
X53588Y-40654D02*
X52131Y-40654D01*
X53588Y-41245D02*
X53588Y-40654D01*
X52131Y-41245D02*
X52131Y-40654D01*
G54D10*
X52997Y-41186D02*
X52722Y-41186D01*
X52722Y-40713D02*
X52997Y-40713D01*
G54D12*
X59723Y-44170D02*
X58266Y-44170D01*
X59723Y-43579D02*
X58266Y-43579D01*
X59723Y-44170D02*
X59723Y-43579D01*
X58266Y-44170D02*
X58266Y-43579D01*
G54D10*
X59132Y-44111D02*
X58857Y-44111D01*
X58857Y-43638D02*
X59132Y-43638D01*
G54D12*
X60606Y-43189D02*
X62063Y-43189D01*
X60606Y-43780D02*
X62063Y-43780D01*
X60606Y-43189D02*
X60606Y-43780D01*
X62063Y-43189D02*
X62063Y-43780D01*
G54D10*
X61197Y-43248D02*
X61472Y-43248D01*
X61472Y-43721D02*
X61197Y-43721D01*
G54D12*
X58554Y-37058D02*
X58554Y-35601D01*
X59145Y-37058D02*
X59145Y-35601D01*
X58554Y-37058D02*
X59145Y-37058D01*
X58554Y-35601D02*
X59145Y-35601D01*
G54D10*
X58613Y-36467D02*
X58613Y-36192D01*
X59086Y-36192D02*
X59086Y-36467D01*
G54D12*
X60203Y-43405D02*
X58746Y-43405D01*
X60203Y-42814D02*
X58746Y-42814D01*
X60203Y-43405D02*
X60203Y-42814D01*
X58746Y-43405D02*
X58746Y-42814D01*
G54D10*
X59612Y-43346D02*
X59337Y-43346D01*
X59337Y-42873D02*
X59612Y-42873D01*
G54D12*
X62701Y-35344D02*
X64158Y-35344D01*
X62701Y-35935D02*
X64158Y-35935D01*
X62701Y-35344D02*
X62701Y-35935D01*
X64158Y-35344D02*
X64158Y-35935D01*
G54D10*
X63292Y-35403D02*
X63567Y-35403D01*
X63567Y-35876D02*
X63292Y-35876D01*
G54D12*
X75034Y-39278D02*
X75034Y-37821D01*
X75625Y-39278D02*
X75625Y-37821D01*
X75034Y-39278D02*
X75625Y-39278D01*
X75034Y-37821D02*
X75625Y-37821D01*
G54D10*
X75093Y-38687D02*
X75093Y-38412D01*
X75566Y-38412D02*
X75566Y-38687D01*
G54D12*
X59901Y-41374D02*
X61358Y-41374D01*
X59901Y-41965D02*
X61358Y-41965D01*
X59901Y-41374D02*
X59901Y-41965D01*
X61358Y-41374D02*
X61358Y-41965D01*
G54D10*
X60492Y-41433D02*
X60767Y-41433D01*
X60767Y-41906D02*
X60492Y-41906D01*
G54D12*
X60085Y-35616D02*
X60085Y-37073D01*
X59494Y-35616D02*
X59494Y-37073D01*
X60085Y-35616D02*
X59494Y-35616D01*
X60085Y-37073D02*
X59494Y-37073D01*
G54D10*
X60026Y-36207D02*
X60026Y-36482D01*
X59553Y-36482D02*
X59553Y-36207D01*
G54D12*
X61024Y-41003D02*
X61024Y-39546D01*
X61615Y-41003D02*
X61615Y-39546D01*
X61024Y-41003D02*
X61615Y-41003D01*
X61024Y-39546D02*
X61615Y-39546D01*
G54D10*
X61083Y-40412D02*
X61083Y-40137D01*
X61556Y-40137D02*
X61556Y-40412D01*
G54D12*
X74998Y-47095D02*
X73541Y-47095D01*
X74998Y-46504D02*
X73541Y-46504D01*
X74998Y-47095D02*
X74998Y-46504D01*
X73541Y-47095D02*
X73541Y-46504D01*
G54D10*
X74407Y-47036D02*
X74132Y-47036D01*
X74132Y-46563D02*
X74407Y-46563D01*
G54D12*
X73208Y-41290D02*
X71751Y-41290D01*
X73208Y-40699D02*
X71751Y-40699D01*
X73208Y-41290D02*
X73208Y-40699D01*
X71751Y-41290D02*
X71751Y-40699D01*
G54D10*
X72617Y-41231D02*
X72342Y-41231D01*
X72342Y-40758D02*
X72617Y-40758D01*
G54D12*
X73307Y-47087D02*
X71850Y-47087D01*
X73307Y-46496D02*
X71850Y-46496D01*
X73307Y-47087D02*
X73307Y-46496D01*
X71850Y-47087D02*
X71850Y-46496D01*
G54D10*
X72716Y-47028D02*
X72441Y-47028D01*
X72441Y-46555D02*
X72716Y-46555D01*
G54D12*
X71846Y-43669D02*
X73303Y-43669D01*
X71846Y-44260D02*
X73303Y-44260D01*
X71846Y-43669D02*
X71846Y-44260D01*
X73303Y-43669D02*
X73303Y-44260D01*
G54D10*
X72437Y-43728D02*
X72712Y-43728D01*
X72712Y-44201D02*
X72437Y-44201D01*
G54D13*
X60819Y-38248D02*
X52945Y-38248D01*
X60583Y-37973D02*
X60819Y-37973D01*
X60819Y-37973D02*
X60819Y-39508D01*
X60819Y-39508D02*
X52945Y-39508D01*
X52945Y-39508D02*
X52945Y-37973D01*
X52945Y-37973D02*
X60583Y-37973D01*
X67982Y-53550D02*
X70266Y-53550D01*
X70266Y-53550D02*
X70266Y-53275D01*
X70266Y-53275D02*
X71250Y-53275D01*
X71250Y-53275D02*
X71250Y-47724D01*
X71250Y-47724D02*
X71250Y-36857D01*
X71250Y-36857D02*
X71250Y-36031D01*
X71250Y-36031D02*
X70266Y-36031D01*
X70266Y-36031D02*
X70266Y-35676D01*
X70266Y-35676D02*
X67982Y-35676D01*
X67982Y-35676D02*
X67982Y-53550D01*
G54D14*
X74337Y-44406D02*
X74337Y-46406D01*
X74337Y-46406D02*
X72537Y-46406D01*
X72537Y-46406D02*
X72537Y-44406D01*
X72537Y-44406D02*
X74337Y-44406D01*
X73737Y-44406D02*
X73737Y-44606D01*
X73737Y-44606D02*
X73237Y-44606D01*
X73237Y-44606D02*
X73237Y-44406D01*
G54D12*
X73571Y-43669D02*
X75028Y-43669D01*
X73571Y-44260D02*
X75028Y-44260D01*
X73571Y-43669D02*
X73571Y-44260D01*
X75028Y-43669D02*
X75028Y-44260D01*
G54D10*
X74162Y-43728D02*
X74437Y-43728D01*
X74437Y-44201D02*
X74162Y-44201D01*
G54D14*
X74248Y-38600D02*
X74248Y-40600D01*
X74248Y-40600D02*
X72448Y-40600D01*
X72448Y-40600D02*
X72448Y-38600D01*
X72448Y-38600D02*
X74248Y-38600D01*
X73648Y-38600D02*
X73648Y-38800D01*
X73648Y-38800D02*
X73148Y-38800D01*
X73148Y-38800D02*
X73148Y-38600D01*
G54D10*
X59402Y-42482D02*
X59383Y-42501D01*
X59327Y-42520D01*
X59290Y-42520D01*
X59233Y-42501D01*
X59196Y-42463D01*
X59177Y-42426D01*
X59158Y-42351D01*
X59158Y-42295D01*
X59177Y-42220D01*
X59196Y-42182D01*
X59233Y-42145D01*
X59290Y-42126D01*
X59327Y-42126D01*
X59383Y-42145D01*
X59402Y-42163D01*
X59739Y-42257D02*
X59739Y-42520D01*
X59646Y-42107D02*
X59552Y-42388D01*
X59796Y-42388D01*
X61670Y-42390D02*
X61445Y-42390D01*
X61558Y-42390D02*
X61558Y-41996D01*
X61520Y-42052D01*
X61483Y-42090D01*
X61445Y-42109D01*
X62008Y-42127D02*
X62008Y-42390D01*
X61839Y-42127D02*
X61839Y-42334D01*
X61858Y-42371D01*
X61895Y-42390D01*
X61951Y-42390D01*
X61989Y-42371D01*
X62008Y-42352D01*
X62326Y-42184D02*
X62195Y-42184D01*
X62195Y-42390D02*
X62195Y-41996D01*
X62383Y-41996D01*
X62814Y-41977D02*
X62476Y-42484D01*
X63151Y-42390D02*
X62926Y-42390D01*
X63039Y-42390D02*
X63039Y-41996D01*
X63001Y-42052D01*
X62964Y-42090D01*
X62926Y-42109D01*
X63395Y-41996D02*
X63433Y-41996D01*
X63470Y-42015D01*
X63489Y-42034D01*
X63508Y-42071D01*
X63526Y-42146D01*
X63526Y-42240D01*
X63508Y-42315D01*
X63489Y-42352D01*
X63470Y-42371D01*
X63433Y-42390D01*
X63395Y-42390D01*
X63358Y-42371D01*
X63339Y-42352D01*
X63320Y-42315D01*
X63301Y-42240D01*
X63301Y-42146D01*
X63320Y-42071D01*
X63339Y-42034D01*
X63358Y-42015D01*
X63395Y-41996D01*
X63639Y-41996D02*
X63770Y-42390D01*
X63901Y-41996D01*
X73710Y-37235D02*
X73692Y-37254D01*
X73635Y-37273D01*
X73598Y-37273D01*
X73542Y-37254D01*
X73504Y-37217D01*
X73485Y-37179D01*
X73467Y-37104D01*
X73467Y-37048D01*
X73485Y-36973D01*
X73504Y-36935D01*
X73542Y-36898D01*
X73598Y-36879D01*
X73635Y-36879D01*
X73692Y-36898D01*
X73710Y-36917D01*
X74085Y-37273D02*
X73860Y-37273D01*
X73973Y-37273D02*
X73973Y-36879D01*
X73935Y-36935D01*
X73898Y-36973D01*
X73860Y-36992D01*
X74442Y-36879D02*
X74254Y-36879D01*
X74235Y-37067D01*
X74254Y-37048D01*
X74292Y-37029D01*
X74385Y-37029D01*
X74423Y-37048D01*
X74442Y-37067D01*
X74460Y-37104D01*
X74460Y-37198D01*
X74442Y-37235D01*
X74423Y-37254D01*
X74385Y-37273D01*
X74292Y-37273D01*
X74254Y-37254D01*
X74235Y-37235D01*
X76103Y-38999D02*
X76103Y-39224D01*
X76103Y-39111D02*
X75709Y-39111D01*
X75765Y-39149D01*
X75803Y-39186D01*
X75822Y-39224D01*
X75709Y-38755D02*
X75709Y-38718D01*
X75728Y-38680D01*
X75747Y-38661D01*
X75784Y-38643D01*
X75859Y-38624D01*
X75953Y-38624D01*
X76028Y-38643D01*
X76065Y-38661D01*
X76084Y-38680D01*
X76103Y-38718D01*
X76103Y-38755D01*
X76084Y-38793D01*
X76065Y-38811D01*
X76028Y-38830D01*
X75953Y-38849D01*
X75859Y-38849D01*
X75784Y-38830D01*
X75747Y-38811D01*
X75728Y-38793D01*
X75709Y-38755D01*
X75709Y-38380D02*
X75709Y-38343D01*
X75728Y-38305D01*
X75747Y-38286D01*
X75784Y-38268D01*
X75859Y-38249D01*
X75953Y-38249D01*
X76028Y-38268D01*
X76065Y-38286D01*
X76084Y-38305D01*
X76103Y-38343D01*
X76103Y-38380D01*
X76084Y-38418D01*
X76065Y-38436D01*
X76028Y-38455D01*
X75953Y-38474D01*
X75859Y-38474D01*
X75784Y-38455D01*
X75747Y-38436D01*
X75728Y-38418D01*
X75709Y-38380D01*
X75840Y-38080D02*
X76234Y-38080D01*
X75859Y-38080D02*
X75840Y-38043D01*
X75840Y-37968D01*
X75859Y-37930D01*
X75878Y-37911D01*
X75915Y-37893D01*
X76028Y-37893D01*
X76065Y-37911D01*
X76084Y-37930D01*
X76103Y-37968D01*
X76103Y-38043D01*
X76084Y-38080D01*
X75897Y-37593D02*
X75897Y-37724D01*
X76103Y-37724D02*
X75709Y-37724D01*
X75709Y-37536D01*
X53207Y-37961D02*
X53226Y-37979D01*
X53245Y-38036D01*
X53245Y-38073D01*
X53226Y-38129D01*
X53189Y-38167D01*
X53151Y-38186D01*
X53076Y-38204D01*
X53020Y-38204D01*
X52945Y-38186D01*
X52907Y-38167D01*
X52870Y-38129D01*
X52851Y-38073D01*
X52851Y-38036D01*
X52870Y-37979D01*
X52889Y-37961D01*
X53245Y-37586D02*
X53245Y-37811D01*
X53245Y-37698D02*
X52851Y-37698D01*
X52907Y-37736D01*
X52945Y-37773D01*
X52964Y-37811D01*
X52851Y-37454D02*
X52851Y-37211D01*
X53001Y-37342D01*
X53001Y-37286D01*
X53020Y-37248D01*
X53039Y-37229D01*
X53076Y-37211D01*
X53170Y-37211D01*
X53207Y-37229D01*
X53226Y-37248D01*
X53245Y-37286D01*
X53245Y-37398D01*
X53226Y-37436D01*
X53207Y-37454D01*
X52123Y-41288D02*
X52123Y-41513D01*
X52123Y-41400D02*
X51729Y-41400D01*
X51785Y-41438D01*
X51823Y-41475D01*
X51842Y-41513D01*
X51860Y-40950D02*
X52123Y-40950D01*
X51860Y-41119D02*
X52067Y-41119D01*
X52104Y-41100D01*
X52123Y-41063D01*
X52123Y-41007D01*
X52104Y-40969D01*
X52085Y-40950D01*
X51917Y-40632D02*
X51917Y-40763D01*
X52123Y-40763D02*
X51729Y-40763D01*
X51729Y-40575D01*
X51710Y-40144D02*
X52217Y-40482D01*
X52123Y-39807D02*
X52123Y-40032D01*
X52123Y-39919D02*
X51729Y-39919D01*
X51785Y-39957D01*
X51823Y-39994D01*
X51842Y-40032D01*
X51729Y-39563D02*
X51729Y-39525D01*
X51748Y-39488D01*
X51767Y-39469D01*
X51804Y-39450D01*
X51879Y-39432D01*
X51973Y-39432D01*
X52048Y-39450D01*
X52085Y-39469D01*
X52104Y-39488D01*
X52123Y-39525D01*
X52123Y-39563D01*
X52104Y-39600D01*
X52085Y-39619D01*
X52048Y-39638D01*
X51973Y-39657D01*
X51879Y-39657D01*
X51804Y-39638D01*
X51767Y-39619D01*
X51748Y-39600D01*
X51729Y-39563D01*
X51729Y-39319D02*
X52123Y-39188D01*
X51729Y-39057D01*
X53163Y-40117D02*
X53182Y-40135D01*
X53201Y-40192D01*
X53201Y-40229D01*
X53182Y-40285D01*
X53145Y-40323D01*
X53107Y-40342D01*
X53032Y-40360D01*
X52976Y-40360D01*
X52901Y-40342D01*
X52863Y-40323D01*
X52826Y-40285D01*
X52807Y-40229D01*
X52807Y-40192D01*
X52826Y-40135D01*
X52845Y-40117D01*
X53201Y-39742D02*
X53201Y-39967D01*
X53201Y-39854D02*
X52807Y-39854D01*
X52863Y-39892D01*
X52901Y-39929D01*
X52920Y-39967D01*
X52845Y-39592D02*
X52826Y-39573D01*
X52807Y-39535D01*
X52807Y-39442D01*
X52826Y-39404D01*
X52845Y-39385D01*
X52882Y-39367D01*
X52920Y-39367D01*
X52976Y-39385D01*
X53201Y-39610D01*
X53201Y-39367D01*
X52079Y-38450D02*
X52079Y-38675D01*
X52079Y-38562D02*
X51685Y-38562D01*
X51741Y-38600D01*
X51779Y-38637D01*
X51798Y-38675D01*
X51816Y-38112D02*
X52079Y-38112D01*
X51816Y-38281D02*
X52023Y-38281D01*
X52060Y-38262D01*
X52079Y-38225D01*
X52079Y-38169D01*
X52060Y-38131D01*
X52041Y-38112D01*
X51873Y-37794D02*
X51873Y-37925D01*
X52079Y-37925D02*
X51685Y-37925D01*
X51685Y-37737D01*
X51666Y-37306D02*
X52173Y-37644D01*
X52079Y-36969D02*
X52079Y-37194D01*
X52079Y-37081D02*
X51685Y-37081D01*
X51741Y-37119D01*
X51779Y-37156D01*
X51798Y-37194D01*
X51685Y-36725D02*
X51685Y-36687D01*
X51704Y-36650D01*
X51723Y-36631D01*
X51760Y-36612D01*
X51835Y-36594D01*
X51929Y-36594D01*
X52004Y-36612D01*
X52041Y-36631D01*
X52060Y-36650D01*
X52079Y-36687D01*
X52079Y-36725D01*
X52060Y-36762D01*
X52041Y-36781D01*
X52004Y-36800D01*
X51929Y-36819D01*
X51835Y-36819D01*
X51760Y-36800D01*
X51723Y-36781D01*
X51704Y-36762D01*
X51685Y-36725D01*
X51685Y-36481D02*
X52079Y-36350D01*
X51685Y-36219D01*
X53954Y-36619D02*
X53936Y-36638D01*
X53879Y-36657D01*
X53842Y-36657D01*
X53786Y-36638D01*
X53748Y-36601D01*
X53729Y-36563D01*
X53711Y-36488D01*
X53711Y-36432D01*
X53729Y-36357D01*
X53748Y-36319D01*
X53786Y-36282D01*
X53842Y-36263D01*
X53879Y-36263D01*
X53936Y-36282D01*
X53954Y-36301D01*
X54329Y-36657D02*
X54104Y-36657D01*
X54217Y-36657D02*
X54217Y-36263D01*
X54179Y-36319D01*
X54142Y-36357D01*
X54104Y-36376D01*
X54704Y-36657D02*
X54479Y-36657D01*
X54592Y-36657D02*
X54592Y-36263D01*
X54554Y-36319D01*
X54517Y-36357D01*
X54479Y-36376D01*
X52387Y-36129D02*
X52162Y-36129D01*
X52275Y-36129D02*
X52275Y-35735D01*
X52237Y-35791D01*
X52200Y-35829D01*
X52162Y-35848D01*
X52725Y-35866D02*
X52725Y-36129D01*
X52556Y-35866D02*
X52556Y-36073D01*
X52575Y-36110D01*
X52612Y-36129D01*
X52668Y-36129D01*
X52706Y-36110D01*
X52725Y-36091D01*
X53043Y-35923D02*
X52912Y-35923D01*
X52912Y-36129D02*
X52912Y-35735D01*
X53100Y-35735D01*
X53531Y-35716D02*
X53193Y-36223D01*
X53868Y-36129D02*
X53643Y-36129D01*
X53756Y-36129D02*
X53756Y-35735D01*
X53718Y-35791D01*
X53681Y-35829D01*
X53643Y-35848D01*
X54112Y-35735D02*
X54150Y-35735D01*
X54187Y-35754D01*
X54206Y-35773D01*
X54225Y-35810D01*
X54243Y-35885D01*
X54243Y-35979D01*
X54225Y-36054D01*
X54206Y-36091D01*
X54187Y-36110D01*
X54150Y-36129D01*
X54112Y-36129D01*
X54075Y-36110D01*
X54056Y-36091D01*
X54037Y-36054D01*
X54018Y-35979D01*
X54018Y-35885D01*
X54037Y-35810D01*
X54056Y-35773D01*
X54075Y-35754D01*
X54112Y-35735D01*
X54356Y-35735D02*
X54487Y-36129D01*
X54618Y-35735D01*
X53976Y-41679D02*
X53958Y-41698D01*
X53901Y-41717D01*
X53864Y-41717D01*
X53808Y-41698D01*
X53770Y-41661D01*
X53751Y-41623D01*
X53733Y-41548D01*
X53733Y-41492D01*
X53751Y-41417D01*
X53770Y-41379D01*
X53808Y-41342D01*
X53864Y-41323D01*
X53901Y-41323D01*
X53958Y-41342D01*
X53976Y-41361D01*
X54351Y-41717D02*
X54126Y-41717D01*
X54239Y-41717D02*
X54239Y-41323D01*
X54201Y-41379D01*
X54164Y-41417D01*
X54126Y-41436D01*
X54595Y-41323D02*
X54633Y-41323D01*
X54670Y-41342D01*
X54689Y-41361D01*
X54708Y-41398D01*
X54726Y-41473D01*
X54726Y-41567D01*
X54708Y-41642D01*
X54689Y-41679D01*
X54670Y-41698D01*
X54633Y-41717D01*
X54595Y-41717D01*
X54558Y-41698D01*
X54539Y-41679D01*
X54520Y-41642D01*
X54501Y-41567D01*
X54501Y-41473D01*
X54520Y-41398D01*
X54539Y-41361D01*
X54558Y-41342D01*
X54595Y-41323D01*
X53927Y-41145D02*
X53702Y-41145D01*
X53815Y-41145D02*
X53815Y-40751D01*
X53777Y-40807D01*
X53740Y-40845D01*
X53702Y-40864D01*
X54265Y-40882D02*
X54265Y-41145D01*
X54096Y-40882D02*
X54096Y-41089D01*
X54115Y-41126D01*
X54152Y-41145D01*
X54208Y-41145D01*
X54246Y-41126D01*
X54265Y-41107D01*
X54583Y-40939D02*
X54452Y-40939D01*
X54452Y-41145D02*
X54452Y-40751D01*
X54640Y-40751D01*
X55071Y-40732D02*
X54733Y-41239D01*
X55408Y-41145D02*
X55183Y-41145D01*
X55296Y-41145D02*
X55296Y-40751D01*
X55258Y-40807D01*
X55221Y-40845D01*
X55183Y-40864D01*
X55652Y-40751D02*
X55690Y-40751D01*
X55727Y-40770D01*
X55746Y-40789D01*
X55765Y-40826D01*
X55783Y-40901D01*
X55783Y-40995D01*
X55765Y-41070D01*
X55746Y-41107D01*
X55727Y-41126D01*
X55690Y-41145D01*
X55652Y-41145D01*
X55615Y-41126D01*
X55596Y-41107D01*
X55577Y-41070D01*
X55558Y-40995D01*
X55558Y-40901D01*
X55577Y-40826D01*
X55596Y-40789D01*
X55615Y-40770D01*
X55652Y-40751D01*
X55896Y-40751D02*
X56027Y-41145D01*
X56158Y-40751D01*
X57810Y-44026D02*
X57792Y-44045D01*
X57735Y-44063D01*
X57698Y-44063D01*
X57642Y-44045D01*
X57604Y-44007D01*
X57585Y-43970D01*
X57567Y-43895D01*
X57567Y-43838D01*
X57585Y-43763D01*
X57604Y-43726D01*
X57642Y-43689D01*
X57698Y-43670D01*
X57735Y-43670D01*
X57792Y-43689D01*
X57810Y-43707D01*
X57998Y-44063D02*
X58073Y-44063D01*
X58110Y-44045D01*
X58129Y-44026D01*
X58167Y-43970D01*
X58185Y-43895D01*
X58185Y-43745D01*
X58167Y-43707D01*
X58148Y-43689D01*
X58110Y-43670D01*
X58035Y-43670D01*
X57998Y-43689D01*
X57979Y-43707D01*
X57960Y-43745D01*
X57960Y-43838D01*
X57979Y-43876D01*
X57998Y-43895D01*
X58035Y-43913D01*
X58110Y-43913D01*
X58148Y-43895D01*
X58167Y-43876D01*
X58185Y-43838D01*
X59669Y-44775D02*
X59444Y-44775D01*
X59557Y-44775D02*
X59557Y-44381D01*
X59519Y-44437D01*
X59482Y-44475D01*
X59444Y-44494D01*
X60007Y-44512D02*
X60007Y-44775D01*
X59838Y-44512D02*
X59838Y-44719D01*
X59857Y-44756D01*
X59894Y-44775D01*
X59950Y-44775D01*
X59988Y-44756D01*
X60007Y-44737D01*
X60325Y-44569D02*
X60194Y-44569D01*
X60194Y-44775D02*
X60194Y-44381D01*
X60382Y-44381D01*
X60813Y-44362D02*
X60475Y-44869D01*
X61150Y-44775D02*
X60925Y-44775D01*
X61038Y-44775D02*
X61038Y-44381D01*
X61000Y-44437D01*
X60963Y-44475D01*
X60925Y-44494D01*
X61394Y-44381D02*
X61432Y-44381D01*
X61469Y-44400D01*
X61488Y-44419D01*
X61507Y-44456D01*
X61525Y-44531D01*
X61525Y-44625D01*
X61507Y-44700D01*
X61488Y-44737D01*
X61469Y-44756D01*
X61432Y-44775D01*
X61394Y-44775D01*
X61357Y-44756D01*
X61338Y-44737D01*
X61319Y-44700D01*
X61300Y-44625D01*
X61300Y-44531D01*
X61319Y-44456D01*
X61338Y-44419D01*
X61357Y-44400D01*
X61394Y-44381D01*
X61638Y-44381D02*
X61769Y-44775D01*
X61900Y-44381D01*
X63030Y-43659D02*
X63011Y-43678D01*
X62955Y-43697D01*
X62917Y-43697D01*
X62861Y-43678D01*
X62824Y-43641D01*
X62805Y-43603D01*
X62786Y-43528D01*
X62786Y-43472D01*
X62805Y-43397D01*
X62824Y-43359D01*
X62861Y-43322D01*
X62917Y-43303D01*
X62955Y-43303D01*
X63011Y-43322D01*
X63030Y-43341D01*
X63255Y-43472D02*
X63217Y-43453D01*
X63199Y-43434D01*
X63180Y-43397D01*
X63180Y-43378D01*
X63199Y-43341D01*
X63217Y-43322D01*
X63255Y-43303D01*
X63330Y-43303D01*
X63367Y-43322D01*
X63386Y-43341D01*
X63405Y-43378D01*
X63405Y-43397D01*
X63386Y-43434D01*
X63367Y-43453D01*
X63330Y-43472D01*
X63255Y-43472D01*
X63217Y-43491D01*
X63199Y-43509D01*
X63180Y-43547D01*
X63180Y-43622D01*
X63199Y-43659D01*
X63217Y-43678D01*
X63255Y-43697D01*
X63330Y-43697D01*
X63367Y-43678D01*
X63386Y-43659D01*
X63405Y-43622D01*
X63405Y-43547D01*
X63386Y-43509D01*
X63367Y-43491D01*
X63330Y-43472D01*
X60901Y-44269D02*
X60676Y-44269D01*
X60789Y-44269D02*
X60789Y-43875D01*
X60751Y-43931D01*
X60714Y-43969D01*
X60676Y-43988D01*
X61239Y-44006D02*
X61239Y-44269D01*
X61070Y-44006D02*
X61070Y-44213D01*
X61089Y-44250D01*
X61126Y-44269D01*
X61182Y-44269D01*
X61220Y-44250D01*
X61239Y-44231D01*
X61557Y-44063D02*
X61426Y-44063D01*
X61426Y-44269D02*
X61426Y-43875D01*
X61614Y-43875D01*
X62045Y-43856D02*
X61707Y-44363D01*
X62382Y-44269D02*
X62157Y-44269D01*
X62270Y-44269D02*
X62270Y-43875D01*
X62232Y-43931D01*
X62195Y-43969D01*
X62157Y-43988D01*
X62720Y-43875D02*
X62645Y-43875D01*
X62607Y-43894D01*
X62589Y-43913D01*
X62551Y-43969D01*
X62532Y-44044D01*
X62532Y-44194D01*
X62551Y-44231D01*
X62570Y-44250D01*
X62607Y-44269D01*
X62682Y-44269D01*
X62720Y-44250D01*
X62739Y-44231D01*
X62757Y-44194D01*
X62757Y-44100D01*
X62739Y-44063D01*
X62720Y-44044D01*
X62682Y-44025D01*
X62607Y-44025D01*
X62570Y-44044D01*
X62551Y-44063D01*
X62532Y-44100D01*
X62870Y-43875D02*
X63001Y-44269D01*
X63132Y-43875D01*
X58740Y-37565D02*
X58721Y-37584D01*
X58665Y-37603D01*
X58627Y-37603D01*
X58571Y-37584D01*
X58534Y-37547D01*
X58515Y-37509D01*
X58496Y-37434D01*
X58496Y-37378D01*
X58515Y-37303D01*
X58534Y-37265D01*
X58571Y-37228D01*
X58627Y-37209D01*
X58665Y-37209D01*
X58721Y-37228D01*
X58740Y-37247D01*
X58871Y-37209D02*
X59134Y-37209D01*
X58965Y-37603D01*
X56985Y-35447D02*
X56760Y-35447D01*
X56873Y-35447D02*
X56873Y-35053D01*
X56835Y-35109D01*
X56798Y-35147D01*
X56760Y-35166D01*
X57323Y-35184D02*
X57323Y-35447D01*
X57154Y-35184D02*
X57154Y-35391D01*
X57173Y-35428D01*
X57210Y-35447D01*
X57266Y-35447D01*
X57304Y-35428D01*
X57323Y-35409D01*
X57641Y-35241D02*
X57510Y-35241D01*
X57510Y-35447D02*
X57510Y-35053D01*
X57698Y-35053D01*
X58129Y-35034D02*
X57791Y-35541D01*
X58466Y-35447D02*
X58241Y-35447D01*
X58354Y-35447D02*
X58354Y-35053D01*
X58316Y-35109D01*
X58279Y-35147D01*
X58241Y-35166D01*
X58804Y-35053D02*
X58729Y-35053D01*
X58691Y-35072D01*
X58673Y-35091D01*
X58635Y-35147D01*
X58616Y-35222D01*
X58616Y-35372D01*
X58635Y-35409D01*
X58654Y-35428D01*
X58691Y-35447D01*
X58766Y-35447D01*
X58804Y-35428D01*
X58823Y-35409D01*
X58841Y-35372D01*
X58841Y-35278D01*
X58823Y-35241D01*
X58804Y-35222D01*
X58766Y-35203D01*
X58691Y-35203D01*
X58654Y-35222D01*
X58635Y-35241D01*
X58616Y-35278D01*
X58954Y-35053D02*
X59085Y-35447D01*
X59216Y-35053D01*
X58256Y-43219D02*
X58237Y-43238D01*
X58181Y-43257D01*
X58143Y-43257D01*
X58087Y-43238D01*
X58050Y-43201D01*
X58031Y-43163D01*
X58012Y-43088D01*
X58012Y-43032D01*
X58031Y-42957D01*
X58050Y-42919D01*
X58087Y-42882D01*
X58143Y-42863D01*
X58181Y-42863D01*
X58237Y-42882D01*
X58256Y-42901D01*
X58593Y-42863D02*
X58518Y-42863D01*
X58481Y-42882D01*
X58462Y-42901D01*
X58425Y-42957D01*
X58406Y-43032D01*
X58406Y-43182D01*
X58425Y-43219D01*
X58443Y-43238D01*
X58481Y-43257D01*
X58556Y-43257D01*
X58593Y-43238D01*
X58612Y-43219D01*
X58631Y-43182D01*
X58631Y-43088D01*
X58612Y-43051D01*
X58593Y-43032D01*
X58556Y-43013D01*
X58481Y-43013D01*
X58443Y-43032D01*
X58425Y-43051D01*
X58406Y-43088D01*
X60813Y-43103D02*
X60588Y-43103D01*
X60701Y-43103D02*
X60701Y-42709D01*
X60663Y-42765D01*
X60626Y-42803D01*
X60588Y-42822D01*
X61151Y-42840D02*
X61151Y-43103D01*
X60982Y-42840D02*
X60982Y-43047D01*
X61001Y-43084D01*
X61038Y-43103D01*
X61094Y-43103D01*
X61132Y-43084D01*
X61151Y-43065D01*
X61469Y-42897D02*
X61338Y-42897D01*
X61338Y-43103D02*
X61338Y-42709D01*
X61526Y-42709D01*
X61957Y-42690D02*
X61619Y-43197D01*
X62294Y-43103D02*
X62069Y-43103D01*
X62182Y-43103D02*
X62182Y-42709D01*
X62144Y-42765D01*
X62107Y-42803D01*
X62069Y-42822D01*
X62538Y-42709D02*
X62576Y-42709D01*
X62613Y-42728D01*
X62632Y-42747D01*
X62651Y-42784D01*
X62669Y-42859D01*
X62669Y-42953D01*
X62651Y-43028D01*
X62632Y-43065D01*
X62613Y-43084D01*
X62576Y-43103D01*
X62538Y-43103D01*
X62501Y-43084D01*
X62482Y-43065D01*
X62463Y-43028D01*
X62444Y-42953D01*
X62444Y-42859D01*
X62463Y-42784D01*
X62482Y-42747D01*
X62501Y-42728D01*
X62538Y-42709D01*
X62782Y-42709D02*
X62913Y-43103D01*
X63044Y-42709D01*
X65032Y-35827D02*
X65013Y-35846D01*
X64957Y-35865D01*
X64919Y-35865D01*
X64863Y-35846D01*
X64826Y-35809D01*
X64807Y-35771D01*
X64788Y-35696D01*
X64788Y-35640D01*
X64807Y-35565D01*
X64826Y-35527D01*
X64863Y-35490D01*
X64919Y-35471D01*
X64957Y-35471D01*
X65013Y-35490D01*
X65032Y-35509D01*
X65388Y-35471D02*
X65201Y-35471D01*
X65182Y-35659D01*
X65201Y-35640D01*
X65238Y-35621D01*
X65332Y-35621D01*
X65369Y-35640D01*
X65388Y-35659D01*
X65407Y-35696D01*
X65407Y-35790D01*
X65388Y-35827D01*
X65369Y-35846D01*
X65332Y-35865D01*
X65238Y-35865D01*
X65201Y-35846D01*
X65182Y-35827D01*
X62969Y-36393D02*
X62744Y-36393D01*
X62857Y-36393D02*
X62857Y-35999D01*
X62819Y-36055D01*
X62782Y-36093D01*
X62744Y-36112D01*
X63307Y-36130D02*
X63307Y-36393D01*
X63138Y-36130D02*
X63138Y-36337D01*
X63157Y-36374D01*
X63194Y-36393D01*
X63250Y-36393D01*
X63288Y-36374D01*
X63307Y-36355D01*
X63625Y-36187D02*
X63494Y-36187D01*
X63494Y-36393D02*
X63494Y-35999D01*
X63682Y-35999D01*
X64113Y-35980D02*
X63775Y-36487D01*
X64450Y-36393D02*
X64225Y-36393D01*
X64338Y-36393D02*
X64338Y-35999D01*
X64300Y-36055D01*
X64263Y-36093D01*
X64225Y-36112D01*
X64694Y-35999D02*
X64732Y-35999D01*
X64769Y-36018D01*
X64788Y-36037D01*
X64807Y-36074D01*
X64825Y-36149D01*
X64825Y-36243D01*
X64807Y-36318D01*
X64788Y-36355D01*
X64769Y-36374D01*
X64732Y-36393D01*
X64694Y-36393D01*
X64657Y-36374D01*
X64638Y-36355D01*
X64619Y-36318D01*
X64600Y-36243D01*
X64600Y-36149D01*
X64619Y-36074D01*
X64638Y-36037D01*
X64657Y-36018D01*
X64694Y-35999D01*
X64938Y-35999D02*
X65069Y-36393D01*
X65200Y-35999D01*
X75372Y-39781D02*
X75241Y-39593D01*
X75147Y-39781D02*
X75147Y-39387D01*
X75297Y-39387D01*
X75334Y-39406D01*
X75353Y-39425D01*
X75372Y-39462D01*
X75372Y-39518D01*
X75353Y-39556D01*
X75334Y-39575D01*
X75297Y-39593D01*
X75147Y-39593D01*
X75747Y-39781D02*
X75522Y-39781D01*
X75634Y-39781D02*
X75634Y-39387D01*
X75597Y-39443D01*
X75559Y-39481D01*
X75522Y-39500D01*
X73724Y-37823D02*
X73499Y-37823D01*
X73612Y-37823D02*
X73612Y-37429D01*
X73574Y-37485D01*
X73537Y-37523D01*
X73499Y-37542D01*
X73968Y-37429D02*
X74005Y-37429D01*
X74043Y-37448D01*
X74062Y-37467D01*
X74080Y-37504D01*
X74099Y-37579D01*
X74099Y-37673D01*
X74080Y-37748D01*
X74062Y-37785D01*
X74043Y-37804D01*
X74005Y-37823D01*
X73968Y-37823D01*
X73930Y-37804D01*
X73912Y-37785D01*
X73893Y-37748D01*
X73874Y-37673D01*
X73874Y-37579D01*
X73893Y-37504D01*
X73912Y-37467D01*
X73930Y-37448D01*
X73968Y-37429D01*
X74343Y-37429D02*
X74380Y-37429D01*
X74418Y-37448D01*
X74437Y-37467D01*
X74455Y-37504D01*
X74474Y-37579D01*
X74474Y-37673D01*
X74455Y-37748D01*
X74437Y-37785D01*
X74418Y-37804D01*
X74380Y-37823D01*
X74343Y-37823D01*
X74305Y-37804D01*
X74287Y-37785D01*
X74268Y-37748D01*
X74249Y-37673D01*
X74249Y-37579D01*
X74268Y-37504D01*
X74287Y-37467D01*
X74305Y-37448D01*
X74343Y-37429D01*
X74643Y-37823D02*
X74643Y-37429D01*
X74868Y-37823D02*
X74699Y-37598D01*
X74868Y-37429D02*
X74643Y-37654D01*
X59466Y-41842D02*
X59447Y-41861D01*
X59391Y-41879D01*
X59353Y-41879D01*
X59297Y-41861D01*
X59259Y-41823D01*
X59241Y-41786D01*
X59222Y-41711D01*
X59222Y-41654D01*
X59241Y-41579D01*
X59259Y-41542D01*
X59297Y-41504D01*
X59353Y-41486D01*
X59391Y-41486D01*
X59447Y-41504D01*
X59466Y-41523D01*
X59597Y-41486D02*
X59841Y-41486D01*
X59709Y-41636D01*
X59766Y-41636D01*
X59803Y-41654D01*
X59822Y-41673D01*
X59841Y-41711D01*
X59841Y-41804D01*
X59822Y-41842D01*
X59803Y-41861D01*
X59766Y-41879D01*
X59653Y-41879D01*
X59616Y-41861D01*
X59597Y-41842D01*
X61665Y-41754D02*
X61440Y-41754D01*
X61553Y-41754D02*
X61553Y-41360D01*
X61515Y-41416D01*
X61478Y-41454D01*
X61440Y-41473D01*
X62003Y-41491D02*
X62003Y-41754D01*
X61834Y-41491D02*
X61834Y-41698D01*
X61853Y-41735D01*
X61890Y-41754D01*
X61946Y-41754D01*
X61984Y-41735D01*
X62003Y-41716D01*
X62321Y-41548D02*
X62190Y-41548D01*
X62190Y-41754D02*
X62190Y-41360D01*
X62378Y-41360D01*
X62809Y-41341D02*
X62471Y-41848D01*
X63146Y-41754D02*
X62921Y-41754D01*
X63034Y-41754D02*
X63034Y-41360D01*
X62996Y-41416D01*
X62959Y-41454D01*
X62921Y-41473D01*
X63390Y-41360D02*
X63428Y-41360D01*
X63465Y-41379D01*
X63484Y-41398D01*
X63503Y-41435D01*
X63521Y-41510D01*
X63521Y-41604D01*
X63503Y-41679D01*
X63484Y-41716D01*
X63465Y-41735D01*
X63428Y-41754D01*
X63390Y-41754D01*
X63353Y-41735D01*
X63334Y-41716D01*
X63315Y-41679D01*
X63296Y-41604D01*
X63296Y-41510D01*
X63315Y-41435D01*
X63334Y-41398D01*
X63353Y-41379D01*
X63390Y-41360D01*
X63634Y-41360D02*
X63765Y-41754D01*
X63896Y-41360D01*
X59730Y-37565D02*
X59711Y-37584D01*
X59655Y-37603D01*
X59617Y-37603D01*
X59561Y-37584D01*
X59524Y-37547D01*
X59505Y-37509D01*
X59486Y-37434D01*
X59486Y-37378D01*
X59505Y-37303D01*
X59524Y-37265D01*
X59561Y-37228D01*
X59617Y-37209D01*
X59655Y-37209D01*
X59711Y-37228D01*
X59730Y-37247D01*
X59880Y-37247D02*
X59899Y-37228D01*
X59936Y-37209D01*
X60030Y-37209D01*
X60067Y-37228D01*
X60086Y-37247D01*
X60105Y-37284D01*
X60105Y-37322D01*
X60086Y-37378D01*
X59861Y-37603D01*
X60105Y-37603D01*
X59779Y-35425D02*
X59554Y-35425D01*
X59667Y-35425D02*
X59667Y-35031D01*
X59629Y-35087D01*
X59592Y-35125D01*
X59554Y-35144D01*
X60117Y-35162D02*
X60117Y-35425D01*
X59948Y-35162D02*
X59948Y-35369D01*
X59967Y-35406D01*
X60004Y-35425D01*
X60060Y-35425D01*
X60098Y-35406D01*
X60117Y-35387D01*
X60435Y-35219D02*
X60304Y-35219D01*
X60304Y-35425D02*
X60304Y-35031D01*
X60492Y-35031D01*
X60923Y-35012D02*
X60585Y-35519D01*
X61260Y-35425D02*
X61035Y-35425D01*
X61148Y-35425D02*
X61148Y-35031D01*
X61110Y-35087D01*
X61073Y-35125D01*
X61035Y-35144D01*
X61504Y-35031D02*
X61542Y-35031D01*
X61579Y-35050D01*
X61598Y-35069D01*
X61617Y-35106D01*
X61635Y-35181D01*
X61635Y-35275D01*
X61617Y-35350D01*
X61598Y-35387D01*
X61579Y-35406D01*
X61542Y-35425D01*
X61504Y-35425D01*
X61467Y-35406D01*
X61448Y-35387D01*
X61429Y-35350D01*
X61410Y-35275D01*
X61410Y-35181D01*
X61429Y-35106D01*
X61448Y-35069D01*
X61467Y-35050D01*
X61504Y-35031D01*
X61748Y-35031D02*
X61879Y-35425D01*
X62010Y-35031D01*
X61974Y-40051D02*
X61955Y-40070D01*
X61899Y-40089D01*
X61861Y-40089D01*
X61805Y-40070D01*
X61768Y-40033D01*
X61749Y-39995D01*
X61730Y-39920D01*
X61730Y-39864D01*
X61749Y-39789D01*
X61768Y-39751D01*
X61805Y-39714D01*
X61861Y-39695D01*
X61899Y-39695D01*
X61955Y-39714D01*
X61974Y-39733D01*
X62349Y-40089D02*
X62124Y-40089D01*
X62236Y-40089D02*
X62236Y-39695D01*
X62199Y-39751D01*
X62161Y-39789D01*
X62124Y-39808D01*
X60813Y-39495D02*
X60588Y-39495D01*
X60701Y-39495D02*
X60701Y-39101D01*
X60663Y-39157D01*
X60626Y-39195D01*
X60588Y-39214D01*
X61151Y-39232D02*
X61151Y-39495D01*
X60982Y-39232D02*
X60982Y-39439D01*
X61001Y-39476D01*
X61038Y-39495D01*
X61094Y-39495D01*
X61132Y-39476D01*
X61151Y-39457D01*
X61469Y-39289D02*
X61338Y-39289D01*
X61338Y-39495D02*
X61338Y-39101D01*
X61526Y-39101D01*
X61957Y-39082D02*
X61619Y-39589D01*
X62294Y-39495D02*
X62069Y-39495D01*
X62182Y-39495D02*
X62182Y-39101D01*
X62144Y-39157D01*
X62107Y-39195D01*
X62069Y-39214D01*
X62538Y-39101D02*
X62576Y-39101D01*
X62613Y-39120D01*
X62632Y-39139D01*
X62651Y-39176D01*
X62669Y-39251D01*
X62669Y-39345D01*
X62651Y-39420D01*
X62632Y-39457D01*
X62613Y-39476D01*
X62576Y-39495D01*
X62538Y-39495D01*
X62501Y-39476D01*
X62482Y-39457D01*
X62463Y-39420D01*
X62444Y-39345D01*
X62444Y-39251D01*
X62463Y-39176D01*
X62482Y-39139D01*
X62501Y-39120D01*
X62538Y-39101D01*
X62782Y-39101D02*
X62913Y-39495D01*
X63044Y-39101D01*
X73952Y-48103D02*
X73934Y-48122D01*
X73877Y-48141D01*
X73840Y-48141D01*
X73784Y-48122D01*
X73746Y-48085D01*
X73727Y-48047D01*
X73709Y-47972D01*
X73709Y-47916D01*
X73727Y-47841D01*
X73746Y-47803D01*
X73784Y-47766D01*
X73840Y-47747D01*
X73877Y-47747D01*
X73934Y-47766D01*
X73952Y-47785D01*
X74327Y-48141D02*
X74102Y-48141D01*
X74215Y-48141D02*
X74215Y-47747D01*
X74177Y-47803D01*
X74140Y-47841D01*
X74102Y-47860D01*
X74665Y-47747D02*
X74590Y-47747D01*
X74552Y-47766D01*
X74534Y-47785D01*
X74496Y-47841D01*
X74477Y-47916D01*
X74477Y-48066D01*
X74496Y-48103D01*
X74515Y-48122D01*
X74552Y-48141D01*
X74627Y-48141D01*
X74665Y-48122D01*
X74684Y-48103D01*
X74702Y-48066D01*
X74702Y-47972D01*
X74684Y-47935D01*
X74665Y-47916D01*
X74627Y-47897D01*
X74552Y-47897D01*
X74515Y-47916D01*
X74496Y-47935D01*
X74477Y-47972D01*
X73904Y-47591D02*
X73679Y-47591D01*
X73792Y-47591D02*
X73792Y-47197D01*
X73754Y-47253D01*
X73717Y-47291D01*
X73679Y-47310D01*
X74148Y-47197D02*
X74185Y-47197D01*
X74223Y-47216D01*
X74242Y-47235D01*
X74260Y-47272D01*
X74279Y-47347D01*
X74279Y-47441D01*
X74260Y-47516D01*
X74242Y-47553D01*
X74223Y-47572D01*
X74185Y-47591D01*
X74148Y-47591D01*
X74110Y-47572D01*
X74092Y-47553D01*
X74073Y-47516D01*
X74054Y-47441D01*
X74054Y-47347D01*
X74073Y-47272D01*
X74092Y-47235D01*
X74110Y-47216D01*
X74148Y-47197D01*
X74523Y-47197D02*
X74560Y-47197D01*
X74598Y-47216D01*
X74617Y-47235D01*
X74635Y-47272D01*
X74654Y-47347D01*
X74654Y-47441D01*
X74635Y-47516D01*
X74617Y-47553D01*
X74598Y-47572D01*
X74560Y-47591D01*
X74523Y-47591D01*
X74485Y-47572D01*
X74467Y-47553D01*
X74448Y-47516D01*
X74429Y-47441D01*
X74429Y-47347D01*
X74448Y-47272D01*
X74467Y-47235D01*
X74485Y-47216D01*
X74523Y-47197D01*
X74823Y-47328D02*
X74823Y-47722D01*
X74823Y-47347D02*
X74860Y-47328D01*
X74935Y-47328D01*
X74973Y-47347D01*
X74992Y-47366D01*
X75010Y-47403D01*
X75010Y-47516D01*
X74992Y-47553D01*
X74973Y-47572D01*
X74935Y-47591D01*
X74860Y-47591D01*
X74823Y-47572D01*
X75310Y-47385D02*
X75179Y-47385D01*
X75179Y-47591D02*
X75179Y-47197D01*
X75367Y-47197D01*
X72104Y-41701D02*
X72086Y-41720D01*
X72029Y-41739D01*
X71992Y-41739D01*
X71936Y-41720D01*
X71898Y-41683D01*
X71879Y-41645D01*
X71861Y-41570D01*
X71861Y-41514D01*
X71879Y-41439D01*
X71898Y-41401D01*
X71936Y-41364D01*
X71992Y-41345D01*
X72029Y-41345D01*
X72086Y-41364D01*
X72104Y-41383D01*
X72479Y-41739D02*
X72254Y-41739D01*
X72367Y-41739D02*
X72367Y-41345D01*
X72329Y-41401D01*
X72292Y-41439D01*
X72254Y-41458D01*
X72611Y-41345D02*
X72873Y-41345D01*
X72704Y-41739D01*
X72123Y-42267D02*
X71898Y-42267D01*
X72011Y-42267D02*
X72011Y-41873D01*
X71973Y-41929D01*
X71936Y-41967D01*
X71898Y-41986D01*
X72292Y-42004D02*
X72292Y-42267D01*
X72292Y-42042D02*
X72311Y-42023D01*
X72348Y-42004D01*
X72404Y-42004D01*
X72442Y-42023D01*
X72461Y-42061D01*
X72461Y-42267D01*
X72779Y-42061D02*
X72648Y-42061D01*
X72648Y-42267D02*
X72648Y-41873D01*
X72836Y-41873D01*
X72016Y-48081D02*
X71998Y-48100D01*
X71941Y-48119D01*
X71904Y-48119D01*
X71848Y-48100D01*
X71810Y-48063D01*
X71791Y-48025D01*
X71773Y-47950D01*
X71773Y-47894D01*
X71791Y-47819D01*
X71810Y-47781D01*
X71848Y-47744D01*
X71904Y-47725D01*
X71941Y-47725D01*
X71998Y-47744D01*
X72016Y-47763D01*
X72391Y-48119D02*
X72166Y-48119D01*
X72279Y-48119D02*
X72279Y-47725D01*
X72241Y-47781D01*
X72204Y-47819D01*
X72166Y-47838D01*
X72729Y-47856D02*
X72729Y-48119D01*
X72635Y-47706D02*
X72541Y-47988D01*
X72785Y-47988D01*
X71946Y-47591D02*
X71721Y-47591D01*
X71834Y-47591D02*
X71834Y-47197D01*
X71796Y-47253D01*
X71759Y-47291D01*
X71721Y-47310D01*
X72190Y-47197D02*
X72227Y-47197D01*
X72265Y-47216D01*
X72284Y-47235D01*
X72302Y-47272D01*
X72321Y-47347D01*
X72321Y-47441D01*
X72302Y-47516D01*
X72284Y-47553D01*
X72265Y-47572D01*
X72227Y-47591D01*
X72190Y-47591D01*
X72152Y-47572D01*
X72134Y-47553D01*
X72115Y-47516D01*
X72096Y-47441D01*
X72096Y-47347D01*
X72115Y-47272D01*
X72134Y-47235D01*
X72152Y-47216D01*
X72190Y-47197D01*
X72565Y-47197D02*
X72602Y-47197D01*
X72640Y-47216D01*
X72659Y-47235D01*
X72677Y-47272D01*
X72696Y-47347D01*
X72696Y-47441D01*
X72677Y-47516D01*
X72659Y-47553D01*
X72640Y-47572D01*
X72602Y-47591D01*
X72565Y-47591D01*
X72527Y-47572D01*
X72509Y-47553D01*
X72490Y-47516D01*
X72471Y-47441D01*
X72471Y-47347D01*
X72490Y-47272D01*
X72509Y-47235D01*
X72527Y-47216D01*
X72565Y-47197D01*
X72865Y-47328D02*
X72865Y-47722D01*
X72865Y-47347D02*
X72902Y-47328D01*
X72977Y-47328D01*
X73015Y-47347D01*
X73034Y-47366D01*
X73052Y-47403D01*
X73052Y-47516D01*
X73034Y-47553D01*
X73015Y-47572D01*
X72977Y-47591D01*
X72902Y-47591D01*
X72865Y-47572D01*
X73352Y-47385D02*
X73221Y-47385D01*
X73221Y-47591D02*
X73221Y-47197D01*
X73409Y-47197D01*
X71412Y-44181D02*
X71281Y-43993D01*
X71187Y-44181D02*
X71187Y-43787D01*
X71337Y-43787D01*
X71374Y-43806D01*
X71393Y-43825D01*
X71412Y-43862D01*
X71412Y-43918D01*
X71393Y-43956D01*
X71374Y-43975D01*
X71337Y-43993D01*
X71187Y-43993D01*
X71562Y-43825D02*
X71581Y-43806D01*
X71618Y-43787D01*
X71712Y-43787D01*
X71749Y-43806D01*
X71768Y-43825D01*
X71787Y-43862D01*
X71787Y-43900D01*
X71768Y-43956D01*
X71543Y-44181D01*
X71787Y-44181D01*
X72074Y-43587D02*
X71849Y-43587D01*
X71962Y-43587D02*
X71962Y-43193D01*
X71924Y-43249D01*
X71887Y-43287D01*
X71849Y-43306D01*
X72318Y-43193D02*
X72355Y-43193D01*
X72393Y-43212D01*
X72412Y-43231D01*
X72430Y-43268D01*
X72449Y-43343D01*
X72449Y-43437D01*
X72430Y-43512D01*
X72412Y-43549D01*
X72393Y-43568D01*
X72355Y-43587D01*
X72318Y-43587D01*
X72280Y-43568D01*
X72262Y-43549D01*
X72243Y-43512D01*
X72224Y-43437D01*
X72224Y-43343D01*
X72243Y-43268D01*
X72262Y-43231D01*
X72280Y-43212D01*
X72318Y-43193D01*
X72693Y-43193D02*
X72730Y-43193D01*
X72768Y-43212D01*
X72787Y-43231D01*
X72805Y-43268D01*
X72824Y-43343D01*
X72824Y-43437D01*
X72805Y-43512D01*
X72787Y-43549D01*
X72768Y-43568D01*
X72730Y-43587D01*
X72693Y-43587D01*
X72655Y-43568D01*
X72637Y-43549D01*
X72618Y-43512D01*
X72599Y-43437D01*
X72599Y-43343D01*
X72618Y-43268D01*
X72637Y-43231D01*
X72655Y-43212D01*
X72693Y-43193D01*
X72993Y-43587D02*
X72993Y-43193D01*
X73218Y-43587D02*
X73049Y-43362D01*
X73218Y-43193D02*
X72993Y-43418D01*
X53226Y-38881D02*
X53226Y-39200D01*
X53244Y-39237D01*
X53263Y-39256D01*
X53301Y-39275D01*
X53376Y-39275D01*
X53413Y-39256D01*
X53432Y-39237D01*
X53451Y-39200D01*
X53451Y-38881D01*
X53619Y-38919D02*
X53638Y-38900D01*
X53675Y-38881D01*
X53769Y-38881D01*
X53807Y-38900D01*
X53825Y-38919D01*
X53844Y-38956D01*
X53844Y-38994D01*
X53825Y-39050D01*
X53600Y-39275D01*
X53844Y-39275D01*
X53438Y-38665D02*
X53420Y-38684D01*
X53363Y-38703D01*
X53326Y-38703D01*
X53270Y-38684D01*
X53232Y-38647D01*
X53214Y-38609D01*
X53195Y-38534D01*
X53195Y-38478D01*
X53214Y-38403D01*
X53232Y-38365D01*
X53270Y-38328D01*
X53326Y-38309D01*
X53363Y-38309D01*
X53420Y-38328D01*
X53438Y-38347D01*
X53682Y-38309D02*
X53720Y-38309D01*
X53757Y-38328D01*
X53776Y-38347D01*
X53795Y-38384D01*
X53813Y-38459D01*
X53813Y-38553D01*
X53795Y-38628D01*
X53776Y-38665D01*
X53757Y-38684D01*
X53720Y-38703D01*
X53682Y-38703D01*
X53645Y-38684D01*
X53626Y-38665D01*
X53607Y-38628D01*
X53588Y-38553D01*
X53588Y-38459D01*
X53607Y-38384D01*
X53626Y-38347D01*
X53645Y-38328D01*
X53682Y-38309D01*
X53963Y-38347D02*
X53982Y-38328D01*
X54020Y-38309D01*
X54113Y-38309D01*
X54151Y-38328D01*
X54170Y-38347D01*
X54188Y-38384D01*
X54188Y-38422D01*
X54170Y-38478D01*
X53945Y-38703D01*
X54188Y-38703D01*
X54413Y-38478D02*
X54376Y-38459D01*
X54357Y-38440D01*
X54338Y-38403D01*
X54338Y-38384D01*
X54357Y-38347D01*
X54376Y-38328D01*
X54413Y-38309D01*
X54488Y-38309D01*
X54526Y-38328D01*
X54545Y-38347D01*
X54563Y-38384D01*
X54563Y-38403D01*
X54545Y-38440D01*
X54526Y-38459D01*
X54488Y-38478D01*
X54413Y-38478D01*
X54376Y-38497D01*
X54357Y-38515D01*
X54338Y-38553D01*
X54338Y-38628D01*
X54357Y-38665D01*
X54376Y-38684D01*
X54413Y-38703D01*
X54488Y-38703D01*
X54526Y-38684D01*
X54545Y-38665D01*
X54563Y-38628D01*
X54563Y-38553D01*
X54545Y-38515D01*
X54526Y-38497D01*
X54488Y-38478D01*
X54695Y-38309D02*
X54938Y-38309D01*
X54807Y-38459D01*
X54863Y-38459D01*
X54901Y-38478D01*
X54920Y-38497D01*
X54938Y-38534D01*
X54938Y-38628D01*
X54920Y-38665D01*
X54901Y-38684D01*
X54863Y-38703D01*
X54751Y-38703D01*
X54713Y-38684D01*
X54695Y-38665D01*
X55369Y-38740D02*
X55332Y-38722D01*
X55294Y-38684D01*
X55238Y-38628D01*
X55201Y-38609D01*
X55163Y-38609D01*
X55182Y-38703D02*
X55145Y-38684D01*
X55107Y-38647D01*
X55088Y-38572D01*
X55088Y-38440D01*
X55107Y-38365D01*
X55145Y-38328D01*
X55182Y-38309D01*
X55257Y-38309D01*
X55294Y-38328D01*
X55332Y-38365D01*
X55351Y-38440D01*
X55351Y-38572D01*
X55332Y-38647D01*
X55294Y-38684D01*
X55257Y-38703D01*
X55182Y-38703D01*
X55726Y-38328D02*
X55688Y-38309D01*
X55632Y-38309D01*
X55576Y-38328D01*
X55538Y-38365D01*
X55519Y-38403D01*
X55501Y-38478D01*
X55501Y-38534D01*
X55519Y-38609D01*
X55538Y-38647D01*
X55576Y-38684D01*
X55632Y-38703D01*
X55669Y-38703D01*
X55726Y-38684D01*
X55744Y-38665D01*
X55744Y-38534D01*
X55669Y-38534D01*
X56101Y-38703D02*
X55913Y-38703D01*
X55913Y-38309D01*
X56232Y-38703D02*
X56232Y-38309D01*
X56326Y-38309D01*
X56382Y-38328D01*
X56419Y-38365D01*
X56438Y-38403D01*
X56457Y-38478D01*
X56457Y-38534D01*
X56438Y-38609D01*
X56419Y-38647D01*
X56382Y-38684D01*
X56326Y-38703D01*
X56232Y-38703D01*
X56626Y-38553D02*
X56926Y-38553D01*
X57057Y-38309D02*
X57282Y-38309D01*
X57169Y-38703D02*
X57169Y-38309D01*
X68790Y-51670D02*
X68790Y-51989D01*
X68808Y-52026D01*
X68827Y-52045D01*
X68865Y-52064D01*
X68940Y-52064D01*
X68977Y-52045D01*
X68996Y-52026D01*
X69015Y-51989D01*
X69015Y-51670D01*
X69408Y-52064D02*
X69183Y-52064D01*
X69296Y-52064D02*
X69296Y-51670D01*
X69258Y-51726D01*
X69221Y-51764D01*
X69183Y-51783D01*
X68722Y-51110D02*
X68947Y-51110D01*
X68834Y-51504D02*
X68834Y-51110D01*
X69209Y-51298D02*
X69078Y-51298D01*
X69078Y-51504D02*
X69078Y-51110D01*
X69265Y-51110D01*
X69359Y-51110D02*
X69584Y-51110D01*
X69471Y-51504D02*
X69471Y-51110D01*
X69621Y-51541D02*
X69921Y-51541D01*
X69978Y-51110D02*
X70221Y-51110D01*
X70090Y-51260D01*
X70146Y-51260D01*
X70184Y-51279D01*
X70203Y-51298D01*
X70221Y-51335D01*
X70221Y-51429D01*
X70203Y-51466D01*
X70184Y-51485D01*
X70146Y-51504D01*
X70034Y-51504D01*
X69996Y-51485D01*
X69978Y-51466D01*
X70353Y-51110D02*
X70615Y-51110D01*
X70446Y-51504D01*
X70765Y-51504D02*
X70765Y-51110D01*
X70915Y-51110D01*
X70953Y-51129D01*
X70971Y-51148D01*
X70990Y-51185D01*
X70990Y-51241D01*
X70971Y-51279D01*
X70953Y-51298D01*
X70915Y-51316D01*
X70765Y-51316D01*
X71159Y-51504D02*
X71159Y-51110D01*
X71346Y-51504D02*
X71346Y-51110D01*
X71571Y-51504D01*
X71571Y-51110D01*
G54D14*
X72662Y-44920D02*
X73026Y-44920D01*
X73069Y-44901D01*
X73090Y-44882D01*
X73112Y-44844D01*
X73112Y-44768D01*
X73090Y-44730D01*
X73069Y-44711D01*
X73026Y-44692D01*
X72662Y-44692D01*
X72812Y-44330D02*
X73112Y-44330D01*
X72640Y-44425D02*
X72962Y-44520D01*
X72962Y-44273D01*
X73619Y-46452D02*
X73219Y-46452D01*
X73505Y-46319D01*
X73219Y-46186D01*
X73619Y-46186D01*
X73505Y-46014D02*
X73505Y-45824D01*
X73619Y-46052D02*
X73219Y-45919D01*
X73619Y-45786D01*
X73219Y-45690D02*
X73619Y-45424D01*
X73219Y-45424D02*
X73619Y-45690D01*
X73391Y-45214D02*
X73372Y-45252D01*
X73353Y-45271D01*
X73315Y-45290D01*
X73296Y-45290D01*
X73258Y-45271D01*
X73238Y-45252D01*
X73219Y-45214D01*
X73219Y-45138D01*
X73238Y-45100D01*
X73258Y-45081D01*
X73296Y-45062D01*
X73315Y-45062D01*
X73353Y-45081D01*
X73372Y-45100D01*
X73391Y-45138D01*
X73391Y-45214D01*
X73410Y-45252D01*
X73429Y-45271D01*
X73467Y-45290D01*
X73543Y-45290D01*
X73581Y-45271D01*
X73600Y-45252D01*
X73619Y-45214D01*
X73619Y-45138D01*
X73600Y-45100D01*
X73581Y-45081D01*
X73543Y-45062D01*
X73467Y-45062D01*
X73429Y-45081D01*
X73410Y-45100D01*
X73391Y-45138D01*
X73391Y-44833D02*
X73372Y-44871D01*
X73353Y-44890D01*
X73315Y-44909D01*
X73296Y-44909D01*
X73258Y-44890D01*
X73238Y-44871D01*
X73219Y-44833D01*
X73219Y-44757D01*
X73238Y-44719D01*
X73258Y-44700D01*
X73296Y-44681D01*
X73315Y-44681D01*
X73353Y-44700D01*
X73372Y-44719D01*
X73391Y-44757D01*
X73391Y-44833D01*
X73410Y-44871D01*
X73429Y-44890D01*
X73467Y-44909D01*
X73543Y-44909D01*
X73581Y-44890D01*
X73600Y-44871D01*
X73619Y-44833D01*
X73619Y-44757D01*
X73600Y-44719D01*
X73581Y-44700D01*
X73543Y-44681D01*
X73467Y-44681D01*
X73429Y-44700D01*
X73410Y-44719D01*
X73391Y-44757D01*
X73619Y-44490D02*
X73619Y-44414D01*
X73600Y-44376D01*
X73581Y-44357D01*
X73524Y-44319D01*
X73448Y-44300D01*
X73296Y-44300D01*
X73258Y-44319D01*
X73238Y-44338D01*
X73219Y-44376D01*
X73219Y-44452D01*
X73238Y-44490D01*
X73258Y-44509D01*
X73296Y-44528D01*
X73391Y-44528D01*
X73429Y-44509D01*
X73448Y-44490D01*
X73467Y-44452D01*
X73467Y-44376D01*
X73448Y-44338D01*
X73429Y-44319D01*
X73391Y-44300D01*
G54D10*
X75306Y-44159D02*
X75175Y-43971D01*
X75081Y-44159D02*
X75081Y-43765D01*
X75231Y-43765D01*
X75268Y-43784D01*
X75287Y-43803D01*
X75306Y-43840D01*
X75306Y-43896D01*
X75287Y-43934D01*
X75268Y-43953D01*
X75231Y-43971D01*
X75081Y-43971D01*
X75437Y-43765D02*
X75681Y-43765D01*
X75550Y-43915D01*
X75606Y-43915D01*
X75643Y-43934D01*
X75662Y-43953D01*
X75681Y-43990D01*
X75681Y-44084D01*
X75662Y-44121D01*
X75643Y-44140D01*
X75606Y-44159D01*
X75493Y-44159D01*
X75456Y-44140D01*
X75437Y-44121D01*
X73988Y-43587D02*
X74063Y-43587D01*
X74101Y-43568D01*
X74119Y-43549D01*
X74157Y-43493D01*
X74176Y-43418D01*
X74176Y-43268D01*
X74157Y-43231D01*
X74138Y-43212D01*
X74101Y-43193D01*
X74026Y-43193D01*
X73988Y-43212D01*
X73969Y-43231D01*
X73951Y-43268D01*
X73951Y-43362D01*
X73969Y-43399D01*
X73988Y-43418D01*
X74026Y-43437D01*
X74101Y-43437D01*
X74138Y-43418D01*
X74157Y-43399D01*
X74176Y-43362D01*
X74401Y-43362D02*
X74363Y-43343D01*
X74344Y-43324D01*
X74326Y-43287D01*
X74326Y-43268D01*
X74344Y-43231D01*
X74363Y-43212D01*
X74401Y-43193D01*
X74476Y-43193D01*
X74513Y-43212D01*
X74532Y-43231D01*
X74551Y-43268D01*
X74551Y-43287D01*
X74532Y-43324D01*
X74513Y-43343D01*
X74476Y-43362D01*
X74401Y-43362D01*
X74363Y-43381D01*
X74344Y-43399D01*
X74326Y-43437D01*
X74326Y-43512D01*
X74344Y-43549D01*
X74363Y-43568D01*
X74401Y-43587D01*
X74476Y-43587D01*
X74513Y-43568D01*
X74532Y-43549D01*
X74551Y-43512D01*
X74551Y-43437D01*
X74532Y-43399D01*
X74513Y-43381D01*
X74476Y-43362D01*
X74719Y-43587D02*
X74719Y-43193D01*
X74944Y-43587D02*
X74776Y-43362D01*
X74944Y-43193D02*
X74719Y-43418D01*
G54D14*
X73168Y-39178D02*
X73532Y-39178D01*
X73575Y-39159D01*
X73596Y-39140D01*
X73618Y-39102D01*
X73618Y-39026D01*
X73596Y-38988D01*
X73575Y-38969D01*
X73532Y-38950D01*
X73168Y-38950D01*
X73168Y-38797D02*
X73168Y-38550D01*
X73339Y-38683D01*
X73339Y-38626D01*
X73361Y-38588D01*
X73382Y-38569D01*
X73425Y-38550D01*
X73532Y-38550D01*
X73575Y-38569D01*
X73596Y-38588D01*
X73618Y-38626D01*
X73618Y-38740D01*
X73596Y-38778D01*
X73575Y-38797D01*
X74169Y-41203D02*
X73769Y-41203D01*
X74055Y-41069D01*
X73769Y-40936D01*
X74169Y-40936D01*
X74131Y-40517D02*
X74150Y-40536D01*
X74169Y-40593D01*
X74169Y-40631D01*
X74150Y-40688D01*
X74112Y-40727D01*
X74074Y-40746D01*
X73998Y-40765D01*
X73941Y-40765D01*
X73865Y-40746D01*
X73827Y-40727D01*
X73788Y-40688D01*
X73769Y-40631D01*
X73769Y-40593D01*
X73788Y-40536D01*
X73808Y-40517D01*
X74169Y-40346D02*
X73769Y-40346D01*
X73769Y-40193D01*
X73788Y-40155D01*
X73808Y-40136D01*
X73846Y-40117D01*
X73903Y-40117D01*
X73941Y-40136D01*
X73960Y-40155D01*
X73979Y-40193D01*
X73979Y-40346D01*
X74169Y-39736D02*
X74169Y-39965D01*
X74169Y-39850D02*
X73769Y-39850D01*
X73827Y-39888D01*
X73865Y-39927D01*
X73884Y-39965D01*
X73769Y-39603D02*
X73769Y-39336D01*
X74169Y-39507D01*
X73808Y-39203D02*
X73788Y-39184D01*
X73769Y-39146D01*
X73769Y-39050D01*
X73788Y-39012D01*
X73808Y-38993D01*
X73846Y-38974D01*
X73884Y-38974D01*
X73941Y-38993D01*
X74169Y-39222D01*
X74169Y-38974D01*
X73769Y-38841D02*
X73769Y-38574D01*
X74169Y-38746D01*
M02*
