G04 (created by PCBNEW (22-Jun-2014 BZR 4027)-stable) date Sun 04 Dec 2016 05:28:58 PM CST*
%MOIN*%
G04 Gerber Fmt 3.4, Leading zero omitted, Abs format*
%FSLAX34Y34*%
G01*
G70*
G90*
G04 APERTURE LIST*
%ADD10C,0.00590551*%
%ADD11R,0.0472441X0.0295276*%
%ADD12R,0.0295276X0.0472441*%
%ADD13R,0.00984252X0.0984252*%
%ADD14R,0.11811X0.0275591*%
%ADD15R,0.045X0.02*%
%ADD16C,0.035*%
%ADD17C,0.01*%
G04 APERTURE END LIST*
G54D10*
G54D11*
X60235Y-42306D03*
X60984Y-42306D03*
X73845Y-38175D03*
X74594Y-38175D03*
G54D12*
X52470Y-39165D03*
X52470Y-39914D03*
X52480Y-38444D03*
X52480Y-37695D03*
G54D11*
X53244Y-36500D03*
X52495Y-36500D03*
X53234Y-40950D03*
X52485Y-40950D03*
X59369Y-43875D03*
X58620Y-43875D03*
X60960Y-43485D03*
X61709Y-43485D03*
G54D12*
X58850Y-36704D03*
X58850Y-35955D03*
G54D11*
X59849Y-43110D03*
X59100Y-43110D03*
X63055Y-35640D03*
X63804Y-35640D03*
G54D12*
X75330Y-38924D03*
X75330Y-38175D03*
G54D11*
X60255Y-41670D03*
X61004Y-41670D03*
G54D12*
X59790Y-35970D03*
X59790Y-36719D03*
X61320Y-40649D03*
X61320Y-39900D03*
G54D11*
X74644Y-46800D03*
X73895Y-46800D03*
X72854Y-40995D03*
X72105Y-40995D03*
X72953Y-46792D03*
X72204Y-46792D03*
X72200Y-43965D03*
X72949Y-43965D03*
G54D13*
X56292Y-39941D03*
X56528Y-39941D03*
X56055Y-39941D03*
X55819Y-39941D03*
X54874Y-39941D03*
X55111Y-39941D03*
X55583Y-39941D03*
X55347Y-39941D03*
X53457Y-39941D03*
X53693Y-39941D03*
X53929Y-39941D03*
X54166Y-39941D03*
X54638Y-39941D03*
X54402Y-39941D03*
X58181Y-39941D03*
X58418Y-39941D03*
X57945Y-39941D03*
X57709Y-39941D03*
X56764Y-39941D03*
X57000Y-39941D03*
X57473Y-39941D03*
X57237Y-39941D03*
X59126Y-39941D03*
X59362Y-39941D03*
X58890Y-39941D03*
X58654Y-39941D03*
X59599Y-39941D03*
X59835Y-39941D03*
X56410Y-37776D03*
X56646Y-37776D03*
X56174Y-37776D03*
X55937Y-37776D03*
X54992Y-37776D03*
X55229Y-37776D03*
X55701Y-37776D03*
X55465Y-37776D03*
X53575Y-37776D03*
X53811Y-37776D03*
X53339Y-37776D03*
X54048Y-37776D03*
X54284Y-37776D03*
X54756Y-37776D03*
X54520Y-37776D03*
X58300Y-37776D03*
X58536Y-37776D03*
X58063Y-37776D03*
X57827Y-37776D03*
X56882Y-37776D03*
X57118Y-37776D03*
X57591Y-37776D03*
X57355Y-37776D03*
X59244Y-37776D03*
X59481Y-37776D03*
X59008Y-37776D03*
X58772Y-37776D03*
X59717Y-37776D03*
X59953Y-37776D03*
X60425Y-37776D03*
X60189Y-37776D03*
X60307Y-39941D03*
X60071Y-39941D03*
G54D14*
X67982Y-44015D03*
X67982Y-44412D03*
X67982Y-43617D03*
X67982Y-43220D03*
X67982Y-41629D03*
X67982Y-42027D03*
X67982Y-42822D03*
X67982Y-42424D03*
X67982Y-39243D03*
X67982Y-39641D03*
X67982Y-38846D03*
X67982Y-38448D03*
X67982Y-40038D03*
X67982Y-40436D03*
X67982Y-41231D03*
X67982Y-40834D03*
X67982Y-36857D03*
X67982Y-37255D03*
X67982Y-38050D03*
X67982Y-37653D03*
X67982Y-45605D03*
X67982Y-46003D03*
X67982Y-45208D03*
X67982Y-44810D03*
X67982Y-48787D03*
X67982Y-49184D03*
X67982Y-48389D03*
X67982Y-47991D03*
X67982Y-46401D03*
X67982Y-46798D03*
X67982Y-47594D03*
X67982Y-47196D03*
X67982Y-50377D03*
X67982Y-50775D03*
X67982Y-49979D03*
X67982Y-49582D03*
X67982Y-51172D03*
X67982Y-51570D03*
X67982Y-52365D03*
X67982Y-51968D03*
G54D15*
X74687Y-44656D03*
X74687Y-45156D03*
X74687Y-45656D03*
X74687Y-46156D03*
X72187Y-46156D03*
X72187Y-45656D03*
X72187Y-45156D03*
X72187Y-44656D03*
G54D11*
X73925Y-43965D03*
X74674Y-43965D03*
G54D15*
X74598Y-38850D03*
X74598Y-39350D03*
X74598Y-39850D03*
X74598Y-40350D03*
X72098Y-40350D03*
X72098Y-39850D03*
X72098Y-39350D03*
X72098Y-38850D03*
G54D16*
X72735Y-36435D03*
X72735Y-42870D03*
X71520Y-38850D03*
X71520Y-35660D03*
X58168Y-49148D03*
X58168Y-44858D03*
X54990Y-38890D03*
X55420Y-46000D03*
X63840Y-45990D03*
X63840Y-44820D03*
X56190Y-34905D03*
X66555Y-36870D03*
X55790Y-42340D03*
X59164Y-44464D03*
X56950Y-44500D03*
X56950Y-46360D03*
X68936Y-46802D03*
X57450Y-36110D03*
X57330Y-47190D03*
X57330Y-44880D03*
X68929Y-47593D03*
X57720Y-36510D03*
X57700Y-47970D03*
X57700Y-45180D03*
X68929Y-48384D03*
X57960Y-36927D03*
X56370Y-35380D03*
X63405Y-35190D03*
X72060Y-35230D03*
X72060Y-37680D03*
X55815Y-42885D03*
X58793Y-44905D03*
X59550Y-45210D03*
X56430Y-38890D03*
X55830Y-43400D03*
X55830Y-50370D03*
X68960Y-50780D03*
X70090Y-48800D03*
X70090Y-45630D03*
X56610Y-36890D03*
X56230Y-43770D03*
X56230Y-51140D03*
X56620Y-44080D03*
X56620Y-45600D03*
X68970Y-45980D03*
X57120Y-35710D03*
X58310Y-36435D03*
X62520Y-43530D03*
X63915Y-38625D03*
X52480Y-37060D03*
X52480Y-41600D03*
X61305Y-36840D03*
X62535Y-49740D03*
X61810Y-42301D03*
X59955Y-38605D03*
X61313Y-38605D03*
X73935Y-46170D03*
X73935Y-44660D03*
X58650Y-39080D03*
X59928Y-43912D03*
X60310Y-39080D03*
X60310Y-43100D03*
X64490Y-35640D03*
X64490Y-36850D03*
X62450Y-36840D03*
X62450Y-35680D03*
X61930Y-35700D03*
X61920Y-36840D03*
X53234Y-41564D03*
X53220Y-42370D03*
X65300Y-48400D03*
X65300Y-44820D03*
X64320Y-44835D03*
X64320Y-46770D03*
X54760Y-36890D03*
X54020Y-46780D03*
X54530Y-38900D03*
X54547Y-48787D03*
X64800Y-47580D03*
X64800Y-44820D03*
X54992Y-45633D03*
X54992Y-47586D03*
G54D17*
X60732Y-36680D02*
X60732Y-36519D01*
X60960Y-36435D02*
X72735Y-36435D01*
X72735Y-42870D02*
X72750Y-42885D01*
X72750Y-42885D02*
X74490Y-42885D01*
X74490Y-42885D02*
X74674Y-43069D01*
X60816Y-36435D02*
X60960Y-36435D01*
X60732Y-36519D02*
X60816Y-36435D01*
X60732Y-39195D02*
X60732Y-36680D01*
X60732Y-36680D02*
X60732Y-36663D01*
X74674Y-43069D02*
X74674Y-43965D01*
X74674Y-43965D02*
X74674Y-43069D01*
X60575Y-39941D02*
X60307Y-39941D01*
X60732Y-39785D02*
X60575Y-39941D01*
X60732Y-39546D02*
X60732Y-39785D01*
X60732Y-39128D02*
X60732Y-39195D01*
X60732Y-39195D02*
X60732Y-39546D01*
X74674Y-43069D02*
X74670Y-43065D01*
X74674Y-43965D02*
X75155Y-43965D01*
X75154Y-46156D02*
X74687Y-46156D01*
X75240Y-46070D02*
X75154Y-46156D01*
X75240Y-44050D02*
X75240Y-46070D01*
X75155Y-43965D02*
X75240Y-44050D01*
X74687Y-46156D02*
X74687Y-46757D01*
X74687Y-46757D02*
X74644Y-46800D01*
X54166Y-41308D02*
X54166Y-41823D01*
X54166Y-39941D02*
X54166Y-41308D01*
X52830Y-42030D02*
X52830Y-42710D01*
X52930Y-41930D02*
X52830Y-42030D01*
X54060Y-41930D02*
X52930Y-41930D01*
X54166Y-41823D02*
X54060Y-41930D01*
X60189Y-37776D02*
X60189Y-36130D01*
X71520Y-38850D02*
X72098Y-38850D01*
X69230Y-35660D02*
X71520Y-35660D01*
X68870Y-36020D02*
X69230Y-35660D01*
X60300Y-36020D02*
X68870Y-36020D01*
X60189Y-36130D02*
X60300Y-36020D01*
X67982Y-49184D02*
X67982Y-49582D01*
X58181Y-39941D02*
X58181Y-44844D01*
X58181Y-44844D02*
X58168Y-44858D01*
X58168Y-49148D02*
X58168Y-49170D01*
X58168Y-49170D02*
X58168Y-49148D01*
X58168Y-49148D02*
X58168Y-49170D01*
X52960Y-49120D02*
X53010Y-49170D01*
X53010Y-49170D02*
X58168Y-49170D01*
X58168Y-49170D02*
X67968Y-49170D01*
X67968Y-49170D02*
X67982Y-49184D01*
X52830Y-44955D02*
X52830Y-48990D01*
X52830Y-48990D02*
X52960Y-49120D01*
X52830Y-42645D02*
X52830Y-42710D01*
X52830Y-42710D02*
X52830Y-44955D01*
X67982Y-49184D02*
X70980Y-49184D01*
X71100Y-49065D02*
X71100Y-38846D01*
X70980Y-49184D02*
X71100Y-49065D01*
X72098Y-38850D02*
X72098Y-39350D01*
X67982Y-38846D02*
X71100Y-38846D01*
X71100Y-38846D02*
X72094Y-38846D01*
X72094Y-38846D02*
X72098Y-38850D01*
X72098Y-38850D02*
X72098Y-39850D01*
X69104Y-36134D02*
X69104Y-36116D01*
X74594Y-36204D02*
X74594Y-38175D01*
X74420Y-36030D02*
X74594Y-36204D01*
X69190Y-36030D02*
X74420Y-36030D01*
X69104Y-36116D02*
X69190Y-36030D01*
X60425Y-36477D02*
X60425Y-36342D01*
X69006Y-36232D02*
X69104Y-36134D01*
X69104Y-36134D02*
X69118Y-36120D01*
X60536Y-36232D02*
X69006Y-36232D01*
X60425Y-36342D02*
X60536Y-36232D01*
X60425Y-37776D02*
X60425Y-36477D01*
X60425Y-36477D02*
X60425Y-36459D01*
X72187Y-44656D02*
X72187Y-43978D01*
X75807Y-38175D02*
X75330Y-38175D01*
X75901Y-38269D02*
X75807Y-38175D01*
X75901Y-41557D02*
X75901Y-38269D01*
X75756Y-41702D02*
X75901Y-41557D01*
X74987Y-41702D02*
X75756Y-41702D01*
X74985Y-41700D02*
X74987Y-41702D01*
X72270Y-41700D02*
X74985Y-41700D01*
X72165Y-41805D02*
X72270Y-41700D01*
X72165Y-43956D02*
X72165Y-41805D01*
X72187Y-43978D02*
X72165Y-43956D01*
X74687Y-45656D02*
X73331Y-45656D01*
X73101Y-44656D02*
X72187Y-44656D01*
X73245Y-44800D02*
X73101Y-44656D01*
X73245Y-45570D02*
X73245Y-44800D01*
X73331Y-45656D02*
X73245Y-45570D01*
X74598Y-39350D02*
X74598Y-38850D01*
X74598Y-38850D02*
X74594Y-38846D01*
X74594Y-38846D02*
X74594Y-38175D01*
X74594Y-38175D02*
X74595Y-38175D01*
X74595Y-38175D02*
X75330Y-38175D01*
X54992Y-38887D02*
X54990Y-38890D01*
X54992Y-37776D02*
X54992Y-38887D01*
X55420Y-46000D02*
X55420Y-45990D01*
X55420Y-45990D02*
X55420Y-46000D01*
X55420Y-46000D02*
X55420Y-45990D01*
X55420Y-45990D02*
X56760Y-45990D01*
X67982Y-39243D02*
X64001Y-39243D01*
X63840Y-45990D02*
X56760Y-45990D01*
X63840Y-39405D02*
X63840Y-44820D01*
X64001Y-39243D02*
X63840Y-39405D01*
X55937Y-35170D02*
X55937Y-35062D01*
X56095Y-34905D02*
X56190Y-34905D01*
X55937Y-35062D02*
X56095Y-34905D01*
X55937Y-36627D02*
X55937Y-37776D01*
X55937Y-36627D02*
X55937Y-35170D01*
X55937Y-35170D02*
X55937Y-35157D01*
X66567Y-36857D02*
X67982Y-36857D01*
X66555Y-36870D02*
X66567Y-36857D01*
X56055Y-42074D02*
X56055Y-42252D01*
X56055Y-39941D02*
X56055Y-42074D01*
X59164Y-44464D02*
X59175Y-44475D01*
X59175Y-44475D02*
X63075Y-44475D01*
X63075Y-44475D02*
X63260Y-44290D01*
X63260Y-44290D02*
X63260Y-37370D01*
X63260Y-37370D02*
X63374Y-37255D01*
X63374Y-37255D02*
X67982Y-37255D01*
X55968Y-42340D02*
X55790Y-42340D01*
X56055Y-42252D02*
X55968Y-42340D01*
X57237Y-44163D02*
X57237Y-44374D01*
X56950Y-46360D02*
X56991Y-46401D01*
X56991Y-46401D02*
X57298Y-46401D01*
X57112Y-44500D02*
X56950Y-44500D01*
X57237Y-44374D02*
X57112Y-44500D01*
X57237Y-39941D02*
X57237Y-44163D01*
X57237Y-44163D02*
X57237Y-44212D01*
X67982Y-46401D02*
X57340Y-46401D01*
X57340Y-46401D02*
X57261Y-46401D01*
X68936Y-46802D02*
X68932Y-46798D01*
X68932Y-46798D02*
X67982Y-46798D01*
X57355Y-36169D02*
X57390Y-36169D01*
X57355Y-37776D02*
X57355Y-36169D01*
X57390Y-36169D02*
X57450Y-36110D01*
X57473Y-39941D02*
X57473Y-44736D01*
X57336Y-47196D02*
X57516Y-47196D01*
X57330Y-47190D02*
X57336Y-47196D01*
X57473Y-44736D02*
X57330Y-44880D01*
X67982Y-47196D02*
X57516Y-47196D01*
X68929Y-47593D02*
X68927Y-47594D01*
X68927Y-47594D02*
X67982Y-47594D01*
X57680Y-36550D02*
X57680Y-36580D01*
X57720Y-36510D02*
X57680Y-36550D01*
X57591Y-37776D02*
X57591Y-36608D01*
X57709Y-39941D02*
X57709Y-45170D01*
X57721Y-47991D02*
X57726Y-47991D01*
X57700Y-47970D02*
X57721Y-47991D01*
X57709Y-45170D02*
X57700Y-45180D01*
X67982Y-47991D02*
X57726Y-47991D01*
X57726Y-47991D02*
X57690Y-47955D01*
X67982Y-48389D02*
X68923Y-48389D01*
X68929Y-48384D02*
X68923Y-48389D01*
X57828Y-37058D02*
X57828Y-37775D01*
X57828Y-37775D02*
X57827Y-37776D01*
X57827Y-37059D02*
X57828Y-37058D01*
X57828Y-37058D02*
X57960Y-36927D01*
X56174Y-36860D02*
X56174Y-35575D01*
X72060Y-35230D02*
X63445Y-35230D01*
X63445Y-35230D02*
X63405Y-35190D01*
X72060Y-37680D02*
X72033Y-37653D01*
X72033Y-37653D02*
X67982Y-37653D01*
X56174Y-35575D02*
X56370Y-35380D01*
X56174Y-36840D02*
X56174Y-36860D01*
X56174Y-36860D02*
X56174Y-37776D01*
X56292Y-42371D02*
X56292Y-42778D01*
X58793Y-44905D02*
X58856Y-44842D01*
X58856Y-44842D02*
X63231Y-44842D01*
X63231Y-44842D02*
X63546Y-44527D01*
X63546Y-44527D02*
X63546Y-38164D01*
X63546Y-38164D02*
X63659Y-38050D01*
X63659Y-38050D02*
X67982Y-38050D01*
X55839Y-42861D02*
X55815Y-42885D01*
X56210Y-42861D02*
X55839Y-42861D01*
X56292Y-42778D02*
X56210Y-42861D01*
X56292Y-42407D02*
X56292Y-42371D01*
X56292Y-42371D02*
X56292Y-39941D01*
X56410Y-37776D02*
X56410Y-38859D01*
X59550Y-45210D02*
X59551Y-45208D01*
X59551Y-45208D02*
X67982Y-45208D01*
X56430Y-38879D02*
X56430Y-38890D01*
X56410Y-38859D02*
X56430Y-38879D01*
X56528Y-42701D02*
X56528Y-43319D01*
X55830Y-50370D02*
X55837Y-50377D01*
X55837Y-50377D02*
X56602Y-50377D01*
X56602Y-50377D02*
X56610Y-50370D01*
X56610Y-50377D02*
X56610Y-50370D01*
X56528Y-42701D02*
X56528Y-39941D01*
X56448Y-43400D02*
X55830Y-43400D01*
X56528Y-43319D02*
X56448Y-43400D01*
X67982Y-50377D02*
X56610Y-50377D01*
X56610Y-50377D02*
X56527Y-50377D01*
X56527Y-50377D02*
X56520Y-50370D01*
X68955Y-50775D02*
X67982Y-50775D01*
X68960Y-50780D02*
X68955Y-50775D01*
X70090Y-45630D02*
X70090Y-48800D01*
X56646Y-37023D02*
X56646Y-36926D01*
X56646Y-37023D02*
X56646Y-37776D01*
X56646Y-36926D02*
X56610Y-36890D01*
X56764Y-43235D02*
X56764Y-43678D01*
X56230Y-51140D02*
X56262Y-51172D01*
X57017Y-51172D02*
X56262Y-51172D01*
X56764Y-43235D02*
X56764Y-39941D01*
X56673Y-43770D02*
X56230Y-43770D01*
X56764Y-43678D02*
X56673Y-43770D01*
X67982Y-51172D02*
X57050Y-51172D01*
X57050Y-51172D02*
X56827Y-51172D01*
X57000Y-43699D02*
X57000Y-43981D01*
X56620Y-45600D02*
X56625Y-45605D01*
X57164Y-45605D02*
X56625Y-45605D01*
X57000Y-43699D02*
X57000Y-39941D01*
X56902Y-44080D02*
X56620Y-44080D01*
X57000Y-43981D02*
X56902Y-44080D01*
X67982Y-45605D02*
X57170Y-45605D01*
X57170Y-45605D02*
X57050Y-45605D01*
X68946Y-46003D02*
X67982Y-46003D01*
X68970Y-45980D02*
X68946Y-46003D01*
X57118Y-35711D02*
X57118Y-37776D01*
X57120Y-35710D02*
X57118Y-35711D01*
X72098Y-40350D02*
X72532Y-40350D01*
X72681Y-40201D02*
X72681Y-38448D01*
X72532Y-40350D02*
X72681Y-40201D01*
X72730Y-38448D02*
X72681Y-38448D01*
X72681Y-38448D02*
X72861Y-38448D01*
X73572Y-38448D02*
X73845Y-38175D01*
X72861Y-38448D02*
X73572Y-38448D01*
X61709Y-43485D02*
X62475Y-43485D01*
X62475Y-43485D02*
X62520Y-43530D01*
X63915Y-38625D02*
X65520Y-38625D01*
X65696Y-38448D02*
X67982Y-38448D01*
X65520Y-38625D02*
X65696Y-38448D01*
X52480Y-37060D02*
X52480Y-36515D01*
X52480Y-36515D02*
X52495Y-36500D01*
X52480Y-41600D02*
X52485Y-41600D01*
X52485Y-41600D02*
X52480Y-41600D01*
X52480Y-41600D02*
X52485Y-41600D01*
X61305Y-36885D02*
X61313Y-36885D01*
X61313Y-36877D02*
X61305Y-36885D01*
X61313Y-36848D02*
X61313Y-36877D01*
X61305Y-36840D02*
X61313Y-36848D01*
X61313Y-36742D02*
X61313Y-36885D01*
X61320Y-36735D02*
X61313Y-36742D01*
X61313Y-36885D02*
X61313Y-38605D01*
X52485Y-40950D02*
X52485Y-41600D01*
X52485Y-41600D02*
X52485Y-49530D01*
X52485Y-49530D02*
X52695Y-49740D01*
X62535Y-49740D02*
X52695Y-49740D01*
X57945Y-39941D02*
X57945Y-39054D01*
X58300Y-38700D02*
X58300Y-37776D01*
X57945Y-39054D02*
X58300Y-38700D01*
X58063Y-37776D02*
X58300Y-37776D01*
X58300Y-37776D02*
X58310Y-37766D01*
X58310Y-37766D02*
X58310Y-36435D01*
X58310Y-36435D02*
X58310Y-36040D01*
X58394Y-35955D02*
X58850Y-35955D01*
X58310Y-36040D02*
X58394Y-35955D01*
X61805Y-42306D02*
X60984Y-42306D01*
X61810Y-42301D02*
X61805Y-42306D01*
X59953Y-37776D02*
X59953Y-38603D01*
X59953Y-38603D02*
X59955Y-38605D01*
X61320Y-38612D02*
X61320Y-39900D01*
X61313Y-38605D02*
X61320Y-38612D01*
X72187Y-45656D02*
X71584Y-45656D01*
X71584Y-45656D02*
X71512Y-45584D01*
X72105Y-40995D02*
X71600Y-40995D01*
X71512Y-48489D02*
X71520Y-48489D01*
X71512Y-41083D02*
X71512Y-45584D01*
X71512Y-45584D02*
X71512Y-48489D01*
X71600Y-40995D02*
X71512Y-41083D01*
X73895Y-46800D02*
X73895Y-47394D01*
X71520Y-47490D02*
X71520Y-48489D01*
X73895Y-47394D02*
X73800Y-47490D01*
X73800Y-47490D02*
X71520Y-47490D01*
X71400Y-49979D02*
X67982Y-49979D01*
X71520Y-49860D02*
X71400Y-49979D01*
X71520Y-48489D02*
X71520Y-49860D01*
X74687Y-44656D02*
X73939Y-44656D01*
X73895Y-46209D02*
X73895Y-46800D01*
X73935Y-46170D02*
X73895Y-46209D01*
X73939Y-44656D02*
X73935Y-44660D01*
X67982Y-38448D02*
X72730Y-38448D01*
X72730Y-38448D02*
X72743Y-38448D01*
X72098Y-40350D02*
X72098Y-40987D01*
X72098Y-40987D02*
X72105Y-40995D01*
X53811Y-37776D02*
X53811Y-37141D01*
X53730Y-37060D02*
X52480Y-37060D01*
X53811Y-37141D02*
X53730Y-37060D01*
X52480Y-37695D02*
X52480Y-37060D01*
X52485Y-40950D02*
X52485Y-39930D01*
X52485Y-39930D02*
X52470Y-39914D01*
X58654Y-39941D02*
X58654Y-43384D01*
X58770Y-43500D02*
X60842Y-43500D01*
X58654Y-43384D02*
X58770Y-43500D01*
X59180Y-43890D02*
X59906Y-43890D01*
X58536Y-38966D02*
X58536Y-37776D01*
X58650Y-39080D02*
X58536Y-38966D01*
X59906Y-43890D02*
X59928Y-43912D01*
X58772Y-37776D02*
X58772Y-36781D01*
X58772Y-36781D02*
X58850Y-36704D01*
X58890Y-39941D02*
X58890Y-43072D01*
X58890Y-43072D02*
X58959Y-43142D01*
X59708Y-43142D02*
X60268Y-43142D01*
X59008Y-39014D02*
X59008Y-37776D01*
X59072Y-39078D02*
X59008Y-39014D01*
X59218Y-39078D02*
X59072Y-39078D01*
X59220Y-39080D02*
X59218Y-39078D01*
X60310Y-39080D02*
X59220Y-39080D01*
X60268Y-43142D02*
X60310Y-43100D01*
X59244Y-37776D02*
X59244Y-35465D01*
X63055Y-35315D02*
X63055Y-35640D01*
X62790Y-35050D02*
X63055Y-35315D01*
X59660Y-35050D02*
X62790Y-35050D01*
X59244Y-35465D02*
X59660Y-35050D01*
X53929Y-39941D02*
X53929Y-39279D01*
X53815Y-39165D02*
X52470Y-39165D01*
X53929Y-39279D02*
X53815Y-39165D01*
X54048Y-37776D02*
X54048Y-38471D01*
X52605Y-38570D02*
X52480Y-38444D01*
X53950Y-38570D02*
X52605Y-38570D01*
X54048Y-38471D02*
X53950Y-38570D01*
X72854Y-40995D02*
X72854Y-40496D01*
X73501Y-39850D02*
X74598Y-39850D01*
X72854Y-40496D02*
X73501Y-39850D01*
X72187Y-45156D02*
X72851Y-45156D01*
X72953Y-45258D02*
X72953Y-46792D01*
X72851Y-45156D02*
X72953Y-45258D01*
X74687Y-45156D02*
X73591Y-45156D01*
X73505Y-45070D02*
X73505Y-43965D01*
X73591Y-45156D02*
X73505Y-45070D01*
X73925Y-43965D02*
X73505Y-43965D01*
X73505Y-43965D02*
X72949Y-43965D01*
X72187Y-46156D02*
X72187Y-46774D01*
X72187Y-46774D02*
X72204Y-46792D01*
X54284Y-37776D02*
X54284Y-36584D01*
X54200Y-36500D02*
X53244Y-36500D01*
X54284Y-36584D02*
X54200Y-36500D01*
X75330Y-38924D02*
X75330Y-40222D01*
X75202Y-40350D02*
X74598Y-40350D01*
X75330Y-40222D02*
X75202Y-40350D01*
X59717Y-37776D02*
X59717Y-36791D01*
X59717Y-36791D02*
X59790Y-36719D01*
X63266Y-36855D02*
X64485Y-36855D01*
X64490Y-35640D02*
X63804Y-35640D01*
X64485Y-36855D02*
X64490Y-36850D01*
X62860Y-37121D02*
X62860Y-36939D01*
X63266Y-36855D02*
X63266Y-36850D01*
X62944Y-36855D02*
X63266Y-36855D01*
X62860Y-36939D02*
X62944Y-36855D01*
X63120Y-36850D02*
X63266Y-36850D01*
X59126Y-42546D02*
X59126Y-39941D01*
X59250Y-42670D02*
X59126Y-42546D01*
X62710Y-42670D02*
X59250Y-42670D01*
X62860Y-42520D02*
X62710Y-42670D01*
X62860Y-37110D02*
X62860Y-37121D01*
X62860Y-37121D02*
X62860Y-42520D01*
X59362Y-39941D02*
X59362Y-42127D01*
X59541Y-42306D02*
X60235Y-42306D01*
X59362Y-42127D02*
X59541Y-42306D01*
X62120Y-35350D02*
X62310Y-35350D01*
X59481Y-35628D02*
X59760Y-35350D01*
X59760Y-35350D02*
X62120Y-35350D01*
X59481Y-35628D02*
X59481Y-37776D01*
X62450Y-35490D02*
X62450Y-35680D01*
X62310Y-35350D02*
X62450Y-35490D01*
X62450Y-36840D02*
X62450Y-41490D01*
X62270Y-41670D02*
X61004Y-41670D01*
X62450Y-41490D02*
X62270Y-41670D01*
X62500Y-36890D02*
X62500Y-36910D01*
X62450Y-36840D02*
X62500Y-36890D01*
X59790Y-35970D02*
X59790Y-35940D01*
X60030Y-35700D02*
X61930Y-35700D01*
X59790Y-35940D02*
X60030Y-35700D01*
X61920Y-36840D02*
X61920Y-41100D01*
X59835Y-39941D02*
X59835Y-41085D01*
X59970Y-41220D02*
X59835Y-41085D01*
X61800Y-41220D02*
X59970Y-41220D01*
X61920Y-41100D02*
X61800Y-41220D01*
X58418Y-39941D02*
X58418Y-43876D01*
X58418Y-43876D02*
X58431Y-43890D01*
X53234Y-40950D02*
X53234Y-41564D01*
X54400Y-41620D02*
X54402Y-41620D01*
X54400Y-42290D02*
X54400Y-41620D01*
X54320Y-42370D02*
X54400Y-42290D01*
X53220Y-42370D02*
X54320Y-42370D01*
X54402Y-39941D02*
X54402Y-41620D01*
X54402Y-41620D02*
X54402Y-41732D01*
X59599Y-39941D02*
X59599Y-41588D01*
X59681Y-41670D02*
X60255Y-41670D01*
X59599Y-41588D02*
X59681Y-41670D01*
X60071Y-39941D02*
X60071Y-40548D01*
X60172Y-40649D02*
X61320Y-40649D01*
X60071Y-40548D02*
X60172Y-40649D01*
X55460Y-48375D02*
X53296Y-48375D01*
X65300Y-48375D02*
X55460Y-48375D01*
X54638Y-42898D02*
X54550Y-42987D01*
X54550Y-42987D02*
X53305Y-42987D01*
X53305Y-42987D02*
X53200Y-43092D01*
X53200Y-43092D02*
X53200Y-48279D01*
X53200Y-48279D02*
X53284Y-48363D01*
X54638Y-42898D02*
X54638Y-39941D01*
X53296Y-48375D02*
X53284Y-48363D01*
X65850Y-40436D02*
X65413Y-40436D01*
X65300Y-40550D02*
X65300Y-44820D01*
X65413Y-40436D02*
X65300Y-40550D01*
X65300Y-48400D02*
X65300Y-48375D01*
X65300Y-48375D02*
X65300Y-48400D01*
X65300Y-48400D02*
X65300Y-48375D01*
X67982Y-40436D02*
X65850Y-40436D01*
X65850Y-40436D02*
X65808Y-40436D01*
X64480Y-39641D02*
X64448Y-39641D01*
X64320Y-46770D02*
X55190Y-46770D01*
X64320Y-39770D02*
X64320Y-44835D01*
X64448Y-39641D02*
X64320Y-39770D01*
X54760Y-36890D02*
X54756Y-36893D01*
X54756Y-36893D02*
X54756Y-37776D01*
X55190Y-46770D02*
X55190Y-46780D01*
X55180Y-46770D02*
X55190Y-46780D01*
X54030Y-46770D02*
X55180Y-46770D01*
X54020Y-46780D02*
X54030Y-46770D01*
X67982Y-39641D02*
X64480Y-39641D01*
X64480Y-39641D02*
X64473Y-39641D01*
X55190Y-46770D02*
X54840Y-46770D01*
X54520Y-37776D02*
X54520Y-38740D01*
X54530Y-38750D02*
X54530Y-38900D01*
X54520Y-38740D02*
X54530Y-38750D01*
X67982Y-48787D02*
X54547Y-48787D01*
X54547Y-48787D02*
X54525Y-48810D01*
X65150Y-40038D02*
X64961Y-40038D01*
X64800Y-40200D02*
X64800Y-44820D01*
X64961Y-40038D02*
X64800Y-40200D01*
X64800Y-47580D02*
X64800Y-47565D01*
X64800Y-47565D02*
X64800Y-47580D01*
X64800Y-47580D02*
X64800Y-47565D01*
X54874Y-39941D02*
X54874Y-41094D01*
X54992Y-47586D02*
X55013Y-47565D01*
X55013Y-47565D02*
X55020Y-47565D01*
X55020Y-47565D02*
X55041Y-47586D01*
X55041Y-47586D02*
X55041Y-47565D01*
X54992Y-41212D02*
X54992Y-45633D01*
X54874Y-41094D02*
X54992Y-41212D01*
X67982Y-40038D02*
X65150Y-40038D01*
X65150Y-40038D02*
X65126Y-40038D01*
X64800Y-47565D02*
X55041Y-47565D01*
X55041Y-47565D02*
X54915Y-47565D01*
M02*
