G04 (created by PCBNEW (22-Jun-2014 BZR 4027)-stable) date Sun 04 Dec 2016 05:28:58 PM CST*
%MOIN*%
G04 Gerber Fmt 3.4, Leading zero omitted, Abs format*
%FSLAX34Y34*%
G01*
G70*
G90*
G04 APERTURE LIST*
%ADD10C,0.00590551*%
%ADD11R,0.11811X0.0275591*%
%ADD12C,0.035*%
%ADD13C,0.01*%
G04 APERTURE END LIST*
G54D10*
G54D11*
X67982Y-43220D03*
X67982Y-41629D03*
X67982Y-42027D03*
X67982Y-42822D03*
X67982Y-42424D03*
X67982Y-39243D03*
X67982Y-39641D03*
X67982Y-38846D03*
X67982Y-38448D03*
X67982Y-40038D03*
X67982Y-40436D03*
X67982Y-41231D03*
X67982Y-40834D03*
X67982Y-36857D03*
X67982Y-37255D03*
X67982Y-38050D03*
X67982Y-37653D03*
X67982Y-45605D03*
X67982Y-46003D03*
X67982Y-45208D03*
X67982Y-44810D03*
X67982Y-48787D03*
X67982Y-49184D03*
X67982Y-48389D03*
X67982Y-47991D03*
X67982Y-46401D03*
X67982Y-46798D03*
X67982Y-47594D03*
X67982Y-47196D03*
X67982Y-50377D03*
X67982Y-50775D03*
X67982Y-49979D03*
X67982Y-49582D03*
X67982Y-51172D03*
G54D12*
X72735Y-36435D03*
X72735Y-42870D03*
X71520Y-38850D03*
X71520Y-35660D03*
X58168Y-49148D03*
X58168Y-44858D03*
X54990Y-38890D03*
X55420Y-46000D03*
X63840Y-45990D03*
X63840Y-44820D03*
X56190Y-34905D03*
X66555Y-36870D03*
X55790Y-42340D03*
X59164Y-44464D03*
X56950Y-44500D03*
X56950Y-46360D03*
X68936Y-46802D03*
X57450Y-36110D03*
X57330Y-47190D03*
X57330Y-44880D03*
X68929Y-47593D03*
X57720Y-36510D03*
X57700Y-47970D03*
X57700Y-45180D03*
X68929Y-48384D03*
X57960Y-36927D03*
X56370Y-35380D03*
X63405Y-35190D03*
X72060Y-35230D03*
X72060Y-37680D03*
X55815Y-42885D03*
X58793Y-44905D03*
X59550Y-45210D03*
X56430Y-38890D03*
X55830Y-43400D03*
X55830Y-50370D03*
X68960Y-50780D03*
X70090Y-48800D03*
X70090Y-45630D03*
X56610Y-36890D03*
X56230Y-43770D03*
X56230Y-51140D03*
X56620Y-44080D03*
X56620Y-45600D03*
X68970Y-45980D03*
X57120Y-35710D03*
X58310Y-36435D03*
X62520Y-43530D03*
X63915Y-38625D03*
X52480Y-37060D03*
X52480Y-41600D03*
X61305Y-36840D03*
X62535Y-49740D03*
X61810Y-42301D03*
X59955Y-38605D03*
X61313Y-38605D03*
X73935Y-46170D03*
X73935Y-44660D03*
X58650Y-39080D03*
X59928Y-43912D03*
X60310Y-39080D03*
X60310Y-43100D03*
X64490Y-35640D03*
X64490Y-36850D03*
X62450Y-36840D03*
X62450Y-35680D03*
X61930Y-35700D03*
X61920Y-36840D03*
X53234Y-41564D03*
X53220Y-42370D03*
X65300Y-48400D03*
X65300Y-44820D03*
X64320Y-44835D03*
X64320Y-46770D03*
X54760Y-36890D03*
X54020Y-46780D03*
X54530Y-38900D03*
X54547Y-48787D03*
X64800Y-47580D03*
X64800Y-44820D03*
X54992Y-45633D03*
X54992Y-47586D03*
G54D13*
X72735Y-36435D02*
X72735Y-42870D01*
X71520Y-35660D02*
X71520Y-38850D01*
X58168Y-44858D02*
X58168Y-49148D01*
X55380Y-44620D02*
X55380Y-45960D01*
X54990Y-38890D02*
X55380Y-39280D01*
X55380Y-39280D02*
X55380Y-44620D01*
X55380Y-45960D02*
X55420Y-46000D01*
X63840Y-44820D02*
X63840Y-45990D01*
X56220Y-34875D02*
X56190Y-34905D01*
X56220Y-34875D02*
X57155Y-34875D01*
X57450Y-34875D02*
X64320Y-34875D01*
X57240Y-34875D02*
X57450Y-34875D01*
X57155Y-34875D02*
X57240Y-34875D01*
X64320Y-34875D02*
X66435Y-34875D01*
X66435Y-34875D02*
X66555Y-34995D01*
X66555Y-34995D02*
X66555Y-36870D01*
X57135Y-34875D02*
X57155Y-34875D01*
X59164Y-42394D02*
X59110Y-42340D01*
X59110Y-42340D02*
X55790Y-42340D01*
X59164Y-44464D02*
X59164Y-42394D01*
X56950Y-44500D02*
X56950Y-46360D01*
X57617Y-37653D02*
X64383Y-37653D01*
X57372Y-36180D02*
X57372Y-37408D01*
X57372Y-37408D02*
X57617Y-37653D01*
X70679Y-46718D02*
X70595Y-46802D01*
X70595Y-46802D02*
X68936Y-46802D01*
X70679Y-44229D02*
X70679Y-46718D01*
X70410Y-43960D02*
X70679Y-44229D01*
X64780Y-43960D02*
X70410Y-43960D01*
X64680Y-43860D02*
X64780Y-43960D01*
X64680Y-37950D02*
X64680Y-43860D01*
X64383Y-37653D02*
X64680Y-37950D01*
X57380Y-36180D02*
X57372Y-36180D01*
X57450Y-36110D02*
X57380Y-36180D01*
X57372Y-36153D02*
X57372Y-36180D01*
X57330Y-44880D02*
X57330Y-47190D01*
X57747Y-37440D02*
X64490Y-37440D01*
X57631Y-36600D02*
X57631Y-37324D01*
X57631Y-37324D02*
X57747Y-37440D01*
X70917Y-47516D02*
X70840Y-47593D01*
X70840Y-47593D02*
X68929Y-47593D01*
X70917Y-44067D02*
X70917Y-47516D01*
X70590Y-43740D02*
X70917Y-44067D01*
X65000Y-43740D02*
X70590Y-43740D01*
X64900Y-43640D02*
X65000Y-43740D01*
X64900Y-37850D02*
X64900Y-43640D01*
X64490Y-37440D02*
X64900Y-37850D01*
X57631Y-36600D02*
X57631Y-36599D01*
X57631Y-36599D02*
X57720Y-36510D01*
X57631Y-36569D02*
X57631Y-36600D01*
X57700Y-45180D02*
X57700Y-47970D01*
X58030Y-37230D02*
X64600Y-37230D01*
X57960Y-37160D02*
X58030Y-37230D01*
X71050Y-48384D02*
X68929Y-48384D01*
X71155Y-48279D02*
X71050Y-48384D01*
X57960Y-37160D02*
X57960Y-36927D01*
X71155Y-43967D02*
X71155Y-48279D01*
X70707Y-43519D02*
X71155Y-43967D01*
X65244Y-43519D02*
X70707Y-43519D01*
X65130Y-43405D02*
X65244Y-43519D01*
X65130Y-37760D02*
X65130Y-43405D01*
X64600Y-37230D02*
X65130Y-37760D01*
X57960Y-36927D02*
X57852Y-37035D01*
X56370Y-35380D02*
X56560Y-35190D01*
X56560Y-35190D02*
X57105Y-35190D01*
X63405Y-35190D02*
X57105Y-35190D01*
X72060Y-35230D02*
X72060Y-37680D01*
X58793Y-42938D02*
X58740Y-42885D01*
X58740Y-42885D02*
X55815Y-42885D01*
X58793Y-44905D02*
X58793Y-42938D01*
X59550Y-41840D02*
X59550Y-45210D01*
X59480Y-41770D02*
X59550Y-41840D01*
X56520Y-41770D02*
X59480Y-41770D01*
X56430Y-41680D02*
X56520Y-41770D01*
X56430Y-38890D02*
X56430Y-41680D01*
X55830Y-43400D02*
X55830Y-50370D01*
X57390Y-38120D02*
X64130Y-38120D01*
X69970Y-50780D02*
X68960Y-50780D01*
X70090Y-50660D02*
X69970Y-50780D01*
X70090Y-48800D02*
X70090Y-50660D01*
X70090Y-44470D02*
X70090Y-45630D01*
X70005Y-44385D02*
X70090Y-44470D01*
X64365Y-44385D02*
X70005Y-44385D01*
X64245Y-44265D02*
X64365Y-44385D01*
X64245Y-38235D02*
X64245Y-44265D01*
X64130Y-38120D02*
X64245Y-38235D01*
X56640Y-37370D02*
X57390Y-38120D01*
X57390Y-38120D02*
X57410Y-38140D01*
X56640Y-36920D02*
X56640Y-37370D01*
X56610Y-36890D02*
X56640Y-36920D01*
X56230Y-43770D02*
X56230Y-51140D01*
X56620Y-44080D02*
X56620Y-45600D01*
X59460Y-37890D02*
X64250Y-37890D01*
X70280Y-45980D02*
X68970Y-45980D01*
X70400Y-45860D02*
X70280Y-45980D01*
X70400Y-44310D02*
X70400Y-45860D01*
X70260Y-44170D02*
X70400Y-44310D01*
X64560Y-44170D02*
X70260Y-44170D01*
X64460Y-44070D02*
X64560Y-44170D01*
X64460Y-38100D02*
X64460Y-44070D01*
X64250Y-37890D02*
X64460Y-38100D01*
X57120Y-35710D02*
X57120Y-37470D01*
X57120Y-37470D02*
X57540Y-37890D01*
X57540Y-37890D02*
X59460Y-37890D01*
X59460Y-37890D02*
X59470Y-37890D01*
X61305Y-36840D02*
X58400Y-36840D01*
X58320Y-36760D02*
X58400Y-36840D01*
X58320Y-36445D02*
X58320Y-36760D01*
X58320Y-36445D02*
X58310Y-36435D01*
X62520Y-43455D02*
X62490Y-43455D01*
X62490Y-43485D02*
X62520Y-43455D01*
X62490Y-43500D02*
X62490Y-43485D01*
X62520Y-43530D02*
X62490Y-43500D01*
X63895Y-38605D02*
X63915Y-38625D01*
X62490Y-38605D02*
X63895Y-38605D01*
X52480Y-37060D02*
X52480Y-41600D01*
X61320Y-36825D02*
X61305Y-36840D01*
X62490Y-43155D02*
X62490Y-43455D01*
X62490Y-43455D02*
X62490Y-49695D01*
X62490Y-49695D02*
X62535Y-49740D01*
X62490Y-43155D02*
X62490Y-38605D01*
X62490Y-38605D02*
X62490Y-38610D01*
X62490Y-38610D02*
X62490Y-38605D01*
X61810Y-38738D02*
X61810Y-38605D01*
X61810Y-38605D02*
X61803Y-38605D01*
X61313Y-38605D02*
X61803Y-38605D01*
X61803Y-38605D02*
X62490Y-38605D01*
X61810Y-38710D02*
X61810Y-38738D01*
X61810Y-38738D02*
X61810Y-42301D01*
X59955Y-38605D02*
X61313Y-38605D01*
X73935Y-44660D02*
X73935Y-46170D01*
X59870Y-39080D02*
X58650Y-39080D01*
X59930Y-39140D02*
X59870Y-39080D01*
X59930Y-43910D02*
X59930Y-39140D01*
X59928Y-43912D02*
X59930Y-43910D01*
X60310Y-43100D02*
X60310Y-39080D01*
X64490Y-36850D02*
X64490Y-35640D01*
X62450Y-36840D02*
X62450Y-35680D01*
X61920Y-35710D02*
X61920Y-36840D01*
X61930Y-35700D02*
X61920Y-35710D01*
X61905Y-36825D02*
X61920Y-36840D01*
X53220Y-41578D02*
X53220Y-42370D01*
X53234Y-41564D02*
X53220Y-41578D01*
X65300Y-44820D02*
X65300Y-48400D01*
X64320Y-44835D02*
X64320Y-46770D01*
X54020Y-46780D02*
X54020Y-36960D01*
X54020Y-36960D02*
X54090Y-36890D01*
X54090Y-36890D02*
X54760Y-36890D01*
X54547Y-38917D02*
X54547Y-48787D01*
X54530Y-38900D02*
X54547Y-38917D01*
X54545Y-48790D02*
X54530Y-48790D01*
X54545Y-48790D02*
X54547Y-48787D01*
X64800Y-44820D02*
X64800Y-47580D01*
X54992Y-45633D02*
X54992Y-47586D01*
M02*
