G04 (created by PCBNEW (22-Jun-2014 BZR 4027)-stable) date Thu 28 Jun 2018 06:15:12 PM CST*
%MOIN*%
G04 Gerber Fmt 3.4, Leading zero omitted, Abs format*
%FSLAX34Y34*%
G01*
G70*
G90*
G04 APERTURE LIST*
%ADD10C,0.00393701*%
%ADD11C,0.00472441*%
%ADD12C,0.0019685*%
%ADD13C,0.00590551*%
%ADD14C,0.012*%
%ADD15C,0.0059*%
%ADD16C,0.005*%
%ADD17C,0.00492126*%
G04 APERTURE END LIST*
G54D10*
G54D11*
X117172Y-99302D02*
X116676Y-99302D01*
X114487Y-99302D02*
X114983Y-99302D01*
G54D12*
X114412Y-98321D02*
X114412Y-101786D01*
X117247Y-98321D02*
X114412Y-98321D01*
X117247Y-101786D02*
X117247Y-98321D01*
X114412Y-101786D02*
X117247Y-101786D01*
G54D13*
X114511Y-100782D02*
X117148Y-100782D01*
G54D11*
X117172Y-100782D02*
X117172Y-99302D01*
G54D13*
X114511Y-100782D02*
X114511Y-99325D01*
G54D11*
X114487Y-101668D02*
X114487Y-99302D01*
G54D13*
X117148Y-100782D02*
X117148Y-99325D01*
X114511Y-99325D02*
X117148Y-99325D01*
G54D12*
X146368Y-99569D02*
X144911Y-99569D01*
X146368Y-98978D02*
X144911Y-98978D01*
X146368Y-99569D02*
X146368Y-98978D01*
X144911Y-99569D02*
X144911Y-98978D01*
G54D13*
X145777Y-99510D02*
X145502Y-99510D01*
X145502Y-99037D02*
X145777Y-99037D01*
G54D12*
X132327Y-96310D02*
X132327Y-94577D01*
X129492Y-96310D02*
X132327Y-96310D01*
X129492Y-94577D02*
X129492Y-96310D01*
X132327Y-94577D02*
X129492Y-94577D01*
G54D13*
X131933Y-96113D02*
X130240Y-96113D01*
X129866Y-94774D02*
X131933Y-94774D01*
G54D12*
X132388Y-94539D02*
X130931Y-94539D01*
X132388Y-93948D02*
X130931Y-93948D01*
X132388Y-94539D02*
X132388Y-93948D01*
X130931Y-94539D02*
X130931Y-93948D01*
G54D13*
X131797Y-94480D02*
X131522Y-94480D01*
X131522Y-94007D02*
X131797Y-94007D01*
G54D12*
X129431Y-93948D02*
X130888Y-93948D01*
X129431Y-94539D02*
X130888Y-94539D01*
X129431Y-93948D02*
X129431Y-94539D01*
X130888Y-93948D02*
X130888Y-94539D01*
G54D13*
X130022Y-94007D02*
X130297Y-94007D01*
X130297Y-94480D02*
X130022Y-94480D01*
G54D12*
X144755Y-99685D02*
X144755Y-101142D01*
X144164Y-99685D02*
X144164Y-101142D01*
X144755Y-99685D02*
X144164Y-99685D01*
X144755Y-101142D02*
X144164Y-101142D01*
G54D13*
X144696Y-100276D02*
X144696Y-100551D01*
X144223Y-100551D02*
X144223Y-100276D01*
G54D12*
X128164Y-100772D02*
X128164Y-99315D01*
X128755Y-100772D02*
X128755Y-99315D01*
X128164Y-100772D02*
X128755Y-100772D01*
X128164Y-99315D02*
X128755Y-99315D01*
G54D13*
X128223Y-100181D02*
X128223Y-99906D01*
X128696Y-99906D02*
X128696Y-100181D01*
G54D12*
X129433Y-96340D02*
X130890Y-96340D01*
X129433Y-96931D02*
X130890Y-96931D01*
X129433Y-96340D02*
X129433Y-96931D01*
X130890Y-96340D02*
X130890Y-96931D01*
G54D13*
X130024Y-96399D02*
X130299Y-96399D01*
X130299Y-96872D02*
X130024Y-96872D01*
G54D12*
X132870Y-101709D02*
X131413Y-101709D01*
X132870Y-101118D02*
X131413Y-101118D01*
X132870Y-101709D02*
X132870Y-101118D01*
X131413Y-101709D02*
X131413Y-101118D01*
G54D13*
X132279Y-101650D02*
X132004Y-101650D01*
X132004Y-101177D02*
X132279Y-101177D01*
G54D12*
X133505Y-97617D02*
X133505Y-99074D01*
X132914Y-97617D02*
X132914Y-99074D01*
X133505Y-97617D02*
X132914Y-97617D01*
X133505Y-99074D02*
X132914Y-99074D01*
G54D13*
X133446Y-98208D02*
X133446Y-98483D01*
X132973Y-98483D02*
X132973Y-98208D01*
X144810Y-99604D02*
X147710Y-99604D01*
X147710Y-99604D02*
X147710Y-101704D01*
X147710Y-101704D02*
X144810Y-101704D01*
X144810Y-101704D02*
X144810Y-99604D01*
X114410Y-92464D02*
X117310Y-92464D01*
X117310Y-92464D02*
X117310Y-94564D01*
X117310Y-94564D02*
X114410Y-94564D01*
X114410Y-94564D02*
X114410Y-92464D01*
X144810Y-92464D02*
X147710Y-92464D01*
X147710Y-92464D02*
X147710Y-94564D01*
X147710Y-94564D02*
X144810Y-94564D01*
X144810Y-94564D02*
X144810Y-92464D01*
X126310Y-102044D02*
X129210Y-102044D01*
X129210Y-102044D02*
X129210Y-104144D01*
X129210Y-104144D02*
X126310Y-104144D01*
X126310Y-104144D02*
X126310Y-102044D01*
X132810Y-102044D02*
X135710Y-102044D01*
X135710Y-102044D02*
X135710Y-104144D01*
X135710Y-104144D02*
X132810Y-104144D01*
X132810Y-104144D02*
X132810Y-102044D01*
X144810Y-102044D02*
X147710Y-102044D01*
X147710Y-102044D02*
X147710Y-104144D01*
X147710Y-104144D02*
X144810Y-104144D01*
X144810Y-104144D02*
X144810Y-102044D01*
X141810Y-102044D02*
X144710Y-102044D01*
X144710Y-102044D02*
X144710Y-104144D01*
X144710Y-104144D02*
X141810Y-104144D01*
X141810Y-104144D02*
X141810Y-102044D01*
X114410Y-102044D02*
X117310Y-102044D01*
X117310Y-102044D02*
X117310Y-104144D01*
X117310Y-104144D02*
X114410Y-104144D01*
X114410Y-104144D02*
X114410Y-102044D01*
X117410Y-102044D02*
X120310Y-102044D01*
X120310Y-102044D02*
X120310Y-104144D01*
X120310Y-104144D02*
X117410Y-104144D01*
X117410Y-104144D02*
X117410Y-102044D01*
X129360Y-103044D02*
X132660Y-103044D01*
X132660Y-103044D02*
X132660Y-104144D01*
X132660Y-104144D02*
X129360Y-104144D01*
X129360Y-104144D02*
X129360Y-103044D01*
G54D14*
X132980Y-93734D02*
X132980Y-93734D01*
X132980Y-92734D02*
X132980Y-93734D01*
X132980Y-93734D02*
X132980Y-93734D01*
X132980Y-93734D02*
X128980Y-93734D01*
X128980Y-93734D02*
X128980Y-92734D01*
X128980Y-92734D02*
X132980Y-92734D01*
X131980Y-92734D02*
X131980Y-93734D01*
G54D13*
X131962Y-97784D02*
X132001Y-97784D01*
X132001Y-97784D02*
X132119Y-97902D01*
X132119Y-97902D02*
X132119Y-100185D01*
X132119Y-100185D02*
X132001Y-100303D01*
X132001Y-100303D02*
X129718Y-100303D01*
X129718Y-100303D02*
X129600Y-100185D01*
X129600Y-100185D02*
X129600Y-97902D01*
X129600Y-97902D02*
X129718Y-97784D01*
X129718Y-97784D02*
X131962Y-97784D01*
G54D15*
X132552Y-97430D02*
X132473Y-97351D01*
X132395Y-97351D02*
X132552Y-97508D01*
X132552Y-97587D02*
X132316Y-97351D01*
X132237Y-97351D02*
X132552Y-97666D01*
X132158Y-97351D02*
X132552Y-97351D01*
X132552Y-97351D02*
X132552Y-97745D01*
X132552Y-97745D02*
X132158Y-97351D01*
X129127Y-97745D02*
X129127Y-97351D01*
X129127Y-97351D02*
X129521Y-97351D01*
X129521Y-100736D02*
X129127Y-100736D01*
X129127Y-100736D02*
X129127Y-100342D01*
X132592Y-100342D02*
X132592Y-100736D01*
X132592Y-100736D02*
X132198Y-100736D01*
G54D16*
X131921Y-98094D02*
G75*
G03X131921Y-98094I-111J0D01*
G74*
G01*
G54D12*
X117274Y-101632D02*
X117274Y-100175D01*
X117865Y-101632D02*
X117865Y-100175D01*
X117274Y-101632D02*
X117865Y-101632D01*
X117274Y-100175D02*
X117865Y-100175D01*
G54D13*
X117333Y-101041D02*
X117333Y-100766D01*
X117806Y-100766D02*
X117806Y-101041D01*
G54D17*
X114580Y-99366D02*
X114580Y-99621D01*
X114589Y-99651D01*
X114598Y-99666D01*
X114617Y-99681D01*
X114655Y-99681D01*
X114673Y-99666D01*
X114683Y-99651D01*
X114692Y-99621D01*
X114692Y-99366D01*
X114776Y-99396D02*
X114786Y-99381D01*
X114804Y-99366D01*
X114851Y-99366D01*
X114870Y-99381D01*
X114879Y-99396D01*
X114889Y-99426D01*
X114889Y-99456D01*
X114879Y-99501D01*
X114767Y-99681D01*
X114889Y-99681D01*
X114605Y-99991D02*
X114699Y-99991D01*
X114587Y-100081D02*
X114652Y-99766D01*
X114718Y-100081D01*
X114783Y-100081D02*
X114783Y-99766D01*
X114849Y-99991D01*
X114915Y-99766D01*
X114915Y-100081D01*
X114999Y-100066D02*
X115027Y-100081D01*
X115074Y-100081D01*
X115093Y-100066D01*
X115102Y-100051D01*
X115111Y-100021D01*
X115111Y-99991D01*
X115102Y-99961D01*
X115093Y-99946D01*
X115074Y-99931D01*
X115036Y-99916D01*
X115018Y-99901D01*
X115008Y-99886D01*
X114999Y-99856D01*
X114999Y-99826D01*
X115008Y-99796D01*
X115018Y-99781D01*
X115036Y-99766D01*
X115083Y-99766D01*
X115111Y-99781D01*
X115299Y-100081D02*
X115186Y-100081D01*
X115243Y-100081D02*
X115243Y-99766D01*
X115224Y-99811D01*
X115205Y-99841D01*
X115186Y-99856D01*
X115486Y-100081D02*
X115374Y-100081D01*
X115430Y-100081D02*
X115430Y-99766D01*
X115411Y-99811D01*
X115393Y-99841D01*
X115374Y-99856D01*
X115674Y-100081D02*
X115561Y-100081D01*
X115618Y-100081D02*
X115618Y-99766D01*
X115599Y-99811D01*
X115580Y-99841D01*
X115561Y-99856D01*
X115739Y-99766D02*
X115871Y-99766D01*
X115786Y-100081D01*
X115946Y-99961D02*
X116096Y-99961D01*
X116171Y-99766D02*
X116293Y-99766D01*
X116227Y-99886D01*
X116255Y-99886D01*
X116274Y-99901D01*
X116283Y-99916D01*
X116293Y-99946D01*
X116293Y-100021D01*
X116283Y-100051D01*
X116274Y-100066D01*
X116255Y-100081D01*
X116199Y-100081D01*
X116180Y-100066D01*
X116171Y-100051D01*
X116377Y-100051D02*
X116386Y-100066D01*
X116377Y-100081D01*
X116368Y-100066D01*
X116377Y-100051D01*
X116377Y-100081D01*
X116452Y-99766D02*
X116574Y-99766D01*
X116508Y-99886D01*
X116536Y-99886D01*
X116555Y-99901D01*
X116564Y-99916D01*
X116574Y-99946D01*
X116574Y-100021D01*
X116564Y-100051D01*
X116555Y-100066D01*
X116536Y-100081D01*
X116480Y-100081D01*
X116461Y-100066D01*
X116452Y-100051D01*
X147157Y-99551D02*
X147091Y-99401D01*
X147044Y-99551D02*
X147044Y-99236D01*
X147119Y-99236D01*
X147138Y-99251D01*
X147147Y-99266D01*
X147157Y-99296D01*
X147157Y-99341D01*
X147147Y-99371D01*
X147138Y-99386D01*
X147119Y-99401D01*
X147044Y-99401D01*
X147344Y-99551D02*
X147232Y-99551D01*
X147288Y-99551D02*
X147288Y-99236D01*
X147269Y-99281D01*
X147250Y-99311D01*
X147232Y-99326D01*
X146554Y-99551D02*
X146441Y-99551D01*
X146497Y-99551D02*
X146497Y-99236D01*
X146479Y-99281D01*
X146460Y-99311D01*
X146441Y-99326D01*
X146675Y-99236D02*
X146694Y-99236D01*
X146713Y-99251D01*
X146722Y-99266D01*
X146732Y-99296D01*
X146741Y-99356D01*
X146741Y-99431D01*
X146732Y-99491D01*
X146722Y-99521D01*
X146713Y-99536D01*
X146694Y-99551D01*
X146675Y-99551D01*
X146657Y-99536D01*
X146647Y-99521D01*
X146638Y-99491D01*
X146629Y-99431D01*
X146629Y-99356D01*
X146638Y-99296D01*
X146647Y-99266D01*
X146657Y-99251D01*
X146675Y-99236D01*
X146825Y-99551D02*
X146825Y-99236D01*
X146938Y-99551D02*
X146854Y-99371D01*
X146938Y-99236D02*
X146825Y-99416D01*
X122137Y-95706D02*
X122165Y-95721D01*
X122212Y-95721D01*
X122231Y-95706D01*
X122240Y-95691D01*
X122250Y-95661D01*
X122250Y-95631D01*
X122240Y-95601D01*
X122231Y-95586D01*
X122212Y-95571D01*
X122175Y-95556D01*
X122156Y-95541D01*
X122146Y-95526D01*
X122137Y-95496D01*
X122137Y-95466D01*
X122146Y-95436D01*
X122156Y-95421D01*
X122175Y-95406D01*
X122221Y-95406D01*
X122250Y-95421D01*
X122315Y-95406D02*
X122362Y-95721D01*
X122400Y-95496D01*
X122437Y-95721D01*
X122484Y-95406D01*
X122662Y-95721D02*
X122549Y-95721D01*
X122606Y-95721D02*
X122606Y-95406D01*
X122587Y-95451D01*
X122568Y-95481D01*
X122549Y-95496D01*
X122265Y-95806D02*
X122265Y-96061D01*
X122274Y-96091D01*
X122284Y-96106D01*
X122302Y-96121D01*
X122340Y-96121D01*
X122359Y-96106D01*
X122368Y-96091D01*
X122377Y-96061D01*
X122377Y-95806D01*
X122471Y-96121D02*
X122471Y-95806D01*
X122546Y-95806D01*
X122565Y-95821D01*
X122574Y-95836D01*
X122584Y-95866D01*
X122584Y-95911D01*
X122574Y-95941D01*
X122565Y-95956D01*
X122546Y-95971D01*
X122471Y-95971D01*
X139497Y-95706D02*
X139525Y-95721D01*
X139572Y-95721D01*
X139591Y-95706D01*
X139600Y-95691D01*
X139610Y-95661D01*
X139610Y-95631D01*
X139600Y-95601D01*
X139591Y-95586D01*
X139572Y-95571D01*
X139535Y-95556D01*
X139516Y-95541D01*
X139506Y-95526D01*
X139497Y-95496D01*
X139497Y-95466D01*
X139506Y-95436D01*
X139516Y-95421D01*
X139535Y-95406D01*
X139581Y-95406D01*
X139610Y-95421D01*
X139675Y-95406D02*
X139722Y-95721D01*
X139760Y-95496D01*
X139797Y-95721D01*
X139844Y-95406D01*
X139947Y-95541D02*
X139928Y-95526D01*
X139919Y-95511D01*
X139909Y-95481D01*
X139909Y-95466D01*
X139919Y-95436D01*
X139928Y-95421D01*
X139947Y-95406D01*
X139984Y-95406D01*
X140003Y-95421D01*
X140013Y-95436D01*
X140022Y-95466D01*
X140022Y-95481D01*
X140013Y-95511D01*
X140003Y-95526D01*
X139984Y-95541D01*
X139947Y-95541D01*
X139928Y-95556D01*
X139919Y-95571D01*
X139909Y-95601D01*
X139909Y-95661D01*
X139919Y-95691D01*
X139928Y-95706D01*
X139947Y-95721D01*
X139984Y-95721D01*
X140003Y-95706D01*
X140013Y-95691D01*
X140022Y-95661D01*
X140022Y-95601D01*
X140013Y-95571D01*
X140003Y-95556D01*
X139984Y-95541D01*
X139694Y-95806D02*
X139825Y-96121D01*
X139825Y-95806D02*
X139694Y-96121D01*
X139497Y-98956D02*
X139525Y-98971D01*
X139572Y-98971D01*
X139591Y-98956D01*
X139600Y-98941D01*
X139610Y-98911D01*
X139610Y-98881D01*
X139600Y-98851D01*
X139591Y-98836D01*
X139572Y-98821D01*
X139535Y-98806D01*
X139516Y-98791D01*
X139506Y-98776D01*
X139497Y-98746D01*
X139497Y-98716D01*
X139506Y-98686D01*
X139516Y-98671D01*
X139535Y-98656D01*
X139581Y-98656D01*
X139610Y-98671D01*
X139675Y-98656D02*
X139722Y-98971D01*
X139760Y-98746D01*
X139797Y-98971D01*
X139844Y-98656D01*
X140003Y-98656D02*
X139966Y-98656D01*
X139947Y-98671D01*
X139938Y-98686D01*
X139919Y-98731D01*
X139909Y-98791D01*
X139909Y-98911D01*
X139919Y-98941D01*
X139928Y-98956D01*
X139947Y-98971D01*
X139984Y-98971D01*
X140003Y-98956D01*
X140013Y-98941D01*
X140022Y-98911D01*
X140022Y-98836D01*
X140013Y-98806D01*
X140003Y-98791D01*
X139984Y-98776D01*
X139947Y-98776D01*
X139928Y-98791D01*
X139919Y-98806D01*
X139909Y-98836D01*
X139774Y-99206D02*
X139802Y-99221D01*
X139811Y-99236D01*
X139820Y-99266D01*
X139820Y-99311D01*
X139811Y-99341D01*
X139802Y-99356D01*
X139783Y-99371D01*
X139708Y-99371D01*
X139708Y-99056D01*
X139774Y-99056D01*
X139792Y-99071D01*
X139802Y-99086D01*
X139811Y-99116D01*
X139811Y-99146D01*
X139802Y-99176D01*
X139792Y-99191D01*
X139774Y-99206D01*
X139708Y-99206D01*
X122077Y-98966D02*
X122105Y-98981D01*
X122152Y-98981D01*
X122171Y-98966D01*
X122180Y-98951D01*
X122190Y-98921D01*
X122190Y-98891D01*
X122180Y-98861D01*
X122171Y-98846D01*
X122152Y-98831D01*
X122115Y-98816D01*
X122096Y-98801D01*
X122086Y-98786D01*
X122077Y-98756D01*
X122077Y-98726D01*
X122086Y-98696D01*
X122096Y-98681D01*
X122115Y-98666D01*
X122161Y-98666D01*
X122190Y-98681D01*
X122255Y-98666D02*
X122302Y-98981D01*
X122340Y-98756D01*
X122377Y-98981D01*
X122424Y-98666D01*
X122489Y-98696D02*
X122499Y-98681D01*
X122518Y-98666D01*
X122564Y-98666D01*
X122583Y-98681D01*
X122593Y-98696D01*
X122602Y-98726D01*
X122602Y-98756D01*
X122593Y-98801D01*
X122480Y-98981D01*
X122602Y-98981D01*
X121989Y-99361D02*
X121989Y-99046D01*
X122036Y-99046D01*
X122064Y-99061D01*
X122083Y-99091D01*
X122092Y-99121D01*
X122102Y-99181D01*
X122102Y-99226D01*
X122092Y-99286D01*
X122083Y-99316D01*
X122064Y-99346D01*
X122036Y-99361D01*
X121989Y-99361D01*
X122224Y-99046D02*
X122261Y-99046D01*
X122280Y-99061D01*
X122299Y-99091D01*
X122308Y-99151D01*
X122308Y-99256D01*
X122299Y-99316D01*
X122280Y-99346D01*
X122261Y-99361D01*
X122224Y-99361D01*
X122205Y-99346D01*
X122186Y-99316D01*
X122177Y-99256D01*
X122177Y-99151D01*
X122186Y-99091D01*
X122205Y-99061D01*
X122224Y-99046D01*
X122374Y-99046D02*
X122420Y-99361D01*
X122458Y-99136D01*
X122495Y-99361D01*
X122542Y-99046D01*
X122617Y-99361D02*
X122617Y-99046D01*
X122730Y-99361D01*
X122730Y-99046D01*
X141197Y-97306D02*
X141225Y-97321D01*
X141272Y-97321D01*
X141291Y-97306D01*
X141300Y-97291D01*
X141310Y-97261D01*
X141310Y-97231D01*
X141300Y-97201D01*
X141291Y-97186D01*
X141272Y-97171D01*
X141235Y-97156D01*
X141216Y-97141D01*
X141206Y-97126D01*
X141197Y-97096D01*
X141197Y-97066D01*
X141206Y-97036D01*
X141216Y-97021D01*
X141235Y-97006D01*
X141281Y-97006D01*
X141310Y-97021D01*
X141375Y-97006D02*
X141422Y-97321D01*
X141460Y-97096D01*
X141497Y-97321D01*
X141544Y-97006D01*
X141713Y-97006D02*
X141619Y-97006D01*
X141609Y-97156D01*
X141619Y-97141D01*
X141638Y-97126D01*
X141684Y-97126D01*
X141703Y-97141D01*
X141713Y-97156D01*
X141722Y-97186D01*
X141722Y-97261D01*
X141713Y-97291D01*
X141703Y-97306D01*
X141684Y-97321D01*
X141638Y-97321D01*
X141619Y-97306D01*
X141609Y-97291D01*
X141413Y-97681D02*
X141506Y-97681D01*
X141394Y-97771D02*
X141460Y-97456D01*
X141525Y-97771D01*
X123797Y-97306D02*
X123825Y-97321D01*
X123872Y-97321D01*
X123891Y-97306D01*
X123900Y-97291D01*
X123910Y-97261D01*
X123910Y-97231D01*
X123900Y-97201D01*
X123891Y-97186D01*
X123872Y-97171D01*
X123835Y-97156D01*
X123816Y-97141D01*
X123806Y-97126D01*
X123797Y-97096D01*
X123797Y-97066D01*
X123806Y-97036D01*
X123816Y-97021D01*
X123835Y-97006D01*
X123881Y-97006D01*
X123910Y-97021D01*
X123975Y-97006D02*
X124022Y-97321D01*
X124060Y-97096D01*
X124097Y-97321D01*
X124144Y-97006D01*
X124303Y-97111D02*
X124303Y-97321D01*
X124256Y-96991D02*
X124209Y-97216D01*
X124331Y-97216D01*
X123647Y-97771D02*
X123581Y-97621D01*
X123535Y-97771D02*
X123535Y-97456D01*
X123610Y-97456D01*
X123628Y-97471D01*
X123638Y-97486D01*
X123647Y-97516D01*
X123647Y-97561D01*
X123638Y-97591D01*
X123628Y-97606D01*
X123610Y-97621D01*
X123535Y-97621D01*
X123731Y-97771D02*
X123731Y-97456D01*
X123928Y-97471D02*
X123910Y-97456D01*
X123881Y-97456D01*
X123853Y-97471D01*
X123835Y-97501D01*
X123825Y-97531D01*
X123816Y-97591D01*
X123816Y-97636D01*
X123825Y-97696D01*
X123835Y-97726D01*
X123853Y-97756D01*
X123881Y-97771D01*
X123900Y-97771D01*
X123928Y-97756D01*
X123938Y-97741D01*
X123938Y-97636D01*
X123900Y-97636D01*
X124022Y-97771D02*
X124022Y-97456D01*
X124022Y-97606D02*
X124134Y-97606D01*
X124134Y-97771D02*
X124134Y-97456D01*
X124200Y-97456D02*
X124313Y-97456D01*
X124256Y-97771D02*
X124256Y-97456D01*
X120397Y-97306D02*
X120425Y-97321D01*
X120472Y-97321D01*
X120491Y-97306D01*
X120500Y-97291D01*
X120510Y-97261D01*
X120510Y-97231D01*
X120500Y-97201D01*
X120491Y-97186D01*
X120472Y-97171D01*
X120435Y-97156D01*
X120416Y-97141D01*
X120406Y-97126D01*
X120397Y-97096D01*
X120397Y-97066D01*
X120406Y-97036D01*
X120416Y-97021D01*
X120435Y-97006D01*
X120481Y-97006D01*
X120510Y-97021D01*
X120575Y-97006D02*
X120622Y-97321D01*
X120660Y-97096D01*
X120697Y-97321D01*
X120744Y-97006D01*
X120800Y-97006D02*
X120922Y-97006D01*
X120856Y-97126D01*
X120884Y-97126D01*
X120903Y-97141D01*
X120913Y-97156D01*
X120922Y-97186D01*
X120922Y-97261D01*
X120913Y-97291D01*
X120903Y-97306D01*
X120884Y-97321D01*
X120828Y-97321D01*
X120809Y-97306D01*
X120800Y-97291D01*
X120522Y-97771D02*
X120428Y-97771D01*
X120428Y-97456D01*
X120588Y-97606D02*
X120653Y-97606D01*
X120681Y-97771D02*
X120588Y-97771D01*
X120588Y-97456D01*
X120681Y-97456D01*
X120831Y-97606D02*
X120766Y-97606D01*
X120766Y-97771D02*
X120766Y-97456D01*
X120859Y-97456D01*
X120906Y-97456D02*
X121019Y-97456D01*
X120963Y-97771D02*
X120963Y-97456D01*
X137797Y-97306D02*
X137825Y-97321D01*
X137872Y-97321D01*
X137891Y-97306D01*
X137900Y-97291D01*
X137910Y-97261D01*
X137910Y-97231D01*
X137900Y-97201D01*
X137891Y-97186D01*
X137872Y-97171D01*
X137835Y-97156D01*
X137816Y-97141D01*
X137806Y-97126D01*
X137797Y-97096D01*
X137797Y-97066D01*
X137806Y-97036D01*
X137816Y-97021D01*
X137835Y-97006D01*
X137881Y-97006D01*
X137910Y-97021D01*
X137975Y-97006D02*
X138022Y-97321D01*
X138060Y-97096D01*
X138097Y-97321D01*
X138144Y-97006D01*
X138228Y-97321D02*
X138266Y-97321D01*
X138284Y-97306D01*
X138294Y-97291D01*
X138313Y-97246D01*
X138322Y-97186D01*
X138322Y-97066D01*
X138313Y-97036D01*
X138303Y-97021D01*
X138284Y-97006D01*
X138247Y-97006D01*
X138228Y-97021D01*
X138219Y-97036D01*
X138209Y-97066D01*
X138209Y-97141D01*
X138219Y-97171D01*
X138228Y-97186D01*
X138247Y-97201D01*
X138284Y-97201D01*
X138303Y-97186D01*
X138313Y-97171D01*
X138322Y-97141D01*
X138060Y-97621D02*
X138060Y-97771D01*
X137994Y-97456D02*
X138060Y-97621D01*
X138125Y-97456D01*
X132666Y-95771D02*
X132666Y-95921D01*
X132600Y-95606D02*
X132666Y-95771D01*
X132731Y-95606D01*
X132900Y-95921D02*
X132788Y-95921D01*
X132844Y-95921D02*
X132844Y-95606D01*
X132825Y-95651D01*
X132806Y-95681D01*
X132788Y-95696D01*
X132445Y-96141D02*
X132427Y-96126D01*
X132417Y-96111D01*
X132408Y-96081D01*
X132408Y-96066D01*
X132417Y-96036D01*
X132427Y-96021D01*
X132445Y-96006D01*
X132483Y-96006D01*
X132502Y-96021D01*
X132511Y-96036D01*
X132520Y-96066D01*
X132520Y-96081D01*
X132511Y-96111D01*
X132502Y-96126D01*
X132483Y-96141D01*
X132445Y-96141D01*
X132427Y-96156D01*
X132417Y-96171D01*
X132408Y-96201D01*
X132408Y-96261D01*
X132417Y-96291D01*
X132427Y-96306D01*
X132445Y-96321D01*
X132483Y-96321D01*
X132502Y-96306D01*
X132511Y-96291D01*
X132520Y-96261D01*
X132520Y-96201D01*
X132511Y-96171D01*
X132502Y-96156D01*
X132483Y-96141D01*
X132605Y-96321D02*
X132605Y-96006D01*
X132670Y-96231D01*
X132736Y-96006D01*
X132736Y-96321D01*
X132830Y-96321D02*
X132830Y-96006D01*
X132830Y-96156D02*
X132942Y-96156D01*
X132942Y-96321D02*
X132942Y-96006D01*
X133017Y-96111D02*
X133120Y-96111D01*
X133017Y-96321D01*
X133120Y-96321D01*
X132607Y-94111D02*
X132597Y-94126D01*
X132569Y-94141D01*
X132550Y-94141D01*
X132522Y-94126D01*
X132504Y-94096D01*
X132494Y-94066D01*
X132485Y-94006D01*
X132485Y-93961D01*
X132494Y-93901D01*
X132504Y-93871D01*
X132522Y-93841D01*
X132550Y-93826D01*
X132569Y-93826D01*
X132597Y-93841D01*
X132607Y-93856D01*
X132672Y-93826D02*
X132804Y-93826D01*
X132719Y-94141D01*
X132553Y-94541D02*
X132440Y-94541D01*
X132497Y-94541D02*
X132497Y-94226D01*
X132478Y-94271D01*
X132459Y-94301D01*
X132440Y-94316D01*
X132675Y-94226D02*
X132694Y-94226D01*
X132712Y-94241D01*
X132722Y-94256D01*
X132731Y-94286D01*
X132740Y-94346D01*
X132740Y-94421D01*
X132731Y-94481D01*
X132722Y-94511D01*
X132712Y-94526D01*
X132694Y-94541D01*
X132675Y-94541D01*
X132656Y-94526D01*
X132647Y-94511D01*
X132637Y-94481D01*
X132628Y-94421D01*
X132628Y-94346D01*
X132637Y-94286D01*
X132647Y-94256D01*
X132656Y-94241D01*
X132675Y-94226D01*
X132825Y-94331D02*
X132825Y-94646D01*
X132825Y-94346D02*
X132844Y-94331D01*
X132881Y-94331D01*
X132900Y-94346D01*
X132909Y-94361D01*
X132919Y-94391D01*
X132919Y-94481D01*
X132909Y-94511D01*
X132900Y-94526D01*
X132881Y-94541D01*
X132844Y-94541D01*
X132825Y-94526D01*
X129047Y-94131D02*
X129037Y-94146D01*
X129009Y-94161D01*
X128990Y-94161D01*
X128962Y-94146D01*
X128944Y-94116D01*
X128934Y-94086D01*
X128925Y-94026D01*
X128925Y-93981D01*
X128934Y-93921D01*
X128944Y-93891D01*
X128962Y-93861D01*
X128990Y-93846D01*
X129009Y-93846D01*
X129037Y-93861D01*
X129047Y-93876D01*
X129215Y-93846D02*
X129178Y-93846D01*
X129159Y-93861D01*
X129150Y-93876D01*
X129131Y-93921D01*
X129122Y-93981D01*
X129122Y-94101D01*
X129131Y-94131D01*
X129140Y-94146D01*
X129159Y-94161D01*
X129197Y-94161D01*
X129215Y-94146D01*
X129225Y-94131D01*
X129234Y-94101D01*
X129234Y-94026D01*
X129225Y-93996D01*
X129215Y-93981D01*
X129197Y-93966D01*
X129159Y-93966D01*
X129140Y-93981D01*
X129131Y-93996D01*
X129122Y-94026D01*
X129013Y-94561D02*
X128900Y-94561D01*
X128957Y-94561D02*
X128957Y-94246D01*
X128938Y-94291D01*
X128919Y-94321D01*
X128900Y-94336D01*
X129135Y-94246D02*
X129154Y-94246D01*
X129172Y-94261D01*
X129182Y-94276D01*
X129191Y-94306D01*
X129200Y-94366D01*
X129200Y-94441D01*
X129191Y-94501D01*
X129182Y-94531D01*
X129172Y-94546D01*
X129154Y-94561D01*
X129135Y-94561D01*
X129116Y-94546D01*
X129107Y-94531D01*
X129097Y-94501D01*
X129088Y-94441D01*
X129088Y-94366D01*
X129097Y-94306D01*
X129107Y-94276D01*
X129116Y-94261D01*
X129135Y-94246D01*
X129285Y-94351D02*
X129285Y-94666D01*
X129285Y-94366D02*
X129304Y-94351D01*
X129341Y-94351D01*
X129360Y-94366D01*
X129369Y-94381D01*
X129379Y-94411D01*
X129379Y-94501D01*
X129369Y-94531D01*
X129360Y-94546D01*
X129341Y-94561D01*
X129304Y-94561D01*
X129285Y-94546D01*
X144407Y-102146D02*
X144422Y-102156D01*
X144437Y-102184D01*
X144437Y-102203D01*
X144422Y-102231D01*
X144392Y-102249D01*
X144362Y-102259D01*
X144302Y-102268D01*
X144257Y-102268D01*
X144197Y-102259D01*
X144167Y-102249D01*
X144137Y-102231D01*
X144122Y-102203D01*
X144122Y-102184D01*
X144137Y-102156D01*
X144152Y-102146D01*
X144122Y-101968D02*
X144122Y-102062D01*
X144272Y-102071D01*
X144257Y-102062D01*
X144242Y-102043D01*
X144242Y-101996D01*
X144257Y-101978D01*
X144272Y-101968D01*
X144302Y-101959D01*
X144377Y-101959D01*
X144407Y-101968D01*
X144422Y-101978D01*
X144437Y-101996D01*
X144437Y-102043D01*
X144422Y-102062D01*
X144407Y-102071D01*
X144437Y-101724D02*
X144437Y-101837D01*
X144437Y-101781D02*
X144122Y-101781D01*
X144167Y-101799D01*
X144197Y-101818D01*
X144212Y-101837D01*
X144122Y-101603D02*
X144122Y-101584D01*
X144137Y-101565D01*
X144152Y-101556D01*
X144182Y-101546D01*
X144242Y-101537D01*
X144317Y-101537D01*
X144377Y-101546D01*
X144407Y-101556D01*
X144422Y-101565D01*
X144437Y-101584D01*
X144437Y-101603D01*
X144422Y-101621D01*
X144407Y-101631D01*
X144377Y-101640D01*
X144317Y-101649D01*
X144242Y-101649D01*
X144182Y-101640D01*
X144152Y-101631D01*
X144137Y-101621D01*
X144122Y-101603D01*
X144227Y-101368D02*
X144437Y-101368D01*
X144227Y-101453D02*
X144392Y-101453D01*
X144422Y-101443D01*
X144437Y-101424D01*
X144437Y-101396D01*
X144422Y-101378D01*
X144407Y-101368D01*
X144272Y-101209D02*
X144272Y-101274D01*
X144437Y-101274D02*
X144122Y-101274D01*
X144122Y-101181D01*
X128452Y-101466D02*
X128442Y-101481D01*
X128414Y-101496D01*
X128395Y-101496D01*
X128367Y-101481D01*
X128349Y-101451D01*
X128339Y-101421D01*
X128330Y-101361D01*
X128330Y-101316D01*
X128339Y-101256D01*
X128349Y-101226D01*
X128367Y-101196D01*
X128395Y-101181D01*
X128414Y-101181D01*
X128442Y-101196D01*
X128452Y-101211D01*
X128620Y-101286D02*
X128620Y-101496D01*
X128574Y-101166D02*
X128527Y-101391D01*
X128649Y-101391D01*
X128353Y-101096D02*
X128241Y-101096D01*
X128297Y-101096D02*
X128297Y-100781D01*
X128278Y-100826D01*
X128260Y-100856D01*
X128241Y-100871D01*
X128475Y-100781D02*
X128494Y-100781D01*
X128513Y-100796D01*
X128522Y-100811D01*
X128531Y-100841D01*
X128541Y-100901D01*
X128541Y-100976D01*
X128531Y-101036D01*
X128522Y-101066D01*
X128513Y-101081D01*
X128494Y-101096D01*
X128475Y-101096D01*
X128456Y-101081D01*
X128447Y-101066D01*
X128438Y-101036D01*
X128428Y-100976D01*
X128428Y-100901D01*
X128438Y-100841D01*
X128447Y-100811D01*
X128456Y-100796D01*
X128475Y-100781D01*
X128709Y-100886D02*
X128709Y-101096D01*
X128663Y-100766D02*
X128616Y-100991D01*
X128738Y-100991D01*
X128629Y-96583D02*
X128619Y-96598D01*
X128591Y-96613D01*
X128572Y-96613D01*
X128544Y-96598D01*
X128526Y-96568D01*
X128516Y-96538D01*
X128507Y-96478D01*
X128507Y-96433D01*
X128516Y-96373D01*
X128526Y-96343D01*
X128544Y-96313D01*
X128572Y-96298D01*
X128591Y-96298D01*
X128619Y-96313D01*
X128629Y-96328D01*
X128694Y-96298D02*
X128816Y-96298D01*
X128751Y-96418D01*
X128779Y-96418D01*
X128797Y-96433D01*
X128807Y-96448D01*
X128816Y-96478D01*
X128816Y-96553D01*
X128807Y-96583D01*
X128797Y-96598D01*
X128779Y-96613D01*
X128722Y-96613D01*
X128704Y-96598D01*
X128694Y-96583D01*
X129030Y-96613D02*
X128918Y-96613D01*
X128974Y-96613D02*
X128974Y-96298D01*
X128955Y-96343D01*
X128937Y-96373D01*
X128918Y-96388D01*
X129152Y-96298D02*
X129171Y-96298D01*
X129190Y-96313D01*
X129199Y-96328D01*
X129208Y-96358D01*
X129218Y-96418D01*
X129218Y-96493D01*
X129208Y-96553D01*
X129199Y-96583D01*
X129190Y-96598D01*
X129171Y-96613D01*
X129152Y-96613D01*
X129133Y-96598D01*
X129124Y-96583D01*
X129115Y-96553D01*
X129105Y-96493D01*
X129105Y-96418D01*
X129115Y-96358D01*
X129124Y-96328D01*
X129133Y-96313D01*
X129152Y-96298D01*
X129386Y-96403D02*
X129386Y-96613D01*
X129340Y-96283D02*
X129293Y-96508D01*
X129415Y-96508D01*
X130609Y-101361D02*
X130599Y-101376D01*
X130571Y-101391D01*
X130552Y-101391D01*
X130524Y-101376D01*
X130506Y-101346D01*
X130496Y-101316D01*
X130487Y-101256D01*
X130487Y-101211D01*
X130496Y-101151D01*
X130506Y-101121D01*
X130524Y-101091D01*
X130552Y-101076D01*
X130571Y-101076D01*
X130599Y-101091D01*
X130609Y-101106D01*
X130684Y-101106D02*
X130693Y-101091D01*
X130712Y-101076D01*
X130759Y-101076D01*
X130777Y-101091D01*
X130787Y-101106D01*
X130796Y-101136D01*
X130796Y-101166D01*
X130787Y-101211D01*
X130674Y-101391D01*
X130796Y-101391D01*
X131010Y-101391D02*
X130898Y-101391D01*
X130954Y-101391D02*
X130954Y-101076D01*
X130935Y-101121D01*
X130917Y-101151D01*
X130898Y-101166D01*
X131132Y-101076D02*
X131151Y-101076D01*
X131170Y-101091D01*
X131179Y-101106D01*
X131188Y-101136D01*
X131198Y-101196D01*
X131198Y-101271D01*
X131188Y-101331D01*
X131179Y-101361D01*
X131170Y-101376D01*
X131151Y-101391D01*
X131132Y-101391D01*
X131113Y-101376D01*
X131104Y-101361D01*
X131095Y-101331D01*
X131085Y-101271D01*
X131085Y-101196D01*
X131095Y-101136D01*
X131104Y-101106D01*
X131113Y-101091D01*
X131132Y-101076D01*
X131366Y-101181D02*
X131366Y-101391D01*
X131320Y-101061D02*
X131273Y-101286D01*
X131395Y-101286D01*
X133127Y-97143D02*
X133117Y-97158D01*
X133089Y-97173D01*
X133070Y-97173D01*
X133042Y-97158D01*
X133024Y-97128D01*
X133014Y-97098D01*
X133005Y-97038D01*
X133005Y-96993D01*
X133014Y-96933D01*
X133024Y-96903D01*
X133042Y-96873D01*
X133070Y-96858D01*
X133089Y-96858D01*
X133117Y-96873D01*
X133127Y-96888D01*
X133314Y-97173D02*
X133202Y-97173D01*
X133258Y-97173D02*
X133258Y-96858D01*
X133239Y-96903D01*
X133220Y-96933D01*
X133202Y-96948D01*
X133028Y-97573D02*
X132916Y-97573D01*
X132972Y-97573D02*
X132972Y-97258D01*
X132953Y-97303D01*
X132935Y-97333D01*
X132916Y-97348D01*
X133150Y-97258D02*
X133169Y-97258D01*
X133188Y-97273D01*
X133197Y-97288D01*
X133206Y-97318D01*
X133216Y-97378D01*
X133216Y-97453D01*
X133206Y-97513D01*
X133197Y-97543D01*
X133188Y-97558D01*
X133169Y-97573D01*
X133150Y-97573D01*
X133131Y-97558D01*
X133122Y-97543D01*
X133113Y-97513D01*
X133103Y-97453D01*
X133103Y-97378D01*
X133113Y-97318D01*
X133122Y-97288D01*
X133131Y-97273D01*
X133150Y-97258D01*
X133384Y-97363D02*
X133384Y-97573D01*
X133338Y-97243D02*
X133291Y-97468D01*
X133413Y-97468D01*
X145997Y-100366D02*
X146025Y-100381D01*
X146072Y-100381D01*
X146091Y-100366D01*
X146100Y-100351D01*
X146110Y-100321D01*
X146110Y-100291D01*
X146100Y-100261D01*
X146091Y-100246D01*
X146072Y-100231D01*
X146035Y-100216D01*
X146016Y-100201D01*
X146006Y-100186D01*
X145997Y-100156D01*
X145997Y-100126D01*
X146006Y-100096D01*
X146016Y-100081D01*
X146035Y-100066D01*
X146081Y-100066D01*
X146110Y-100081D01*
X146175Y-100066D02*
X146222Y-100381D01*
X146260Y-100156D01*
X146297Y-100381D01*
X146344Y-100066D01*
X146400Y-100066D02*
X146531Y-100066D01*
X146447Y-100381D01*
X146152Y-99981D02*
X146086Y-99831D01*
X146039Y-99981D02*
X146039Y-99666D01*
X146114Y-99666D01*
X146133Y-99681D01*
X146142Y-99696D01*
X146152Y-99726D01*
X146152Y-99771D01*
X146142Y-99801D01*
X146133Y-99816D01*
X146114Y-99831D01*
X146039Y-99831D01*
X146227Y-99966D02*
X146255Y-99981D01*
X146302Y-99981D01*
X146320Y-99966D01*
X146330Y-99951D01*
X146339Y-99921D01*
X146339Y-99891D01*
X146330Y-99861D01*
X146320Y-99846D01*
X146302Y-99831D01*
X146264Y-99816D01*
X146245Y-99801D01*
X146236Y-99786D01*
X146227Y-99756D01*
X146227Y-99726D01*
X146236Y-99696D01*
X146245Y-99681D01*
X146264Y-99666D01*
X146311Y-99666D01*
X146339Y-99681D01*
X146395Y-99666D02*
X146508Y-99666D01*
X146452Y-99981D02*
X146452Y-99666D01*
X114453Y-94976D02*
X114481Y-94991D01*
X114528Y-94991D01*
X114547Y-94976D01*
X114556Y-94961D01*
X114566Y-94931D01*
X114566Y-94901D01*
X114556Y-94871D01*
X114547Y-94856D01*
X114528Y-94841D01*
X114491Y-94826D01*
X114472Y-94811D01*
X114463Y-94796D01*
X114453Y-94766D01*
X114453Y-94736D01*
X114463Y-94706D01*
X114472Y-94691D01*
X114491Y-94676D01*
X114538Y-94676D01*
X114566Y-94691D01*
X114631Y-94676D02*
X114678Y-94991D01*
X114716Y-94766D01*
X114753Y-94991D01*
X114800Y-94676D01*
X114978Y-94991D02*
X114866Y-94991D01*
X114922Y-94991D02*
X114922Y-94676D01*
X114903Y-94721D01*
X114884Y-94751D01*
X114866Y-94766D01*
X115100Y-94676D02*
X115119Y-94676D01*
X115138Y-94691D01*
X115147Y-94706D01*
X115156Y-94736D01*
X115166Y-94796D01*
X115166Y-94871D01*
X115156Y-94931D01*
X115147Y-94961D01*
X115138Y-94976D01*
X115119Y-94991D01*
X115100Y-94991D01*
X115081Y-94976D01*
X115072Y-94961D01*
X115063Y-94931D01*
X115053Y-94871D01*
X115053Y-94796D01*
X115063Y-94736D01*
X115072Y-94706D01*
X115081Y-94691D01*
X115100Y-94676D01*
X115470Y-94991D02*
X115377Y-94991D01*
X115377Y-94676D01*
X144803Y-94926D02*
X144831Y-94941D01*
X144878Y-94941D01*
X144897Y-94926D01*
X144906Y-94911D01*
X144916Y-94881D01*
X144916Y-94851D01*
X144906Y-94821D01*
X144897Y-94806D01*
X144878Y-94791D01*
X144841Y-94776D01*
X144822Y-94761D01*
X144813Y-94746D01*
X144803Y-94716D01*
X144803Y-94686D01*
X144813Y-94656D01*
X144822Y-94641D01*
X144841Y-94626D01*
X144888Y-94626D01*
X144916Y-94641D01*
X144981Y-94626D02*
X145028Y-94941D01*
X145066Y-94716D01*
X145103Y-94941D01*
X145150Y-94626D01*
X145328Y-94941D02*
X145216Y-94941D01*
X145272Y-94941D02*
X145272Y-94626D01*
X145253Y-94671D01*
X145234Y-94701D01*
X145216Y-94716D01*
X145516Y-94941D02*
X145403Y-94941D01*
X145459Y-94941D02*
X145459Y-94626D01*
X145441Y-94671D01*
X145422Y-94701D01*
X145403Y-94716D01*
X145770Y-94941D02*
X145705Y-94791D01*
X145658Y-94941D02*
X145658Y-94626D01*
X145733Y-94626D01*
X145752Y-94641D01*
X145761Y-94656D01*
X145770Y-94686D01*
X145770Y-94731D01*
X145761Y-94761D01*
X145752Y-94776D01*
X145733Y-94791D01*
X145658Y-94791D01*
X127403Y-102806D02*
X127431Y-102821D01*
X127478Y-102821D01*
X127497Y-102806D01*
X127506Y-102791D01*
X127516Y-102761D01*
X127516Y-102731D01*
X127506Y-102701D01*
X127497Y-102686D01*
X127478Y-102671D01*
X127441Y-102656D01*
X127422Y-102641D01*
X127413Y-102626D01*
X127403Y-102596D01*
X127403Y-102566D01*
X127413Y-102536D01*
X127422Y-102521D01*
X127441Y-102506D01*
X127488Y-102506D01*
X127516Y-102521D01*
X127581Y-102506D02*
X127628Y-102821D01*
X127666Y-102596D01*
X127703Y-102821D01*
X127750Y-102506D01*
X127928Y-102821D02*
X127816Y-102821D01*
X127872Y-102821D02*
X127872Y-102506D01*
X127853Y-102551D01*
X127834Y-102581D01*
X127816Y-102596D01*
X128003Y-102536D02*
X128013Y-102521D01*
X128031Y-102506D01*
X128078Y-102506D01*
X128097Y-102521D01*
X128106Y-102536D01*
X128116Y-102566D01*
X128116Y-102596D01*
X128106Y-102641D01*
X127994Y-102821D01*
X128116Y-102821D01*
X127272Y-102406D02*
X127300Y-102421D01*
X127347Y-102421D01*
X127366Y-102406D01*
X127375Y-102391D01*
X127385Y-102361D01*
X127385Y-102331D01*
X127375Y-102301D01*
X127366Y-102286D01*
X127347Y-102271D01*
X127310Y-102256D01*
X127291Y-102241D01*
X127281Y-102226D01*
X127272Y-102196D01*
X127272Y-102166D01*
X127281Y-102136D01*
X127291Y-102121D01*
X127310Y-102106D01*
X127356Y-102106D01*
X127385Y-102121D01*
X127469Y-102256D02*
X127535Y-102256D01*
X127563Y-102421D02*
X127469Y-102421D01*
X127469Y-102106D01*
X127563Y-102106D01*
X127741Y-102421D02*
X127647Y-102421D01*
X127647Y-102106D01*
X127806Y-102256D02*
X127872Y-102256D01*
X127900Y-102421D02*
X127806Y-102421D01*
X127806Y-102106D01*
X127900Y-102106D01*
X128097Y-102391D02*
X128088Y-102406D01*
X128059Y-102421D01*
X128041Y-102421D01*
X128013Y-102406D01*
X127994Y-102376D01*
X127984Y-102346D01*
X127975Y-102286D01*
X127975Y-102241D01*
X127984Y-102181D01*
X127994Y-102151D01*
X128013Y-102121D01*
X128041Y-102106D01*
X128059Y-102106D01*
X128088Y-102121D01*
X128097Y-102136D01*
X128153Y-102106D02*
X128266Y-102106D01*
X128209Y-102421D02*
X128209Y-102106D01*
X133853Y-102806D02*
X133881Y-102821D01*
X133928Y-102821D01*
X133947Y-102806D01*
X133956Y-102791D01*
X133966Y-102761D01*
X133966Y-102731D01*
X133956Y-102701D01*
X133947Y-102686D01*
X133928Y-102671D01*
X133891Y-102656D01*
X133872Y-102641D01*
X133863Y-102626D01*
X133853Y-102596D01*
X133853Y-102566D01*
X133863Y-102536D01*
X133872Y-102521D01*
X133891Y-102506D01*
X133938Y-102506D01*
X133966Y-102521D01*
X134031Y-102506D02*
X134078Y-102821D01*
X134116Y-102596D01*
X134153Y-102821D01*
X134200Y-102506D01*
X134378Y-102821D02*
X134266Y-102821D01*
X134322Y-102821D02*
X134322Y-102506D01*
X134303Y-102551D01*
X134284Y-102581D01*
X134266Y-102596D01*
X134444Y-102506D02*
X134566Y-102506D01*
X134500Y-102626D01*
X134528Y-102626D01*
X134547Y-102641D01*
X134556Y-102656D01*
X134566Y-102686D01*
X134566Y-102761D01*
X134556Y-102791D01*
X134547Y-102806D01*
X134528Y-102821D01*
X134472Y-102821D01*
X134453Y-102806D01*
X134444Y-102791D01*
X133820Y-102406D02*
X133849Y-102421D01*
X133895Y-102421D01*
X133914Y-102406D01*
X133924Y-102391D01*
X133933Y-102361D01*
X133933Y-102331D01*
X133924Y-102301D01*
X133914Y-102286D01*
X133895Y-102271D01*
X133858Y-102256D01*
X133839Y-102241D01*
X133830Y-102226D01*
X133820Y-102196D01*
X133820Y-102166D01*
X133830Y-102136D01*
X133839Y-102121D01*
X133858Y-102106D01*
X133905Y-102106D01*
X133933Y-102121D01*
X133989Y-102106D02*
X134102Y-102106D01*
X134045Y-102421D02*
X134045Y-102106D01*
X134158Y-102331D02*
X134252Y-102331D01*
X134139Y-102421D02*
X134205Y-102106D01*
X134270Y-102421D01*
X134449Y-102421D02*
X134383Y-102271D01*
X134336Y-102421D02*
X134336Y-102106D01*
X134411Y-102106D01*
X134430Y-102121D01*
X134439Y-102136D01*
X134449Y-102166D01*
X134449Y-102211D01*
X134439Y-102241D01*
X134430Y-102256D01*
X134411Y-102271D01*
X134336Y-102271D01*
X134505Y-102106D02*
X134617Y-102106D01*
X134561Y-102421D02*
X134561Y-102106D01*
X145903Y-102886D02*
X145931Y-102901D01*
X145978Y-102901D01*
X145997Y-102886D01*
X146006Y-102871D01*
X146016Y-102841D01*
X146016Y-102811D01*
X146006Y-102781D01*
X145997Y-102766D01*
X145978Y-102751D01*
X145941Y-102736D01*
X145922Y-102721D01*
X145913Y-102706D01*
X145903Y-102676D01*
X145903Y-102646D01*
X145913Y-102616D01*
X145922Y-102601D01*
X145941Y-102586D01*
X145988Y-102586D01*
X146016Y-102601D01*
X146081Y-102586D02*
X146128Y-102901D01*
X146166Y-102676D01*
X146203Y-102901D01*
X146250Y-102586D01*
X146428Y-102901D02*
X146316Y-102901D01*
X146372Y-102901D02*
X146372Y-102586D01*
X146353Y-102631D01*
X146334Y-102661D01*
X146316Y-102676D01*
X146597Y-102691D02*
X146597Y-102901D01*
X146550Y-102571D02*
X146503Y-102796D01*
X146625Y-102796D01*
X146101Y-102356D02*
X146130Y-102371D01*
X146139Y-102386D01*
X146148Y-102416D01*
X146148Y-102461D01*
X146139Y-102491D01*
X146130Y-102506D01*
X146111Y-102521D01*
X146036Y-102521D01*
X146036Y-102206D01*
X146101Y-102206D01*
X146120Y-102221D01*
X146130Y-102236D01*
X146139Y-102266D01*
X146139Y-102296D01*
X146130Y-102326D01*
X146120Y-102341D01*
X146101Y-102356D01*
X146036Y-102356D01*
X146233Y-102521D02*
X146233Y-102206D01*
X146345Y-102521D02*
X146261Y-102341D01*
X146345Y-102206D02*
X146233Y-102386D01*
X146533Y-102521D02*
X146420Y-102521D01*
X146476Y-102521D02*
X146476Y-102206D01*
X146458Y-102251D01*
X146439Y-102281D01*
X146420Y-102296D01*
X142923Y-102906D02*
X142951Y-102921D01*
X142998Y-102921D01*
X143017Y-102906D01*
X143026Y-102891D01*
X143036Y-102861D01*
X143036Y-102831D01*
X143026Y-102801D01*
X143017Y-102786D01*
X142998Y-102771D01*
X142961Y-102756D01*
X142942Y-102741D01*
X142933Y-102726D01*
X142923Y-102696D01*
X142923Y-102666D01*
X142933Y-102636D01*
X142942Y-102621D01*
X142961Y-102606D01*
X143008Y-102606D01*
X143036Y-102621D01*
X143101Y-102606D02*
X143148Y-102921D01*
X143186Y-102696D01*
X143223Y-102921D01*
X143270Y-102606D01*
X143448Y-102921D02*
X143336Y-102921D01*
X143392Y-102921D02*
X143392Y-102606D01*
X143373Y-102651D01*
X143354Y-102681D01*
X143336Y-102696D01*
X143626Y-102606D02*
X143533Y-102606D01*
X143523Y-102756D01*
X143533Y-102741D01*
X143551Y-102726D01*
X143598Y-102726D01*
X143617Y-102741D01*
X143626Y-102756D01*
X143636Y-102786D01*
X143636Y-102861D01*
X143626Y-102891D01*
X143617Y-102906D01*
X143598Y-102921D01*
X143551Y-102921D01*
X143533Y-102906D01*
X143523Y-102891D01*
X143081Y-102376D02*
X143110Y-102391D01*
X143119Y-102406D01*
X143128Y-102436D01*
X143128Y-102481D01*
X143119Y-102511D01*
X143110Y-102526D01*
X143091Y-102541D01*
X143016Y-102541D01*
X143016Y-102226D01*
X143081Y-102226D01*
X143100Y-102241D01*
X143110Y-102256D01*
X143119Y-102286D01*
X143119Y-102316D01*
X143110Y-102346D01*
X143100Y-102361D01*
X143081Y-102376D01*
X143016Y-102376D01*
X143213Y-102541D02*
X143213Y-102226D01*
X143325Y-102541D02*
X143241Y-102361D01*
X143325Y-102226D02*
X143213Y-102406D01*
X143400Y-102256D02*
X143409Y-102241D01*
X143428Y-102226D01*
X143475Y-102226D01*
X143494Y-102241D01*
X143503Y-102256D01*
X143513Y-102286D01*
X143513Y-102316D01*
X143503Y-102361D01*
X143391Y-102541D01*
X143513Y-102541D01*
X115493Y-102826D02*
X115521Y-102841D01*
X115568Y-102841D01*
X115587Y-102826D01*
X115596Y-102811D01*
X115606Y-102781D01*
X115606Y-102751D01*
X115596Y-102721D01*
X115587Y-102706D01*
X115568Y-102691D01*
X115531Y-102676D01*
X115512Y-102661D01*
X115503Y-102646D01*
X115493Y-102616D01*
X115493Y-102586D01*
X115503Y-102556D01*
X115512Y-102541D01*
X115531Y-102526D01*
X115578Y-102526D01*
X115606Y-102541D01*
X115671Y-102526D02*
X115718Y-102841D01*
X115756Y-102616D01*
X115793Y-102841D01*
X115840Y-102526D01*
X116018Y-102841D02*
X115906Y-102841D01*
X115962Y-102841D02*
X115962Y-102526D01*
X115943Y-102571D01*
X115924Y-102601D01*
X115906Y-102616D01*
X116187Y-102526D02*
X116149Y-102526D01*
X116131Y-102541D01*
X116121Y-102556D01*
X116103Y-102601D01*
X116093Y-102661D01*
X116093Y-102781D01*
X116103Y-102811D01*
X116112Y-102826D01*
X116131Y-102841D01*
X116168Y-102841D01*
X116187Y-102826D01*
X116196Y-102811D01*
X116206Y-102781D01*
X116206Y-102706D01*
X116196Y-102676D01*
X116187Y-102661D01*
X116168Y-102646D01*
X116131Y-102646D01*
X116112Y-102661D01*
X116103Y-102676D01*
X116093Y-102706D01*
X115651Y-102296D02*
X115680Y-102311D01*
X115689Y-102326D01*
X115698Y-102356D01*
X115698Y-102401D01*
X115689Y-102431D01*
X115680Y-102446D01*
X115661Y-102461D01*
X115586Y-102461D01*
X115586Y-102146D01*
X115651Y-102146D01*
X115670Y-102161D01*
X115680Y-102176D01*
X115689Y-102206D01*
X115689Y-102236D01*
X115680Y-102266D01*
X115670Y-102281D01*
X115651Y-102296D01*
X115586Y-102296D01*
X115783Y-102461D02*
X115783Y-102146D01*
X115895Y-102461D02*
X115811Y-102281D01*
X115895Y-102146D02*
X115783Y-102326D01*
X115961Y-102146D02*
X116083Y-102146D01*
X116017Y-102266D01*
X116045Y-102266D01*
X116064Y-102281D01*
X116073Y-102296D01*
X116083Y-102326D01*
X116083Y-102401D01*
X116073Y-102431D01*
X116064Y-102446D01*
X116045Y-102461D01*
X115989Y-102461D01*
X115970Y-102446D01*
X115961Y-102431D01*
X118503Y-102786D02*
X118531Y-102801D01*
X118578Y-102801D01*
X118597Y-102786D01*
X118606Y-102771D01*
X118616Y-102741D01*
X118616Y-102711D01*
X118606Y-102681D01*
X118597Y-102666D01*
X118578Y-102651D01*
X118541Y-102636D01*
X118522Y-102621D01*
X118513Y-102606D01*
X118503Y-102576D01*
X118503Y-102546D01*
X118513Y-102516D01*
X118522Y-102501D01*
X118541Y-102486D01*
X118588Y-102486D01*
X118616Y-102501D01*
X118681Y-102486D02*
X118728Y-102801D01*
X118766Y-102576D01*
X118803Y-102801D01*
X118850Y-102486D01*
X119028Y-102801D02*
X118916Y-102801D01*
X118972Y-102801D02*
X118972Y-102486D01*
X118953Y-102531D01*
X118934Y-102561D01*
X118916Y-102576D01*
X119094Y-102486D02*
X119225Y-102486D01*
X119141Y-102801D01*
X118661Y-102256D02*
X118690Y-102271D01*
X118699Y-102286D01*
X118708Y-102316D01*
X118708Y-102361D01*
X118699Y-102391D01*
X118690Y-102406D01*
X118671Y-102421D01*
X118596Y-102421D01*
X118596Y-102106D01*
X118661Y-102106D01*
X118680Y-102121D01*
X118690Y-102136D01*
X118699Y-102166D01*
X118699Y-102196D01*
X118690Y-102226D01*
X118680Y-102241D01*
X118661Y-102256D01*
X118596Y-102256D01*
X118793Y-102421D02*
X118793Y-102106D01*
X118905Y-102421D02*
X118821Y-102241D01*
X118905Y-102106D02*
X118793Y-102286D01*
X119074Y-102211D02*
X119074Y-102421D01*
X119027Y-102091D02*
X118980Y-102316D01*
X119102Y-102316D01*
X130394Y-102656D02*
X130394Y-102881D01*
X130385Y-102926D01*
X130366Y-102956D01*
X130338Y-102971D01*
X130319Y-102971D01*
X130591Y-102971D02*
X130478Y-102971D01*
X130534Y-102971D02*
X130534Y-102656D01*
X130516Y-102701D01*
X130497Y-102731D01*
X130478Y-102746D01*
X129338Y-102656D02*
X129338Y-102911D01*
X129347Y-102941D01*
X129356Y-102956D01*
X129375Y-102971D01*
X129413Y-102971D01*
X129431Y-102956D01*
X129441Y-102941D01*
X129450Y-102911D01*
X129450Y-102656D01*
X129535Y-102956D02*
X129563Y-102971D01*
X129610Y-102971D01*
X129628Y-102956D01*
X129638Y-102941D01*
X129647Y-102911D01*
X129647Y-102881D01*
X129638Y-102851D01*
X129628Y-102836D01*
X129610Y-102821D01*
X129572Y-102806D01*
X129553Y-102791D01*
X129544Y-102776D01*
X129535Y-102746D01*
X129535Y-102716D01*
X129544Y-102686D01*
X129553Y-102671D01*
X129572Y-102656D01*
X129619Y-102656D01*
X129647Y-102671D01*
X129797Y-102806D02*
X129825Y-102821D01*
X129834Y-102836D01*
X129844Y-102866D01*
X129844Y-102911D01*
X129834Y-102941D01*
X129825Y-102956D01*
X129806Y-102971D01*
X129731Y-102971D01*
X129731Y-102656D01*
X129797Y-102656D01*
X129816Y-102671D01*
X129825Y-102686D01*
X129834Y-102716D01*
X129834Y-102746D01*
X129825Y-102776D01*
X129816Y-102791D01*
X129797Y-102806D01*
X129731Y-102806D01*
X129881Y-103001D02*
X130031Y-103001D01*
X130144Y-102806D02*
X130172Y-102821D01*
X130181Y-102836D01*
X130191Y-102866D01*
X130191Y-102911D01*
X130181Y-102941D01*
X130172Y-102956D01*
X130153Y-102971D01*
X130078Y-102971D01*
X130078Y-102656D01*
X130144Y-102656D01*
X130163Y-102671D01*
X130172Y-102686D01*
X130181Y-102716D01*
X130181Y-102746D01*
X130172Y-102776D01*
X130163Y-102791D01*
X130144Y-102806D01*
X130078Y-102806D01*
X133084Y-93761D02*
X133084Y-93446D01*
X133159Y-93446D01*
X133178Y-93461D01*
X133187Y-93476D01*
X133197Y-93506D01*
X133197Y-93551D01*
X133187Y-93581D01*
X133178Y-93596D01*
X133159Y-93611D01*
X133084Y-93611D01*
X133384Y-93761D02*
X133272Y-93761D01*
X133328Y-93761D02*
X133328Y-93446D01*
X133309Y-93491D01*
X133290Y-93521D01*
X133272Y-93536D01*
X129750Y-97864D02*
X129750Y-98119D01*
X129759Y-98149D01*
X129768Y-98164D01*
X129787Y-98179D01*
X129825Y-98179D01*
X129843Y-98164D01*
X129853Y-98149D01*
X129862Y-98119D01*
X129862Y-97864D01*
X130059Y-98179D02*
X129946Y-98179D01*
X130003Y-98179D02*
X130003Y-97864D01*
X129984Y-97909D01*
X129965Y-97939D01*
X129946Y-97954D01*
X129574Y-98556D02*
X129602Y-98571D01*
X129649Y-98571D01*
X129668Y-98556D01*
X129677Y-98541D01*
X129686Y-98511D01*
X129686Y-98481D01*
X129677Y-98451D01*
X129668Y-98436D01*
X129649Y-98421D01*
X129611Y-98406D01*
X129593Y-98391D01*
X129583Y-98376D01*
X129574Y-98346D01*
X129574Y-98316D01*
X129583Y-98286D01*
X129593Y-98271D01*
X129611Y-98256D01*
X129658Y-98256D01*
X129686Y-98271D01*
X129743Y-98256D02*
X129855Y-98256D01*
X129799Y-98571D02*
X129799Y-98256D01*
X129921Y-98571D02*
X129921Y-98256D01*
X129986Y-98481D01*
X130052Y-98256D01*
X130052Y-98571D01*
X130127Y-98256D02*
X130249Y-98256D01*
X130183Y-98376D01*
X130211Y-98376D01*
X130230Y-98391D01*
X130239Y-98406D01*
X130249Y-98436D01*
X130249Y-98511D01*
X130239Y-98541D01*
X130230Y-98556D01*
X130211Y-98571D01*
X130155Y-98571D01*
X130136Y-98556D01*
X130127Y-98541D01*
X130324Y-98286D02*
X130333Y-98271D01*
X130352Y-98256D01*
X130399Y-98256D01*
X130417Y-98271D01*
X130427Y-98286D01*
X130436Y-98316D01*
X130436Y-98346D01*
X130427Y-98391D01*
X130314Y-98571D01*
X130436Y-98571D01*
X130586Y-98406D02*
X130521Y-98406D01*
X130521Y-98571D02*
X130521Y-98256D01*
X130614Y-98256D01*
X130792Y-98571D02*
X130680Y-98571D01*
X130736Y-98571D02*
X130736Y-98256D01*
X130717Y-98301D01*
X130699Y-98331D01*
X130680Y-98346D01*
X130914Y-98256D02*
X130933Y-98256D01*
X130952Y-98271D01*
X130961Y-98286D01*
X130971Y-98316D01*
X130980Y-98376D01*
X130980Y-98451D01*
X130971Y-98511D01*
X130961Y-98541D01*
X130952Y-98556D01*
X130933Y-98571D01*
X130914Y-98571D01*
X130896Y-98556D01*
X130886Y-98541D01*
X130877Y-98511D01*
X130867Y-98451D01*
X130867Y-98376D01*
X130877Y-98316D01*
X130886Y-98286D01*
X130896Y-98271D01*
X130914Y-98256D01*
X131046Y-98256D02*
X131167Y-98256D01*
X131102Y-98376D01*
X131130Y-98376D01*
X131149Y-98391D01*
X131158Y-98406D01*
X131167Y-98436D01*
X131167Y-98511D01*
X131158Y-98541D01*
X131149Y-98556D01*
X131130Y-98571D01*
X131074Y-98571D01*
X131055Y-98556D01*
X131046Y-98541D01*
X131205Y-98601D02*
X131355Y-98601D01*
X131486Y-98361D02*
X131486Y-98571D01*
X131439Y-98241D02*
X131392Y-98466D01*
X131514Y-98466D01*
X131617Y-98391D02*
X131599Y-98376D01*
X131589Y-98361D01*
X131580Y-98331D01*
X131580Y-98316D01*
X131589Y-98286D01*
X131599Y-98271D01*
X131617Y-98256D01*
X131655Y-98256D01*
X131674Y-98271D01*
X131683Y-98286D01*
X131692Y-98316D01*
X131692Y-98331D01*
X131683Y-98361D01*
X131674Y-98376D01*
X131655Y-98391D01*
X131617Y-98391D01*
X131599Y-98406D01*
X131589Y-98421D01*
X131580Y-98451D01*
X131580Y-98511D01*
X131589Y-98541D01*
X131599Y-98556D01*
X131617Y-98571D01*
X131655Y-98571D01*
X131674Y-98556D01*
X131683Y-98541D01*
X131692Y-98511D01*
X131692Y-98451D01*
X131683Y-98421D01*
X131674Y-98406D01*
X131655Y-98391D01*
X131777Y-98571D02*
X131777Y-98256D01*
X131852Y-98256D01*
X131870Y-98271D01*
X131880Y-98286D01*
X131889Y-98316D01*
X131889Y-98361D01*
X131880Y-98391D01*
X131870Y-98406D01*
X131852Y-98421D01*
X131777Y-98421D01*
X131974Y-98571D02*
X131974Y-98256D01*
X132067Y-98571D02*
X132067Y-98256D01*
X132180Y-98571D01*
X132180Y-98256D01*
X117217Y-100796D02*
X117067Y-100862D01*
X117217Y-100909D02*
X116902Y-100909D01*
X116902Y-100834D01*
X116917Y-100815D01*
X116932Y-100806D01*
X116962Y-100796D01*
X117007Y-100796D01*
X117037Y-100806D01*
X117052Y-100815D01*
X117067Y-100834D01*
X117067Y-100909D01*
X116932Y-100721D02*
X116917Y-100712D01*
X116902Y-100693D01*
X116902Y-100646D01*
X116917Y-100628D01*
X116932Y-100618D01*
X116962Y-100609D01*
X116992Y-100609D01*
X117037Y-100618D01*
X117217Y-100731D01*
X117217Y-100609D01*
X117217Y-101506D02*
X117217Y-101619D01*
X117217Y-101563D02*
X116902Y-101563D01*
X116947Y-101581D01*
X116977Y-101600D01*
X116992Y-101619D01*
X117187Y-101422D02*
X117202Y-101413D01*
X117217Y-101422D01*
X117202Y-101431D01*
X117187Y-101422D01*
X117217Y-101422D01*
X116902Y-101234D02*
X116902Y-101328D01*
X117052Y-101338D01*
X117037Y-101328D01*
X117022Y-101309D01*
X117022Y-101263D01*
X117037Y-101244D01*
X117052Y-101234D01*
X117082Y-101225D01*
X117157Y-101225D01*
X117187Y-101234D01*
X117202Y-101244D01*
X117217Y-101263D01*
X117217Y-101309D01*
X117202Y-101328D01*
X117187Y-101338D01*
X117217Y-101141D02*
X116902Y-101141D01*
X117217Y-101028D02*
X117037Y-101113D01*
X116902Y-101028D02*
X117082Y-101141D01*
M02*
