G04 (created by PCBNEW (22-Jun-2014 BZR 4027)-stable) date Thu 28 Jun 2018 06:15:12 PM CST*
%MOIN*%
G04 Gerber Fmt 3.4, Leading zero omitted, Abs format*
%FSLAX34Y34*%
G01*
G70*
G90*
G04 APERTURE LIST*
%ADD10C,0.00393701*%
%ADD11C,0.011811*%
%ADD12R,0.149606X0.0787402*%
%ADD13R,0.0590551X0.0787402*%
%ADD14R,0.0472441X0.0295276*%
%ADD15R,0.0787402X0.177165*%
%ADD16R,0.177165X0.0787402*%
%ADD17R,0.0787402X0.0944882*%
%ADD18R,0.0295276X0.0472441*%
%ADD19R,0.0787402X0.0787402*%
%ADD20R,0.0393701X0.0787402*%
%ADD21R,0.055X0.055*%
%ADD22C,0.055*%
%ADD23R,0.0110236X0.0590551*%
%ADD24R,0.019685X0.0590551*%
%ADD25R,0.0590551X0.019685*%
%ADD26R,0.0590551X0.0110236*%
%ADD27C,0.023622*%
%ADD28C,0.00708661*%
%ADD29C,0.01*%
G04 APERTURE END LIST*
G54D10*
G54D11*
X122099Y-108926D02*
X122043Y-108898D01*
X121958Y-108898D01*
X121874Y-108926D01*
X121818Y-108982D01*
X121789Y-109039D01*
X121761Y-109151D01*
X121761Y-109235D01*
X121789Y-109348D01*
X121818Y-109404D01*
X121874Y-109460D01*
X121958Y-109489D01*
X122014Y-109489D01*
X122099Y-109460D01*
X122127Y-109432D01*
X122127Y-109235D01*
X122014Y-109235D01*
X122633Y-109489D02*
X122633Y-109179D01*
X122605Y-109123D01*
X122549Y-109095D01*
X122436Y-109095D01*
X122380Y-109123D01*
X122633Y-109460D02*
X122577Y-109489D01*
X122436Y-109489D01*
X122380Y-109460D01*
X122352Y-109404D01*
X122352Y-109348D01*
X122380Y-109292D01*
X122436Y-109264D01*
X122577Y-109264D01*
X122633Y-109235D01*
X122914Y-109489D02*
X122914Y-109095D01*
X122914Y-109151D02*
X122942Y-109123D01*
X122999Y-109095D01*
X123083Y-109095D01*
X123139Y-109123D01*
X123167Y-109179D01*
X123167Y-109489D01*
X123167Y-109179D02*
X123196Y-109123D01*
X123252Y-109095D01*
X123336Y-109095D01*
X123392Y-109123D01*
X123421Y-109179D01*
X123421Y-109489D01*
X123927Y-109460D02*
X123870Y-109489D01*
X123758Y-109489D01*
X123702Y-109460D01*
X123674Y-109404D01*
X123674Y-109179D01*
X123702Y-109123D01*
X123758Y-109095D01*
X123870Y-109095D01*
X123927Y-109123D01*
X123955Y-109179D01*
X123955Y-109235D01*
X123674Y-109292D01*
X124208Y-109095D02*
X124208Y-109685D01*
X124208Y-109123D02*
X124264Y-109095D01*
X124377Y-109095D01*
X124433Y-109123D01*
X124461Y-109151D01*
X124489Y-109207D01*
X124489Y-109376D01*
X124461Y-109432D01*
X124433Y-109460D01*
X124377Y-109489D01*
X124264Y-109489D01*
X124208Y-109460D01*
X124995Y-109489D02*
X124995Y-109179D01*
X124967Y-109123D01*
X124911Y-109095D01*
X124798Y-109095D01*
X124742Y-109123D01*
X124995Y-109460D02*
X124939Y-109489D01*
X124798Y-109489D01*
X124742Y-109460D01*
X124714Y-109404D01*
X124714Y-109348D01*
X124742Y-109292D01*
X124798Y-109264D01*
X124939Y-109264D01*
X124995Y-109235D01*
X125530Y-109489D02*
X125530Y-108898D01*
X125530Y-109460D02*
X125473Y-109489D01*
X125361Y-109489D01*
X125305Y-109460D01*
X125277Y-109432D01*
X125248Y-109376D01*
X125248Y-109207D01*
X125277Y-109151D01*
X125305Y-109123D01*
X125361Y-109095D01*
X125473Y-109095D01*
X125530Y-109123D01*
X126176Y-109095D02*
X126401Y-109095D01*
X126261Y-109489D02*
X126261Y-108982D01*
X126289Y-108926D01*
X126345Y-108898D01*
X126401Y-108898D01*
X126683Y-109489D02*
X126626Y-109460D01*
X126598Y-109432D01*
X126570Y-109376D01*
X126570Y-109207D01*
X126598Y-109151D01*
X126626Y-109123D01*
X126683Y-109095D01*
X126767Y-109095D01*
X126823Y-109123D01*
X126851Y-109151D01*
X126879Y-109207D01*
X126879Y-109376D01*
X126851Y-109432D01*
X126823Y-109460D01*
X126767Y-109489D01*
X126683Y-109489D01*
X127133Y-109489D02*
X127133Y-109095D01*
X127133Y-109207D02*
X127161Y-109151D01*
X127189Y-109123D01*
X127245Y-109095D01*
X127301Y-109095D01*
X128145Y-109179D02*
X128229Y-109207D01*
X128257Y-109235D01*
X128286Y-109292D01*
X128286Y-109376D01*
X128257Y-109432D01*
X128229Y-109460D01*
X128173Y-109489D01*
X127948Y-109489D01*
X127948Y-108898D01*
X128145Y-108898D01*
X128201Y-108926D01*
X128229Y-108954D01*
X128257Y-109010D01*
X128257Y-109067D01*
X128229Y-109123D01*
X128201Y-109151D01*
X128145Y-109179D01*
X127948Y-109179D01*
X128623Y-109489D02*
X128567Y-109460D01*
X128539Y-109404D01*
X128539Y-108898D01*
X129101Y-109489D02*
X129101Y-109179D01*
X129073Y-109123D01*
X129017Y-109095D01*
X128904Y-109095D01*
X128848Y-109123D01*
X129101Y-109460D02*
X129045Y-109489D01*
X128904Y-109489D01*
X128848Y-109460D01*
X128820Y-109404D01*
X128820Y-109348D01*
X128848Y-109292D01*
X128904Y-109264D01*
X129045Y-109264D01*
X129101Y-109235D01*
X129635Y-109460D02*
X129579Y-109489D01*
X129467Y-109489D01*
X129410Y-109460D01*
X129382Y-109432D01*
X129354Y-109376D01*
X129354Y-109207D01*
X129382Y-109151D01*
X129410Y-109123D01*
X129467Y-109095D01*
X129579Y-109095D01*
X129635Y-109123D01*
X129888Y-109489D02*
X129888Y-108898D01*
X129945Y-109264D02*
X130113Y-109489D01*
X130113Y-109095D02*
X129888Y-109320D01*
X130367Y-109489D02*
X130367Y-108898D01*
X130367Y-109123D02*
X130423Y-109095D01*
X130535Y-109095D01*
X130592Y-109123D01*
X130620Y-109151D01*
X130648Y-109207D01*
X130648Y-109376D01*
X130620Y-109432D01*
X130592Y-109460D01*
X130535Y-109489D01*
X130423Y-109489D01*
X130367Y-109460D01*
X131126Y-109460D02*
X131070Y-109489D01*
X130957Y-109489D01*
X130901Y-109460D01*
X130873Y-109404D01*
X130873Y-109179D01*
X130901Y-109123D01*
X130957Y-109095D01*
X131070Y-109095D01*
X131126Y-109123D01*
X131154Y-109179D01*
X131154Y-109235D01*
X130873Y-109292D01*
X131407Y-109489D02*
X131407Y-109095D01*
X131407Y-109207D02*
X131435Y-109151D01*
X131463Y-109123D01*
X131520Y-109095D01*
X131576Y-109095D01*
X131773Y-109489D02*
X131773Y-109095D01*
X131773Y-109207D02*
X131801Y-109151D01*
X131829Y-109123D01*
X131885Y-109095D01*
X131941Y-109095D01*
X132082Y-109095D02*
X132223Y-109489D01*
X132363Y-109095D02*
X132223Y-109489D01*
X132166Y-109629D01*
X132138Y-109657D01*
X132082Y-109685D01*
X133038Y-109489D02*
X133038Y-108898D01*
X133263Y-108898D01*
X133319Y-108926D01*
X133347Y-108954D01*
X133376Y-109010D01*
X133376Y-109095D01*
X133347Y-109151D01*
X133319Y-109179D01*
X133263Y-109207D01*
X133038Y-109207D01*
X133882Y-109489D02*
X133882Y-109179D01*
X133854Y-109123D01*
X133797Y-109095D01*
X133685Y-109095D01*
X133629Y-109123D01*
X133882Y-109460D02*
X133825Y-109489D01*
X133685Y-109489D01*
X133629Y-109460D01*
X133601Y-109404D01*
X133601Y-109348D01*
X133629Y-109292D01*
X133685Y-109264D01*
X133825Y-109264D01*
X133882Y-109235D01*
X134135Y-109460D02*
X134191Y-109489D01*
X134304Y-109489D01*
X134360Y-109460D01*
X134388Y-109404D01*
X134388Y-109376D01*
X134360Y-109320D01*
X134304Y-109292D01*
X134219Y-109292D01*
X134163Y-109264D01*
X134135Y-109207D01*
X134135Y-109179D01*
X134163Y-109123D01*
X134219Y-109095D01*
X134304Y-109095D01*
X134360Y-109123D01*
X134613Y-109460D02*
X134669Y-109489D01*
X134782Y-109489D01*
X134838Y-109460D01*
X134866Y-109404D01*
X134866Y-109376D01*
X134838Y-109320D01*
X134782Y-109292D01*
X134697Y-109292D01*
X134641Y-109264D01*
X134613Y-109207D01*
X134613Y-109179D01*
X134641Y-109123D01*
X134697Y-109095D01*
X134782Y-109095D01*
X134838Y-109123D01*
X135119Y-109095D02*
X135119Y-109685D01*
X135119Y-109123D02*
X135175Y-109095D01*
X135288Y-109095D01*
X135344Y-109123D01*
X135372Y-109151D01*
X135400Y-109207D01*
X135400Y-109376D01*
X135372Y-109432D01*
X135344Y-109460D01*
X135288Y-109489D01*
X135175Y-109489D01*
X135119Y-109460D01*
X135738Y-109489D02*
X135682Y-109460D01*
X135653Y-109432D01*
X135625Y-109376D01*
X135625Y-109207D01*
X135653Y-109151D01*
X135682Y-109123D01*
X135738Y-109095D01*
X135822Y-109095D01*
X135878Y-109123D01*
X135906Y-109151D01*
X135935Y-109207D01*
X135935Y-109376D01*
X135906Y-109432D01*
X135878Y-109460D01*
X135822Y-109489D01*
X135738Y-109489D01*
X136188Y-109489D02*
X136188Y-109095D01*
X136188Y-109207D02*
X136216Y-109151D01*
X136244Y-109123D01*
X136300Y-109095D01*
X136356Y-109095D01*
X136469Y-109095D02*
X136694Y-109095D01*
X136553Y-108898D02*
X136553Y-109404D01*
X136581Y-109460D01*
X136638Y-109489D01*
X136694Y-109489D01*
G54D12*
X115830Y-98813D03*
G54D13*
X115830Y-101294D03*
X116735Y-101294D03*
X114924Y-101294D03*
G54D14*
X146014Y-99274D03*
X145265Y-99274D03*
G54D15*
X121887Y-94394D03*
X122832Y-94394D03*
X140232Y-94394D03*
X139287Y-94394D03*
X140232Y-100394D03*
X139287Y-100394D03*
X121887Y-100394D03*
X122832Y-100394D03*
G54D16*
X142760Y-96921D03*
X142760Y-97866D03*
X125360Y-96921D03*
X125360Y-97866D03*
X119360Y-96921D03*
X119360Y-97866D03*
X136760Y-96921D03*
X136760Y-97866D03*
G54D17*
X130102Y-95444D03*
X131717Y-95444D03*
G54D14*
X132034Y-94244D03*
X131285Y-94244D03*
X129785Y-94244D03*
X130534Y-94244D03*
G54D18*
X144460Y-100039D03*
X144460Y-100788D03*
X128460Y-100418D03*
X128460Y-99669D03*
G54D14*
X129787Y-96636D03*
X130536Y-96636D03*
X132516Y-101414D03*
X131767Y-101414D03*
G54D18*
X133210Y-97971D03*
X133210Y-98720D03*
G54D19*
X145260Y-101254D03*
X145260Y-100054D03*
X147260Y-100054D03*
X147260Y-101254D03*
X114860Y-94114D03*
X114860Y-92914D03*
X116860Y-92914D03*
X116860Y-94114D03*
X145260Y-94114D03*
X145260Y-92914D03*
X147260Y-92914D03*
X147260Y-94114D03*
X126760Y-103694D03*
X126760Y-102494D03*
X128760Y-102494D03*
X128760Y-103694D03*
X133260Y-103694D03*
X133260Y-102494D03*
X135260Y-102494D03*
X135260Y-103694D03*
X145260Y-103694D03*
X145260Y-102494D03*
X147260Y-102494D03*
X147260Y-103694D03*
X142260Y-103694D03*
X142260Y-102494D03*
X144260Y-102494D03*
X144260Y-103694D03*
X114860Y-103694D03*
X114860Y-102494D03*
X116860Y-102494D03*
X116860Y-103694D03*
X117860Y-103694D03*
X117860Y-102494D03*
X119860Y-102494D03*
X119860Y-103694D03*
G54D20*
X129710Y-103594D03*
X130360Y-103594D03*
X131010Y-103594D03*
X131660Y-103594D03*
X132310Y-103594D03*
G54D21*
X132480Y-93234D03*
G54D22*
X131480Y-93234D03*
X130480Y-93234D03*
X129480Y-93234D03*
G54D23*
X131352Y-97301D03*
X131155Y-97301D03*
X130958Y-97301D03*
X130761Y-97301D03*
X130564Y-97301D03*
G54D24*
X131982Y-97301D03*
G54D23*
X131745Y-97301D03*
X131548Y-97301D03*
G54D25*
X129117Y-97921D03*
G54D26*
X129117Y-98158D03*
X129117Y-98355D03*
X129117Y-98551D03*
X129117Y-98748D03*
X129117Y-98945D03*
X129117Y-99142D03*
X129117Y-99339D03*
G54D24*
X129737Y-100786D03*
G54D23*
X129974Y-100786D03*
X130171Y-100786D03*
X130367Y-100786D03*
X130564Y-100786D03*
X130761Y-100786D03*
X130958Y-100786D03*
X131155Y-100786D03*
G54D25*
X132602Y-100166D03*
G54D26*
X132602Y-99929D03*
X132602Y-99732D03*
X132602Y-99536D03*
X132602Y-99339D03*
X132602Y-99142D03*
X132602Y-98945D03*
X132602Y-98748D03*
G54D23*
X130367Y-97301D03*
X130171Y-97301D03*
X129974Y-97301D03*
G54D24*
X129737Y-97301D03*
G54D26*
X129117Y-99536D03*
X129117Y-99732D03*
X129117Y-99929D03*
G54D25*
X129117Y-100166D03*
G54D23*
X131352Y-100786D03*
X131548Y-100786D03*
X131745Y-100786D03*
G54D24*
X131982Y-100786D03*
G54D26*
X132602Y-98551D03*
X132602Y-98355D03*
X132602Y-98158D03*
G54D25*
X132602Y-97921D03*
G54D18*
X117570Y-101278D03*
X117570Y-100529D03*
G54D27*
X133546Y-97926D03*
X129652Y-99546D03*
X115834Y-100174D03*
X129652Y-100176D03*
X131980Y-100168D03*
X129710Y-103594D03*
X117234Y-101282D03*
X115862Y-103694D03*
X114932Y-100576D03*
X127742Y-103694D03*
X134280Y-103690D03*
X146272Y-103694D03*
X146290Y-101248D03*
X144034Y-96926D03*
X144026Y-100788D03*
X144030Y-94110D03*
X121876Y-96204D03*
X125364Y-96212D03*
X130516Y-96210D03*
X133860Y-100156D03*
X131488Y-98408D03*
X131352Y-102689D03*
X117976Y-100534D03*
G54D28*
X133210Y-97971D02*
X133210Y-97662D01*
X146014Y-97158D02*
X146014Y-99274D01*
X145078Y-96222D02*
X146014Y-97158D01*
X134650Y-96222D02*
X145078Y-96222D01*
X133210Y-97662D02*
X134650Y-96222D01*
X133500Y-97971D02*
X133210Y-97971D01*
X133546Y-97926D02*
X133500Y-97971D01*
X130367Y-97301D02*
X130367Y-98830D01*
X130367Y-98830D02*
X129652Y-99546D01*
X115830Y-100178D02*
X115830Y-101294D01*
X115834Y-100174D02*
X115830Y-100178D01*
X129117Y-100166D02*
X129642Y-100166D01*
X129642Y-100166D02*
X129652Y-100176D01*
X131982Y-100170D02*
X131982Y-100786D01*
X131980Y-100168D02*
X131982Y-100170D01*
X129480Y-93234D02*
X129480Y-93274D01*
X129220Y-96068D02*
X129787Y-96636D01*
X129220Y-93534D02*
X129220Y-96068D01*
X129480Y-93274D02*
X129220Y-93534D01*
X130367Y-97301D02*
X130367Y-96995D01*
X130367Y-96995D02*
X130268Y-96896D01*
X130268Y-96896D02*
X130047Y-96896D01*
X130047Y-96896D02*
X129787Y-96636D01*
X129117Y-100166D02*
X128711Y-100166D01*
X128711Y-100166D02*
X128460Y-100418D01*
X132602Y-97921D02*
X133159Y-97921D01*
X133159Y-97921D02*
X133210Y-97971D01*
X131982Y-100786D02*
X132434Y-100786D01*
X132434Y-100786D02*
X132516Y-100868D01*
X132516Y-100868D02*
X132516Y-101414D01*
X117234Y-101282D02*
X117234Y-101294D01*
X117234Y-101294D02*
X117234Y-101282D01*
X117234Y-101282D02*
X117234Y-101294D01*
X116735Y-101294D02*
X117234Y-101294D01*
X117234Y-101294D02*
X117553Y-101294D01*
X117553Y-101294D02*
X117570Y-101278D01*
X141484Y-99142D02*
X142693Y-99142D01*
X132602Y-99142D02*
X141484Y-99142D01*
X142760Y-99076D02*
X142760Y-97866D01*
X142693Y-99142D02*
X142760Y-99076D01*
X132602Y-99339D02*
X138232Y-99339D01*
X138232Y-99339D02*
X139287Y-100394D01*
X132602Y-99536D02*
X136512Y-99536D01*
X144630Y-101864D02*
X145260Y-102494D01*
X138840Y-101864D02*
X144630Y-101864D01*
X136512Y-99536D02*
X138840Y-101864D01*
X145260Y-102494D02*
X147260Y-102494D01*
X132602Y-99732D02*
X136432Y-99732D01*
X139194Y-102494D02*
X142260Y-102494D01*
X136432Y-99732D02*
X139194Y-102494D01*
X142260Y-102494D02*
X144260Y-102494D01*
X130564Y-100786D02*
X130564Y-101585D01*
X117634Y-101720D02*
X116860Y-102494D01*
X130430Y-101720D02*
X117634Y-101720D01*
X130564Y-101585D02*
X130430Y-101720D01*
X114860Y-102494D02*
X116860Y-102494D01*
X130761Y-100786D02*
X130761Y-101714D01*
X120440Y-101914D02*
X119860Y-102494D01*
X130562Y-101914D02*
X120440Y-101914D01*
X130761Y-101714D02*
X130562Y-101914D01*
X117860Y-102494D02*
X119860Y-102494D01*
X130171Y-100786D02*
X130171Y-101268D01*
X123780Y-101342D02*
X122832Y-100394D01*
X130098Y-101342D02*
X123780Y-101342D01*
X130171Y-101268D02*
X130098Y-101342D01*
X114932Y-100576D02*
X114924Y-100576D01*
X114924Y-100576D02*
X114932Y-100576D01*
X114932Y-100576D02*
X114924Y-100576D01*
X134280Y-103690D02*
X134280Y-103694D01*
X134280Y-103694D02*
X134280Y-103690D01*
X134280Y-103690D02*
X134280Y-103694D01*
X133210Y-98720D02*
X139613Y-98720D01*
X139760Y-98574D02*
X139760Y-96921D01*
X139613Y-98720D02*
X139760Y-98574D01*
X146290Y-101248D02*
X146290Y-101254D01*
X146290Y-101254D02*
X146290Y-101248D01*
X146290Y-101248D02*
X146290Y-101254D01*
X142760Y-96921D02*
X144029Y-96921D01*
X144029Y-96921D02*
X144034Y-96926D01*
X144030Y-94110D02*
X144030Y-94114D01*
X144030Y-94114D02*
X144030Y-94110D01*
X144030Y-94110D02*
X144030Y-94114D01*
X132602Y-98748D02*
X133181Y-98748D01*
X133181Y-98748D02*
X133210Y-98720D01*
X121876Y-96204D02*
X121887Y-96204D01*
X121887Y-96204D02*
X121876Y-96204D01*
X121876Y-96204D02*
X121887Y-96204D01*
X125364Y-96212D02*
X125360Y-96212D01*
X125360Y-96212D02*
X125364Y-96212D01*
X125364Y-96212D02*
X125360Y-96212D01*
X130536Y-96636D02*
X130536Y-96230D01*
X130536Y-96230D02*
X130516Y-96210D01*
X125360Y-96921D02*
X125360Y-96212D01*
X114924Y-101294D02*
X114924Y-100576D01*
X114924Y-100576D02*
X114924Y-97319D01*
X115322Y-96921D02*
X119360Y-96921D01*
X114924Y-97319D02*
X115322Y-96921D01*
X144460Y-100788D02*
X144794Y-100788D01*
X144794Y-100788D02*
X145260Y-101254D01*
X130564Y-98148D02*
X132591Y-98148D01*
X132591Y-98148D02*
X132602Y-98158D01*
X129117Y-99929D02*
X130366Y-99929D01*
X130564Y-99731D02*
X130564Y-98148D01*
X130564Y-98148D02*
X130564Y-97301D01*
X130366Y-99929D02*
X130564Y-99731D01*
X131740Y-98742D02*
X132595Y-98742D01*
X132595Y-98742D02*
X132602Y-98748D01*
X131740Y-98158D02*
X131740Y-98742D01*
X132602Y-98158D02*
X131740Y-98158D01*
X131740Y-98742D02*
X131740Y-99938D01*
X131740Y-99938D02*
X131740Y-100780D01*
X131740Y-100780D02*
X131745Y-100786D01*
X136760Y-96921D02*
X139760Y-96921D01*
X139760Y-96921D02*
X142760Y-96921D01*
X145260Y-94114D02*
X144030Y-94114D01*
X144030Y-94114D02*
X142764Y-94114D01*
X142764Y-94114D02*
X140512Y-94114D01*
X140512Y-94114D02*
X140232Y-94394D01*
X121887Y-100394D02*
X121887Y-96204D01*
X121887Y-96204D02*
X121887Y-94394D01*
X119310Y-94114D02*
X119310Y-96871D01*
X119310Y-96871D02*
X119360Y-96921D01*
X116860Y-94114D02*
X119310Y-94114D01*
X119310Y-94114D02*
X121607Y-94114D01*
X121607Y-94114D02*
X121887Y-94394D01*
X131767Y-101414D02*
X131767Y-103486D01*
X131767Y-103486D02*
X131660Y-103594D01*
X144460Y-100788D02*
X144026Y-100788D01*
X144026Y-100788D02*
X140626Y-100788D01*
X140626Y-100788D02*
X140232Y-100394D01*
X130564Y-97301D02*
X130564Y-96664D01*
X130564Y-96664D02*
X130536Y-96636D01*
X129117Y-99929D02*
X128719Y-99929D01*
X128719Y-99929D02*
X128460Y-99669D01*
X131285Y-94244D02*
X130534Y-94244D01*
X130534Y-94244D02*
X130480Y-94189D01*
X130480Y-94189D02*
X130480Y-93234D01*
X133181Y-98748D02*
X133210Y-98720D01*
X131745Y-100786D02*
X131745Y-101391D01*
X131745Y-101391D02*
X131767Y-101414D01*
X131660Y-103594D02*
X132310Y-103594D01*
X132310Y-103594D02*
X132410Y-103694D01*
X132410Y-103694D02*
X133260Y-103694D01*
X114860Y-103694D02*
X115862Y-103694D01*
X115862Y-103694D02*
X116860Y-103694D01*
X116860Y-103694D02*
X117860Y-103694D01*
X117860Y-103694D02*
X119860Y-103694D01*
X114860Y-94114D02*
X116860Y-94114D01*
X145260Y-94114D02*
X147260Y-94114D01*
X145260Y-101254D02*
X146290Y-101254D01*
X146290Y-101254D02*
X147260Y-101254D01*
X142260Y-103694D02*
X144260Y-103694D01*
X144260Y-103694D02*
X145260Y-103694D01*
X145260Y-103694D02*
X146272Y-103694D01*
X146272Y-103694D02*
X147260Y-103694D01*
X126760Y-103694D02*
X127742Y-103694D01*
X127742Y-103694D02*
X128760Y-103694D01*
X133260Y-103694D02*
X134280Y-103694D01*
X134280Y-103694D02*
X135260Y-103694D01*
X129117Y-97921D02*
X127769Y-97921D01*
X126884Y-92914D02*
X116860Y-92914D01*
X127126Y-93156D02*
X126884Y-92914D01*
X127126Y-97278D02*
X127126Y-93156D01*
X127769Y-97921D02*
X127126Y-97278D01*
X114860Y-92914D02*
X116860Y-92914D01*
X130367Y-100786D02*
X130367Y-101446D01*
X119360Y-100744D02*
X119360Y-97866D01*
X120144Y-101528D02*
X119360Y-100744D01*
X130286Y-101528D02*
X120144Y-101528D01*
X130367Y-101446D02*
X130286Y-101528D01*
X129737Y-97301D02*
X129027Y-97301D01*
X144910Y-92564D02*
X145260Y-92914D01*
X128760Y-92564D02*
X144910Y-92564D01*
X128250Y-93074D02*
X128760Y-92564D01*
X128250Y-96524D02*
X128250Y-93074D01*
X129027Y-97301D02*
X128250Y-96524D01*
X145260Y-92914D02*
X147260Y-92914D01*
X129117Y-98945D02*
X126439Y-98945D01*
X126439Y-98945D02*
X125360Y-97866D01*
X144600Y-96014D02*
X146882Y-96014D01*
X134146Y-96014D02*
X144600Y-96014D01*
X132450Y-97710D02*
X134146Y-96014D01*
X130812Y-97710D02*
X132450Y-97710D01*
X130761Y-97659D02*
X130812Y-97710D01*
X130761Y-97301D02*
X130761Y-97659D01*
X147260Y-96392D02*
X147260Y-100054D01*
X146882Y-96014D02*
X147260Y-96392D01*
X145265Y-99274D02*
X145265Y-100048D01*
X145265Y-100048D02*
X145260Y-100054D01*
X144460Y-100039D02*
X145245Y-100039D01*
X145245Y-100039D02*
X145260Y-100054D01*
X145260Y-100054D02*
X147260Y-100054D01*
X128760Y-102494D02*
X130774Y-102494D01*
X130958Y-102309D02*
X130958Y-100786D01*
X130774Y-102494D02*
X130958Y-102309D01*
X126760Y-102494D02*
X128760Y-102494D01*
X132602Y-99929D02*
X134955Y-99929D01*
X135260Y-100234D02*
X135260Y-102494D01*
X134955Y-99929D02*
X135260Y-100234D01*
X133260Y-102494D02*
X135260Y-102494D01*
X132602Y-100166D02*
X133849Y-100166D01*
X133849Y-100166D02*
X133860Y-100156D01*
X131548Y-100786D02*
X131548Y-98468D01*
X131548Y-98468D02*
X131488Y-98408D01*
X129117Y-99142D02*
X124078Y-99142D01*
X122832Y-97896D02*
X122832Y-94394D01*
X124078Y-99142D02*
X122832Y-97896D01*
X130360Y-103594D02*
X130360Y-103258D01*
X131155Y-102462D02*
X131155Y-100786D01*
X130360Y-103258D02*
X131155Y-102462D01*
X117570Y-100529D02*
X117971Y-100529D01*
X117976Y-100534D02*
X117971Y-100529D01*
X131010Y-103594D02*
X131010Y-103032D01*
X131352Y-102689D02*
X131352Y-100786D01*
X131010Y-103032D02*
X131352Y-102689D01*
X131745Y-97301D02*
X131745Y-96816D01*
X134168Y-94394D02*
X139287Y-94394D01*
X131745Y-96816D02*
X134168Y-94394D01*
X131717Y-95444D02*
X131717Y-95703D01*
X131155Y-96264D02*
X131155Y-97301D01*
X131717Y-95703D02*
X131155Y-96264D01*
X132034Y-94244D02*
X132034Y-95127D01*
X132034Y-95127D02*
X131717Y-95444D01*
X130958Y-97301D02*
X130958Y-96299D01*
X130958Y-96299D02*
X130102Y-95444D01*
X129785Y-94244D02*
X129785Y-95127D01*
X129785Y-95127D02*
X130102Y-95444D01*
X132602Y-98355D02*
X136271Y-98355D01*
X136271Y-98355D02*
X136760Y-97866D01*
G54D10*
G36*
X129575Y-101185D02*
X126372Y-101185D01*
X126374Y-101183D01*
X126436Y-101091D01*
X126458Y-101037D01*
X126458Y-101037D01*
X126480Y-100929D01*
X126480Y-100929D01*
X126480Y-100929D01*
X126480Y-100929D01*
X126480Y-100900D01*
X126480Y-100870D01*
X126480Y-100870D01*
X126480Y-100870D01*
X126480Y-100870D01*
X126458Y-100762D01*
X126458Y-100762D01*
X126436Y-100708D01*
X126374Y-100616D01*
X126333Y-100574D01*
X126332Y-100574D01*
X126242Y-100513D01*
X126241Y-100513D01*
X126187Y-100491D01*
X126079Y-100469D01*
X126020Y-100469D01*
X126020Y-100469D01*
X125912Y-100491D01*
X125912Y-100491D01*
X125858Y-100513D01*
X125766Y-100575D01*
X125724Y-100616D01*
X125724Y-100617D01*
X125663Y-100707D01*
X125663Y-100708D01*
X125641Y-100762D01*
X125619Y-100870D01*
X125619Y-100900D01*
X125619Y-100929D01*
X125641Y-101037D01*
X125663Y-101091D01*
X125663Y-101092D01*
X125724Y-101182D01*
X125724Y-101183D01*
X125727Y-101185D01*
X123845Y-101185D01*
X123347Y-100687D01*
X123347Y-99484D01*
X123328Y-99439D01*
X123294Y-99405D01*
X123250Y-99387D01*
X123202Y-99387D01*
X122501Y-99387D01*
X122493Y-99366D01*
X122422Y-99296D01*
X122330Y-99258D01*
X122000Y-99258D01*
X121937Y-99320D01*
X121937Y-100344D01*
X121945Y-100344D01*
X121945Y-100444D01*
X121937Y-100444D01*
X121937Y-100451D01*
X121837Y-100451D01*
X121837Y-100444D01*
X121837Y-100344D01*
X121837Y-99320D01*
X121837Y-95467D01*
X121837Y-94444D01*
X121837Y-94344D01*
X121837Y-93320D01*
X121775Y-93258D01*
X121444Y-93258D01*
X121352Y-93296D01*
X121282Y-93366D01*
X121243Y-93458D01*
X121243Y-93557D01*
X121243Y-94281D01*
X121306Y-94344D01*
X121837Y-94344D01*
X121837Y-94444D01*
X121306Y-94444D01*
X121243Y-94506D01*
X121243Y-95230D01*
X121243Y-95329D01*
X121282Y-95421D01*
X121352Y-95491D01*
X121444Y-95529D01*
X121775Y-95529D01*
X121837Y-95467D01*
X121837Y-99320D01*
X121775Y-99258D01*
X121444Y-99258D01*
X121352Y-99296D01*
X121282Y-99366D01*
X121243Y-99458D01*
X121243Y-99557D01*
X121243Y-100281D01*
X121306Y-100344D01*
X121837Y-100344D01*
X121837Y-100444D01*
X121306Y-100444D01*
X121243Y-100506D01*
X121243Y-101230D01*
X121243Y-101329D01*
X121261Y-101371D01*
X120208Y-101371D01*
X119516Y-100679D01*
X119516Y-98381D01*
X120269Y-98381D01*
X120314Y-98362D01*
X120348Y-98328D01*
X120366Y-98284D01*
X120366Y-98236D01*
X120366Y-97535D01*
X120387Y-97527D01*
X120457Y-97457D01*
X120495Y-97365D01*
X120495Y-97265D01*
X120495Y-96577D01*
X120495Y-96477D01*
X120457Y-96386D01*
X120387Y-96315D01*
X120295Y-96277D01*
X119472Y-96277D01*
X119410Y-96340D01*
X119410Y-96871D01*
X120433Y-96871D01*
X120495Y-96809D01*
X120495Y-96577D01*
X120495Y-97265D01*
X120495Y-97034D01*
X120433Y-96971D01*
X119410Y-96971D01*
X119410Y-96979D01*
X119310Y-96979D01*
X119310Y-96971D01*
X119310Y-96871D01*
X119310Y-96340D01*
X119247Y-96277D01*
X119130Y-96277D01*
X119130Y-93779D01*
X119130Y-93750D01*
X119130Y-93720D01*
X119130Y-93720D01*
X119130Y-93720D01*
X119130Y-93720D01*
X119108Y-93612D01*
X119108Y-93612D01*
X119086Y-93558D01*
X119024Y-93466D01*
X118983Y-93424D01*
X118982Y-93424D01*
X118892Y-93363D01*
X118891Y-93363D01*
X118837Y-93341D01*
X118729Y-93319D01*
X118670Y-93319D01*
X118670Y-93319D01*
X118562Y-93341D01*
X118562Y-93341D01*
X118508Y-93363D01*
X118416Y-93425D01*
X118374Y-93466D01*
X118374Y-93467D01*
X118313Y-93557D01*
X118313Y-93558D01*
X118291Y-93612D01*
X118269Y-93720D01*
X118269Y-93750D01*
X118269Y-93779D01*
X118291Y-93887D01*
X118313Y-93941D01*
X118313Y-93942D01*
X118374Y-94032D01*
X118374Y-94033D01*
X118416Y-94074D01*
X118508Y-94136D01*
X118562Y-94158D01*
X118562Y-94158D01*
X118670Y-94180D01*
X118670Y-94180D01*
X118729Y-94180D01*
X118837Y-94158D01*
X118891Y-94136D01*
X118892Y-94136D01*
X118982Y-94075D01*
X118983Y-94075D01*
X119024Y-94033D01*
X119086Y-93941D01*
X119108Y-93887D01*
X119108Y-93887D01*
X119130Y-93779D01*
X119130Y-93779D01*
X119130Y-93779D01*
X119130Y-93779D01*
X119130Y-96277D01*
X118424Y-96277D01*
X118332Y-96315D01*
X118262Y-96386D01*
X118224Y-96477D01*
X118224Y-96577D01*
X118224Y-96809D01*
X118286Y-96871D01*
X119310Y-96871D01*
X119310Y-96971D01*
X118286Y-96971D01*
X118224Y-97034D01*
X118224Y-97265D01*
X118224Y-97365D01*
X118262Y-97457D01*
X118332Y-97527D01*
X118353Y-97535D01*
X118353Y-98284D01*
X118371Y-98328D01*
X118405Y-98362D01*
X118450Y-98380D01*
X118498Y-98381D01*
X119203Y-98381D01*
X119203Y-100744D01*
X119215Y-100803D01*
X119249Y-100854D01*
X119958Y-101563D01*
X119180Y-101563D01*
X119180Y-100929D01*
X119180Y-100900D01*
X119180Y-100870D01*
X119180Y-100870D01*
X119180Y-100870D01*
X119180Y-100870D01*
X119158Y-100762D01*
X119158Y-100762D01*
X119136Y-100708D01*
X119074Y-100616D01*
X119033Y-100574D01*
X119032Y-100574D01*
X118942Y-100513D01*
X118941Y-100513D01*
X118887Y-100491D01*
X118779Y-100469D01*
X118720Y-100469D01*
X118720Y-100469D01*
X118612Y-100491D01*
X118612Y-100491D01*
X118558Y-100513D01*
X118466Y-100575D01*
X118424Y-100616D01*
X118424Y-100617D01*
X118363Y-100707D01*
X118363Y-100708D01*
X118341Y-100762D01*
X118319Y-100870D01*
X118319Y-100900D01*
X118319Y-100929D01*
X118341Y-101037D01*
X118363Y-101091D01*
X118363Y-101092D01*
X118424Y-101182D01*
X118424Y-101183D01*
X118466Y-101224D01*
X118558Y-101286D01*
X118612Y-101308D01*
X118612Y-101308D01*
X118720Y-101330D01*
X118720Y-101330D01*
X118779Y-101330D01*
X118887Y-101308D01*
X118941Y-101286D01*
X118942Y-101286D01*
X119032Y-101225D01*
X119033Y-101225D01*
X119074Y-101183D01*
X119136Y-101091D01*
X119158Y-101037D01*
X119158Y-101037D01*
X119180Y-100929D01*
X119180Y-100929D01*
X119180Y-100929D01*
X119180Y-100929D01*
X119180Y-101563D01*
X118215Y-101563D01*
X118215Y-100486D01*
X118178Y-100398D01*
X118111Y-100331D01*
X118023Y-100295D01*
X117928Y-100294D01*
X117840Y-100331D01*
X117838Y-100333D01*
X117838Y-100269D01*
X117820Y-100225D01*
X117786Y-100191D01*
X117741Y-100172D01*
X117693Y-100172D01*
X117503Y-100172D01*
X117503Y-94458D01*
X117503Y-93769D01*
X117503Y-93670D01*
X117465Y-93578D01*
X117395Y-93508D01*
X117303Y-93470D01*
X116972Y-93470D01*
X116910Y-93532D01*
X116910Y-94064D01*
X117441Y-94064D01*
X117503Y-94001D01*
X117503Y-93769D01*
X117503Y-94458D01*
X117503Y-94226D01*
X117441Y-94164D01*
X116910Y-94164D01*
X116910Y-94695D01*
X116972Y-94757D01*
X117303Y-94757D01*
X117395Y-94719D01*
X117465Y-94649D01*
X117503Y-94557D01*
X117503Y-94458D01*
X117503Y-100172D01*
X117398Y-100172D01*
X117353Y-100191D01*
X117319Y-100225D01*
X117301Y-100269D01*
X117301Y-100317D01*
X117301Y-100790D01*
X117319Y-100834D01*
X117353Y-100868D01*
X117398Y-100887D01*
X117446Y-100887D01*
X117741Y-100887D01*
X117786Y-100868D01*
X117820Y-100834D01*
X117838Y-100790D01*
X117838Y-100742D01*
X117838Y-100734D01*
X117840Y-100736D01*
X117928Y-100772D01*
X118023Y-100773D01*
X118111Y-100736D01*
X118178Y-100669D01*
X118214Y-100581D01*
X118215Y-100486D01*
X118215Y-101563D01*
X117827Y-101563D01*
X117838Y-101538D01*
X117838Y-101490D01*
X117838Y-101017D01*
X117820Y-100973D01*
X117786Y-100939D01*
X117741Y-100920D01*
X117693Y-100920D01*
X117398Y-100920D01*
X117353Y-100939D01*
X117319Y-100973D01*
X117301Y-101017D01*
X117301Y-101051D01*
X117281Y-101043D01*
X117186Y-101042D01*
X117151Y-101057D01*
X117151Y-100876D01*
X117133Y-100832D01*
X117099Y-100798D01*
X117054Y-100779D01*
X117006Y-100779D01*
X116810Y-100779D01*
X116810Y-94695D01*
X116810Y-94164D01*
X116810Y-94064D01*
X116810Y-93532D01*
X116747Y-93470D01*
X116416Y-93470D01*
X116324Y-93508D01*
X116254Y-93578D01*
X116216Y-93670D01*
X116216Y-93769D01*
X116216Y-94001D01*
X116278Y-94064D01*
X116810Y-94064D01*
X116810Y-94164D01*
X116278Y-94164D01*
X116216Y-94226D01*
X116216Y-94458D01*
X116216Y-94557D01*
X116254Y-94649D01*
X116324Y-94719D01*
X116416Y-94757D01*
X116747Y-94757D01*
X116810Y-94695D01*
X116810Y-100779D01*
X116698Y-100779D01*
X116698Y-99183D01*
X116698Y-98396D01*
X116680Y-98351D01*
X116646Y-98317D01*
X116602Y-98299D01*
X116554Y-98299D01*
X115503Y-98299D01*
X115503Y-94458D01*
X115503Y-93769D01*
X115503Y-93670D01*
X115465Y-93578D01*
X115395Y-93508D01*
X115303Y-93470D01*
X114972Y-93470D01*
X114910Y-93532D01*
X114910Y-94064D01*
X115441Y-94064D01*
X115503Y-94001D01*
X115503Y-93769D01*
X115503Y-94458D01*
X115503Y-94226D01*
X115441Y-94164D01*
X114910Y-94164D01*
X114910Y-94695D01*
X114972Y-94757D01*
X115303Y-94757D01*
X115395Y-94719D01*
X115465Y-94649D01*
X115503Y-94557D01*
X115503Y-94458D01*
X115503Y-98299D01*
X115058Y-98299D01*
X115013Y-98317D01*
X114979Y-98351D01*
X114961Y-98395D01*
X114961Y-98444D01*
X114961Y-99231D01*
X114979Y-99275D01*
X115013Y-99309D01*
X115057Y-99328D01*
X115105Y-99328D01*
X116601Y-99328D01*
X116646Y-99310D01*
X116680Y-99276D01*
X116698Y-99231D01*
X116698Y-99183D01*
X116698Y-100779D01*
X116416Y-100779D01*
X116371Y-100797D01*
X116337Y-100831D01*
X116319Y-100876D01*
X116319Y-100924D01*
X116319Y-101711D01*
X116337Y-101756D01*
X116371Y-101790D01*
X116416Y-101808D01*
X116464Y-101808D01*
X117054Y-101808D01*
X117099Y-101790D01*
X117133Y-101756D01*
X117151Y-101712D01*
X117151Y-101663D01*
X117151Y-101506D01*
X117186Y-101520D01*
X117281Y-101521D01*
X117301Y-101512D01*
X117301Y-101538D01*
X117319Y-101582D01*
X117353Y-101616D01*
X117398Y-101635D01*
X117446Y-101635D01*
X117497Y-101635D01*
X117153Y-101979D01*
X116442Y-101979D01*
X116397Y-101997D01*
X116363Y-102031D01*
X116345Y-102076D01*
X116345Y-102124D01*
X116345Y-102337D01*
X116246Y-102337D01*
X116246Y-101663D01*
X116246Y-100876D01*
X116227Y-100832D01*
X116193Y-100798D01*
X116149Y-100779D01*
X116101Y-100779D01*
X115986Y-100779D01*
X115986Y-100359D01*
X116036Y-100309D01*
X116072Y-100221D01*
X116073Y-100126D01*
X116036Y-100038D01*
X115969Y-99971D01*
X115881Y-99935D01*
X115786Y-99934D01*
X115698Y-99971D01*
X115631Y-100038D01*
X115595Y-100126D01*
X115594Y-100221D01*
X115631Y-100309D01*
X115673Y-100351D01*
X115673Y-100779D01*
X115510Y-100779D01*
X115466Y-100797D01*
X115453Y-100810D01*
X115431Y-100759D01*
X115361Y-100688D01*
X115269Y-100650D01*
X115170Y-100650D01*
X115036Y-100650D01*
X114974Y-100712D01*
X114974Y-101244D01*
X114982Y-101244D01*
X114982Y-101344D01*
X114974Y-101344D01*
X114974Y-101875D01*
X115036Y-101937D01*
X115170Y-101937D01*
X115269Y-101937D01*
X115361Y-101899D01*
X115431Y-101829D01*
X115453Y-101777D01*
X115466Y-101790D01*
X115510Y-101808D01*
X115558Y-101808D01*
X116149Y-101808D01*
X116193Y-101790D01*
X116227Y-101756D01*
X116246Y-101712D01*
X116246Y-101663D01*
X116246Y-102337D01*
X115374Y-102337D01*
X115374Y-102076D01*
X115356Y-102031D01*
X115322Y-101997D01*
X115277Y-101979D01*
X115229Y-101979D01*
X114510Y-101979D01*
X114510Y-101909D01*
X114579Y-101937D01*
X114678Y-101937D01*
X114811Y-101937D01*
X114874Y-101875D01*
X114874Y-101344D01*
X114866Y-101344D01*
X114866Y-101244D01*
X114874Y-101244D01*
X114874Y-100712D01*
X114811Y-100650D01*
X114678Y-100650D01*
X114579Y-100650D01*
X114510Y-100679D01*
X114510Y-96711D01*
X114524Y-96732D01*
X114524Y-96733D01*
X114566Y-96774D01*
X114658Y-96836D01*
X114712Y-96858D01*
X114712Y-96858D01*
X114820Y-96880D01*
X114820Y-96880D01*
X114879Y-96880D01*
X114987Y-96858D01*
X115041Y-96836D01*
X115042Y-96836D01*
X115132Y-96775D01*
X115133Y-96775D01*
X115174Y-96733D01*
X115236Y-96641D01*
X115258Y-96587D01*
X115258Y-96587D01*
X115280Y-96479D01*
X115280Y-96479D01*
X115280Y-96479D01*
X115280Y-96479D01*
X115280Y-96450D01*
X115280Y-96420D01*
X115280Y-96420D01*
X115280Y-96420D01*
X115280Y-96420D01*
X115258Y-96312D01*
X115258Y-96312D01*
X115236Y-96258D01*
X115174Y-96166D01*
X115133Y-96124D01*
X115132Y-96124D01*
X115042Y-96063D01*
X115041Y-96063D01*
X114987Y-96041D01*
X114879Y-96019D01*
X114820Y-96019D01*
X114820Y-96019D01*
X114712Y-96041D01*
X114712Y-96041D01*
X114658Y-96063D01*
X114566Y-96125D01*
X114524Y-96166D01*
X114524Y-96167D01*
X114510Y-96188D01*
X114510Y-94757D01*
X114747Y-94757D01*
X114810Y-94695D01*
X114810Y-94164D01*
X114802Y-94164D01*
X114802Y-94064D01*
X114810Y-94064D01*
X114810Y-93532D01*
X114747Y-93470D01*
X114510Y-93470D01*
X114510Y-93428D01*
X115277Y-93428D01*
X115322Y-93410D01*
X115356Y-93376D01*
X115374Y-93331D01*
X115374Y-93283D01*
X115374Y-93070D01*
X116345Y-93070D01*
X116345Y-93331D01*
X116363Y-93376D01*
X116397Y-93410D01*
X116442Y-93428D01*
X116490Y-93428D01*
X117277Y-93428D01*
X117322Y-93410D01*
X117356Y-93376D01*
X117374Y-93331D01*
X117374Y-93283D01*
X117374Y-93070D01*
X126819Y-93070D01*
X126969Y-93220D01*
X126969Y-97278D01*
X126981Y-97337D01*
X127015Y-97388D01*
X127659Y-98032D01*
X127659Y-98032D01*
X127710Y-98066D01*
X127710Y-98066D01*
X127720Y-98068D01*
X127769Y-98078D01*
X128702Y-98078D01*
X128701Y-98078D01*
X128701Y-98126D01*
X128701Y-98237D01*
X128709Y-98256D01*
X128701Y-98275D01*
X128701Y-98323D01*
X128701Y-98434D01*
X128709Y-98453D01*
X128701Y-98472D01*
X128701Y-98520D01*
X128701Y-98630D01*
X128709Y-98650D01*
X128701Y-98669D01*
X128701Y-98717D01*
X128701Y-98789D01*
X126503Y-98789D01*
X126095Y-98381D01*
X126269Y-98381D01*
X126314Y-98362D01*
X126348Y-98328D01*
X126366Y-98284D01*
X126366Y-98236D01*
X126366Y-97535D01*
X126387Y-97527D01*
X126457Y-97457D01*
X126495Y-97365D01*
X126495Y-97265D01*
X126495Y-96577D01*
X126495Y-96477D01*
X126457Y-96386D01*
X126430Y-96358D01*
X126430Y-93779D01*
X126430Y-93750D01*
X126430Y-93720D01*
X126430Y-93720D01*
X126430Y-93720D01*
X126430Y-93720D01*
X126408Y-93612D01*
X126408Y-93612D01*
X126386Y-93558D01*
X126324Y-93466D01*
X126283Y-93424D01*
X126282Y-93424D01*
X126192Y-93363D01*
X126191Y-93363D01*
X126137Y-93341D01*
X126029Y-93319D01*
X125970Y-93319D01*
X125970Y-93319D01*
X125862Y-93341D01*
X125862Y-93341D01*
X125808Y-93363D01*
X125716Y-93425D01*
X125674Y-93466D01*
X125674Y-93467D01*
X125613Y-93557D01*
X125613Y-93558D01*
X125591Y-93612D01*
X125569Y-93720D01*
X125569Y-93750D01*
X125569Y-93779D01*
X125591Y-93887D01*
X125613Y-93941D01*
X125613Y-93942D01*
X125674Y-94032D01*
X125674Y-94033D01*
X125716Y-94074D01*
X125808Y-94136D01*
X125862Y-94158D01*
X125862Y-94158D01*
X125970Y-94180D01*
X125970Y-94180D01*
X126029Y-94180D01*
X126137Y-94158D01*
X126191Y-94136D01*
X126192Y-94136D01*
X126282Y-94075D01*
X126283Y-94075D01*
X126324Y-94033D01*
X126386Y-93941D01*
X126408Y-93887D01*
X126408Y-93887D01*
X126430Y-93779D01*
X126430Y-93779D01*
X126430Y-93779D01*
X126430Y-93779D01*
X126430Y-96358D01*
X126387Y-96315D01*
X126295Y-96277D01*
X125472Y-96277D01*
X125410Y-96340D01*
X125410Y-96871D01*
X126433Y-96871D01*
X126495Y-96809D01*
X126495Y-96577D01*
X126495Y-97265D01*
X126495Y-97034D01*
X126433Y-96971D01*
X125410Y-96971D01*
X125410Y-96979D01*
X125310Y-96979D01*
X125310Y-96971D01*
X125310Y-96871D01*
X125310Y-96340D01*
X125247Y-96277D01*
X124424Y-96277D01*
X124332Y-96315D01*
X124262Y-96386D01*
X124224Y-96477D01*
X124224Y-96577D01*
X124224Y-96809D01*
X124286Y-96871D01*
X125310Y-96871D01*
X125310Y-96971D01*
X124286Y-96971D01*
X124224Y-97034D01*
X124224Y-97265D01*
X124224Y-97365D01*
X124262Y-97457D01*
X124332Y-97527D01*
X124353Y-97535D01*
X124353Y-98284D01*
X124371Y-98328D01*
X124405Y-98362D01*
X124450Y-98380D01*
X124498Y-98381D01*
X125653Y-98381D01*
X126258Y-98986D01*
X124143Y-98986D01*
X122988Y-97831D01*
X122988Y-95400D01*
X123250Y-95400D01*
X123294Y-95382D01*
X123328Y-95348D01*
X123346Y-95303D01*
X123347Y-95255D01*
X123347Y-93484D01*
X123328Y-93439D01*
X123294Y-93405D01*
X123250Y-93387D01*
X123202Y-93387D01*
X122501Y-93387D01*
X122493Y-93366D01*
X122422Y-93296D01*
X122330Y-93258D01*
X122000Y-93258D01*
X121937Y-93320D01*
X121937Y-94344D01*
X121945Y-94344D01*
X121945Y-94444D01*
X121937Y-94444D01*
X121937Y-95467D01*
X122000Y-95529D01*
X122330Y-95529D01*
X122422Y-95491D01*
X122493Y-95421D01*
X122501Y-95400D01*
X122676Y-95400D01*
X122676Y-97896D01*
X122688Y-97956D01*
X122721Y-98006D01*
X123967Y-99252D01*
X124018Y-99286D01*
X124078Y-99298D01*
X128097Y-99298D01*
X128062Y-99384D01*
X128062Y-99557D01*
X128124Y-99619D01*
X128410Y-99619D01*
X128410Y-99612D01*
X128510Y-99612D01*
X128510Y-99619D01*
X128517Y-99619D01*
X128517Y-99719D01*
X128510Y-99719D01*
X128510Y-99727D01*
X128410Y-99727D01*
X128410Y-99719D01*
X128124Y-99719D01*
X128062Y-99782D01*
X128062Y-99955D01*
X128100Y-100047D01*
X128170Y-100118D01*
X128202Y-100131D01*
X128191Y-100157D01*
X128191Y-100205D01*
X128191Y-100678D01*
X128209Y-100722D01*
X128243Y-100756D01*
X128288Y-100775D01*
X128336Y-100775D01*
X128631Y-100775D01*
X128676Y-100756D01*
X128710Y-100722D01*
X128728Y-100678D01*
X128728Y-100630D01*
X128728Y-100370D01*
X128743Y-100355D01*
X128754Y-100366D01*
X128798Y-100385D01*
X128846Y-100385D01*
X129437Y-100385D01*
X129481Y-100366D01*
X129493Y-100355D01*
X129516Y-100378D01*
X129562Y-100397D01*
X129537Y-100422D01*
X129518Y-100466D01*
X129518Y-100514D01*
X129518Y-101105D01*
X129537Y-101149D01*
X129570Y-101183D01*
X129575Y-101185D01*
X129575Y-101185D01*
G37*
G54D29*
X129575Y-101185D02*
X126372Y-101185D01*
X126374Y-101183D01*
X126436Y-101091D01*
X126458Y-101037D01*
X126458Y-101037D01*
X126480Y-100929D01*
X126480Y-100929D01*
X126480Y-100929D01*
X126480Y-100929D01*
X126480Y-100900D01*
X126480Y-100870D01*
X126480Y-100870D01*
X126480Y-100870D01*
X126480Y-100870D01*
X126458Y-100762D01*
X126458Y-100762D01*
X126436Y-100708D01*
X126374Y-100616D01*
X126333Y-100574D01*
X126332Y-100574D01*
X126242Y-100513D01*
X126241Y-100513D01*
X126187Y-100491D01*
X126079Y-100469D01*
X126020Y-100469D01*
X126020Y-100469D01*
X125912Y-100491D01*
X125912Y-100491D01*
X125858Y-100513D01*
X125766Y-100575D01*
X125724Y-100616D01*
X125724Y-100617D01*
X125663Y-100707D01*
X125663Y-100708D01*
X125641Y-100762D01*
X125619Y-100870D01*
X125619Y-100900D01*
X125619Y-100929D01*
X125641Y-101037D01*
X125663Y-101091D01*
X125663Y-101092D01*
X125724Y-101182D01*
X125724Y-101183D01*
X125727Y-101185D01*
X123845Y-101185D01*
X123347Y-100687D01*
X123347Y-99484D01*
X123328Y-99439D01*
X123294Y-99405D01*
X123250Y-99387D01*
X123202Y-99387D01*
X122501Y-99387D01*
X122493Y-99366D01*
X122422Y-99296D01*
X122330Y-99258D01*
X122000Y-99258D01*
X121937Y-99320D01*
X121937Y-100344D01*
X121945Y-100344D01*
X121945Y-100444D01*
X121937Y-100444D01*
X121937Y-100451D01*
X121837Y-100451D01*
X121837Y-100444D01*
X121837Y-100344D01*
X121837Y-99320D01*
X121837Y-95467D01*
X121837Y-94444D01*
X121837Y-94344D01*
X121837Y-93320D01*
X121775Y-93258D01*
X121444Y-93258D01*
X121352Y-93296D01*
X121282Y-93366D01*
X121243Y-93458D01*
X121243Y-93557D01*
X121243Y-94281D01*
X121306Y-94344D01*
X121837Y-94344D01*
X121837Y-94444D01*
X121306Y-94444D01*
X121243Y-94506D01*
X121243Y-95230D01*
X121243Y-95329D01*
X121282Y-95421D01*
X121352Y-95491D01*
X121444Y-95529D01*
X121775Y-95529D01*
X121837Y-95467D01*
X121837Y-99320D01*
X121775Y-99258D01*
X121444Y-99258D01*
X121352Y-99296D01*
X121282Y-99366D01*
X121243Y-99458D01*
X121243Y-99557D01*
X121243Y-100281D01*
X121306Y-100344D01*
X121837Y-100344D01*
X121837Y-100444D01*
X121306Y-100444D01*
X121243Y-100506D01*
X121243Y-101230D01*
X121243Y-101329D01*
X121261Y-101371D01*
X120208Y-101371D01*
X119516Y-100679D01*
X119516Y-98381D01*
X120269Y-98381D01*
X120314Y-98362D01*
X120348Y-98328D01*
X120366Y-98284D01*
X120366Y-98236D01*
X120366Y-97535D01*
X120387Y-97527D01*
X120457Y-97457D01*
X120495Y-97365D01*
X120495Y-97265D01*
X120495Y-96577D01*
X120495Y-96477D01*
X120457Y-96386D01*
X120387Y-96315D01*
X120295Y-96277D01*
X119472Y-96277D01*
X119410Y-96340D01*
X119410Y-96871D01*
X120433Y-96871D01*
X120495Y-96809D01*
X120495Y-96577D01*
X120495Y-97265D01*
X120495Y-97034D01*
X120433Y-96971D01*
X119410Y-96971D01*
X119410Y-96979D01*
X119310Y-96979D01*
X119310Y-96971D01*
X119310Y-96871D01*
X119310Y-96340D01*
X119247Y-96277D01*
X119130Y-96277D01*
X119130Y-93779D01*
X119130Y-93750D01*
X119130Y-93720D01*
X119130Y-93720D01*
X119130Y-93720D01*
X119130Y-93720D01*
X119108Y-93612D01*
X119108Y-93612D01*
X119086Y-93558D01*
X119024Y-93466D01*
X118983Y-93424D01*
X118982Y-93424D01*
X118892Y-93363D01*
X118891Y-93363D01*
X118837Y-93341D01*
X118729Y-93319D01*
X118670Y-93319D01*
X118670Y-93319D01*
X118562Y-93341D01*
X118562Y-93341D01*
X118508Y-93363D01*
X118416Y-93425D01*
X118374Y-93466D01*
X118374Y-93467D01*
X118313Y-93557D01*
X118313Y-93558D01*
X118291Y-93612D01*
X118269Y-93720D01*
X118269Y-93750D01*
X118269Y-93779D01*
X118291Y-93887D01*
X118313Y-93941D01*
X118313Y-93942D01*
X118374Y-94032D01*
X118374Y-94033D01*
X118416Y-94074D01*
X118508Y-94136D01*
X118562Y-94158D01*
X118562Y-94158D01*
X118670Y-94180D01*
X118670Y-94180D01*
X118729Y-94180D01*
X118837Y-94158D01*
X118891Y-94136D01*
X118892Y-94136D01*
X118982Y-94075D01*
X118983Y-94075D01*
X119024Y-94033D01*
X119086Y-93941D01*
X119108Y-93887D01*
X119108Y-93887D01*
X119130Y-93779D01*
X119130Y-93779D01*
X119130Y-93779D01*
X119130Y-93779D01*
X119130Y-96277D01*
X118424Y-96277D01*
X118332Y-96315D01*
X118262Y-96386D01*
X118224Y-96477D01*
X118224Y-96577D01*
X118224Y-96809D01*
X118286Y-96871D01*
X119310Y-96871D01*
X119310Y-96971D01*
X118286Y-96971D01*
X118224Y-97034D01*
X118224Y-97265D01*
X118224Y-97365D01*
X118262Y-97457D01*
X118332Y-97527D01*
X118353Y-97535D01*
X118353Y-98284D01*
X118371Y-98328D01*
X118405Y-98362D01*
X118450Y-98380D01*
X118498Y-98381D01*
X119203Y-98381D01*
X119203Y-100744D01*
X119215Y-100803D01*
X119249Y-100854D01*
X119958Y-101563D01*
X119180Y-101563D01*
X119180Y-100929D01*
X119180Y-100900D01*
X119180Y-100870D01*
X119180Y-100870D01*
X119180Y-100870D01*
X119180Y-100870D01*
X119158Y-100762D01*
X119158Y-100762D01*
X119136Y-100708D01*
X119074Y-100616D01*
X119033Y-100574D01*
X119032Y-100574D01*
X118942Y-100513D01*
X118941Y-100513D01*
X118887Y-100491D01*
X118779Y-100469D01*
X118720Y-100469D01*
X118720Y-100469D01*
X118612Y-100491D01*
X118612Y-100491D01*
X118558Y-100513D01*
X118466Y-100575D01*
X118424Y-100616D01*
X118424Y-100617D01*
X118363Y-100707D01*
X118363Y-100708D01*
X118341Y-100762D01*
X118319Y-100870D01*
X118319Y-100900D01*
X118319Y-100929D01*
X118341Y-101037D01*
X118363Y-101091D01*
X118363Y-101092D01*
X118424Y-101182D01*
X118424Y-101183D01*
X118466Y-101224D01*
X118558Y-101286D01*
X118612Y-101308D01*
X118612Y-101308D01*
X118720Y-101330D01*
X118720Y-101330D01*
X118779Y-101330D01*
X118887Y-101308D01*
X118941Y-101286D01*
X118942Y-101286D01*
X119032Y-101225D01*
X119033Y-101225D01*
X119074Y-101183D01*
X119136Y-101091D01*
X119158Y-101037D01*
X119158Y-101037D01*
X119180Y-100929D01*
X119180Y-100929D01*
X119180Y-100929D01*
X119180Y-100929D01*
X119180Y-101563D01*
X118215Y-101563D01*
X118215Y-100486D01*
X118178Y-100398D01*
X118111Y-100331D01*
X118023Y-100295D01*
X117928Y-100294D01*
X117840Y-100331D01*
X117838Y-100333D01*
X117838Y-100269D01*
X117820Y-100225D01*
X117786Y-100191D01*
X117741Y-100172D01*
X117693Y-100172D01*
X117503Y-100172D01*
X117503Y-94458D01*
X117503Y-93769D01*
X117503Y-93670D01*
X117465Y-93578D01*
X117395Y-93508D01*
X117303Y-93470D01*
X116972Y-93470D01*
X116910Y-93532D01*
X116910Y-94064D01*
X117441Y-94064D01*
X117503Y-94001D01*
X117503Y-93769D01*
X117503Y-94458D01*
X117503Y-94226D01*
X117441Y-94164D01*
X116910Y-94164D01*
X116910Y-94695D01*
X116972Y-94757D01*
X117303Y-94757D01*
X117395Y-94719D01*
X117465Y-94649D01*
X117503Y-94557D01*
X117503Y-94458D01*
X117503Y-100172D01*
X117398Y-100172D01*
X117353Y-100191D01*
X117319Y-100225D01*
X117301Y-100269D01*
X117301Y-100317D01*
X117301Y-100790D01*
X117319Y-100834D01*
X117353Y-100868D01*
X117398Y-100887D01*
X117446Y-100887D01*
X117741Y-100887D01*
X117786Y-100868D01*
X117820Y-100834D01*
X117838Y-100790D01*
X117838Y-100742D01*
X117838Y-100734D01*
X117840Y-100736D01*
X117928Y-100772D01*
X118023Y-100773D01*
X118111Y-100736D01*
X118178Y-100669D01*
X118214Y-100581D01*
X118215Y-100486D01*
X118215Y-101563D01*
X117827Y-101563D01*
X117838Y-101538D01*
X117838Y-101490D01*
X117838Y-101017D01*
X117820Y-100973D01*
X117786Y-100939D01*
X117741Y-100920D01*
X117693Y-100920D01*
X117398Y-100920D01*
X117353Y-100939D01*
X117319Y-100973D01*
X117301Y-101017D01*
X117301Y-101051D01*
X117281Y-101043D01*
X117186Y-101042D01*
X117151Y-101057D01*
X117151Y-100876D01*
X117133Y-100832D01*
X117099Y-100798D01*
X117054Y-100779D01*
X117006Y-100779D01*
X116810Y-100779D01*
X116810Y-94695D01*
X116810Y-94164D01*
X116810Y-94064D01*
X116810Y-93532D01*
X116747Y-93470D01*
X116416Y-93470D01*
X116324Y-93508D01*
X116254Y-93578D01*
X116216Y-93670D01*
X116216Y-93769D01*
X116216Y-94001D01*
X116278Y-94064D01*
X116810Y-94064D01*
X116810Y-94164D01*
X116278Y-94164D01*
X116216Y-94226D01*
X116216Y-94458D01*
X116216Y-94557D01*
X116254Y-94649D01*
X116324Y-94719D01*
X116416Y-94757D01*
X116747Y-94757D01*
X116810Y-94695D01*
X116810Y-100779D01*
X116698Y-100779D01*
X116698Y-99183D01*
X116698Y-98396D01*
X116680Y-98351D01*
X116646Y-98317D01*
X116602Y-98299D01*
X116554Y-98299D01*
X115503Y-98299D01*
X115503Y-94458D01*
X115503Y-93769D01*
X115503Y-93670D01*
X115465Y-93578D01*
X115395Y-93508D01*
X115303Y-93470D01*
X114972Y-93470D01*
X114910Y-93532D01*
X114910Y-94064D01*
X115441Y-94064D01*
X115503Y-94001D01*
X115503Y-93769D01*
X115503Y-94458D01*
X115503Y-94226D01*
X115441Y-94164D01*
X114910Y-94164D01*
X114910Y-94695D01*
X114972Y-94757D01*
X115303Y-94757D01*
X115395Y-94719D01*
X115465Y-94649D01*
X115503Y-94557D01*
X115503Y-94458D01*
X115503Y-98299D01*
X115058Y-98299D01*
X115013Y-98317D01*
X114979Y-98351D01*
X114961Y-98395D01*
X114961Y-98444D01*
X114961Y-99231D01*
X114979Y-99275D01*
X115013Y-99309D01*
X115057Y-99328D01*
X115105Y-99328D01*
X116601Y-99328D01*
X116646Y-99310D01*
X116680Y-99276D01*
X116698Y-99231D01*
X116698Y-99183D01*
X116698Y-100779D01*
X116416Y-100779D01*
X116371Y-100797D01*
X116337Y-100831D01*
X116319Y-100876D01*
X116319Y-100924D01*
X116319Y-101711D01*
X116337Y-101756D01*
X116371Y-101790D01*
X116416Y-101808D01*
X116464Y-101808D01*
X117054Y-101808D01*
X117099Y-101790D01*
X117133Y-101756D01*
X117151Y-101712D01*
X117151Y-101663D01*
X117151Y-101506D01*
X117186Y-101520D01*
X117281Y-101521D01*
X117301Y-101512D01*
X117301Y-101538D01*
X117319Y-101582D01*
X117353Y-101616D01*
X117398Y-101635D01*
X117446Y-101635D01*
X117497Y-101635D01*
X117153Y-101979D01*
X116442Y-101979D01*
X116397Y-101997D01*
X116363Y-102031D01*
X116345Y-102076D01*
X116345Y-102124D01*
X116345Y-102337D01*
X116246Y-102337D01*
X116246Y-101663D01*
X116246Y-100876D01*
X116227Y-100832D01*
X116193Y-100798D01*
X116149Y-100779D01*
X116101Y-100779D01*
X115986Y-100779D01*
X115986Y-100359D01*
X116036Y-100309D01*
X116072Y-100221D01*
X116073Y-100126D01*
X116036Y-100038D01*
X115969Y-99971D01*
X115881Y-99935D01*
X115786Y-99934D01*
X115698Y-99971D01*
X115631Y-100038D01*
X115595Y-100126D01*
X115594Y-100221D01*
X115631Y-100309D01*
X115673Y-100351D01*
X115673Y-100779D01*
X115510Y-100779D01*
X115466Y-100797D01*
X115453Y-100810D01*
X115431Y-100759D01*
X115361Y-100688D01*
X115269Y-100650D01*
X115170Y-100650D01*
X115036Y-100650D01*
X114974Y-100712D01*
X114974Y-101244D01*
X114982Y-101244D01*
X114982Y-101344D01*
X114974Y-101344D01*
X114974Y-101875D01*
X115036Y-101937D01*
X115170Y-101937D01*
X115269Y-101937D01*
X115361Y-101899D01*
X115431Y-101829D01*
X115453Y-101777D01*
X115466Y-101790D01*
X115510Y-101808D01*
X115558Y-101808D01*
X116149Y-101808D01*
X116193Y-101790D01*
X116227Y-101756D01*
X116246Y-101712D01*
X116246Y-101663D01*
X116246Y-102337D01*
X115374Y-102337D01*
X115374Y-102076D01*
X115356Y-102031D01*
X115322Y-101997D01*
X115277Y-101979D01*
X115229Y-101979D01*
X114510Y-101979D01*
X114510Y-101909D01*
X114579Y-101937D01*
X114678Y-101937D01*
X114811Y-101937D01*
X114874Y-101875D01*
X114874Y-101344D01*
X114866Y-101344D01*
X114866Y-101244D01*
X114874Y-101244D01*
X114874Y-100712D01*
X114811Y-100650D01*
X114678Y-100650D01*
X114579Y-100650D01*
X114510Y-100679D01*
X114510Y-96711D01*
X114524Y-96732D01*
X114524Y-96733D01*
X114566Y-96774D01*
X114658Y-96836D01*
X114712Y-96858D01*
X114712Y-96858D01*
X114820Y-96880D01*
X114820Y-96880D01*
X114879Y-96880D01*
X114987Y-96858D01*
X115041Y-96836D01*
X115042Y-96836D01*
X115132Y-96775D01*
X115133Y-96775D01*
X115174Y-96733D01*
X115236Y-96641D01*
X115258Y-96587D01*
X115258Y-96587D01*
X115280Y-96479D01*
X115280Y-96479D01*
X115280Y-96479D01*
X115280Y-96479D01*
X115280Y-96450D01*
X115280Y-96420D01*
X115280Y-96420D01*
X115280Y-96420D01*
X115280Y-96420D01*
X115258Y-96312D01*
X115258Y-96312D01*
X115236Y-96258D01*
X115174Y-96166D01*
X115133Y-96124D01*
X115132Y-96124D01*
X115042Y-96063D01*
X115041Y-96063D01*
X114987Y-96041D01*
X114879Y-96019D01*
X114820Y-96019D01*
X114820Y-96019D01*
X114712Y-96041D01*
X114712Y-96041D01*
X114658Y-96063D01*
X114566Y-96125D01*
X114524Y-96166D01*
X114524Y-96167D01*
X114510Y-96188D01*
X114510Y-94757D01*
X114747Y-94757D01*
X114810Y-94695D01*
X114810Y-94164D01*
X114802Y-94164D01*
X114802Y-94064D01*
X114810Y-94064D01*
X114810Y-93532D01*
X114747Y-93470D01*
X114510Y-93470D01*
X114510Y-93428D01*
X115277Y-93428D01*
X115322Y-93410D01*
X115356Y-93376D01*
X115374Y-93331D01*
X115374Y-93283D01*
X115374Y-93070D01*
X116345Y-93070D01*
X116345Y-93331D01*
X116363Y-93376D01*
X116397Y-93410D01*
X116442Y-93428D01*
X116490Y-93428D01*
X117277Y-93428D01*
X117322Y-93410D01*
X117356Y-93376D01*
X117374Y-93331D01*
X117374Y-93283D01*
X117374Y-93070D01*
X126819Y-93070D01*
X126969Y-93220D01*
X126969Y-97278D01*
X126981Y-97337D01*
X127015Y-97388D01*
X127659Y-98032D01*
X127659Y-98032D01*
X127710Y-98066D01*
X127710Y-98066D01*
X127720Y-98068D01*
X127769Y-98078D01*
X128702Y-98078D01*
X128701Y-98078D01*
X128701Y-98126D01*
X128701Y-98237D01*
X128709Y-98256D01*
X128701Y-98275D01*
X128701Y-98323D01*
X128701Y-98434D01*
X128709Y-98453D01*
X128701Y-98472D01*
X128701Y-98520D01*
X128701Y-98630D01*
X128709Y-98650D01*
X128701Y-98669D01*
X128701Y-98717D01*
X128701Y-98789D01*
X126503Y-98789D01*
X126095Y-98381D01*
X126269Y-98381D01*
X126314Y-98362D01*
X126348Y-98328D01*
X126366Y-98284D01*
X126366Y-98236D01*
X126366Y-97535D01*
X126387Y-97527D01*
X126457Y-97457D01*
X126495Y-97365D01*
X126495Y-97265D01*
X126495Y-96577D01*
X126495Y-96477D01*
X126457Y-96386D01*
X126430Y-96358D01*
X126430Y-93779D01*
X126430Y-93750D01*
X126430Y-93720D01*
X126430Y-93720D01*
X126430Y-93720D01*
X126430Y-93720D01*
X126408Y-93612D01*
X126408Y-93612D01*
X126386Y-93558D01*
X126324Y-93466D01*
X126283Y-93424D01*
X126282Y-93424D01*
X126192Y-93363D01*
X126191Y-93363D01*
X126137Y-93341D01*
X126029Y-93319D01*
X125970Y-93319D01*
X125970Y-93319D01*
X125862Y-93341D01*
X125862Y-93341D01*
X125808Y-93363D01*
X125716Y-93425D01*
X125674Y-93466D01*
X125674Y-93467D01*
X125613Y-93557D01*
X125613Y-93558D01*
X125591Y-93612D01*
X125569Y-93720D01*
X125569Y-93750D01*
X125569Y-93779D01*
X125591Y-93887D01*
X125613Y-93941D01*
X125613Y-93942D01*
X125674Y-94032D01*
X125674Y-94033D01*
X125716Y-94074D01*
X125808Y-94136D01*
X125862Y-94158D01*
X125862Y-94158D01*
X125970Y-94180D01*
X125970Y-94180D01*
X126029Y-94180D01*
X126137Y-94158D01*
X126191Y-94136D01*
X126192Y-94136D01*
X126282Y-94075D01*
X126283Y-94075D01*
X126324Y-94033D01*
X126386Y-93941D01*
X126408Y-93887D01*
X126408Y-93887D01*
X126430Y-93779D01*
X126430Y-93779D01*
X126430Y-93779D01*
X126430Y-93779D01*
X126430Y-96358D01*
X126387Y-96315D01*
X126295Y-96277D01*
X125472Y-96277D01*
X125410Y-96340D01*
X125410Y-96871D01*
X126433Y-96871D01*
X126495Y-96809D01*
X126495Y-96577D01*
X126495Y-97265D01*
X126495Y-97034D01*
X126433Y-96971D01*
X125410Y-96971D01*
X125410Y-96979D01*
X125310Y-96979D01*
X125310Y-96971D01*
X125310Y-96871D01*
X125310Y-96340D01*
X125247Y-96277D01*
X124424Y-96277D01*
X124332Y-96315D01*
X124262Y-96386D01*
X124224Y-96477D01*
X124224Y-96577D01*
X124224Y-96809D01*
X124286Y-96871D01*
X125310Y-96871D01*
X125310Y-96971D01*
X124286Y-96971D01*
X124224Y-97034D01*
X124224Y-97265D01*
X124224Y-97365D01*
X124262Y-97457D01*
X124332Y-97527D01*
X124353Y-97535D01*
X124353Y-98284D01*
X124371Y-98328D01*
X124405Y-98362D01*
X124450Y-98380D01*
X124498Y-98381D01*
X125653Y-98381D01*
X126258Y-98986D01*
X124143Y-98986D01*
X122988Y-97831D01*
X122988Y-95400D01*
X123250Y-95400D01*
X123294Y-95382D01*
X123328Y-95348D01*
X123346Y-95303D01*
X123347Y-95255D01*
X123347Y-93484D01*
X123328Y-93439D01*
X123294Y-93405D01*
X123250Y-93387D01*
X123202Y-93387D01*
X122501Y-93387D01*
X122493Y-93366D01*
X122422Y-93296D01*
X122330Y-93258D01*
X122000Y-93258D01*
X121937Y-93320D01*
X121937Y-94344D01*
X121945Y-94344D01*
X121945Y-94444D01*
X121937Y-94444D01*
X121937Y-95467D01*
X122000Y-95529D01*
X122330Y-95529D01*
X122422Y-95491D01*
X122493Y-95421D01*
X122501Y-95400D01*
X122676Y-95400D01*
X122676Y-97896D01*
X122688Y-97956D01*
X122721Y-98006D01*
X123967Y-99252D01*
X124018Y-99286D01*
X124078Y-99298D01*
X128097Y-99298D01*
X128062Y-99384D01*
X128062Y-99557D01*
X128124Y-99619D01*
X128410Y-99619D01*
X128410Y-99612D01*
X128510Y-99612D01*
X128510Y-99619D01*
X128517Y-99619D01*
X128517Y-99719D01*
X128510Y-99719D01*
X128510Y-99727D01*
X128410Y-99727D01*
X128410Y-99719D01*
X128124Y-99719D01*
X128062Y-99782D01*
X128062Y-99955D01*
X128100Y-100047D01*
X128170Y-100118D01*
X128202Y-100131D01*
X128191Y-100157D01*
X128191Y-100205D01*
X128191Y-100678D01*
X128209Y-100722D01*
X128243Y-100756D01*
X128288Y-100775D01*
X128336Y-100775D01*
X128631Y-100775D01*
X128676Y-100756D01*
X128710Y-100722D01*
X128728Y-100678D01*
X128728Y-100630D01*
X128728Y-100370D01*
X128743Y-100355D01*
X128754Y-100366D01*
X128798Y-100385D01*
X128846Y-100385D01*
X129437Y-100385D01*
X129481Y-100366D01*
X129493Y-100355D01*
X129516Y-100378D01*
X129562Y-100397D01*
X129537Y-100422D01*
X129518Y-100466D01*
X129518Y-100514D01*
X129518Y-101105D01*
X129537Y-101149D01*
X129570Y-101183D01*
X129575Y-101185D01*
G54D10*
G36*
X130746Y-102650D02*
X130317Y-103079D01*
X130139Y-103079D01*
X130094Y-103097D01*
X130060Y-103131D01*
X130042Y-103176D01*
X130042Y-103224D01*
X130042Y-104011D01*
X130055Y-104043D01*
X130014Y-104043D01*
X130027Y-104011D01*
X130027Y-103963D01*
X130027Y-103176D01*
X130009Y-103131D01*
X129975Y-103097D01*
X129930Y-103079D01*
X129882Y-103079D01*
X129489Y-103079D01*
X129444Y-103097D01*
X129410Y-103131D01*
X129392Y-103176D01*
X129392Y-103222D01*
X129365Y-103158D01*
X129295Y-103088D01*
X129203Y-103050D01*
X128872Y-103050D01*
X128810Y-103112D01*
X128810Y-103644D01*
X128817Y-103644D01*
X128817Y-103744D01*
X128810Y-103744D01*
X128810Y-103751D01*
X128710Y-103751D01*
X128710Y-103744D01*
X128710Y-103644D01*
X128710Y-103112D01*
X128647Y-103050D01*
X128316Y-103050D01*
X128224Y-103088D01*
X128154Y-103158D01*
X128116Y-103250D01*
X128116Y-103349D01*
X128116Y-103581D01*
X128178Y-103644D01*
X128710Y-103644D01*
X128710Y-103744D01*
X128178Y-103744D01*
X128116Y-103806D01*
X128116Y-104038D01*
X128116Y-104043D01*
X127403Y-104043D01*
X127403Y-104038D01*
X127403Y-103349D01*
X127403Y-103250D01*
X127365Y-103158D01*
X127295Y-103088D01*
X127203Y-103050D01*
X126872Y-103050D01*
X126810Y-103112D01*
X126810Y-103644D01*
X127341Y-103644D01*
X127403Y-103581D01*
X127403Y-103349D01*
X127403Y-104038D01*
X127403Y-103806D01*
X127341Y-103744D01*
X126810Y-103744D01*
X126810Y-103751D01*
X126710Y-103751D01*
X126710Y-103744D01*
X126702Y-103744D01*
X126702Y-103644D01*
X126710Y-103644D01*
X126710Y-103112D01*
X126647Y-103050D01*
X126316Y-103050D01*
X126224Y-103088D01*
X126154Y-103158D01*
X126116Y-103250D01*
X126116Y-103349D01*
X126116Y-103428D01*
X126074Y-103366D01*
X126033Y-103324D01*
X126032Y-103324D01*
X125942Y-103263D01*
X125941Y-103263D01*
X125887Y-103241D01*
X125779Y-103219D01*
X125720Y-103219D01*
X125720Y-103219D01*
X125612Y-103241D01*
X125612Y-103241D01*
X125558Y-103263D01*
X125466Y-103325D01*
X125424Y-103366D01*
X125424Y-103367D01*
X125363Y-103457D01*
X125363Y-103458D01*
X125341Y-103512D01*
X125319Y-103620D01*
X125319Y-103650D01*
X125319Y-103679D01*
X125341Y-103787D01*
X125363Y-103841D01*
X125363Y-103842D01*
X125424Y-103932D01*
X125424Y-103933D01*
X125466Y-103974D01*
X125558Y-104036D01*
X125575Y-104043D01*
X120974Y-104043D01*
X120991Y-104036D01*
X120992Y-104036D01*
X121082Y-103975D01*
X121083Y-103975D01*
X121124Y-103933D01*
X121186Y-103841D01*
X121208Y-103787D01*
X121208Y-103787D01*
X121230Y-103679D01*
X121230Y-103679D01*
X121230Y-103679D01*
X121230Y-103679D01*
X121230Y-103650D01*
X121230Y-103620D01*
X121230Y-103620D01*
X121230Y-103620D01*
X121230Y-103620D01*
X121208Y-103512D01*
X121208Y-103512D01*
X121186Y-103458D01*
X121124Y-103366D01*
X121083Y-103324D01*
X121082Y-103324D01*
X120992Y-103263D01*
X120991Y-103263D01*
X120937Y-103241D01*
X120829Y-103219D01*
X120770Y-103219D01*
X120770Y-103219D01*
X120662Y-103241D01*
X120662Y-103241D01*
X120608Y-103263D01*
X120516Y-103325D01*
X120503Y-103337D01*
X120503Y-103250D01*
X120465Y-103158D01*
X120395Y-103088D01*
X120303Y-103050D01*
X119972Y-103050D01*
X119910Y-103112D01*
X119910Y-103644D01*
X119917Y-103644D01*
X119917Y-103744D01*
X119910Y-103744D01*
X119910Y-103751D01*
X119810Y-103751D01*
X119810Y-103744D01*
X119810Y-103644D01*
X119810Y-103112D01*
X119747Y-103050D01*
X119416Y-103050D01*
X119324Y-103088D01*
X119254Y-103158D01*
X119216Y-103250D01*
X119216Y-103349D01*
X119216Y-103581D01*
X119278Y-103644D01*
X119810Y-103644D01*
X119810Y-103744D01*
X119278Y-103744D01*
X119216Y-103806D01*
X119216Y-104038D01*
X119216Y-104043D01*
X118503Y-104043D01*
X118503Y-104038D01*
X118503Y-103349D01*
X118503Y-103250D01*
X118465Y-103158D01*
X118395Y-103088D01*
X118303Y-103050D01*
X117972Y-103050D01*
X117910Y-103112D01*
X117910Y-103644D01*
X118441Y-103644D01*
X118503Y-103581D01*
X118503Y-103349D01*
X118503Y-104038D01*
X118503Y-103806D01*
X118441Y-103744D01*
X117910Y-103744D01*
X117910Y-103751D01*
X117810Y-103751D01*
X117810Y-103744D01*
X117810Y-103644D01*
X117810Y-103112D01*
X117747Y-103050D01*
X117416Y-103050D01*
X117360Y-103073D01*
X117303Y-103050D01*
X116972Y-103050D01*
X116910Y-103112D01*
X116910Y-103644D01*
X117278Y-103644D01*
X117441Y-103644D01*
X117810Y-103644D01*
X117810Y-103744D01*
X117441Y-103744D01*
X117278Y-103744D01*
X116910Y-103744D01*
X116910Y-103751D01*
X116810Y-103751D01*
X116810Y-103744D01*
X116810Y-103644D01*
X116810Y-103112D01*
X116747Y-103050D01*
X116416Y-103050D01*
X116324Y-103088D01*
X116254Y-103158D01*
X116216Y-103250D01*
X116216Y-103349D01*
X116216Y-103581D01*
X116278Y-103644D01*
X116810Y-103644D01*
X116810Y-103744D01*
X116278Y-103744D01*
X116216Y-103806D01*
X116216Y-104038D01*
X116216Y-104043D01*
X115503Y-104043D01*
X115503Y-104038D01*
X115503Y-103349D01*
X115503Y-103250D01*
X115465Y-103158D01*
X115395Y-103088D01*
X115303Y-103050D01*
X114972Y-103050D01*
X114910Y-103112D01*
X114910Y-103644D01*
X115441Y-103644D01*
X115503Y-103581D01*
X115503Y-103349D01*
X115503Y-104038D01*
X115503Y-103806D01*
X115441Y-103744D01*
X114910Y-103744D01*
X114910Y-103751D01*
X114810Y-103751D01*
X114810Y-103744D01*
X114802Y-103744D01*
X114802Y-103644D01*
X114810Y-103644D01*
X114810Y-103112D01*
X114747Y-103050D01*
X114510Y-103050D01*
X114510Y-103008D01*
X115277Y-103008D01*
X115322Y-102990D01*
X115356Y-102956D01*
X115374Y-102911D01*
X115374Y-102863D01*
X115374Y-102650D01*
X116345Y-102650D01*
X116345Y-102911D01*
X116363Y-102956D01*
X116397Y-102990D01*
X116442Y-103008D01*
X116490Y-103008D01*
X117277Y-103008D01*
X117322Y-102990D01*
X117356Y-102956D01*
X117359Y-102946D01*
X117363Y-102956D01*
X117397Y-102990D01*
X117442Y-103008D01*
X117490Y-103008D01*
X118277Y-103008D01*
X118322Y-102990D01*
X118356Y-102956D01*
X118374Y-102911D01*
X118374Y-102863D01*
X118374Y-102650D01*
X119345Y-102650D01*
X119345Y-102911D01*
X119363Y-102956D01*
X119397Y-102990D01*
X119442Y-103008D01*
X119490Y-103008D01*
X120277Y-103008D01*
X120322Y-102990D01*
X120356Y-102956D01*
X120374Y-102911D01*
X120374Y-102863D01*
X120374Y-102200D01*
X120504Y-102070D01*
X126247Y-102070D01*
X126245Y-102076D01*
X126245Y-102124D01*
X126245Y-102911D01*
X126263Y-102956D01*
X126297Y-102990D01*
X126342Y-103008D01*
X126390Y-103008D01*
X127177Y-103008D01*
X127222Y-102990D01*
X127256Y-102956D01*
X127274Y-102911D01*
X127274Y-102863D01*
X127274Y-102650D01*
X128245Y-102650D01*
X128245Y-102911D01*
X128263Y-102956D01*
X128297Y-102990D01*
X128342Y-103008D01*
X128390Y-103008D01*
X129177Y-103008D01*
X129222Y-102990D01*
X129256Y-102956D01*
X129274Y-102911D01*
X129274Y-102863D01*
X129274Y-102650D01*
X130746Y-102650D01*
X130746Y-102650D01*
G37*
G54D29*
X130746Y-102650D02*
X130317Y-103079D01*
X130139Y-103079D01*
X130094Y-103097D01*
X130060Y-103131D01*
X130042Y-103176D01*
X130042Y-103224D01*
X130042Y-104011D01*
X130055Y-104043D01*
X130014Y-104043D01*
X130027Y-104011D01*
X130027Y-103963D01*
X130027Y-103176D01*
X130009Y-103131D01*
X129975Y-103097D01*
X129930Y-103079D01*
X129882Y-103079D01*
X129489Y-103079D01*
X129444Y-103097D01*
X129410Y-103131D01*
X129392Y-103176D01*
X129392Y-103222D01*
X129365Y-103158D01*
X129295Y-103088D01*
X129203Y-103050D01*
X128872Y-103050D01*
X128810Y-103112D01*
X128810Y-103644D01*
X128817Y-103644D01*
X128817Y-103744D01*
X128810Y-103744D01*
X128810Y-103751D01*
X128710Y-103751D01*
X128710Y-103744D01*
X128710Y-103644D01*
X128710Y-103112D01*
X128647Y-103050D01*
X128316Y-103050D01*
X128224Y-103088D01*
X128154Y-103158D01*
X128116Y-103250D01*
X128116Y-103349D01*
X128116Y-103581D01*
X128178Y-103644D01*
X128710Y-103644D01*
X128710Y-103744D01*
X128178Y-103744D01*
X128116Y-103806D01*
X128116Y-104038D01*
X128116Y-104043D01*
X127403Y-104043D01*
X127403Y-104038D01*
X127403Y-103349D01*
X127403Y-103250D01*
X127365Y-103158D01*
X127295Y-103088D01*
X127203Y-103050D01*
X126872Y-103050D01*
X126810Y-103112D01*
X126810Y-103644D01*
X127341Y-103644D01*
X127403Y-103581D01*
X127403Y-103349D01*
X127403Y-104038D01*
X127403Y-103806D01*
X127341Y-103744D01*
X126810Y-103744D01*
X126810Y-103751D01*
X126710Y-103751D01*
X126710Y-103744D01*
X126702Y-103744D01*
X126702Y-103644D01*
X126710Y-103644D01*
X126710Y-103112D01*
X126647Y-103050D01*
X126316Y-103050D01*
X126224Y-103088D01*
X126154Y-103158D01*
X126116Y-103250D01*
X126116Y-103349D01*
X126116Y-103428D01*
X126074Y-103366D01*
X126033Y-103324D01*
X126032Y-103324D01*
X125942Y-103263D01*
X125941Y-103263D01*
X125887Y-103241D01*
X125779Y-103219D01*
X125720Y-103219D01*
X125720Y-103219D01*
X125612Y-103241D01*
X125612Y-103241D01*
X125558Y-103263D01*
X125466Y-103325D01*
X125424Y-103366D01*
X125424Y-103367D01*
X125363Y-103457D01*
X125363Y-103458D01*
X125341Y-103512D01*
X125319Y-103620D01*
X125319Y-103650D01*
X125319Y-103679D01*
X125341Y-103787D01*
X125363Y-103841D01*
X125363Y-103842D01*
X125424Y-103932D01*
X125424Y-103933D01*
X125466Y-103974D01*
X125558Y-104036D01*
X125575Y-104043D01*
X120974Y-104043D01*
X120991Y-104036D01*
X120992Y-104036D01*
X121082Y-103975D01*
X121083Y-103975D01*
X121124Y-103933D01*
X121186Y-103841D01*
X121208Y-103787D01*
X121208Y-103787D01*
X121230Y-103679D01*
X121230Y-103679D01*
X121230Y-103679D01*
X121230Y-103679D01*
X121230Y-103650D01*
X121230Y-103620D01*
X121230Y-103620D01*
X121230Y-103620D01*
X121230Y-103620D01*
X121208Y-103512D01*
X121208Y-103512D01*
X121186Y-103458D01*
X121124Y-103366D01*
X121083Y-103324D01*
X121082Y-103324D01*
X120992Y-103263D01*
X120991Y-103263D01*
X120937Y-103241D01*
X120829Y-103219D01*
X120770Y-103219D01*
X120770Y-103219D01*
X120662Y-103241D01*
X120662Y-103241D01*
X120608Y-103263D01*
X120516Y-103325D01*
X120503Y-103337D01*
X120503Y-103250D01*
X120465Y-103158D01*
X120395Y-103088D01*
X120303Y-103050D01*
X119972Y-103050D01*
X119910Y-103112D01*
X119910Y-103644D01*
X119917Y-103644D01*
X119917Y-103744D01*
X119910Y-103744D01*
X119910Y-103751D01*
X119810Y-103751D01*
X119810Y-103744D01*
X119810Y-103644D01*
X119810Y-103112D01*
X119747Y-103050D01*
X119416Y-103050D01*
X119324Y-103088D01*
X119254Y-103158D01*
X119216Y-103250D01*
X119216Y-103349D01*
X119216Y-103581D01*
X119278Y-103644D01*
X119810Y-103644D01*
X119810Y-103744D01*
X119278Y-103744D01*
X119216Y-103806D01*
X119216Y-104038D01*
X119216Y-104043D01*
X118503Y-104043D01*
X118503Y-104038D01*
X118503Y-103349D01*
X118503Y-103250D01*
X118465Y-103158D01*
X118395Y-103088D01*
X118303Y-103050D01*
X117972Y-103050D01*
X117910Y-103112D01*
X117910Y-103644D01*
X118441Y-103644D01*
X118503Y-103581D01*
X118503Y-103349D01*
X118503Y-104038D01*
X118503Y-103806D01*
X118441Y-103744D01*
X117910Y-103744D01*
X117910Y-103751D01*
X117810Y-103751D01*
X117810Y-103744D01*
X117810Y-103644D01*
X117810Y-103112D01*
X117747Y-103050D01*
X117416Y-103050D01*
X117360Y-103073D01*
X117303Y-103050D01*
X116972Y-103050D01*
X116910Y-103112D01*
X116910Y-103644D01*
X117278Y-103644D01*
X117441Y-103644D01*
X117810Y-103644D01*
X117810Y-103744D01*
X117441Y-103744D01*
X117278Y-103744D01*
X116910Y-103744D01*
X116910Y-103751D01*
X116810Y-103751D01*
X116810Y-103744D01*
X116810Y-103644D01*
X116810Y-103112D01*
X116747Y-103050D01*
X116416Y-103050D01*
X116324Y-103088D01*
X116254Y-103158D01*
X116216Y-103250D01*
X116216Y-103349D01*
X116216Y-103581D01*
X116278Y-103644D01*
X116810Y-103644D01*
X116810Y-103744D01*
X116278Y-103744D01*
X116216Y-103806D01*
X116216Y-104038D01*
X116216Y-104043D01*
X115503Y-104043D01*
X115503Y-104038D01*
X115503Y-103349D01*
X115503Y-103250D01*
X115465Y-103158D01*
X115395Y-103088D01*
X115303Y-103050D01*
X114972Y-103050D01*
X114910Y-103112D01*
X114910Y-103644D01*
X115441Y-103644D01*
X115503Y-103581D01*
X115503Y-103349D01*
X115503Y-104038D01*
X115503Y-103806D01*
X115441Y-103744D01*
X114910Y-103744D01*
X114910Y-103751D01*
X114810Y-103751D01*
X114810Y-103744D01*
X114802Y-103744D01*
X114802Y-103644D01*
X114810Y-103644D01*
X114810Y-103112D01*
X114747Y-103050D01*
X114510Y-103050D01*
X114510Y-103008D01*
X115277Y-103008D01*
X115322Y-102990D01*
X115356Y-102956D01*
X115374Y-102911D01*
X115374Y-102863D01*
X115374Y-102650D01*
X116345Y-102650D01*
X116345Y-102911D01*
X116363Y-102956D01*
X116397Y-102990D01*
X116442Y-103008D01*
X116490Y-103008D01*
X117277Y-103008D01*
X117322Y-102990D01*
X117356Y-102956D01*
X117359Y-102946D01*
X117363Y-102956D01*
X117397Y-102990D01*
X117442Y-103008D01*
X117490Y-103008D01*
X118277Y-103008D01*
X118322Y-102990D01*
X118356Y-102956D01*
X118374Y-102911D01*
X118374Y-102863D01*
X118374Y-102650D01*
X119345Y-102650D01*
X119345Y-102911D01*
X119363Y-102956D01*
X119397Y-102990D01*
X119442Y-103008D01*
X119490Y-103008D01*
X120277Y-103008D01*
X120322Y-102990D01*
X120356Y-102956D01*
X120374Y-102911D01*
X120374Y-102863D01*
X120374Y-102200D01*
X120504Y-102070D01*
X126247Y-102070D01*
X126245Y-102076D01*
X126245Y-102124D01*
X126245Y-102911D01*
X126263Y-102956D01*
X126297Y-102990D01*
X126342Y-103008D01*
X126390Y-103008D01*
X127177Y-103008D01*
X127222Y-102990D01*
X127256Y-102956D01*
X127274Y-102911D01*
X127274Y-102863D01*
X127274Y-102650D01*
X128245Y-102650D01*
X128245Y-102911D01*
X128263Y-102956D01*
X128297Y-102990D01*
X128342Y-103008D01*
X128390Y-103008D01*
X129177Y-103008D01*
X129222Y-102990D01*
X129256Y-102956D01*
X129274Y-102911D01*
X129274Y-102863D01*
X129274Y-102650D01*
X130746Y-102650D01*
G54D10*
G36*
X132812Y-98769D02*
X132282Y-98769D01*
X132266Y-98776D01*
X132119Y-98776D01*
X132056Y-98838D01*
X132056Y-98853D01*
X132094Y-98945D01*
X132165Y-99015D01*
X132185Y-99024D01*
X132185Y-99024D01*
X132193Y-99043D01*
X132186Y-99063D01*
X132185Y-99111D01*
X132185Y-99221D01*
X132193Y-99240D01*
X132186Y-99260D01*
X132185Y-99308D01*
X132185Y-99418D01*
X132193Y-99437D01*
X132186Y-99456D01*
X132185Y-99504D01*
X132185Y-99615D01*
X132193Y-99634D01*
X132186Y-99653D01*
X132185Y-99701D01*
X132185Y-99812D01*
X132193Y-99831D01*
X132186Y-99850D01*
X132185Y-99898D01*
X132185Y-100008D01*
X132193Y-100026D01*
X132186Y-100042D01*
X132182Y-100032D01*
X132115Y-99965D01*
X132027Y-99929D01*
X131932Y-99928D01*
X131844Y-99965D01*
X131777Y-100032D01*
X131741Y-100120D01*
X131740Y-100215D01*
X131776Y-100300D01*
X131773Y-100303D01*
X131773Y-100441D01*
X131762Y-100466D01*
X131762Y-100514D01*
X131762Y-101016D01*
X131724Y-101016D01*
X131724Y-100466D01*
X131718Y-100450D01*
X131718Y-100303D01*
X131705Y-100290D01*
X131705Y-98507D01*
X131726Y-98455D01*
X131727Y-98360D01*
X131690Y-98272D01*
X131623Y-98205D01*
X131535Y-98169D01*
X131440Y-98168D01*
X131352Y-98205D01*
X131285Y-98272D01*
X131249Y-98360D01*
X131248Y-98455D01*
X131285Y-98543D01*
X131352Y-98610D01*
X131392Y-98627D01*
X131392Y-100369D01*
X131383Y-100369D01*
X131273Y-100369D01*
X131253Y-100377D01*
X131234Y-100370D01*
X131186Y-100369D01*
X131076Y-100369D01*
X131056Y-100377D01*
X131037Y-100370D01*
X130989Y-100369D01*
X130879Y-100369D01*
X130860Y-100377D01*
X130840Y-100370D01*
X130792Y-100369D01*
X130682Y-100369D01*
X130663Y-100377D01*
X130643Y-100370D01*
X130595Y-100369D01*
X130485Y-100369D01*
X130466Y-100377D01*
X130447Y-100370D01*
X130399Y-100369D01*
X130288Y-100369D01*
X130269Y-100377D01*
X130250Y-100370D01*
X130202Y-100369D01*
X130091Y-100369D01*
X130072Y-100377D01*
X130053Y-100370D01*
X130005Y-100369D01*
X129895Y-100369D01*
X129877Y-100377D01*
X129860Y-100370D01*
X129812Y-100369D01*
X129795Y-100369D01*
X129854Y-100311D01*
X129890Y-100223D01*
X129891Y-100128D01*
X129854Y-100040D01*
X129787Y-99973D01*
X129699Y-99937D01*
X129604Y-99936D01*
X129555Y-99957D01*
X129462Y-99957D01*
X129437Y-99946D01*
X129389Y-99946D01*
X129060Y-99946D01*
X129060Y-99908D01*
X129437Y-99908D01*
X129453Y-99902D01*
X129600Y-99902D01*
X129663Y-99839D01*
X129663Y-99825D01*
X129646Y-99784D01*
X129699Y-99785D01*
X129787Y-99748D01*
X129854Y-99681D01*
X129890Y-99593D01*
X129890Y-99528D01*
X130478Y-98940D01*
X130478Y-98940D01*
X130501Y-98906D01*
X130512Y-98889D01*
X130512Y-98889D01*
X130524Y-98830D01*
X130524Y-98830D01*
X130524Y-97797D01*
X130537Y-97784D01*
X130537Y-97637D01*
X130543Y-97621D01*
X130543Y-97573D01*
X130543Y-97033D01*
X130585Y-97033D01*
X130585Y-97621D01*
X130592Y-97637D01*
X130592Y-97784D01*
X130654Y-97847D01*
X130669Y-97847D01*
X130713Y-97828D01*
X130735Y-97843D01*
X130752Y-97854D01*
X130752Y-97854D01*
X130812Y-97866D01*
X132185Y-97866D01*
X132185Y-97882D01*
X132165Y-97891D01*
X132094Y-97961D01*
X132056Y-98053D01*
X132056Y-98068D01*
X132119Y-98130D01*
X132257Y-98130D01*
X132282Y-98141D01*
X132330Y-98141D01*
X132660Y-98141D01*
X132660Y-98179D01*
X132282Y-98179D01*
X132266Y-98185D01*
X132119Y-98185D01*
X132056Y-98248D01*
X132056Y-98262D01*
X132094Y-98354D01*
X132165Y-98425D01*
X132185Y-98433D01*
X132185Y-98434D01*
X132193Y-98453D01*
X132186Y-98472D01*
X132186Y-98473D01*
X132165Y-98481D01*
X132094Y-98552D01*
X132056Y-98644D01*
X132056Y-98658D01*
X132119Y-98721D01*
X132266Y-98721D01*
X132282Y-98727D01*
X132330Y-98727D01*
X132812Y-98727D01*
X132812Y-98769D01*
X132812Y-98769D01*
G37*
G54D29*
X132812Y-98769D02*
X132282Y-98769D01*
X132266Y-98776D01*
X132119Y-98776D01*
X132056Y-98838D01*
X132056Y-98853D01*
X132094Y-98945D01*
X132165Y-99015D01*
X132185Y-99024D01*
X132185Y-99024D01*
X132193Y-99043D01*
X132186Y-99063D01*
X132185Y-99111D01*
X132185Y-99221D01*
X132193Y-99240D01*
X132186Y-99260D01*
X132185Y-99308D01*
X132185Y-99418D01*
X132193Y-99437D01*
X132186Y-99456D01*
X132185Y-99504D01*
X132185Y-99615D01*
X132193Y-99634D01*
X132186Y-99653D01*
X132185Y-99701D01*
X132185Y-99812D01*
X132193Y-99831D01*
X132186Y-99850D01*
X132185Y-99898D01*
X132185Y-100008D01*
X132193Y-100026D01*
X132186Y-100042D01*
X132182Y-100032D01*
X132115Y-99965D01*
X132027Y-99929D01*
X131932Y-99928D01*
X131844Y-99965D01*
X131777Y-100032D01*
X131741Y-100120D01*
X131740Y-100215D01*
X131776Y-100300D01*
X131773Y-100303D01*
X131773Y-100441D01*
X131762Y-100466D01*
X131762Y-100514D01*
X131762Y-101016D01*
X131724Y-101016D01*
X131724Y-100466D01*
X131718Y-100450D01*
X131718Y-100303D01*
X131705Y-100290D01*
X131705Y-98507D01*
X131726Y-98455D01*
X131727Y-98360D01*
X131690Y-98272D01*
X131623Y-98205D01*
X131535Y-98169D01*
X131440Y-98168D01*
X131352Y-98205D01*
X131285Y-98272D01*
X131249Y-98360D01*
X131248Y-98455D01*
X131285Y-98543D01*
X131352Y-98610D01*
X131392Y-98627D01*
X131392Y-100369D01*
X131383Y-100369D01*
X131273Y-100369D01*
X131253Y-100377D01*
X131234Y-100370D01*
X131186Y-100369D01*
X131076Y-100369D01*
X131056Y-100377D01*
X131037Y-100370D01*
X130989Y-100369D01*
X130879Y-100369D01*
X130860Y-100377D01*
X130840Y-100370D01*
X130792Y-100369D01*
X130682Y-100369D01*
X130663Y-100377D01*
X130643Y-100370D01*
X130595Y-100369D01*
X130485Y-100369D01*
X130466Y-100377D01*
X130447Y-100370D01*
X130399Y-100369D01*
X130288Y-100369D01*
X130269Y-100377D01*
X130250Y-100370D01*
X130202Y-100369D01*
X130091Y-100369D01*
X130072Y-100377D01*
X130053Y-100370D01*
X130005Y-100369D01*
X129895Y-100369D01*
X129877Y-100377D01*
X129860Y-100370D01*
X129812Y-100369D01*
X129795Y-100369D01*
X129854Y-100311D01*
X129890Y-100223D01*
X129891Y-100128D01*
X129854Y-100040D01*
X129787Y-99973D01*
X129699Y-99937D01*
X129604Y-99936D01*
X129555Y-99957D01*
X129462Y-99957D01*
X129437Y-99946D01*
X129389Y-99946D01*
X129060Y-99946D01*
X129060Y-99908D01*
X129437Y-99908D01*
X129453Y-99902D01*
X129600Y-99902D01*
X129663Y-99839D01*
X129663Y-99825D01*
X129646Y-99784D01*
X129699Y-99785D01*
X129787Y-99748D01*
X129854Y-99681D01*
X129890Y-99593D01*
X129890Y-99528D01*
X130478Y-98940D01*
X130478Y-98940D01*
X130501Y-98906D01*
X130512Y-98889D01*
X130512Y-98889D01*
X130524Y-98830D01*
X130524Y-98830D01*
X130524Y-97797D01*
X130537Y-97784D01*
X130537Y-97637D01*
X130543Y-97621D01*
X130543Y-97573D01*
X130543Y-97033D01*
X130585Y-97033D01*
X130585Y-97621D01*
X130592Y-97637D01*
X130592Y-97784D01*
X130654Y-97847D01*
X130669Y-97847D01*
X130713Y-97828D01*
X130735Y-97843D01*
X130752Y-97854D01*
X130752Y-97854D01*
X130812Y-97866D01*
X132185Y-97866D01*
X132185Y-97882D01*
X132165Y-97891D01*
X132094Y-97961D01*
X132056Y-98053D01*
X132056Y-98068D01*
X132119Y-98130D01*
X132257Y-98130D01*
X132282Y-98141D01*
X132330Y-98141D01*
X132660Y-98141D01*
X132660Y-98179D01*
X132282Y-98179D01*
X132266Y-98185D01*
X132119Y-98185D01*
X132056Y-98248D01*
X132056Y-98262D01*
X132094Y-98354D01*
X132165Y-98425D01*
X132185Y-98433D01*
X132185Y-98434D01*
X132193Y-98453D01*
X132186Y-98472D01*
X132186Y-98473D01*
X132165Y-98481D01*
X132094Y-98552D01*
X132056Y-98644D01*
X132056Y-98658D01*
X132119Y-98721D01*
X132266Y-98721D01*
X132282Y-98727D01*
X132330Y-98727D01*
X132812Y-98727D01*
X132812Y-98769D01*
G54D10*
G36*
X147103Y-99539D02*
X147080Y-99539D01*
X147080Y-98479D01*
X147080Y-98450D01*
X147080Y-98420D01*
X147080Y-98420D01*
X147080Y-98420D01*
X147080Y-98420D01*
X147058Y-98312D01*
X147058Y-98312D01*
X147036Y-98258D01*
X146974Y-98166D01*
X146933Y-98124D01*
X146932Y-98124D01*
X146842Y-98063D01*
X146841Y-98063D01*
X146787Y-98041D01*
X146679Y-98019D01*
X146620Y-98019D01*
X146620Y-98019D01*
X146512Y-98041D01*
X146512Y-98041D01*
X146458Y-98063D01*
X146366Y-98125D01*
X146324Y-98166D01*
X146324Y-98167D01*
X146263Y-98257D01*
X146263Y-98258D01*
X146241Y-98312D01*
X146219Y-98420D01*
X146219Y-98450D01*
X146219Y-98479D01*
X146241Y-98587D01*
X146263Y-98641D01*
X146263Y-98642D01*
X146324Y-98732D01*
X146324Y-98733D01*
X146366Y-98774D01*
X146458Y-98836D01*
X146512Y-98858D01*
X146512Y-98858D01*
X146620Y-98880D01*
X146620Y-98880D01*
X146679Y-98880D01*
X146787Y-98858D01*
X146841Y-98836D01*
X146842Y-98836D01*
X146932Y-98775D01*
X146933Y-98775D01*
X146974Y-98733D01*
X147036Y-98641D01*
X147058Y-98587D01*
X147058Y-98587D01*
X147080Y-98479D01*
X147080Y-98479D01*
X147080Y-98479D01*
X147080Y-98479D01*
X147080Y-99539D01*
X146842Y-99539D01*
X146797Y-99557D01*
X146763Y-99591D01*
X146745Y-99636D01*
X146745Y-99684D01*
X146745Y-99897D01*
X145774Y-99897D01*
X145774Y-99636D01*
X145756Y-99591D01*
X145722Y-99557D01*
X145677Y-99539D01*
X145629Y-99539D01*
X145533Y-99539D01*
X145570Y-99524D01*
X145604Y-99490D01*
X145623Y-99445D01*
X145623Y-99397D01*
X145623Y-99102D01*
X145604Y-99057D01*
X145570Y-99023D01*
X145526Y-99005D01*
X145478Y-99005D01*
X145005Y-99005D01*
X144961Y-99023D01*
X144927Y-99057D01*
X144908Y-99102D01*
X144908Y-99150D01*
X144908Y-99445D01*
X144927Y-99490D01*
X144961Y-99524D01*
X144998Y-99539D01*
X144842Y-99539D01*
X144797Y-99557D01*
X144763Y-99591D01*
X144745Y-99636D01*
X144745Y-99684D01*
X144745Y-99883D01*
X144728Y-99883D01*
X144728Y-99779D01*
X144710Y-99735D01*
X144676Y-99701D01*
X144631Y-99682D01*
X144583Y-99682D01*
X144288Y-99682D01*
X144243Y-99701D01*
X144209Y-99735D01*
X144191Y-99779D01*
X144191Y-99827D01*
X144191Y-100300D01*
X144202Y-100326D01*
X144170Y-100339D01*
X144100Y-100410D01*
X144062Y-100502D01*
X144062Y-100675D01*
X144124Y-100738D01*
X144410Y-100738D01*
X144410Y-100730D01*
X144510Y-100730D01*
X144510Y-100738D01*
X144517Y-100738D01*
X144517Y-100838D01*
X144510Y-100838D01*
X144510Y-101211D01*
X144572Y-101274D01*
X144558Y-101274D01*
X144616Y-101274D01*
X144616Y-101304D01*
X144678Y-101304D01*
X144616Y-101366D01*
X144616Y-101598D01*
X144616Y-101697D01*
X144620Y-101707D01*
X144410Y-101707D01*
X144410Y-101211D01*
X144410Y-100838D01*
X144124Y-100838D01*
X144062Y-100900D01*
X144062Y-101073D01*
X144100Y-101165D01*
X144170Y-101236D01*
X144262Y-101274D01*
X144361Y-101274D01*
X144347Y-101274D01*
X144410Y-101211D01*
X144410Y-101707D01*
X143590Y-101707D01*
X143641Y-101686D01*
X143642Y-101686D01*
X143732Y-101625D01*
X143733Y-101625D01*
X143774Y-101583D01*
X143836Y-101491D01*
X143858Y-101437D01*
X143858Y-101437D01*
X143880Y-101329D01*
X143880Y-101329D01*
X143880Y-101329D01*
X143880Y-101329D01*
X143880Y-101300D01*
X143880Y-101270D01*
X143880Y-101270D01*
X143880Y-101270D01*
X143880Y-101270D01*
X143858Y-101162D01*
X143858Y-101162D01*
X143836Y-101108D01*
X143774Y-101016D01*
X143733Y-100974D01*
X143732Y-100974D01*
X143642Y-100913D01*
X143641Y-100913D01*
X143587Y-100891D01*
X143479Y-100869D01*
X143420Y-100869D01*
X143420Y-100869D01*
X143312Y-100891D01*
X143312Y-100891D01*
X143258Y-100913D01*
X143166Y-100975D01*
X143124Y-101016D01*
X143124Y-101017D01*
X143063Y-101107D01*
X143063Y-101108D01*
X143041Y-101162D01*
X143019Y-101270D01*
X143019Y-101300D01*
X143019Y-101329D01*
X143041Y-101437D01*
X143063Y-101491D01*
X143063Y-101492D01*
X143124Y-101582D01*
X143124Y-101583D01*
X143166Y-101624D01*
X143258Y-101686D01*
X143309Y-101707D01*
X140876Y-101707D01*
X140876Y-101230D01*
X140876Y-100506D01*
X140813Y-100444D01*
X140282Y-100444D01*
X140282Y-101467D01*
X140344Y-101529D01*
X140675Y-101529D01*
X140767Y-101491D01*
X140837Y-101421D01*
X140876Y-101329D01*
X140876Y-101230D01*
X140876Y-101707D01*
X138904Y-101707D01*
X136692Y-99495D01*
X138168Y-99495D01*
X138772Y-100100D01*
X138772Y-101303D01*
X138791Y-101348D01*
X138825Y-101382D01*
X138869Y-101400D01*
X138917Y-101400D01*
X139618Y-101400D01*
X139626Y-101421D01*
X139697Y-101491D01*
X139789Y-101529D01*
X140119Y-101529D01*
X140182Y-101467D01*
X140182Y-100444D01*
X140174Y-100444D01*
X140174Y-100344D01*
X140182Y-100344D01*
X140182Y-100336D01*
X140282Y-100336D01*
X140282Y-100344D01*
X140813Y-100344D01*
X140876Y-100281D01*
X140876Y-99557D01*
X140876Y-99458D01*
X140837Y-99366D01*
X140770Y-99298D01*
X141484Y-99298D01*
X142693Y-99298D01*
X142693Y-99298D01*
X142753Y-99286D01*
X142804Y-99252D01*
X142870Y-99186D01*
X142904Y-99135D01*
X142904Y-99135D01*
X142906Y-99125D01*
X142916Y-99076D01*
X142916Y-99076D01*
X142916Y-98381D01*
X143669Y-98381D01*
X143714Y-98362D01*
X143748Y-98328D01*
X143766Y-98284D01*
X143766Y-98236D01*
X143766Y-97535D01*
X143787Y-97527D01*
X143857Y-97457D01*
X143895Y-97365D01*
X143895Y-97265D01*
X143895Y-97034D01*
X143833Y-96971D01*
X142810Y-96971D01*
X142810Y-96979D01*
X142710Y-96979D01*
X142710Y-96971D01*
X141686Y-96971D01*
X141624Y-97034D01*
X141624Y-97265D01*
X141624Y-97365D01*
X141662Y-97457D01*
X141732Y-97527D01*
X141753Y-97535D01*
X141753Y-98284D01*
X141771Y-98328D01*
X141805Y-98362D01*
X141850Y-98380D01*
X141898Y-98381D01*
X142603Y-98381D01*
X142603Y-98986D01*
X141484Y-98986D01*
X133607Y-98986D01*
X133607Y-98832D01*
X133545Y-98770D01*
X133260Y-98770D01*
X133260Y-98777D01*
X133160Y-98777D01*
X133160Y-98770D01*
X133152Y-98770D01*
X133152Y-98670D01*
X133160Y-98670D01*
X133160Y-98662D01*
X133260Y-98662D01*
X133260Y-98670D01*
X133545Y-98670D01*
X133607Y-98607D01*
X133607Y-98511D01*
X136271Y-98511D01*
X136271Y-98511D01*
X136331Y-98499D01*
X136381Y-98465D01*
X136466Y-98381D01*
X137669Y-98381D01*
X137714Y-98362D01*
X137748Y-98328D01*
X137766Y-98284D01*
X137766Y-98236D01*
X137766Y-97535D01*
X137787Y-97527D01*
X137857Y-97457D01*
X137895Y-97365D01*
X137895Y-97265D01*
X137895Y-97034D01*
X137833Y-96971D01*
X136810Y-96971D01*
X136810Y-96979D01*
X136710Y-96979D01*
X136710Y-96971D01*
X135686Y-96971D01*
X135624Y-97034D01*
X135624Y-97265D01*
X135624Y-97365D01*
X135662Y-97457D01*
X135732Y-97527D01*
X135753Y-97535D01*
X135753Y-98198D01*
X133478Y-98198D01*
X133478Y-98184D01*
X133478Y-98156D01*
X133498Y-98164D01*
X133593Y-98165D01*
X133681Y-98128D01*
X133748Y-98061D01*
X133784Y-97973D01*
X133785Y-97878D01*
X133748Y-97790D01*
X133681Y-97723D01*
X133593Y-97687D01*
X133498Y-97686D01*
X133472Y-97697D01*
X133460Y-97667D01*
X133442Y-97650D01*
X134714Y-96378D01*
X135670Y-96378D01*
X135662Y-96386D01*
X135624Y-96477D01*
X135624Y-96577D01*
X135624Y-96809D01*
X135686Y-96871D01*
X136710Y-96871D01*
X136710Y-96863D01*
X136810Y-96863D01*
X136810Y-96871D01*
X137833Y-96871D01*
X137895Y-96809D01*
X137895Y-96577D01*
X137895Y-96477D01*
X137857Y-96386D01*
X137849Y-96378D01*
X141670Y-96378D01*
X141662Y-96386D01*
X141624Y-96477D01*
X141624Y-96577D01*
X141624Y-96809D01*
X141686Y-96871D01*
X142710Y-96871D01*
X142710Y-96863D01*
X142810Y-96863D01*
X142810Y-96871D01*
X143833Y-96871D01*
X143895Y-96809D01*
X143895Y-96577D01*
X143895Y-96477D01*
X143857Y-96386D01*
X143849Y-96378D01*
X145013Y-96378D01*
X145857Y-97222D01*
X145857Y-99005D01*
X145753Y-99005D01*
X145709Y-99023D01*
X145675Y-99057D01*
X145656Y-99102D01*
X145656Y-99150D01*
X145656Y-99445D01*
X145675Y-99490D01*
X145709Y-99524D01*
X145753Y-99542D01*
X145801Y-99542D01*
X146274Y-99542D01*
X146318Y-99524D01*
X146352Y-99490D01*
X146371Y-99445D01*
X146371Y-99397D01*
X146371Y-99102D01*
X146352Y-99057D01*
X146318Y-99023D01*
X146274Y-99005D01*
X146226Y-99005D01*
X146170Y-99005D01*
X146170Y-97158D01*
X146158Y-97098D01*
X146158Y-97098D01*
X146147Y-97081D01*
X146124Y-97047D01*
X146124Y-97047D01*
X145247Y-96170D01*
X146817Y-96170D01*
X147103Y-96456D01*
X147103Y-99539D01*
X147103Y-99539D01*
G37*
G54D29*
X147103Y-99539D02*
X147080Y-99539D01*
X147080Y-98479D01*
X147080Y-98450D01*
X147080Y-98420D01*
X147080Y-98420D01*
X147080Y-98420D01*
X147080Y-98420D01*
X147058Y-98312D01*
X147058Y-98312D01*
X147036Y-98258D01*
X146974Y-98166D01*
X146933Y-98124D01*
X146932Y-98124D01*
X146842Y-98063D01*
X146841Y-98063D01*
X146787Y-98041D01*
X146679Y-98019D01*
X146620Y-98019D01*
X146620Y-98019D01*
X146512Y-98041D01*
X146512Y-98041D01*
X146458Y-98063D01*
X146366Y-98125D01*
X146324Y-98166D01*
X146324Y-98167D01*
X146263Y-98257D01*
X146263Y-98258D01*
X146241Y-98312D01*
X146219Y-98420D01*
X146219Y-98450D01*
X146219Y-98479D01*
X146241Y-98587D01*
X146263Y-98641D01*
X146263Y-98642D01*
X146324Y-98732D01*
X146324Y-98733D01*
X146366Y-98774D01*
X146458Y-98836D01*
X146512Y-98858D01*
X146512Y-98858D01*
X146620Y-98880D01*
X146620Y-98880D01*
X146679Y-98880D01*
X146787Y-98858D01*
X146841Y-98836D01*
X146842Y-98836D01*
X146932Y-98775D01*
X146933Y-98775D01*
X146974Y-98733D01*
X147036Y-98641D01*
X147058Y-98587D01*
X147058Y-98587D01*
X147080Y-98479D01*
X147080Y-98479D01*
X147080Y-98479D01*
X147080Y-98479D01*
X147080Y-99539D01*
X146842Y-99539D01*
X146797Y-99557D01*
X146763Y-99591D01*
X146745Y-99636D01*
X146745Y-99684D01*
X146745Y-99897D01*
X145774Y-99897D01*
X145774Y-99636D01*
X145756Y-99591D01*
X145722Y-99557D01*
X145677Y-99539D01*
X145629Y-99539D01*
X145533Y-99539D01*
X145570Y-99524D01*
X145604Y-99490D01*
X145623Y-99445D01*
X145623Y-99397D01*
X145623Y-99102D01*
X145604Y-99057D01*
X145570Y-99023D01*
X145526Y-99005D01*
X145478Y-99005D01*
X145005Y-99005D01*
X144961Y-99023D01*
X144927Y-99057D01*
X144908Y-99102D01*
X144908Y-99150D01*
X144908Y-99445D01*
X144927Y-99490D01*
X144961Y-99524D01*
X144998Y-99539D01*
X144842Y-99539D01*
X144797Y-99557D01*
X144763Y-99591D01*
X144745Y-99636D01*
X144745Y-99684D01*
X144745Y-99883D01*
X144728Y-99883D01*
X144728Y-99779D01*
X144710Y-99735D01*
X144676Y-99701D01*
X144631Y-99682D01*
X144583Y-99682D01*
X144288Y-99682D01*
X144243Y-99701D01*
X144209Y-99735D01*
X144191Y-99779D01*
X144191Y-99827D01*
X144191Y-100300D01*
X144202Y-100326D01*
X144170Y-100339D01*
X144100Y-100410D01*
X144062Y-100502D01*
X144062Y-100675D01*
X144124Y-100738D01*
X144410Y-100738D01*
X144410Y-100730D01*
X144510Y-100730D01*
X144510Y-100738D01*
X144517Y-100738D01*
X144517Y-100838D01*
X144510Y-100838D01*
X144510Y-101211D01*
X144572Y-101274D01*
X144558Y-101274D01*
X144616Y-101274D01*
X144616Y-101304D01*
X144678Y-101304D01*
X144616Y-101366D01*
X144616Y-101598D01*
X144616Y-101697D01*
X144620Y-101707D01*
X144410Y-101707D01*
X144410Y-101211D01*
X144410Y-100838D01*
X144124Y-100838D01*
X144062Y-100900D01*
X144062Y-101073D01*
X144100Y-101165D01*
X144170Y-101236D01*
X144262Y-101274D01*
X144361Y-101274D01*
X144347Y-101274D01*
X144410Y-101211D01*
X144410Y-101707D01*
X143590Y-101707D01*
X143641Y-101686D01*
X143642Y-101686D01*
X143732Y-101625D01*
X143733Y-101625D01*
X143774Y-101583D01*
X143836Y-101491D01*
X143858Y-101437D01*
X143858Y-101437D01*
X143880Y-101329D01*
X143880Y-101329D01*
X143880Y-101329D01*
X143880Y-101329D01*
X143880Y-101300D01*
X143880Y-101270D01*
X143880Y-101270D01*
X143880Y-101270D01*
X143880Y-101270D01*
X143858Y-101162D01*
X143858Y-101162D01*
X143836Y-101108D01*
X143774Y-101016D01*
X143733Y-100974D01*
X143732Y-100974D01*
X143642Y-100913D01*
X143641Y-100913D01*
X143587Y-100891D01*
X143479Y-100869D01*
X143420Y-100869D01*
X143420Y-100869D01*
X143312Y-100891D01*
X143312Y-100891D01*
X143258Y-100913D01*
X143166Y-100975D01*
X143124Y-101016D01*
X143124Y-101017D01*
X143063Y-101107D01*
X143063Y-101108D01*
X143041Y-101162D01*
X143019Y-101270D01*
X143019Y-101300D01*
X143019Y-101329D01*
X143041Y-101437D01*
X143063Y-101491D01*
X143063Y-101492D01*
X143124Y-101582D01*
X143124Y-101583D01*
X143166Y-101624D01*
X143258Y-101686D01*
X143309Y-101707D01*
X140876Y-101707D01*
X140876Y-101230D01*
X140876Y-100506D01*
X140813Y-100444D01*
X140282Y-100444D01*
X140282Y-101467D01*
X140344Y-101529D01*
X140675Y-101529D01*
X140767Y-101491D01*
X140837Y-101421D01*
X140876Y-101329D01*
X140876Y-101230D01*
X140876Y-101707D01*
X138904Y-101707D01*
X136692Y-99495D01*
X138168Y-99495D01*
X138772Y-100100D01*
X138772Y-101303D01*
X138791Y-101348D01*
X138825Y-101382D01*
X138869Y-101400D01*
X138917Y-101400D01*
X139618Y-101400D01*
X139626Y-101421D01*
X139697Y-101491D01*
X139789Y-101529D01*
X140119Y-101529D01*
X140182Y-101467D01*
X140182Y-100444D01*
X140174Y-100444D01*
X140174Y-100344D01*
X140182Y-100344D01*
X140182Y-100336D01*
X140282Y-100336D01*
X140282Y-100344D01*
X140813Y-100344D01*
X140876Y-100281D01*
X140876Y-99557D01*
X140876Y-99458D01*
X140837Y-99366D01*
X140770Y-99298D01*
X141484Y-99298D01*
X142693Y-99298D01*
X142693Y-99298D01*
X142753Y-99286D01*
X142804Y-99252D01*
X142870Y-99186D01*
X142904Y-99135D01*
X142904Y-99135D01*
X142906Y-99125D01*
X142916Y-99076D01*
X142916Y-99076D01*
X142916Y-98381D01*
X143669Y-98381D01*
X143714Y-98362D01*
X143748Y-98328D01*
X143766Y-98284D01*
X143766Y-98236D01*
X143766Y-97535D01*
X143787Y-97527D01*
X143857Y-97457D01*
X143895Y-97365D01*
X143895Y-97265D01*
X143895Y-97034D01*
X143833Y-96971D01*
X142810Y-96971D01*
X142810Y-96979D01*
X142710Y-96979D01*
X142710Y-96971D01*
X141686Y-96971D01*
X141624Y-97034D01*
X141624Y-97265D01*
X141624Y-97365D01*
X141662Y-97457D01*
X141732Y-97527D01*
X141753Y-97535D01*
X141753Y-98284D01*
X141771Y-98328D01*
X141805Y-98362D01*
X141850Y-98380D01*
X141898Y-98381D01*
X142603Y-98381D01*
X142603Y-98986D01*
X141484Y-98986D01*
X133607Y-98986D01*
X133607Y-98832D01*
X133545Y-98770D01*
X133260Y-98770D01*
X133260Y-98777D01*
X133160Y-98777D01*
X133160Y-98770D01*
X133152Y-98770D01*
X133152Y-98670D01*
X133160Y-98670D01*
X133160Y-98662D01*
X133260Y-98662D01*
X133260Y-98670D01*
X133545Y-98670D01*
X133607Y-98607D01*
X133607Y-98511D01*
X136271Y-98511D01*
X136271Y-98511D01*
X136331Y-98499D01*
X136381Y-98465D01*
X136466Y-98381D01*
X137669Y-98381D01*
X137714Y-98362D01*
X137748Y-98328D01*
X137766Y-98284D01*
X137766Y-98236D01*
X137766Y-97535D01*
X137787Y-97527D01*
X137857Y-97457D01*
X137895Y-97365D01*
X137895Y-97265D01*
X137895Y-97034D01*
X137833Y-96971D01*
X136810Y-96971D01*
X136810Y-96979D01*
X136710Y-96979D01*
X136710Y-96971D01*
X135686Y-96971D01*
X135624Y-97034D01*
X135624Y-97265D01*
X135624Y-97365D01*
X135662Y-97457D01*
X135732Y-97527D01*
X135753Y-97535D01*
X135753Y-98198D01*
X133478Y-98198D01*
X133478Y-98184D01*
X133478Y-98156D01*
X133498Y-98164D01*
X133593Y-98165D01*
X133681Y-98128D01*
X133748Y-98061D01*
X133784Y-97973D01*
X133785Y-97878D01*
X133748Y-97790D01*
X133681Y-97723D01*
X133593Y-97687D01*
X133498Y-97686D01*
X133472Y-97697D01*
X133460Y-97667D01*
X133442Y-97650D01*
X134714Y-96378D01*
X135670Y-96378D01*
X135662Y-96386D01*
X135624Y-96477D01*
X135624Y-96577D01*
X135624Y-96809D01*
X135686Y-96871D01*
X136710Y-96871D01*
X136710Y-96863D01*
X136810Y-96863D01*
X136810Y-96871D01*
X137833Y-96871D01*
X137895Y-96809D01*
X137895Y-96577D01*
X137895Y-96477D01*
X137857Y-96386D01*
X137849Y-96378D01*
X141670Y-96378D01*
X141662Y-96386D01*
X141624Y-96477D01*
X141624Y-96577D01*
X141624Y-96809D01*
X141686Y-96871D01*
X142710Y-96871D01*
X142710Y-96863D01*
X142810Y-96863D01*
X142810Y-96871D01*
X143833Y-96871D01*
X143895Y-96809D01*
X143895Y-96577D01*
X143895Y-96477D01*
X143857Y-96386D01*
X143849Y-96378D01*
X145013Y-96378D01*
X145857Y-97222D01*
X145857Y-99005D01*
X145753Y-99005D01*
X145709Y-99023D01*
X145675Y-99057D01*
X145656Y-99102D01*
X145656Y-99150D01*
X145656Y-99445D01*
X145675Y-99490D01*
X145709Y-99524D01*
X145753Y-99542D01*
X145801Y-99542D01*
X146274Y-99542D01*
X146318Y-99524D01*
X146352Y-99490D01*
X146371Y-99445D01*
X146371Y-99397D01*
X146371Y-99102D01*
X146352Y-99057D01*
X146318Y-99023D01*
X146274Y-99005D01*
X146226Y-99005D01*
X146170Y-99005D01*
X146170Y-97158D01*
X146158Y-97098D01*
X146158Y-97098D01*
X146147Y-97081D01*
X146124Y-97047D01*
X146124Y-97047D01*
X145247Y-96170D01*
X146817Y-96170D01*
X147103Y-96456D01*
X147103Y-99539D01*
G54D10*
G36*
X147609Y-99539D02*
X147416Y-99539D01*
X147416Y-96392D01*
X147416Y-96391D01*
X147404Y-96332D01*
X147404Y-96332D01*
X147393Y-96315D01*
X147370Y-96281D01*
X147370Y-96281D01*
X146992Y-95903D01*
X146941Y-95869D01*
X146882Y-95857D01*
X145903Y-95857D01*
X145903Y-94458D01*
X145903Y-93769D01*
X145903Y-93670D01*
X145865Y-93578D01*
X145795Y-93508D01*
X145703Y-93470D01*
X145372Y-93470D01*
X145310Y-93532D01*
X145310Y-94064D01*
X145841Y-94064D01*
X145903Y-94001D01*
X145903Y-93769D01*
X145903Y-94458D01*
X145903Y-94226D01*
X145841Y-94164D01*
X145310Y-94164D01*
X145310Y-94695D01*
X145372Y-94757D01*
X145703Y-94757D01*
X145795Y-94719D01*
X145865Y-94649D01*
X145903Y-94557D01*
X145903Y-94458D01*
X145903Y-95857D01*
X145210Y-95857D01*
X145210Y-94695D01*
X145210Y-94164D01*
X145210Y-94064D01*
X145210Y-93532D01*
X145147Y-93470D01*
X144816Y-93470D01*
X144724Y-93508D01*
X144654Y-93578D01*
X144616Y-93670D01*
X144616Y-93769D01*
X144616Y-94001D01*
X144678Y-94064D01*
X145210Y-94064D01*
X145210Y-94164D01*
X144678Y-94164D01*
X144616Y-94226D01*
X144616Y-94458D01*
X144616Y-94557D01*
X144654Y-94649D01*
X144724Y-94719D01*
X144816Y-94757D01*
X145147Y-94757D01*
X145210Y-94695D01*
X145210Y-95857D01*
X144600Y-95857D01*
X143830Y-95857D01*
X143830Y-93779D01*
X143830Y-93750D01*
X143830Y-93720D01*
X143830Y-93720D01*
X143830Y-93720D01*
X143830Y-93720D01*
X143808Y-93612D01*
X143808Y-93612D01*
X143786Y-93558D01*
X143724Y-93466D01*
X143683Y-93424D01*
X143682Y-93424D01*
X143592Y-93363D01*
X143591Y-93363D01*
X143537Y-93341D01*
X143429Y-93319D01*
X143370Y-93319D01*
X143370Y-93319D01*
X143262Y-93341D01*
X143262Y-93341D01*
X143208Y-93363D01*
X143116Y-93425D01*
X143074Y-93466D01*
X143074Y-93467D01*
X143013Y-93557D01*
X143013Y-93558D01*
X142991Y-93612D01*
X142969Y-93720D01*
X142969Y-93750D01*
X142969Y-93779D01*
X142991Y-93887D01*
X143013Y-93941D01*
X143013Y-93942D01*
X143074Y-94032D01*
X143074Y-94033D01*
X143116Y-94074D01*
X143208Y-94136D01*
X143262Y-94158D01*
X143262Y-94158D01*
X143370Y-94180D01*
X143370Y-94180D01*
X143429Y-94180D01*
X143537Y-94158D01*
X143591Y-94136D01*
X143592Y-94136D01*
X143682Y-94075D01*
X143683Y-94075D01*
X143724Y-94033D01*
X143786Y-93941D01*
X143808Y-93887D01*
X143808Y-93887D01*
X143830Y-93779D01*
X143830Y-93779D01*
X143830Y-93779D01*
X143830Y-93779D01*
X143830Y-95857D01*
X140876Y-95857D01*
X140876Y-95230D01*
X140876Y-93557D01*
X140876Y-93458D01*
X140837Y-93366D01*
X140767Y-93296D01*
X140675Y-93258D01*
X140344Y-93258D01*
X140282Y-93320D01*
X140282Y-94344D01*
X140813Y-94344D01*
X140876Y-94281D01*
X140876Y-93557D01*
X140876Y-95230D01*
X140876Y-94506D01*
X140813Y-94444D01*
X140282Y-94444D01*
X140282Y-95467D01*
X140344Y-95529D01*
X140675Y-95529D01*
X140767Y-95491D01*
X140837Y-95421D01*
X140876Y-95329D01*
X140876Y-95230D01*
X140876Y-95857D01*
X134146Y-95857D01*
X134086Y-95869D01*
X134069Y-95880D01*
X134035Y-95903D01*
X132385Y-97553D01*
X132201Y-97553D01*
X132201Y-96982D01*
X132182Y-96938D01*
X132149Y-96904D01*
X132104Y-96885D01*
X132056Y-96885D01*
X131902Y-96885D01*
X131902Y-96880D01*
X134232Y-94550D01*
X138772Y-94550D01*
X138772Y-95303D01*
X138791Y-95348D01*
X138825Y-95382D01*
X138869Y-95400D01*
X138917Y-95400D01*
X139618Y-95400D01*
X139626Y-95421D01*
X139697Y-95491D01*
X139789Y-95529D01*
X140119Y-95529D01*
X140182Y-95467D01*
X140182Y-94444D01*
X140174Y-94444D01*
X140174Y-94344D01*
X140182Y-94344D01*
X140182Y-93320D01*
X140119Y-93258D01*
X139789Y-93258D01*
X139697Y-93296D01*
X139626Y-93366D01*
X139618Y-93387D01*
X138869Y-93387D01*
X138825Y-93405D01*
X138791Y-93439D01*
X138773Y-93484D01*
X138772Y-93532D01*
X138772Y-94237D01*
X136530Y-94237D01*
X136530Y-93779D01*
X136530Y-93750D01*
X136530Y-93720D01*
X136530Y-93720D01*
X136530Y-93720D01*
X136530Y-93720D01*
X136508Y-93612D01*
X136508Y-93612D01*
X136486Y-93558D01*
X136424Y-93466D01*
X136383Y-93424D01*
X136382Y-93424D01*
X136292Y-93363D01*
X136291Y-93363D01*
X136237Y-93341D01*
X136129Y-93319D01*
X136070Y-93319D01*
X136070Y-93319D01*
X135962Y-93341D01*
X135962Y-93341D01*
X135908Y-93363D01*
X135816Y-93425D01*
X135774Y-93466D01*
X135774Y-93467D01*
X135713Y-93557D01*
X135713Y-93558D01*
X135691Y-93612D01*
X135669Y-93720D01*
X135669Y-93750D01*
X135669Y-93779D01*
X135691Y-93887D01*
X135713Y-93941D01*
X135713Y-93942D01*
X135774Y-94032D01*
X135774Y-94033D01*
X135816Y-94074D01*
X135908Y-94136D01*
X135962Y-94158D01*
X135962Y-94158D01*
X136070Y-94180D01*
X136070Y-94180D01*
X136129Y-94180D01*
X136237Y-94158D01*
X136291Y-94136D01*
X136292Y-94136D01*
X136382Y-94075D01*
X136383Y-94075D01*
X136424Y-94033D01*
X136486Y-93941D01*
X136508Y-93887D01*
X136508Y-93887D01*
X136530Y-93779D01*
X136530Y-93779D01*
X136530Y-93779D01*
X136530Y-93779D01*
X136530Y-94237D01*
X134168Y-94237D01*
X134118Y-94247D01*
X134108Y-94249D01*
X134057Y-94283D01*
X132875Y-95465D01*
X132875Y-93485D01*
X132875Y-92935D01*
X132857Y-92890D01*
X132823Y-92856D01*
X132779Y-92838D01*
X132731Y-92838D01*
X132181Y-92838D01*
X132136Y-92856D01*
X132102Y-92890D01*
X132084Y-92934D01*
X132084Y-92982D01*
X132084Y-93532D01*
X132102Y-93577D01*
X132136Y-93611D01*
X132180Y-93629D01*
X132228Y-93629D01*
X132778Y-93629D01*
X132823Y-93611D01*
X132857Y-93577D01*
X132875Y-93533D01*
X132875Y-93485D01*
X132875Y-95465D01*
X131635Y-96705D01*
X131601Y-96756D01*
X131589Y-96816D01*
X131589Y-96885D01*
X131580Y-96885D01*
X131469Y-96885D01*
X131450Y-96893D01*
X131431Y-96885D01*
X131383Y-96885D01*
X131311Y-96885D01*
X131311Y-96329D01*
X131603Y-96037D01*
X132134Y-96037D01*
X132179Y-96018D01*
X132213Y-95984D01*
X132231Y-95940D01*
X132231Y-95892D01*
X132231Y-94947D01*
X132213Y-94903D01*
X132190Y-94880D01*
X132190Y-94512D01*
X132294Y-94512D01*
X132338Y-94494D01*
X132372Y-94460D01*
X132391Y-94415D01*
X132391Y-94367D01*
X132391Y-94072D01*
X132372Y-94027D01*
X132338Y-93993D01*
X132294Y-93975D01*
X132246Y-93975D01*
X131875Y-93975D01*
X131875Y-93155D01*
X131815Y-93010D01*
X131704Y-92898D01*
X131559Y-92838D01*
X131401Y-92838D01*
X131256Y-92898D01*
X131144Y-93009D01*
X131084Y-93154D01*
X131084Y-93312D01*
X131144Y-93457D01*
X131255Y-93569D01*
X131400Y-93629D01*
X131558Y-93629D01*
X131703Y-93569D01*
X131815Y-93458D01*
X131875Y-93313D01*
X131875Y-93155D01*
X131875Y-93975D01*
X131773Y-93975D01*
X131747Y-93986D01*
X131734Y-93954D01*
X131663Y-93884D01*
X131571Y-93846D01*
X131398Y-93846D01*
X131335Y-93908D01*
X131335Y-94194D01*
X131343Y-94194D01*
X131343Y-94294D01*
X131335Y-94294D01*
X131335Y-94579D01*
X131398Y-94641D01*
X131571Y-94641D01*
X131663Y-94603D01*
X131734Y-94533D01*
X131747Y-94501D01*
X131773Y-94512D01*
X131821Y-94512D01*
X131877Y-94512D01*
X131877Y-94850D01*
X131299Y-94850D01*
X131255Y-94869D01*
X131235Y-94888D01*
X131235Y-94579D01*
X131235Y-94294D01*
X131235Y-94194D01*
X131235Y-93908D01*
X131173Y-93846D01*
X131009Y-93846D01*
X131009Y-93309D01*
X130998Y-93101D01*
X130940Y-92961D01*
X130847Y-92936D01*
X130550Y-93234D01*
X130847Y-93531D01*
X130940Y-93506D01*
X131009Y-93309D01*
X131009Y-93846D01*
X131000Y-93846D01*
X130910Y-93883D01*
X130819Y-93846D01*
X130777Y-93846D01*
X130777Y-93601D01*
X130480Y-93304D01*
X130409Y-93375D01*
X130409Y-93234D01*
X130112Y-92936D01*
X130019Y-92961D01*
X129950Y-93158D01*
X129961Y-93366D01*
X130019Y-93506D01*
X130112Y-93531D01*
X130409Y-93234D01*
X130409Y-93375D01*
X130182Y-93601D01*
X130207Y-93694D01*
X130404Y-93763D01*
X130612Y-93752D01*
X130752Y-93694D01*
X130777Y-93601D01*
X130777Y-93846D01*
X130646Y-93846D01*
X130584Y-93908D01*
X130584Y-94194D01*
X130862Y-94194D01*
X130957Y-94194D01*
X131235Y-94194D01*
X131235Y-94294D01*
X130957Y-94294D01*
X130862Y-94294D01*
X130584Y-94294D01*
X130584Y-94579D01*
X130646Y-94641D01*
X130819Y-94641D01*
X130910Y-94604D01*
X131000Y-94641D01*
X131173Y-94641D01*
X131235Y-94579D01*
X131235Y-94888D01*
X131220Y-94903D01*
X131202Y-94947D01*
X131202Y-94995D01*
X131202Y-95940D01*
X131218Y-95980D01*
X131044Y-96154D01*
X131040Y-96160D01*
X130617Y-95737D01*
X130617Y-94947D01*
X130599Y-94903D01*
X130565Y-94869D01*
X130520Y-94850D01*
X130472Y-94850D01*
X129942Y-94850D01*
X129942Y-94512D01*
X130046Y-94512D01*
X130072Y-94501D01*
X130085Y-94533D01*
X130156Y-94603D01*
X130248Y-94641D01*
X130421Y-94641D01*
X130484Y-94579D01*
X130484Y-94294D01*
X130476Y-94294D01*
X130476Y-94194D01*
X130484Y-94194D01*
X130484Y-93908D01*
X130421Y-93846D01*
X130248Y-93846D01*
X130156Y-93884D01*
X130085Y-93954D01*
X130072Y-93986D01*
X130046Y-93975D01*
X129998Y-93975D01*
X129525Y-93975D01*
X129481Y-93993D01*
X129447Y-94027D01*
X129428Y-94072D01*
X129428Y-94120D01*
X129428Y-94415D01*
X129447Y-94460D01*
X129481Y-94494D01*
X129525Y-94512D01*
X129573Y-94512D01*
X129629Y-94512D01*
X129629Y-94880D01*
X129606Y-94903D01*
X129588Y-94947D01*
X129588Y-94995D01*
X129588Y-95940D01*
X129606Y-95984D01*
X129640Y-96018D01*
X129685Y-96037D01*
X129733Y-96037D01*
X130475Y-96037D01*
X130676Y-96238D01*
X130648Y-96238D01*
X130586Y-96300D01*
X130586Y-96586D01*
X130593Y-96586D01*
X130593Y-96686D01*
X130586Y-96686D01*
X130586Y-96693D01*
X130486Y-96693D01*
X130486Y-96686D01*
X130478Y-96686D01*
X130478Y-96586D01*
X130486Y-96586D01*
X130486Y-96300D01*
X130423Y-96238D01*
X130250Y-96238D01*
X130158Y-96276D01*
X130087Y-96346D01*
X130074Y-96378D01*
X130048Y-96367D01*
X130000Y-96367D01*
X129740Y-96367D01*
X129376Y-96003D01*
X129376Y-93619D01*
X129400Y-93629D01*
X129558Y-93629D01*
X129703Y-93569D01*
X129815Y-93458D01*
X129875Y-93313D01*
X129875Y-93155D01*
X129815Y-93010D01*
X129704Y-92898D01*
X129559Y-92838D01*
X129401Y-92838D01*
X129256Y-92898D01*
X129144Y-93009D01*
X129084Y-93154D01*
X129084Y-93312D01*
X129123Y-93408D01*
X129109Y-93423D01*
X129075Y-93474D01*
X129063Y-93534D01*
X129063Y-96068D01*
X129075Y-96127D01*
X129109Y-96178D01*
X129430Y-96499D01*
X129430Y-96512D01*
X129430Y-96807D01*
X129449Y-96852D01*
X129483Y-96886D01*
X129527Y-96904D01*
X129570Y-96904D01*
X129537Y-96938D01*
X129518Y-96982D01*
X129518Y-97030D01*
X129518Y-97145D01*
X129092Y-97145D01*
X128406Y-96459D01*
X128406Y-93138D01*
X128824Y-92720D01*
X130335Y-92720D01*
X130207Y-92773D01*
X130182Y-92866D01*
X130480Y-93163D01*
X130777Y-92866D01*
X130752Y-92773D01*
X130601Y-92720D01*
X144745Y-92720D01*
X144745Y-93331D01*
X144763Y-93376D01*
X144797Y-93410D01*
X144842Y-93428D01*
X144890Y-93428D01*
X145677Y-93428D01*
X145722Y-93410D01*
X145756Y-93376D01*
X145774Y-93331D01*
X145774Y-93283D01*
X145774Y-93070D01*
X146745Y-93070D01*
X146745Y-93331D01*
X146763Y-93376D01*
X146797Y-93410D01*
X146842Y-93428D01*
X146890Y-93428D01*
X147609Y-93428D01*
X147609Y-93470D01*
X147372Y-93470D01*
X147310Y-93532D01*
X147310Y-94064D01*
X147317Y-94064D01*
X147317Y-94164D01*
X147310Y-94164D01*
X147310Y-94171D01*
X147210Y-94171D01*
X147210Y-94164D01*
X147210Y-94064D01*
X147210Y-93532D01*
X147147Y-93470D01*
X146816Y-93470D01*
X146724Y-93508D01*
X146654Y-93578D01*
X146616Y-93670D01*
X146616Y-93769D01*
X146616Y-94001D01*
X146678Y-94064D01*
X147210Y-94064D01*
X147210Y-94164D01*
X146678Y-94164D01*
X146616Y-94226D01*
X146616Y-94458D01*
X146616Y-94557D01*
X146654Y-94649D01*
X146724Y-94719D01*
X146816Y-94757D01*
X146933Y-94757D01*
X146924Y-94766D01*
X146924Y-94767D01*
X146863Y-94857D01*
X146863Y-94858D01*
X146841Y-94912D01*
X146819Y-95020D01*
X146819Y-95050D01*
X146819Y-95079D01*
X146841Y-95187D01*
X146863Y-95241D01*
X146863Y-95242D01*
X146924Y-95332D01*
X146924Y-95333D01*
X146966Y-95374D01*
X147058Y-95436D01*
X147112Y-95458D01*
X147112Y-95458D01*
X147220Y-95480D01*
X147220Y-95480D01*
X147279Y-95480D01*
X147387Y-95458D01*
X147441Y-95436D01*
X147442Y-95436D01*
X147532Y-95375D01*
X147533Y-95375D01*
X147574Y-95333D01*
X147609Y-95281D01*
X147609Y-99539D01*
X147609Y-99539D01*
G37*
G54D29*
X147609Y-99539D02*
X147416Y-99539D01*
X147416Y-96392D01*
X147416Y-96391D01*
X147404Y-96332D01*
X147404Y-96332D01*
X147393Y-96315D01*
X147370Y-96281D01*
X147370Y-96281D01*
X146992Y-95903D01*
X146941Y-95869D01*
X146882Y-95857D01*
X145903Y-95857D01*
X145903Y-94458D01*
X145903Y-93769D01*
X145903Y-93670D01*
X145865Y-93578D01*
X145795Y-93508D01*
X145703Y-93470D01*
X145372Y-93470D01*
X145310Y-93532D01*
X145310Y-94064D01*
X145841Y-94064D01*
X145903Y-94001D01*
X145903Y-93769D01*
X145903Y-94458D01*
X145903Y-94226D01*
X145841Y-94164D01*
X145310Y-94164D01*
X145310Y-94695D01*
X145372Y-94757D01*
X145703Y-94757D01*
X145795Y-94719D01*
X145865Y-94649D01*
X145903Y-94557D01*
X145903Y-94458D01*
X145903Y-95857D01*
X145210Y-95857D01*
X145210Y-94695D01*
X145210Y-94164D01*
X145210Y-94064D01*
X145210Y-93532D01*
X145147Y-93470D01*
X144816Y-93470D01*
X144724Y-93508D01*
X144654Y-93578D01*
X144616Y-93670D01*
X144616Y-93769D01*
X144616Y-94001D01*
X144678Y-94064D01*
X145210Y-94064D01*
X145210Y-94164D01*
X144678Y-94164D01*
X144616Y-94226D01*
X144616Y-94458D01*
X144616Y-94557D01*
X144654Y-94649D01*
X144724Y-94719D01*
X144816Y-94757D01*
X145147Y-94757D01*
X145210Y-94695D01*
X145210Y-95857D01*
X144600Y-95857D01*
X143830Y-95857D01*
X143830Y-93779D01*
X143830Y-93750D01*
X143830Y-93720D01*
X143830Y-93720D01*
X143830Y-93720D01*
X143830Y-93720D01*
X143808Y-93612D01*
X143808Y-93612D01*
X143786Y-93558D01*
X143724Y-93466D01*
X143683Y-93424D01*
X143682Y-93424D01*
X143592Y-93363D01*
X143591Y-93363D01*
X143537Y-93341D01*
X143429Y-93319D01*
X143370Y-93319D01*
X143370Y-93319D01*
X143262Y-93341D01*
X143262Y-93341D01*
X143208Y-93363D01*
X143116Y-93425D01*
X143074Y-93466D01*
X143074Y-93467D01*
X143013Y-93557D01*
X143013Y-93558D01*
X142991Y-93612D01*
X142969Y-93720D01*
X142969Y-93750D01*
X142969Y-93779D01*
X142991Y-93887D01*
X143013Y-93941D01*
X143013Y-93942D01*
X143074Y-94032D01*
X143074Y-94033D01*
X143116Y-94074D01*
X143208Y-94136D01*
X143262Y-94158D01*
X143262Y-94158D01*
X143370Y-94180D01*
X143370Y-94180D01*
X143429Y-94180D01*
X143537Y-94158D01*
X143591Y-94136D01*
X143592Y-94136D01*
X143682Y-94075D01*
X143683Y-94075D01*
X143724Y-94033D01*
X143786Y-93941D01*
X143808Y-93887D01*
X143808Y-93887D01*
X143830Y-93779D01*
X143830Y-93779D01*
X143830Y-93779D01*
X143830Y-93779D01*
X143830Y-95857D01*
X140876Y-95857D01*
X140876Y-95230D01*
X140876Y-93557D01*
X140876Y-93458D01*
X140837Y-93366D01*
X140767Y-93296D01*
X140675Y-93258D01*
X140344Y-93258D01*
X140282Y-93320D01*
X140282Y-94344D01*
X140813Y-94344D01*
X140876Y-94281D01*
X140876Y-93557D01*
X140876Y-95230D01*
X140876Y-94506D01*
X140813Y-94444D01*
X140282Y-94444D01*
X140282Y-95467D01*
X140344Y-95529D01*
X140675Y-95529D01*
X140767Y-95491D01*
X140837Y-95421D01*
X140876Y-95329D01*
X140876Y-95230D01*
X140876Y-95857D01*
X134146Y-95857D01*
X134086Y-95869D01*
X134069Y-95880D01*
X134035Y-95903D01*
X132385Y-97553D01*
X132201Y-97553D01*
X132201Y-96982D01*
X132182Y-96938D01*
X132149Y-96904D01*
X132104Y-96885D01*
X132056Y-96885D01*
X131902Y-96885D01*
X131902Y-96880D01*
X134232Y-94550D01*
X138772Y-94550D01*
X138772Y-95303D01*
X138791Y-95348D01*
X138825Y-95382D01*
X138869Y-95400D01*
X138917Y-95400D01*
X139618Y-95400D01*
X139626Y-95421D01*
X139697Y-95491D01*
X139789Y-95529D01*
X140119Y-95529D01*
X140182Y-95467D01*
X140182Y-94444D01*
X140174Y-94444D01*
X140174Y-94344D01*
X140182Y-94344D01*
X140182Y-93320D01*
X140119Y-93258D01*
X139789Y-93258D01*
X139697Y-93296D01*
X139626Y-93366D01*
X139618Y-93387D01*
X138869Y-93387D01*
X138825Y-93405D01*
X138791Y-93439D01*
X138773Y-93484D01*
X138772Y-93532D01*
X138772Y-94237D01*
X136530Y-94237D01*
X136530Y-93779D01*
X136530Y-93750D01*
X136530Y-93720D01*
X136530Y-93720D01*
X136530Y-93720D01*
X136530Y-93720D01*
X136508Y-93612D01*
X136508Y-93612D01*
X136486Y-93558D01*
X136424Y-93466D01*
X136383Y-93424D01*
X136382Y-93424D01*
X136292Y-93363D01*
X136291Y-93363D01*
X136237Y-93341D01*
X136129Y-93319D01*
X136070Y-93319D01*
X136070Y-93319D01*
X135962Y-93341D01*
X135962Y-93341D01*
X135908Y-93363D01*
X135816Y-93425D01*
X135774Y-93466D01*
X135774Y-93467D01*
X135713Y-93557D01*
X135713Y-93558D01*
X135691Y-93612D01*
X135669Y-93720D01*
X135669Y-93750D01*
X135669Y-93779D01*
X135691Y-93887D01*
X135713Y-93941D01*
X135713Y-93942D01*
X135774Y-94032D01*
X135774Y-94033D01*
X135816Y-94074D01*
X135908Y-94136D01*
X135962Y-94158D01*
X135962Y-94158D01*
X136070Y-94180D01*
X136070Y-94180D01*
X136129Y-94180D01*
X136237Y-94158D01*
X136291Y-94136D01*
X136292Y-94136D01*
X136382Y-94075D01*
X136383Y-94075D01*
X136424Y-94033D01*
X136486Y-93941D01*
X136508Y-93887D01*
X136508Y-93887D01*
X136530Y-93779D01*
X136530Y-93779D01*
X136530Y-93779D01*
X136530Y-93779D01*
X136530Y-94237D01*
X134168Y-94237D01*
X134118Y-94247D01*
X134108Y-94249D01*
X134057Y-94283D01*
X132875Y-95465D01*
X132875Y-93485D01*
X132875Y-92935D01*
X132857Y-92890D01*
X132823Y-92856D01*
X132779Y-92838D01*
X132731Y-92838D01*
X132181Y-92838D01*
X132136Y-92856D01*
X132102Y-92890D01*
X132084Y-92934D01*
X132084Y-92982D01*
X132084Y-93532D01*
X132102Y-93577D01*
X132136Y-93611D01*
X132180Y-93629D01*
X132228Y-93629D01*
X132778Y-93629D01*
X132823Y-93611D01*
X132857Y-93577D01*
X132875Y-93533D01*
X132875Y-93485D01*
X132875Y-95465D01*
X131635Y-96705D01*
X131601Y-96756D01*
X131589Y-96816D01*
X131589Y-96885D01*
X131580Y-96885D01*
X131469Y-96885D01*
X131450Y-96893D01*
X131431Y-96885D01*
X131383Y-96885D01*
X131311Y-96885D01*
X131311Y-96329D01*
X131603Y-96037D01*
X132134Y-96037D01*
X132179Y-96018D01*
X132213Y-95984D01*
X132231Y-95940D01*
X132231Y-95892D01*
X132231Y-94947D01*
X132213Y-94903D01*
X132190Y-94880D01*
X132190Y-94512D01*
X132294Y-94512D01*
X132338Y-94494D01*
X132372Y-94460D01*
X132391Y-94415D01*
X132391Y-94367D01*
X132391Y-94072D01*
X132372Y-94027D01*
X132338Y-93993D01*
X132294Y-93975D01*
X132246Y-93975D01*
X131875Y-93975D01*
X131875Y-93155D01*
X131815Y-93010D01*
X131704Y-92898D01*
X131559Y-92838D01*
X131401Y-92838D01*
X131256Y-92898D01*
X131144Y-93009D01*
X131084Y-93154D01*
X131084Y-93312D01*
X131144Y-93457D01*
X131255Y-93569D01*
X131400Y-93629D01*
X131558Y-93629D01*
X131703Y-93569D01*
X131815Y-93458D01*
X131875Y-93313D01*
X131875Y-93155D01*
X131875Y-93975D01*
X131773Y-93975D01*
X131747Y-93986D01*
X131734Y-93954D01*
X131663Y-93884D01*
X131571Y-93846D01*
X131398Y-93846D01*
X131335Y-93908D01*
X131335Y-94194D01*
X131343Y-94194D01*
X131343Y-94294D01*
X131335Y-94294D01*
X131335Y-94579D01*
X131398Y-94641D01*
X131571Y-94641D01*
X131663Y-94603D01*
X131734Y-94533D01*
X131747Y-94501D01*
X131773Y-94512D01*
X131821Y-94512D01*
X131877Y-94512D01*
X131877Y-94850D01*
X131299Y-94850D01*
X131255Y-94869D01*
X131235Y-94888D01*
X131235Y-94579D01*
X131235Y-94294D01*
X131235Y-94194D01*
X131235Y-93908D01*
X131173Y-93846D01*
X131009Y-93846D01*
X131009Y-93309D01*
X130998Y-93101D01*
X130940Y-92961D01*
X130847Y-92936D01*
X130550Y-93234D01*
X130847Y-93531D01*
X130940Y-93506D01*
X131009Y-93309D01*
X131009Y-93846D01*
X131000Y-93846D01*
X130910Y-93883D01*
X130819Y-93846D01*
X130777Y-93846D01*
X130777Y-93601D01*
X130480Y-93304D01*
X130409Y-93375D01*
X130409Y-93234D01*
X130112Y-92936D01*
X130019Y-92961D01*
X129950Y-93158D01*
X129961Y-93366D01*
X130019Y-93506D01*
X130112Y-93531D01*
X130409Y-93234D01*
X130409Y-93375D01*
X130182Y-93601D01*
X130207Y-93694D01*
X130404Y-93763D01*
X130612Y-93752D01*
X130752Y-93694D01*
X130777Y-93601D01*
X130777Y-93846D01*
X130646Y-93846D01*
X130584Y-93908D01*
X130584Y-94194D01*
X130862Y-94194D01*
X130957Y-94194D01*
X131235Y-94194D01*
X131235Y-94294D01*
X130957Y-94294D01*
X130862Y-94294D01*
X130584Y-94294D01*
X130584Y-94579D01*
X130646Y-94641D01*
X130819Y-94641D01*
X130910Y-94604D01*
X131000Y-94641D01*
X131173Y-94641D01*
X131235Y-94579D01*
X131235Y-94888D01*
X131220Y-94903D01*
X131202Y-94947D01*
X131202Y-94995D01*
X131202Y-95940D01*
X131218Y-95980D01*
X131044Y-96154D01*
X131040Y-96160D01*
X130617Y-95737D01*
X130617Y-94947D01*
X130599Y-94903D01*
X130565Y-94869D01*
X130520Y-94850D01*
X130472Y-94850D01*
X129942Y-94850D01*
X129942Y-94512D01*
X130046Y-94512D01*
X130072Y-94501D01*
X130085Y-94533D01*
X130156Y-94603D01*
X130248Y-94641D01*
X130421Y-94641D01*
X130484Y-94579D01*
X130484Y-94294D01*
X130476Y-94294D01*
X130476Y-94194D01*
X130484Y-94194D01*
X130484Y-93908D01*
X130421Y-93846D01*
X130248Y-93846D01*
X130156Y-93884D01*
X130085Y-93954D01*
X130072Y-93986D01*
X130046Y-93975D01*
X129998Y-93975D01*
X129525Y-93975D01*
X129481Y-93993D01*
X129447Y-94027D01*
X129428Y-94072D01*
X129428Y-94120D01*
X129428Y-94415D01*
X129447Y-94460D01*
X129481Y-94494D01*
X129525Y-94512D01*
X129573Y-94512D01*
X129629Y-94512D01*
X129629Y-94880D01*
X129606Y-94903D01*
X129588Y-94947D01*
X129588Y-94995D01*
X129588Y-95940D01*
X129606Y-95984D01*
X129640Y-96018D01*
X129685Y-96037D01*
X129733Y-96037D01*
X130475Y-96037D01*
X130676Y-96238D01*
X130648Y-96238D01*
X130586Y-96300D01*
X130586Y-96586D01*
X130593Y-96586D01*
X130593Y-96686D01*
X130586Y-96686D01*
X130586Y-96693D01*
X130486Y-96693D01*
X130486Y-96686D01*
X130478Y-96686D01*
X130478Y-96586D01*
X130486Y-96586D01*
X130486Y-96300D01*
X130423Y-96238D01*
X130250Y-96238D01*
X130158Y-96276D01*
X130087Y-96346D01*
X130074Y-96378D01*
X130048Y-96367D01*
X130000Y-96367D01*
X129740Y-96367D01*
X129376Y-96003D01*
X129376Y-93619D01*
X129400Y-93629D01*
X129558Y-93629D01*
X129703Y-93569D01*
X129815Y-93458D01*
X129875Y-93313D01*
X129875Y-93155D01*
X129815Y-93010D01*
X129704Y-92898D01*
X129559Y-92838D01*
X129401Y-92838D01*
X129256Y-92898D01*
X129144Y-93009D01*
X129084Y-93154D01*
X129084Y-93312D01*
X129123Y-93408D01*
X129109Y-93423D01*
X129075Y-93474D01*
X129063Y-93534D01*
X129063Y-96068D01*
X129075Y-96127D01*
X129109Y-96178D01*
X129430Y-96499D01*
X129430Y-96512D01*
X129430Y-96807D01*
X129449Y-96852D01*
X129483Y-96886D01*
X129527Y-96904D01*
X129570Y-96904D01*
X129537Y-96938D01*
X129518Y-96982D01*
X129518Y-97030D01*
X129518Y-97145D01*
X129092Y-97145D01*
X128406Y-96459D01*
X128406Y-93138D01*
X128824Y-92720D01*
X130335Y-92720D01*
X130207Y-92773D01*
X130182Y-92866D01*
X130480Y-93163D01*
X130777Y-92866D01*
X130752Y-92773D01*
X130601Y-92720D01*
X144745Y-92720D01*
X144745Y-93331D01*
X144763Y-93376D01*
X144797Y-93410D01*
X144842Y-93428D01*
X144890Y-93428D01*
X145677Y-93428D01*
X145722Y-93410D01*
X145756Y-93376D01*
X145774Y-93331D01*
X145774Y-93283D01*
X145774Y-93070D01*
X146745Y-93070D01*
X146745Y-93331D01*
X146763Y-93376D01*
X146797Y-93410D01*
X146842Y-93428D01*
X146890Y-93428D01*
X147609Y-93428D01*
X147609Y-93470D01*
X147372Y-93470D01*
X147310Y-93532D01*
X147310Y-94064D01*
X147317Y-94064D01*
X147317Y-94164D01*
X147310Y-94164D01*
X147310Y-94171D01*
X147210Y-94171D01*
X147210Y-94164D01*
X147210Y-94064D01*
X147210Y-93532D01*
X147147Y-93470D01*
X146816Y-93470D01*
X146724Y-93508D01*
X146654Y-93578D01*
X146616Y-93670D01*
X146616Y-93769D01*
X146616Y-94001D01*
X146678Y-94064D01*
X147210Y-94064D01*
X147210Y-94164D01*
X146678Y-94164D01*
X146616Y-94226D01*
X146616Y-94458D01*
X146616Y-94557D01*
X146654Y-94649D01*
X146724Y-94719D01*
X146816Y-94757D01*
X146933Y-94757D01*
X146924Y-94766D01*
X146924Y-94767D01*
X146863Y-94857D01*
X146863Y-94858D01*
X146841Y-94912D01*
X146819Y-95020D01*
X146819Y-95050D01*
X146819Y-95079D01*
X146841Y-95187D01*
X146863Y-95241D01*
X146863Y-95242D01*
X146924Y-95332D01*
X146924Y-95333D01*
X146966Y-95374D01*
X147058Y-95436D01*
X147112Y-95458D01*
X147112Y-95458D01*
X147220Y-95480D01*
X147220Y-95480D01*
X147279Y-95480D01*
X147387Y-95458D01*
X147441Y-95436D01*
X147442Y-95436D01*
X147532Y-95375D01*
X147533Y-95375D01*
X147574Y-95333D01*
X147609Y-95281D01*
X147609Y-99539D01*
G54D10*
G36*
X147609Y-101979D02*
X147210Y-101979D01*
X147210Y-101835D01*
X147210Y-101304D01*
X147210Y-101204D01*
X147210Y-100672D01*
X147147Y-100610D01*
X146816Y-100610D01*
X146724Y-100648D01*
X146654Y-100718D01*
X146616Y-100810D01*
X146616Y-100909D01*
X146616Y-101141D01*
X146678Y-101204D01*
X147210Y-101204D01*
X147210Y-101304D01*
X146678Y-101304D01*
X146616Y-101366D01*
X146616Y-101598D01*
X146616Y-101697D01*
X146654Y-101789D01*
X146724Y-101859D01*
X146816Y-101897D01*
X147147Y-101897D01*
X147210Y-101835D01*
X147210Y-101979D01*
X146842Y-101979D01*
X146797Y-101997D01*
X146763Y-102031D01*
X146745Y-102076D01*
X146745Y-102124D01*
X146745Y-102337D01*
X145903Y-102337D01*
X145903Y-101598D01*
X145903Y-100909D01*
X145903Y-100810D01*
X145865Y-100718D01*
X145795Y-100648D01*
X145703Y-100610D01*
X145372Y-100610D01*
X145310Y-100672D01*
X145310Y-101204D01*
X145841Y-101204D01*
X145903Y-101141D01*
X145903Y-100909D01*
X145903Y-101598D01*
X145903Y-101366D01*
X145841Y-101304D01*
X145310Y-101304D01*
X145310Y-101835D01*
X145372Y-101897D01*
X145703Y-101897D01*
X145795Y-101859D01*
X145865Y-101789D01*
X145903Y-101697D01*
X145903Y-101598D01*
X145903Y-102337D01*
X145774Y-102337D01*
X145774Y-102076D01*
X145756Y-102031D01*
X145722Y-101997D01*
X145677Y-101979D01*
X145629Y-101979D01*
X144966Y-101979D01*
X144884Y-101897D01*
X145147Y-101897D01*
X145210Y-101835D01*
X145210Y-101304D01*
X145202Y-101304D01*
X145202Y-101204D01*
X145210Y-101204D01*
X145210Y-100672D01*
X145147Y-100610D01*
X144857Y-100610D01*
X144857Y-100568D01*
X144890Y-100568D01*
X145677Y-100568D01*
X145722Y-100550D01*
X145756Y-100516D01*
X145774Y-100471D01*
X145774Y-100423D01*
X145774Y-100210D01*
X146745Y-100210D01*
X146745Y-100471D01*
X146763Y-100516D01*
X146797Y-100550D01*
X146842Y-100568D01*
X146890Y-100568D01*
X147609Y-100568D01*
X147609Y-100610D01*
X147372Y-100610D01*
X147310Y-100672D01*
X147310Y-101204D01*
X147317Y-101204D01*
X147317Y-101304D01*
X147310Y-101304D01*
X147310Y-101835D01*
X147372Y-101897D01*
X147609Y-101897D01*
X147609Y-101979D01*
X147609Y-101979D01*
G37*
G54D29*
X147609Y-101979D02*
X147210Y-101979D01*
X147210Y-101835D01*
X147210Y-101304D01*
X147210Y-101204D01*
X147210Y-100672D01*
X147147Y-100610D01*
X146816Y-100610D01*
X146724Y-100648D01*
X146654Y-100718D01*
X146616Y-100810D01*
X146616Y-100909D01*
X146616Y-101141D01*
X146678Y-101204D01*
X147210Y-101204D01*
X147210Y-101304D01*
X146678Y-101304D01*
X146616Y-101366D01*
X146616Y-101598D01*
X146616Y-101697D01*
X146654Y-101789D01*
X146724Y-101859D01*
X146816Y-101897D01*
X147147Y-101897D01*
X147210Y-101835D01*
X147210Y-101979D01*
X146842Y-101979D01*
X146797Y-101997D01*
X146763Y-102031D01*
X146745Y-102076D01*
X146745Y-102124D01*
X146745Y-102337D01*
X145903Y-102337D01*
X145903Y-101598D01*
X145903Y-100909D01*
X145903Y-100810D01*
X145865Y-100718D01*
X145795Y-100648D01*
X145703Y-100610D01*
X145372Y-100610D01*
X145310Y-100672D01*
X145310Y-101204D01*
X145841Y-101204D01*
X145903Y-101141D01*
X145903Y-100909D01*
X145903Y-101598D01*
X145903Y-101366D01*
X145841Y-101304D01*
X145310Y-101304D01*
X145310Y-101835D01*
X145372Y-101897D01*
X145703Y-101897D01*
X145795Y-101859D01*
X145865Y-101789D01*
X145903Y-101697D01*
X145903Y-101598D01*
X145903Y-102337D01*
X145774Y-102337D01*
X145774Y-102076D01*
X145756Y-102031D01*
X145722Y-101997D01*
X145677Y-101979D01*
X145629Y-101979D01*
X144966Y-101979D01*
X144884Y-101897D01*
X145147Y-101897D01*
X145210Y-101835D01*
X145210Y-101304D01*
X145202Y-101304D01*
X145202Y-101204D01*
X145210Y-101204D01*
X145210Y-100672D01*
X145147Y-100610D01*
X144857Y-100610D01*
X144857Y-100568D01*
X144890Y-100568D01*
X145677Y-100568D01*
X145722Y-100550D01*
X145756Y-100516D01*
X145774Y-100471D01*
X145774Y-100423D01*
X145774Y-100210D01*
X146745Y-100210D01*
X146745Y-100471D01*
X146763Y-100516D01*
X146797Y-100550D01*
X146842Y-100568D01*
X146890Y-100568D01*
X147609Y-100568D01*
X147609Y-100610D01*
X147372Y-100610D01*
X147310Y-100672D01*
X147310Y-101204D01*
X147317Y-101204D01*
X147317Y-101304D01*
X147310Y-101304D01*
X147310Y-101835D01*
X147372Y-101897D01*
X147609Y-101897D01*
X147609Y-101979D01*
G54D10*
G36*
X147609Y-103050D02*
X147372Y-103050D01*
X147310Y-103112D01*
X147310Y-103644D01*
X147317Y-103644D01*
X147317Y-103744D01*
X147310Y-103744D01*
X147310Y-103751D01*
X147210Y-103751D01*
X147210Y-103744D01*
X147210Y-103644D01*
X147210Y-103112D01*
X147147Y-103050D01*
X146816Y-103050D01*
X146724Y-103088D01*
X146654Y-103158D01*
X146616Y-103250D01*
X146616Y-103349D01*
X146616Y-103581D01*
X146678Y-103644D01*
X147210Y-103644D01*
X147210Y-103744D01*
X146678Y-103744D01*
X146616Y-103806D01*
X146616Y-104038D01*
X146616Y-104043D01*
X145903Y-104043D01*
X145903Y-104038D01*
X145903Y-103349D01*
X145903Y-103250D01*
X145865Y-103158D01*
X145795Y-103088D01*
X145703Y-103050D01*
X145372Y-103050D01*
X145310Y-103112D01*
X145310Y-103644D01*
X145841Y-103644D01*
X145903Y-103581D01*
X145903Y-103349D01*
X145903Y-104038D01*
X145903Y-103806D01*
X145841Y-103744D01*
X145310Y-103744D01*
X145310Y-103751D01*
X145210Y-103751D01*
X145210Y-103744D01*
X145210Y-103644D01*
X145210Y-103112D01*
X145147Y-103050D01*
X144816Y-103050D01*
X144760Y-103073D01*
X144703Y-103050D01*
X144372Y-103050D01*
X144310Y-103112D01*
X144310Y-103644D01*
X144678Y-103644D01*
X144841Y-103644D01*
X145210Y-103644D01*
X145210Y-103744D01*
X144841Y-103744D01*
X144678Y-103744D01*
X144310Y-103744D01*
X144310Y-103751D01*
X144210Y-103751D01*
X144210Y-103744D01*
X144210Y-103644D01*
X144210Y-103112D01*
X144147Y-103050D01*
X143816Y-103050D01*
X143724Y-103088D01*
X143654Y-103158D01*
X143616Y-103250D01*
X143616Y-103349D01*
X143616Y-103581D01*
X143678Y-103644D01*
X144210Y-103644D01*
X144210Y-103744D01*
X143678Y-103744D01*
X143616Y-103806D01*
X143616Y-104038D01*
X143616Y-104043D01*
X142903Y-104043D01*
X142903Y-104038D01*
X142903Y-103349D01*
X142903Y-103250D01*
X142865Y-103158D01*
X142795Y-103088D01*
X142703Y-103050D01*
X142372Y-103050D01*
X142310Y-103112D01*
X142310Y-103644D01*
X142841Y-103644D01*
X142903Y-103581D01*
X142903Y-103349D01*
X142903Y-104038D01*
X142903Y-103806D01*
X142841Y-103744D01*
X142310Y-103744D01*
X142310Y-103751D01*
X142210Y-103751D01*
X142210Y-103744D01*
X142202Y-103744D01*
X142202Y-103644D01*
X142210Y-103644D01*
X142210Y-103112D01*
X142147Y-103050D01*
X141816Y-103050D01*
X141724Y-103088D01*
X141654Y-103158D01*
X141616Y-103250D01*
X141616Y-103349D01*
X141616Y-103407D01*
X141583Y-103374D01*
X141582Y-103374D01*
X141492Y-103313D01*
X141491Y-103313D01*
X141437Y-103291D01*
X141329Y-103269D01*
X141270Y-103269D01*
X141270Y-103269D01*
X141162Y-103291D01*
X141162Y-103291D01*
X141108Y-103313D01*
X141016Y-103375D01*
X140974Y-103416D01*
X140974Y-103417D01*
X140913Y-103507D01*
X140913Y-103508D01*
X140891Y-103562D01*
X140869Y-103670D01*
X140869Y-103700D01*
X140869Y-103729D01*
X140891Y-103837D01*
X140913Y-103891D01*
X140913Y-103892D01*
X140974Y-103982D01*
X140974Y-103983D01*
X141016Y-104024D01*
X141044Y-104043D01*
X136374Y-104043D01*
X136391Y-104036D01*
X136392Y-104036D01*
X136482Y-103975D01*
X136483Y-103975D01*
X136524Y-103933D01*
X136586Y-103841D01*
X136608Y-103787D01*
X136608Y-103787D01*
X136630Y-103679D01*
X136630Y-103679D01*
X136630Y-103679D01*
X136630Y-103679D01*
X136630Y-103650D01*
X136630Y-103620D01*
X136630Y-103620D01*
X136630Y-103620D01*
X136630Y-103620D01*
X136608Y-103512D01*
X136608Y-103512D01*
X136586Y-103458D01*
X136530Y-103374D01*
X136530Y-101029D01*
X136530Y-101000D01*
X136530Y-100970D01*
X136530Y-100970D01*
X136530Y-100970D01*
X136530Y-100970D01*
X136508Y-100862D01*
X136508Y-100862D01*
X136486Y-100808D01*
X136424Y-100716D01*
X136383Y-100674D01*
X136382Y-100674D01*
X136292Y-100613D01*
X136291Y-100613D01*
X136237Y-100591D01*
X136129Y-100569D01*
X136070Y-100569D01*
X136070Y-100569D01*
X135962Y-100591D01*
X135962Y-100591D01*
X135908Y-100613D01*
X135816Y-100675D01*
X135774Y-100716D01*
X135774Y-100717D01*
X135713Y-100807D01*
X135713Y-100808D01*
X135691Y-100862D01*
X135669Y-100970D01*
X135669Y-101000D01*
X135669Y-101029D01*
X135691Y-101137D01*
X135713Y-101191D01*
X135713Y-101192D01*
X135774Y-101282D01*
X135774Y-101283D01*
X135816Y-101324D01*
X135908Y-101386D01*
X135962Y-101408D01*
X135962Y-101408D01*
X136070Y-101430D01*
X136070Y-101430D01*
X136129Y-101430D01*
X136237Y-101408D01*
X136291Y-101386D01*
X136292Y-101386D01*
X136382Y-101325D01*
X136383Y-101325D01*
X136424Y-101283D01*
X136486Y-101191D01*
X136508Y-101137D01*
X136508Y-101137D01*
X136530Y-101029D01*
X136530Y-101029D01*
X136530Y-101029D01*
X136530Y-101029D01*
X136530Y-103374D01*
X136524Y-103366D01*
X136483Y-103324D01*
X136482Y-103324D01*
X136392Y-103263D01*
X136391Y-103263D01*
X136337Y-103241D01*
X136229Y-103219D01*
X136170Y-103219D01*
X136170Y-103219D01*
X136062Y-103241D01*
X136062Y-103241D01*
X136008Y-103263D01*
X135916Y-103325D01*
X135903Y-103337D01*
X135903Y-103250D01*
X135865Y-103158D01*
X135795Y-103088D01*
X135703Y-103050D01*
X135372Y-103050D01*
X135310Y-103112D01*
X135310Y-103644D01*
X135317Y-103644D01*
X135317Y-103744D01*
X135310Y-103744D01*
X135310Y-103751D01*
X135210Y-103751D01*
X135210Y-103744D01*
X135210Y-103644D01*
X135210Y-103112D01*
X135147Y-103050D01*
X134816Y-103050D01*
X134724Y-103088D01*
X134654Y-103158D01*
X134616Y-103250D01*
X134616Y-103349D01*
X134616Y-103581D01*
X134678Y-103644D01*
X135210Y-103644D01*
X135210Y-103744D01*
X134678Y-103744D01*
X134616Y-103806D01*
X134616Y-104038D01*
X134616Y-104043D01*
X133903Y-104043D01*
X133903Y-104038D01*
X133903Y-103349D01*
X133903Y-103250D01*
X133865Y-103158D01*
X133795Y-103088D01*
X133703Y-103050D01*
X133372Y-103050D01*
X133310Y-103112D01*
X133310Y-103644D01*
X133841Y-103644D01*
X133903Y-103581D01*
X133903Y-103349D01*
X133903Y-104038D01*
X133903Y-103806D01*
X133841Y-103744D01*
X133310Y-103744D01*
X133310Y-103751D01*
X133210Y-103751D01*
X133210Y-103744D01*
X133202Y-103744D01*
X133202Y-103644D01*
X133210Y-103644D01*
X133210Y-103112D01*
X133147Y-103050D01*
X132816Y-103050D01*
X132730Y-103086D01*
X132718Y-103058D01*
X132648Y-102988D01*
X132556Y-102950D01*
X132457Y-102950D01*
X132422Y-102950D01*
X132360Y-103012D01*
X132360Y-103544D01*
X132367Y-103544D01*
X132367Y-103644D01*
X132360Y-103644D01*
X132360Y-103651D01*
X132260Y-103651D01*
X132260Y-103644D01*
X132260Y-103544D01*
X132260Y-103012D01*
X132197Y-102950D01*
X132162Y-102950D01*
X132063Y-102950D01*
X131985Y-102982D01*
X131906Y-102950D01*
X131807Y-102950D01*
X131772Y-102950D01*
X131710Y-103012D01*
X131710Y-103544D01*
X131925Y-103544D01*
X132044Y-103544D01*
X132260Y-103544D01*
X132260Y-103644D01*
X132044Y-103644D01*
X131925Y-103644D01*
X131710Y-103644D01*
X131710Y-103651D01*
X131610Y-103651D01*
X131610Y-103644D01*
X131602Y-103644D01*
X131602Y-103544D01*
X131610Y-103544D01*
X131610Y-103012D01*
X131547Y-102950D01*
X131512Y-102950D01*
X131413Y-102950D01*
X131321Y-102988D01*
X131251Y-103058D01*
X131240Y-103083D01*
X131230Y-103079D01*
X131183Y-103079D01*
X131334Y-102928D01*
X131399Y-102928D01*
X131487Y-102892D01*
X131554Y-102825D01*
X131591Y-102737D01*
X131591Y-102642D01*
X131554Y-102554D01*
X131508Y-102508D01*
X131508Y-101811D01*
X131655Y-101811D01*
X131717Y-101749D01*
X131717Y-101464D01*
X131710Y-101464D01*
X131710Y-101364D01*
X131717Y-101364D01*
X131717Y-101356D01*
X131817Y-101356D01*
X131817Y-101364D01*
X131825Y-101364D01*
X131825Y-101464D01*
X131817Y-101464D01*
X131817Y-101749D01*
X131880Y-101811D01*
X132053Y-101811D01*
X132145Y-101773D01*
X132216Y-101703D01*
X132229Y-101671D01*
X132255Y-101682D01*
X132303Y-101682D01*
X132776Y-101682D01*
X132820Y-101664D01*
X132854Y-101630D01*
X132873Y-101585D01*
X132873Y-101537D01*
X132873Y-101242D01*
X132854Y-101197D01*
X132820Y-101163D01*
X132776Y-101145D01*
X132728Y-101145D01*
X132672Y-101145D01*
X132672Y-100868D01*
X132662Y-100818D01*
X132660Y-100808D01*
X132660Y-100808D01*
X132626Y-100757D01*
X132626Y-100757D01*
X132544Y-100675D01*
X132493Y-100641D01*
X132434Y-100629D01*
X132201Y-100629D01*
X132201Y-100466D01*
X132182Y-100422D01*
X132149Y-100388D01*
X132138Y-100384D01*
X132138Y-100347D01*
X132182Y-100303D01*
X132187Y-100291D01*
X132204Y-100332D01*
X132238Y-100366D01*
X132282Y-100385D01*
X132330Y-100385D01*
X132921Y-100385D01*
X132965Y-100366D01*
X132999Y-100333D01*
X133004Y-100322D01*
X133688Y-100322D01*
X133724Y-100358D01*
X133812Y-100394D01*
X133907Y-100395D01*
X133995Y-100358D01*
X134062Y-100291D01*
X134098Y-100203D01*
X134099Y-100108D01*
X134089Y-100086D01*
X134891Y-100086D01*
X135103Y-100298D01*
X135103Y-101979D01*
X134842Y-101979D01*
X134797Y-101997D01*
X134763Y-102031D01*
X134745Y-102076D01*
X134745Y-102124D01*
X134745Y-102337D01*
X133774Y-102337D01*
X133774Y-102076D01*
X133756Y-102031D01*
X133722Y-101997D01*
X133677Y-101979D01*
X133629Y-101979D01*
X132842Y-101979D01*
X132797Y-101997D01*
X132763Y-102031D01*
X132745Y-102076D01*
X132745Y-102124D01*
X132745Y-102911D01*
X132763Y-102956D01*
X132797Y-102990D01*
X132842Y-103008D01*
X132890Y-103008D01*
X133677Y-103008D01*
X133722Y-102990D01*
X133756Y-102956D01*
X133774Y-102911D01*
X133774Y-102863D01*
X133774Y-102650D01*
X134745Y-102650D01*
X134745Y-102911D01*
X134763Y-102956D01*
X134797Y-102990D01*
X134842Y-103008D01*
X134890Y-103008D01*
X135677Y-103008D01*
X135722Y-102990D01*
X135756Y-102956D01*
X135774Y-102911D01*
X135774Y-102863D01*
X135774Y-102076D01*
X135756Y-102031D01*
X135722Y-101997D01*
X135677Y-101979D01*
X135629Y-101979D01*
X135416Y-101979D01*
X135416Y-100234D01*
X135406Y-100184D01*
X135404Y-100174D01*
X135404Y-100174D01*
X135370Y-100123D01*
X135370Y-100123D01*
X135136Y-99889D01*
X136368Y-99889D01*
X139083Y-102604D01*
X139083Y-102604D01*
X139117Y-102627D01*
X139134Y-102638D01*
X139134Y-102638D01*
X139193Y-102650D01*
X139194Y-102650D01*
X141745Y-102650D01*
X141745Y-102911D01*
X141763Y-102956D01*
X141797Y-102990D01*
X141842Y-103008D01*
X141890Y-103008D01*
X142677Y-103008D01*
X142722Y-102990D01*
X142756Y-102956D01*
X142774Y-102911D01*
X142774Y-102863D01*
X142774Y-102650D01*
X143745Y-102650D01*
X143745Y-102911D01*
X143763Y-102956D01*
X143797Y-102990D01*
X143842Y-103008D01*
X143890Y-103008D01*
X144677Y-103008D01*
X144722Y-102990D01*
X144756Y-102956D01*
X144759Y-102946D01*
X144763Y-102956D01*
X144797Y-102990D01*
X144842Y-103008D01*
X144890Y-103008D01*
X145677Y-103008D01*
X145722Y-102990D01*
X145756Y-102956D01*
X145774Y-102911D01*
X145774Y-102863D01*
X145774Y-102650D01*
X146745Y-102650D01*
X146745Y-102911D01*
X146763Y-102956D01*
X146797Y-102990D01*
X146842Y-103008D01*
X146890Y-103008D01*
X147609Y-103008D01*
X147609Y-103050D01*
X147609Y-103050D01*
G37*
G54D29*
X147609Y-103050D02*
X147372Y-103050D01*
X147310Y-103112D01*
X147310Y-103644D01*
X147317Y-103644D01*
X147317Y-103744D01*
X147310Y-103744D01*
X147310Y-103751D01*
X147210Y-103751D01*
X147210Y-103744D01*
X147210Y-103644D01*
X147210Y-103112D01*
X147147Y-103050D01*
X146816Y-103050D01*
X146724Y-103088D01*
X146654Y-103158D01*
X146616Y-103250D01*
X146616Y-103349D01*
X146616Y-103581D01*
X146678Y-103644D01*
X147210Y-103644D01*
X147210Y-103744D01*
X146678Y-103744D01*
X146616Y-103806D01*
X146616Y-104038D01*
X146616Y-104043D01*
X145903Y-104043D01*
X145903Y-104038D01*
X145903Y-103349D01*
X145903Y-103250D01*
X145865Y-103158D01*
X145795Y-103088D01*
X145703Y-103050D01*
X145372Y-103050D01*
X145310Y-103112D01*
X145310Y-103644D01*
X145841Y-103644D01*
X145903Y-103581D01*
X145903Y-103349D01*
X145903Y-104038D01*
X145903Y-103806D01*
X145841Y-103744D01*
X145310Y-103744D01*
X145310Y-103751D01*
X145210Y-103751D01*
X145210Y-103744D01*
X145210Y-103644D01*
X145210Y-103112D01*
X145147Y-103050D01*
X144816Y-103050D01*
X144760Y-103073D01*
X144703Y-103050D01*
X144372Y-103050D01*
X144310Y-103112D01*
X144310Y-103644D01*
X144678Y-103644D01*
X144841Y-103644D01*
X145210Y-103644D01*
X145210Y-103744D01*
X144841Y-103744D01*
X144678Y-103744D01*
X144310Y-103744D01*
X144310Y-103751D01*
X144210Y-103751D01*
X144210Y-103744D01*
X144210Y-103644D01*
X144210Y-103112D01*
X144147Y-103050D01*
X143816Y-103050D01*
X143724Y-103088D01*
X143654Y-103158D01*
X143616Y-103250D01*
X143616Y-103349D01*
X143616Y-103581D01*
X143678Y-103644D01*
X144210Y-103644D01*
X144210Y-103744D01*
X143678Y-103744D01*
X143616Y-103806D01*
X143616Y-104038D01*
X143616Y-104043D01*
X142903Y-104043D01*
X142903Y-104038D01*
X142903Y-103349D01*
X142903Y-103250D01*
X142865Y-103158D01*
X142795Y-103088D01*
X142703Y-103050D01*
X142372Y-103050D01*
X142310Y-103112D01*
X142310Y-103644D01*
X142841Y-103644D01*
X142903Y-103581D01*
X142903Y-103349D01*
X142903Y-104038D01*
X142903Y-103806D01*
X142841Y-103744D01*
X142310Y-103744D01*
X142310Y-103751D01*
X142210Y-103751D01*
X142210Y-103744D01*
X142202Y-103744D01*
X142202Y-103644D01*
X142210Y-103644D01*
X142210Y-103112D01*
X142147Y-103050D01*
X141816Y-103050D01*
X141724Y-103088D01*
X141654Y-103158D01*
X141616Y-103250D01*
X141616Y-103349D01*
X141616Y-103407D01*
X141583Y-103374D01*
X141582Y-103374D01*
X141492Y-103313D01*
X141491Y-103313D01*
X141437Y-103291D01*
X141329Y-103269D01*
X141270Y-103269D01*
X141270Y-103269D01*
X141162Y-103291D01*
X141162Y-103291D01*
X141108Y-103313D01*
X141016Y-103375D01*
X140974Y-103416D01*
X140974Y-103417D01*
X140913Y-103507D01*
X140913Y-103508D01*
X140891Y-103562D01*
X140869Y-103670D01*
X140869Y-103700D01*
X140869Y-103729D01*
X140891Y-103837D01*
X140913Y-103891D01*
X140913Y-103892D01*
X140974Y-103982D01*
X140974Y-103983D01*
X141016Y-104024D01*
X141044Y-104043D01*
X136374Y-104043D01*
X136391Y-104036D01*
X136392Y-104036D01*
X136482Y-103975D01*
X136483Y-103975D01*
X136524Y-103933D01*
X136586Y-103841D01*
X136608Y-103787D01*
X136608Y-103787D01*
X136630Y-103679D01*
X136630Y-103679D01*
X136630Y-103679D01*
X136630Y-103679D01*
X136630Y-103650D01*
X136630Y-103620D01*
X136630Y-103620D01*
X136630Y-103620D01*
X136630Y-103620D01*
X136608Y-103512D01*
X136608Y-103512D01*
X136586Y-103458D01*
X136530Y-103374D01*
X136530Y-101029D01*
X136530Y-101000D01*
X136530Y-100970D01*
X136530Y-100970D01*
X136530Y-100970D01*
X136530Y-100970D01*
X136508Y-100862D01*
X136508Y-100862D01*
X136486Y-100808D01*
X136424Y-100716D01*
X136383Y-100674D01*
X136382Y-100674D01*
X136292Y-100613D01*
X136291Y-100613D01*
X136237Y-100591D01*
X136129Y-100569D01*
X136070Y-100569D01*
X136070Y-100569D01*
X135962Y-100591D01*
X135962Y-100591D01*
X135908Y-100613D01*
X135816Y-100675D01*
X135774Y-100716D01*
X135774Y-100717D01*
X135713Y-100807D01*
X135713Y-100808D01*
X135691Y-100862D01*
X135669Y-100970D01*
X135669Y-101000D01*
X135669Y-101029D01*
X135691Y-101137D01*
X135713Y-101191D01*
X135713Y-101192D01*
X135774Y-101282D01*
X135774Y-101283D01*
X135816Y-101324D01*
X135908Y-101386D01*
X135962Y-101408D01*
X135962Y-101408D01*
X136070Y-101430D01*
X136070Y-101430D01*
X136129Y-101430D01*
X136237Y-101408D01*
X136291Y-101386D01*
X136292Y-101386D01*
X136382Y-101325D01*
X136383Y-101325D01*
X136424Y-101283D01*
X136486Y-101191D01*
X136508Y-101137D01*
X136508Y-101137D01*
X136530Y-101029D01*
X136530Y-101029D01*
X136530Y-101029D01*
X136530Y-101029D01*
X136530Y-103374D01*
X136524Y-103366D01*
X136483Y-103324D01*
X136482Y-103324D01*
X136392Y-103263D01*
X136391Y-103263D01*
X136337Y-103241D01*
X136229Y-103219D01*
X136170Y-103219D01*
X136170Y-103219D01*
X136062Y-103241D01*
X136062Y-103241D01*
X136008Y-103263D01*
X135916Y-103325D01*
X135903Y-103337D01*
X135903Y-103250D01*
X135865Y-103158D01*
X135795Y-103088D01*
X135703Y-103050D01*
X135372Y-103050D01*
X135310Y-103112D01*
X135310Y-103644D01*
X135317Y-103644D01*
X135317Y-103744D01*
X135310Y-103744D01*
X135310Y-103751D01*
X135210Y-103751D01*
X135210Y-103744D01*
X135210Y-103644D01*
X135210Y-103112D01*
X135147Y-103050D01*
X134816Y-103050D01*
X134724Y-103088D01*
X134654Y-103158D01*
X134616Y-103250D01*
X134616Y-103349D01*
X134616Y-103581D01*
X134678Y-103644D01*
X135210Y-103644D01*
X135210Y-103744D01*
X134678Y-103744D01*
X134616Y-103806D01*
X134616Y-104038D01*
X134616Y-104043D01*
X133903Y-104043D01*
X133903Y-104038D01*
X133903Y-103349D01*
X133903Y-103250D01*
X133865Y-103158D01*
X133795Y-103088D01*
X133703Y-103050D01*
X133372Y-103050D01*
X133310Y-103112D01*
X133310Y-103644D01*
X133841Y-103644D01*
X133903Y-103581D01*
X133903Y-103349D01*
X133903Y-104038D01*
X133903Y-103806D01*
X133841Y-103744D01*
X133310Y-103744D01*
X133310Y-103751D01*
X133210Y-103751D01*
X133210Y-103744D01*
X133202Y-103744D01*
X133202Y-103644D01*
X133210Y-103644D01*
X133210Y-103112D01*
X133147Y-103050D01*
X132816Y-103050D01*
X132730Y-103086D01*
X132718Y-103058D01*
X132648Y-102988D01*
X132556Y-102950D01*
X132457Y-102950D01*
X132422Y-102950D01*
X132360Y-103012D01*
X132360Y-103544D01*
X132367Y-103544D01*
X132367Y-103644D01*
X132360Y-103644D01*
X132360Y-103651D01*
X132260Y-103651D01*
X132260Y-103644D01*
X132260Y-103544D01*
X132260Y-103012D01*
X132197Y-102950D01*
X132162Y-102950D01*
X132063Y-102950D01*
X131985Y-102982D01*
X131906Y-102950D01*
X131807Y-102950D01*
X131772Y-102950D01*
X131710Y-103012D01*
X131710Y-103544D01*
X131925Y-103544D01*
X132044Y-103544D01*
X132260Y-103544D01*
X132260Y-103644D01*
X132044Y-103644D01*
X131925Y-103644D01*
X131710Y-103644D01*
X131710Y-103651D01*
X131610Y-103651D01*
X131610Y-103644D01*
X131602Y-103644D01*
X131602Y-103544D01*
X131610Y-103544D01*
X131610Y-103012D01*
X131547Y-102950D01*
X131512Y-102950D01*
X131413Y-102950D01*
X131321Y-102988D01*
X131251Y-103058D01*
X131240Y-103083D01*
X131230Y-103079D01*
X131183Y-103079D01*
X131334Y-102928D01*
X131399Y-102928D01*
X131487Y-102892D01*
X131554Y-102825D01*
X131591Y-102737D01*
X131591Y-102642D01*
X131554Y-102554D01*
X131508Y-102508D01*
X131508Y-101811D01*
X131655Y-101811D01*
X131717Y-101749D01*
X131717Y-101464D01*
X131710Y-101464D01*
X131710Y-101364D01*
X131717Y-101364D01*
X131717Y-101356D01*
X131817Y-101356D01*
X131817Y-101364D01*
X131825Y-101364D01*
X131825Y-101464D01*
X131817Y-101464D01*
X131817Y-101749D01*
X131880Y-101811D01*
X132053Y-101811D01*
X132145Y-101773D01*
X132216Y-101703D01*
X132229Y-101671D01*
X132255Y-101682D01*
X132303Y-101682D01*
X132776Y-101682D01*
X132820Y-101664D01*
X132854Y-101630D01*
X132873Y-101585D01*
X132873Y-101537D01*
X132873Y-101242D01*
X132854Y-101197D01*
X132820Y-101163D01*
X132776Y-101145D01*
X132728Y-101145D01*
X132672Y-101145D01*
X132672Y-100868D01*
X132662Y-100818D01*
X132660Y-100808D01*
X132660Y-100808D01*
X132626Y-100757D01*
X132626Y-100757D01*
X132544Y-100675D01*
X132493Y-100641D01*
X132434Y-100629D01*
X132201Y-100629D01*
X132201Y-100466D01*
X132182Y-100422D01*
X132149Y-100388D01*
X132138Y-100384D01*
X132138Y-100347D01*
X132182Y-100303D01*
X132187Y-100291D01*
X132204Y-100332D01*
X132238Y-100366D01*
X132282Y-100385D01*
X132330Y-100385D01*
X132921Y-100385D01*
X132965Y-100366D01*
X132999Y-100333D01*
X133004Y-100322D01*
X133688Y-100322D01*
X133724Y-100358D01*
X133812Y-100394D01*
X133907Y-100395D01*
X133995Y-100358D01*
X134062Y-100291D01*
X134098Y-100203D01*
X134099Y-100108D01*
X134089Y-100086D01*
X134891Y-100086D01*
X135103Y-100298D01*
X135103Y-101979D01*
X134842Y-101979D01*
X134797Y-101997D01*
X134763Y-102031D01*
X134745Y-102076D01*
X134745Y-102124D01*
X134745Y-102337D01*
X133774Y-102337D01*
X133774Y-102076D01*
X133756Y-102031D01*
X133722Y-101997D01*
X133677Y-101979D01*
X133629Y-101979D01*
X132842Y-101979D01*
X132797Y-101997D01*
X132763Y-102031D01*
X132745Y-102076D01*
X132745Y-102124D01*
X132745Y-102911D01*
X132763Y-102956D01*
X132797Y-102990D01*
X132842Y-103008D01*
X132890Y-103008D01*
X133677Y-103008D01*
X133722Y-102990D01*
X133756Y-102956D01*
X133774Y-102911D01*
X133774Y-102863D01*
X133774Y-102650D01*
X134745Y-102650D01*
X134745Y-102911D01*
X134763Y-102956D01*
X134797Y-102990D01*
X134842Y-103008D01*
X134890Y-103008D01*
X135677Y-103008D01*
X135722Y-102990D01*
X135756Y-102956D01*
X135774Y-102911D01*
X135774Y-102863D01*
X135774Y-102076D01*
X135756Y-102031D01*
X135722Y-101997D01*
X135677Y-101979D01*
X135629Y-101979D01*
X135416Y-101979D01*
X135416Y-100234D01*
X135406Y-100184D01*
X135404Y-100174D01*
X135404Y-100174D01*
X135370Y-100123D01*
X135370Y-100123D01*
X135136Y-99889D01*
X136368Y-99889D01*
X139083Y-102604D01*
X139083Y-102604D01*
X139117Y-102627D01*
X139134Y-102638D01*
X139134Y-102638D01*
X139193Y-102650D01*
X139194Y-102650D01*
X141745Y-102650D01*
X141745Y-102911D01*
X141763Y-102956D01*
X141797Y-102990D01*
X141842Y-103008D01*
X141890Y-103008D01*
X142677Y-103008D01*
X142722Y-102990D01*
X142756Y-102956D01*
X142774Y-102911D01*
X142774Y-102863D01*
X142774Y-102650D01*
X143745Y-102650D01*
X143745Y-102911D01*
X143763Y-102956D01*
X143797Y-102990D01*
X143842Y-103008D01*
X143890Y-103008D01*
X144677Y-103008D01*
X144722Y-102990D01*
X144756Y-102956D01*
X144759Y-102946D01*
X144763Y-102956D01*
X144797Y-102990D01*
X144842Y-103008D01*
X144890Y-103008D01*
X145677Y-103008D01*
X145722Y-102990D01*
X145756Y-102956D01*
X145774Y-102911D01*
X145774Y-102863D01*
X145774Y-102650D01*
X146745Y-102650D01*
X146745Y-102911D01*
X146763Y-102956D01*
X146797Y-102990D01*
X146842Y-103008D01*
X146890Y-103008D01*
X147609Y-103008D01*
X147609Y-103050D01*
M02*
