G04 (created by PCBNEW (22-Jun-2014 BZR 4027)-stable) date Thu 28 Jun 2018 06:15:12 PM CST*
%MOIN*%
G04 Gerber Fmt 3.4, Leading zero omitted, Abs format*
%FSLAX34Y34*%
G01*
G70*
G90*
G04 APERTURE LIST*
%ADD10C,0.00393701*%
%ADD11C,0.00590551*%
%ADD12C,0.011811*%
G04 APERTURE END LIST*
G54D10*
G54D11*
X146932Y-98450D02*
G75*
G03X146932Y-98450I-282J0D01*
G74*
G01*
X141582Y-103700D02*
G75*
G03X141582Y-103700I-282J0D01*
G74*
G01*
X147532Y-95050D02*
G75*
G03X147532Y-95050I-282J0D01*
G74*
G01*
X136482Y-103650D02*
G75*
G03X136482Y-103650I-282J0D01*
G74*
G01*
X115132Y-96450D02*
G75*
G03X115132Y-96450I-282J0D01*
G74*
G01*
X121082Y-103650D02*
G75*
G03X121082Y-103650I-282J0D01*
G74*
G01*
X126032Y-103650D02*
G75*
G03X126032Y-103650I-282J0D01*
G74*
G01*
X143732Y-101300D02*
G75*
G03X143732Y-101300I-282J0D01*
G74*
G01*
X136382Y-101000D02*
G75*
G03X136382Y-101000I-282J0D01*
G74*
G01*
X143682Y-93750D02*
G75*
G03X143682Y-93750I-282J0D01*
G74*
G01*
X136382Y-93750D02*
G75*
G03X136382Y-93750I-282J0D01*
G74*
G01*
X119032Y-100900D02*
G75*
G03X119032Y-100900I-282J0D01*
G74*
G01*
X126332Y-100900D02*
G75*
G03X126332Y-100900I-282J0D01*
G74*
G01*
X126282Y-93750D02*
G75*
G03X126282Y-93750I-282J0D01*
G74*
G01*
X118982Y-93750D02*
G75*
G03X118982Y-93750I-282J0D01*
G74*
G01*
G54D12*
X113323Y-95872D02*
X113351Y-95900D01*
X113380Y-95956D01*
X113380Y-96097D01*
X113351Y-96153D01*
X113323Y-96181D01*
X113267Y-96209D01*
X113211Y-96209D01*
X113126Y-96181D01*
X112789Y-95844D01*
X112789Y-96209D01*
X112789Y-96491D02*
X112789Y-96603D01*
X112817Y-96659D01*
X112845Y-96687D01*
X112930Y-96744D01*
X113042Y-96772D01*
X113267Y-96772D01*
X113323Y-96744D01*
X113351Y-96716D01*
X113380Y-96659D01*
X113380Y-96547D01*
X113351Y-96491D01*
X113323Y-96462D01*
X113267Y-96434D01*
X113126Y-96434D01*
X113070Y-96462D01*
X113042Y-96491D01*
X113014Y-96547D01*
X113014Y-96659D01*
X113042Y-96716D01*
X113070Y-96744D01*
X113126Y-96772D01*
X112845Y-97025D02*
X112817Y-97053D01*
X112789Y-97025D01*
X112817Y-96997D01*
X112845Y-97025D01*
X112789Y-97025D01*
X113126Y-97390D02*
X113155Y-97334D01*
X113183Y-97306D01*
X113239Y-97278D01*
X113267Y-97278D01*
X113323Y-97306D01*
X113351Y-97334D01*
X113380Y-97390D01*
X113380Y-97503D01*
X113351Y-97559D01*
X113323Y-97587D01*
X113267Y-97615D01*
X113239Y-97615D01*
X113183Y-97587D01*
X113155Y-97559D01*
X113126Y-97503D01*
X113126Y-97390D01*
X113098Y-97334D01*
X113070Y-97306D01*
X113014Y-97278D01*
X112901Y-97278D01*
X112845Y-97306D01*
X112817Y-97334D01*
X112789Y-97390D01*
X112789Y-97503D01*
X112817Y-97559D01*
X112845Y-97587D01*
X112901Y-97615D01*
X113014Y-97615D01*
X113070Y-97587D01*
X113098Y-97559D01*
X113126Y-97503D01*
X113183Y-98122D02*
X112789Y-98122D01*
X113408Y-97981D02*
X112986Y-97840D01*
X112986Y-98206D01*
X113380Y-98712D02*
X113380Y-98431D01*
X113098Y-98403D01*
X113126Y-98431D01*
X113155Y-98487D01*
X113155Y-98628D01*
X113126Y-98684D01*
X113098Y-98712D01*
X113042Y-98740D01*
X112901Y-98740D01*
X112845Y-98712D01*
X112817Y-98684D01*
X112789Y-98628D01*
X112789Y-98487D01*
X112817Y-98431D01*
X112845Y-98403D01*
X112789Y-99443D02*
X113183Y-99443D01*
X113126Y-99443D02*
X113155Y-99471D01*
X113183Y-99528D01*
X113183Y-99612D01*
X113155Y-99668D01*
X113098Y-99696D01*
X112789Y-99696D01*
X113098Y-99696D02*
X113155Y-99725D01*
X113183Y-99781D01*
X113183Y-99865D01*
X113155Y-99921D01*
X113098Y-99950D01*
X112789Y-99950D01*
X112789Y-100231D02*
X113183Y-100231D01*
X113126Y-100231D02*
X113155Y-100259D01*
X113183Y-100315D01*
X113183Y-100399D01*
X113155Y-100456D01*
X113098Y-100484D01*
X112789Y-100484D01*
X113098Y-100484D02*
X113155Y-100512D01*
X113183Y-100568D01*
X113183Y-100653D01*
X113155Y-100709D01*
X113098Y-100737D01*
X112789Y-100737D01*
X113560Y-92444D02*
X113560Y-104194D01*
X114310Y-92444D02*
X112497Y-92444D01*
X114310Y-104194D02*
X112497Y-104194D01*
X113560Y-104194D02*
X113329Y-103750D01*
X113560Y-104194D02*
X113790Y-103750D01*
X113560Y-92444D02*
X113329Y-92887D01*
X113560Y-92444D02*
X113790Y-92887D01*
X128725Y-105377D02*
X128669Y-105348D01*
X128641Y-105320D01*
X128613Y-105264D01*
X128613Y-105236D01*
X128641Y-105180D01*
X128669Y-105152D01*
X128725Y-105123D01*
X128838Y-105123D01*
X128894Y-105152D01*
X128922Y-105180D01*
X128950Y-105236D01*
X128950Y-105264D01*
X128922Y-105320D01*
X128894Y-105348D01*
X128838Y-105377D01*
X128725Y-105377D01*
X128669Y-105405D01*
X128641Y-105433D01*
X128613Y-105489D01*
X128613Y-105602D01*
X128641Y-105658D01*
X128669Y-105686D01*
X128725Y-105714D01*
X128838Y-105714D01*
X128894Y-105686D01*
X128922Y-105658D01*
X128950Y-105602D01*
X128950Y-105489D01*
X128922Y-105433D01*
X128894Y-105405D01*
X128838Y-105377D01*
X129485Y-105123D02*
X129203Y-105123D01*
X129175Y-105405D01*
X129203Y-105377D01*
X129260Y-105348D01*
X129400Y-105348D01*
X129457Y-105377D01*
X129485Y-105405D01*
X129513Y-105461D01*
X129513Y-105602D01*
X129485Y-105658D01*
X129457Y-105686D01*
X129400Y-105714D01*
X129260Y-105714D01*
X129203Y-105686D01*
X129175Y-105658D01*
X129766Y-105658D02*
X129794Y-105686D01*
X129766Y-105714D01*
X129738Y-105686D01*
X129766Y-105658D01*
X129766Y-105714D01*
X130160Y-105123D02*
X130216Y-105123D01*
X130272Y-105152D01*
X130300Y-105180D01*
X130328Y-105236D01*
X130356Y-105348D01*
X130356Y-105489D01*
X130328Y-105602D01*
X130300Y-105658D01*
X130272Y-105686D01*
X130216Y-105714D01*
X130160Y-105714D01*
X130103Y-105686D01*
X130075Y-105658D01*
X130047Y-105602D01*
X130019Y-105489D01*
X130019Y-105348D01*
X130047Y-105236D01*
X130075Y-105180D01*
X130103Y-105152D01*
X130160Y-105123D01*
X130638Y-105714D02*
X130750Y-105714D01*
X130806Y-105686D01*
X130835Y-105658D01*
X130891Y-105573D01*
X130919Y-105461D01*
X130919Y-105236D01*
X130891Y-105180D01*
X130863Y-105152D01*
X130806Y-105123D01*
X130694Y-105123D01*
X130638Y-105152D01*
X130610Y-105180D01*
X130581Y-105236D01*
X130581Y-105377D01*
X130610Y-105433D01*
X130638Y-105461D01*
X130694Y-105489D01*
X130806Y-105489D01*
X130863Y-105461D01*
X130891Y-105433D01*
X130919Y-105377D01*
X131284Y-105123D02*
X131341Y-105123D01*
X131397Y-105152D01*
X131425Y-105180D01*
X131453Y-105236D01*
X131481Y-105348D01*
X131481Y-105489D01*
X131453Y-105602D01*
X131425Y-105658D01*
X131397Y-105686D01*
X131341Y-105714D01*
X131284Y-105714D01*
X131228Y-105686D01*
X131200Y-105658D01*
X131172Y-105602D01*
X131144Y-105489D01*
X131144Y-105348D01*
X131172Y-105236D01*
X131200Y-105180D01*
X131228Y-105152D01*
X131284Y-105123D01*
X132184Y-105714D02*
X132184Y-105320D01*
X132184Y-105377D02*
X132212Y-105348D01*
X132269Y-105320D01*
X132353Y-105320D01*
X132409Y-105348D01*
X132437Y-105405D01*
X132437Y-105714D01*
X132437Y-105405D02*
X132466Y-105348D01*
X132522Y-105320D01*
X132606Y-105320D01*
X132662Y-105348D01*
X132691Y-105405D01*
X132691Y-105714D01*
X132972Y-105714D02*
X132972Y-105320D01*
X132972Y-105377D02*
X133000Y-105348D01*
X133056Y-105320D01*
X133140Y-105320D01*
X133197Y-105348D01*
X133225Y-105405D01*
X133225Y-105714D01*
X133225Y-105405D02*
X133253Y-105348D01*
X133309Y-105320D01*
X133394Y-105320D01*
X133450Y-105348D01*
X133478Y-105405D01*
X133478Y-105714D01*
X114310Y-104943D02*
X147810Y-104943D01*
X114310Y-104194D02*
X114310Y-106006D01*
X147810Y-104194D02*
X147810Y-106006D01*
X147810Y-104943D02*
X147366Y-105174D01*
X147810Y-104943D02*
X147366Y-104713D01*
X114310Y-104943D02*
X114753Y-105174D01*
X114310Y-104943D02*
X114753Y-104713D01*
G54D11*
X114360Y-104194D02*
X114360Y-92394D01*
X147760Y-104194D02*
X114360Y-104194D01*
X147760Y-92394D02*
X147760Y-104194D01*
X114360Y-92394D02*
X147760Y-92394D01*
M02*
