G04 (created by PCBNEW (22-Jun-2014 BZR 4027)-stable) date Thu 28 Jun 2018 06:15:12 PM CST*
%MOIN*%
G04 Gerber Fmt 3.4, Leading zero omitted, Abs format*
%FSLAX34Y34*%
G01*
G70*
G90*
G04 APERTURE LIST*
%ADD10C,0.00393701*%
%ADD11R,0.165354X0.0944882*%
%ADD12R,0.0748031X0.0944882*%
%ADD13R,0.0629921X0.0452756*%
%ADD14R,0.0944882X0.192913*%
%ADD15R,0.192913X0.0944882*%
%ADD16R,0.0944882X0.110236*%
%ADD17R,0.0452756X0.0629921*%
%ADD18R,0.0944882X0.0944882*%
%ADD19R,0.0551181X0.0944882*%
%ADD20R,0.070748X0.070748*%
%ADD21C,0.070748*%
%ADD22R,0.0267717X0.0748031*%
%ADD23R,0.0354331X0.0748031*%
%ADD24R,0.0748031X0.0354331*%
%ADD25R,0.0748031X0.0267717*%
G04 APERTURE END LIST*
G54D10*
G54D11*
X115830Y-98813D03*
G54D12*
X115830Y-101294D03*
X116735Y-101294D03*
X114924Y-101294D03*
G54D13*
X146014Y-99274D03*
X145265Y-99274D03*
G54D14*
X121887Y-94394D03*
X122832Y-94394D03*
X140232Y-94394D03*
X139287Y-94394D03*
X140232Y-100394D03*
X139287Y-100394D03*
X121887Y-100394D03*
X122832Y-100394D03*
G54D15*
X142760Y-96921D03*
X142760Y-97866D03*
X125360Y-96921D03*
X125360Y-97866D03*
X119360Y-96921D03*
X119360Y-97866D03*
X136760Y-96921D03*
X136760Y-97866D03*
G54D16*
X130102Y-95444D03*
X131717Y-95444D03*
G54D13*
X132034Y-94244D03*
X131285Y-94244D03*
X129785Y-94244D03*
X130534Y-94244D03*
G54D17*
X144460Y-100039D03*
X144460Y-100788D03*
X128460Y-100418D03*
X128460Y-99669D03*
G54D13*
X129787Y-96636D03*
X130536Y-96636D03*
X132516Y-101414D03*
X131767Y-101414D03*
G54D17*
X133210Y-97971D03*
X133210Y-98720D03*
G54D18*
X145260Y-101254D03*
X145260Y-100054D03*
X147260Y-100054D03*
X147260Y-101254D03*
X114860Y-94114D03*
X114860Y-92914D03*
X116860Y-92914D03*
X116860Y-94114D03*
X145260Y-94114D03*
X145260Y-92914D03*
X147260Y-92914D03*
X147260Y-94114D03*
X126760Y-103694D03*
X126760Y-102494D03*
X128760Y-102494D03*
X128760Y-103694D03*
X133260Y-103694D03*
X133260Y-102494D03*
X135260Y-102494D03*
X135260Y-103694D03*
X145260Y-103694D03*
X145260Y-102494D03*
X147260Y-102494D03*
X147260Y-103694D03*
X142260Y-103694D03*
X142260Y-102494D03*
X144260Y-102494D03*
X144260Y-103694D03*
X114860Y-103694D03*
X114860Y-102494D03*
X116860Y-102494D03*
X116860Y-103694D03*
X117860Y-103694D03*
X117860Y-102494D03*
X119860Y-102494D03*
X119860Y-103694D03*
G54D19*
X129710Y-103594D03*
X130360Y-103594D03*
X131010Y-103594D03*
X131660Y-103594D03*
X132310Y-103594D03*
G54D20*
X132480Y-93234D03*
G54D21*
X131480Y-93234D03*
X130480Y-93234D03*
X129480Y-93234D03*
G54D22*
X131352Y-97301D03*
X131155Y-97301D03*
X130958Y-97301D03*
X130761Y-97301D03*
X130564Y-97301D03*
G54D23*
X131982Y-97301D03*
G54D22*
X131745Y-97301D03*
X131548Y-97301D03*
G54D24*
X129117Y-97921D03*
G54D25*
X129117Y-98158D03*
X129117Y-98355D03*
X129117Y-98551D03*
X129117Y-98748D03*
X129117Y-98945D03*
X129117Y-99142D03*
X129117Y-99339D03*
G54D23*
X129737Y-100786D03*
G54D22*
X129974Y-100786D03*
X130171Y-100786D03*
X130367Y-100786D03*
X130564Y-100786D03*
X130761Y-100786D03*
X130958Y-100786D03*
X131155Y-100786D03*
G54D24*
X132602Y-100166D03*
G54D25*
X132602Y-99929D03*
X132602Y-99732D03*
X132602Y-99536D03*
X132602Y-99339D03*
X132602Y-99142D03*
X132602Y-98945D03*
X132602Y-98748D03*
G54D22*
X130367Y-97301D03*
X130171Y-97301D03*
X129974Y-97301D03*
G54D23*
X129737Y-97301D03*
G54D25*
X129117Y-99536D03*
X129117Y-99732D03*
X129117Y-99929D03*
G54D24*
X129117Y-100166D03*
G54D22*
X131352Y-100786D03*
X131548Y-100786D03*
X131745Y-100786D03*
G54D23*
X131982Y-100786D03*
G54D25*
X132602Y-98551D03*
X132602Y-98355D03*
X132602Y-98158D03*
G54D24*
X132602Y-97921D03*
G54D17*
X117570Y-101278D03*
X117570Y-100529D03*
M02*
