G04 (created by PCBNEW (22-Jun-2014 BZR 4027)-stable) date Thu 28 Jun 2018 06:15:12 PM CST*
%MOIN*%
G04 Gerber Fmt 3.4, Leading zero omitted, Abs format*
%FSLAX34Y34*%
G01*
G70*
G90*
G04 APERTURE LIST*
%ADD10C,0.00393701*%
%ADD11R,0.055X0.055*%
%ADD12C,0.055*%
%ADD13C,0.023622*%
%ADD14C,0.00708661*%
%ADD15C,0.01*%
G04 APERTURE END LIST*
G54D10*
G54D11*
X132480Y-93234D03*
G54D12*
X131480Y-93234D03*
X130480Y-93234D03*
X129480Y-93234D03*
G54D13*
X133546Y-97926D03*
X129652Y-99546D03*
X115834Y-100174D03*
X129652Y-100176D03*
X131980Y-100168D03*
X129710Y-103594D03*
X117234Y-101282D03*
X115862Y-103694D03*
X114932Y-100576D03*
X127742Y-103694D03*
X134280Y-103690D03*
X146272Y-103694D03*
X146290Y-101248D03*
X144034Y-96926D03*
X144026Y-100788D03*
X144030Y-94110D03*
X121876Y-96204D03*
X125364Y-96212D03*
X130516Y-96210D03*
X133860Y-100156D03*
X131488Y-98408D03*
X131352Y-102689D03*
X117976Y-100534D03*
G54D14*
X131980Y-100168D02*
X133294Y-100168D01*
X133546Y-99916D02*
X133546Y-97926D01*
X133294Y-100168D02*
X133546Y-99916D01*
X129652Y-99546D02*
X129652Y-100176D01*
X129660Y-100168D02*
X115840Y-100168D01*
X115840Y-100168D02*
X115834Y-100174D01*
X129660Y-100168D02*
X129660Y-100168D01*
X129660Y-100168D02*
X131980Y-100168D01*
X129652Y-100176D02*
X129660Y-100168D01*
X117234Y-101282D02*
X127398Y-101282D01*
X127398Y-101282D02*
X129710Y-103594D01*
X114932Y-100576D02*
X114932Y-102764D01*
X114932Y-102764D02*
X115862Y-103694D01*
X134280Y-103690D02*
X133986Y-103984D01*
X128032Y-103984D02*
X133986Y-103984D01*
X128032Y-103984D02*
X127742Y-103694D01*
X146290Y-101248D02*
X146290Y-103676D01*
X146290Y-103676D02*
X146272Y-103694D01*
X144034Y-96926D02*
X144030Y-96926D01*
X144030Y-96926D02*
X144034Y-96926D01*
X144034Y-96926D02*
X144030Y-96926D01*
X144030Y-94110D02*
X144030Y-96926D01*
X144030Y-96926D02*
X144030Y-100784D01*
X144030Y-100784D02*
X144026Y-100788D01*
X125364Y-96212D02*
X121884Y-96212D01*
X121884Y-96212D02*
X121876Y-96204D01*
X130516Y-96210D02*
X125366Y-96210D01*
X125366Y-96210D02*
X125364Y-96212D01*
X130480Y-96174D02*
X130480Y-93234D01*
X130516Y-96210D02*
X130480Y-96174D01*
X133870Y-94624D02*
X132480Y-93234D01*
X133870Y-100146D02*
X133870Y-94624D01*
X133860Y-100156D02*
X133870Y-100146D01*
X131480Y-98400D02*
X131480Y-93234D01*
X131488Y-98408D02*
X131480Y-98400D01*
X129196Y-100534D02*
X117976Y-100534D01*
X129196Y-100534D02*
X131352Y-102689D01*
G54D10*
G36*
X147609Y-104043D02*
X147080Y-104043D01*
X147080Y-98479D01*
X147080Y-98450D01*
X147080Y-98420D01*
X147080Y-98420D01*
X147080Y-98420D01*
X147080Y-98420D01*
X147058Y-98312D01*
X147058Y-98312D01*
X147036Y-98258D01*
X146974Y-98166D01*
X146933Y-98124D01*
X146932Y-98124D01*
X146842Y-98063D01*
X146841Y-98063D01*
X146787Y-98041D01*
X146679Y-98019D01*
X146620Y-98019D01*
X146620Y-98019D01*
X146512Y-98041D01*
X146512Y-98041D01*
X146458Y-98063D01*
X146366Y-98125D01*
X146324Y-98166D01*
X146324Y-98167D01*
X146263Y-98257D01*
X146263Y-98258D01*
X146241Y-98312D01*
X146219Y-98420D01*
X146219Y-98450D01*
X146219Y-98479D01*
X146241Y-98587D01*
X146263Y-98641D01*
X146263Y-98642D01*
X146324Y-98732D01*
X146324Y-98733D01*
X146366Y-98774D01*
X146458Y-98836D01*
X146512Y-98858D01*
X146512Y-98858D01*
X146620Y-98880D01*
X146620Y-98880D01*
X146679Y-98880D01*
X146787Y-98858D01*
X146841Y-98836D01*
X146842Y-98836D01*
X146932Y-98775D01*
X146933Y-98775D01*
X146974Y-98733D01*
X147036Y-98641D01*
X147058Y-98587D01*
X147058Y-98587D01*
X147080Y-98479D01*
X147080Y-98479D01*
X147080Y-98479D01*
X147080Y-98479D01*
X147080Y-104043D01*
X143880Y-104043D01*
X143880Y-101329D01*
X143880Y-101300D01*
X143880Y-101270D01*
X143880Y-101270D01*
X143880Y-101270D01*
X143880Y-101270D01*
X143858Y-101162D01*
X143858Y-101162D01*
X143836Y-101108D01*
X143830Y-101098D01*
X143830Y-93779D01*
X143830Y-93750D01*
X143830Y-93720D01*
X143830Y-93720D01*
X143830Y-93720D01*
X143830Y-93720D01*
X143808Y-93612D01*
X143808Y-93612D01*
X143786Y-93558D01*
X143724Y-93466D01*
X143683Y-93424D01*
X143682Y-93424D01*
X143592Y-93363D01*
X143591Y-93363D01*
X143537Y-93341D01*
X143429Y-93319D01*
X143370Y-93319D01*
X143370Y-93319D01*
X143262Y-93341D01*
X143262Y-93341D01*
X143208Y-93363D01*
X143116Y-93425D01*
X143074Y-93466D01*
X143074Y-93467D01*
X143013Y-93557D01*
X143013Y-93558D01*
X142991Y-93612D01*
X142969Y-93720D01*
X142969Y-93750D01*
X142969Y-93779D01*
X142991Y-93887D01*
X143013Y-93941D01*
X143013Y-93942D01*
X143074Y-94032D01*
X143074Y-94033D01*
X143116Y-94074D01*
X143208Y-94136D01*
X143262Y-94158D01*
X143262Y-94158D01*
X143370Y-94180D01*
X143370Y-94180D01*
X143429Y-94180D01*
X143537Y-94158D01*
X143591Y-94136D01*
X143592Y-94136D01*
X143682Y-94075D01*
X143683Y-94075D01*
X143724Y-94033D01*
X143786Y-93941D01*
X143808Y-93887D01*
X143808Y-93887D01*
X143830Y-93779D01*
X143830Y-93779D01*
X143830Y-93779D01*
X143830Y-93779D01*
X143830Y-101098D01*
X143774Y-101016D01*
X143733Y-100974D01*
X143732Y-100974D01*
X143642Y-100913D01*
X143641Y-100913D01*
X143587Y-100891D01*
X143479Y-100869D01*
X143420Y-100869D01*
X143420Y-100869D01*
X143312Y-100891D01*
X143312Y-100891D01*
X143258Y-100913D01*
X143166Y-100975D01*
X143124Y-101016D01*
X143124Y-101017D01*
X143063Y-101107D01*
X143063Y-101108D01*
X143041Y-101162D01*
X143019Y-101270D01*
X143019Y-101300D01*
X143019Y-101329D01*
X143041Y-101437D01*
X143063Y-101491D01*
X143063Y-101492D01*
X143124Y-101582D01*
X143124Y-101583D01*
X143166Y-101624D01*
X143258Y-101686D01*
X143312Y-101708D01*
X143312Y-101708D01*
X143420Y-101730D01*
X143420Y-101730D01*
X143479Y-101730D01*
X143587Y-101708D01*
X143641Y-101686D01*
X143642Y-101686D01*
X143732Y-101625D01*
X143733Y-101625D01*
X143774Y-101583D01*
X143836Y-101491D01*
X143858Y-101437D01*
X143858Y-101437D01*
X143880Y-101329D01*
X143880Y-101329D01*
X143880Y-101329D01*
X143880Y-101329D01*
X143880Y-104043D01*
X141555Y-104043D01*
X141582Y-104025D01*
X141583Y-104025D01*
X141624Y-103983D01*
X141686Y-103891D01*
X141708Y-103837D01*
X141708Y-103837D01*
X141730Y-103729D01*
X141730Y-103729D01*
X141730Y-103729D01*
X141730Y-103729D01*
X141730Y-103700D01*
X141730Y-103670D01*
X141730Y-103670D01*
X141730Y-103670D01*
X141730Y-103670D01*
X141708Y-103562D01*
X141708Y-103562D01*
X141686Y-103508D01*
X141624Y-103416D01*
X141583Y-103374D01*
X141582Y-103374D01*
X141492Y-103313D01*
X141491Y-103313D01*
X141437Y-103291D01*
X141329Y-103269D01*
X141270Y-103269D01*
X141270Y-103269D01*
X141162Y-103291D01*
X141162Y-103291D01*
X141108Y-103313D01*
X141016Y-103375D01*
X140974Y-103416D01*
X140974Y-103417D01*
X140913Y-103507D01*
X140913Y-103508D01*
X140891Y-103562D01*
X140869Y-103670D01*
X140869Y-103700D01*
X140869Y-103729D01*
X140891Y-103837D01*
X140913Y-103891D01*
X140913Y-103892D01*
X140974Y-103982D01*
X140974Y-103983D01*
X141016Y-104024D01*
X141044Y-104043D01*
X136374Y-104043D01*
X136391Y-104036D01*
X136392Y-104036D01*
X136482Y-103975D01*
X136483Y-103975D01*
X136524Y-103933D01*
X136586Y-103841D01*
X136608Y-103787D01*
X136608Y-103787D01*
X136630Y-103679D01*
X136630Y-103679D01*
X136630Y-103679D01*
X136630Y-103679D01*
X136630Y-103650D01*
X136630Y-103620D01*
X136630Y-103620D01*
X136630Y-103620D01*
X136630Y-103620D01*
X136608Y-103512D01*
X136608Y-103512D01*
X136586Y-103458D01*
X136530Y-103374D01*
X136530Y-101029D01*
X136530Y-101000D01*
X136530Y-100970D01*
X136530Y-93779D01*
X136530Y-93750D01*
X136530Y-93720D01*
X136530Y-93720D01*
X136530Y-93720D01*
X136530Y-93720D01*
X136508Y-93612D01*
X136508Y-93612D01*
X136486Y-93558D01*
X136424Y-93466D01*
X136383Y-93424D01*
X136382Y-93424D01*
X136292Y-93363D01*
X136291Y-93363D01*
X136237Y-93341D01*
X136129Y-93319D01*
X136070Y-93319D01*
X136070Y-93319D01*
X135962Y-93341D01*
X135962Y-93341D01*
X135908Y-93363D01*
X135816Y-93425D01*
X135774Y-93466D01*
X135774Y-93467D01*
X135713Y-93557D01*
X135713Y-93558D01*
X135691Y-93612D01*
X135669Y-93720D01*
X135669Y-93750D01*
X135669Y-93779D01*
X135691Y-93887D01*
X135713Y-93941D01*
X135713Y-93942D01*
X135774Y-94032D01*
X135774Y-94033D01*
X135816Y-94074D01*
X135908Y-94136D01*
X135962Y-94158D01*
X135962Y-94158D01*
X136070Y-94180D01*
X136070Y-94180D01*
X136129Y-94180D01*
X136237Y-94158D01*
X136291Y-94136D01*
X136292Y-94136D01*
X136382Y-94075D01*
X136383Y-94075D01*
X136424Y-94033D01*
X136486Y-93941D01*
X136508Y-93887D01*
X136508Y-93887D01*
X136530Y-93779D01*
X136530Y-93779D01*
X136530Y-93779D01*
X136530Y-93779D01*
X136530Y-100970D01*
X136530Y-100970D01*
X136530Y-100970D01*
X136530Y-100970D01*
X136508Y-100862D01*
X136508Y-100862D01*
X136486Y-100808D01*
X136424Y-100716D01*
X136383Y-100674D01*
X136382Y-100674D01*
X136292Y-100613D01*
X136291Y-100613D01*
X136237Y-100591D01*
X136129Y-100569D01*
X136070Y-100569D01*
X136070Y-100569D01*
X135962Y-100591D01*
X135962Y-100591D01*
X135908Y-100613D01*
X135816Y-100675D01*
X135774Y-100716D01*
X135774Y-100717D01*
X135713Y-100807D01*
X135713Y-100808D01*
X135691Y-100862D01*
X135669Y-100970D01*
X135669Y-101000D01*
X135669Y-101029D01*
X135691Y-101137D01*
X135713Y-101191D01*
X135713Y-101192D01*
X135774Y-101282D01*
X135774Y-101283D01*
X135816Y-101324D01*
X135908Y-101386D01*
X135962Y-101408D01*
X135962Y-101408D01*
X136070Y-101430D01*
X136070Y-101430D01*
X136129Y-101430D01*
X136237Y-101408D01*
X136291Y-101386D01*
X136292Y-101386D01*
X136382Y-101325D01*
X136383Y-101325D01*
X136424Y-101283D01*
X136486Y-101191D01*
X136508Y-101137D01*
X136508Y-101137D01*
X136530Y-101029D01*
X136530Y-101029D01*
X136530Y-101029D01*
X136530Y-101029D01*
X136530Y-103374D01*
X136524Y-103366D01*
X136483Y-103324D01*
X136482Y-103324D01*
X136392Y-103263D01*
X136391Y-103263D01*
X136337Y-103241D01*
X136229Y-103219D01*
X136170Y-103219D01*
X136170Y-103219D01*
X136062Y-103241D01*
X136062Y-103241D01*
X136008Y-103263D01*
X135916Y-103325D01*
X135874Y-103366D01*
X135874Y-103367D01*
X135813Y-103457D01*
X135813Y-103458D01*
X135791Y-103512D01*
X135769Y-103620D01*
X135769Y-103650D01*
X135769Y-103679D01*
X135791Y-103787D01*
X135813Y-103841D01*
X135813Y-103842D01*
X135874Y-103932D01*
X135874Y-103933D01*
X135916Y-103974D01*
X136008Y-104036D01*
X136025Y-104043D01*
X134099Y-104043D01*
X134099Y-100108D01*
X134062Y-100020D01*
X134026Y-99984D01*
X134026Y-94624D01*
X134016Y-94574D01*
X134014Y-94564D01*
X134014Y-94564D01*
X133980Y-94513D01*
X133980Y-94513D01*
X132875Y-93408D01*
X132875Y-92935D01*
X132857Y-92890D01*
X132823Y-92856D01*
X132779Y-92838D01*
X132731Y-92838D01*
X132181Y-92838D01*
X132136Y-92856D01*
X132102Y-92890D01*
X132084Y-92934D01*
X132084Y-92982D01*
X132084Y-93532D01*
X132102Y-93577D01*
X132136Y-93611D01*
X132180Y-93629D01*
X132228Y-93629D01*
X132654Y-93629D01*
X133713Y-94688D01*
X133713Y-97755D01*
X133681Y-97723D01*
X133593Y-97687D01*
X133498Y-97686D01*
X133410Y-97723D01*
X133343Y-97790D01*
X133307Y-97878D01*
X133306Y-97973D01*
X133343Y-98061D01*
X133389Y-98107D01*
X133389Y-99851D01*
X133229Y-100011D01*
X132161Y-100011D01*
X132115Y-99965D01*
X132027Y-99929D01*
X131932Y-99928D01*
X131875Y-99952D01*
X131875Y-93155D01*
X131815Y-93010D01*
X131704Y-92898D01*
X131559Y-92838D01*
X131401Y-92838D01*
X131256Y-92898D01*
X131144Y-93009D01*
X131084Y-93154D01*
X131084Y-93312D01*
X131144Y-93457D01*
X131255Y-93569D01*
X131323Y-93597D01*
X131323Y-98234D01*
X131285Y-98272D01*
X131249Y-98360D01*
X131248Y-98455D01*
X131285Y-98543D01*
X131352Y-98610D01*
X131440Y-98646D01*
X131535Y-98647D01*
X131623Y-98610D01*
X131690Y-98543D01*
X131726Y-98455D01*
X131727Y-98360D01*
X131690Y-98272D01*
X131636Y-98218D01*
X131636Y-93597D01*
X131703Y-93569D01*
X131815Y-93458D01*
X131875Y-93313D01*
X131875Y-93155D01*
X131875Y-99952D01*
X131844Y-99965D01*
X131798Y-100011D01*
X131009Y-100011D01*
X131009Y-93309D01*
X130998Y-93101D01*
X130940Y-92961D01*
X130847Y-92936D01*
X130777Y-93007D01*
X130777Y-92866D01*
X130752Y-92773D01*
X130555Y-92704D01*
X130347Y-92715D01*
X130207Y-92773D01*
X130182Y-92866D01*
X130480Y-93163D01*
X130777Y-92866D01*
X130777Y-93007D01*
X130550Y-93234D01*
X130847Y-93531D01*
X130940Y-93506D01*
X131009Y-93309D01*
X131009Y-100011D01*
X130777Y-100011D01*
X130777Y-93601D01*
X130480Y-93304D01*
X130409Y-93375D01*
X130409Y-93234D01*
X130112Y-92936D01*
X130019Y-92961D01*
X129950Y-93158D01*
X129961Y-93366D01*
X130019Y-93506D01*
X130112Y-93531D01*
X130409Y-93234D01*
X130409Y-93375D01*
X130182Y-93601D01*
X130207Y-93694D01*
X130404Y-93763D01*
X130612Y-93752D01*
X130752Y-93694D01*
X130777Y-93601D01*
X130777Y-100011D01*
X129825Y-100011D01*
X129808Y-99994D01*
X129808Y-99727D01*
X129854Y-99681D01*
X129890Y-99593D01*
X129891Y-99498D01*
X129875Y-99462D01*
X129875Y-93155D01*
X129815Y-93010D01*
X129704Y-92898D01*
X129559Y-92838D01*
X129401Y-92838D01*
X129256Y-92898D01*
X129144Y-93009D01*
X129084Y-93154D01*
X129084Y-93312D01*
X129144Y-93457D01*
X129255Y-93569D01*
X129400Y-93629D01*
X129558Y-93629D01*
X129703Y-93569D01*
X129815Y-93458D01*
X129875Y-93313D01*
X129875Y-93155D01*
X129875Y-99462D01*
X129854Y-99410D01*
X129787Y-99343D01*
X129699Y-99307D01*
X129604Y-99306D01*
X129516Y-99343D01*
X129449Y-99410D01*
X129413Y-99498D01*
X129412Y-99593D01*
X129449Y-99681D01*
X129495Y-99727D01*
X129495Y-99994D01*
X129478Y-100011D01*
X126430Y-100011D01*
X126430Y-93779D01*
X126430Y-93750D01*
X126430Y-93720D01*
X126430Y-93720D01*
X126430Y-93720D01*
X126430Y-93720D01*
X126408Y-93612D01*
X126408Y-93612D01*
X126386Y-93558D01*
X126324Y-93466D01*
X126283Y-93424D01*
X126282Y-93424D01*
X126192Y-93363D01*
X126191Y-93363D01*
X126137Y-93341D01*
X126029Y-93319D01*
X125970Y-93319D01*
X125970Y-93319D01*
X125862Y-93341D01*
X125862Y-93341D01*
X125808Y-93363D01*
X125716Y-93425D01*
X125674Y-93466D01*
X125674Y-93467D01*
X125613Y-93557D01*
X125613Y-93558D01*
X125591Y-93612D01*
X125569Y-93720D01*
X125569Y-93750D01*
X125569Y-93779D01*
X125591Y-93887D01*
X125613Y-93941D01*
X125613Y-93942D01*
X125674Y-94032D01*
X125674Y-94033D01*
X125716Y-94074D01*
X125808Y-94136D01*
X125862Y-94158D01*
X125862Y-94158D01*
X125970Y-94180D01*
X125970Y-94180D01*
X126029Y-94180D01*
X126137Y-94158D01*
X126191Y-94136D01*
X126192Y-94136D01*
X126282Y-94075D01*
X126283Y-94075D01*
X126324Y-94033D01*
X126386Y-93941D01*
X126408Y-93887D01*
X126408Y-93887D01*
X126430Y-93779D01*
X126430Y-93779D01*
X126430Y-93779D01*
X126430Y-93779D01*
X126430Y-100011D01*
X119130Y-100011D01*
X119130Y-93779D01*
X119130Y-93750D01*
X119130Y-93720D01*
X119130Y-93720D01*
X119130Y-93720D01*
X119130Y-93720D01*
X119108Y-93612D01*
X119108Y-93612D01*
X119086Y-93558D01*
X119024Y-93466D01*
X118983Y-93424D01*
X118982Y-93424D01*
X118892Y-93363D01*
X118891Y-93363D01*
X118837Y-93341D01*
X118729Y-93319D01*
X118670Y-93319D01*
X118670Y-93319D01*
X118562Y-93341D01*
X118562Y-93341D01*
X118508Y-93363D01*
X118416Y-93425D01*
X118374Y-93466D01*
X118374Y-93467D01*
X118313Y-93557D01*
X118313Y-93558D01*
X118291Y-93612D01*
X118269Y-93720D01*
X118269Y-93750D01*
X118269Y-93779D01*
X118291Y-93887D01*
X118313Y-93941D01*
X118313Y-93942D01*
X118374Y-94032D01*
X118374Y-94033D01*
X118416Y-94074D01*
X118508Y-94136D01*
X118562Y-94158D01*
X118562Y-94158D01*
X118670Y-94180D01*
X118670Y-94180D01*
X118729Y-94180D01*
X118837Y-94158D01*
X118891Y-94136D01*
X118892Y-94136D01*
X118982Y-94075D01*
X118983Y-94075D01*
X119024Y-94033D01*
X119086Y-93941D01*
X119108Y-93887D01*
X119108Y-93887D01*
X119130Y-93779D01*
X119130Y-93779D01*
X119130Y-93779D01*
X119130Y-93779D01*
X119130Y-100011D01*
X116009Y-100011D01*
X115969Y-99971D01*
X115881Y-99935D01*
X115786Y-99934D01*
X115698Y-99971D01*
X115631Y-100038D01*
X115595Y-100126D01*
X115594Y-100221D01*
X115631Y-100309D01*
X115698Y-100376D01*
X115786Y-100412D01*
X115881Y-100413D01*
X115969Y-100376D01*
X116021Y-100324D01*
X117857Y-100324D01*
X117840Y-100331D01*
X117773Y-100398D01*
X117737Y-100486D01*
X117736Y-100581D01*
X117773Y-100669D01*
X117840Y-100736D01*
X117928Y-100772D01*
X118023Y-100773D01*
X118111Y-100736D01*
X118157Y-100690D01*
X118375Y-100690D01*
X118363Y-100707D01*
X118363Y-100708D01*
X118341Y-100762D01*
X118319Y-100870D01*
X118319Y-100900D01*
X118319Y-100929D01*
X118341Y-101037D01*
X118363Y-101091D01*
X118363Y-101092D01*
X118386Y-101125D01*
X117415Y-101125D01*
X117369Y-101079D01*
X117281Y-101043D01*
X117186Y-101042D01*
X117098Y-101079D01*
X117031Y-101146D01*
X116995Y-101234D01*
X116994Y-101329D01*
X117031Y-101417D01*
X117098Y-101484D01*
X117186Y-101520D01*
X117281Y-101521D01*
X117369Y-101484D01*
X117415Y-101438D01*
X127333Y-101438D01*
X129471Y-103576D01*
X129470Y-103641D01*
X129507Y-103729D01*
X129574Y-103796D01*
X129662Y-103832D01*
X129757Y-103833D01*
X129845Y-103796D01*
X129912Y-103729D01*
X129948Y-103641D01*
X129949Y-103546D01*
X129912Y-103458D01*
X129845Y-103391D01*
X129757Y-103355D01*
X129692Y-103355D01*
X127508Y-101171D01*
X127457Y-101137D01*
X127398Y-101125D01*
X126413Y-101125D01*
X126436Y-101091D01*
X126458Y-101037D01*
X126458Y-101037D01*
X126480Y-100929D01*
X126480Y-100929D01*
X126480Y-100929D01*
X126480Y-100929D01*
X126480Y-100900D01*
X126480Y-100870D01*
X126480Y-100870D01*
X126480Y-100870D01*
X126480Y-100870D01*
X126458Y-100762D01*
X126458Y-100762D01*
X126436Y-100708D01*
X126424Y-100690D01*
X129131Y-100690D01*
X131113Y-102671D01*
X131113Y-102737D01*
X131149Y-102825D01*
X131216Y-102892D01*
X131304Y-102928D01*
X131399Y-102928D01*
X131487Y-102892D01*
X131554Y-102825D01*
X131591Y-102737D01*
X131591Y-102642D01*
X131554Y-102554D01*
X131487Y-102487D01*
X131399Y-102450D01*
X131334Y-102450D01*
X129306Y-100423D01*
X129256Y-100389D01*
X129196Y-100377D01*
X118157Y-100377D01*
X118111Y-100331D01*
X118094Y-100324D01*
X129462Y-100324D01*
X129516Y-100378D01*
X129604Y-100414D01*
X129699Y-100415D01*
X129787Y-100378D01*
X129841Y-100324D01*
X131798Y-100324D01*
X131844Y-100370D01*
X131932Y-100406D01*
X132027Y-100407D01*
X132115Y-100370D01*
X132161Y-100324D01*
X133294Y-100324D01*
X133294Y-100324D01*
X133353Y-100312D01*
X133404Y-100278D01*
X133653Y-100029D01*
X133621Y-100108D01*
X133620Y-100203D01*
X133657Y-100291D01*
X133724Y-100358D01*
X133812Y-100394D01*
X133907Y-100395D01*
X133995Y-100358D01*
X134062Y-100291D01*
X134098Y-100203D01*
X134099Y-100108D01*
X134099Y-104043D01*
X125924Y-104043D01*
X125941Y-104036D01*
X125942Y-104036D01*
X126032Y-103975D01*
X126033Y-103975D01*
X126074Y-103933D01*
X126136Y-103841D01*
X126158Y-103787D01*
X126158Y-103787D01*
X126180Y-103679D01*
X126180Y-103679D01*
X126180Y-103679D01*
X126180Y-103679D01*
X126180Y-103650D01*
X126180Y-103620D01*
X126180Y-103620D01*
X126180Y-103620D01*
X126180Y-103620D01*
X126158Y-103512D01*
X126158Y-103512D01*
X126136Y-103458D01*
X126074Y-103366D01*
X126033Y-103324D01*
X126032Y-103324D01*
X125942Y-103263D01*
X125941Y-103263D01*
X125887Y-103241D01*
X125779Y-103219D01*
X125720Y-103219D01*
X125720Y-103219D01*
X125612Y-103241D01*
X125612Y-103241D01*
X125558Y-103263D01*
X125466Y-103325D01*
X125424Y-103366D01*
X125424Y-103367D01*
X125363Y-103457D01*
X125363Y-103458D01*
X125341Y-103512D01*
X125319Y-103620D01*
X125319Y-103650D01*
X125319Y-103679D01*
X125341Y-103787D01*
X125363Y-103841D01*
X125363Y-103842D01*
X125424Y-103932D01*
X125424Y-103933D01*
X125466Y-103974D01*
X125558Y-104036D01*
X125575Y-104043D01*
X120974Y-104043D01*
X120991Y-104036D01*
X120992Y-104036D01*
X121082Y-103975D01*
X121083Y-103975D01*
X121124Y-103933D01*
X121186Y-103841D01*
X121208Y-103787D01*
X121208Y-103787D01*
X121230Y-103679D01*
X121230Y-103679D01*
X121230Y-103679D01*
X121230Y-103679D01*
X121230Y-103650D01*
X121230Y-103620D01*
X121230Y-103620D01*
X121230Y-103620D01*
X121230Y-103620D01*
X121208Y-103512D01*
X121208Y-103512D01*
X121186Y-103458D01*
X121124Y-103366D01*
X121083Y-103324D01*
X121082Y-103324D01*
X120992Y-103263D01*
X120991Y-103263D01*
X120937Y-103241D01*
X120829Y-103219D01*
X120770Y-103219D01*
X120770Y-103219D01*
X120662Y-103241D01*
X120662Y-103241D01*
X120608Y-103263D01*
X120516Y-103325D01*
X120474Y-103366D01*
X120474Y-103367D01*
X120413Y-103457D01*
X120413Y-103458D01*
X120391Y-103512D01*
X120369Y-103620D01*
X120369Y-103650D01*
X120369Y-103679D01*
X120391Y-103787D01*
X120413Y-103841D01*
X120413Y-103842D01*
X120474Y-103932D01*
X120474Y-103933D01*
X120516Y-103974D01*
X120608Y-104036D01*
X120625Y-104043D01*
X114510Y-104043D01*
X114510Y-96711D01*
X114524Y-96732D01*
X114524Y-96733D01*
X114566Y-96774D01*
X114658Y-96836D01*
X114712Y-96858D01*
X114712Y-96858D01*
X114820Y-96880D01*
X114820Y-96880D01*
X114879Y-96880D01*
X114987Y-96858D01*
X115041Y-96836D01*
X115042Y-96836D01*
X115132Y-96775D01*
X115133Y-96775D01*
X115174Y-96733D01*
X115236Y-96641D01*
X115258Y-96587D01*
X115258Y-96587D01*
X115280Y-96479D01*
X115280Y-96479D01*
X115280Y-96479D01*
X115280Y-96479D01*
X115280Y-96450D01*
X115280Y-96420D01*
X115280Y-96420D01*
X115280Y-96420D01*
X115280Y-96420D01*
X115258Y-96312D01*
X115258Y-96312D01*
X115236Y-96258D01*
X115174Y-96166D01*
X115133Y-96124D01*
X115132Y-96124D01*
X115042Y-96063D01*
X115041Y-96063D01*
X114987Y-96041D01*
X114879Y-96019D01*
X114820Y-96019D01*
X114820Y-96019D01*
X114712Y-96041D01*
X114712Y-96041D01*
X114658Y-96063D01*
X114566Y-96125D01*
X114524Y-96166D01*
X114524Y-96167D01*
X114510Y-96188D01*
X114510Y-92544D01*
X147609Y-92544D01*
X147609Y-94818D01*
X147574Y-94766D01*
X147533Y-94724D01*
X147532Y-94724D01*
X147442Y-94663D01*
X147441Y-94663D01*
X147387Y-94641D01*
X147279Y-94619D01*
X147220Y-94619D01*
X147220Y-94619D01*
X147112Y-94641D01*
X147112Y-94641D01*
X147058Y-94663D01*
X146966Y-94725D01*
X146924Y-94766D01*
X146924Y-94767D01*
X146863Y-94857D01*
X146863Y-94858D01*
X146841Y-94912D01*
X146819Y-95020D01*
X146819Y-95050D01*
X146819Y-95079D01*
X146841Y-95187D01*
X146863Y-95241D01*
X146863Y-95242D01*
X146924Y-95332D01*
X146924Y-95333D01*
X146966Y-95374D01*
X147058Y-95436D01*
X147112Y-95458D01*
X147112Y-95458D01*
X147220Y-95480D01*
X147220Y-95480D01*
X147279Y-95480D01*
X147387Y-95458D01*
X147441Y-95436D01*
X147442Y-95436D01*
X147532Y-95375D01*
X147533Y-95375D01*
X147574Y-95333D01*
X147609Y-95281D01*
X147609Y-104043D01*
X147609Y-104043D01*
G37*
G54D15*
X147609Y-104043D02*
X147080Y-104043D01*
X147080Y-98479D01*
X147080Y-98450D01*
X147080Y-98420D01*
X147080Y-98420D01*
X147080Y-98420D01*
X147080Y-98420D01*
X147058Y-98312D01*
X147058Y-98312D01*
X147036Y-98258D01*
X146974Y-98166D01*
X146933Y-98124D01*
X146932Y-98124D01*
X146842Y-98063D01*
X146841Y-98063D01*
X146787Y-98041D01*
X146679Y-98019D01*
X146620Y-98019D01*
X146620Y-98019D01*
X146512Y-98041D01*
X146512Y-98041D01*
X146458Y-98063D01*
X146366Y-98125D01*
X146324Y-98166D01*
X146324Y-98167D01*
X146263Y-98257D01*
X146263Y-98258D01*
X146241Y-98312D01*
X146219Y-98420D01*
X146219Y-98450D01*
X146219Y-98479D01*
X146241Y-98587D01*
X146263Y-98641D01*
X146263Y-98642D01*
X146324Y-98732D01*
X146324Y-98733D01*
X146366Y-98774D01*
X146458Y-98836D01*
X146512Y-98858D01*
X146512Y-98858D01*
X146620Y-98880D01*
X146620Y-98880D01*
X146679Y-98880D01*
X146787Y-98858D01*
X146841Y-98836D01*
X146842Y-98836D01*
X146932Y-98775D01*
X146933Y-98775D01*
X146974Y-98733D01*
X147036Y-98641D01*
X147058Y-98587D01*
X147058Y-98587D01*
X147080Y-98479D01*
X147080Y-98479D01*
X147080Y-98479D01*
X147080Y-98479D01*
X147080Y-104043D01*
X143880Y-104043D01*
X143880Y-101329D01*
X143880Y-101300D01*
X143880Y-101270D01*
X143880Y-101270D01*
X143880Y-101270D01*
X143880Y-101270D01*
X143858Y-101162D01*
X143858Y-101162D01*
X143836Y-101108D01*
X143830Y-101098D01*
X143830Y-93779D01*
X143830Y-93750D01*
X143830Y-93720D01*
X143830Y-93720D01*
X143830Y-93720D01*
X143830Y-93720D01*
X143808Y-93612D01*
X143808Y-93612D01*
X143786Y-93558D01*
X143724Y-93466D01*
X143683Y-93424D01*
X143682Y-93424D01*
X143592Y-93363D01*
X143591Y-93363D01*
X143537Y-93341D01*
X143429Y-93319D01*
X143370Y-93319D01*
X143370Y-93319D01*
X143262Y-93341D01*
X143262Y-93341D01*
X143208Y-93363D01*
X143116Y-93425D01*
X143074Y-93466D01*
X143074Y-93467D01*
X143013Y-93557D01*
X143013Y-93558D01*
X142991Y-93612D01*
X142969Y-93720D01*
X142969Y-93750D01*
X142969Y-93779D01*
X142991Y-93887D01*
X143013Y-93941D01*
X143013Y-93942D01*
X143074Y-94032D01*
X143074Y-94033D01*
X143116Y-94074D01*
X143208Y-94136D01*
X143262Y-94158D01*
X143262Y-94158D01*
X143370Y-94180D01*
X143370Y-94180D01*
X143429Y-94180D01*
X143537Y-94158D01*
X143591Y-94136D01*
X143592Y-94136D01*
X143682Y-94075D01*
X143683Y-94075D01*
X143724Y-94033D01*
X143786Y-93941D01*
X143808Y-93887D01*
X143808Y-93887D01*
X143830Y-93779D01*
X143830Y-93779D01*
X143830Y-93779D01*
X143830Y-93779D01*
X143830Y-101098D01*
X143774Y-101016D01*
X143733Y-100974D01*
X143732Y-100974D01*
X143642Y-100913D01*
X143641Y-100913D01*
X143587Y-100891D01*
X143479Y-100869D01*
X143420Y-100869D01*
X143420Y-100869D01*
X143312Y-100891D01*
X143312Y-100891D01*
X143258Y-100913D01*
X143166Y-100975D01*
X143124Y-101016D01*
X143124Y-101017D01*
X143063Y-101107D01*
X143063Y-101108D01*
X143041Y-101162D01*
X143019Y-101270D01*
X143019Y-101300D01*
X143019Y-101329D01*
X143041Y-101437D01*
X143063Y-101491D01*
X143063Y-101492D01*
X143124Y-101582D01*
X143124Y-101583D01*
X143166Y-101624D01*
X143258Y-101686D01*
X143312Y-101708D01*
X143312Y-101708D01*
X143420Y-101730D01*
X143420Y-101730D01*
X143479Y-101730D01*
X143587Y-101708D01*
X143641Y-101686D01*
X143642Y-101686D01*
X143732Y-101625D01*
X143733Y-101625D01*
X143774Y-101583D01*
X143836Y-101491D01*
X143858Y-101437D01*
X143858Y-101437D01*
X143880Y-101329D01*
X143880Y-101329D01*
X143880Y-101329D01*
X143880Y-101329D01*
X143880Y-104043D01*
X141555Y-104043D01*
X141582Y-104025D01*
X141583Y-104025D01*
X141624Y-103983D01*
X141686Y-103891D01*
X141708Y-103837D01*
X141708Y-103837D01*
X141730Y-103729D01*
X141730Y-103729D01*
X141730Y-103729D01*
X141730Y-103729D01*
X141730Y-103700D01*
X141730Y-103670D01*
X141730Y-103670D01*
X141730Y-103670D01*
X141730Y-103670D01*
X141708Y-103562D01*
X141708Y-103562D01*
X141686Y-103508D01*
X141624Y-103416D01*
X141583Y-103374D01*
X141582Y-103374D01*
X141492Y-103313D01*
X141491Y-103313D01*
X141437Y-103291D01*
X141329Y-103269D01*
X141270Y-103269D01*
X141270Y-103269D01*
X141162Y-103291D01*
X141162Y-103291D01*
X141108Y-103313D01*
X141016Y-103375D01*
X140974Y-103416D01*
X140974Y-103417D01*
X140913Y-103507D01*
X140913Y-103508D01*
X140891Y-103562D01*
X140869Y-103670D01*
X140869Y-103700D01*
X140869Y-103729D01*
X140891Y-103837D01*
X140913Y-103891D01*
X140913Y-103892D01*
X140974Y-103982D01*
X140974Y-103983D01*
X141016Y-104024D01*
X141044Y-104043D01*
X136374Y-104043D01*
X136391Y-104036D01*
X136392Y-104036D01*
X136482Y-103975D01*
X136483Y-103975D01*
X136524Y-103933D01*
X136586Y-103841D01*
X136608Y-103787D01*
X136608Y-103787D01*
X136630Y-103679D01*
X136630Y-103679D01*
X136630Y-103679D01*
X136630Y-103679D01*
X136630Y-103650D01*
X136630Y-103620D01*
X136630Y-103620D01*
X136630Y-103620D01*
X136630Y-103620D01*
X136608Y-103512D01*
X136608Y-103512D01*
X136586Y-103458D01*
X136530Y-103374D01*
X136530Y-101029D01*
X136530Y-101000D01*
X136530Y-100970D01*
X136530Y-93779D01*
X136530Y-93750D01*
X136530Y-93720D01*
X136530Y-93720D01*
X136530Y-93720D01*
X136530Y-93720D01*
X136508Y-93612D01*
X136508Y-93612D01*
X136486Y-93558D01*
X136424Y-93466D01*
X136383Y-93424D01*
X136382Y-93424D01*
X136292Y-93363D01*
X136291Y-93363D01*
X136237Y-93341D01*
X136129Y-93319D01*
X136070Y-93319D01*
X136070Y-93319D01*
X135962Y-93341D01*
X135962Y-93341D01*
X135908Y-93363D01*
X135816Y-93425D01*
X135774Y-93466D01*
X135774Y-93467D01*
X135713Y-93557D01*
X135713Y-93558D01*
X135691Y-93612D01*
X135669Y-93720D01*
X135669Y-93750D01*
X135669Y-93779D01*
X135691Y-93887D01*
X135713Y-93941D01*
X135713Y-93942D01*
X135774Y-94032D01*
X135774Y-94033D01*
X135816Y-94074D01*
X135908Y-94136D01*
X135962Y-94158D01*
X135962Y-94158D01*
X136070Y-94180D01*
X136070Y-94180D01*
X136129Y-94180D01*
X136237Y-94158D01*
X136291Y-94136D01*
X136292Y-94136D01*
X136382Y-94075D01*
X136383Y-94075D01*
X136424Y-94033D01*
X136486Y-93941D01*
X136508Y-93887D01*
X136508Y-93887D01*
X136530Y-93779D01*
X136530Y-93779D01*
X136530Y-93779D01*
X136530Y-93779D01*
X136530Y-100970D01*
X136530Y-100970D01*
X136530Y-100970D01*
X136530Y-100970D01*
X136508Y-100862D01*
X136508Y-100862D01*
X136486Y-100808D01*
X136424Y-100716D01*
X136383Y-100674D01*
X136382Y-100674D01*
X136292Y-100613D01*
X136291Y-100613D01*
X136237Y-100591D01*
X136129Y-100569D01*
X136070Y-100569D01*
X136070Y-100569D01*
X135962Y-100591D01*
X135962Y-100591D01*
X135908Y-100613D01*
X135816Y-100675D01*
X135774Y-100716D01*
X135774Y-100717D01*
X135713Y-100807D01*
X135713Y-100808D01*
X135691Y-100862D01*
X135669Y-100970D01*
X135669Y-101000D01*
X135669Y-101029D01*
X135691Y-101137D01*
X135713Y-101191D01*
X135713Y-101192D01*
X135774Y-101282D01*
X135774Y-101283D01*
X135816Y-101324D01*
X135908Y-101386D01*
X135962Y-101408D01*
X135962Y-101408D01*
X136070Y-101430D01*
X136070Y-101430D01*
X136129Y-101430D01*
X136237Y-101408D01*
X136291Y-101386D01*
X136292Y-101386D01*
X136382Y-101325D01*
X136383Y-101325D01*
X136424Y-101283D01*
X136486Y-101191D01*
X136508Y-101137D01*
X136508Y-101137D01*
X136530Y-101029D01*
X136530Y-101029D01*
X136530Y-101029D01*
X136530Y-101029D01*
X136530Y-103374D01*
X136524Y-103366D01*
X136483Y-103324D01*
X136482Y-103324D01*
X136392Y-103263D01*
X136391Y-103263D01*
X136337Y-103241D01*
X136229Y-103219D01*
X136170Y-103219D01*
X136170Y-103219D01*
X136062Y-103241D01*
X136062Y-103241D01*
X136008Y-103263D01*
X135916Y-103325D01*
X135874Y-103366D01*
X135874Y-103367D01*
X135813Y-103457D01*
X135813Y-103458D01*
X135791Y-103512D01*
X135769Y-103620D01*
X135769Y-103650D01*
X135769Y-103679D01*
X135791Y-103787D01*
X135813Y-103841D01*
X135813Y-103842D01*
X135874Y-103932D01*
X135874Y-103933D01*
X135916Y-103974D01*
X136008Y-104036D01*
X136025Y-104043D01*
X134099Y-104043D01*
X134099Y-100108D01*
X134062Y-100020D01*
X134026Y-99984D01*
X134026Y-94624D01*
X134016Y-94574D01*
X134014Y-94564D01*
X134014Y-94564D01*
X133980Y-94513D01*
X133980Y-94513D01*
X132875Y-93408D01*
X132875Y-92935D01*
X132857Y-92890D01*
X132823Y-92856D01*
X132779Y-92838D01*
X132731Y-92838D01*
X132181Y-92838D01*
X132136Y-92856D01*
X132102Y-92890D01*
X132084Y-92934D01*
X132084Y-92982D01*
X132084Y-93532D01*
X132102Y-93577D01*
X132136Y-93611D01*
X132180Y-93629D01*
X132228Y-93629D01*
X132654Y-93629D01*
X133713Y-94688D01*
X133713Y-97755D01*
X133681Y-97723D01*
X133593Y-97687D01*
X133498Y-97686D01*
X133410Y-97723D01*
X133343Y-97790D01*
X133307Y-97878D01*
X133306Y-97973D01*
X133343Y-98061D01*
X133389Y-98107D01*
X133389Y-99851D01*
X133229Y-100011D01*
X132161Y-100011D01*
X132115Y-99965D01*
X132027Y-99929D01*
X131932Y-99928D01*
X131875Y-99952D01*
X131875Y-93155D01*
X131815Y-93010D01*
X131704Y-92898D01*
X131559Y-92838D01*
X131401Y-92838D01*
X131256Y-92898D01*
X131144Y-93009D01*
X131084Y-93154D01*
X131084Y-93312D01*
X131144Y-93457D01*
X131255Y-93569D01*
X131323Y-93597D01*
X131323Y-98234D01*
X131285Y-98272D01*
X131249Y-98360D01*
X131248Y-98455D01*
X131285Y-98543D01*
X131352Y-98610D01*
X131440Y-98646D01*
X131535Y-98647D01*
X131623Y-98610D01*
X131690Y-98543D01*
X131726Y-98455D01*
X131727Y-98360D01*
X131690Y-98272D01*
X131636Y-98218D01*
X131636Y-93597D01*
X131703Y-93569D01*
X131815Y-93458D01*
X131875Y-93313D01*
X131875Y-93155D01*
X131875Y-99952D01*
X131844Y-99965D01*
X131798Y-100011D01*
X131009Y-100011D01*
X131009Y-93309D01*
X130998Y-93101D01*
X130940Y-92961D01*
X130847Y-92936D01*
X130777Y-93007D01*
X130777Y-92866D01*
X130752Y-92773D01*
X130555Y-92704D01*
X130347Y-92715D01*
X130207Y-92773D01*
X130182Y-92866D01*
X130480Y-93163D01*
X130777Y-92866D01*
X130777Y-93007D01*
X130550Y-93234D01*
X130847Y-93531D01*
X130940Y-93506D01*
X131009Y-93309D01*
X131009Y-100011D01*
X130777Y-100011D01*
X130777Y-93601D01*
X130480Y-93304D01*
X130409Y-93375D01*
X130409Y-93234D01*
X130112Y-92936D01*
X130019Y-92961D01*
X129950Y-93158D01*
X129961Y-93366D01*
X130019Y-93506D01*
X130112Y-93531D01*
X130409Y-93234D01*
X130409Y-93375D01*
X130182Y-93601D01*
X130207Y-93694D01*
X130404Y-93763D01*
X130612Y-93752D01*
X130752Y-93694D01*
X130777Y-93601D01*
X130777Y-100011D01*
X129825Y-100011D01*
X129808Y-99994D01*
X129808Y-99727D01*
X129854Y-99681D01*
X129890Y-99593D01*
X129891Y-99498D01*
X129875Y-99462D01*
X129875Y-93155D01*
X129815Y-93010D01*
X129704Y-92898D01*
X129559Y-92838D01*
X129401Y-92838D01*
X129256Y-92898D01*
X129144Y-93009D01*
X129084Y-93154D01*
X129084Y-93312D01*
X129144Y-93457D01*
X129255Y-93569D01*
X129400Y-93629D01*
X129558Y-93629D01*
X129703Y-93569D01*
X129815Y-93458D01*
X129875Y-93313D01*
X129875Y-93155D01*
X129875Y-99462D01*
X129854Y-99410D01*
X129787Y-99343D01*
X129699Y-99307D01*
X129604Y-99306D01*
X129516Y-99343D01*
X129449Y-99410D01*
X129413Y-99498D01*
X129412Y-99593D01*
X129449Y-99681D01*
X129495Y-99727D01*
X129495Y-99994D01*
X129478Y-100011D01*
X126430Y-100011D01*
X126430Y-93779D01*
X126430Y-93750D01*
X126430Y-93720D01*
X126430Y-93720D01*
X126430Y-93720D01*
X126430Y-93720D01*
X126408Y-93612D01*
X126408Y-93612D01*
X126386Y-93558D01*
X126324Y-93466D01*
X126283Y-93424D01*
X126282Y-93424D01*
X126192Y-93363D01*
X126191Y-93363D01*
X126137Y-93341D01*
X126029Y-93319D01*
X125970Y-93319D01*
X125970Y-93319D01*
X125862Y-93341D01*
X125862Y-93341D01*
X125808Y-93363D01*
X125716Y-93425D01*
X125674Y-93466D01*
X125674Y-93467D01*
X125613Y-93557D01*
X125613Y-93558D01*
X125591Y-93612D01*
X125569Y-93720D01*
X125569Y-93750D01*
X125569Y-93779D01*
X125591Y-93887D01*
X125613Y-93941D01*
X125613Y-93942D01*
X125674Y-94032D01*
X125674Y-94033D01*
X125716Y-94074D01*
X125808Y-94136D01*
X125862Y-94158D01*
X125862Y-94158D01*
X125970Y-94180D01*
X125970Y-94180D01*
X126029Y-94180D01*
X126137Y-94158D01*
X126191Y-94136D01*
X126192Y-94136D01*
X126282Y-94075D01*
X126283Y-94075D01*
X126324Y-94033D01*
X126386Y-93941D01*
X126408Y-93887D01*
X126408Y-93887D01*
X126430Y-93779D01*
X126430Y-93779D01*
X126430Y-93779D01*
X126430Y-93779D01*
X126430Y-100011D01*
X119130Y-100011D01*
X119130Y-93779D01*
X119130Y-93750D01*
X119130Y-93720D01*
X119130Y-93720D01*
X119130Y-93720D01*
X119130Y-93720D01*
X119108Y-93612D01*
X119108Y-93612D01*
X119086Y-93558D01*
X119024Y-93466D01*
X118983Y-93424D01*
X118982Y-93424D01*
X118892Y-93363D01*
X118891Y-93363D01*
X118837Y-93341D01*
X118729Y-93319D01*
X118670Y-93319D01*
X118670Y-93319D01*
X118562Y-93341D01*
X118562Y-93341D01*
X118508Y-93363D01*
X118416Y-93425D01*
X118374Y-93466D01*
X118374Y-93467D01*
X118313Y-93557D01*
X118313Y-93558D01*
X118291Y-93612D01*
X118269Y-93720D01*
X118269Y-93750D01*
X118269Y-93779D01*
X118291Y-93887D01*
X118313Y-93941D01*
X118313Y-93942D01*
X118374Y-94032D01*
X118374Y-94033D01*
X118416Y-94074D01*
X118508Y-94136D01*
X118562Y-94158D01*
X118562Y-94158D01*
X118670Y-94180D01*
X118670Y-94180D01*
X118729Y-94180D01*
X118837Y-94158D01*
X118891Y-94136D01*
X118892Y-94136D01*
X118982Y-94075D01*
X118983Y-94075D01*
X119024Y-94033D01*
X119086Y-93941D01*
X119108Y-93887D01*
X119108Y-93887D01*
X119130Y-93779D01*
X119130Y-93779D01*
X119130Y-93779D01*
X119130Y-93779D01*
X119130Y-100011D01*
X116009Y-100011D01*
X115969Y-99971D01*
X115881Y-99935D01*
X115786Y-99934D01*
X115698Y-99971D01*
X115631Y-100038D01*
X115595Y-100126D01*
X115594Y-100221D01*
X115631Y-100309D01*
X115698Y-100376D01*
X115786Y-100412D01*
X115881Y-100413D01*
X115969Y-100376D01*
X116021Y-100324D01*
X117857Y-100324D01*
X117840Y-100331D01*
X117773Y-100398D01*
X117737Y-100486D01*
X117736Y-100581D01*
X117773Y-100669D01*
X117840Y-100736D01*
X117928Y-100772D01*
X118023Y-100773D01*
X118111Y-100736D01*
X118157Y-100690D01*
X118375Y-100690D01*
X118363Y-100707D01*
X118363Y-100708D01*
X118341Y-100762D01*
X118319Y-100870D01*
X118319Y-100900D01*
X118319Y-100929D01*
X118341Y-101037D01*
X118363Y-101091D01*
X118363Y-101092D01*
X118386Y-101125D01*
X117415Y-101125D01*
X117369Y-101079D01*
X117281Y-101043D01*
X117186Y-101042D01*
X117098Y-101079D01*
X117031Y-101146D01*
X116995Y-101234D01*
X116994Y-101329D01*
X117031Y-101417D01*
X117098Y-101484D01*
X117186Y-101520D01*
X117281Y-101521D01*
X117369Y-101484D01*
X117415Y-101438D01*
X127333Y-101438D01*
X129471Y-103576D01*
X129470Y-103641D01*
X129507Y-103729D01*
X129574Y-103796D01*
X129662Y-103832D01*
X129757Y-103833D01*
X129845Y-103796D01*
X129912Y-103729D01*
X129948Y-103641D01*
X129949Y-103546D01*
X129912Y-103458D01*
X129845Y-103391D01*
X129757Y-103355D01*
X129692Y-103355D01*
X127508Y-101171D01*
X127457Y-101137D01*
X127398Y-101125D01*
X126413Y-101125D01*
X126436Y-101091D01*
X126458Y-101037D01*
X126458Y-101037D01*
X126480Y-100929D01*
X126480Y-100929D01*
X126480Y-100929D01*
X126480Y-100929D01*
X126480Y-100900D01*
X126480Y-100870D01*
X126480Y-100870D01*
X126480Y-100870D01*
X126480Y-100870D01*
X126458Y-100762D01*
X126458Y-100762D01*
X126436Y-100708D01*
X126424Y-100690D01*
X129131Y-100690D01*
X131113Y-102671D01*
X131113Y-102737D01*
X131149Y-102825D01*
X131216Y-102892D01*
X131304Y-102928D01*
X131399Y-102928D01*
X131487Y-102892D01*
X131554Y-102825D01*
X131591Y-102737D01*
X131591Y-102642D01*
X131554Y-102554D01*
X131487Y-102487D01*
X131399Y-102450D01*
X131334Y-102450D01*
X129306Y-100423D01*
X129256Y-100389D01*
X129196Y-100377D01*
X118157Y-100377D01*
X118111Y-100331D01*
X118094Y-100324D01*
X129462Y-100324D01*
X129516Y-100378D01*
X129604Y-100414D01*
X129699Y-100415D01*
X129787Y-100378D01*
X129841Y-100324D01*
X131798Y-100324D01*
X131844Y-100370D01*
X131932Y-100406D01*
X132027Y-100407D01*
X132115Y-100370D01*
X132161Y-100324D01*
X133294Y-100324D01*
X133294Y-100324D01*
X133353Y-100312D01*
X133404Y-100278D01*
X133653Y-100029D01*
X133621Y-100108D01*
X133620Y-100203D01*
X133657Y-100291D01*
X133724Y-100358D01*
X133812Y-100394D01*
X133907Y-100395D01*
X133995Y-100358D01*
X134062Y-100291D01*
X134098Y-100203D01*
X134099Y-100108D01*
X134099Y-104043D01*
X125924Y-104043D01*
X125941Y-104036D01*
X125942Y-104036D01*
X126032Y-103975D01*
X126033Y-103975D01*
X126074Y-103933D01*
X126136Y-103841D01*
X126158Y-103787D01*
X126158Y-103787D01*
X126180Y-103679D01*
X126180Y-103679D01*
X126180Y-103679D01*
X126180Y-103679D01*
X126180Y-103650D01*
X126180Y-103620D01*
X126180Y-103620D01*
X126180Y-103620D01*
X126180Y-103620D01*
X126158Y-103512D01*
X126158Y-103512D01*
X126136Y-103458D01*
X126074Y-103366D01*
X126033Y-103324D01*
X126032Y-103324D01*
X125942Y-103263D01*
X125941Y-103263D01*
X125887Y-103241D01*
X125779Y-103219D01*
X125720Y-103219D01*
X125720Y-103219D01*
X125612Y-103241D01*
X125612Y-103241D01*
X125558Y-103263D01*
X125466Y-103325D01*
X125424Y-103366D01*
X125424Y-103367D01*
X125363Y-103457D01*
X125363Y-103458D01*
X125341Y-103512D01*
X125319Y-103620D01*
X125319Y-103650D01*
X125319Y-103679D01*
X125341Y-103787D01*
X125363Y-103841D01*
X125363Y-103842D01*
X125424Y-103932D01*
X125424Y-103933D01*
X125466Y-103974D01*
X125558Y-104036D01*
X125575Y-104043D01*
X120974Y-104043D01*
X120991Y-104036D01*
X120992Y-104036D01*
X121082Y-103975D01*
X121083Y-103975D01*
X121124Y-103933D01*
X121186Y-103841D01*
X121208Y-103787D01*
X121208Y-103787D01*
X121230Y-103679D01*
X121230Y-103679D01*
X121230Y-103679D01*
X121230Y-103679D01*
X121230Y-103650D01*
X121230Y-103620D01*
X121230Y-103620D01*
X121230Y-103620D01*
X121230Y-103620D01*
X121208Y-103512D01*
X121208Y-103512D01*
X121186Y-103458D01*
X121124Y-103366D01*
X121083Y-103324D01*
X121082Y-103324D01*
X120992Y-103263D01*
X120991Y-103263D01*
X120937Y-103241D01*
X120829Y-103219D01*
X120770Y-103219D01*
X120770Y-103219D01*
X120662Y-103241D01*
X120662Y-103241D01*
X120608Y-103263D01*
X120516Y-103325D01*
X120474Y-103366D01*
X120474Y-103367D01*
X120413Y-103457D01*
X120413Y-103458D01*
X120391Y-103512D01*
X120369Y-103620D01*
X120369Y-103650D01*
X120369Y-103679D01*
X120391Y-103787D01*
X120413Y-103841D01*
X120413Y-103842D01*
X120474Y-103932D01*
X120474Y-103933D01*
X120516Y-103974D01*
X120608Y-104036D01*
X120625Y-104043D01*
X114510Y-104043D01*
X114510Y-96711D01*
X114524Y-96732D01*
X114524Y-96733D01*
X114566Y-96774D01*
X114658Y-96836D01*
X114712Y-96858D01*
X114712Y-96858D01*
X114820Y-96880D01*
X114820Y-96880D01*
X114879Y-96880D01*
X114987Y-96858D01*
X115041Y-96836D01*
X115042Y-96836D01*
X115132Y-96775D01*
X115133Y-96775D01*
X115174Y-96733D01*
X115236Y-96641D01*
X115258Y-96587D01*
X115258Y-96587D01*
X115280Y-96479D01*
X115280Y-96479D01*
X115280Y-96479D01*
X115280Y-96479D01*
X115280Y-96450D01*
X115280Y-96420D01*
X115280Y-96420D01*
X115280Y-96420D01*
X115280Y-96420D01*
X115258Y-96312D01*
X115258Y-96312D01*
X115236Y-96258D01*
X115174Y-96166D01*
X115133Y-96124D01*
X115132Y-96124D01*
X115042Y-96063D01*
X115041Y-96063D01*
X114987Y-96041D01*
X114879Y-96019D01*
X114820Y-96019D01*
X114820Y-96019D01*
X114712Y-96041D01*
X114712Y-96041D01*
X114658Y-96063D01*
X114566Y-96125D01*
X114524Y-96166D01*
X114524Y-96167D01*
X114510Y-96188D01*
X114510Y-92544D01*
X147609Y-92544D01*
X147609Y-94818D01*
X147574Y-94766D01*
X147533Y-94724D01*
X147532Y-94724D01*
X147442Y-94663D01*
X147441Y-94663D01*
X147387Y-94641D01*
X147279Y-94619D01*
X147220Y-94619D01*
X147220Y-94619D01*
X147112Y-94641D01*
X147112Y-94641D01*
X147058Y-94663D01*
X146966Y-94725D01*
X146924Y-94766D01*
X146924Y-94767D01*
X146863Y-94857D01*
X146863Y-94858D01*
X146841Y-94912D01*
X146819Y-95020D01*
X146819Y-95050D01*
X146819Y-95079D01*
X146841Y-95187D01*
X146863Y-95241D01*
X146863Y-95242D01*
X146924Y-95332D01*
X146924Y-95333D01*
X146966Y-95374D01*
X147058Y-95436D01*
X147112Y-95458D01*
X147112Y-95458D01*
X147220Y-95480D01*
X147220Y-95480D01*
X147279Y-95480D01*
X147387Y-95458D01*
X147441Y-95436D01*
X147442Y-95436D01*
X147532Y-95375D01*
X147533Y-95375D01*
X147574Y-95333D01*
X147609Y-95281D01*
X147609Y-104043D01*
M02*
