M48
;DRILL file {Pcbnew (22-Jun-2014 BZR 4027)-stable} date Thu 28 Jun 2018 06:15:15 PM CST
;FORMAT={-:-/ absolute / inch / decimal}
FMAT,2
INCH,TZ
T1C0.016
T2C0.032
%
G90
G05
M72
T1
X11.4932Y-10.0576
X11.5834Y-10.0174
X11.5862Y-10.3694
X11.7234Y-10.1282
X11.7976Y-10.0534
X12.1876Y-9.6204
X12.5364Y-9.6212
X12.7742Y-10.3694
X12.9652Y-9.9546
X12.9652Y-10.0176
X12.971Y-10.3594
X13.0516Y-9.621
X13.1352Y-10.269
X13.1488Y-9.8408
X13.198Y-10.0168
X13.3546Y-9.7926
X13.386Y-10.0156
X13.428Y-10.369
X14.4026Y-10.0788
X14.403Y-9.411
X14.4034Y-9.6926
X14.6272Y-10.3694
X14.629Y-10.1248
T2
X12.948Y-9.3234
X13.048Y-9.3234
X13.148Y-9.3234
X13.248Y-9.3234
T0
M30
