G04 (created by PCBNEW (22-Jun-2014 BZR 4027)-stable) date Thu 28 Jun 2018 06:15:15 PM CST*
%MOIN*%
G04 Gerber Fmt 3.4, Leading zero omitted, Abs format*
%FSLAX34Y34*%
G01*
G70*
G90*
G04 APERTURE LIST*
%ADD10C,0.005*%
%ADD11C,0.00590551*%
%ADD12C,0.00787402*%
%ADD13C,0.011811*%
G04 APERTURE END LIST*
G54D10*
G54D11*
X146932Y-98450D02*
G75*
G03X146932Y-98450I-282J0D01*
G74*
G01*
X141582Y-103700D02*
G75*
G03X141582Y-103700I-282J0D01*
G74*
G01*
X147532Y-95050D02*
G75*
G03X147532Y-95050I-282J0D01*
G74*
G01*
X136482Y-103650D02*
G75*
G03X136482Y-103650I-282J0D01*
G74*
G01*
X115132Y-96450D02*
G75*
G03X115132Y-96450I-282J0D01*
G74*
G01*
X121082Y-103650D02*
G75*
G03X121082Y-103650I-282J0D01*
G74*
G01*
X126032Y-103650D02*
G75*
G03X126032Y-103650I-282J0D01*
G74*
G01*
X143732Y-101300D02*
G75*
G03X143732Y-101300I-282J0D01*
G74*
G01*
X136382Y-101000D02*
G75*
G03X136382Y-101000I-282J0D01*
G74*
G01*
X143682Y-93750D02*
G75*
G03X143682Y-93750I-282J0D01*
G74*
G01*
X136382Y-93750D02*
G75*
G03X136382Y-93750I-282J0D01*
G74*
G01*
X119032Y-100900D02*
G75*
G03X119032Y-100900I-282J0D01*
G74*
G01*
X126332Y-100900D02*
G75*
G03X126332Y-100900I-282J0D01*
G74*
G01*
X126282Y-93750D02*
G75*
G03X126282Y-93750I-282J0D01*
G74*
G01*
X118982Y-93750D02*
G75*
G03X118982Y-93750I-282J0D01*
G74*
G01*
X114360Y-104194D02*
X114360Y-92394D01*
X147760Y-104194D02*
X114360Y-104194D01*
X147760Y-92394D02*
X147760Y-104194D01*
X114360Y-92394D02*
X147760Y-92394D01*
G54D12*
X114853Y-100497D02*
X115010Y-100654D01*
X115010Y-100497D02*
X114853Y-100654D01*
X115755Y-100095D02*
X115912Y-100252D01*
X115912Y-100095D02*
X115755Y-100252D01*
X115783Y-103615D02*
X115940Y-103772D01*
X115940Y-103615D02*
X115783Y-103772D01*
X117155Y-101203D02*
X117312Y-101360D01*
X117312Y-101203D02*
X117155Y-101360D01*
X117897Y-100455D02*
X118054Y-100612D01*
X118054Y-100455D02*
X117897Y-100612D01*
X121797Y-96125D02*
X121954Y-96282D01*
X121954Y-96125D02*
X121797Y-96282D01*
X125285Y-96133D02*
X125442Y-96290D01*
X125442Y-96133D02*
X125285Y-96290D01*
X127663Y-103615D02*
X127820Y-103772D01*
X127820Y-103615D02*
X127663Y-103772D01*
X129573Y-99467D02*
X129730Y-99624D01*
X129730Y-99467D02*
X129573Y-99624D01*
X129573Y-100097D02*
X129730Y-100254D01*
X129730Y-100097D02*
X129573Y-100254D01*
X129631Y-103515D02*
X129788Y-103672D01*
X129788Y-103515D02*
X129631Y-103672D01*
X130437Y-96131D02*
X130594Y-96288D01*
X130594Y-96131D02*
X130437Y-96288D01*
X131273Y-102611D02*
X131430Y-102768D01*
X131430Y-102611D02*
X131273Y-102768D01*
X131409Y-98329D02*
X131566Y-98486D01*
X131566Y-98329D02*
X131409Y-98486D01*
X131901Y-100089D02*
X132058Y-100246D01*
X132058Y-100089D02*
X131901Y-100246D01*
X133467Y-97847D02*
X133624Y-98004D01*
X133624Y-97847D02*
X133467Y-98004D01*
X133781Y-100077D02*
X133938Y-100234D01*
X133938Y-100077D02*
X133781Y-100234D01*
X134201Y-103611D02*
X134358Y-103768D01*
X134358Y-103611D02*
X134201Y-103768D01*
X143947Y-100709D02*
X144104Y-100866D01*
X144104Y-100709D02*
X143947Y-100866D01*
X143951Y-94031D02*
X144108Y-94188D01*
X144108Y-94031D02*
X143951Y-94188D01*
X143955Y-96847D02*
X144112Y-97004D01*
X144112Y-96847D02*
X143955Y-97004D01*
X146193Y-103615D02*
X146350Y-103772D01*
X146350Y-103615D02*
X146193Y-103772D01*
X146211Y-101169D02*
X146368Y-101326D01*
X146368Y-101169D02*
X146211Y-101326D01*
X129640Y-93234D02*
G75*
G03X129640Y-93234I-160J0D01*
G74*
G01*
X130640Y-93234D02*
G75*
G03X130640Y-93234I-160J0D01*
G74*
G01*
X131640Y-93234D02*
G75*
G03X131640Y-93234I-160J0D01*
G74*
G01*
X132640Y-93234D02*
G75*
G03X132640Y-93234I-160J0D01*
G74*
G01*
G54D13*
X115399Y-106000D02*
X115399Y-104819D01*
X115680Y-104819D01*
X115849Y-104875D01*
X115961Y-104988D01*
X116017Y-105100D01*
X116074Y-105325D01*
X116074Y-105494D01*
X116017Y-105719D01*
X115961Y-105832D01*
X115849Y-105944D01*
X115680Y-106000D01*
X115399Y-106000D01*
X116580Y-106000D02*
X116580Y-105213D01*
X116580Y-105438D02*
X116636Y-105325D01*
X116692Y-105269D01*
X116805Y-105213D01*
X116917Y-105213D01*
X117311Y-106000D02*
X117311Y-105213D01*
X117311Y-104819D02*
X117255Y-104875D01*
X117311Y-104932D01*
X117367Y-104875D01*
X117311Y-104819D01*
X117311Y-104932D01*
X118042Y-106000D02*
X117930Y-105944D01*
X117873Y-105832D01*
X117873Y-104819D01*
X118661Y-106000D02*
X118548Y-105944D01*
X118492Y-105832D01*
X118492Y-104819D01*
X120011Y-106000D02*
X120011Y-104819D01*
X120404Y-105663D01*
X120798Y-104819D01*
X120798Y-106000D01*
X121867Y-106000D02*
X121867Y-105382D01*
X121810Y-105269D01*
X121698Y-105213D01*
X121473Y-105213D01*
X121360Y-105269D01*
X121867Y-105944D02*
X121754Y-106000D01*
X121473Y-106000D01*
X121360Y-105944D01*
X121304Y-105832D01*
X121304Y-105719D01*
X121360Y-105607D01*
X121473Y-105550D01*
X121754Y-105550D01*
X121867Y-105494D01*
X122429Y-105213D02*
X122429Y-106394D01*
X122429Y-105269D02*
X122541Y-105213D01*
X122766Y-105213D01*
X122879Y-105269D01*
X122935Y-105325D01*
X122991Y-105438D01*
X122991Y-105775D01*
X122935Y-105888D01*
X122879Y-105944D01*
X122766Y-106000D01*
X122541Y-106000D01*
X122429Y-105944D01*
X123498Y-105888D02*
X123554Y-105944D01*
X123498Y-106000D01*
X123441Y-105944D01*
X123498Y-105888D01*
X123498Y-106000D01*
X123498Y-105269D02*
X123554Y-105325D01*
X123498Y-105382D01*
X123441Y-105325D01*
X123498Y-105269D01*
X123498Y-105382D01*
X114172Y-107924D02*
X114330Y-108081D01*
X114330Y-107924D02*
X114172Y-108081D01*
X115624Y-107300D02*
X115736Y-107300D01*
X115849Y-107356D01*
X115905Y-107412D01*
X115961Y-107524D01*
X116017Y-107749D01*
X116017Y-108031D01*
X115961Y-108256D01*
X115905Y-108368D01*
X115849Y-108424D01*
X115736Y-108481D01*
X115624Y-108481D01*
X115511Y-108424D01*
X115455Y-108368D01*
X115399Y-108256D01*
X115342Y-108031D01*
X115342Y-107749D01*
X115399Y-107524D01*
X115455Y-107412D01*
X115511Y-107356D01*
X115624Y-107300D01*
X116523Y-108368D02*
X116580Y-108424D01*
X116523Y-108481D01*
X116467Y-108424D01*
X116523Y-108368D01*
X116523Y-108481D01*
X117592Y-107693D02*
X117592Y-108481D01*
X117311Y-107243D02*
X117030Y-108087D01*
X117761Y-108087D01*
X118436Y-107300D02*
X118548Y-107300D01*
X118661Y-107356D01*
X118717Y-107412D01*
X118773Y-107524D01*
X118829Y-107749D01*
X118829Y-108031D01*
X118773Y-108256D01*
X118717Y-108368D01*
X118661Y-108424D01*
X118548Y-108481D01*
X118436Y-108481D01*
X118323Y-108424D01*
X118267Y-108368D01*
X118211Y-108256D01*
X118154Y-108031D01*
X118154Y-107749D01*
X118211Y-107524D01*
X118267Y-107412D01*
X118323Y-107356D01*
X118436Y-107300D01*
X119336Y-108481D02*
X119336Y-107693D01*
X119336Y-107806D02*
X119392Y-107749D01*
X119504Y-107693D01*
X119673Y-107693D01*
X119786Y-107749D01*
X119842Y-107862D01*
X119842Y-108481D01*
X119842Y-107862D02*
X119898Y-107749D01*
X120011Y-107693D01*
X120179Y-107693D01*
X120292Y-107749D01*
X120348Y-107862D01*
X120348Y-108481D01*
X120910Y-108481D02*
X120910Y-107693D01*
X120910Y-107806D02*
X120967Y-107749D01*
X121079Y-107693D01*
X121248Y-107693D01*
X121360Y-107749D01*
X121417Y-107862D01*
X121417Y-108481D01*
X121417Y-107862D02*
X121473Y-107749D01*
X121585Y-107693D01*
X121754Y-107693D01*
X121867Y-107749D01*
X121923Y-107862D01*
X121923Y-108481D01*
X124229Y-107243D02*
X123216Y-108762D01*
X125747Y-107300D02*
X125860Y-107300D01*
X125972Y-107356D01*
X126029Y-107412D01*
X126085Y-107524D01*
X126141Y-107749D01*
X126141Y-108031D01*
X126085Y-108256D01*
X126029Y-108368D01*
X125972Y-108424D01*
X125860Y-108481D01*
X125747Y-108481D01*
X125635Y-108424D01*
X125579Y-108368D01*
X125522Y-108256D01*
X125466Y-108031D01*
X125466Y-107749D01*
X125522Y-107524D01*
X125579Y-107412D01*
X125635Y-107356D01*
X125747Y-107300D01*
X126647Y-108368D02*
X126703Y-108424D01*
X126647Y-108481D01*
X126591Y-108424D01*
X126647Y-108368D01*
X126647Y-108481D01*
X127435Y-107300D02*
X127547Y-107300D01*
X127660Y-107356D01*
X127716Y-107412D01*
X127772Y-107524D01*
X127828Y-107749D01*
X127828Y-108031D01*
X127772Y-108256D01*
X127716Y-108368D01*
X127660Y-108424D01*
X127547Y-108481D01*
X127435Y-108481D01*
X127322Y-108424D01*
X127266Y-108368D01*
X127210Y-108256D01*
X127153Y-108031D01*
X127153Y-107749D01*
X127210Y-107524D01*
X127266Y-107412D01*
X127322Y-107356D01*
X127435Y-107300D01*
X128953Y-108481D02*
X128278Y-108481D01*
X128616Y-108481D02*
X128616Y-107300D01*
X128503Y-107468D01*
X128391Y-107581D01*
X128278Y-107637D01*
X129966Y-107300D02*
X129741Y-107300D01*
X129628Y-107356D01*
X129572Y-107412D01*
X129459Y-107581D01*
X129403Y-107806D01*
X129403Y-108256D01*
X129459Y-108368D01*
X129516Y-108424D01*
X129628Y-108481D01*
X129853Y-108481D01*
X129966Y-108424D01*
X130022Y-108368D01*
X130078Y-108256D01*
X130078Y-107974D01*
X130022Y-107862D01*
X129966Y-107806D01*
X129853Y-107749D01*
X129628Y-107749D01*
X129516Y-107806D01*
X129459Y-107862D01*
X129403Y-107974D01*
X130528Y-107300D02*
X130528Y-107524D01*
X130978Y-107300D02*
X130978Y-107524D01*
X132721Y-108931D02*
X132665Y-108874D01*
X132553Y-108706D01*
X132496Y-108593D01*
X132440Y-108424D01*
X132384Y-108143D01*
X132384Y-107918D01*
X132440Y-107637D01*
X132496Y-107468D01*
X132553Y-107356D01*
X132665Y-107187D01*
X132721Y-107131D01*
X133115Y-107412D02*
X133171Y-107356D01*
X133284Y-107300D01*
X133565Y-107300D01*
X133678Y-107356D01*
X133734Y-107412D01*
X133790Y-107524D01*
X133790Y-107637D01*
X133734Y-107806D01*
X133059Y-108481D01*
X133790Y-108481D01*
X134184Y-107300D02*
X134915Y-107300D01*
X134521Y-107749D01*
X134690Y-107749D01*
X134802Y-107806D01*
X134859Y-107862D01*
X134915Y-107974D01*
X134915Y-108256D01*
X134859Y-108368D01*
X134802Y-108424D01*
X134690Y-108481D01*
X134352Y-108481D01*
X134240Y-108424D01*
X134184Y-108368D01*
X136321Y-108481D02*
X136321Y-107300D01*
X136827Y-108481D02*
X136827Y-107862D01*
X136771Y-107749D01*
X136658Y-107693D01*
X136490Y-107693D01*
X136377Y-107749D01*
X136321Y-107806D01*
X137558Y-108481D02*
X137446Y-108424D01*
X137390Y-108368D01*
X137333Y-108256D01*
X137333Y-107918D01*
X137390Y-107806D01*
X137446Y-107749D01*
X137558Y-107693D01*
X137727Y-107693D01*
X137840Y-107749D01*
X137896Y-107806D01*
X137952Y-107918D01*
X137952Y-108256D01*
X137896Y-108368D01*
X137840Y-108424D01*
X137727Y-108481D01*
X137558Y-108481D01*
X138627Y-108481D02*
X138514Y-108424D01*
X138458Y-108312D01*
X138458Y-107300D01*
X139527Y-108424D02*
X139414Y-108481D01*
X139189Y-108481D01*
X139077Y-108424D01*
X139021Y-108312D01*
X139021Y-107862D01*
X139077Y-107749D01*
X139189Y-107693D01*
X139414Y-107693D01*
X139527Y-107749D01*
X139583Y-107862D01*
X139583Y-107974D01*
X139021Y-108087D01*
X140033Y-108424D02*
X140145Y-108481D01*
X140370Y-108481D01*
X140483Y-108424D01*
X140539Y-108312D01*
X140539Y-108256D01*
X140483Y-108143D01*
X140370Y-108087D01*
X140202Y-108087D01*
X140089Y-108031D01*
X140033Y-107918D01*
X140033Y-107862D01*
X140089Y-107749D01*
X140202Y-107693D01*
X140370Y-107693D01*
X140483Y-107749D01*
X140933Y-108931D02*
X140989Y-108874D01*
X141102Y-108706D01*
X141158Y-108593D01*
X141214Y-108424D01*
X141270Y-108143D01*
X141270Y-107918D01*
X141214Y-107637D01*
X141158Y-107468D01*
X141102Y-107356D01*
X140989Y-107187D01*
X140933Y-107131D01*
G54D12*
X114330Y-109562D02*
G75*
G03X114330Y-109562I-160J0D01*
G74*
G01*
G54D13*
X115624Y-108859D02*
X115736Y-108859D01*
X115849Y-108915D01*
X115905Y-108971D01*
X115961Y-109084D01*
X116017Y-109309D01*
X116017Y-109590D01*
X115961Y-109815D01*
X115905Y-109927D01*
X115849Y-109983D01*
X115736Y-110040D01*
X115624Y-110040D01*
X115511Y-109983D01*
X115455Y-109927D01*
X115399Y-109815D01*
X115342Y-109590D01*
X115342Y-109309D01*
X115399Y-109084D01*
X115455Y-108971D01*
X115511Y-108915D01*
X115624Y-108859D01*
X116523Y-109927D02*
X116580Y-109983D01*
X116523Y-110040D01*
X116467Y-109983D01*
X116523Y-109927D01*
X116523Y-110040D01*
X117255Y-109365D02*
X117142Y-109309D01*
X117086Y-109252D01*
X117030Y-109140D01*
X117030Y-109084D01*
X117086Y-108971D01*
X117142Y-108915D01*
X117255Y-108859D01*
X117480Y-108859D01*
X117592Y-108915D01*
X117648Y-108971D01*
X117705Y-109084D01*
X117705Y-109140D01*
X117648Y-109252D01*
X117592Y-109309D01*
X117480Y-109365D01*
X117255Y-109365D01*
X117142Y-109421D01*
X117086Y-109477D01*
X117030Y-109590D01*
X117030Y-109815D01*
X117086Y-109927D01*
X117142Y-109983D01*
X117255Y-110040D01*
X117480Y-110040D01*
X117592Y-109983D01*
X117648Y-109927D01*
X117705Y-109815D01*
X117705Y-109590D01*
X117648Y-109477D01*
X117592Y-109421D01*
X117480Y-109365D01*
X118829Y-110040D02*
X118154Y-110040D01*
X118492Y-110040D02*
X118492Y-108859D01*
X118379Y-109027D01*
X118267Y-109140D01*
X118154Y-109196D01*
X119336Y-110040D02*
X119336Y-109252D01*
X119336Y-109365D02*
X119392Y-109309D01*
X119504Y-109252D01*
X119673Y-109252D01*
X119786Y-109309D01*
X119842Y-109421D01*
X119842Y-110040D01*
X119842Y-109421D02*
X119898Y-109309D01*
X120011Y-109252D01*
X120179Y-109252D01*
X120292Y-109309D01*
X120348Y-109421D01*
X120348Y-110040D01*
X120910Y-110040D02*
X120910Y-109252D01*
X120910Y-109365D02*
X120967Y-109309D01*
X121079Y-109252D01*
X121248Y-109252D01*
X121360Y-109309D01*
X121417Y-109421D01*
X121417Y-110040D01*
X121417Y-109421D02*
X121473Y-109309D01*
X121585Y-109252D01*
X121754Y-109252D01*
X121867Y-109309D01*
X121923Y-109421D01*
X121923Y-110040D01*
X124229Y-108802D02*
X123216Y-110321D01*
X125747Y-108859D02*
X125860Y-108859D01*
X125972Y-108915D01*
X126029Y-108971D01*
X126085Y-109084D01*
X126141Y-109309D01*
X126141Y-109590D01*
X126085Y-109815D01*
X126029Y-109927D01*
X125972Y-109983D01*
X125860Y-110040D01*
X125747Y-110040D01*
X125635Y-109983D01*
X125579Y-109927D01*
X125522Y-109815D01*
X125466Y-109590D01*
X125466Y-109309D01*
X125522Y-109084D01*
X125579Y-108971D01*
X125635Y-108915D01*
X125747Y-108859D01*
X126647Y-109927D02*
X126703Y-109983D01*
X126647Y-110040D01*
X126591Y-109983D01*
X126647Y-109927D01*
X126647Y-110040D01*
X127435Y-108859D02*
X127547Y-108859D01*
X127660Y-108915D01*
X127716Y-108971D01*
X127772Y-109084D01*
X127828Y-109309D01*
X127828Y-109590D01*
X127772Y-109815D01*
X127716Y-109927D01*
X127660Y-109983D01*
X127547Y-110040D01*
X127435Y-110040D01*
X127322Y-109983D01*
X127266Y-109927D01*
X127210Y-109815D01*
X127153Y-109590D01*
X127153Y-109309D01*
X127210Y-109084D01*
X127266Y-108971D01*
X127322Y-108915D01*
X127435Y-108859D01*
X128222Y-108859D02*
X128953Y-108859D01*
X128559Y-109309D01*
X128728Y-109309D01*
X128841Y-109365D01*
X128897Y-109421D01*
X128953Y-109533D01*
X128953Y-109815D01*
X128897Y-109927D01*
X128841Y-109983D01*
X128728Y-110040D01*
X128391Y-110040D01*
X128278Y-109983D01*
X128222Y-109927D01*
X129403Y-108971D02*
X129459Y-108915D01*
X129572Y-108859D01*
X129853Y-108859D01*
X129966Y-108915D01*
X130022Y-108971D01*
X130078Y-109084D01*
X130078Y-109196D01*
X130022Y-109365D01*
X129347Y-110040D01*
X130078Y-110040D01*
X130528Y-108859D02*
X130528Y-109084D01*
X130978Y-108859D02*
X130978Y-109084D01*
X132721Y-110490D02*
X132665Y-110433D01*
X132553Y-110265D01*
X132496Y-110152D01*
X132440Y-109983D01*
X132384Y-109702D01*
X132384Y-109477D01*
X132440Y-109196D01*
X132496Y-109027D01*
X132553Y-108915D01*
X132665Y-108746D01*
X132721Y-108690D01*
X133678Y-109252D02*
X133678Y-110040D01*
X133396Y-108802D02*
X133115Y-109646D01*
X133846Y-109646D01*
X135196Y-110040D02*
X135196Y-108859D01*
X135702Y-110040D02*
X135702Y-109421D01*
X135646Y-109309D01*
X135534Y-109252D01*
X135365Y-109252D01*
X135252Y-109309D01*
X135196Y-109365D01*
X136433Y-110040D02*
X136321Y-109983D01*
X136265Y-109927D01*
X136208Y-109815D01*
X136208Y-109477D01*
X136265Y-109365D01*
X136321Y-109309D01*
X136433Y-109252D01*
X136602Y-109252D01*
X136715Y-109309D01*
X136771Y-109365D01*
X136827Y-109477D01*
X136827Y-109815D01*
X136771Y-109927D01*
X136715Y-109983D01*
X136602Y-110040D01*
X136433Y-110040D01*
X137502Y-110040D02*
X137390Y-109983D01*
X137333Y-109871D01*
X137333Y-108859D01*
X138402Y-109983D02*
X138289Y-110040D01*
X138065Y-110040D01*
X137952Y-109983D01*
X137896Y-109871D01*
X137896Y-109421D01*
X137952Y-109309D01*
X138065Y-109252D01*
X138289Y-109252D01*
X138402Y-109309D01*
X138458Y-109421D01*
X138458Y-109533D01*
X137896Y-109646D01*
X138908Y-109983D02*
X139021Y-110040D01*
X139246Y-110040D01*
X139358Y-109983D01*
X139414Y-109871D01*
X139414Y-109815D01*
X139358Y-109702D01*
X139246Y-109646D01*
X139077Y-109646D01*
X138964Y-109590D01*
X138908Y-109477D01*
X138908Y-109421D01*
X138964Y-109309D01*
X139077Y-109252D01*
X139246Y-109252D01*
X139358Y-109309D01*
X139808Y-110490D02*
X139864Y-110433D01*
X139977Y-110265D01*
X140033Y-110152D01*
X140089Y-109983D01*
X140145Y-109702D01*
X140145Y-109477D01*
X140089Y-109196D01*
X140033Y-109027D01*
X139977Y-108915D01*
X139864Y-108746D01*
X139808Y-108690D01*
M02*
