G04 (created by PCBNEW (22-Jun-2014 BZR 4027)-stable) date Tue 01 Mar 2016 01:37:46 PM CST*
%MOIN*%
G04 Gerber Fmt 3.4, Leading zero omitted, Abs format*
%FSLAX34Y34*%
G01*
G70*
G90*
G04 APERTURE LIST*
%ADD10C,0.00590551*%
%ADD11C,0.00393701*%
%ADD12C,0.003*%
G04 APERTURE END LIST*
G54D10*
G54D11*
X78500Y-56000D02*
X78500Y-50000D01*
X85000Y-56000D02*
X78500Y-56000D01*
X85000Y-50000D02*
X85000Y-56000D01*
X78500Y-50000D02*
X85000Y-50000D01*
G54D12*
X84600Y-55766D02*
X84613Y-55726D01*
X84613Y-55659D01*
X84600Y-55633D01*
X84586Y-55619D01*
X84560Y-55606D01*
X84533Y-55606D01*
X84506Y-55619D01*
X84493Y-55633D01*
X84480Y-55659D01*
X84466Y-55713D01*
X84453Y-55739D01*
X84440Y-55753D01*
X84413Y-55766D01*
X84386Y-55766D01*
X84360Y-55753D01*
X84346Y-55739D01*
X84333Y-55713D01*
X84333Y-55646D01*
X84346Y-55606D01*
X84333Y-55433D02*
X84333Y-55379D01*
X84346Y-55353D01*
X84373Y-55326D01*
X84426Y-55313D01*
X84520Y-55313D01*
X84573Y-55326D01*
X84600Y-55353D01*
X84613Y-55379D01*
X84613Y-55433D01*
X84600Y-55459D01*
X84573Y-55486D01*
X84520Y-55499D01*
X84426Y-55499D01*
X84373Y-55486D01*
X84346Y-55459D01*
X84333Y-55433D01*
X84600Y-55206D02*
X84613Y-55166D01*
X84613Y-55099D01*
X84600Y-55073D01*
X84586Y-55059D01*
X84560Y-55046D01*
X84533Y-55046D01*
X84506Y-55059D01*
X84493Y-55073D01*
X84480Y-55099D01*
X84466Y-55153D01*
X84453Y-55179D01*
X84440Y-55193D01*
X84413Y-55206D01*
X84386Y-55206D01*
X84360Y-55193D01*
X84346Y-55179D01*
X84333Y-55153D01*
X84333Y-55086D01*
X84346Y-55046D01*
X84613Y-54926D02*
X84333Y-54926D01*
X84333Y-54819D01*
X84346Y-54793D01*
X84360Y-54779D01*
X84386Y-54766D01*
X84426Y-54766D01*
X84453Y-54779D01*
X84466Y-54793D01*
X84480Y-54819D01*
X84480Y-54926D01*
X84360Y-54659D02*
X84346Y-54646D01*
X84333Y-54619D01*
X84333Y-54553D01*
X84346Y-54526D01*
X84360Y-54513D01*
X84386Y-54499D01*
X84413Y-54499D01*
X84453Y-54513D01*
X84613Y-54673D01*
X84613Y-54499D01*
X84333Y-54326D02*
X84333Y-54299D01*
X84346Y-54273D01*
X84360Y-54259D01*
X84386Y-54246D01*
X84440Y-54233D01*
X84506Y-54233D01*
X84560Y-54246D01*
X84586Y-54259D01*
X84600Y-54273D01*
X84613Y-54299D01*
X84613Y-54326D01*
X84600Y-54353D01*
X84586Y-54366D01*
X84560Y-54379D01*
X84506Y-54393D01*
X84440Y-54393D01*
X84386Y-54379D01*
X84360Y-54366D01*
X84346Y-54353D01*
X84333Y-54326D01*
X84613Y-53966D02*
X84613Y-54126D01*
X84613Y-54046D02*
X84333Y-54046D01*
X84373Y-54073D01*
X84400Y-54099D01*
X84413Y-54126D01*
X84333Y-53726D02*
X84333Y-53779D01*
X84346Y-53806D01*
X84360Y-53819D01*
X84400Y-53846D01*
X84453Y-53859D01*
X84560Y-53859D01*
X84586Y-53846D01*
X84600Y-53833D01*
X84613Y-53806D01*
X84613Y-53753D01*
X84600Y-53726D01*
X84586Y-53713D01*
X84560Y-53699D01*
X84493Y-53699D01*
X84466Y-53713D01*
X84453Y-53726D01*
X84440Y-53753D01*
X84440Y-53806D01*
X84453Y-53833D01*
X84466Y-53846D01*
X84493Y-53859D01*
X84333Y-53526D02*
X84333Y-53500D01*
X84346Y-53473D01*
X84360Y-53460D01*
X84386Y-53446D01*
X84440Y-53433D01*
X84506Y-53433D01*
X84560Y-53446D01*
X84586Y-53460D01*
X84600Y-53473D01*
X84613Y-53500D01*
X84613Y-53526D01*
X84600Y-53553D01*
X84586Y-53566D01*
X84560Y-53580D01*
X84506Y-53593D01*
X84440Y-53593D01*
X84386Y-53580D01*
X84360Y-53566D01*
X84346Y-53553D01*
X84333Y-53526D01*
X84360Y-53326D02*
X84346Y-53313D01*
X84333Y-53286D01*
X84333Y-53220D01*
X84346Y-53193D01*
X84360Y-53180D01*
X84386Y-53166D01*
X84413Y-53166D01*
X84453Y-53180D01*
X84613Y-53340D01*
X84613Y-53166D01*
X84360Y-53060D02*
X84346Y-53046D01*
X84333Y-53020D01*
X84333Y-52953D01*
X84346Y-52926D01*
X84360Y-52913D01*
X84386Y-52900D01*
X84413Y-52900D01*
X84453Y-52913D01*
X84613Y-53073D01*
X84613Y-52900D01*
X84333Y-52806D02*
X84333Y-52620D01*
X84613Y-52740D01*
M02*
