G04 (created by PCBNEW (22-Jun-2014 BZR 4027)-stable) date Tue 01 Mar 2016 01:37:46 PM CST*
%MOIN*%
G04 Gerber Fmt 3.4, Leading zero omitted, Abs format*
%FSLAX34Y34*%
G01*
G70*
G90*
G04 APERTURE LIST*
%ADD10C,0.00590551*%
%ADD11C,0.00393701*%
%ADD12C,0.005*%
%ADD13C,0.012*%
%ADD14C,0.0026*%
%ADD15C,0.004*%
%ADD16C,0.006*%
%ADD17C,0.0045*%
%ADD18C,0.00492126*%
G04 APERTURE END LIST*
G54D10*
G54D11*
X78500Y-56000D02*
X78500Y-50000D01*
X85000Y-56000D02*
X78500Y-56000D01*
X85000Y-50000D02*
X85000Y-56000D01*
X78500Y-50000D02*
X85000Y-50000D01*
G54D12*
X83050Y-52300D02*
X83050Y-52250D01*
X83050Y-52250D02*
X80950Y-52250D01*
X80950Y-53750D02*
X83050Y-53750D01*
X83050Y-53750D02*
X83050Y-52300D01*
X83050Y-53200D02*
X82850Y-53200D01*
X82850Y-53200D02*
X82850Y-52800D01*
X82850Y-52800D02*
X83050Y-52800D01*
X80950Y-53750D02*
X80950Y-52250D01*
X79950Y-53250D02*
X79050Y-53250D01*
X79050Y-53250D02*
X79050Y-52750D01*
X79050Y-52750D02*
X79950Y-52750D01*
X79950Y-52750D02*
X79950Y-53250D01*
X80630Y-50530D02*
X80630Y-51430D01*
X80630Y-51430D02*
X80130Y-51430D01*
X80130Y-51430D02*
X80130Y-50530D01*
X80130Y-50530D02*
X80630Y-50530D01*
X79050Y-53750D02*
X79950Y-53750D01*
X79950Y-53750D02*
X79950Y-54250D01*
X79950Y-54250D02*
X79050Y-54250D01*
X79050Y-54250D02*
X79050Y-53750D01*
X82050Y-50750D02*
X82950Y-50750D01*
X82950Y-50750D02*
X82950Y-51250D01*
X82950Y-51250D02*
X82050Y-51250D01*
X82050Y-51250D02*
X82050Y-50750D01*
X83740Y-53450D02*
X83740Y-54350D01*
X83740Y-54350D02*
X83240Y-54350D01*
X83240Y-54350D02*
X83240Y-53450D01*
X83240Y-53450D02*
X83740Y-53450D01*
G54D13*
X78950Y-55540D02*
X78950Y-54540D01*
X78950Y-54540D02*
X83950Y-54540D01*
X83950Y-54540D02*
X83950Y-55540D01*
X83950Y-55540D02*
X78950Y-55540D01*
X79950Y-55540D02*
X79950Y-54540D01*
G54D14*
X80268Y-53693D02*
X80622Y-53693D01*
X80622Y-53693D02*
X80622Y-53536D01*
X80268Y-53536D02*
X80622Y-53536D01*
X80268Y-53693D02*
X80268Y-53536D01*
X80268Y-54204D02*
X80622Y-54204D01*
X80622Y-54204D02*
X80622Y-54047D01*
X80268Y-54047D02*
X80622Y-54047D01*
X80268Y-54204D02*
X80268Y-54047D01*
X80268Y-53870D02*
X80327Y-53870D01*
X80327Y-53870D02*
X80327Y-53752D01*
X80268Y-53752D02*
X80327Y-53752D01*
X80268Y-53870D02*
X80268Y-53752D01*
X80563Y-53870D02*
X80622Y-53870D01*
X80622Y-53870D02*
X80622Y-53752D01*
X80563Y-53752D02*
X80622Y-53752D01*
X80563Y-53870D02*
X80563Y-53752D01*
X80386Y-53870D02*
X80504Y-53870D01*
X80504Y-53870D02*
X80504Y-53752D01*
X80386Y-53752D02*
X80504Y-53752D01*
X80386Y-53870D02*
X80386Y-53752D01*
G54D15*
X80288Y-53693D02*
X80288Y-54047D01*
X80602Y-53693D02*
X80602Y-54047D01*
G54D14*
X81507Y-50898D02*
X81507Y-51252D01*
X81507Y-51252D02*
X81664Y-51252D01*
X81664Y-50898D02*
X81664Y-51252D01*
X81507Y-50898D02*
X81664Y-50898D01*
X80996Y-50898D02*
X80996Y-51252D01*
X80996Y-51252D02*
X81153Y-51252D01*
X81153Y-50898D02*
X81153Y-51252D01*
X80996Y-50898D02*
X81153Y-50898D01*
X81330Y-50898D02*
X81330Y-50957D01*
X81330Y-50957D02*
X81448Y-50957D01*
X81448Y-50898D02*
X81448Y-50957D01*
X81330Y-50898D02*
X81448Y-50898D01*
X81330Y-51193D02*
X81330Y-51252D01*
X81330Y-51252D02*
X81448Y-51252D01*
X81448Y-51193D02*
X81448Y-51252D01*
X81330Y-51193D02*
X81448Y-51193D01*
X81330Y-51016D02*
X81330Y-51134D01*
X81330Y-51134D02*
X81448Y-51134D01*
X81448Y-51016D02*
X81448Y-51134D01*
X81330Y-51016D02*
X81448Y-51016D01*
G54D15*
X81507Y-50918D02*
X81153Y-50918D01*
X81507Y-51232D02*
X81153Y-51232D01*
G54D13*
X79000Y-50500D02*
X80000Y-50500D01*
X80000Y-50500D02*
X80000Y-52500D01*
X80000Y-52500D02*
X79000Y-52500D01*
X79000Y-52500D02*
X79000Y-50500D01*
X84500Y-52500D02*
X83500Y-52500D01*
X83500Y-52500D02*
X83500Y-50500D01*
X83500Y-50500D02*
X84500Y-50500D01*
X84500Y-50500D02*
X84500Y-52500D01*
G54D16*
X82157Y-53232D02*
X82157Y-53596D01*
X82178Y-53639D01*
X82200Y-53660D01*
X82242Y-53682D01*
X82328Y-53682D01*
X82371Y-53660D01*
X82392Y-53639D01*
X82414Y-53596D01*
X82414Y-53232D01*
X82864Y-53682D02*
X82607Y-53682D01*
X82735Y-53682D02*
X82735Y-53232D01*
X82692Y-53296D01*
X82650Y-53339D01*
X82607Y-53360D01*
X81233Y-53141D02*
X81033Y-53141D01*
X81133Y-53141D02*
X81133Y-52791D01*
X81100Y-52841D01*
X81066Y-52875D01*
X81033Y-52891D01*
X81550Y-52791D02*
X81383Y-52791D01*
X81366Y-52958D01*
X81383Y-52941D01*
X81416Y-52925D01*
X81500Y-52925D01*
X81533Y-52941D01*
X81550Y-52958D01*
X81566Y-52991D01*
X81566Y-53075D01*
X81550Y-53108D01*
X81533Y-53125D01*
X81500Y-53141D01*
X81416Y-53141D01*
X81383Y-53125D01*
X81366Y-53108D01*
X81683Y-52791D02*
X81766Y-53141D01*
X81833Y-52891D01*
X81900Y-53141D01*
X81983Y-52791D01*
X82100Y-52825D02*
X82116Y-52808D01*
X82150Y-52791D01*
X82233Y-52791D01*
X82266Y-52808D01*
X82283Y-52825D01*
X82300Y-52858D01*
X82300Y-52891D01*
X82283Y-52941D01*
X82083Y-53141D01*
X82300Y-53141D01*
X82516Y-52791D02*
X82550Y-52791D01*
X82583Y-52808D01*
X82600Y-52825D01*
X82616Y-52858D01*
X82633Y-52925D01*
X82633Y-53008D01*
X82616Y-53075D01*
X82600Y-53108D01*
X82583Y-53125D01*
X82550Y-53141D01*
X82516Y-53141D01*
X82483Y-53125D01*
X82466Y-53108D01*
X82450Y-53075D01*
X82433Y-53008D01*
X82433Y-52925D01*
X82450Y-52858D01*
X82466Y-52825D01*
X82483Y-52808D01*
X82516Y-52791D01*
X82933Y-52908D02*
X82933Y-53141D01*
X82850Y-52775D02*
X82766Y-53025D01*
X82983Y-53025D01*
G54D17*
X79170Y-53461D02*
X79161Y-53471D01*
X79135Y-53480D01*
X79118Y-53480D01*
X79092Y-53471D01*
X79075Y-53452D01*
X79067Y-53433D01*
X79058Y-53395D01*
X79058Y-53366D01*
X79067Y-53328D01*
X79075Y-53309D01*
X79092Y-53290D01*
X79118Y-53280D01*
X79135Y-53280D01*
X79161Y-53290D01*
X79170Y-53300D01*
X79341Y-53480D02*
X79238Y-53480D01*
X79290Y-53480D02*
X79290Y-53280D01*
X79272Y-53309D01*
X79255Y-53328D01*
X79238Y-53338D01*
X80170Y-51680D02*
X80110Y-51585D01*
X80067Y-51680D02*
X80067Y-51480D01*
X80135Y-51480D01*
X80152Y-51490D01*
X80161Y-51500D01*
X80170Y-51519D01*
X80170Y-51547D01*
X80161Y-51566D01*
X80152Y-51576D01*
X80135Y-51585D01*
X80067Y-51585D01*
X80238Y-51500D02*
X80247Y-51490D01*
X80264Y-51480D01*
X80307Y-51480D01*
X80324Y-51490D01*
X80332Y-51500D01*
X80341Y-51519D01*
X80341Y-51538D01*
X80332Y-51566D01*
X80230Y-51680D01*
X80341Y-51680D01*
X79170Y-54480D02*
X79110Y-54385D01*
X79067Y-54480D02*
X79067Y-54280D01*
X79135Y-54280D01*
X79152Y-54290D01*
X79161Y-54300D01*
X79170Y-54319D01*
X79170Y-54347D01*
X79161Y-54366D01*
X79152Y-54376D01*
X79135Y-54385D01*
X79067Y-54385D01*
X79341Y-54480D02*
X79238Y-54480D01*
X79290Y-54480D02*
X79290Y-54280D01*
X79272Y-54309D01*
X79255Y-54328D01*
X79238Y-54338D01*
X82170Y-50680D02*
X82110Y-50585D01*
X82067Y-50680D02*
X82067Y-50480D01*
X82135Y-50480D01*
X82152Y-50490D01*
X82161Y-50500D01*
X82170Y-50519D01*
X82170Y-50547D01*
X82161Y-50566D01*
X82152Y-50576D01*
X82135Y-50585D01*
X82067Y-50585D01*
X82230Y-50480D02*
X82341Y-50480D01*
X82281Y-50557D01*
X82307Y-50557D01*
X82324Y-50566D01*
X82332Y-50576D01*
X82341Y-50595D01*
X82341Y-50642D01*
X82332Y-50661D01*
X82324Y-50671D01*
X82307Y-50680D01*
X82255Y-50680D01*
X82238Y-50671D01*
X82230Y-50661D01*
X83170Y-53980D02*
X83110Y-53885D01*
X83067Y-53980D02*
X83067Y-53780D01*
X83135Y-53780D01*
X83152Y-53790D01*
X83161Y-53800D01*
X83170Y-53819D01*
X83170Y-53847D01*
X83161Y-53866D01*
X83152Y-53876D01*
X83135Y-53885D01*
X83067Y-53885D01*
X83324Y-53847D02*
X83324Y-53980D01*
X83281Y-53771D02*
X83238Y-53914D01*
X83350Y-53914D01*
G54D18*
X78854Y-55779D02*
X78854Y-55582D01*
X78929Y-55582D01*
X78948Y-55592D01*
X78957Y-55601D01*
X78967Y-55620D01*
X78967Y-55648D01*
X78957Y-55667D01*
X78948Y-55676D01*
X78929Y-55685D01*
X78854Y-55685D01*
X79154Y-55779D02*
X79042Y-55779D01*
X79098Y-55779D02*
X79098Y-55582D01*
X79079Y-55610D01*
X79060Y-55629D01*
X79042Y-55639D01*
G54D12*
X80052Y-54580D02*
X80052Y-54380D01*
X80100Y-54380D01*
X80128Y-54390D01*
X80147Y-54409D01*
X80157Y-54428D01*
X80166Y-54466D01*
X80166Y-54495D01*
X80157Y-54533D01*
X80147Y-54552D01*
X80128Y-54571D01*
X80100Y-54580D01*
X80052Y-54580D01*
X80357Y-54580D02*
X80242Y-54580D01*
X80300Y-54580D02*
X80300Y-54380D01*
X80280Y-54409D01*
X80261Y-54428D01*
X80242Y-54438D01*
X80671Y-54580D02*
X80576Y-54580D01*
X80576Y-54380D01*
X80738Y-54476D02*
X80804Y-54476D01*
X80833Y-54580D02*
X80738Y-54580D01*
X80738Y-54380D01*
X80833Y-54380D01*
X80919Y-54580D02*
X80919Y-54380D01*
X80966Y-54380D01*
X80995Y-54390D01*
X81014Y-54409D01*
X81023Y-54428D01*
X81033Y-54466D01*
X81033Y-54495D01*
X81023Y-54533D01*
X81014Y-54552D01*
X80995Y-54571D01*
X80966Y-54580D01*
X80919Y-54580D01*
X80952Y-51480D02*
X80952Y-51280D01*
X81000Y-51280D01*
X81028Y-51290D01*
X81047Y-51309D01*
X81057Y-51328D01*
X81066Y-51366D01*
X81066Y-51395D01*
X81057Y-51433D01*
X81047Y-51452D01*
X81028Y-51471D01*
X81000Y-51480D01*
X80952Y-51480D01*
X81142Y-51300D02*
X81152Y-51290D01*
X81171Y-51280D01*
X81219Y-51280D01*
X81238Y-51290D01*
X81247Y-51300D01*
X81257Y-51319D01*
X81257Y-51338D01*
X81247Y-51366D01*
X81133Y-51480D01*
X81257Y-51480D01*
X81571Y-51480D02*
X81476Y-51480D01*
X81476Y-51280D01*
X81638Y-51376D02*
X81704Y-51376D01*
X81733Y-51480D02*
X81638Y-51480D01*
X81638Y-51280D01*
X81733Y-51280D01*
X81819Y-51480D02*
X81819Y-51280D01*
X81866Y-51280D01*
X81895Y-51290D01*
X81914Y-51309D01*
X81923Y-51328D01*
X81933Y-51366D01*
X81933Y-51395D01*
X81923Y-51433D01*
X81914Y-51452D01*
X81895Y-51471D01*
X81866Y-51480D01*
X81819Y-51480D01*
G54D18*
X78837Y-52770D02*
X78865Y-52779D01*
X78912Y-52779D01*
X78931Y-52770D01*
X78940Y-52760D01*
X78950Y-52742D01*
X78950Y-52723D01*
X78940Y-52704D01*
X78931Y-52695D01*
X78912Y-52685D01*
X78875Y-52676D01*
X78856Y-52667D01*
X78846Y-52657D01*
X78837Y-52639D01*
X78837Y-52620D01*
X78846Y-52601D01*
X78856Y-52592D01*
X78875Y-52582D01*
X78921Y-52582D01*
X78950Y-52592D01*
X79015Y-52582D02*
X79062Y-52779D01*
X79100Y-52639D01*
X79137Y-52779D01*
X79184Y-52582D01*
X79362Y-52779D02*
X79249Y-52779D01*
X79306Y-52779D02*
X79306Y-52582D01*
X79287Y-52610D01*
X79268Y-52629D01*
X79249Y-52639D01*
X83337Y-52770D02*
X83365Y-52779D01*
X83412Y-52779D01*
X83431Y-52770D01*
X83440Y-52760D01*
X83450Y-52742D01*
X83450Y-52723D01*
X83440Y-52704D01*
X83431Y-52695D01*
X83412Y-52685D01*
X83375Y-52676D01*
X83356Y-52667D01*
X83346Y-52657D01*
X83337Y-52639D01*
X83337Y-52620D01*
X83346Y-52601D01*
X83356Y-52592D01*
X83375Y-52582D01*
X83421Y-52582D01*
X83450Y-52592D01*
X83515Y-52582D02*
X83562Y-52779D01*
X83600Y-52639D01*
X83637Y-52779D01*
X83684Y-52582D01*
X83749Y-52601D02*
X83759Y-52592D01*
X83778Y-52582D01*
X83824Y-52582D01*
X83843Y-52592D01*
X83853Y-52601D01*
X83862Y-52620D01*
X83862Y-52639D01*
X83853Y-52667D01*
X83740Y-52779D01*
X83862Y-52779D01*
M02*
