G04 (created by PCBNEW (22-Jun-2014 BZR 4027)-stable) date Tue 01 Mar 2016 01:37:46 PM CST*
%MOIN*%
G04 Gerber Fmt 3.4, Leading zero omitted, Abs format*
%FSLAX34Y34*%
G01*
G70*
G90*
G04 APERTURE LIST*
%ADD10C,0.00590551*%
%ADD11C,0.00393701*%
%ADD12R,0.0236X0.0551*%
%ADD13R,0.025X0.045*%
%ADD14R,0.045X0.025*%
%ADD15C,0.0708661*%
%ADD16C,0.0748031*%
%ADD17R,0.0314X0.0314*%
%ADD18R,0.055X0.0787402*%
%ADD19C,0.0787402*%
%ADD20R,0.0787402X0.0787402*%
%ADD21C,0.01*%
G04 APERTURE END LIST*
G54D10*
G54D11*
X78500Y-56000D02*
X78500Y-50000D01*
X85000Y-56000D02*
X78500Y-56000D01*
X85000Y-50000D02*
X85000Y-56000D01*
X78500Y-50000D02*
X85000Y-50000D01*
G54D12*
X82750Y-54050D03*
X82750Y-51950D03*
X82250Y-54050D03*
X81750Y-54050D03*
X81250Y-54050D03*
X82250Y-51950D03*
X81750Y-51950D03*
X81250Y-51950D03*
G54D13*
X79800Y-53000D03*
X79200Y-53000D03*
G54D14*
X80380Y-50680D03*
X80380Y-51280D03*
G54D13*
X79200Y-54000D03*
X79800Y-54000D03*
X82200Y-51000D03*
X82800Y-51000D03*
G54D14*
X83490Y-53600D03*
X83490Y-54200D03*
G54D15*
X79450Y-55040D03*
G54D16*
X80450Y-55040D03*
X81450Y-55040D03*
X82450Y-55040D03*
X83450Y-55040D03*
G54D17*
X80445Y-54165D03*
X80445Y-53575D03*
X81035Y-51075D03*
X81625Y-51075D03*
G54D18*
X79500Y-51000D03*
G54D19*
X79500Y-52000D03*
G54D20*
X84000Y-52000D03*
G54D19*
X84000Y-51000D03*
G54D21*
X79500Y-52000D02*
X81200Y-52000D01*
X81200Y-52000D02*
X81250Y-51950D01*
X82800Y-51000D02*
X82800Y-50610D01*
X79550Y-50950D02*
X79500Y-51000D01*
X79550Y-50525D02*
X79550Y-50950D01*
X79695Y-50380D02*
X79550Y-50525D01*
X82570Y-50380D02*
X79695Y-50380D01*
X82800Y-50610D02*
X82570Y-50380D01*
X82800Y-51000D02*
X82800Y-51900D01*
X82800Y-51900D02*
X82750Y-51950D01*
X84000Y-52000D02*
X84000Y-53770D01*
X83900Y-54200D02*
X83490Y-54200D01*
X84010Y-54090D02*
X83900Y-54200D01*
X84010Y-53780D02*
X84010Y-54090D01*
X84000Y-53770D02*
X84010Y-53780D01*
X83490Y-54200D02*
X82900Y-54200D01*
X82900Y-54200D02*
X82750Y-54050D01*
X81450Y-55040D02*
X81450Y-54870D01*
X81250Y-54670D02*
X81250Y-54050D01*
X81450Y-54870D02*
X81250Y-54670D01*
X80450Y-55040D02*
X80450Y-54995D01*
X81750Y-53680D02*
X81750Y-54050D01*
X81585Y-53515D02*
X81750Y-53680D01*
X81010Y-53515D02*
X81585Y-53515D01*
X80880Y-53645D02*
X81010Y-53515D01*
X80880Y-54565D02*
X80880Y-53645D01*
X80450Y-54995D02*
X80880Y-54565D01*
X80380Y-51280D02*
X80830Y-51280D01*
X80830Y-51280D02*
X81035Y-51075D01*
X80445Y-54165D02*
X79965Y-54165D01*
X79965Y-54165D02*
X79800Y-54000D01*
X81750Y-51950D02*
X81750Y-51495D01*
X81625Y-51370D02*
X81625Y-51075D01*
X81750Y-51495D02*
X81625Y-51370D01*
X80445Y-53575D02*
X80460Y-53575D01*
X82250Y-53480D02*
X82250Y-54050D01*
X82060Y-53290D02*
X82250Y-53480D01*
X80745Y-53290D02*
X82060Y-53290D01*
X80460Y-53575D02*
X80745Y-53290D01*
X80380Y-50680D02*
X81980Y-50680D01*
X82200Y-50899D02*
X82200Y-51000D01*
X81980Y-50680D02*
X82200Y-50899D01*
X82250Y-51950D02*
X82250Y-53015D01*
X82250Y-53025D02*
X82250Y-53030D01*
X82255Y-53030D02*
X82250Y-53025D01*
X82265Y-53030D02*
X82255Y-53030D01*
X82250Y-53015D02*
X82265Y-53030D01*
X79200Y-54000D02*
X79200Y-53725D01*
X79200Y-53725D02*
X79340Y-53585D01*
X79340Y-53585D02*
X79600Y-53585D01*
X79600Y-53585D02*
X79735Y-53450D01*
X79735Y-53450D02*
X79735Y-53065D01*
X79735Y-53065D02*
X79770Y-53030D01*
X79770Y-53030D02*
X82250Y-53030D01*
X83470Y-53580D02*
X83490Y-53600D01*
X82250Y-53030D02*
X83355Y-53030D01*
X83355Y-53030D02*
X83470Y-53145D01*
X83470Y-53145D02*
X83470Y-53580D01*
X82200Y-51000D02*
X82250Y-51050D01*
X82250Y-51050D02*
X82250Y-51950D01*
X79200Y-54000D02*
X79200Y-54790D01*
X79200Y-54790D02*
X79450Y-55040D01*
G54D10*
G36*
X84750Y-55850D02*
X84078Y-55850D01*
X84078Y-55139D01*
X84068Y-54891D01*
X83992Y-54707D01*
X83889Y-54671D01*
X83520Y-55040D01*
X83889Y-55408D01*
X83992Y-55372D01*
X84078Y-55139D01*
X84078Y-55850D01*
X83818Y-55850D01*
X83818Y-55479D01*
X83450Y-55110D01*
X83081Y-55479D01*
X83117Y-55582D01*
X83350Y-55668D01*
X83598Y-55658D01*
X83782Y-55582D01*
X83818Y-55479D01*
X83818Y-55850D01*
X78750Y-55850D01*
X78750Y-50150D01*
X79509Y-50150D01*
X79482Y-50167D01*
X79337Y-50312D01*
X79308Y-50356D01*
X79175Y-50356D01*
X79083Y-50394D01*
X79013Y-50464D01*
X78975Y-50556D01*
X78974Y-50655D01*
X78974Y-51443D01*
X79012Y-51535D01*
X79025Y-51547D01*
X79001Y-51571D01*
X79046Y-51616D01*
X78941Y-51655D01*
X78852Y-51895D01*
X78861Y-52151D01*
X78941Y-52344D01*
X79046Y-52383D01*
X79429Y-52000D01*
X79423Y-51994D01*
X79494Y-51923D01*
X79500Y-51929D01*
X79505Y-51923D01*
X79576Y-51994D01*
X79570Y-52000D01*
X79953Y-52383D01*
X80058Y-52344D01*
X80147Y-52104D01*
X80138Y-51848D01*
X80058Y-51655D01*
X79953Y-51616D01*
X79983Y-51587D01*
X80013Y-51616D01*
X80105Y-51654D01*
X80204Y-51655D01*
X80654Y-51655D01*
X80746Y-51617D01*
X80783Y-51580D01*
X80830Y-51580D01*
X80830Y-51579D01*
X80906Y-51564D01*
X80882Y-51624D01*
X80881Y-51724D01*
X80882Y-51837D01*
X80944Y-51900D01*
X81200Y-51900D01*
X81200Y-51892D01*
X81300Y-51892D01*
X81300Y-51900D01*
X81307Y-51900D01*
X81307Y-52000D01*
X81300Y-52000D01*
X81300Y-52413D01*
X81362Y-52475D01*
X81417Y-52475D01*
X81500Y-52441D01*
X81582Y-52475D01*
X81681Y-52475D01*
X81917Y-52475D01*
X81950Y-52462D01*
X81950Y-52730D01*
X81200Y-52730D01*
X81200Y-52413D01*
X81200Y-52000D01*
X80944Y-52000D01*
X80882Y-52062D01*
X80881Y-52175D01*
X80882Y-52275D01*
X80920Y-52367D01*
X80990Y-52437D01*
X81082Y-52475D01*
X81137Y-52475D01*
X81200Y-52413D01*
X81200Y-52730D01*
X80175Y-52730D01*
X80175Y-52725D01*
X80147Y-52660D01*
X80137Y-52633D01*
X80066Y-52563D01*
X79974Y-52525D01*
X79875Y-52524D01*
X79856Y-52524D01*
X79883Y-52453D01*
X79500Y-52070D01*
X79429Y-52141D01*
X79116Y-52453D01*
X79149Y-52543D01*
X79149Y-52587D01*
X79087Y-52525D01*
X79025Y-52524D01*
X78933Y-52562D01*
X78863Y-52633D01*
X78825Y-52725D01*
X78824Y-52824D01*
X78825Y-52887D01*
X78887Y-52950D01*
X79150Y-52950D01*
X79150Y-52942D01*
X79250Y-52942D01*
X79250Y-52950D01*
X79257Y-52950D01*
X79257Y-53050D01*
X79250Y-53050D01*
X79250Y-53057D01*
X79150Y-53057D01*
X79150Y-53050D01*
X78887Y-53050D01*
X78825Y-53112D01*
X78824Y-53175D01*
X78825Y-53274D01*
X78863Y-53366D01*
X78933Y-53437D01*
X79025Y-53475D01*
X79025Y-53475D01*
X78987Y-53512D01*
X78962Y-53551D01*
X78962Y-53551D01*
X78933Y-53562D01*
X78863Y-53633D01*
X78825Y-53725D01*
X78824Y-53824D01*
X78824Y-54274D01*
X78862Y-54366D01*
X78900Y-54403D01*
X78900Y-54788D01*
X78845Y-54919D01*
X78845Y-55159D01*
X78937Y-55381D01*
X79107Y-55552D01*
X79329Y-55644D01*
X79569Y-55644D01*
X79791Y-55552D01*
X79936Y-55408D01*
X80096Y-55568D01*
X80325Y-55663D01*
X80573Y-55664D01*
X80803Y-55569D01*
X80950Y-55422D01*
X81096Y-55568D01*
X81325Y-55663D01*
X81573Y-55664D01*
X81803Y-55569D01*
X81950Y-55422D01*
X82096Y-55568D01*
X82325Y-55663D01*
X82573Y-55664D01*
X82803Y-55569D01*
X82976Y-55396D01*
X83010Y-55408D01*
X83379Y-55040D01*
X83010Y-54671D01*
X82975Y-54683D01*
X82868Y-54575D01*
X82917Y-54575D01*
X83009Y-54537D01*
X83047Y-54500D01*
X83086Y-54500D01*
X83108Y-54522D01*
X83081Y-54600D01*
X83450Y-54969D01*
X83818Y-54600D01*
X83804Y-54558D01*
X83856Y-54537D01*
X83893Y-54500D01*
X83900Y-54500D01*
X83900Y-54499D01*
X84014Y-54477D01*
X84014Y-54477D01*
X84112Y-54412D01*
X84222Y-54302D01*
X84222Y-54302D01*
X84287Y-54204D01*
X84309Y-54090D01*
X84310Y-54090D01*
X84310Y-53780D01*
X84300Y-53729D01*
X84300Y-53729D01*
X84300Y-52643D01*
X84443Y-52643D01*
X84535Y-52605D01*
X84605Y-52535D01*
X84643Y-52443D01*
X84643Y-52344D01*
X84643Y-51556D01*
X84605Y-51464D01*
X84535Y-51394D01*
X84482Y-51372D01*
X84558Y-51344D01*
X84647Y-51104D01*
X84638Y-50848D01*
X84558Y-50655D01*
X84453Y-50616D01*
X84383Y-50687D01*
X84383Y-50546D01*
X84344Y-50441D01*
X84104Y-50352D01*
X83848Y-50361D01*
X83655Y-50441D01*
X83616Y-50546D01*
X84000Y-50929D01*
X84383Y-50546D01*
X84383Y-50687D01*
X84070Y-51000D01*
X84076Y-51005D01*
X84005Y-51076D01*
X84000Y-51070D01*
X83994Y-51076D01*
X83923Y-51005D01*
X83929Y-51000D01*
X83546Y-50616D01*
X83441Y-50655D01*
X83352Y-50895D01*
X83361Y-51151D01*
X83441Y-51344D01*
X83517Y-51372D01*
X83464Y-51394D01*
X83394Y-51464D01*
X83356Y-51556D01*
X83356Y-51655D01*
X83356Y-52443D01*
X83394Y-52535D01*
X83464Y-52605D01*
X83556Y-52643D01*
X83655Y-52643D01*
X83700Y-52643D01*
X83700Y-52959D01*
X83682Y-52932D01*
X83682Y-52932D01*
X83567Y-52817D01*
X83469Y-52752D01*
X83355Y-52730D01*
X82550Y-52730D01*
X82550Y-52462D01*
X82582Y-52475D01*
X82681Y-52475D01*
X82917Y-52475D01*
X83009Y-52437D01*
X83079Y-52367D01*
X83117Y-52275D01*
X83118Y-52175D01*
X83118Y-51624D01*
X83100Y-51581D01*
X83100Y-51403D01*
X83136Y-51366D01*
X83174Y-51274D01*
X83175Y-51175D01*
X83175Y-50725D01*
X83137Y-50633D01*
X83096Y-50593D01*
X83096Y-50593D01*
X83077Y-50495D01*
X83012Y-50397D01*
X83012Y-50397D01*
X82782Y-50167D01*
X82755Y-50150D01*
X84750Y-50150D01*
X84750Y-55850D01*
X84750Y-55850D01*
G37*
G54D21*
X84750Y-55850D02*
X84078Y-55850D01*
X84078Y-55139D01*
X84068Y-54891D01*
X83992Y-54707D01*
X83889Y-54671D01*
X83520Y-55040D01*
X83889Y-55408D01*
X83992Y-55372D01*
X84078Y-55139D01*
X84078Y-55850D01*
X83818Y-55850D01*
X83818Y-55479D01*
X83450Y-55110D01*
X83081Y-55479D01*
X83117Y-55582D01*
X83350Y-55668D01*
X83598Y-55658D01*
X83782Y-55582D01*
X83818Y-55479D01*
X83818Y-55850D01*
X78750Y-55850D01*
X78750Y-50150D01*
X79509Y-50150D01*
X79482Y-50167D01*
X79337Y-50312D01*
X79308Y-50356D01*
X79175Y-50356D01*
X79083Y-50394D01*
X79013Y-50464D01*
X78975Y-50556D01*
X78974Y-50655D01*
X78974Y-51443D01*
X79012Y-51535D01*
X79025Y-51547D01*
X79001Y-51571D01*
X79046Y-51616D01*
X78941Y-51655D01*
X78852Y-51895D01*
X78861Y-52151D01*
X78941Y-52344D01*
X79046Y-52383D01*
X79429Y-52000D01*
X79423Y-51994D01*
X79494Y-51923D01*
X79500Y-51929D01*
X79505Y-51923D01*
X79576Y-51994D01*
X79570Y-52000D01*
X79953Y-52383D01*
X80058Y-52344D01*
X80147Y-52104D01*
X80138Y-51848D01*
X80058Y-51655D01*
X79953Y-51616D01*
X79983Y-51587D01*
X80013Y-51616D01*
X80105Y-51654D01*
X80204Y-51655D01*
X80654Y-51655D01*
X80746Y-51617D01*
X80783Y-51580D01*
X80830Y-51580D01*
X80830Y-51579D01*
X80906Y-51564D01*
X80882Y-51624D01*
X80881Y-51724D01*
X80882Y-51837D01*
X80944Y-51900D01*
X81200Y-51900D01*
X81200Y-51892D01*
X81300Y-51892D01*
X81300Y-51900D01*
X81307Y-51900D01*
X81307Y-52000D01*
X81300Y-52000D01*
X81300Y-52413D01*
X81362Y-52475D01*
X81417Y-52475D01*
X81500Y-52441D01*
X81582Y-52475D01*
X81681Y-52475D01*
X81917Y-52475D01*
X81950Y-52462D01*
X81950Y-52730D01*
X81200Y-52730D01*
X81200Y-52413D01*
X81200Y-52000D01*
X80944Y-52000D01*
X80882Y-52062D01*
X80881Y-52175D01*
X80882Y-52275D01*
X80920Y-52367D01*
X80990Y-52437D01*
X81082Y-52475D01*
X81137Y-52475D01*
X81200Y-52413D01*
X81200Y-52730D01*
X80175Y-52730D01*
X80175Y-52725D01*
X80147Y-52660D01*
X80137Y-52633D01*
X80066Y-52563D01*
X79974Y-52525D01*
X79875Y-52524D01*
X79856Y-52524D01*
X79883Y-52453D01*
X79500Y-52070D01*
X79429Y-52141D01*
X79116Y-52453D01*
X79149Y-52543D01*
X79149Y-52587D01*
X79087Y-52525D01*
X79025Y-52524D01*
X78933Y-52562D01*
X78863Y-52633D01*
X78825Y-52725D01*
X78824Y-52824D01*
X78825Y-52887D01*
X78887Y-52950D01*
X79150Y-52950D01*
X79150Y-52942D01*
X79250Y-52942D01*
X79250Y-52950D01*
X79257Y-52950D01*
X79257Y-53050D01*
X79250Y-53050D01*
X79250Y-53057D01*
X79150Y-53057D01*
X79150Y-53050D01*
X78887Y-53050D01*
X78825Y-53112D01*
X78824Y-53175D01*
X78825Y-53274D01*
X78863Y-53366D01*
X78933Y-53437D01*
X79025Y-53475D01*
X79025Y-53475D01*
X78987Y-53512D01*
X78962Y-53551D01*
X78962Y-53551D01*
X78933Y-53562D01*
X78863Y-53633D01*
X78825Y-53725D01*
X78824Y-53824D01*
X78824Y-54274D01*
X78862Y-54366D01*
X78900Y-54403D01*
X78900Y-54788D01*
X78845Y-54919D01*
X78845Y-55159D01*
X78937Y-55381D01*
X79107Y-55552D01*
X79329Y-55644D01*
X79569Y-55644D01*
X79791Y-55552D01*
X79936Y-55408D01*
X80096Y-55568D01*
X80325Y-55663D01*
X80573Y-55664D01*
X80803Y-55569D01*
X80950Y-55422D01*
X81096Y-55568D01*
X81325Y-55663D01*
X81573Y-55664D01*
X81803Y-55569D01*
X81950Y-55422D01*
X82096Y-55568D01*
X82325Y-55663D01*
X82573Y-55664D01*
X82803Y-55569D01*
X82976Y-55396D01*
X83010Y-55408D01*
X83379Y-55040D01*
X83010Y-54671D01*
X82975Y-54683D01*
X82868Y-54575D01*
X82917Y-54575D01*
X83009Y-54537D01*
X83047Y-54500D01*
X83086Y-54500D01*
X83108Y-54522D01*
X83081Y-54600D01*
X83450Y-54969D01*
X83818Y-54600D01*
X83804Y-54558D01*
X83856Y-54537D01*
X83893Y-54500D01*
X83900Y-54500D01*
X83900Y-54499D01*
X84014Y-54477D01*
X84014Y-54477D01*
X84112Y-54412D01*
X84222Y-54302D01*
X84222Y-54302D01*
X84287Y-54204D01*
X84309Y-54090D01*
X84310Y-54090D01*
X84310Y-53780D01*
X84300Y-53729D01*
X84300Y-53729D01*
X84300Y-52643D01*
X84443Y-52643D01*
X84535Y-52605D01*
X84605Y-52535D01*
X84643Y-52443D01*
X84643Y-52344D01*
X84643Y-51556D01*
X84605Y-51464D01*
X84535Y-51394D01*
X84482Y-51372D01*
X84558Y-51344D01*
X84647Y-51104D01*
X84638Y-50848D01*
X84558Y-50655D01*
X84453Y-50616D01*
X84383Y-50687D01*
X84383Y-50546D01*
X84344Y-50441D01*
X84104Y-50352D01*
X83848Y-50361D01*
X83655Y-50441D01*
X83616Y-50546D01*
X84000Y-50929D01*
X84383Y-50546D01*
X84383Y-50687D01*
X84070Y-51000D01*
X84076Y-51005D01*
X84005Y-51076D01*
X84000Y-51070D01*
X83994Y-51076D01*
X83923Y-51005D01*
X83929Y-51000D01*
X83546Y-50616D01*
X83441Y-50655D01*
X83352Y-50895D01*
X83361Y-51151D01*
X83441Y-51344D01*
X83517Y-51372D01*
X83464Y-51394D01*
X83394Y-51464D01*
X83356Y-51556D01*
X83356Y-51655D01*
X83356Y-52443D01*
X83394Y-52535D01*
X83464Y-52605D01*
X83556Y-52643D01*
X83655Y-52643D01*
X83700Y-52643D01*
X83700Y-52959D01*
X83682Y-52932D01*
X83682Y-52932D01*
X83567Y-52817D01*
X83469Y-52752D01*
X83355Y-52730D01*
X82550Y-52730D01*
X82550Y-52462D01*
X82582Y-52475D01*
X82681Y-52475D01*
X82917Y-52475D01*
X83009Y-52437D01*
X83079Y-52367D01*
X83117Y-52275D01*
X83118Y-52175D01*
X83118Y-51624D01*
X83100Y-51581D01*
X83100Y-51403D01*
X83136Y-51366D01*
X83174Y-51274D01*
X83175Y-51175D01*
X83175Y-50725D01*
X83137Y-50633D01*
X83096Y-50593D01*
X83096Y-50593D01*
X83077Y-50495D01*
X83012Y-50397D01*
X83012Y-50397D01*
X82782Y-50167D01*
X82755Y-50150D01*
X84750Y-50150D01*
X84750Y-55850D01*
M02*
