M48
;DRILL file {Pcbnew (22-Jun-2014 BZR 4027)-stable} date Thu 28 Jun 2018 06:00:09 PM CST
;FORMAT={-:-/ absolute / inch / decimal}
FMAT,2
INCH,TZ
T1C0.016
T2C0.032
%
G90
G05
M72
T1
X12.05Y-9.795
X12.18Y-10.065
X12.18Y-10.21
X12.215Y-10.065
X12.215Y-10.115
X12.23Y-9.93
X12.245Y-10.05
X12.245Y-10.135
X12.255Y-9.905
X12.275Y-10.035
X12.275Y-10.155
X12.305Y-10.02
X12.305Y-10.18
X12.325Y-9.99
X12.335Y-9.85
X12.4Y-10.245
X12.4Y-10.335
X12.405Y-9.895
X12.435Y-10.245
X12.435Y-10.315
X12.45Y-9.9
X12.47Y-10.245
X12.47Y-10.295
X12.475Y-9.88
X12.495Y-9.91
X12.615Y-10.01
X12.63Y-9.925
X12.63Y-9.98
X12.65Y-9.895
X12.655Y-9.95
X12.655Y-10.13
X12.68Y-10.225
X12.68Y-10.275
X12.715Y-9.895
X12.715Y-10.13
X12.715Y-10.22
X12.715Y-10.28
T2
X12.03Y-9.42
X12.13Y-9.42
X12.23Y-9.42
X12.33Y-9.42
X12.43Y-9.42
T0
M30
