G04 (created by PCBNEW (22-Jun-2014 BZR 4027)-stable) date Thu 28 Jun 2018 06:00:14 PM CST*
%MOIN*%
G04 Gerber Fmt 3.4, Leading zero omitted, Abs format*
%FSLAX34Y34*%
G01*
G70*
G90*
G04 APERTURE LIST*
%ADD10C,0.00590551*%
%ADD11C,0.011811*%
%ADD12R,0.055X0.055*%
%ADD13C,0.055*%
%ADD14C,0.023622*%
%ADD15C,0.00708661*%
%ADD16C,0.01*%
G04 APERTURE END LIST*
G54D10*
G54D11*
X121787Y-109489D02*
X121787Y-108898D01*
X122012Y-108898D01*
X122068Y-108926D01*
X122096Y-108954D01*
X122124Y-109010D01*
X122124Y-109095D01*
X122096Y-109151D01*
X122068Y-109179D01*
X122012Y-109207D01*
X121787Y-109207D01*
X122715Y-109432D02*
X122687Y-109460D01*
X122602Y-109489D01*
X122546Y-109489D01*
X122462Y-109460D01*
X122405Y-109404D01*
X122377Y-109348D01*
X122349Y-109235D01*
X122349Y-109151D01*
X122377Y-109039D01*
X122405Y-108982D01*
X122462Y-108926D01*
X122546Y-108898D01*
X122602Y-108898D01*
X122687Y-108926D01*
X122715Y-108954D01*
X123165Y-109179D02*
X123249Y-109207D01*
X123277Y-109235D01*
X123305Y-109292D01*
X123305Y-109376D01*
X123277Y-109432D01*
X123249Y-109460D01*
X123193Y-109489D01*
X122968Y-109489D01*
X122968Y-108898D01*
X123165Y-108898D01*
X123221Y-108926D01*
X123249Y-108954D01*
X123277Y-109010D01*
X123277Y-109067D01*
X123249Y-109123D01*
X123221Y-109151D01*
X123165Y-109179D01*
X122968Y-109179D01*
X123924Y-109095D02*
X124149Y-109095D01*
X124008Y-109489D02*
X124008Y-108982D01*
X124036Y-108926D01*
X124093Y-108898D01*
X124149Y-108898D01*
X124430Y-109489D02*
X124374Y-109460D01*
X124346Y-109432D01*
X124318Y-109376D01*
X124318Y-109207D01*
X124346Y-109151D01*
X124374Y-109123D01*
X124430Y-109095D01*
X124515Y-109095D01*
X124571Y-109123D01*
X124599Y-109151D01*
X124627Y-109207D01*
X124627Y-109376D01*
X124599Y-109432D01*
X124571Y-109460D01*
X124515Y-109489D01*
X124430Y-109489D01*
X124880Y-109489D02*
X124880Y-109095D01*
X124880Y-109207D02*
X124908Y-109151D01*
X124936Y-109123D01*
X124993Y-109095D01*
X125049Y-109095D01*
X125977Y-109489D02*
X125696Y-109489D01*
X125696Y-108898D01*
X126174Y-109489D02*
X126174Y-109095D01*
X126174Y-108898D02*
X126146Y-108926D01*
X126174Y-108954D01*
X126202Y-108926D01*
X126174Y-108898D01*
X126174Y-108954D01*
X126792Y-109432D02*
X126764Y-109460D01*
X126680Y-109489D01*
X126624Y-109489D01*
X126539Y-109460D01*
X126483Y-109404D01*
X126455Y-109348D01*
X126427Y-109235D01*
X126427Y-109151D01*
X126455Y-109039D01*
X126483Y-108982D01*
X126539Y-108926D01*
X126624Y-108898D01*
X126680Y-108898D01*
X126764Y-108926D01*
X126792Y-108954D01*
X127045Y-109489D02*
X127045Y-108898D01*
X127299Y-109489D02*
X127299Y-109179D01*
X127270Y-109123D01*
X127214Y-109095D01*
X127130Y-109095D01*
X127074Y-109123D01*
X127045Y-109151D01*
X127805Y-109460D02*
X127748Y-109489D01*
X127636Y-109489D01*
X127580Y-109460D01*
X127552Y-109404D01*
X127552Y-109179D01*
X127580Y-109123D01*
X127636Y-109095D01*
X127748Y-109095D01*
X127805Y-109123D01*
X127833Y-109179D01*
X127833Y-109235D01*
X127552Y-109292D01*
X128311Y-109460D02*
X128255Y-109489D01*
X128142Y-109489D01*
X128086Y-109460D01*
X128058Y-109404D01*
X128058Y-109179D01*
X128086Y-109123D01*
X128142Y-109095D01*
X128255Y-109095D01*
X128311Y-109123D01*
X128339Y-109179D01*
X128339Y-109235D01*
X128058Y-109292D01*
X128986Y-108898D02*
X129380Y-108898D01*
X128986Y-109489D01*
X129380Y-109489D01*
X129829Y-109460D02*
X129773Y-109489D01*
X129661Y-109489D01*
X129605Y-109460D01*
X129576Y-109404D01*
X129576Y-109179D01*
X129605Y-109123D01*
X129661Y-109095D01*
X129773Y-109095D01*
X129829Y-109123D01*
X129858Y-109179D01*
X129858Y-109235D01*
X129576Y-109292D01*
X130111Y-109489D02*
X130111Y-109095D01*
X130111Y-109207D02*
X130139Y-109151D01*
X130167Y-109123D01*
X130223Y-109095D01*
X130279Y-109095D01*
X130561Y-109489D02*
X130504Y-109460D01*
X130476Y-109432D01*
X130448Y-109376D01*
X130448Y-109207D01*
X130476Y-109151D01*
X130504Y-109123D01*
X130561Y-109095D01*
X130645Y-109095D01*
X130701Y-109123D01*
X130729Y-109151D01*
X130757Y-109207D01*
X130757Y-109376D01*
X130729Y-109432D01*
X130701Y-109460D01*
X130645Y-109489D01*
X130561Y-109489D01*
X131742Y-109489D02*
X131461Y-109489D01*
X131461Y-108898D01*
X132276Y-109432D02*
X132248Y-109460D01*
X132164Y-109489D01*
X132107Y-109489D01*
X132023Y-109460D01*
X131967Y-109404D01*
X131939Y-109348D01*
X131910Y-109235D01*
X131910Y-109151D01*
X131939Y-109039D01*
X131967Y-108982D01*
X132023Y-108926D01*
X132107Y-108898D01*
X132164Y-108898D01*
X132248Y-108926D01*
X132276Y-108954D01*
X132782Y-109489D02*
X132782Y-108898D01*
X132782Y-109460D02*
X132726Y-109489D01*
X132614Y-109489D01*
X132557Y-109460D01*
X132529Y-109432D01*
X132501Y-109376D01*
X132501Y-109207D01*
X132529Y-109151D01*
X132557Y-109123D01*
X132614Y-109095D01*
X132726Y-109095D01*
X132782Y-109123D01*
X133429Y-109095D02*
X133654Y-109095D01*
X133513Y-108898D02*
X133513Y-109404D01*
X133542Y-109460D01*
X133598Y-109489D01*
X133654Y-109489D01*
X133935Y-109489D02*
X133879Y-109460D01*
X133851Y-109432D01*
X133823Y-109376D01*
X133823Y-109207D01*
X133851Y-109151D01*
X133879Y-109123D01*
X133935Y-109095D01*
X134020Y-109095D01*
X134076Y-109123D01*
X134104Y-109151D01*
X134132Y-109207D01*
X134132Y-109376D01*
X134104Y-109432D01*
X134076Y-109460D01*
X134020Y-109489D01*
X133935Y-109489D01*
X134807Y-108954D02*
X134835Y-108926D01*
X134891Y-108898D01*
X135032Y-108898D01*
X135088Y-108926D01*
X135116Y-108954D01*
X135144Y-109010D01*
X135144Y-109067D01*
X135116Y-109151D01*
X134779Y-109489D01*
X135144Y-109489D01*
X135398Y-109432D02*
X135426Y-109460D01*
X135398Y-109489D01*
X135369Y-109460D01*
X135398Y-109432D01*
X135398Y-109489D01*
X135763Y-109151D02*
X135707Y-109123D01*
X135679Y-109095D01*
X135651Y-109039D01*
X135651Y-109010D01*
X135679Y-108954D01*
X135707Y-108926D01*
X135763Y-108898D01*
X135876Y-108898D01*
X135932Y-108926D01*
X135960Y-108954D01*
X135988Y-109010D01*
X135988Y-109039D01*
X135960Y-109095D01*
X135932Y-109123D01*
X135876Y-109151D01*
X135763Y-109151D01*
X135707Y-109179D01*
X135679Y-109207D01*
X135651Y-109264D01*
X135651Y-109376D01*
X135679Y-109432D01*
X135707Y-109460D01*
X135763Y-109489D01*
X135876Y-109489D01*
X135932Y-109460D01*
X135960Y-109432D01*
X135988Y-109376D01*
X135988Y-109264D01*
X135960Y-109207D01*
X135932Y-109179D01*
X135876Y-109151D01*
X136213Y-108898D02*
X136213Y-109010D01*
X136438Y-108898D02*
X136438Y-109010D01*
X137141Y-109489D02*
X137141Y-108898D01*
X137422Y-109489D02*
X137422Y-108898D01*
X137647Y-108898D01*
X137703Y-108926D01*
X137732Y-108954D01*
X137760Y-109010D01*
X137760Y-109095D01*
X137732Y-109151D01*
X137703Y-109179D01*
X137647Y-109207D01*
X137422Y-109207D01*
X137985Y-109460D02*
X138069Y-109489D01*
X138210Y-109489D01*
X138266Y-109460D01*
X138294Y-109432D01*
X138322Y-109376D01*
X138322Y-109320D01*
X138294Y-109264D01*
X138266Y-109235D01*
X138210Y-109207D01*
X138097Y-109179D01*
X138041Y-109151D01*
X138013Y-109123D01*
X137985Y-109067D01*
X137985Y-109010D01*
X138013Y-108954D01*
X138041Y-108926D01*
X138097Y-108898D01*
X138238Y-108898D01*
X138322Y-108926D01*
X138997Y-109460D02*
X139081Y-109489D01*
X139222Y-109489D01*
X139278Y-109460D01*
X139306Y-109432D01*
X139335Y-109376D01*
X139335Y-109320D01*
X139306Y-109264D01*
X139278Y-109235D01*
X139222Y-109207D01*
X139110Y-109179D01*
X139053Y-109151D01*
X139025Y-109123D01*
X138997Y-109067D01*
X138997Y-109010D01*
X139025Y-108954D01*
X139053Y-108926D01*
X139110Y-108898D01*
X139250Y-108898D01*
X139335Y-108926D01*
X139503Y-108898D02*
X139841Y-108898D01*
X139672Y-109489D02*
X139672Y-108898D01*
X139981Y-108898D02*
X140375Y-108898D01*
X140122Y-109489D01*
X140544Y-108898D02*
X140937Y-108898D01*
X140684Y-109489D01*
X141247Y-109151D02*
X141191Y-109123D01*
X141162Y-109095D01*
X141134Y-109039D01*
X141134Y-109010D01*
X141162Y-108954D01*
X141191Y-108926D01*
X141247Y-108898D01*
X141359Y-108898D01*
X141416Y-108926D01*
X141444Y-108954D01*
X141472Y-109010D01*
X141472Y-109039D01*
X141444Y-109095D01*
X141416Y-109123D01*
X141359Y-109151D01*
X141247Y-109151D01*
X141191Y-109179D01*
X141162Y-109207D01*
X141134Y-109264D01*
X141134Y-109376D01*
X141162Y-109432D01*
X141191Y-109460D01*
X141247Y-109489D01*
X141359Y-109489D01*
X141416Y-109460D01*
X141444Y-109432D01*
X141472Y-109376D01*
X141472Y-109264D01*
X141444Y-109207D01*
X141416Y-109179D01*
X141359Y-109151D01*
X141753Y-109489D02*
X141865Y-109489D01*
X141922Y-109460D01*
X141950Y-109432D01*
X142006Y-109348D01*
X142034Y-109235D01*
X142034Y-109010D01*
X142006Y-108954D01*
X141978Y-108926D01*
X141922Y-108898D01*
X141809Y-108898D01*
X141753Y-108926D01*
X141725Y-108954D01*
X141697Y-109010D01*
X141697Y-109151D01*
X141725Y-109207D01*
X141753Y-109235D01*
X141809Y-109264D01*
X141922Y-109264D01*
X141978Y-109235D01*
X142006Y-109207D01*
X142034Y-109151D01*
X142203Y-108898D02*
X142400Y-109489D01*
X142597Y-108898D01*
G54D12*
X124300Y-94200D03*
G54D13*
X123300Y-94200D03*
X122300Y-94200D03*
X121300Y-94200D03*
X120300Y-94200D03*
G54D14*
X126300Y-99250D03*
X124950Y-99100D03*
X121800Y-102100D03*
X121800Y-100650D03*
X124000Y-103350D03*
X124000Y-102450D03*
X124350Y-103150D03*
X124350Y-102450D03*
X124700Y-102950D03*
X124700Y-102450D03*
X126550Y-99500D03*
X124500Y-99000D03*
X126300Y-99800D03*
X124050Y-98950D03*
X122300Y-99300D03*
X123250Y-99900D03*
X126150Y-100100D03*
X122550Y-99050D03*
X123050Y-100200D03*
X123050Y-101800D03*
X122750Y-100350D03*
X122750Y-101550D03*
X122450Y-100500D03*
X122450Y-101350D03*
X122150Y-101150D03*
X122150Y-100650D03*
X120500Y-97950D03*
X123350Y-98500D03*
X127150Y-101300D03*
X126550Y-101300D03*
X127150Y-98950D03*
X126500Y-98950D03*
X127150Y-102800D03*
X127150Y-102200D03*
X124750Y-98800D03*
X126800Y-102750D03*
X126800Y-102250D03*
G54D15*
X126200Y-99350D02*
X126300Y-99250D01*
X125200Y-99350D02*
X126200Y-99350D01*
X124950Y-99100D02*
X125200Y-99350D01*
X121800Y-100650D02*
X121800Y-102100D01*
X124000Y-102450D02*
X124000Y-103350D01*
X124350Y-102450D02*
X124350Y-103150D01*
X124700Y-102450D02*
X124700Y-102950D01*
X126500Y-99550D02*
X126550Y-99500D01*
X125050Y-99550D02*
X126500Y-99550D01*
X124500Y-99000D02*
X125050Y-99550D01*
X124900Y-99800D02*
X126300Y-99800D01*
X124050Y-98950D02*
X124900Y-99800D01*
X122650Y-99300D02*
X122300Y-99300D01*
X123250Y-99900D02*
X122650Y-99300D01*
X123850Y-100100D02*
X126150Y-100100D01*
X122800Y-99050D02*
X123850Y-100100D01*
X122700Y-99050D02*
X122800Y-99050D01*
X122550Y-99050D02*
X122700Y-99050D01*
X123050Y-100200D02*
X123050Y-101800D01*
X122750Y-100350D02*
X122750Y-101550D01*
X122450Y-100500D02*
X122450Y-101350D01*
X122150Y-100650D02*
X122150Y-101150D01*
X122800Y-97950D02*
X120500Y-97950D01*
X123350Y-98500D02*
X122800Y-97950D01*
X126550Y-101300D02*
X127150Y-101300D01*
X126500Y-98950D02*
X127150Y-98950D01*
X127150Y-102200D02*
X127150Y-102800D01*
X121300Y-95350D02*
X121300Y-94200D01*
X124750Y-98800D02*
X121300Y-95350D01*
X126800Y-102250D02*
X126800Y-102750D01*
G54D10*
G36*
X127750Y-105800D02*
X127039Y-105800D01*
X127039Y-102702D01*
X127002Y-102614D01*
X126956Y-102568D01*
X126956Y-102431D01*
X127002Y-102385D01*
X127038Y-102297D01*
X127039Y-102202D01*
X127002Y-102114D01*
X126935Y-102047D01*
X126847Y-102011D01*
X126789Y-102011D01*
X126789Y-99452D01*
X126752Y-99364D01*
X126685Y-99297D01*
X126597Y-99261D01*
X126538Y-99261D01*
X126539Y-99202D01*
X126502Y-99114D01*
X126435Y-99047D01*
X126347Y-99011D01*
X126252Y-99010D01*
X126164Y-99047D01*
X126097Y-99114D01*
X126064Y-99193D01*
X125264Y-99193D01*
X125188Y-99117D01*
X125189Y-99052D01*
X125152Y-98964D01*
X125085Y-98897D01*
X124997Y-98861D01*
X124983Y-98861D01*
X124988Y-98847D01*
X124989Y-98752D01*
X124952Y-98664D01*
X124885Y-98597D01*
X124797Y-98561D01*
X124732Y-98561D01*
X124695Y-98524D01*
X124695Y-94451D01*
X124695Y-93901D01*
X124677Y-93856D01*
X124643Y-93822D01*
X124599Y-93804D01*
X124551Y-93804D01*
X124001Y-93804D01*
X123956Y-93822D01*
X123922Y-93856D01*
X123904Y-93900D01*
X123904Y-93948D01*
X123904Y-94498D01*
X123922Y-94543D01*
X123956Y-94577D01*
X124000Y-94595D01*
X124048Y-94595D01*
X124598Y-94595D01*
X124643Y-94577D01*
X124677Y-94543D01*
X124695Y-94499D01*
X124695Y-94451D01*
X124695Y-98524D01*
X123695Y-97524D01*
X123695Y-94121D01*
X123635Y-93976D01*
X123524Y-93864D01*
X123379Y-93804D01*
X123221Y-93804D01*
X123076Y-93864D01*
X122964Y-93975D01*
X122904Y-94120D01*
X122904Y-94278D01*
X122964Y-94423D01*
X123075Y-94535D01*
X123220Y-94595D01*
X123378Y-94595D01*
X123523Y-94535D01*
X123635Y-94424D01*
X123695Y-94279D01*
X123695Y-94121D01*
X123695Y-97524D01*
X122695Y-96524D01*
X122695Y-94121D01*
X122635Y-93976D01*
X122524Y-93864D01*
X122379Y-93804D01*
X122221Y-93804D01*
X122076Y-93864D01*
X121964Y-93975D01*
X121904Y-94120D01*
X121904Y-94278D01*
X121964Y-94423D01*
X122075Y-94535D01*
X122220Y-94595D01*
X122378Y-94595D01*
X122523Y-94535D01*
X122635Y-94424D01*
X122695Y-94279D01*
X122695Y-94121D01*
X122695Y-96524D01*
X121456Y-95285D01*
X121456Y-94563D01*
X121523Y-94535D01*
X121635Y-94424D01*
X121695Y-94279D01*
X121695Y-94121D01*
X121635Y-93976D01*
X121524Y-93864D01*
X121379Y-93804D01*
X121221Y-93804D01*
X121076Y-93864D01*
X120964Y-93975D01*
X120904Y-94120D01*
X120904Y-94278D01*
X120964Y-94423D01*
X121075Y-94535D01*
X121143Y-94563D01*
X121143Y-95350D01*
X121155Y-95409D01*
X121189Y-95460D01*
X124489Y-98761D01*
X124452Y-98760D01*
X124364Y-98797D01*
X124297Y-98864D01*
X124285Y-98893D01*
X124252Y-98814D01*
X124185Y-98747D01*
X124097Y-98711D01*
X124002Y-98710D01*
X123914Y-98747D01*
X123847Y-98814D01*
X123811Y-98902D01*
X123810Y-98997D01*
X123847Y-99085D01*
X123914Y-99152D01*
X124002Y-99188D01*
X124067Y-99188D01*
X124789Y-99910D01*
X124839Y-99943D01*
X123914Y-99943D01*
X123589Y-99617D01*
X123589Y-98452D01*
X123552Y-98364D01*
X123485Y-98297D01*
X123397Y-98261D01*
X123332Y-98261D01*
X122910Y-97839D01*
X122859Y-97805D01*
X122800Y-97793D01*
X120695Y-97793D01*
X120695Y-94121D01*
X120635Y-93976D01*
X120524Y-93864D01*
X120379Y-93804D01*
X120221Y-93804D01*
X120076Y-93864D01*
X119964Y-93975D01*
X119904Y-94120D01*
X119904Y-94278D01*
X119964Y-94423D01*
X120075Y-94535D01*
X120220Y-94595D01*
X120378Y-94595D01*
X120523Y-94535D01*
X120635Y-94424D01*
X120695Y-94279D01*
X120695Y-94121D01*
X120695Y-97793D01*
X120681Y-97793D01*
X120635Y-97747D01*
X120547Y-97711D01*
X120452Y-97710D01*
X120364Y-97747D01*
X120297Y-97814D01*
X120261Y-97902D01*
X120260Y-97997D01*
X120297Y-98085D01*
X120364Y-98152D01*
X120452Y-98188D01*
X120547Y-98189D01*
X120635Y-98152D01*
X120681Y-98106D01*
X122735Y-98106D01*
X123111Y-98482D01*
X123110Y-98547D01*
X123147Y-98635D01*
X123214Y-98702D01*
X123302Y-98738D01*
X123397Y-98739D01*
X123485Y-98702D01*
X123552Y-98635D01*
X123588Y-98547D01*
X123589Y-98452D01*
X123589Y-99617D01*
X122910Y-98939D01*
X122859Y-98905D01*
X122800Y-98893D01*
X122731Y-98893D01*
X122685Y-98847D01*
X122597Y-98811D01*
X122502Y-98810D01*
X122414Y-98847D01*
X122347Y-98914D01*
X122311Y-99002D01*
X122311Y-99061D01*
X122252Y-99060D01*
X122164Y-99097D01*
X122097Y-99164D01*
X122061Y-99252D01*
X122060Y-99347D01*
X122097Y-99435D01*
X122164Y-99502D01*
X122252Y-99538D01*
X122347Y-99539D01*
X122435Y-99502D01*
X122481Y-99456D01*
X122585Y-99456D01*
X123011Y-99882D01*
X123010Y-99947D01*
X123016Y-99960D01*
X123002Y-99960D01*
X122914Y-99997D01*
X122847Y-100064D01*
X122823Y-100121D01*
X122797Y-100111D01*
X122702Y-100110D01*
X122614Y-100147D01*
X122547Y-100214D01*
X122523Y-100271D01*
X122497Y-100261D01*
X122402Y-100260D01*
X122314Y-100297D01*
X122247Y-100364D01*
X122223Y-100421D01*
X122197Y-100411D01*
X122102Y-100410D01*
X122014Y-100447D01*
X121974Y-100487D01*
X121935Y-100447D01*
X121847Y-100411D01*
X121752Y-100410D01*
X121664Y-100447D01*
X121597Y-100514D01*
X121561Y-100602D01*
X121560Y-100697D01*
X121597Y-100785D01*
X121643Y-100831D01*
X121643Y-101918D01*
X121597Y-101964D01*
X121561Y-102052D01*
X121560Y-102147D01*
X121597Y-102235D01*
X121664Y-102302D01*
X121752Y-102338D01*
X121847Y-102339D01*
X121935Y-102302D01*
X122002Y-102235D01*
X122038Y-102147D01*
X122039Y-102052D01*
X122002Y-101964D01*
X121956Y-101918D01*
X121956Y-101294D01*
X122014Y-101352D01*
X122102Y-101388D01*
X122197Y-101389D01*
X122210Y-101383D01*
X122210Y-101397D01*
X122247Y-101485D01*
X122314Y-101552D01*
X122402Y-101588D01*
X122497Y-101589D01*
X122510Y-101583D01*
X122510Y-101597D01*
X122547Y-101685D01*
X122614Y-101752D01*
X122702Y-101788D01*
X122797Y-101789D01*
X122811Y-101783D01*
X122810Y-101847D01*
X122847Y-101935D01*
X122914Y-102002D01*
X123002Y-102038D01*
X123097Y-102039D01*
X123185Y-102002D01*
X123252Y-101935D01*
X123288Y-101847D01*
X123289Y-101752D01*
X123252Y-101664D01*
X123206Y-101618D01*
X123206Y-100381D01*
X123252Y-100335D01*
X123288Y-100247D01*
X123289Y-100152D01*
X123283Y-100139D01*
X123297Y-100139D01*
X123385Y-100102D01*
X123452Y-100035D01*
X123485Y-99956D01*
X123739Y-100210D01*
X123739Y-100210D01*
X123773Y-100233D01*
X123790Y-100244D01*
X123790Y-100244D01*
X123850Y-100256D01*
X125968Y-100256D01*
X126014Y-100302D01*
X126102Y-100338D01*
X126197Y-100339D01*
X126285Y-100302D01*
X126352Y-100235D01*
X126388Y-100147D01*
X126389Y-100052D01*
X126378Y-100026D01*
X126435Y-100002D01*
X126502Y-99935D01*
X126538Y-99847D01*
X126539Y-99752D01*
X126533Y-99738D01*
X126597Y-99739D01*
X126685Y-99702D01*
X126752Y-99635D01*
X126788Y-99547D01*
X126789Y-99452D01*
X126789Y-102011D01*
X126752Y-102010D01*
X126664Y-102047D01*
X126597Y-102114D01*
X126561Y-102202D01*
X126560Y-102297D01*
X126597Y-102385D01*
X126643Y-102431D01*
X126643Y-102568D01*
X126597Y-102614D01*
X126561Y-102702D01*
X126560Y-102797D01*
X126597Y-102885D01*
X126664Y-102952D01*
X126752Y-102988D01*
X126847Y-102989D01*
X126935Y-102952D01*
X127002Y-102885D01*
X127038Y-102797D01*
X127039Y-102702D01*
X127039Y-105800D01*
X124939Y-105800D01*
X124939Y-102902D01*
X124902Y-102814D01*
X124856Y-102768D01*
X124856Y-102631D01*
X124902Y-102585D01*
X124938Y-102497D01*
X124939Y-102402D01*
X124902Y-102314D01*
X124835Y-102247D01*
X124747Y-102211D01*
X124652Y-102210D01*
X124564Y-102247D01*
X124524Y-102287D01*
X124485Y-102247D01*
X124397Y-102211D01*
X124302Y-102210D01*
X124214Y-102247D01*
X124174Y-102287D01*
X124135Y-102247D01*
X124047Y-102211D01*
X123952Y-102210D01*
X123864Y-102247D01*
X123797Y-102314D01*
X123761Y-102402D01*
X123760Y-102497D01*
X123797Y-102585D01*
X123843Y-102631D01*
X123843Y-103168D01*
X123797Y-103214D01*
X123761Y-103302D01*
X123760Y-103397D01*
X123797Y-103485D01*
X123864Y-103552D01*
X123952Y-103588D01*
X124047Y-103589D01*
X124135Y-103552D01*
X124202Y-103485D01*
X124238Y-103397D01*
X124238Y-103362D01*
X124302Y-103388D01*
X124397Y-103389D01*
X124485Y-103352D01*
X124552Y-103285D01*
X124588Y-103197D01*
X124588Y-103162D01*
X124652Y-103188D01*
X124747Y-103189D01*
X124835Y-103152D01*
X124902Y-103085D01*
X124938Y-102997D01*
X124939Y-102902D01*
X124939Y-105800D01*
X118900Y-105800D01*
X118900Y-93600D01*
X127750Y-93600D01*
X127750Y-105800D01*
X127750Y-105800D01*
G37*
G54D16*
X127750Y-105800D02*
X127039Y-105800D01*
X127039Y-102702D01*
X127002Y-102614D01*
X126956Y-102568D01*
X126956Y-102431D01*
X127002Y-102385D01*
X127038Y-102297D01*
X127039Y-102202D01*
X127002Y-102114D01*
X126935Y-102047D01*
X126847Y-102011D01*
X126789Y-102011D01*
X126789Y-99452D01*
X126752Y-99364D01*
X126685Y-99297D01*
X126597Y-99261D01*
X126538Y-99261D01*
X126539Y-99202D01*
X126502Y-99114D01*
X126435Y-99047D01*
X126347Y-99011D01*
X126252Y-99010D01*
X126164Y-99047D01*
X126097Y-99114D01*
X126064Y-99193D01*
X125264Y-99193D01*
X125188Y-99117D01*
X125189Y-99052D01*
X125152Y-98964D01*
X125085Y-98897D01*
X124997Y-98861D01*
X124983Y-98861D01*
X124988Y-98847D01*
X124989Y-98752D01*
X124952Y-98664D01*
X124885Y-98597D01*
X124797Y-98561D01*
X124732Y-98561D01*
X124695Y-98524D01*
X124695Y-94451D01*
X124695Y-93901D01*
X124677Y-93856D01*
X124643Y-93822D01*
X124599Y-93804D01*
X124551Y-93804D01*
X124001Y-93804D01*
X123956Y-93822D01*
X123922Y-93856D01*
X123904Y-93900D01*
X123904Y-93948D01*
X123904Y-94498D01*
X123922Y-94543D01*
X123956Y-94577D01*
X124000Y-94595D01*
X124048Y-94595D01*
X124598Y-94595D01*
X124643Y-94577D01*
X124677Y-94543D01*
X124695Y-94499D01*
X124695Y-94451D01*
X124695Y-98524D01*
X123695Y-97524D01*
X123695Y-94121D01*
X123635Y-93976D01*
X123524Y-93864D01*
X123379Y-93804D01*
X123221Y-93804D01*
X123076Y-93864D01*
X122964Y-93975D01*
X122904Y-94120D01*
X122904Y-94278D01*
X122964Y-94423D01*
X123075Y-94535D01*
X123220Y-94595D01*
X123378Y-94595D01*
X123523Y-94535D01*
X123635Y-94424D01*
X123695Y-94279D01*
X123695Y-94121D01*
X123695Y-97524D01*
X122695Y-96524D01*
X122695Y-94121D01*
X122635Y-93976D01*
X122524Y-93864D01*
X122379Y-93804D01*
X122221Y-93804D01*
X122076Y-93864D01*
X121964Y-93975D01*
X121904Y-94120D01*
X121904Y-94278D01*
X121964Y-94423D01*
X122075Y-94535D01*
X122220Y-94595D01*
X122378Y-94595D01*
X122523Y-94535D01*
X122635Y-94424D01*
X122695Y-94279D01*
X122695Y-94121D01*
X122695Y-96524D01*
X121456Y-95285D01*
X121456Y-94563D01*
X121523Y-94535D01*
X121635Y-94424D01*
X121695Y-94279D01*
X121695Y-94121D01*
X121635Y-93976D01*
X121524Y-93864D01*
X121379Y-93804D01*
X121221Y-93804D01*
X121076Y-93864D01*
X120964Y-93975D01*
X120904Y-94120D01*
X120904Y-94278D01*
X120964Y-94423D01*
X121075Y-94535D01*
X121143Y-94563D01*
X121143Y-95350D01*
X121155Y-95409D01*
X121189Y-95460D01*
X124489Y-98761D01*
X124452Y-98760D01*
X124364Y-98797D01*
X124297Y-98864D01*
X124285Y-98893D01*
X124252Y-98814D01*
X124185Y-98747D01*
X124097Y-98711D01*
X124002Y-98710D01*
X123914Y-98747D01*
X123847Y-98814D01*
X123811Y-98902D01*
X123810Y-98997D01*
X123847Y-99085D01*
X123914Y-99152D01*
X124002Y-99188D01*
X124067Y-99188D01*
X124789Y-99910D01*
X124839Y-99943D01*
X123914Y-99943D01*
X123589Y-99617D01*
X123589Y-98452D01*
X123552Y-98364D01*
X123485Y-98297D01*
X123397Y-98261D01*
X123332Y-98261D01*
X122910Y-97839D01*
X122859Y-97805D01*
X122800Y-97793D01*
X120695Y-97793D01*
X120695Y-94121D01*
X120635Y-93976D01*
X120524Y-93864D01*
X120379Y-93804D01*
X120221Y-93804D01*
X120076Y-93864D01*
X119964Y-93975D01*
X119904Y-94120D01*
X119904Y-94278D01*
X119964Y-94423D01*
X120075Y-94535D01*
X120220Y-94595D01*
X120378Y-94595D01*
X120523Y-94535D01*
X120635Y-94424D01*
X120695Y-94279D01*
X120695Y-94121D01*
X120695Y-97793D01*
X120681Y-97793D01*
X120635Y-97747D01*
X120547Y-97711D01*
X120452Y-97710D01*
X120364Y-97747D01*
X120297Y-97814D01*
X120261Y-97902D01*
X120260Y-97997D01*
X120297Y-98085D01*
X120364Y-98152D01*
X120452Y-98188D01*
X120547Y-98189D01*
X120635Y-98152D01*
X120681Y-98106D01*
X122735Y-98106D01*
X123111Y-98482D01*
X123110Y-98547D01*
X123147Y-98635D01*
X123214Y-98702D01*
X123302Y-98738D01*
X123397Y-98739D01*
X123485Y-98702D01*
X123552Y-98635D01*
X123588Y-98547D01*
X123589Y-98452D01*
X123589Y-99617D01*
X122910Y-98939D01*
X122859Y-98905D01*
X122800Y-98893D01*
X122731Y-98893D01*
X122685Y-98847D01*
X122597Y-98811D01*
X122502Y-98810D01*
X122414Y-98847D01*
X122347Y-98914D01*
X122311Y-99002D01*
X122311Y-99061D01*
X122252Y-99060D01*
X122164Y-99097D01*
X122097Y-99164D01*
X122061Y-99252D01*
X122060Y-99347D01*
X122097Y-99435D01*
X122164Y-99502D01*
X122252Y-99538D01*
X122347Y-99539D01*
X122435Y-99502D01*
X122481Y-99456D01*
X122585Y-99456D01*
X123011Y-99882D01*
X123010Y-99947D01*
X123016Y-99960D01*
X123002Y-99960D01*
X122914Y-99997D01*
X122847Y-100064D01*
X122823Y-100121D01*
X122797Y-100111D01*
X122702Y-100110D01*
X122614Y-100147D01*
X122547Y-100214D01*
X122523Y-100271D01*
X122497Y-100261D01*
X122402Y-100260D01*
X122314Y-100297D01*
X122247Y-100364D01*
X122223Y-100421D01*
X122197Y-100411D01*
X122102Y-100410D01*
X122014Y-100447D01*
X121974Y-100487D01*
X121935Y-100447D01*
X121847Y-100411D01*
X121752Y-100410D01*
X121664Y-100447D01*
X121597Y-100514D01*
X121561Y-100602D01*
X121560Y-100697D01*
X121597Y-100785D01*
X121643Y-100831D01*
X121643Y-101918D01*
X121597Y-101964D01*
X121561Y-102052D01*
X121560Y-102147D01*
X121597Y-102235D01*
X121664Y-102302D01*
X121752Y-102338D01*
X121847Y-102339D01*
X121935Y-102302D01*
X122002Y-102235D01*
X122038Y-102147D01*
X122039Y-102052D01*
X122002Y-101964D01*
X121956Y-101918D01*
X121956Y-101294D01*
X122014Y-101352D01*
X122102Y-101388D01*
X122197Y-101389D01*
X122210Y-101383D01*
X122210Y-101397D01*
X122247Y-101485D01*
X122314Y-101552D01*
X122402Y-101588D01*
X122497Y-101589D01*
X122510Y-101583D01*
X122510Y-101597D01*
X122547Y-101685D01*
X122614Y-101752D01*
X122702Y-101788D01*
X122797Y-101789D01*
X122811Y-101783D01*
X122810Y-101847D01*
X122847Y-101935D01*
X122914Y-102002D01*
X123002Y-102038D01*
X123097Y-102039D01*
X123185Y-102002D01*
X123252Y-101935D01*
X123288Y-101847D01*
X123289Y-101752D01*
X123252Y-101664D01*
X123206Y-101618D01*
X123206Y-100381D01*
X123252Y-100335D01*
X123288Y-100247D01*
X123289Y-100152D01*
X123283Y-100139D01*
X123297Y-100139D01*
X123385Y-100102D01*
X123452Y-100035D01*
X123485Y-99956D01*
X123739Y-100210D01*
X123739Y-100210D01*
X123773Y-100233D01*
X123790Y-100244D01*
X123790Y-100244D01*
X123850Y-100256D01*
X125968Y-100256D01*
X126014Y-100302D01*
X126102Y-100338D01*
X126197Y-100339D01*
X126285Y-100302D01*
X126352Y-100235D01*
X126388Y-100147D01*
X126389Y-100052D01*
X126378Y-100026D01*
X126435Y-100002D01*
X126502Y-99935D01*
X126538Y-99847D01*
X126539Y-99752D01*
X126533Y-99738D01*
X126597Y-99739D01*
X126685Y-99702D01*
X126752Y-99635D01*
X126788Y-99547D01*
X126789Y-99452D01*
X126789Y-102011D01*
X126752Y-102010D01*
X126664Y-102047D01*
X126597Y-102114D01*
X126561Y-102202D01*
X126560Y-102297D01*
X126597Y-102385D01*
X126643Y-102431D01*
X126643Y-102568D01*
X126597Y-102614D01*
X126561Y-102702D01*
X126560Y-102797D01*
X126597Y-102885D01*
X126664Y-102952D01*
X126752Y-102988D01*
X126847Y-102989D01*
X126935Y-102952D01*
X127002Y-102885D01*
X127038Y-102797D01*
X127039Y-102702D01*
X127039Y-105800D01*
X124939Y-105800D01*
X124939Y-102902D01*
X124902Y-102814D01*
X124856Y-102768D01*
X124856Y-102631D01*
X124902Y-102585D01*
X124938Y-102497D01*
X124939Y-102402D01*
X124902Y-102314D01*
X124835Y-102247D01*
X124747Y-102211D01*
X124652Y-102210D01*
X124564Y-102247D01*
X124524Y-102287D01*
X124485Y-102247D01*
X124397Y-102211D01*
X124302Y-102210D01*
X124214Y-102247D01*
X124174Y-102287D01*
X124135Y-102247D01*
X124047Y-102211D01*
X123952Y-102210D01*
X123864Y-102247D01*
X123797Y-102314D01*
X123761Y-102402D01*
X123760Y-102497D01*
X123797Y-102585D01*
X123843Y-102631D01*
X123843Y-103168D01*
X123797Y-103214D01*
X123761Y-103302D01*
X123760Y-103397D01*
X123797Y-103485D01*
X123864Y-103552D01*
X123952Y-103588D01*
X124047Y-103589D01*
X124135Y-103552D01*
X124202Y-103485D01*
X124238Y-103397D01*
X124238Y-103362D01*
X124302Y-103388D01*
X124397Y-103389D01*
X124485Y-103352D01*
X124552Y-103285D01*
X124588Y-103197D01*
X124588Y-103162D01*
X124652Y-103188D01*
X124747Y-103189D01*
X124835Y-103152D01*
X124902Y-103085D01*
X124938Y-102997D01*
X124939Y-102902D01*
X124939Y-105800D01*
X118900Y-105800D01*
X118900Y-93600D01*
X127750Y-93600D01*
X127750Y-105800D01*
M02*
