G04 (created by PCBNEW (22-Jun-2014 BZR 4027)-stable) date Thu 28 Jun 2018 06:00:14 PM CST*
%MOIN*%
G04 Gerber Fmt 3.4, Leading zero omitted, Abs format*
%FSLAX34Y34*%
G01*
G70*
G90*
G04 APERTURE LIST*
%ADD10C,0.00590551*%
%ADD11R,0.055X0.055*%
%ADD12C,0.055*%
G04 APERTURE END LIST*
G54D10*
G54D11*
X124300Y-94200D03*
G54D12*
X123300Y-94200D03*
X122300Y-94200D03*
X121300Y-94200D03*
X120300Y-94200D03*
G54D10*
G36*
X125846Y-104509D02*
X125453Y-104509D01*
X125453Y-104390D01*
X125846Y-104390D01*
X125846Y-104509D01*
X125846Y-104509D01*
G37*
G36*
X125846Y-104312D02*
X125453Y-104312D01*
X125453Y-104194D01*
X125846Y-104194D01*
X125846Y-104312D01*
X125846Y-104312D01*
G37*
G36*
X125846Y-104115D02*
X125453Y-104115D01*
X125453Y-103997D01*
X125846Y-103997D01*
X125846Y-104115D01*
X125846Y-104115D01*
G37*
G36*
X125846Y-103918D02*
X125453Y-103918D01*
X125453Y-103800D01*
X125846Y-103800D01*
X125846Y-103918D01*
X125846Y-103918D01*
G37*
G36*
X125846Y-103721D02*
X125453Y-103721D01*
X125453Y-103603D01*
X125846Y-103603D01*
X125846Y-103721D01*
X125846Y-103721D01*
G37*
G36*
X125846Y-103524D02*
X125453Y-103524D01*
X125453Y-103406D01*
X125846Y-103406D01*
X125846Y-103524D01*
X125846Y-103524D01*
G37*
G36*
X125846Y-103327D02*
X125453Y-103327D01*
X125453Y-103209D01*
X125846Y-103209D01*
X125846Y-103327D01*
X125846Y-103327D01*
G37*
G36*
X125846Y-103131D02*
X125453Y-103131D01*
X125453Y-103012D01*
X125846Y-103012D01*
X125846Y-103131D01*
X125846Y-103131D01*
G37*
G36*
X125846Y-102934D02*
X125453Y-102934D01*
X125453Y-102816D01*
X125846Y-102816D01*
X125846Y-102934D01*
X125846Y-102934D01*
G37*
G36*
X125846Y-102737D02*
X125453Y-102737D01*
X125453Y-102619D01*
X125846Y-102619D01*
X125846Y-102737D01*
X125846Y-102737D01*
G37*
G36*
X125846Y-102540D02*
X125453Y-102540D01*
X125453Y-102422D01*
X125846Y-102422D01*
X125846Y-102540D01*
X125846Y-102540D01*
G37*
G36*
X125846Y-102343D02*
X125453Y-102343D01*
X125453Y-102225D01*
X125846Y-102225D01*
X125846Y-102343D01*
X125846Y-102343D01*
G37*
G36*
X125846Y-102146D02*
X125453Y-102146D01*
X125453Y-102028D01*
X125846Y-102028D01*
X125846Y-102146D01*
X125846Y-102146D01*
G37*
G36*
X125846Y-101950D02*
X125453Y-101950D01*
X125453Y-101831D01*
X125846Y-101831D01*
X125846Y-101950D01*
X125846Y-101950D01*
G37*
G36*
X125846Y-101753D02*
X125453Y-101753D01*
X125453Y-101635D01*
X125846Y-101635D01*
X125846Y-101753D01*
X125846Y-101753D01*
G37*
G36*
X125846Y-101556D02*
X125453Y-101556D01*
X125453Y-101438D01*
X125846Y-101438D01*
X125846Y-101556D01*
X125846Y-101556D01*
G37*
G36*
X125846Y-101359D02*
X125453Y-101359D01*
X125453Y-101241D01*
X125846Y-101241D01*
X125846Y-101359D01*
X125846Y-101359D01*
G37*
G36*
X125846Y-101162D02*
X125453Y-101162D01*
X125453Y-101044D01*
X125846Y-101044D01*
X125846Y-101162D01*
X125846Y-101162D01*
G37*
G36*
X125846Y-100965D02*
X125453Y-100965D01*
X125453Y-100847D01*
X125846Y-100847D01*
X125846Y-100965D01*
X125846Y-100965D01*
G37*
G36*
X125846Y-100768D02*
X125453Y-100768D01*
X125453Y-100650D01*
X125846Y-100650D01*
X125846Y-100768D01*
X125846Y-100768D01*
G37*
G36*
X125846Y-100572D02*
X125453Y-100572D01*
X125453Y-100453D01*
X125846Y-100453D01*
X125846Y-100572D01*
X125846Y-100572D01*
G37*
G36*
X125846Y-100375D02*
X125453Y-100375D01*
X125453Y-100257D01*
X125846Y-100257D01*
X125846Y-100375D01*
X125846Y-100375D01*
G37*
G36*
X125846Y-100178D02*
X125453Y-100178D01*
X125453Y-100060D01*
X125846Y-100060D01*
X125846Y-100178D01*
X125846Y-100178D01*
G37*
G36*
X125846Y-99981D02*
X125453Y-99981D01*
X125453Y-99863D01*
X125846Y-99863D01*
X125846Y-99981D01*
X125846Y-99981D01*
G37*
G36*
X125846Y-99784D02*
X125453Y-99784D01*
X125453Y-99666D01*
X125846Y-99666D01*
X125846Y-99784D01*
X125846Y-99784D01*
G37*
G36*
X125846Y-99587D02*
X125453Y-99587D01*
X125453Y-99469D01*
X125846Y-99469D01*
X125846Y-99587D01*
X125846Y-99587D01*
G37*
G36*
X125846Y-99390D02*
X125453Y-99390D01*
X125453Y-99272D01*
X125846Y-99272D01*
X125846Y-99390D01*
X125846Y-99390D01*
G37*
G36*
X125846Y-99194D02*
X125453Y-99194D01*
X125453Y-99075D01*
X125846Y-99075D01*
X125846Y-99194D01*
X125846Y-99194D01*
G37*
G36*
X125846Y-98997D02*
X125453Y-98997D01*
X125453Y-98879D01*
X125846Y-98879D01*
X125846Y-98997D01*
X125846Y-98997D01*
G37*
G36*
X125846Y-98800D02*
X125453Y-98800D01*
X125453Y-98682D01*
X125846Y-98682D01*
X125846Y-98800D01*
X125846Y-98800D01*
G37*
G36*
X125846Y-98603D02*
X125453Y-98603D01*
X125453Y-98485D01*
X125846Y-98485D01*
X125846Y-98603D01*
X125846Y-98603D01*
G37*
G36*
X125846Y-98406D02*
X125453Y-98406D01*
X125453Y-98288D01*
X125846Y-98288D01*
X125846Y-98406D01*
X125846Y-98406D01*
G37*
G36*
X125846Y-98209D02*
X125453Y-98209D01*
X125453Y-98091D01*
X125846Y-98091D01*
X125846Y-98209D01*
X125846Y-98209D01*
G37*
G36*
X125846Y-98012D02*
X125453Y-98012D01*
X125453Y-97894D01*
X125846Y-97894D01*
X125846Y-98012D01*
X125846Y-98012D01*
G37*
G36*
X125846Y-97816D02*
X125453Y-97816D01*
X125453Y-97698D01*
X125846Y-97698D01*
X125846Y-97816D01*
X125846Y-97816D01*
G37*
G36*
X125846Y-97619D02*
X125453Y-97619D01*
X125453Y-97501D01*
X125846Y-97501D01*
X125846Y-97619D01*
X125846Y-97619D01*
G37*
G36*
X125846Y-97422D02*
X125453Y-97422D01*
X125453Y-97304D01*
X125846Y-97304D01*
X125846Y-97422D01*
X125846Y-97422D01*
G37*
G36*
X125846Y-97225D02*
X125453Y-97225D01*
X125453Y-97107D01*
X125846Y-97107D01*
X125846Y-97225D01*
X125846Y-97225D01*
G37*
G36*
X125846Y-97028D02*
X125453Y-97028D01*
X125453Y-96910D01*
X125846Y-96910D01*
X125846Y-97028D01*
X125846Y-97028D01*
G37*
G36*
X125846Y-96831D02*
X125453Y-96831D01*
X125453Y-96713D01*
X125846Y-96713D01*
X125846Y-96831D01*
X125846Y-96831D01*
G37*
G36*
X125846Y-96635D02*
X125453Y-96635D01*
X125453Y-96516D01*
X125846Y-96516D01*
X125846Y-96635D01*
X125846Y-96635D01*
G37*
G36*
X125846Y-96438D02*
X125453Y-96438D01*
X125453Y-96320D01*
X125846Y-96320D01*
X125846Y-96438D01*
X125846Y-96438D01*
G37*
G36*
X125846Y-96241D02*
X125453Y-96241D01*
X125453Y-96123D01*
X125846Y-96123D01*
X125846Y-96241D01*
X125846Y-96241D01*
G37*
G36*
X125846Y-96044D02*
X125453Y-96044D01*
X125453Y-95926D01*
X125846Y-95926D01*
X125846Y-96044D01*
X125846Y-96044D01*
G37*
G36*
X125846Y-95847D02*
X125453Y-95847D01*
X125453Y-95729D01*
X125846Y-95729D01*
X125846Y-95847D01*
X125846Y-95847D01*
G37*
G36*
X127146Y-105631D02*
X125964Y-105631D01*
X125964Y-104843D01*
X127146Y-104843D01*
X127146Y-105631D01*
X127146Y-105631D01*
G37*
G36*
X127146Y-95394D02*
X125964Y-95394D01*
X125964Y-94607D01*
X127146Y-94607D01*
X127146Y-95394D01*
X127146Y-95394D01*
G37*
G36*
X120803Y-96725D02*
X121196Y-96725D01*
X121196Y-96843D01*
X120803Y-96843D01*
X120803Y-96725D01*
X120803Y-96725D01*
G37*
G36*
X120803Y-96922D02*
X121196Y-96922D01*
X121196Y-97040D01*
X120803Y-97040D01*
X120803Y-96922D01*
X120803Y-96922D01*
G37*
G36*
X120803Y-97118D02*
X121196Y-97118D01*
X121196Y-97237D01*
X120803Y-97237D01*
X120803Y-97118D01*
X120803Y-97118D01*
G37*
G36*
X120803Y-97315D02*
X121196Y-97315D01*
X121196Y-97433D01*
X120803Y-97433D01*
X120803Y-97315D01*
X120803Y-97315D01*
G37*
G36*
X120803Y-97512D02*
X121196Y-97512D01*
X121196Y-97630D01*
X120803Y-97630D01*
X120803Y-97512D01*
X120803Y-97512D01*
G37*
G36*
X120803Y-97709D02*
X121196Y-97709D01*
X121196Y-97827D01*
X120803Y-97827D01*
X120803Y-97709D01*
X120803Y-97709D01*
G37*
G36*
X120803Y-97906D02*
X121196Y-97906D01*
X121196Y-98024D01*
X120803Y-98024D01*
X120803Y-97906D01*
X120803Y-97906D01*
G37*
G36*
X120803Y-98103D02*
X121196Y-98103D01*
X121196Y-98221D01*
X120803Y-98221D01*
X120803Y-98103D01*
X120803Y-98103D01*
G37*
G36*
X120803Y-98300D02*
X121196Y-98300D01*
X121196Y-98418D01*
X120803Y-98418D01*
X120803Y-98300D01*
X120803Y-98300D01*
G37*
G36*
X120803Y-98496D02*
X121196Y-98496D01*
X121196Y-98614D01*
X120803Y-98614D01*
X120803Y-98496D01*
X120803Y-98496D01*
G37*
G36*
X120803Y-98693D02*
X121196Y-98693D01*
X121196Y-98811D01*
X120803Y-98811D01*
X120803Y-98693D01*
X120803Y-98693D01*
G37*
G36*
X120803Y-98890D02*
X121196Y-98890D01*
X121196Y-99008D01*
X120803Y-99008D01*
X120803Y-98890D01*
X120803Y-98890D01*
G37*
G36*
X120803Y-99087D02*
X121196Y-99087D01*
X121196Y-99205D01*
X120803Y-99205D01*
X120803Y-99087D01*
X120803Y-99087D01*
G37*
G36*
X120803Y-99284D02*
X121196Y-99284D01*
X121196Y-99402D01*
X120803Y-99402D01*
X120803Y-99284D01*
X120803Y-99284D01*
G37*
G36*
X120803Y-99481D02*
X121196Y-99481D01*
X121196Y-99599D01*
X120803Y-99599D01*
X120803Y-99481D01*
X120803Y-99481D01*
G37*
G36*
X120803Y-99677D02*
X121196Y-99677D01*
X121196Y-99796D01*
X120803Y-99796D01*
X120803Y-99677D01*
X120803Y-99677D01*
G37*
G36*
X120803Y-99874D02*
X121196Y-99874D01*
X121196Y-99992D01*
X120803Y-99992D01*
X120803Y-99874D01*
X120803Y-99874D01*
G37*
G36*
X120803Y-100071D02*
X121196Y-100071D01*
X121196Y-100189D01*
X120803Y-100189D01*
X120803Y-100071D01*
X120803Y-100071D01*
G37*
G36*
X120803Y-100268D02*
X121196Y-100268D01*
X121196Y-100386D01*
X120803Y-100386D01*
X120803Y-100268D01*
X120803Y-100268D01*
G37*
G36*
X120803Y-100465D02*
X121196Y-100465D01*
X121196Y-100583D01*
X120803Y-100583D01*
X120803Y-100465D01*
X120803Y-100465D01*
G37*
G36*
X120803Y-100662D02*
X121196Y-100662D01*
X121196Y-100780D01*
X120803Y-100780D01*
X120803Y-100662D01*
X120803Y-100662D01*
G37*
G36*
X120803Y-100859D02*
X121196Y-100859D01*
X121196Y-100977D01*
X120803Y-100977D01*
X120803Y-100859D01*
X120803Y-100859D01*
G37*
G36*
X120803Y-101055D02*
X121196Y-101055D01*
X121196Y-101174D01*
X120803Y-101174D01*
X120803Y-101055D01*
X120803Y-101055D01*
G37*
G36*
X120803Y-101252D02*
X121196Y-101252D01*
X121196Y-101370D01*
X120803Y-101370D01*
X120803Y-101252D01*
X120803Y-101252D01*
G37*
G36*
X120803Y-101449D02*
X121196Y-101449D01*
X121196Y-101567D01*
X120803Y-101567D01*
X120803Y-101449D01*
X120803Y-101449D01*
G37*
G36*
X120803Y-101646D02*
X121196Y-101646D01*
X121196Y-101764D01*
X120803Y-101764D01*
X120803Y-101646D01*
X120803Y-101646D01*
G37*
G36*
X120803Y-101843D02*
X121196Y-101843D01*
X121196Y-101961D01*
X120803Y-101961D01*
X120803Y-101843D01*
X120803Y-101843D01*
G37*
G36*
X120803Y-102040D02*
X121196Y-102040D01*
X121196Y-102158D01*
X120803Y-102158D01*
X120803Y-102040D01*
X120803Y-102040D01*
G37*
G36*
X120803Y-102237D02*
X121196Y-102237D01*
X121196Y-102355D01*
X120803Y-102355D01*
X120803Y-102237D01*
X120803Y-102237D01*
G37*
G36*
X120803Y-102433D02*
X121196Y-102433D01*
X121196Y-102551D01*
X120803Y-102551D01*
X120803Y-102433D01*
X120803Y-102433D01*
G37*
G36*
X120803Y-102630D02*
X121196Y-102630D01*
X121196Y-102748D01*
X120803Y-102748D01*
X120803Y-102630D01*
X120803Y-102630D01*
G37*
G36*
X120803Y-102827D02*
X121196Y-102827D01*
X121196Y-102945D01*
X120803Y-102945D01*
X120803Y-102827D01*
X120803Y-102827D01*
G37*
G36*
X120803Y-103024D02*
X121196Y-103024D01*
X121196Y-103142D01*
X120803Y-103142D01*
X120803Y-103024D01*
X120803Y-103024D01*
G37*
G36*
X120803Y-103221D02*
X121196Y-103221D01*
X121196Y-103339D01*
X120803Y-103339D01*
X120803Y-103221D01*
X120803Y-103221D01*
G37*
G36*
X120803Y-103418D02*
X121196Y-103418D01*
X121196Y-103536D01*
X120803Y-103536D01*
X120803Y-103418D01*
X120803Y-103418D01*
G37*
G36*
X120803Y-103614D02*
X121196Y-103614D01*
X121196Y-103733D01*
X120803Y-103733D01*
X120803Y-103614D01*
X120803Y-103614D01*
G37*
G36*
X120803Y-103811D02*
X121196Y-103811D01*
X121196Y-103929D01*
X120803Y-103929D01*
X120803Y-103811D01*
X120803Y-103811D01*
G37*
G36*
X120803Y-104008D02*
X121196Y-104008D01*
X121196Y-104126D01*
X120803Y-104126D01*
X120803Y-104008D01*
X120803Y-104008D01*
G37*
G36*
X120803Y-104205D02*
X121196Y-104205D01*
X121196Y-104323D01*
X120803Y-104323D01*
X120803Y-104205D01*
X120803Y-104205D01*
G37*
G36*
X120803Y-104402D02*
X121196Y-104402D01*
X121196Y-104520D01*
X120803Y-104520D01*
X120803Y-104402D01*
X120803Y-104402D01*
G37*
G36*
X119509Y-95606D02*
X120690Y-95606D01*
X120690Y-96393D01*
X119509Y-96393D01*
X119509Y-95606D01*
X119509Y-95606D01*
G37*
G36*
X119503Y-104855D02*
X120685Y-104855D01*
X120685Y-105642D01*
X119503Y-105642D01*
X119503Y-104855D01*
X119503Y-104855D01*
G37*
M02*
