G04 (created by PCBNEW (22-Jun-2014 BZR 4027)-stable) date Thu 28 Jun 2018 06:28:58 PM CST*
%MOIN*%
G04 Gerber Fmt 3.4, Leading zero omitted, Abs format*
%FSLAX34Y34*%
G01*
G70*
G90*
G04 APERTURE LIST*
%ADD10C,0.00393701*%
%ADD11C,0.011811*%
G04 APERTURE END LIST*
G54D10*
G54D11*
X132859Y-105520D02*
X132522Y-105520D01*
X132690Y-105520D02*
X132690Y-104929D01*
X132634Y-105014D01*
X132578Y-105070D01*
X132522Y-105098D01*
X133084Y-104986D02*
X133112Y-104958D01*
X133169Y-104929D01*
X133309Y-104929D01*
X133365Y-104958D01*
X133393Y-104986D01*
X133422Y-105042D01*
X133422Y-105098D01*
X133393Y-105183D01*
X133056Y-105520D01*
X133422Y-105520D01*
X133787Y-104929D02*
X133843Y-104929D01*
X133900Y-104958D01*
X133928Y-104986D01*
X133956Y-105042D01*
X133984Y-105154D01*
X133984Y-105295D01*
X133956Y-105408D01*
X133928Y-105464D01*
X133900Y-105492D01*
X133843Y-105520D01*
X133787Y-105520D01*
X133731Y-105492D01*
X133703Y-105464D01*
X133675Y-105408D01*
X133647Y-105295D01*
X133647Y-105154D01*
X133675Y-105042D01*
X133703Y-104986D01*
X133731Y-104958D01*
X133787Y-104929D01*
X134237Y-105464D02*
X134265Y-105492D01*
X134237Y-105520D01*
X134209Y-105492D01*
X134237Y-105464D01*
X134237Y-105520D01*
X134771Y-104929D02*
X134659Y-104929D01*
X134603Y-104958D01*
X134575Y-104986D01*
X134518Y-105070D01*
X134490Y-105183D01*
X134490Y-105408D01*
X134518Y-105464D01*
X134546Y-105492D01*
X134603Y-105520D01*
X134715Y-105520D01*
X134771Y-105492D01*
X134800Y-105464D01*
X134828Y-105408D01*
X134828Y-105267D01*
X134800Y-105211D01*
X134771Y-105183D01*
X134715Y-105154D01*
X134603Y-105154D01*
X134546Y-105183D01*
X134518Y-105211D01*
X134490Y-105267D01*
X135362Y-104929D02*
X135081Y-104929D01*
X135053Y-105211D01*
X135081Y-105183D01*
X135137Y-105154D01*
X135278Y-105154D01*
X135334Y-105183D01*
X135362Y-105211D01*
X135390Y-105267D01*
X135390Y-105408D01*
X135362Y-105464D01*
X135334Y-105492D01*
X135278Y-105520D01*
X135137Y-105520D01*
X135081Y-105492D01*
X135053Y-105464D01*
X135756Y-104929D02*
X135812Y-104929D01*
X135868Y-104958D01*
X135896Y-104986D01*
X135924Y-105042D01*
X135953Y-105154D01*
X135953Y-105295D01*
X135924Y-105408D01*
X135896Y-105464D01*
X135868Y-105492D01*
X135812Y-105520D01*
X135756Y-105520D01*
X135699Y-105492D01*
X135671Y-105464D01*
X135643Y-105408D01*
X135615Y-105295D01*
X135615Y-105154D01*
X135643Y-105042D01*
X135671Y-104986D01*
X135699Y-104958D01*
X135756Y-104929D01*
X136656Y-105520D02*
X136656Y-105126D01*
X136656Y-105183D02*
X136684Y-105154D01*
X136740Y-105126D01*
X136824Y-105126D01*
X136881Y-105154D01*
X136909Y-105211D01*
X136909Y-105520D01*
X136909Y-105211D02*
X136937Y-105154D01*
X136993Y-105126D01*
X137077Y-105126D01*
X137134Y-105154D01*
X137162Y-105211D01*
X137162Y-105520D01*
X137443Y-105520D02*
X137443Y-105126D01*
X137443Y-105183D02*
X137471Y-105154D01*
X137527Y-105126D01*
X137612Y-105126D01*
X137668Y-105154D01*
X137696Y-105211D01*
X137696Y-105520D01*
X137696Y-105211D02*
X137724Y-105154D01*
X137780Y-105126D01*
X137865Y-105126D01*
X137921Y-105154D01*
X137949Y-105211D01*
X137949Y-105520D01*
X111500Y-104749D02*
X159000Y-104749D01*
X111500Y-104250D02*
X111500Y-105812D01*
X159000Y-104250D02*
X159000Y-105812D01*
X159000Y-104749D02*
X158556Y-104980D01*
X159000Y-104749D02*
X158556Y-104519D01*
X111500Y-104749D02*
X111943Y-104980D01*
X111500Y-104749D02*
X111943Y-104519D01*
X110263Y-96303D02*
X110291Y-96331D01*
X110320Y-96387D01*
X110320Y-96528D01*
X110291Y-96584D01*
X110263Y-96612D01*
X110207Y-96640D01*
X110151Y-96640D01*
X110066Y-96612D01*
X109729Y-96275D01*
X109729Y-96640D01*
X110320Y-97175D02*
X110320Y-96893D01*
X110038Y-96865D01*
X110066Y-96893D01*
X110095Y-96950D01*
X110095Y-97090D01*
X110066Y-97147D01*
X110038Y-97175D01*
X109982Y-97203D01*
X109841Y-97203D01*
X109785Y-97175D01*
X109757Y-97147D01*
X109729Y-97090D01*
X109729Y-96950D01*
X109757Y-96893D01*
X109785Y-96865D01*
X109785Y-97456D02*
X109757Y-97484D01*
X109729Y-97456D01*
X109757Y-97428D01*
X109785Y-97456D01*
X109729Y-97456D01*
X110123Y-97990D02*
X109729Y-97990D01*
X110348Y-97850D02*
X109926Y-97709D01*
X109926Y-98075D01*
X110320Y-98412D02*
X110320Y-98468D01*
X110291Y-98525D01*
X110263Y-98553D01*
X110207Y-98581D01*
X110095Y-98609D01*
X109954Y-98609D01*
X109841Y-98581D01*
X109785Y-98553D01*
X109757Y-98525D01*
X109729Y-98468D01*
X109729Y-98412D01*
X109757Y-98356D01*
X109785Y-98328D01*
X109841Y-98300D01*
X109954Y-98271D01*
X110095Y-98271D01*
X110207Y-98300D01*
X110263Y-98328D01*
X110291Y-98356D01*
X110320Y-98412D01*
X110320Y-98974D02*
X110320Y-99031D01*
X110291Y-99087D01*
X110263Y-99115D01*
X110207Y-99143D01*
X110095Y-99171D01*
X109954Y-99171D01*
X109841Y-99143D01*
X109785Y-99115D01*
X109757Y-99087D01*
X109729Y-99031D01*
X109729Y-98974D01*
X109757Y-98918D01*
X109785Y-98890D01*
X109841Y-98862D01*
X109954Y-98834D01*
X110095Y-98834D01*
X110207Y-98862D01*
X110263Y-98890D01*
X110291Y-98918D01*
X110320Y-98974D01*
X109729Y-99874D02*
X110123Y-99874D01*
X110066Y-99874D02*
X110095Y-99902D01*
X110123Y-99959D01*
X110123Y-100043D01*
X110095Y-100099D01*
X110038Y-100127D01*
X109729Y-100127D01*
X110038Y-100127D02*
X110095Y-100156D01*
X110123Y-100212D01*
X110123Y-100296D01*
X110095Y-100352D01*
X110038Y-100381D01*
X109729Y-100381D01*
X109729Y-100662D02*
X110123Y-100662D01*
X110066Y-100662D02*
X110095Y-100690D01*
X110123Y-100746D01*
X110123Y-100830D01*
X110095Y-100887D01*
X110038Y-100915D01*
X109729Y-100915D01*
X110038Y-100915D02*
X110095Y-100943D01*
X110123Y-100999D01*
X110123Y-101084D01*
X110095Y-101140D01*
X110038Y-101168D01*
X109729Y-101168D01*
X110500Y-93750D02*
X110500Y-103750D01*
X111250Y-93750D02*
X109437Y-93750D01*
X111250Y-103750D02*
X109437Y-103750D01*
X110500Y-103750D02*
X110269Y-103306D01*
X110500Y-103750D02*
X110730Y-103306D01*
X110500Y-93750D02*
X110269Y-94193D01*
X110500Y-93750D02*
X110730Y-94193D01*
M02*
