G04 (created by PCBNEW (22-Jun-2014 BZR 4027)-stable) date Thu 28 Jun 2018 06:28:58 PM CST*
%MOIN*%
G04 Gerber Fmt 3.4, Leading zero omitted, Abs format*
%FSLAX34Y34*%
G01*
G70*
G90*
G04 APERTURE LIST*
%ADD10C,0.00393701*%
%ADD11R,0.055X0.055*%
%ADD12C,0.055*%
%ADD13C,0.023622*%
%ADD14C,0.00708661*%
%ADD15C,0.01*%
G04 APERTURE END LIST*
G54D10*
G54D11*
X158200Y-99900D03*
G54D12*
X158200Y-100900D03*
X158200Y-101900D03*
X158200Y-102900D03*
G54D13*
X138050Y-98500D03*
X137350Y-101850D03*
X133550Y-100800D03*
X113200Y-102450D03*
X150500Y-98400D03*
X150450Y-96450D03*
X136150Y-100050D03*
X134450Y-100250D03*
X142400Y-102000D03*
X135250Y-98250D03*
X138950Y-102000D03*
X135300Y-102200D03*
X142050Y-100800D03*
X135900Y-100550D03*
X113150Y-98950D03*
X115500Y-98950D03*
G54D14*
X133550Y-100800D02*
X133550Y-98650D01*
X133700Y-98500D02*
X138050Y-98500D01*
X133550Y-98650D02*
X133700Y-98500D01*
X133550Y-101850D02*
X137350Y-101850D01*
X133550Y-103200D02*
X133550Y-103600D01*
X133550Y-103200D02*
X133550Y-101850D01*
X133550Y-101850D02*
X133550Y-100800D01*
X133200Y-103600D02*
X133550Y-103600D01*
X133550Y-103600D02*
X157500Y-103600D01*
X157500Y-103600D02*
X158200Y-102900D01*
X114350Y-103600D02*
X133200Y-103600D01*
X113200Y-102450D02*
X114350Y-103600D01*
X150500Y-96500D02*
X150500Y-98400D01*
X150450Y-96450D02*
X150500Y-96500D01*
X134650Y-100050D02*
X136150Y-100050D01*
X134450Y-100250D02*
X134650Y-100050D01*
X142400Y-98450D02*
X142400Y-102000D01*
X142200Y-98250D02*
X142400Y-98450D01*
X135250Y-98250D02*
X142200Y-98250D01*
X138900Y-102000D02*
X138950Y-102000D01*
X138700Y-102200D02*
X138900Y-102000D01*
X135300Y-102200D02*
X138700Y-102200D01*
X136150Y-100800D02*
X142050Y-100800D01*
X135900Y-100550D02*
X136150Y-100800D01*
X115500Y-98950D02*
X113150Y-98950D01*
G54D10*
G36*
X158849Y-103649D02*
X158729Y-103649D01*
X158729Y-101975D01*
X158718Y-101767D01*
X158660Y-101627D01*
X158595Y-101610D01*
X158595Y-100821D01*
X158595Y-100821D01*
X158595Y-100151D01*
X158595Y-99601D01*
X158577Y-99556D01*
X158543Y-99522D01*
X158499Y-99504D01*
X158451Y-99504D01*
X157901Y-99504D01*
X157856Y-99522D01*
X157822Y-99556D01*
X157804Y-99600D01*
X157804Y-99648D01*
X157804Y-100198D01*
X157822Y-100243D01*
X157856Y-100277D01*
X157900Y-100295D01*
X157948Y-100295D01*
X158498Y-100295D01*
X158543Y-100277D01*
X158577Y-100243D01*
X158595Y-100199D01*
X158595Y-100151D01*
X158595Y-100821D01*
X158535Y-100676D01*
X158424Y-100564D01*
X158279Y-100504D01*
X158121Y-100504D01*
X157976Y-100564D01*
X157864Y-100675D01*
X157804Y-100820D01*
X157804Y-100978D01*
X157864Y-101123D01*
X157975Y-101235D01*
X158120Y-101295D01*
X158278Y-101295D01*
X158423Y-101235D01*
X158535Y-101124D01*
X158595Y-100979D01*
X158595Y-100821D01*
X158595Y-101610D01*
X158567Y-101602D01*
X158497Y-101673D01*
X158497Y-101532D01*
X158472Y-101439D01*
X158275Y-101370D01*
X158067Y-101381D01*
X157927Y-101439D01*
X157902Y-101532D01*
X158200Y-101829D01*
X158497Y-101532D01*
X158497Y-101673D01*
X158270Y-101900D01*
X158567Y-102197D01*
X158660Y-102172D01*
X158729Y-101975D01*
X158729Y-103649D01*
X157671Y-103649D01*
X158053Y-103267D01*
X158120Y-103295D01*
X158278Y-103295D01*
X158423Y-103235D01*
X158535Y-103124D01*
X158595Y-102979D01*
X158595Y-102821D01*
X158535Y-102676D01*
X158497Y-102637D01*
X158497Y-102267D01*
X158200Y-101970D01*
X158129Y-102041D01*
X158129Y-101900D01*
X157832Y-101602D01*
X157739Y-101627D01*
X157670Y-101824D01*
X157681Y-102032D01*
X157739Y-102172D01*
X157832Y-102197D01*
X158129Y-101900D01*
X158129Y-102041D01*
X157902Y-102267D01*
X157927Y-102360D01*
X158124Y-102429D01*
X158332Y-102418D01*
X158472Y-102360D01*
X158497Y-102267D01*
X158497Y-102637D01*
X158424Y-102564D01*
X158279Y-102504D01*
X158121Y-102504D01*
X157976Y-102564D01*
X157864Y-102675D01*
X157804Y-102820D01*
X157804Y-102978D01*
X157832Y-103046D01*
X157435Y-103443D01*
X153064Y-103443D01*
X153064Y-102546D01*
X153060Y-102487D01*
X153060Y-102487D01*
X153027Y-102368D01*
X153014Y-102342D01*
X153014Y-95246D01*
X153010Y-95187D01*
X153010Y-95187D01*
X152977Y-95068D01*
X152951Y-95016D01*
X152951Y-95016D01*
X152876Y-94918D01*
X152831Y-94880D01*
X152831Y-94880D01*
X152724Y-94819D01*
X152668Y-94800D01*
X152668Y-94800D01*
X152546Y-94785D01*
X152487Y-94789D01*
X152487Y-94789D01*
X152368Y-94822D01*
X152316Y-94848D01*
X152316Y-94848D01*
X152218Y-94923D01*
X152180Y-94968D01*
X152180Y-94968D01*
X152119Y-95075D01*
X152100Y-95131D01*
X152100Y-95131D01*
X152085Y-95253D01*
X152089Y-95312D01*
X152122Y-95431D01*
X152148Y-95483D01*
X152148Y-95483D01*
X152223Y-95581D01*
X152268Y-95619D01*
X152268Y-95619D01*
X152375Y-95680D01*
X152431Y-95699D01*
X152431Y-95699D01*
X152553Y-95714D01*
X152612Y-95710D01*
X152612Y-95710D01*
X152731Y-95677D01*
X152783Y-95651D01*
X152783Y-95651D01*
X152881Y-95576D01*
X152919Y-95531D01*
X152919Y-95531D01*
X152980Y-95424D01*
X152999Y-95368D01*
X152999Y-95368D01*
X153014Y-95246D01*
X153014Y-102342D01*
X153001Y-102316D01*
X153001Y-102316D01*
X152926Y-102218D01*
X152881Y-102180D01*
X152881Y-102180D01*
X152774Y-102119D01*
X152718Y-102100D01*
X152718Y-102100D01*
X152596Y-102085D01*
X152537Y-102089D01*
X152537Y-102089D01*
X152418Y-102122D01*
X152366Y-102148D01*
X152366Y-102148D01*
X152268Y-102223D01*
X152230Y-102268D01*
X152230Y-102268D01*
X152169Y-102375D01*
X152150Y-102431D01*
X152150Y-102431D01*
X152135Y-102553D01*
X152139Y-102612D01*
X152172Y-102731D01*
X152198Y-102783D01*
X152198Y-102783D01*
X152273Y-102881D01*
X152318Y-102919D01*
X152318Y-102919D01*
X152425Y-102980D01*
X152481Y-102999D01*
X152481Y-102999D01*
X152603Y-103014D01*
X152662Y-103010D01*
X152662Y-103010D01*
X152781Y-102977D01*
X152833Y-102951D01*
X152833Y-102951D01*
X152931Y-102876D01*
X152969Y-102831D01*
X152969Y-102831D01*
X153030Y-102724D01*
X153049Y-102668D01*
X153049Y-102668D01*
X153064Y-102546D01*
X153064Y-103443D01*
X145814Y-103443D01*
X145814Y-102546D01*
X145814Y-95246D01*
X145810Y-95187D01*
X145810Y-95187D01*
X145777Y-95068D01*
X145751Y-95016D01*
X145751Y-95016D01*
X145676Y-94918D01*
X145631Y-94880D01*
X145631Y-94880D01*
X145524Y-94819D01*
X145468Y-94800D01*
X145468Y-94800D01*
X145346Y-94785D01*
X145287Y-94789D01*
X145287Y-94789D01*
X145168Y-94822D01*
X145116Y-94848D01*
X145116Y-94848D01*
X145018Y-94923D01*
X144980Y-94968D01*
X144980Y-94968D01*
X144919Y-95075D01*
X144900Y-95131D01*
X144900Y-95131D01*
X144885Y-95253D01*
X144889Y-95312D01*
X144922Y-95431D01*
X144948Y-95483D01*
X144948Y-95483D01*
X145023Y-95581D01*
X145068Y-95619D01*
X145068Y-95619D01*
X145175Y-95680D01*
X145231Y-95699D01*
X145231Y-95699D01*
X145353Y-95714D01*
X145412Y-95710D01*
X145412Y-95710D01*
X145531Y-95677D01*
X145583Y-95651D01*
X145583Y-95651D01*
X145681Y-95576D01*
X145719Y-95531D01*
X145719Y-95531D01*
X145780Y-95424D01*
X145799Y-95368D01*
X145799Y-95368D01*
X145814Y-95246D01*
X145814Y-102546D01*
X145810Y-102487D01*
X145810Y-102487D01*
X145777Y-102368D01*
X145751Y-102316D01*
X145751Y-102316D01*
X145676Y-102218D01*
X145631Y-102180D01*
X145631Y-102180D01*
X145524Y-102119D01*
X145468Y-102100D01*
X145468Y-102100D01*
X145346Y-102085D01*
X145287Y-102089D01*
X145287Y-102089D01*
X145168Y-102122D01*
X145116Y-102148D01*
X145116Y-102148D01*
X145018Y-102223D01*
X144980Y-102268D01*
X144980Y-102268D01*
X144919Y-102375D01*
X144900Y-102431D01*
X144900Y-102431D01*
X144885Y-102553D01*
X144889Y-102612D01*
X144922Y-102731D01*
X144948Y-102783D01*
X144948Y-102783D01*
X145023Y-102881D01*
X145068Y-102919D01*
X145068Y-102919D01*
X145175Y-102980D01*
X145231Y-102999D01*
X145231Y-102999D01*
X145353Y-103014D01*
X145412Y-103010D01*
X145412Y-103010D01*
X145531Y-102977D01*
X145583Y-102951D01*
X145583Y-102951D01*
X145681Y-102876D01*
X145719Y-102831D01*
X145719Y-102831D01*
X145780Y-102724D01*
X145799Y-102668D01*
X145799Y-102668D01*
X145814Y-102546D01*
X145814Y-103443D01*
X133706Y-103443D01*
X133706Y-103200D01*
X133706Y-102006D01*
X135155Y-102006D01*
X135097Y-102064D01*
X135061Y-102152D01*
X135060Y-102247D01*
X135097Y-102335D01*
X135164Y-102402D01*
X135252Y-102438D01*
X135347Y-102439D01*
X135435Y-102402D01*
X135481Y-102356D01*
X135740Y-102356D01*
X135730Y-102368D01*
X135730Y-102368D01*
X135669Y-102475D01*
X135650Y-102531D01*
X135650Y-102531D01*
X135635Y-102653D01*
X135639Y-102712D01*
X135672Y-102831D01*
X135698Y-102883D01*
X135698Y-102883D01*
X135773Y-102981D01*
X135818Y-103019D01*
X135818Y-103019D01*
X135925Y-103080D01*
X135981Y-103099D01*
X135981Y-103099D01*
X136103Y-103114D01*
X136162Y-103110D01*
X136162Y-103110D01*
X136281Y-103077D01*
X136333Y-103051D01*
X136333Y-103051D01*
X136431Y-102976D01*
X136469Y-102931D01*
X136469Y-102931D01*
X136530Y-102824D01*
X136549Y-102768D01*
X136549Y-102768D01*
X136564Y-102646D01*
X136560Y-102587D01*
X136560Y-102587D01*
X136527Y-102468D01*
X136501Y-102416D01*
X136501Y-102416D01*
X136455Y-102356D01*
X138700Y-102356D01*
X138700Y-102356D01*
X138759Y-102344D01*
X138810Y-102310D01*
X138888Y-102233D01*
X138902Y-102238D01*
X138997Y-102239D01*
X139085Y-102202D01*
X139152Y-102135D01*
X139188Y-102047D01*
X139189Y-101952D01*
X139152Y-101864D01*
X139085Y-101797D01*
X138997Y-101761D01*
X138902Y-101760D01*
X138814Y-101797D01*
X138747Y-101864D01*
X138711Y-101952D01*
X138711Y-101967D01*
X138635Y-102043D01*
X137494Y-102043D01*
X137552Y-101985D01*
X137588Y-101897D01*
X137589Y-101802D01*
X137552Y-101714D01*
X137485Y-101647D01*
X137397Y-101611D01*
X137302Y-101610D01*
X137214Y-101647D01*
X137168Y-101693D01*
X133706Y-101693D01*
X133706Y-100981D01*
X133752Y-100935D01*
X133788Y-100847D01*
X133789Y-100752D01*
X133752Y-100664D01*
X133706Y-100618D01*
X133706Y-98714D01*
X133764Y-98656D01*
X137868Y-98656D01*
X137914Y-98702D01*
X138002Y-98738D01*
X138097Y-98739D01*
X138185Y-98702D01*
X138252Y-98635D01*
X138288Y-98547D01*
X138289Y-98452D01*
X138269Y-98406D01*
X142135Y-98406D01*
X142243Y-98514D01*
X142243Y-100655D01*
X142185Y-100597D01*
X142097Y-100561D01*
X142002Y-100560D01*
X141914Y-100597D01*
X141868Y-100643D01*
X136214Y-100643D01*
X136138Y-100567D01*
X136139Y-100502D01*
X136102Y-100414D01*
X136035Y-100347D01*
X135947Y-100311D01*
X135852Y-100310D01*
X135764Y-100347D01*
X135697Y-100414D01*
X135661Y-100502D01*
X135660Y-100597D01*
X135697Y-100685D01*
X135764Y-100752D01*
X135852Y-100788D01*
X135917Y-100788D01*
X136039Y-100910D01*
X136039Y-100910D01*
X136073Y-100933D01*
X136090Y-100944D01*
X136090Y-100944D01*
X136150Y-100956D01*
X141868Y-100956D01*
X141914Y-101002D01*
X142002Y-101038D01*
X142097Y-101039D01*
X142185Y-101002D01*
X142243Y-100944D01*
X142243Y-101818D01*
X142197Y-101864D01*
X142161Y-101952D01*
X142160Y-102047D01*
X142197Y-102135D01*
X142264Y-102202D01*
X142352Y-102238D01*
X142447Y-102239D01*
X142535Y-102202D01*
X142602Y-102135D01*
X142638Y-102047D01*
X142639Y-101952D01*
X142602Y-101864D01*
X142556Y-101818D01*
X142556Y-98450D01*
X142544Y-98390D01*
X142544Y-98390D01*
X142533Y-98373D01*
X142510Y-98339D01*
X142510Y-98339D01*
X142310Y-98139D01*
X142259Y-98105D01*
X142200Y-98093D01*
X135431Y-98093D01*
X135385Y-98047D01*
X135297Y-98011D01*
X135202Y-98010D01*
X135114Y-98047D01*
X135047Y-98114D01*
X135011Y-98202D01*
X135010Y-98297D01*
X135030Y-98343D01*
X133700Y-98343D01*
X133650Y-98353D01*
X133640Y-98355D01*
X133589Y-98389D01*
X133439Y-98539D01*
X133405Y-98590D01*
X133393Y-98650D01*
X133393Y-100618D01*
X133347Y-100664D01*
X133311Y-100752D01*
X133310Y-100847D01*
X133347Y-100935D01*
X133393Y-100981D01*
X133393Y-101850D01*
X133393Y-103200D01*
X133393Y-103443D01*
X133200Y-103443D01*
X125664Y-103443D01*
X125664Y-102496D01*
X125660Y-102437D01*
X125660Y-102437D01*
X125627Y-102318D01*
X125614Y-102292D01*
X125614Y-95246D01*
X125610Y-95187D01*
X125610Y-95187D01*
X125577Y-95068D01*
X125551Y-95016D01*
X125551Y-95016D01*
X125476Y-94918D01*
X125431Y-94880D01*
X125431Y-94880D01*
X125324Y-94819D01*
X125268Y-94800D01*
X125268Y-94800D01*
X125146Y-94785D01*
X125087Y-94789D01*
X125087Y-94789D01*
X124968Y-94822D01*
X124916Y-94848D01*
X124916Y-94848D01*
X124818Y-94923D01*
X124780Y-94968D01*
X124780Y-94968D01*
X124719Y-95075D01*
X124700Y-95131D01*
X124700Y-95131D01*
X124685Y-95253D01*
X124689Y-95312D01*
X124722Y-95431D01*
X124748Y-95483D01*
X124748Y-95483D01*
X124823Y-95581D01*
X124868Y-95619D01*
X124868Y-95619D01*
X124975Y-95680D01*
X125031Y-95699D01*
X125031Y-95699D01*
X125153Y-95714D01*
X125212Y-95710D01*
X125212Y-95710D01*
X125331Y-95677D01*
X125383Y-95651D01*
X125383Y-95651D01*
X125481Y-95576D01*
X125519Y-95531D01*
X125519Y-95531D01*
X125580Y-95424D01*
X125599Y-95368D01*
X125599Y-95368D01*
X125614Y-95246D01*
X125614Y-102292D01*
X125601Y-102266D01*
X125601Y-102266D01*
X125526Y-102168D01*
X125481Y-102130D01*
X125481Y-102130D01*
X125374Y-102069D01*
X125318Y-102050D01*
X125318Y-102050D01*
X125196Y-102035D01*
X125137Y-102039D01*
X125137Y-102039D01*
X125018Y-102072D01*
X124966Y-102098D01*
X124966Y-102098D01*
X124868Y-102173D01*
X124830Y-102218D01*
X124830Y-102218D01*
X124769Y-102325D01*
X124750Y-102381D01*
X124750Y-102381D01*
X124735Y-102503D01*
X124739Y-102562D01*
X124772Y-102681D01*
X124798Y-102733D01*
X124798Y-102733D01*
X124873Y-102831D01*
X124918Y-102869D01*
X124918Y-102869D01*
X125025Y-102930D01*
X125081Y-102949D01*
X125081Y-102949D01*
X125203Y-102964D01*
X125262Y-102960D01*
X125262Y-102960D01*
X125381Y-102927D01*
X125433Y-102901D01*
X125433Y-102901D01*
X125531Y-102826D01*
X125569Y-102781D01*
X125569Y-102781D01*
X125630Y-102674D01*
X125649Y-102618D01*
X125649Y-102618D01*
X125664Y-102496D01*
X125664Y-103443D01*
X118414Y-103443D01*
X118414Y-102496D01*
X118414Y-95246D01*
X118410Y-95187D01*
X118410Y-95187D01*
X118377Y-95068D01*
X118351Y-95016D01*
X118351Y-95016D01*
X118276Y-94918D01*
X118231Y-94880D01*
X118231Y-94880D01*
X118124Y-94819D01*
X118068Y-94800D01*
X118068Y-94800D01*
X117946Y-94785D01*
X117887Y-94789D01*
X117887Y-94789D01*
X117768Y-94822D01*
X117716Y-94848D01*
X117716Y-94848D01*
X117618Y-94923D01*
X117580Y-94968D01*
X117580Y-94968D01*
X117519Y-95075D01*
X117500Y-95131D01*
X117500Y-95131D01*
X117485Y-95253D01*
X117489Y-95312D01*
X117522Y-95431D01*
X117548Y-95483D01*
X117548Y-95483D01*
X117623Y-95581D01*
X117668Y-95619D01*
X117668Y-95619D01*
X117775Y-95680D01*
X117831Y-95699D01*
X117831Y-95699D01*
X117953Y-95714D01*
X118012Y-95710D01*
X118012Y-95710D01*
X118131Y-95677D01*
X118183Y-95651D01*
X118183Y-95651D01*
X118281Y-95576D01*
X118319Y-95531D01*
X118319Y-95531D01*
X118380Y-95424D01*
X118399Y-95368D01*
X118399Y-95368D01*
X118414Y-95246D01*
X118414Y-102496D01*
X118410Y-102437D01*
X118410Y-102437D01*
X118377Y-102318D01*
X118351Y-102266D01*
X118351Y-102266D01*
X118276Y-102168D01*
X118231Y-102130D01*
X118231Y-102130D01*
X118124Y-102069D01*
X118068Y-102050D01*
X118068Y-102050D01*
X117946Y-102035D01*
X117887Y-102039D01*
X117887Y-102039D01*
X117768Y-102072D01*
X117716Y-102098D01*
X117716Y-102098D01*
X117618Y-102173D01*
X117580Y-102218D01*
X117580Y-102218D01*
X117519Y-102325D01*
X117500Y-102381D01*
X117500Y-102381D01*
X117485Y-102503D01*
X117489Y-102562D01*
X117522Y-102681D01*
X117548Y-102733D01*
X117548Y-102733D01*
X117623Y-102831D01*
X117668Y-102869D01*
X117668Y-102869D01*
X117775Y-102930D01*
X117831Y-102949D01*
X117831Y-102949D01*
X117953Y-102964D01*
X118012Y-102960D01*
X118012Y-102960D01*
X118131Y-102927D01*
X118183Y-102901D01*
X118183Y-102901D01*
X118281Y-102826D01*
X118319Y-102781D01*
X118319Y-102781D01*
X118380Y-102674D01*
X118399Y-102618D01*
X118399Y-102618D01*
X118414Y-102496D01*
X118414Y-103443D01*
X115739Y-103443D01*
X115739Y-98902D01*
X115702Y-98814D01*
X115635Y-98747D01*
X115547Y-98711D01*
X115452Y-98710D01*
X115364Y-98747D01*
X115318Y-98793D01*
X114114Y-98793D01*
X114114Y-96846D01*
X114110Y-96787D01*
X114110Y-96787D01*
X114077Y-96668D01*
X114051Y-96616D01*
X114051Y-96616D01*
X113976Y-96518D01*
X113931Y-96480D01*
X113931Y-96480D01*
X113824Y-96419D01*
X113768Y-96400D01*
X113768Y-96400D01*
X113646Y-96385D01*
X113587Y-96389D01*
X113587Y-96389D01*
X113468Y-96422D01*
X113416Y-96448D01*
X113416Y-96448D01*
X113318Y-96523D01*
X113280Y-96568D01*
X113280Y-96568D01*
X113219Y-96675D01*
X113200Y-96731D01*
X113200Y-96731D01*
X113185Y-96853D01*
X113189Y-96912D01*
X113222Y-97031D01*
X113248Y-97083D01*
X113248Y-97083D01*
X113323Y-97181D01*
X113368Y-97219D01*
X113368Y-97219D01*
X113475Y-97280D01*
X113531Y-97299D01*
X113531Y-97299D01*
X113653Y-97314D01*
X113712Y-97310D01*
X113712Y-97310D01*
X113831Y-97277D01*
X113883Y-97251D01*
X113883Y-97251D01*
X113981Y-97176D01*
X114019Y-97131D01*
X114019Y-97131D01*
X114080Y-97024D01*
X114099Y-96968D01*
X114099Y-96968D01*
X114114Y-96846D01*
X114114Y-98793D01*
X113331Y-98793D01*
X113285Y-98747D01*
X113197Y-98711D01*
X113102Y-98710D01*
X113014Y-98747D01*
X112947Y-98814D01*
X112911Y-98902D01*
X112910Y-98997D01*
X112947Y-99085D01*
X113014Y-99152D01*
X113102Y-99188D01*
X113197Y-99189D01*
X113285Y-99152D01*
X113331Y-99106D01*
X115318Y-99106D01*
X115364Y-99152D01*
X115452Y-99188D01*
X115547Y-99189D01*
X115635Y-99152D01*
X115702Y-99085D01*
X115738Y-98997D01*
X115739Y-98902D01*
X115739Y-103443D01*
X114414Y-103443D01*
X113438Y-102467D01*
X113439Y-102402D01*
X113402Y-102314D01*
X113335Y-102247D01*
X113247Y-102211D01*
X113152Y-102210D01*
X113064Y-102247D01*
X112997Y-102314D01*
X112961Y-102402D01*
X112960Y-102497D01*
X112997Y-102585D01*
X113064Y-102652D01*
X113152Y-102688D01*
X113217Y-102688D01*
X114178Y-103649D01*
X111750Y-103649D01*
X111750Y-93950D01*
X158849Y-93950D01*
X158849Y-97598D01*
X158827Y-97518D01*
X158801Y-97466D01*
X158801Y-97466D01*
X158726Y-97368D01*
X158681Y-97330D01*
X158681Y-97330D01*
X158574Y-97269D01*
X158518Y-97250D01*
X158518Y-97250D01*
X158396Y-97235D01*
X158337Y-97239D01*
X158337Y-97239D01*
X158218Y-97272D01*
X158166Y-97298D01*
X158166Y-97298D01*
X158068Y-97373D01*
X158030Y-97418D01*
X158030Y-97418D01*
X157969Y-97525D01*
X157950Y-97581D01*
X157950Y-97581D01*
X157935Y-97703D01*
X157939Y-97762D01*
X157972Y-97881D01*
X157998Y-97933D01*
X157998Y-97933D01*
X158073Y-98031D01*
X158118Y-98069D01*
X158118Y-98069D01*
X158225Y-98130D01*
X158281Y-98149D01*
X158281Y-98149D01*
X158403Y-98164D01*
X158462Y-98160D01*
X158462Y-98160D01*
X158581Y-98127D01*
X158633Y-98101D01*
X158633Y-98101D01*
X158731Y-98026D01*
X158769Y-97981D01*
X158769Y-97981D01*
X158830Y-97874D01*
X158849Y-97818D01*
X158849Y-97818D01*
X158849Y-97815D01*
X158849Y-103649D01*
X158849Y-103649D01*
G37*
G54D15*
X158849Y-103649D02*
X158729Y-103649D01*
X158729Y-101975D01*
X158718Y-101767D01*
X158660Y-101627D01*
X158595Y-101610D01*
X158595Y-100821D01*
X158595Y-100821D01*
X158595Y-100151D01*
X158595Y-99601D01*
X158577Y-99556D01*
X158543Y-99522D01*
X158499Y-99504D01*
X158451Y-99504D01*
X157901Y-99504D01*
X157856Y-99522D01*
X157822Y-99556D01*
X157804Y-99600D01*
X157804Y-99648D01*
X157804Y-100198D01*
X157822Y-100243D01*
X157856Y-100277D01*
X157900Y-100295D01*
X157948Y-100295D01*
X158498Y-100295D01*
X158543Y-100277D01*
X158577Y-100243D01*
X158595Y-100199D01*
X158595Y-100151D01*
X158595Y-100821D01*
X158535Y-100676D01*
X158424Y-100564D01*
X158279Y-100504D01*
X158121Y-100504D01*
X157976Y-100564D01*
X157864Y-100675D01*
X157804Y-100820D01*
X157804Y-100978D01*
X157864Y-101123D01*
X157975Y-101235D01*
X158120Y-101295D01*
X158278Y-101295D01*
X158423Y-101235D01*
X158535Y-101124D01*
X158595Y-100979D01*
X158595Y-100821D01*
X158595Y-101610D01*
X158567Y-101602D01*
X158497Y-101673D01*
X158497Y-101532D01*
X158472Y-101439D01*
X158275Y-101370D01*
X158067Y-101381D01*
X157927Y-101439D01*
X157902Y-101532D01*
X158200Y-101829D01*
X158497Y-101532D01*
X158497Y-101673D01*
X158270Y-101900D01*
X158567Y-102197D01*
X158660Y-102172D01*
X158729Y-101975D01*
X158729Y-103649D01*
X157671Y-103649D01*
X158053Y-103267D01*
X158120Y-103295D01*
X158278Y-103295D01*
X158423Y-103235D01*
X158535Y-103124D01*
X158595Y-102979D01*
X158595Y-102821D01*
X158535Y-102676D01*
X158497Y-102637D01*
X158497Y-102267D01*
X158200Y-101970D01*
X158129Y-102041D01*
X158129Y-101900D01*
X157832Y-101602D01*
X157739Y-101627D01*
X157670Y-101824D01*
X157681Y-102032D01*
X157739Y-102172D01*
X157832Y-102197D01*
X158129Y-101900D01*
X158129Y-102041D01*
X157902Y-102267D01*
X157927Y-102360D01*
X158124Y-102429D01*
X158332Y-102418D01*
X158472Y-102360D01*
X158497Y-102267D01*
X158497Y-102637D01*
X158424Y-102564D01*
X158279Y-102504D01*
X158121Y-102504D01*
X157976Y-102564D01*
X157864Y-102675D01*
X157804Y-102820D01*
X157804Y-102978D01*
X157832Y-103046D01*
X157435Y-103443D01*
X153064Y-103443D01*
X153064Y-102546D01*
X153060Y-102487D01*
X153060Y-102487D01*
X153027Y-102368D01*
X153014Y-102342D01*
X153014Y-95246D01*
X153010Y-95187D01*
X153010Y-95187D01*
X152977Y-95068D01*
X152951Y-95016D01*
X152951Y-95016D01*
X152876Y-94918D01*
X152831Y-94880D01*
X152831Y-94880D01*
X152724Y-94819D01*
X152668Y-94800D01*
X152668Y-94800D01*
X152546Y-94785D01*
X152487Y-94789D01*
X152487Y-94789D01*
X152368Y-94822D01*
X152316Y-94848D01*
X152316Y-94848D01*
X152218Y-94923D01*
X152180Y-94968D01*
X152180Y-94968D01*
X152119Y-95075D01*
X152100Y-95131D01*
X152100Y-95131D01*
X152085Y-95253D01*
X152089Y-95312D01*
X152122Y-95431D01*
X152148Y-95483D01*
X152148Y-95483D01*
X152223Y-95581D01*
X152268Y-95619D01*
X152268Y-95619D01*
X152375Y-95680D01*
X152431Y-95699D01*
X152431Y-95699D01*
X152553Y-95714D01*
X152612Y-95710D01*
X152612Y-95710D01*
X152731Y-95677D01*
X152783Y-95651D01*
X152783Y-95651D01*
X152881Y-95576D01*
X152919Y-95531D01*
X152919Y-95531D01*
X152980Y-95424D01*
X152999Y-95368D01*
X152999Y-95368D01*
X153014Y-95246D01*
X153014Y-102342D01*
X153001Y-102316D01*
X153001Y-102316D01*
X152926Y-102218D01*
X152881Y-102180D01*
X152881Y-102180D01*
X152774Y-102119D01*
X152718Y-102100D01*
X152718Y-102100D01*
X152596Y-102085D01*
X152537Y-102089D01*
X152537Y-102089D01*
X152418Y-102122D01*
X152366Y-102148D01*
X152366Y-102148D01*
X152268Y-102223D01*
X152230Y-102268D01*
X152230Y-102268D01*
X152169Y-102375D01*
X152150Y-102431D01*
X152150Y-102431D01*
X152135Y-102553D01*
X152139Y-102612D01*
X152172Y-102731D01*
X152198Y-102783D01*
X152198Y-102783D01*
X152273Y-102881D01*
X152318Y-102919D01*
X152318Y-102919D01*
X152425Y-102980D01*
X152481Y-102999D01*
X152481Y-102999D01*
X152603Y-103014D01*
X152662Y-103010D01*
X152662Y-103010D01*
X152781Y-102977D01*
X152833Y-102951D01*
X152833Y-102951D01*
X152931Y-102876D01*
X152969Y-102831D01*
X152969Y-102831D01*
X153030Y-102724D01*
X153049Y-102668D01*
X153049Y-102668D01*
X153064Y-102546D01*
X153064Y-103443D01*
X145814Y-103443D01*
X145814Y-102546D01*
X145814Y-95246D01*
X145810Y-95187D01*
X145810Y-95187D01*
X145777Y-95068D01*
X145751Y-95016D01*
X145751Y-95016D01*
X145676Y-94918D01*
X145631Y-94880D01*
X145631Y-94880D01*
X145524Y-94819D01*
X145468Y-94800D01*
X145468Y-94800D01*
X145346Y-94785D01*
X145287Y-94789D01*
X145287Y-94789D01*
X145168Y-94822D01*
X145116Y-94848D01*
X145116Y-94848D01*
X145018Y-94923D01*
X144980Y-94968D01*
X144980Y-94968D01*
X144919Y-95075D01*
X144900Y-95131D01*
X144900Y-95131D01*
X144885Y-95253D01*
X144889Y-95312D01*
X144922Y-95431D01*
X144948Y-95483D01*
X144948Y-95483D01*
X145023Y-95581D01*
X145068Y-95619D01*
X145068Y-95619D01*
X145175Y-95680D01*
X145231Y-95699D01*
X145231Y-95699D01*
X145353Y-95714D01*
X145412Y-95710D01*
X145412Y-95710D01*
X145531Y-95677D01*
X145583Y-95651D01*
X145583Y-95651D01*
X145681Y-95576D01*
X145719Y-95531D01*
X145719Y-95531D01*
X145780Y-95424D01*
X145799Y-95368D01*
X145799Y-95368D01*
X145814Y-95246D01*
X145814Y-102546D01*
X145810Y-102487D01*
X145810Y-102487D01*
X145777Y-102368D01*
X145751Y-102316D01*
X145751Y-102316D01*
X145676Y-102218D01*
X145631Y-102180D01*
X145631Y-102180D01*
X145524Y-102119D01*
X145468Y-102100D01*
X145468Y-102100D01*
X145346Y-102085D01*
X145287Y-102089D01*
X145287Y-102089D01*
X145168Y-102122D01*
X145116Y-102148D01*
X145116Y-102148D01*
X145018Y-102223D01*
X144980Y-102268D01*
X144980Y-102268D01*
X144919Y-102375D01*
X144900Y-102431D01*
X144900Y-102431D01*
X144885Y-102553D01*
X144889Y-102612D01*
X144922Y-102731D01*
X144948Y-102783D01*
X144948Y-102783D01*
X145023Y-102881D01*
X145068Y-102919D01*
X145068Y-102919D01*
X145175Y-102980D01*
X145231Y-102999D01*
X145231Y-102999D01*
X145353Y-103014D01*
X145412Y-103010D01*
X145412Y-103010D01*
X145531Y-102977D01*
X145583Y-102951D01*
X145583Y-102951D01*
X145681Y-102876D01*
X145719Y-102831D01*
X145719Y-102831D01*
X145780Y-102724D01*
X145799Y-102668D01*
X145799Y-102668D01*
X145814Y-102546D01*
X145814Y-103443D01*
X133706Y-103443D01*
X133706Y-103200D01*
X133706Y-102006D01*
X135155Y-102006D01*
X135097Y-102064D01*
X135061Y-102152D01*
X135060Y-102247D01*
X135097Y-102335D01*
X135164Y-102402D01*
X135252Y-102438D01*
X135347Y-102439D01*
X135435Y-102402D01*
X135481Y-102356D01*
X135740Y-102356D01*
X135730Y-102368D01*
X135730Y-102368D01*
X135669Y-102475D01*
X135650Y-102531D01*
X135650Y-102531D01*
X135635Y-102653D01*
X135639Y-102712D01*
X135672Y-102831D01*
X135698Y-102883D01*
X135698Y-102883D01*
X135773Y-102981D01*
X135818Y-103019D01*
X135818Y-103019D01*
X135925Y-103080D01*
X135981Y-103099D01*
X135981Y-103099D01*
X136103Y-103114D01*
X136162Y-103110D01*
X136162Y-103110D01*
X136281Y-103077D01*
X136333Y-103051D01*
X136333Y-103051D01*
X136431Y-102976D01*
X136469Y-102931D01*
X136469Y-102931D01*
X136530Y-102824D01*
X136549Y-102768D01*
X136549Y-102768D01*
X136564Y-102646D01*
X136560Y-102587D01*
X136560Y-102587D01*
X136527Y-102468D01*
X136501Y-102416D01*
X136501Y-102416D01*
X136455Y-102356D01*
X138700Y-102356D01*
X138700Y-102356D01*
X138759Y-102344D01*
X138810Y-102310D01*
X138888Y-102233D01*
X138902Y-102238D01*
X138997Y-102239D01*
X139085Y-102202D01*
X139152Y-102135D01*
X139188Y-102047D01*
X139189Y-101952D01*
X139152Y-101864D01*
X139085Y-101797D01*
X138997Y-101761D01*
X138902Y-101760D01*
X138814Y-101797D01*
X138747Y-101864D01*
X138711Y-101952D01*
X138711Y-101967D01*
X138635Y-102043D01*
X137494Y-102043D01*
X137552Y-101985D01*
X137588Y-101897D01*
X137589Y-101802D01*
X137552Y-101714D01*
X137485Y-101647D01*
X137397Y-101611D01*
X137302Y-101610D01*
X137214Y-101647D01*
X137168Y-101693D01*
X133706Y-101693D01*
X133706Y-100981D01*
X133752Y-100935D01*
X133788Y-100847D01*
X133789Y-100752D01*
X133752Y-100664D01*
X133706Y-100618D01*
X133706Y-98714D01*
X133764Y-98656D01*
X137868Y-98656D01*
X137914Y-98702D01*
X138002Y-98738D01*
X138097Y-98739D01*
X138185Y-98702D01*
X138252Y-98635D01*
X138288Y-98547D01*
X138289Y-98452D01*
X138269Y-98406D01*
X142135Y-98406D01*
X142243Y-98514D01*
X142243Y-100655D01*
X142185Y-100597D01*
X142097Y-100561D01*
X142002Y-100560D01*
X141914Y-100597D01*
X141868Y-100643D01*
X136214Y-100643D01*
X136138Y-100567D01*
X136139Y-100502D01*
X136102Y-100414D01*
X136035Y-100347D01*
X135947Y-100311D01*
X135852Y-100310D01*
X135764Y-100347D01*
X135697Y-100414D01*
X135661Y-100502D01*
X135660Y-100597D01*
X135697Y-100685D01*
X135764Y-100752D01*
X135852Y-100788D01*
X135917Y-100788D01*
X136039Y-100910D01*
X136039Y-100910D01*
X136073Y-100933D01*
X136090Y-100944D01*
X136090Y-100944D01*
X136150Y-100956D01*
X141868Y-100956D01*
X141914Y-101002D01*
X142002Y-101038D01*
X142097Y-101039D01*
X142185Y-101002D01*
X142243Y-100944D01*
X142243Y-101818D01*
X142197Y-101864D01*
X142161Y-101952D01*
X142160Y-102047D01*
X142197Y-102135D01*
X142264Y-102202D01*
X142352Y-102238D01*
X142447Y-102239D01*
X142535Y-102202D01*
X142602Y-102135D01*
X142638Y-102047D01*
X142639Y-101952D01*
X142602Y-101864D01*
X142556Y-101818D01*
X142556Y-98450D01*
X142544Y-98390D01*
X142544Y-98390D01*
X142533Y-98373D01*
X142510Y-98339D01*
X142510Y-98339D01*
X142310Y-98139D01*
X142259Y-98105D01*
X142200Y-98093D01*
X135431Y-98093D01*
X135385Y-98047D01*
X135297Y-98011D01*
X135202Y-98010D01*
X135114Y-98047D01*
X135047Y-98114D01*
X135011Y-98202D01*
X135010Y-98297D01*
X135030Y-98343D01*
X133700Y-98343D01*
X133650Y-98353D01*
X133640Y-98355D01*
X133589Y-98389D01*
X133439Y-98539D01*
X133405Y-98590D01*
X133393Y-98650D01*
X133393Y-100618D01*
X133347Y-100664D01*
X133311Y-100752D01*
X133310Y-100847D01*
X133347Y-100935D01*
X133393Y-100981D01*
X133393Y-101850D01*
X133393Y-103200D01*
X133393Y-103443D01*
X133200Y-103443D01*
X125664Y-103443D01*
X125664Y-102496D01*
X125660Y-102437D01*
X125660Y-102437D01*
X125627Y-102318D01*
X125614Y-102292D01*
X125614Y-95246D01*
X125610Y-95187D01*
X125610Y-95187D01*
X125577Y-95068D01*
X125551Y-95016D01*
X125551Y-95016D01*
X125476Y-94918D01*
X125431Y-94880D01*
X125431Y-94880D01*
X125324Y-94819D01*
X125268Y-94800D01*
X125268Y-94800D01*
X125146Y-94785D01*
X125087Y-94789D01*
X125087Y-94789D01*
X124968Y-94822D01*
X124916Y-94848D01*
X124916Y-94848D01*
X124818Y-94923D01*
X124780Y-94968D01*
X124780Y-94968D01*
X124719Y-95075D01*
X124700Y-95131D01*
X124700Y-95131D01*
X124685Y-95253D01*
X124689Y-95312D01*
X124722Y-95431D01*
X124748Y-95483D01*
X124748Y-95483D01*
X124823Y-95581D01*
X124868Y-95619D01*
X124868Y-95619D01*
X124975Y-95680D01*
X125031Y-95699D01*
X125031Y-95699D01*
X125153Y-95714D01*
X125212Y-95710D01*
X125212Y-95710D01*
X125331Y-95677D01*
X125383Y-95651D01*
X125383Y-95651D01*
X125481Y-95576D01*
X125519Y-95531D01*
X125519Y-95531D01*
X125580Y-95424D01*
X125599Y-95368D01*
X125599Y-95368D01*
X125614Y-95246D01*
X125614Y-102292D01*
X125601Y-102266D01*
X125601Y-102266D01*
X125526Y-102168D01*
X125481Y-102130D01*
X125481Y-102130D01*
X125374Y-102069D01*
X125318Y-102050D01*
X125318Y-102050D01*
X125196Y-102035D01*
X125137Y-102039D01*
X125137Y-102039D01*
X125018Y-102072D01*
X124966Y-102098D01*
X124966Y-102098D01*
X124868Y-102173D01*
X124830Y-102218D01*
X124830Y-102218D01*
X124769Y-102325D01*
X124750Y-102381D01*
X124750Y-102381D01*
X124735Y-102503D01*
X124739Y-102562D01*
X124772Y-102681D01*
X124798Y-102733D01*
X124798Y-102733D01*
X124873Y-102831D01*
X124918Y-102869D01*
X124918Y-102869D01*
X125025Y-102930D01*
X125081Y-102949D01*
X125081Y-102949D01*
X125203Y-102964D01*
X125262Y-102960D01*
X125262Y-102960D01*
X125381Y-102927D01*
X125433Y-102901D01*
X125433Y-102901D01*
X125531Y-102826D01*
X125569Y-102781D01*
X125569Y-102781D01*
X125630Y-102674D01*
X125649Y-102618D01*
X125649Y-102618D01*
X125664Y-102496D01*
X125664Y-103443D01*
X118414Y-103443D01*
X118414Y-102496D01*
X118414Y-95246D01*
X118410Y-95187D01*
X118410Y-95187D01*
X118377Y-95068D01*
X118351Y-95016D01*
X118351Y-95016D01*
X118276Y-94918D01*
X118231Y-94880D01*
X118231Y-94880D01*
X118124Y-94819D01*
X118068Y-94800D01*
X118068Y-94800D01*
X117946Y-94785D01*
X117887Y-94789D01*
X117887Y-94789D01*
X117768Y-94822D01*
X117716Y-94848D01*
X117716Y-94848D01*
X117618Y-94923D01*
X117580Y-94968D01*
X117580Y-94968D01*
X117519Y-95075D01*
X117500Y-95131D01*
X117500Y-95131D01*
X117485Y-95253D01*
X117489Y-95312D01*
X117522Y-95431D01*
X117548Y-95483D01*
X117548Y-95483D01*
X117623Y-95581D01*
X117668Y-95619D01*
X117668Y-95619D01*
X117775Y-95680D01*
X117831Y-95699D01*
X117831Y-95699D01*
X117953Y-95714D01*
X118012Y-95710D01*
X118012Y-95710D01*
X118131Y-95677D01*
X118183Y-95651D01*
X118183Y-95651D01*
X118281Y-95576D01*
X118319Y-95531D01*
X118319Y-95531D01*
X118380Y-95424D01*
X118399Y-95368D01*
X118399Y-95368D01*
X118414Y-95246D01*
X118414Y-102496D01*
X118410Y-102437D01*
X118410Y-102437D01*
X118377Y-102318D01*
X118351Y-102266D01*
X118351Y-102266D01*
X118276Y-102168D01*
X118231Y-102130D01*
X118231Y-102130D01*
X118124Y-102069D01*
X118068Y-102050D01*
X118068Y-102050D01*
X117946Y-102035D01*
X117887Y-102039D01*
X117887Y-102039D01*
X117768Y-102072D01*
X117716Y-102098D01*
X117716Y-102098D01*
X117618Y-102173D01*
X117580Y-102218D01*
X117580Y-102218D01*
X117519Y-102325D01*
X117500Y-102381D01*
X117500Y-102381D01*
X117485Y-102503D01*
X117489Y-102562D01*
X117522Y-102681D01*
X117548Y-102733D01*
X117548Y-102733D01*
X117623Y-102831D01*
X117668Y-102869D01*
X117668Y-102869D01*
X117775Y-102930D01*
X117831Y-102949D01*
X117831Y-102949D01*
X117953Y-102964D01*
X118012Y-102960D01*
X118012Y-102960D01*
X118131Y-102927D01*
X118183Y-102901D01*
X118183Y-102901D01*
X118281Y-102826D01*
X118319Y-102781D01*
X118319Y-102781D01*
X118380Y-102674D01*
X118399Y-102618D01*
X118399Y-102618D01*
X118414Y-102496D01*
X118414Y-103443D01*
X115739Y-103443D01*
X115739Y-98902D01*
X115702Y-98814D01*
X115635Y-98747D01*
X115547Y-98711D01*
X115452Y-98710D01*
X115364Y-98747D01*
X115318Y-98793D01*
X114114Y-98793D01*
X114114Y-96846D01*
X114110Y-96787D01*
X114110Y-96787D01*
X114077Y-96668D01*
X114051Y-96616D01*
X114051Y-96616D01*
X113976Y-96518D01*
X113931Y-96480D01*
X113931Y-96480D01*
X113824Y-96419D01*
X113768Y-96400D01*
X113768Y-96400D01*
X113646Y-96385D01*
X113587Y-96389D01*
X113587Y-96389D01*
X113468Y-96422D01*
X113416Y-96448D01*
X113416Y-96448D01*
X113318Y-96523D01*
X113280Y-96568D01*
X113280Y-96568D01*
X113219Y-96675D01*
X113200Y-96731D01*
X113200Y-96731D01*
X113185Y-96853D01*
X113189Y-96912D01*
X113222Y-97031D01*
X113248Y-97083D01*
X113248Y-97083D01*
X113323Y-97181D01*
X113368Y-97219D01*
X113368Y-97219D01*
X113475Y-97280D01*
X113531Y-97299D01*
X113531Y-97299D01*
X113653Y-97314D01*
X113712Y-97310D01*
X113712Y-97310D01*
X113831Y-97277D01*
X113883Y-97251D01*
X113883Y-97251D01*
X113981Y-97176D01*
X114019Y-97131D01*
X114019Y-97131D01*
X114080Y-97024D01*
X114099Y-96968D01*
X114099Y-96968D01*
X114114Y-96846D01*
X114114Y-98793D01*
X113331Y-98793D01*
X113285Y-98747D01*
X113197Y-98711D01*
X113102Y-98710D01*
X113014Y-98747D01*
X112947Y-98814D01*
X112911Y-98902D01*
X112910Y-98997D01*
X112947Y-99085D01*
X113014Y-99152D01*
X113102Y-99188D01*
X113197Y-99189D01*
X113285Y-99152D01*
X113331Y-99106D01*
X115318Y-99106D01*
X115364Y-99152D01*
X115452Y-99188D01*
X115547Y-99189D01*
X115635Y-99152D01*
X115702Y-99085D01*
X115738Y-98997D01*
X115739Y-98902D01*
X115739Y-103443D01*
X114414Y-103443D01*
X113438Y-102467D01*
X113439Y-102402D01*
X113402Y-102314D01*
X113335Y-102247D01*
X113247Y-102211D01*
X113152Y-102210D01*
X113064Y-102247D01*
X112997Y-102314D01*
X112961Y-102402D01*
X112960Y-102497D01*
X112997Y-102585D01*
X113064Y-102652D01*
X113152Y-102688D01*
X113217Y-102688D01*
X114178Y-103649D01*
X111750Y-103649D01*
X111750Y-93950D01*
X158849Y-93950D01*
X158849Y-97598D01*
X158827Y-97518D01*
X158801Y-97466D01*
X158801Y-97466D01*
X158726Y-97368D01*
X158681Y-97330D01*
X158681Y-97330D01*
X158574Y-97269D01*
X158518Y-97250D01*
X158518Y-97250D01*
X158396Y-97235D01*
X158337Y-97239D01*
X158337Y-97239D01*
X158218Y-97272D01*
X158166Y-97298D01*
X158166Y-97298D01*
X158068Y-97373D01*
X158030Y-97418D01*
X158030Y-97418D01*
X157969Y-97525D01*
X157950Y-97581D01*
X157950Y-97581D01*
X157935Y-97703D01*
X157939Y-97762D01*
X157972Y-97881D01*
X157998Y-97933D01*
X157998Y-97933D01*
X158073Y-98031D01*
X158118Y-98069D01*
X158118Y-98069D01*
X158225Y-98130D01*
X158281Y-98149D01*
X158281Y-98149D01*
X158403Y-98164D01*
X158462Y-98160D01*
X158462Y-98160D01*
X158581Y-98127D01*
X158633Y-98101D01*
X158633Y-98101D01*
X158731Y-98026D01*
X158769Y-97981D01*
X158769Y-97981D01*
X158830Y-97874D01*
X158849Y-97818D01*
X158849Y-97818D01*
X158849Y-97815D01*
X158849Y-103649D01*
M02*
