G04 (created by PCBNEW (22-Jun-2014 BZR 4027)-stable) date Thu 28 Jun 2018 06:28:58 PM CST*
%MOIN*%
G04 Gerber Fmt 3.4, Leading zero omitted, Abs format*
%FSLAX34Y34*%
G01*
G70*
G90*
G04 APERTURE LIST*
%ADD10C,0.00393701*%
%ADD11C,0.011811*%
%ADD12R,0.149606X0.0787402*%
%ADD13R,0.0590551X0.0787402*%
%ADD14R,0.0472441X0.0295276*%
%ADD15R,0.0787402X0.177165*%
%ADD16R,0.177165X0.0787402*%
%ADD17R,0.0787402X0.0944882*%
%ADD18R,0.0295276X0.0472441*%
%ADD19R,0.0787402X0.0787402*%
%ADD20R,0.0787402X0.0393701*%
%ADD21R,0.055X0.055*%
%ADD22C,0.055*%
%ADD23R,0.0110236X0.0590551*%
%ADD24R,0.019685X0.0590551*%
%ADD25R,0.0590551X0.019685*%
%ADD26R,0.0590551X0.0110236*%
%ADD27C,0.023622*%
%ADD28C,0.00708661*%
%ADD29C,0.01*%
G04 APERTURE END LIST*
G54D10*
G54D11*
X122155Y-108926D02*
X122099Y-108898D01*
X122014Y-108898D01*
X121930Y-108926D01*
X121874Y-108982D01*
X121846Y-109039D01*
X121818Y-109151D01*
X121818Y-109235D01*
X121846Y-109348D01*
X121874Y-109404D01*
X121930Y-109460D01*
X122014Y-109489D01*
X122071Y-109489D01*
X122155Y-109460D01*
X122183Y-109432D01*
X122183Y-109235D01*
X122071Y-109235D01*
X122689Y-109489D02*
X122689Y-109179D01*
X122661Y-109123D01*
X122605Y-109095D01*
X122492Y-109095D01*
X122436Y-109123D01*
X122689Y-109460D02*
X122633Y-109489D01*
X122492Y-109489D01*
X122436Y-109460D01*
X122408Y-109404D01*
X122408Y-109348D01*
X122436Y-109292D01*
X122492Y-109264D01*
X122633Y-109264D01*
X122689Y-109235D01*
X122971Y-109489D02*
X122971Y-109095D01*
X122971Y-109151D02*
X122999Y-109123D01*
X123055Y-109095D01*
X123139Y-109095D01*
X123196Y-109123D01*
X123224Y-109179D01*
X123224Y-109489D01*
X123224Y-109179D02*
X123252Y-109123D01*
X123308Y-109095D01*
X123392Y-109095D01*
X123449Y-109123D01*
X123477Y-109179D01*
X123477Y-109489D01*
X123983Y-109460D02*
X123927Y-109489D01*
X123814Y-109489D01*
X123758Y-109460D01*
X123730Y-109404D01*
X123730Y-109179D01*
X123758Y-109123D01*
X123814Y-109095D01*
X123927Y-109095D01*
X123983Y-109123D01*
X124011Y-109179D01*
X124011Y-109235D01*
X123730Y-109292D01*
X124264Y-109095D02*
X124264Y-109685D01*
X124264Y-109123D02*
X124320Y-109095D01*
X124433Y-109095D01*
X124489Y-109123D01*
X124517Y-109151D01*
X124545Y-109207D01*
X124545Y-109376D01*
X124517Y-109432D01*
X124489Y-109460D01*
X124433Y-109489D01*
X124320Y-109489D01*
X124264Y-109460D01*
X125052Y-109489D02*
X125052Y-109179D01*
X125023Y-109123D01*
X124967Y-109095D01*
X124855Y-109095D01*
X124798Y-109123D01*
X125052Y-109460D02*
X124995Y-109489D01*
X124855Y-109489D01*
X124798Y-109460D01*
X124770Y-109404D01*
X124770Y-109348D01*
X124798Y-109292D01*
X124855Y-109264D01*
X124995Y-109264D01*
X125052Y-109235D01*
X125586Y-109489D02*
X125586Y-108898D01*
X125586Y-109460D02*
X125530Y-109489D01*
X125417Y-109489D01*
X125361Y-109460D01*
X125333Y-109432D01*
X125305Y-109376D01*
X125305Y-109207D01*
X125333Y-109151D01*
X125361Y-109123D01*
X125417Y-109095D01*
X125530Y-109095D01*
X125586Y-109123D01*
X126233Y-109095D02*
X126458Y-109095D01*
X126317Y-109489D02*
X126317Y-108982D01*
X126345Y-108926D01*
X126401Y-108898D01*
X126458Y-108898D01*
X126739Y-109489D02*
X126683Y-109460D01*
X126654Y-109432D01*
X126626Y-109376D01*
X126626Y-109207D01*
X126654Y-109151D01*
X126683Y-109123D01*
X126739Y-109095D01*
X126823Y-109095D01*
X126879Y-109123D01*
X126908Y-109151D01*
X126936Y-109207D01*
X126936Y-109376D01*
X126908Y-109432D01*
X126879Y-109460D01*
X126823Y-109489D01*
X126739Y-109489D01*
X127189Y-109489D02*
X127189Y-109095D01*
X127189Y-109207D02*
X127217Y-109151D01*
X127245Y-109123D01*
X127301Y-109095D01*
X127357Y-109095D01*
X127976Y-109460D02*
X128061Y-109489D01*
X128201Y-109489D01*
X128257Y-109460D01*
X128285Y-109432D01*
X128314Y-109376D01*
X128314Y-109320D01*
X128285Y-109264D01*
X128257Y-109235D01*
X128201Y-109207D01*
X128089Y-109179D01*
X128032Y-109151D01*
X128004Y-109123D01*
X127976Y-109067D01*
X127976Y-109010D01*
X128004Y-108954D01*
X128032Y-108926D01*
X128089Y-108898D01*
X128229Y-108898D01*
X128314Y-108926D01*
X128651Y-109489D02*
X128595Y-109460D01*
X128567Y-109432D01*
X128539Y-109376D01*
X128539Y-109207D01*
X128567Y-109151D01*
X128595Y-109123D01*
X128651Y-109095D01*
X128735Y-109095D01*
X128792Y-109123D01*
X128820Y-109151D01*
X128848Y-109207D01*
X128848Y-109376D01*
X128820Y-109432D01*
X128792Y-109460D01*
X128735Y-109489D01*
X128651Y-109489D01*
X129101Y-109095D02*
X129101Y-109489D01*
X129101Y-109151D02*
X129129Y-109123D01*
X129185Y-109095D01*
X129270Y-109095D01*
X129326Y-109123D01*
X129354Y-109179D01*
X129354Y-109489D01*
X129579Y-109095D02*
X129720Y-109489D01*
X129860Y-109095D02*
X129720Y-109489D01*
X129663Y-109629D01*
X129635Y-109657D01*
X129579Y-109685D01*
X130479Y-108898D02*
X130873Y-108898D01*
X130479Y-109489D01*
X130873Y-109489D01*
X131041Y-108898D02*
X131407Y-108898D01*
X131210Y-109123D01*
X131294Y-109123D01*
X131351Y-109151D01*
X131379Y-109179D01*
X131407Y-109235D01*
X131407Y-109376D01*
X131379Y-109432D01*
X131351Y-109460D01*
X131294Y-109489D01*
X131126Y-109489D01*
X131070Y-109460D01*
X131041Y-109432D01*
X132447Y-109432D02*
X132419Y-109460D01*
X132335Y-109489D01*
X132279Y-109489D01*
X132194Y-109460D01*
X132138Y-109404D01*
X132110Y-109348D01*
X132082Y-109235D01*
X132082Y-109151D01*
X132110Y-109039D01*
X132138Y-108982D01*
X132194Y-108926D01*
X132279Y-108898D01*
X132335Y-108898D01*
X132419Y-108926D01*
X132447Y-108954D01*
X132785Y-109489D02*
X132729Y-109460D01*
X132701Y-109432D01*
X132672Y-109376D01*
X132672Y-109207D01*
X132701Y-109151D01*
X132729Y-109123D01*
X132785Y-109095D01*
X132869Y-109095D01*
X132926Y-109123D01*
X132954Y-109151D01*
X132982Y-109207D01*
X132982Y-109376D01*
X132954Y-109432D01*
X132926Y-109460D01*
X132869Y-109489D01*
X132785Y-109489D01*
X133235Y-109489D02*
X133235Y-109095D01*
X133235Y-109151D02*
X133263Y-109123D01*
X133319Y-109095D01*
X133404Y-109095D01*
X133460Y-109123D01*
X133488Y-109179D01*
X133488Y-109489D01*
X133488Y-109179D02*
X133516Y-109123D01*
X133572Y-109095D01*
X133657Y-109095D01*
X133713Y-109123D01*
X133741Y-109179D01*
X133741Y-109489D01*
X134022Y-109095D02*
X134022Y-109685D01*
X134022Y-109123D02*
X134079Y-109095D01*
X134191Y-109095D01*
X134247Y-109123D01*
X134275Y-109151D01*
X134303Y-109207D01*
X134303Y-109376D01*
X134275Y-109432D01*
X134247Y-109460D01*
X134191Y-109489D01*
X134079Y-109489D01*
X134022Y-109460D01*
X134810Y-109489D02*
X134810Y-109179D01*
X134782Y-109123D01*
X134725Y-109095D01*
X134613Y-109095D01*
X134557Y-109123D01*
X134810Y-109460D02*
X134753Y-109489D01*
X134613Y-109489D01*
X134557Y-109460D01*
X134528Y-109404D01*
X134528Y-109348D01*
X134557Y-109292D01*
X134613Y-109264D01*
X134753Y-109264D01*
X134810Y-109235D01*
X135344Y-109460D02*
X135288Y-109489D01*
X135175Y-109489D01*
X135119Y-109460D01*
X135091Y-109432D01*
X135063Y-109376D01*
X135063Y-109207D01*
X135091Y-109151D01*
X135119Y-109123D01*
X135175Y-109095D01*
X135288Y-109095D01*
X135344Y-109123D01*
X135513Y-109095D02*
X135738Y-109095D01*
X135597Y-108898D02*
X135597Y-109404D01*
X135625Y-109460D01*
X135681Y-109489D01*
X135738Y-109489D01*
G54D12*
X113200Y-100559D03*
G54D13*
X113200Y-103040D03*
X114105Y-103040D03*
X112294Y-103040D03*
G54D14*
X140675Y-101050D03*
X141424Y-101050D03*
G54D15*
X121087Y-95894D03*
X122032Y-95894D03*
X149432Y-95894D03*
X148487Y-95894D03*
X149432Y-101894D03*
X148487Y-101894D03*
X121087Y-101894D03*
X122032Y-101894D03*
G54D16*
X151960Y-98421D03*
X151960Y-99366D03*
X124560Y-98421D03*
X124560Y-99366D03*
X118550Y-99372D03*
X118550Y-98427D03*
X145960Y-98421D03*
X145960Y-99366D03*
G54D17*
X134502Y-95794D03*
X136117Y-95794D03*
G54D14*
X136434Y-94594D03*
X135685Y-94594D03*
X134185Y-94594D03*
X134934Y-94594D03*
G54D18*
X144350Y-102225D03*
X144350Y-102974D03*
X132860Y-100768D03*
X132860Y-100019D03*
G54D14*
X134187Y-96986D03*
X134936Y-96986D03*
X136874Y-101800D03*
X136125Y-101800D03*
G54D18*
X137610Y-98321D03*
X137610Y-99070D03*
G54D19*
X141400Y-103200D03*
X141400Y-102000D03*
X143400Y-102000D03*
X143400Y-103200D03*
X112400Y-95800D03*
X112400Y-94600D03*
X114400Y-94600D03*
X114400Y-95800D03*
X156200Y-95800D03*
X156200Y-94600D03*
X158200Y-94600D03*
X158200Y-95800D03*
X131000Y-102900D03*
X131000Y-101700D03*
X133000Y-101700D03*
X133000Y-102900D03*
X138000Y-103200D03*
X138000Y-102000D03*
X140000Y-102000D03*
X140000Y-103200D03*
X139800Y-94600D03*
X139800Y-95800D03*
X137800Y-95800D03*
X137800Y-94600D03*
X143400Y-94600D03*
X143400Y-95800D03*
X141400Y-95800D03*
X141400Y-94600D03*
X132800Y-94600D03*
X132800Y-95800D03*
X130800Y-95800D03*
X130800Y-94600D03*
X127650Y-102900D03*
X127650Y-101700D03*
X129650Y-101700D03*
X129650Y-102900D03*
G54D20*
X112500Y-99600D03*
X112500Y-98950D03*
X112500Y-98300D03*
X112500Y-97650D03*
X112500Y-97000D03*
G54D21*
X158200Y-99900D03*
G54D22*
X158200Y-100900D03*
X158200Y-101900D03*
X158200Y-102900D03*
G54D23*
X135752Y-97651D03*
X135555Y-97651D03*
X135358Y-97651D03*
X135161Y-97651D03*
X134964Y-97651D03*
G54D24*
X136382Y-97651D03*
G54D23*
X136145Y-97651D03*
X135948Y-97651D03*
G54D25*
X133517Y-98271D03*
G54D26*
X133517Y-98508D03*
X133517Y-98705D03*
X133517Y-98901D03*
X133517Y-99098D03*
X133517Y-99295D03*
X133517Y-99492D03*
X133517Y-99689D03*
G54D24*
X134137Y-101136D03*
G54D23*
X134374Y-101136D03*
X134571Y-101136D03*
X134767Y-101136D03*
X134964Y-101136D03*
X135161Y-101136D03*
X135358Y-101136D03*
X135555Y-101136D03*
G54D25*
X137002Y-100516D03*
G54D26*
X137002Y-100279D03*
X137002Y-100082D03*
X137002Y-99886D03*
X137002Y-99689D03*
X137002Y-99492D03*
X137002Y-99295D03*
X137002Y-99098D03*
G54D23*
X134767Y-97651D03*
X134571Y-97651D03*
X134374Y-97651D03*
G54D24*
X134137Y-97651D03*
G54D26*
X133517Y-99886D03*
X133517Y-100082D03*
X133517Y-100279D03*
G54D25*
X133517Y-100516D03*
G54D23*
X135752Y-101136D03*
X135948Y-101136D03*
X136145Y-101136D03*
G54D24*
X136382Y-101136D03*
G54D26*
X137002Y-98901D03*
X137002Y-98705D03*
X137002Y-98508D03*
G54D25*
X137002Y-98271D03*
G54D14*
X115025Y-103250D03*
X115774Y-103250D03*
G54D27*
X138050Y-98500D03*
X137350Y-101850D03*
X133550Y-100800D03*
X113200Y-102450D03*
X150500Y-98400D03*
X150450Y-96450D03*
X136150Y-100050D03*
X134450Y-100250D03*
X142400Y-102000D03*
X135250Y-98250D03*
X138950Y-102000D03*
X135300Y-102200D03*
X142050Y-100800D03*
X135900Y-100550D03*
X113150Y-98950D03*
X115500Y-98950D03*
G54D28*
X136382Y-101136D02*
X140589Y-101136D01*
X140589Y-101136D02*
X140675Y-101050D01*
X137871Y-98321D02*
X137610Y-98321D01*
X138050Y-98500D02*
X137871Y-98321D01*
X137300Y-101800D02*
X136874Y-101800D01*
X137350Y-101850D02*
X137300Y-101800D01*
X134767Y-97651D02*
X134767Y-100382D01*
X134633Y-100516D02*
X133517Y-100516D01*
X134767Y-100382D02*
X134633Y-100516D01*
X133550Y-100800D02*
X133517Y-100767D01*
X133517Y-100767D02*
X133517Y-100516D01*
X113200Y-103040D02*
X113200Y-102450D01*
X136382Y-101136D02*
X136382Y-101230D01*
X136382Y-101230D02*
X136916Y-101764D01*
X133517Y-100516D02*
X133111Y-100516D01*
X133111Y-100516D02*
X132860Y-100768D01*
X137002Y-98271D02*
X137559Y-98271D01*
X137559Y-98271D02*
X137610Y-98321D01*
X134767Y-97651D02*
X134767Y-97317D01*
X134451Y-97250D02*
X134187Y-96986D01*
X134700Y-97250D02*
X134451Y-97250D01*
X134767Y-97317D02*
X134700Y-97250D01*
X112500Y-99600D02*
X114750Y-99600D01*
X115025Y-99875D02*
X115025Y-103250D01*
X114750Y-99600D02*
X115025Y-99875D01*
X115025Y-103250D02*
X114315Y-103250D01*
X114315Y-103250D02*
X114105Y-103040D01*
X137002Y-100082D02*
X151243Y-100082D01*
X151243Y-100082D02*
X151960Y-99366D01*
X146873Y-100279D02*
X148487Y-101894D01*
X137002Y-100279D02*
X146873Y-100279D01*
X136145Y-97651D02*
X136145Y-96804D01*
X137800Y-96600D02*
X137800Y-95800D01*
X137700Y-96700D02*
X137800Y-96600D01*
X136250Y-96700D02*
X137700Y-96700D01*
X136145Y-96804D02*
X136250Y-96700D01*
X137800Y-95800D02*
X139800Y-95800D01*
X137002Y-98705D02*
X137905Y-98705D01*
X141150Y-98850D02*
X141350Y-98650D01*
X138050Y-98850D02*
X141150Y-98850D01*
X137905Y-98705D02*
X138050Y-98850D01*
X141400Y-98600D02*
X141400Y-95800D01*
X141294Y-98705D02*
X141350Y-98650D01*
X141350Y-98650D02*
X141400Y-98600D01*
X141400Y-95800D02*
X143400Y-95800D01*
X134137Y-97651D02*
X132901Y-97651D01*
X132800Y-97550D02*
X132800Y-95800D01*
X132901Y-97651D02*
X132800Y-97550D01*
X132800Y-95800D02*
X130800Y-95800D01*
X133517Y-99295D02*
X130304Y-99295D01*
X129650Y-99950D02*
X129650Y-101700D01*
X130304Y-99295D02*
X129650Y-99950D01*
X129650Y-101700D02*
X127650Y-101700D01*
X133517Y-99098D02*
X126801Y-99098D01*
X122032Y-100717D02*
X122032Y-101894D01*
X122300Y-100450D02*
X122032Y-100717D01*
X125450Y-100450D02*
X122300Y-100450D01*
X126801Y-99098D02*
X125450Y-100450D01*
X149432Y-95894D02*
X149894Y-95894D01*
X149894Y-95894D02*
X150450Y-96450D01*
X150500Y-98400D02*
X150500Y-98421D01*
X150500Y-98421D02*
X150500Y-98400D01*
X150500Y-98400D02*
X150500Y-98421D01*
X136125Y-101800D02*
X136125Y-101975D01*
X137350Y-103200D02*
X138000Y-103200D01*
X136125Y-101975D02*
X137350Y-103200D01*
X149432Y-101894D02*
X151006Y-101894D01*
X156200Y-96700D02*
X156200Y-95800D01*
X151006Y-101894D02*
X156200Y-96700D01*
X121087Y-101894D02*
X121087Y-102687D01*
X127350Y-103200D02*
X127650Y-102900D01*
X121600Y-103200D02*
X127350Y-103200D01*
X121087Y-102687D02*
X121600Y-103200D01*
X124560Y-98421D02*
X121128Y-98421D01*
X120177Y-99372D02*
X118550Y-99372D01*
X121128Y-98421D02*
X120177Y-99372D01*
X133517Y-100279D02*
X134420Y-100279D01*
X134420Y-100279D02*
X134450Y-100250D01*
X132860Y-100019D02*
X130880Y-100019D01*
X130300Y-100600D02*
X130300Y-102900D01*
X130880Y-100019D02*
X130300Y-100600D01*
X121087Y-101894D02*
X121071Y-101894D01*
X121071Y-101894D02*
X118550Y-99372D01*
X118550Y-99372D02*
X117422Y-99372D01*
X114400Y-96350D02*
X114400Y-95800D01*
X117422Y-99372D02*
X114400Y-96350D01*
X114400Y-95800D02*
X120993Y-95800D01*
X120993Y-95800D02*
X121087Y-95894D01*
X134936Y-96986D02*
X134936Y-96736D01*
X133600Y-96350D02*
X133600Y-94050D01*
X133800Y-96550D02*
X133600Y-96350D01*
X134750Y-96550D02*
X133800Y-96550D01*
X134936Y-96736D02*
X134750Y-96550D01*
X135700Y-94050D02*
X135700Y-94579D01*
X135700Y-94579D02*
X135685Y-94594D01*
X132800Y-94600D02*
X132950Y-94600D01*
X132950Y-94600D02*
X133500Y-94050D01*
X133500Y-94050D02*
X133600Y-94050D01*
X137250Y-94050D02*
X137800Y-94600D01*
X133600Y-94050D02*
X135700Y-94050D01*
X135700Y-94050D02*
X137250Y-94050D01*
X139800Y-94600D02*
X141400Y-94600D01*
X143400Y-94600D02*
X149250Y-94600D01*
X149432Y-94782D02*
X149432Y-95894D01*
X149250Y-94600D02*
X149432Y-94782D01*
X151960Y-98421D02*
X153578Y-98421D01*
X153578Y-98421D02*
X156200Y-95800D01*
X145960Y-98421D02*
X150500Y-98421D01*
X150500Y-98421D02*
X151960Y-98421D01*
X127650Y-102900D02*
X129650Y-102900D01*
X129650Y-102900D02*
X130300Y-102900D01*
X130300Y-102900D02*
X131000Y-102900D01*
X131000Y-102900D02*
X133000Y-102900D01*
X133538Y-100300D02*
X133517Y-100279D01*
X136150Y-98508D02*
X136150Y-100050D01*
X136150Y-100050D02*
X136150Y-100250D01*
X136150Y-101131D02*
X136145Y-101136D01*
X136150Y-100300D02*
X136150Y-101131D01*
X136150Y-100250D02*
X136150Y-100300D01*
X137002Y-99098D02*
X136598Y-99098D01*
X136500Y-99000D02*
X136500Y-98508D01*
X136598Y-99098D02*
X136500Y-99000D01*
X137002Y-98508D02*
X136500Y-98508D01*
X136500Y-98508D02*
X136150Y-98508D01*
X136150Y-98508D02*
X135058Y-98508D01*
X135058Y-98508D02*
X134964Y-98414D01*
X134964Y-98414D02*
X134964Y-97651D01*
X112500Y-97650D02*
X111950Y-97650D01*
X111940Y-103040D02*
X112294Y-103040D01*
X111850Y-102950D02*
X111940Y-103040D01*
X111850Y-97750D02*
X111850Y-102950D01*
X111950Y-97650D02*
X111850Y-97750D01*
X112500Y-97650D02*
X112500Y-97000D01*
X112500Y-97000D02*
X112400Y-96900D01*
X112400Y-96900D02*
X112400Y-95800D01*
X112400Y-95800D02*
X114400Y-95800D01*
X130800Y-94600D02*
X132800Y-94600D01*
X134934Y-94594D02*
X135685Y-94594D01*
X134964Y-97651D02*
X134964Y-97014D01*
X134964Y-97014D02*
X134936Y-96986D01*
X143400Y-94600D02*
X141400Y-94600D01*
X139800Y-94600D02*
X137800Y-94600D01*
X156200Y-95800D02*
X158200Y-95800D01*
X143400Y-103200D02*
X144124Y-103200D01*
X144124Y-103200D02*
X144350Y-102974D01*
X138000Y-103200D02*
X140000Y-103200D01*
X140000Y-103200D02*
X141400Y-103200D01*
X141400Y-103200D02*
X143400Y-103200D01*
X136145Y-101136D02*
X136145Y-101741D01*
X136145Y-101741D02*
X136167Y-101764D01*
X133517Y-100279D02*
X133119Y-100279D01*
X133119Y-100279D02*
X132860Y-100019D01*
X137002Y-99098D02*
X137581Y-99098D01*
X137581Y-99098D02*
X137610Y-99070D01*
X112400Y-94600D02*
X114400Y-94600D01*
X114400Y-94600D02*
X129750Y-94600D01*
X129921Y-98271D02*
X133517Y-98271D01*
X129850Y-98200D02*
X129921Y-98271D01*
X129850Y-94700D02*
X129850Y-98200D01*
X129750Y-94600D02*
X129850Y-94700D01*
X133517Y-98705D02*
X129655Y-98705D01*
X118550Y-97550D02*
X118550Y-98427D01*
X118750Y-97350D02*
X118550Y-97550D01*
X129150Y-97350D02*
X118750Y-97350D01*
X129350Y-97550D02*
X129150Y-97350D01*
X129350Y-98400D02*
X129350Y-97550D01*
X129655Y-98705D02*
X129350Y-98400D01*
X137002Y-99689D02*
X141610Y-99689D01*
X155100Y-94600D02*
X156200Y-94600D01*
X152550Y-97150D02*
X155100Y-94600D01*
X141950Y-97150D02*
X152550Y-97150D01*
X141800Y-97300D02*
X141950Y-97150D01*
X141800Y-99500D02*
X141800Y-97300D01*
X141610Y-99689D02*
X141800Y-99500D01*
X156200Y-94600D02*
X158200Y-94600D01*
X133517Y-98901D02*
X126248Y-98901D01*
X125783Y-99366D02*
X124560Y-99366D01*
X126248Y-98901D02*
X125783Y-99366D01*
X135161Y-97651D02*
X135161Y-98161D01*
X135161Y-98161D02*
X135250Y-98250D01*
X141424Y-101050D02*
X141424Y-101975D01*
X141424Y-101975D02*
X141400Y-102000D01*
X143400Y-102000D02*
X144124Y-102000D01*
X144124Y-102000D02*
X144350Y-102225D01*
X141400Y-102000D02*
X142400Y-102000D01*
X142400Y-102000D02*
X143400Y-102000D01*
X131000Y-101700D02*
X133000Y-101700D01*
X133000Y-101700D02*
X134900Y-101700D01*
X134900Y-101700D02*
X134964Y-101635D01*
X134964Y-101635D02*
X134964Y-101136D01*
X135358Y-101136D02*
X135358Y-102141D01*
X135358Y-102141D02*
X135300Y-102200D01*
X138000Y-102000D02*
X138950Y-102000D01*
X138950Y-102000D02*
X140000Y-102000D01*
X158200Y-99900D02*
X153300Y-99900D01*
X153300Y-99900D02*
X149850Y-103350D01*
X137002Y-100516D02*
X144966Y-100516D01*
X147800Y-103350D02*
X149850Y-103350D01*
X144966Y-100516D02*
X147800Y-103350D01*
X150000Y-103500D02*
X147700Y-103500D01*
X145000Y-100800D02*
X144500Y-100800D01*
X147700Y-103500D02*
X145000Y-100800D01*
X158200Y-100900D02*
X152600Y-100900D01*
X152600Y-100900D02*
X150000Y-103500D01*
X135948Y-101136D02*
X135948Y-100598D01*
X142050Y-100800D02*
X144500Y-100800D01*
X135948Y-100598D02*
X135900Y-100550D01*
X144500Y-100800D02*
X144600Y-100800D01*
X133517Y-98508D02*
X129808Y-98508D01*
X129394Y-95894D02*
X122032Y-95894D01*
X129600Y-96100D02*
X129394Y-95894D01*
X129600Y-98300D02*
X129600Y-96100D01*
X129808Y-98508D02*
X129600Y-98300D01*
X135555Y-101136D02*
X135555Y-102394D01*
X113150Y-98950D02*
X112500Y-98950D01*
X115500Y-99050D02*
X115500Y-98950D01*
X119950Y-103500D02*
X115500Y-99050D01*
X134450Y-103500D02*
X119950Y-103500D01*
X135555Y-102394D02*
X134450Y-103500D01*
X115774Y-103250D02*
X119100Y-103250D01*
X119100Y-103250D02*
X119250Y-103100D01*
X135752Y-101136D02*
X135752Y-102398D01*
X135700Y-102450D02*
X134500Y-103650D01*
X114450Y-98300D02*
X112500Y-98300D01*
X119800Y-103650D02*
X119250Y-103100D01*
X119250Y-103100D02*
X114450Y-98300D01*
X134500Y-103650D02*
X119800Y-103650D01*
X135752Y-102398D02*
X135700Y-102450D01*
X148487Y-95894D02*
X148487Y-96312D01*
X141850Y-96950D02*
X141600Y-97200D01*
X147850Y-96950D02*
X141850Y-96950D01*
X148487Y-96312D02*
X147850Y-96950D01*
X137002Y-99492D02*
X141507Y-99492D01*
X141507Y-99492D02*
X141600Y-99400D01*
X141600Y-99400D02*
X141600Y-97200D01*
X135555Y-97651D02*
X135555Y-95944D01*
X136111Y-95800D02*
X136117Y-95794D01*
X135700Y-95800D02*
X136111Y-95800D01*
X135555Y-95944D02*
X135700Y-95800D01*
X136434Y-94594D02*
X136434Y-95477D01*
X136434Y-95477D02*
X136117Y-95794D01*
X135358Y-97651D02*
X135358Y-95958D01*
X135194Y-95794D02*
X134502Y-95794D01*
X135358Y-95958D02*
X135194Y-95794D01*
X134185Y-94594D02*
X134185Y-95477D01*
X134185Y-95477D02*
X134502Y-95794D01*
X137002Y-99886D02*
X145440Y-99886D01*
X145440Y-99886D02*
X145960Y-99366D01*
G54D10*
G36*
X141443Y-99335D02*
X141442Y-99336D01*
X138007Y-99336D01*
X138007Y-99182D01*
X137945Y-99120D01*
X137660Y-99120D01*
X137660Y-99127D01*
X137560Y-99127D01*
X137560Y-99120D01*
X137552Y-99120D01*
X137552Y-99020D01*
X137560Y-99020D01*
X137560Y-99012D01*
X137660Y-99012D01*
X137660Y-99020D01*
X137945Y-99020D01*
X137978Y-98986D01*
X137990Y-98994D01*
X138050Y-99006D01*
X141150Y-99006D01*
X141150Y-99006D01*
X141209Y-98994D01*
X141260Y-98960D01*
X141405Y-98815D01*
X141443Y-98777D01*
X141443Y-99335D01*
X141443Y-99335D01*
G37*
G54D29*
X141443Y-99335D02*
X141442Y-99336D01*
X138007Y-99336D01*
X138007Y-99182D01*
X137945Y-99120D01*
X137660Y-99120D01*
X137660Y-99127D01*
X137560Y-99127D01*
X137560Y-99120D01*
X137552Y-99120D01*
X137552Y-99020D01*
X137560Y-99020D01*
X137560Y-99012D01*
X137660Y-99012D01*
X137660Y-99020D01*
X137945Y-99020D01*
X137978Y-98986D01*
X137990Y-98994D01*
X138050Y-99006D01*
X141150Y-99006D01*
X141150Y-99006D01*
X141209Y-98994D01*
X141260Y-98960D01*
X141405Y-98815D01*
X141443Y-98777D01*
X141443Y-99335D01*
G54D10*
G36*
X158849Y-103649D02*
X158729Y-103649D01*
X158729Y-101975D01*
X158718Y-101767D01*
X158660Y-101627D01*
X158567Y-101602D01*
X158497Y-101673D01*
X158497Y-101532D01*
X158472Y-101439D01*
X158275Y-101370D01*
X158067Y-101381D01*
X157927Y-101439D01*
X157902Y-101532D01*
X158200Y-101829D01*
X158497Y-101532D01*
X158497Y-101673D01*
X158270Y-101900D01*
X158567Y-102197D01*
X158660Y-102172D01*
X158729Y-101975D01*
X158729Y-103649D01*
X158595Y-103649D01*
X158595Y-102821D01*
X158535Y-102676D01*
X158497Y-102637D01*
X158497Y-102267D01*
X158200Y-101970D01*
X158129Y-102041D01*
X158129Y-101900D01*
X157832Y-101602D01*
X157739Y-101627D01*
X157670Y-101824D01*
X157681Y-102032D01*
X157739Y-102172D01*
X157832Y-102197D01*
X158129Y-101900D01*
X158129Y-102041D01*
X157902Y-102267D01*
X157927Y-102360D01*
X158124Y-102429D01*
X158332Y-102418D01*
X158472Y-102360D01*
X158497Y-102267D01*
X158497Y-102637D01*
X158424Y-102564D01*
X158279Y-102504D01*
X158121Y-102504D01*
X157976Y-102564D01*
X157864Y-102675D01*
X157804Y-102820D01*
X157804Y-102978D01*
X157864Y-103123D01*
X157975Y-103235D01*
X158120Y-103295D01*
X158278Y-103295D01*
X158423Y-103235D01*
X158535Y-103124D01*
X158595Y-102979D01*
X158595Y-102821D01*
X158595Y-103649D01*
X153064Y-103649D01*
X153064Y-102546D01*
X153060Y-102487D01*
X153060Y-102487D01*
X153027Y-102368D01*
X153001Y-102316D01*
X153001Y-102316D01*
X152926Y-102218D01*
X152881Y-102180D01*
X152881Y-102180D01*
X152774Y-102119D01*
X152718Y-102100D01*
X152718Y-102100D01*
X152596Y-102085D01*
X152537Y-102089D01*
X152537Y-102089D01*
X152418Y-102122D01*
X152366Y-102148D01*
X152366Y-102148D01*
X152268Y-102223D01*
X152230Y-102268D01*
X152230Y-102268D01*
X152169Y-102375D01*
X152150Y-102431D01*
X152150Y-102431D01*
X152135Y-102553D01*
X152139Y-102612D01*
X152172Y-102731D01*
X152198Y-102783D01*
X152198Y-102783D01*
X152273Y-102881D01*
X152318Y-102919D01*
X152318Y-102919D01*
X152425Y-102980D01*
X152481Y-102999D01*
X152481Y-102999D01*
X152603Y-103014D01*
X152662Y-103010D01*
X152662Y-103010D01*
X152781Y-102977D01*
X152833Y-102951D01*
X152833Y-102951D01*
X152931Y-102876D01*
X152969Y-102831D01*
X152969Y-102831D01*
X153030Y-102724D01*
X153049Y-102668D01*
X153049Y-102668D01*
X153064Y-102546D01*
X153064Y-103649D01*
X150033Y-103649D01*
X150059Y-103644D01*
X150110Y-103610D01*
X152664Y-101056D01*
X157836Y-101056D01*
X157864Y-101123D01*
X157975Y-101235D01*
X158120Y-101295D01*
X158278Y-101295D01*
X158423Y-101235D01*
X158535Y-101124D01*
X158595Y-100979D01*
X158595Y-100821D01*
X158535Y-100676D01*
X158424Y-100564D01*
X158279Y-100504D01*
X158121Y-100504D01*
X157976Y-100564D01*
X157864Y-100675D01*
X157836Y-100743D01*
X152677Y-100743D01*
X153364Y-100056D01*
X157804Y-100056D01*
X157804Y-100198D01*
X157822Y-100243D01*
X157856Y-100277D01*
X157900Y-100295D01*
X157948Y-100295D01*
X158498Y-100295D01*
X158543Y-100277D01*
X158577Y-100243D01*
X158595Y-100199D01*
X158595Y-100151D01*
X158595Y-99601D01*
X158577Y-99556D01*
X158543Y-99522D01*
X158499Y-99504D01*
X158451Y-99504D01*
X157901Y-99504D01*
X157856Y-99522D01*
X157822Y-99556D01*
X157804Y-99600D01*
X157804Y-99648D01*
X157804Y-99743D01*
X156843Y-99743D01*
X156843Y-96144D01*
X156843Y-95455D01*
X156843Y-95356D01*
X156805Y-95264D01*
X156735Y-95194D01*
X156643Y-95156D01*
X156312Y-95156D01*
X156250Y-95218D01*
X156250Y-95750D01*
X156781Y-95750D01*
X156843Y-95687D01*
X156843Y-95455D01*
X156843Y-96144D01*
X156843Y-95912D01*
X156781Y-95850D01*
X156250Y-95850D01*
X156250Y-96381D01*
X156312Y-96443D01*
X156643Y-96443D01*
X156735Y-96405D01*
X156805Y-96335D01*
X156843Y-96243D01*
X156843Y-96144D01*
X156843Y-99743D01*
X156150Y-99743D01*
X156150Y-96381D01*
X156150Y-95850D01*
X156150Y-95750D01*
X156150Y-95218D01*
X156087Y-95156D01*
X155756Y-95156D01*
X155664Y-95194D01*
X155594Y-95264D01*
X155556Y-95356D01*
X155556Y-95455D01*
X155556Y-95687D01*
X155618Y-95750D01*
X156150Y-95750D01*
X156150Y-95850D01*
X155618Y-95850D01*
X155556Y-95912D01*
X155556Y-96144D01*
X155556Y-96243D01*
X155594Y-96335D01*
X155664Y-96405D01*
X155756Y-96443D01*
X156087Y-96443D01*
X156150Y-96381D01*
X156150Y-99743D01*
X153300Y-99743D01*
X153250Y-99753D01*
X153240Y-99755D01*
X153189Y-99789D01*
X150076Y-102902D01*
X150076Y-102730D01*
X150076Y-101057D01*
X150076Y-100958D01*
X150037Y-100866D01*
X149967Y-100796D01*
X149875Y-100758D01*
X149544Y-100758D01*
X149482Y-100820D01*
X149482Y-101844D01*
X150013Y-101844D01*
X150076Y-101781D01*
X150076Y-101057D01*
X150076Y-102730D01*
X150076Y-102006D01*
X150013Y-101944D01*
X149482Y-101944D01*
X149482Y-102967D01*
X149544Y-103029D01*
X149875Y-103029D01*
X149967Y-102991D01*
X150037Y-102921D01*
X150076Y-102829D01*
X150076Y-102730D01*
X150076Y-102902D01*
X149785Y-103193D01*
X147864Y-103193D01*
X145107Y-100436D01*
X146808Y-100436D01*
X147972Y-101600D01*
X147972Y-102803D01*
X147991Y-102848D01*
X148025Y-102882D01*
X148069Y-102900D01*
X148117Y-102900D01*
X148818Y-102900D01*
X148826Y-102921D01*
X148897Y-102991D01*
X148989Y-103029D01*
X149319Y-103029D01*
X149382Y-102967D01*
X149382Y-101944D01*
X149374Y-101944D01*
X149374Y-101844D01*
X149382Y-101844D01*
X149382Y-100820D01*
X149319Y-100758D01*
X148989Y-100758D01*
X148897Y-100796D01*
X148826Y-100866D01*
X148818Y-100887D01*
X148069Y-100887D01*
X148025Y-100905D01*
X147991Y-100939D01*
X147973Y-100984D01*
X147972Y-101032D01*
X147972Y-101158D01*
X147053Y-100239D01*
X151243Y-100239D01*
X151243Y-100239D01*
X151303Y-100227D01*
X151353Y-100193D01*
X151666Y-99881D01*
X152869Y-99881D01*
X152914Y-99862D01*
X152948Y-99828D01*
X152966Y-99784D01*
X152966Y-99736D01*
X152966Y-99035D01*
X152987Y-99027D01*
X153057Y-98957D01*
X153095Y-98865D01*
X153095Y-98765D01*
X153095Y-98077D01*
X153095Y-97977D01*
X153057Y-97886D01*
X152987Y-97815D01*
X152895Y-97777D01*
X152072Y-97777D01*
X152010Y-97840D01*
X152010Y-98371D01*
X153033Y-98371D01*
X153095Y-98309D01*
X153095Y-98077D01*
X153095Y-98765D01*
X153095Y-98534D01*
X153033Y-98471D01*
X152010Y-98471D01*
X152010Y-98479D01*
X151910Y-98479D01*
X151910Y-98471D01*
X151910Y-98371D01*
X151910Y-97840D01*
X151847Y-97777D01*
X151024Y-97777D01*
X150932Y-97815D01*
X150862Y-97886D01*
X150824Y-97977D01*
X150824Y-98077D01*
X150824Y-98309D01*
X150886Y-98371D01*
X151910Y-98371D01*
X151910Y-98471D01*
X150886Y-98471D01*
X150824Y-98534D01*
X150824Y-98765D01*
X150824Y-98865D01*
X150862Y-98957D01*
X150932Y-99027D01*
X150953Y-99035D01*
X150953Y-99784D01*
X150971Y-99828D01*
X151005Y-99862D01*
X151050Y-99880D01*
X151098Y-99881D01*
X151224Y-99881D01*
X151178Y-99926D01*
X145620Y-99926D01*
X145666Y-99881D01*
X146869Y-99881D01*
X146914Y-99862D01*
X146948Y-99828D01*
X146966Y-99784D01*
X146966Y-99736D01*
X146966Y-99035D01*
X146987Y-99027D01*
X147057Y-98957D01*
X147095Y-98865D01*
X147095Y-98765D01*
X147095Y-98077D01*
X147095Y-97977D01*
X147057Y-97886D01*
X146987Y-97815D01*
X146895Y-97777D01*
X146072Y-97777D01*
X146010Y-97840D01*
X146010Y-98371D01*
X147033Y-98371D01*
X147095Y-98309D01*
X147095Y-98077D01*
X147095Y-98765D01*
X147095Y-98534D01*
X147033Y-98471D01*
X146010Y-98471D01*
X146010Y-98479D01*
X145910Y-98479D01*
X145910Y-98471D01*
X145910Y-98371D01*
X145910Y-97840D01*
X145847Y-97777D01*
X145024Y-97777D01*
X144932Y-97815D01*
X144862Y-97886D01*
X144824Y-97977D01*
X144824Y-98077D01*
X144824Y-98309D01*
X144886Y-98371D01*
X145910Y-98371D01*
X145910Y-98471D01*
X144886Y-98471D01*
X144824Y-98534D01*
X144824Y-98765D01*
X144824Y-98865D01*
X144862Y-98957D01*
X144932Y-99027D01*
X144953Y-99035D01*
X144953Y-99729D01*
X141791Y-99729D01*
X141910Y-99610D01*
X141910Y-99610D01*
X141944Y-99559D01*
X141944Y-99559D01*
X141946Y-99549D01*
X141956Y-99500D01*
X141956Y-99500D01*
X141956Y-97364D01*
X142014Y-97306D01*
X152550Y-97306D01*
X152550Y-97306D01*
X152609Y-97294D01*
X152660Y-97260D01*
X155164Y-94756D01*
X155685Y-94756D01*
X155685Y-95017D01*
X155703Y-95062D01*
X155737Y-95096D01*
X155782Y-95114D01*
X155830Y-95114D01*
X156617Y-95114D01*
X156662Y-95096D01*
X156696Y-95062D01*
X156714Y-95017D01*
X156714Y-94969D01*
X156714Y-94756D01*
X157685Y-94756D01*
X157685Y-95017D01*
X157703Y-95062D01*
X157737Y-95096D01*
X157782Y-95114D01*
X157830Y-95114D01*
X158617Y-95114D01*
X158662Y-95096D01*
X158696Y-95062D01*
X158714Y-95017D01*
X158714Y-94969D01*
X158714Y-94182D01*
X158696Y-94137D01*
X158662Y-94103D01*
X158617Y-94085D01*
X158569Y-94085D01*
X157782Y-94085D01*
X157737Y-94103D01*
X157703Y-94137D01*
X157685Y-94182D01*
X157685Y-94230D01*
X157685Y-94443D01*
X156714Y-94443D01*
X156714Y-94182D01*
X156696Y-94137D01*
X156662Y-94103D01*
X156617Y-94085D01*
X156569Y-94085D01*
X155782Y-94085D01*
X155737Y-94103D01*
X155703Y-94137D01*
X155685Y-94182D01*
X155685Y-94230D01*
X155685Y-94443D01*
X155100Y-94443D01*
X155050Y-94453D01*
X155040Y-94455D01*
X154989Y-94489D01*
X153014Y-96464D01*
X153014Y-95246D01*
X153010Y-95187D01*
X153010Y-95187D01*
X152977Y-95068D01*
X152951Y-95016D01*
X152951Y-95016D01*
X152876Y-94918D01*
X152831Y-94880D01*
X152831Y-94880D01*
X152724Y-94819D01*
X152668Y-94800D01*
X152668Y-94800D01*
X152546Y-94785D01*
X152487Y-94789D01*
X152487Y-94789D01*
X152368Y-94822D01*
X152316Y-94848D01*
X152316Y-94848D01*
X152218Y-94923D01*
X152180Y-94968D01*
X152180Y-94968D01*
X152119Y-95075D01*
X152100Y-95131D01*
X152100Y-95131D01*
X152085Y-95253D01*
X152089Y-95312D01*
X152122Y-95431D01*
X152148Y-95483D01*
X152148Y-95483D01*
X152223Y-95581D01*
X152268Y-95619D01*
X152268Y-95619D01*
X152375Y-95680D01*
X152431Y-95699D01*
X152431Y-95699D01*
X152553Y-95714D01*
X152612Y-95710D01*
X152612Y-95710D01*
X152731Y-95677D01*
X152783Y-95651D01*
X152783Y-95651D01*
X152881Y-95576D01*
X152919Y-95531D01*
X152919Y-95531D01*
X152980Y-95424D01*
X152999Y-95368D01*
X152999Y-95368D01*
X153014Y-95246D01*
X153014Y-96464D01*
X152485Y-96993D01*
X149963Y-96993D01*
X149967Y-96991D01*
X150037Y-96921D01*
X150076Y-96829D01*
X150076Y-96730D01*
X150076Y-95057D01*
X150076Y-94958D01*
X150037Y-94866D01*
X149967Y-94796D01*
X149875Y-94758D01*
X149544Y-94758D01*
X149482Y-94820D01*
X149482Y-95844D01*
X150013Y-95844D01*
X150076Y-95781D01*
X150076Y-95057D01*
X150076Y-96730D01*
X150076Y-96006D01*
X150013Y-95944D01*
X149482Y-95944D01*
X149482Y-95951D01*
X149382Y-95951D01*
X149382Y-95944D01*
X149374Y-95944D01*
X149374Y-95844D01*
X149382Y-95844D01*
X149382Y-94820D01*
X149319Y-94758D01*
X148989Y-94758D01*
X148897Y-94796D01*
X148826Y-94866D01*
X148818Y-94887D01*
X148069Y-94887D01*
X148025Y-94905D01*
X147991Y-94939D01*
X147973Y-94984D01*
X147972Y-95032D01*
X147972Y-96605D01*
X147785Y-96793D01*
X145814Y-96793D01*
X145814Y-95246D01*
X145810Y-95187D01*
X145810Y-95187D01*
X145777Y-95068D01*
X145751Y-95016D01*
X145751Y-95016D01*
X145676Y-94918D01*
X145631Y-94880D01*
X145631Y-94880D01*
X145524Y-94819D01*
X145468Y-94800D01*
X145468Y-94800D01*
X145346Y-94785D01*
X145287Y-94789D01*
X145287Y-94789D01*
X145168Y-94822D01*
X145116Y-94848D01*
X145116Y-94848D01*
X145018Y-94923D01*
X144980Y-94968D01*
X144980Y-94968D01*
X144919Y-95075D01*
X144900Y-95131D01*
X144900Y-95131D01*
X144885Y-95253D01*
X144889Y-95312D01*
X144922Y-95431D01*
X144948Y-95483D01*
X144948Y-95483D01*
X145023Y-95581D01*
X145068Y-95619D01*
X145068Y-95619D01*
X145175Y-95680D01*
X145231Y-95699D01*
X145231Y-95699D01*
X145353Y-95714D01*
X145412Y-95710D01*
X145412Y-95710D01*
X145531Y-95677D01*
X145583Y-95651D01*
X145583Y-95651D01*
X145681Y-95576D01*
X145719Y-95531D01*
X145719Y-95531D01*
X145780Y-95424D01*
X145799Y-95368D01*
X145799Y-95368D01*
X145814Y-95246D01*
X145814Y-96793D01*
X144043Y-96793D01*
X144043Y-94944D01*
X144043Y-94255D01*
X144043Y-94156D01*
X144005Y-94064D01*
X143935Y-93994D01*
X143843Y-93956D01*
X143512Y-93956D01*
X143450Y-94018D01*
X143450Y-94550D01*
X143981Y-94550D01*
X144043Y-94487D01*
X144043Y-94255D01*
X144043Y-94944D01*
X144043Y-94712D01*
X143981Y-94650D01*
X143450Y-94650D01*
X143450Y-95181D01*
X143512Y-95243D01*
X143843Y-95243D01*
X143935Y-95205D01*
X144005Y-95135D01*
X144043Y-95043D01*
X144043Y-94944D01*
X144043Y-96793D01*
X141850Y-96793D01*
X141790Y-96805D01*
X141773Y-96816D01*
X141739Y-96839D01*
X141556Y-97022D01*
X141556Y-96314D01*
X141817Y-96314D01*
X141862Y-96296D01*
X141896Y-96262D01*
X141914Y-96217D01*
X141914Y-96169D01*
X141914Y-95956D01*
X142885Y-95956D01*
X142885Y-96217D01*
X142903Y-96262D01*
X142937Y-96296D01*
X142982Y-96314D01*
X143030Y-96314D01*
X143817Y-96314D01*
X143862Y-96296D01*
X143896Y-96262D01*
X143914Y-96217D01*
X143914Y-96169D01*
X143914Y-95382D01*
X143896Y-95337D01*
X143862Y-95303D01*
X143817Y-95285D01*
X143769Y-95285D01*
X143350Y-95285D01*
X143350Y-95181D01*
X143350Y-94650D01*
X143350Y-94550D01*
X143350Y-94018D01*
X143287Y-93956D01*
X142956Y-93956D01*
X142864Y-93994D01*
X142794Y-94064D01*
X142756Y-94156D01*
X142756Y-94255D01*
X142756Y-94487D01*
X142818Y-94550D01*
X143350Y-94550D01*
X143350Y-94650D01*
X142818Y-94650D01*
X142756Y-94712D01*
X142756Y-94944D01*
X142756Y-95043D01*
X142794Y-95135D01*
X142864Y-95205D01*
X142956Y-95243D01*
X143287Y-95243D01*
X143350Y-95181D01*
X143350Y-95285D01*
X142982Y-95285D01*
X142937Y-95303D01*
X142903Y-95337D01*
X142885Y-95382D01*
X142885Y-95430D01*
X142885Y-95643D01*
X142043Y-95643D01*
X142043Y-94944D01*
X142043Y-94255D01*
X142043Y-94156D01*
X142005Y-94064D01*
X141935Y-93994D01*
X141843Y-93956D01*
X141512Y-93956D01*
X141450Y-94018D01*
X141450Y-94550D01*
X141981Y-94550D01*
X142043Y-94487D01*
X142043Y-94255D01*
X142043Y-94944D01*
X142043Y-94712D01*
X141981Y-94650D01*
X141450Y-94650D01*
X141450Y-95181D01*
X141512Y-95243D01*
X141843Y-95243D01*
X141935Y-95205D01*
X142005Y-95135D01*
X142043Y-95043D01*
X142043Y-94944D01*
X142043Y-95643D01*
X141914Y-95643D01*
X141914Y-95382D01*
X141896Y-95337D01*
X141862Y-95303D01*
X141817Y-95285D01*
X141769Y-95285D01*
X141350Y-95285D01*
X141350Y-95181D01*
X141350Y-94650D01*
X141350Y-94550D01*
X141350Y-94018D01*
X141287Y-93956D01*
X140956Y-93956D01*
X140864Y-93994D01*
X140794Y-94064D01*
X140756Y-94156D01*
X140756Y-94255D01*
X140756Y-94487D01*
X140818Y-94550D01*
X141350Y-94550D01*
X141350Y-94650D01*
X140818Y-94650D01*
X140756Y-94712D01*
X140756Y-94944D01*
X140756Y-95043D01*
X140794Y-95135D01*
X140864Y-95205D01*
X140956Y-95243D01*
X141287Y-95243D01*
X141350Y-95181D01*
X141350Y-95285D01*
X140982Y-95285D01*
X140937Y-95303D01*
X140903Y-95337D01*
X140885Y-95382D01*
X140885Y-95430D01*
X140885Y-96217D01*
X140903Y-96262D01*
X140937Y-96296D01*
X140982Y-96314D01*
X141030Y-96314D01*
X141243Y-96314D01*
X141243Y-98535D01*
X141239Y-98539D01*
X141239Y-98539D01*
X141085Y-98693D01*
X140443Y-98693D01*
X140443Y-94944D01*
X140443Y-94255D01*
X140443Y-94156D01*
X140405Y-94064D01*
X140335Y-93994D01*
X140243Y-93956D01*
X139912Y-93956D01*
X139850Y-94018D01*
X139850Y-94550D01*
X140381Y-94550D01*
X140443Y-94487D01*
X140443Y-94255D01*
X140443Y-94944D01*
X140443Y-94712D01*
X140381Y-94650D01*
X139850Y-94650D01*
X139850Y-95181D01*
X139912Y-95243D01*
X140243Y-95243D01*
X140335Y-95205D01*
X140405Y-95135D01*
X140443Y-95043D01*
X140443Y-94944D01*
X140443Y-98693D01*
X140314Y-98693D01*
X140314Y-96169D01*
X140314Y-95382D01*
X140296Y-95337D01*
X140262Y-95303D01*
X140217Y-95285D01*
X140169Y-95285D01*
X139750Y-95285D01*
X139750Y-95181D01*
X139750Y-94650D01*
X139750Y-94550D01*
X139750Y-94018D01*
X139687Y-93956D01*
X139356Y-93956D01*
X139264Y-93994D01*
X139194Y-94064D01*
X139156Y-94156D01*
X139156Y-94255D01*
X139156Y-94487D01*
X139218Y-94550D01*
X139750Y-94550D01*
X139750Y-94650D01*
X139218Y-94650D01*
X139156Y-94712D01*
X139156Y-94944D01*
X139156Y-95043D01*
X139194Y-95135D01*
X139264Y-95205D01*
X139356Y-95243D01*
X139687Y-95243D01*
X139750Y-95181D01*
X139750Y-95285D01*
X139382Y-95285D01*
X139337Y-95303D01*
X139303Y-95337D01*
X139285Y-95382D01*
X139285Y-95430D01*
X139285Y-95643D01*
X138443Y-95643D01*
X138443Y-94944D01*
X138443Y-94255D01*
X138443Y-94156D01*
X138405Y-94064D01*
X138335Y-93994D01*
X138243Y-93956D01*
X137912Y-93956D01*
X137850Y-94018D01*
X137850Y-94550D01*
X138381Y-94550D01*
X138443Y-94487D01*
X138443Y-94255D01*
X138443Y-94944D01*
X138443Y-94712D01*
X138381Y-94650D01*
X137850Y-94650D01*
X137850Y-95181D01*
X137912Y-95243D01*
X138243Y-95243D01*
X138335Y-95205D01*
X138405Y-95135D01*
X138443Y-95043D01*
X138443Y-94944D01*
X138443Y-95643D01*
X138314Y-95643D01*
X138314Y-95382D01*
X138296Y-95337D01*
X138262Y-95303D01*
X138217Y-95285D01*
X138169Y-95285D01*
X137750Y-95285D01*
X137750Y-95181D01*
X137750Y-94650D01*
X137750Y-94550D01*
X137750Y-94018D01*
X137687Y-93956D01*
X137356Y-93956D01*
X137264Y-93994D01*
X137194Y-94064D01*
X137156Y-94156D01*
X137156Y-94255D01*
X137156Y-94487D01*
X137218Y-94550D01*
X137750Y-94550D01*
X137750Y-94650D01*
X137218Y-94650D01*
X137156Y-94712D01*
X137156Y-94944D01*
X137156Y-95043D01*
X137194Y-95135D01*
X137264Y-95205D01*
X137356Y-95243D01*
X137687Y-95243D01*
X137750Y-95181D01*
X137750Y-95285D01*
X137382Y-95285D01*
X137337Y-95303D01*
X137303Y-95337D01*
X137285Y-95382D01*
X137285Y-95430D01*
X137285Y-96217D01*
X137303Y-96262D01*
X137337Y-96296D01*
X137382Y-96314D01*
X137430Y-96314D01*
X137643Y-96314D01*
X137643Y-96535D01*
X137635Y-96543D01*
X136250Y-96543D01*
X136190Y-96555D01*
X136173Y-96566D01*
X136139Y-96589D01*
X136035Y-96693D01*
X136001Y-96744D01*
X135989Y-96804D01*
X135989Y-97235D01*
X135980Y-97235D01*
X135869Y-97235D01*
X135850Y-97243D01*
X135831Y-97235D01*
X135783Y-97235D01*
X135711Y-97235D01*
X135711Y-96387D01*
X135747Y-96387D01*
X136534Y-96387D01*
X136579Y-96368D01*
X136613Y-96334D01*
X136631Y-96290D01*
X136631Y-96242D01*
X136631Y-95297D01*
X136613Y-95253D01*
X136590Y-95230D01*
X136590Y-94862D01*
X136694Y-94862D01*
X136738Y-94844D01*
X136772Y-94810D01*
X136791Y-94765D01*
X136791Y-94717D01*
X136791Y-94422D01*
X136772Y-94377D01*
X136738Y-94343D01*
X136694Y-94325D01*
X136646Y-94325D01*
X136173Y-94325D01*
X136147Y-94336D01*
X136134Y-94304D01*
X136063Y-94234D01*
X135971Y-94196D01*
X135798Y-94196D01*
X135735Y-94258D01*
X135735Y-94544D01*
X135743Y-94544D01*
X135743Y-94644D01*
X135735Y-94644D01*
X135735Y-94929D01*
X135798Y-94991D01*
X135971Y-94991D01*
X136063Y-94953D01*
X136134Y-94883D01*
X136147Y-94851D01*
X136173Y-94862D01*
X136221Y-94862D01*
X136277Y-94862D01*
X136277Y-95200D01*
X135699Y-95200D01*
X135655Y-95219D01*
X135635Y-95238D01*
X135635Y-94929D01*
X135635Y-94644D01*
X135635Y-94544D01*
X135635Y-94258D01*
X135573Y-94196D01*
X135400Y-94196D01*
X135310Y-94233D01*
X135219Y-94196D01*
X135046Y-94196D01*
X134984Y-94258D01*
X134984Y-94544D01*
X135262Y-94544D01*
X135357Y-94544D01*
X135635Y-94544D01*
X135635Y-94644D01*
X135357Y-94644D01*
X135262Y-94644D01*
X134984Y-94644D01*
X134984Y-94929D01*
X135046Y-94991D01*
X135219Y-94991D01*
X135310Y-94954D01*
X135400Y-94991D01*
X135573Y-94991D01*
X135635Y-94929D01*
X135635Y-95238D01*
X135620Y-95253D01*
X135602Y-95297D01*
X135602Y-95345D01*
X135602Y-95680D01*
X135589Y-95689D01*
X135449Y-95828D01*
X135304Y-95683D01*
X135253Y-95649D01*
X135194Y-95637D01*
X135017Y-95637D01*
X135017Y-95297D01*
X134999Y-95253D01*
X134965Y-95219D01*
X134920Y-95200D01*
X134872Y-95200D01*
X134342Y-95200D01*
X134342Y-94862D01*
X134446Y-94862D01*
X134472Y-94851D01*
X134485Y-94883D01*
X134556Y-94953D01*
X134648Y-94991D01*
X134821Y-94991D01*
X134884Y-94929D01*
X134884Y-94644D01*
X134876Y-94644D01*
X134876Y-94544D01*
X134884Y-94544D01*
X134884Y-94258D01*
X134821Y-94196D01*
X134648Y-94196D01*
X134556Y-94234D01*
X134485Y-94304D01*
X134472Y-94336D01*
X134446Y-94325D01*
X134398Y-94325D01*
X133925Y-94325D01*
X133881Y-94343D01*
X133847Y-94377D01*
X133828Y-94422D01*
X133828Y-94470D01*
X133828Y-94765D01*
X133847Y-94810D01*
X133881Y-94844D01*
X133925Y-94862D01*
X133973Y-94862D01*
X134029Y-94862D01*
X134029Y-95230D01*
X134006Y-95253D01*
X133988Y-95297D01*
X133988Y-95345D01*
X133988Y-96290D01*
X134006Y-96334D01*
X134040Y-96368D01*
X134085Y-96387D01*
X134133Y-96387D01*
X134920Y-96387D01*
X134964Y-96368D01*
X134999Y-96334D01*
X135017Y-96290D01*
X135017Y-96242D01*
X135017Y-95950D01*
X135129Y-95950D01*
X135202Y-96023D01*
X135202Y-96588D01*
X135048Y-96588D01*
X134986Y-96650D01*
X134986Y-96936D01*
X134993Y-96936D01*
X134993Y-97036D01*
X134986Y-97036D01*
X134986Y-97043D01*
X134886Y-97043D01*
X134886Y-97036D01*
X134878Y-97036D01*
X134878Y-96936D01*
X134886Y-96936D01*
X134886Y-96650D01*
X134823Y-96588D01*
X134650Y-96588D01*
X134558Y-96626D01*
X134487Y-96696D01*
X134474Y-96728D01*
X134448Y-96717D01*
X134400Y-96717D01*
X133927Y-96717D01*
X133883Y-96735D01*
X133849Y-96769D01*
X133830Y-96814D01*
X133830Y-96862D01*
X133830Y-97157D01*
X133849Y-97202D01*
X133883Y-97236D01*
X133927Y-97254D01*
X133970Y-97254D01*
X133937Y-97288D01*
X133918Y-97332D01*
X133918Y-97380D01*
X133918Y-97495D01*
X133443Y-97495D01*
X133443Y-94944D01*
X133443Y-94255D01*
X133443Y-94156D01*
X133405Y-94064D01*
X133335Y-93994D01*
X133243Y-93956D01*
X132912Y-93956D01*
X132850Y-94018D01*
X132850Y-94550D01*
X133381Y-94550D01*
X133443Y-94487D01*
X133443Y-94255D01*
X133443Y-94944D01*
X133443Y-94712D01*
X133381Y-94650D01*
X132850Y-94650D01*
X132850Y-95181D01*
X132912Y-95243D01*
X133243Y-95243D01*
X133335Y-95205D01*
X133405Y-95135D01*
X133443Y-95043D01*
X133443Y-94944D01*
X133443Y-97495D01*
X132966Y-97495D01*
X132956Y-97485D01*
X132956Y-96314D01*
X133217Y-96314D01*
X133262Y-96296D01*
X133296Y-96262D01*
X133314Y-96217D01*
X133314Y-96169D01*
X133314Y-95382D01*
X133296Y-95337D01*
X133262Y-95303D01*
X133217Y-95285D01*
X133169Y-95285D01*
X132750Y-95285D01*
X132750Y-95181D01*
X132750Y-94650D01*
X132750Y-94550D01*
X132750Y-94018D01*
X132687Y-93956D01*
X132356Y-93956D01*
X132264Y-93994D01*
X132194Y-94064D01*
X132156Y-94156D01*
X132156Y-94255D01*
X132156Y-94487D01*
X132218Y-94550D01*
X132750Y-94550D01*
X132750Y-94650D01*
X132218Y-94650D01*
X132156Y-94712D01*
X132156Y-94944D01*
X132156Y-95043D01*
X132194Y-95135D01*
X132264Y-95205D01*
X132356Y-95243D01*
X132687Y-95243D01*
X132750Y-95181D01*
X132750Y-95285D01*
X132382Y-95285D01*
X132337Y-95303D01*
X132303Y-95337D01*
X132285Y-95382D01*
X132285Y-95430D01*
X132285Y-95643D01*
X131443Y-95643D01*
X131443Y-94944D01*
X131443Y-94255D01*
X131443Y-94156D01*
X131405Y-94064D01*
X131335Y-93994D01*
X131243Y-93956D01*
X130912Y-93956D01*
X130850Y-94018D01*
X130850Y-94550D01*
X131381Y-94550D01*
X131443Y-94487D01*
X131443Y-94255D01*
X131443Y-94944D01*
X131443Y-94712D01*
X131381Y-94650D01*
X130850Y-94650D01*
X130850Y-95181D01*
X130912Y-95243D01*
X131243Y-95243D01*
X131335Y-95205D01*
X131405Y-95135D01*
X131443Y-95043D01*
X131443Y-94944D01*
X131443Y-95643D01*
X131314Y-95643D01*
X131314Y-95382D01*
X131296Y-95337D01*
X131262Y-95303D01*
X131217Y-95285D01*
X131169Y-95285D01*
X130750Y-95285D01*
X130750Y-95181D01*
X130750Y-94650D01*
X130750Y-94550D01*
X130750Y-94018D01*
X130687Y-93956D01*
X130356Y-93956D01*
X130264Y-93994D01*
X130194Y-94064D01*
X130156Y-94156D01*
X130156Y-94255D01*
X130156Y-94487D01*
X130218Y-94550D01*
X130750Y-94550D01*
X130750Y-94650D01*
X130218Y-94650D01*
X130156Y-94712D01*
X130156Y-94944D01*
X130156Y-95043D01*
X130194Y-95135D01*
X130264Y-95205D01*
X130356Y-95243D01*
X130687Y-95243D01*
X130750Y-95181D01*
X130750Y-95285D01*
X130382Y-95285D01*
X130337Y-95303D01*
X130303Y-95337D01*
X130285Y-95382D01*
X130285Y-95430D01*
X130285Y-96217D01*
X130303Y-96262D01*
X130337Y-96296D01*
X130382Y-96314D01*
X130430Y-96314D01*
X131217Y-96314D01*
X131262Y-96296D01*
X131296Y-96262D01*
X131314Y-96217D01*
X131314Y-96169D01*
X131314Y-95956D01*
X132285Y-95956D01*
X132285Y-96217D01*
X132303Y-96262D01*
X132337Y-96296D01*
X132382Y-96314D01*
X132430Y-96314D01*
X132643Y-96314D01*
X132643Y-97550D01*
X132655Y-97609D01*
X132689Y-97660D01*
X132791Y-97762D01*
X132791Y-97762D01*
X132825Y-97785D01*
X132842Y-97796D01*
X132842Y-97796D01*
X132901Y-97808D01*
X132901Y-97808D01*
X133918Y-97808D01*
X133918Y-97971D01*
X133937Y-98015D01*
X133970Y-98049D01*
X134015Y-98067D01*
X134063Y-98068D01*
X134260Y-98068D01*
X134277Y-98060D01*
X134294Y-98067D01*
X134342Y-98068D01*
X134453Y-98068D01*
X134472Y-98060D01*
X134491Y-98067D01*
X134539Y-98068D01*
X134611Y-98068D01*
X134611Y-100317D01*
X134569Y-100359D01*
X134053Y-100359D01*
X134000Y-100307D01*
X133862Y-100307D01*
X133837Y-100296D01*
X133789Y-100296D01*
X133460Y-100296D01*
X133460Y-100258D01*
X133837Y-100258D01*
X133853Y-100252D01*
X134000Y-100252D01*
X134063Y-100189D01*
X134063Y-100175D01*
X134025Y-100083D01*
X133954Y-100012D01*
X133934Y-100004D01*
X133934Y-100003D01*
X133926Y-99984D01*
X133933Y-99965D01*
X133934Y-99917D01*
X133934Y-99807D01*
X133926Y-99787D01*
X133933Y-99768D01*
X133934Y-99720D01*
X133934Y-99610D01*
X133926Y-99590D01*
X133933Y-99571D01*
X133934Y-99523D01*
X133934Y-99413D01*
X133926Y-99394D01*
X133933Y-99374D01*
X133934Y-99326D01*
X133934Y-99216D01*
X133926Y-99197D01*
X133933Y-99177D01*
X133934Y-99129D01*
X133934Y-99019D01*
X133926Y-99000D01*
X133933Y-98981D01*
X133934Y-98933D01*
X133934Y-98822D01*
X133926Y-98803D01*
X133933Y-98784D01*
X133934Y-98736D01*
X133934Y-98625D01*
X133926Y-98606D01*
X133933Y-98587D01*
X133934Y-98539D01*
X133934Y-98429D01*
X133926Y-98411D01*
X133933Y-98394D01*
X133934Y-98346D01*
X133934Y-98149D01*
X133915Y-98105D01*
X133881Y-98071D01*
X133837Y-98052D01*
X133789Y-98052D01*
X133198Y-98052D01*
X133154Y-98071D01*
X133120Y-98104D01*
X133115Y-98115D01*
X130006Y-98115D01*
X130006Y-94700D01*
X129996Y-94650D01*
X129994Y-94640D01*
X129994Y-94640D01*
X129960Y-94589D01*
X129960Y-94589D01*
X129860Y-94489D01*
X129809Y-94455D01*
X129750Y-94443D01*
X114914Y-94443D01*
X114914Y-94182D01*
X114896Y-94137D01*
X114862Y-94103D01*
X114817Y-94085D01*
X114769Y-94085D01*
X113982Y-94085D01*
X113937Y-94103D01*
X113903Y-94137D01*
X113885Y-94182D01*
X113885Y-94230D01*
X113885Y-94443D01*
X112914Y-94443D01*
X112914Y-94182D01*
X112896Y-94137D01*
X112862Y-94103D01*
X112817Y-94085D01*
X112769Y-94085D01*
X111982Y-94085D01*
X111937Y-94103D01*
X111903Y-94137D01*
X111885Y-94182D01*
X111885Y-94230D01*
X111885Y-95017D01*
X111903Y-95062D01*
X111937Y-95096D01*
X111982Y-95114D01*
X112030Y-95114D01*
X112817Y-95114D01*
X112862Y-95096D01*
X112896Y-95062D01*
X112914Y-95017D01*
X112914Y-94969D01*
X112914Y-94756D01*
X113885Y-94756D01*
X113885Y-95017D01*
X113903Y-95062D01*
X113937Y-95096D01*
X113982Y-95114D01*
X114030Y-95114D01*
X114817Y-95114D01*
X114862Y-95096D01*
X114896Y-95062D01*
X114914Y-95017D01*
X114914Y-94969D01*
X114914Y-94756D01*
X129685Y-94756D01*
X129693Y-94764D01*
X129693Y-95972D01*
X129504Y-95783D01*
X129453Y-95749D01*
X129394Y-95737D01*
X125614Y-95737D01*
X125614Y-95246D01*
X125610Y-95187D01*
X125610Y-95187D01*
X125577Y-95068D01*
X125551Y-95016D01*
X125551Y-95016D01*
X125476Y-94918D01*
X125431Y-94880D01*
X125431Y-94880D01*
X125324Y-94819D01*
X125268Y-94800D01*
X125268Y-94800D01*
X125146Y-94785D01*
X125087Y-94789D01*
X125087Y-94789D01*
X124968Y-94822D01*
X124916Y-94848D01*
X124916Y-94848D01*
X124818Y-94923D01*
X124780Y-94968D01*
X124780Y-94968D01*
X124719Y-95075D01*
X124700Y-95131D01*
X124700Y-95131D01*
X124685Y-95253D01*
X124689Y-95312D01*
X124722Y-95431D01*
X124748Y-95483D01*
X124748Y-95483D01*
X124823Y-95581D01*
X124868Y-95619D01*
X124868Y-95619D01*
X124975Y-95680D01*
X125031Y-95699D01*
X125031Y-95699D01*
X125153Y-95714D01*
X125212Y-95710D01*
X125212Y-95710D01*
X125331Y-95677D01*
X125383Y-95651D01*
X125383Y-95651D01*
X125481Y-95576D01*
X125519Y-95531D01*
X125519Y-95531D01*
X125580Y-95424D01*
X125599Y-95368D01*
X125599Y-95368D01*
X125614Y-95246D01*
X125614Y-95737D01*
X122547Y-95737D01*
X122547Y-94984D01*
X122528Y-94939D01*
X122494Y-94905D01*
X122450Y-94887D01*
X122402Y-94887D01*
X121701Y-94887D01*
X121693Y-94866D01*
X121622Y-94796D01*
X121530Y-94758D01*
X121200Y-94758D01*
X121137Y-94820D01*
X121137Y-95844D01*
X121145Y-95844D01*
X121145Y-95944D01*
X121137Y-95944D01*
X121137Y-96967D01*
X121200Y-97029D01*
X121530Y-97029D01*
X121622Y-96991D01*
X121693Y-96921D01*
X121701Y-96900D01*
X122450Y-96900D01*
X122494Y-96882D01*
X122528Y-96848D01*
X122546Y-96803D01*
X122547Y-96755D01*
X122547Y-96050D01*
X129329Y-96050D01*
X129443Y-96164D01*
X129443Y-97422D01*
X129260Y-97239D01*
X129209Y-97205D01*
X129150Y-97193D01*
X121037Y-97193D01*
X121037Y-96967D01*
X121037Y-95944D01*
X121037Y-95844D01*
X121037Y-94820D01*
X120975Y-94758D01*
X120644Y-94758D01*
X120552Y-94796D01*
X120482Y-94866D01*
X120443Y-94958D01*
X120443Y-95057D01*
X120443Y-95781D01*
X120506Y-95844D01*
X121037Y-95844D01*
X121037Y-95944D01*
X120506Y-95944D01*
X120443Y-96006D01*
X120443Y-96730D01*
X120443Y-96829D01*
X120482Y-96921D01*
X120552Y-96991D01*
X120644Y-97029D01*
X120975Y-97029D01*
X121037Y-96967D01*
X121037Y-97193D01*
X118750Y-97193D01*
X118690Y-97205D01*
X118673Y-97216D01*
X118639Y-97239D01*
X118439Y-97439D01*
X118414Y-97476D01*
X118414Y-95246D01*
X118410Y-95187D01*
X118410Y-95187D01*
X118377Y-95068D01*
X118351Y-95016D01*
X118351Y-95016D01*
X118276Y-94918D01*
X118231Y-94880D01*
X118231Y-94880D01*
X118124Y-94819D01*
X118068Y-94800D01*
X118068Y-94800D01*
X117946Y-94785D01*
X117887Y-94789D01*
X117887Y-94789D01*
X117768Y-94822D01*
X117716Y-94848D01*
X117716Y-94848D01*
X117618Y-94923D01*
X117580Y-94968D01*
X117580Y-94968D01*
X117519Y-95075D01*
X117500Y-95131D01*
X117500Y-95131D01*
X117485Y-95253D01*
X117489Y-95312D01*
X117522Y-95431D01*
X117548Y-95483D01*
X117548Y-95483D01*
X117623Y-95581D01*
X117668Y-95619D01*
X117668Y-95619D01*
X117775Y-95680D01*
X117831Y-95699D01*
X117831Y-95699D01*
X117953Y-95714D01*
X118012Y-95710D01*
X118012Y-95710D01*
X118131Y-95677D01*
X118183Y-95651D01*
X118183Y-95651D01*
X118281Y-95576D01*
X118319Y-95531D01*
X118319Y-95531D01*
X118380Y-95424D01*
X118399Y-95368D01*
X118399Y-95368D01*
X118414Y-95246D01*
X118414Y-97476D01*
X118405Y-97490D01*
X118393Y-97550D01*
X118393Y-97912D01*
X117640Y-97912D01*
X117595Y-97931D01*
X117561Y-97965D01*
X117543Y-98009D01*
X117543Y-98057D01*
X117543Y-98758D01*
X117522Y-98766D01*
X117452Y-98836D01*
X117414Y-98928D01*
X117414Y-99028D01*
X117414Y-99259D01*
X117476Y-99322D01*
X118500Y-99322D01*
X118500Y-99314D01*
X118600Y-99314D01*
X118600Y-99322D01*
X119623Y-99322D01*
X119685Y-99259D01*
X119685Y-99028D01*
X119685Y-98928D01*
X119647Y-98836D01*
X119577Y-98766D01*
X119556Y-98758D01*
X119556Y-98009D01*
X119538Y-97965D01*
X119504Y-97931D01*
X119459Y-97913D01*
X119411Y-97912D01*
X118706Y-97912D01*
X118706Y-97614D01*
X118814Y-97506D01*
X129085Y-97506D01*
X129193Y-97614D01*
X129193Y-98400D01*
X129205Y-98459D01*
X129239Y-98510D01*
X129474Y-98745D01*
X126248Y-98745D01*
X126188Y-98757D01*
X126137Y-98791D01*
X125718Y-99210D01*
X125566Y-99210D01*
X125566Y-99035D01*
X125587Y-99027D01*
X125657Y-98957D01*
X125695Y-98865D01*
X125695Y-98765D01*
X125695Y-98077D01*
X125695Y-97977D01*
X125657Y-97886D01*
X125587Y-97815D01*
X125495Y-97777D01*
X124672Y-97777D01*
X124610Y-97840D01*
X124610Y-98371D01*
X125633Y-98371D01*
X125695Y-98309D01*
X125695Y-98077D01*
X125695Y-98765D01*
X125695Y-98534D01*
X125633Y-98471D01*
X124610Y-98471D01*
X124610Y-98479D01*
X124510Y-98479D01*
X124510Y-98471D01*
X124510Y-98371D01*
X124510Y-97840D01*
X124447Y-97777D01*
X123624Y-97777D01*
X123532Y-97815D01*
X123462Y-97886D01*
X123424Y-97977D01*
X123424Y-98077D01*
X123424Y-98309D01*
X123486Y-98371D01*
X124510Y-98371D01*
X124510Y-98471D01*
X123486Y-98471D01*
X123424Y-98534D01*
X123424Y-98765D01*
X123424Y-98865D01*
X123462Y-98957D01*
X123532Y-99027D01*
X123553Y-99035D01*
X123553Y-99784D01*
X123571Y-99828D01*
X123605Y-99862D01*
X123650Y-99880D01*
X123698Y-99881D01*
X125469Y-99881D01*
X125514Y-99862D01*
X125548Y-99828D01*
X125566Y-99784D01*
X125566Y-99736D01*
X125566Y-99522D01*
X125783Y-99522D01*
X125783Y-99522D01*
X125843Y-99510D01*
X125894Y-99476D01*
X126312Y-99058D01*
X126620Y-99058D01*
X125385Y-100293D01*
X122300Y-100293D01*
X122240Y-100305D01*
X122223Y-100316D01*
X122189Y-100339D01*
X121921Y-100607D01*
X121888Y-100657D01*
X121876Y-100717D01*
X121876Y-100887D01*
X121701Y-100887D01*
X121693Y-100866D01*
X121622Y-100796D01*
X121530Y-100758D01*
X121200Y-100758D01*
X121137Y-100820D01*
X121137Y-101844D01*
X121145Y-101844D01*
X121145Y-101944D01*
X121137Y-101944D01*
X121137Y-102967D01*
X121200Y-103029D01*
X121530Y-103029D01*
X121622Y-102991D01*
X121693Y-102921D01*
X121701Y-102900D01*
X122450Y-102900D01*
X122494Y-102882D01*
X122528Y-102848D01*
X122546Y-102803D01*
X122547Y-102755D01*
X122547Y-100984D01*
X122528Y-100939D01*
X122494Y-100905D01*
X122450Y-100887D01*
X122402Y-100887D01*
X122188Y-100887D01*
X122188Y-100782D01*
X122364Y-100606D01*
X125450Y-100606D01*
X125450Y-100606D01*
X125509Y-100594D01*
X125560Y-100560D01*
X126866Y-99255D01*
X130123Y-99255D01*
X129539Y-99839D01*
X129505Y-99890D01*
X129493Y-99950D01*
X129493Y-101185D01*
X129232Y-101185D01*
X129187Y-101203D01*
X129153Y-101237D01*
X129135Y-101282D01*
X129135Y-101330D01*
X129135Y-101543D01*
X128164Y-101543D01*
X128164Y-101282D01*
X128146Y-101237D01*
X128112Y-101203D01*
X128067Y-101185D01*
X128019Y-101185D01*
X127232Y-101185D01*
X127187Y-101203D01*
X127153Y-101237D01*
X127135Y-101282D01*
X127135Y-101330D01*
X127135Y-102117D01*
X127153Y-102162D01*
X127187Y-102196D01*
X127232Y-102214D01*
X127280Y-102214D01*
X128067Y-102214D01*
X128112Y-102196D01*
X128146Y-102162D01*
X128164Y-102117D01*
X128164Y-102069D01*
X128164Y-101856D01*
X129135Y-101856D01*
X129135Y-102117D01*
X129153Y-102162D01*
X129187Y-102196D01*
X129232Y-102214D01*
X129280Y-102214D01*
X130067Y-102214D01*
X130112Y-102196D01*
X130146Y-102162D01*
X130164Y-102117D01*
X130164Y-102069D01*
X130164Y-101282D01*
X130146Y-101237D01*
X130112Y-101203D01*
X130067Y-101185D01*
X130019Y-101185D01*
X129806Y-101185D01*
X129806Y-100014D01*
X130369Y-99451D01*
X133101Y-99451D01*
X133101Y-99461D01*
X133101Y-99552D01*
X133057Y-99533D01*
X132958Y-99533D01*
X132972Y-99533D01*
X132910Y-99596D01*
X132910Y-99969D01*
X132917Y-99969D01*
X132917Y-100069D01*
X132910Y-100069D01*
X132910Y-100077D01*
X132810Y-100077D01*
X132810Y-100069D01*
X132810Y-99969D01*
X132810Y-99596D01*
X132747Y-99533D01*
X132761Y-99533D01*
X132662Y-99533D01*
X132570Y-99571D01*
X132500Y-99642D01*
X132462Y-99734D01*
X132462Y-99907D01*
X132524Y-99969D01*
X132810Y-99969D01*
X132810Y-100069D01*
X132524Y-100069D01*
X132462Y-100132D01*
X132462Y-100305D01*
X132500Y-100397D01*
X132570Y-100468D01*
X132602Y-100481D01*
X132591Y-100507D01*
X132591Y-100555D01*
X132591Y-101028D01*
X132609Y-101072D01*
X132643Y-101106D01*
X132688Y-101125D01*
X132736Y-101125D01*
X133031Y-101125D01*
X133076Y-101106D01*
X133110Y-101072D01*
X133128Y-101028D01*
X133128Y-100980D01*
X133128Y-100720D01*
X133143Y-100705D01*
X133154Y-100716D01*
X133198Y-100735D01*
X133246Y-100735D01*
X133318Y-100735D01*
X133311Y-100752D01*
X133310Y-100847D01*
X133347Y-100935D01*
X133414Y-101002D01*
X133502Y-101038D01*
X133597Y-101039D01*
X133685Y-101002D01*
X133752Y-100935D01*
X133788Y-100847D01*
X133789Y-100752D01*
X133781Y-100735D01*
X133837Y-100735D01*
X133881Y-100716D01*
X133915Y-100683D01*
X133919Y-100672D01*
X134633Y-100672D01*
X134633Y-100672D01*
X134693Y-100660D01*
X134744Y-100626D01*
X134878Y-100492D01*
X134878Y-100492D01*
X134901Y-100458D01*
X134912Y-100441D01*
X134912Y-100441D01*
X134924Y-100382D01*
X134924Y-100382D01*
X134924Y-98147D01*
X134937Y-98134D01*
X134937Y-97987D01*
X134943Y-97971D01*
X134943Y-97923D01*
X134943Y-97383D01*
X134985Y-97383D01*
X134985Y-97971D01*
X134992Y-97987D01*
X134992Y-98134D01*
X135005Y-98147D01*
X135005Y-98161D01*
X135012Y-98198D01*
X135011Y-98202D01*
X135010Y-98297D01*
X135047Y-98385D01*
X135114Y-98452D01*
X135202Y-98488D01*
X135297Y-98489D01*
X135385Y-98452D01*
X135452Y-98385D01*
X135488Y-98297D01*
X135489Y-98202D01*
X135452Y-98114D01*
X135406Y-98068D01*
X135437Y-98068D01*
X135456Y-98060D01*
X135476Y-98067D01*
X135524Y-98068D01*
X135634Y-98068D01*
X135653Y-98060D01*
X135672Y-98067D01*
X135720Y-98068D01*
X135831Y-98068D01*
X135850Y-98060D01*
X135869Y-98067D01*
X135917Y-98068D01*
X136028Y-98068D01*
X136047Y-98060D01*
X136066Y-98067D01*
X136114Y-98068D01*
X136224Y-98068D01*
X136242Y-98060D01*
X136259Y-98067D01*
X136307Y-98068D01*
X136504Y-98068D01*
X136548Y-98049D01*
X136582Y-98015D01*
X136601Y-97971D01*
X136601Y-97923D01*
X136601Y-97332D01*
X136582Y-97288D01*
X136549Y-97254D01*
X136504Y-97235D01*
X136456Y-97235D01*
X136302Y-97235D01*
X136302Y-96868D01*
X136314Y-96856D01*
X137700Y-96856D01*
X137700Y-96856D01*
X137759Y-96844D01*
X137810Y-96810D01*
X137910Y-96710D01*
X137910Y-96710D01*
X137944Y-96659D01*
X137944Y-96659D01*
X137946Y-96649D01*
X137956Y-96600D01*
X137956Y-96600D01*
X137956Y-96314D01*
X138217Y-96314D01*
X138262Y-96296D01*
X138296Y-96262D01*
X138314Y-96217D01*
X138314Y-96169D01*
X138314Y-95956D01*
X139285Y-95956D01*
X139285Y-96217D01*
X139303Y-96262D01*
X139337Y-96296D01*
X139382Y-96314D01*
X139430Y-96314D01*
X140217Y-96314D01*
X140262Y-96296D01*
X140296Y-96262D01*
X140314Y-96217D01*
X140314Y-96169D01*
X140314Y-98693D01*
X138194Y-98693D01*
X138252Y-98635D01*
X138288Y-98547D01*
X138289Y-98452D01*
X138252Y-98364D01*
X138185Y-98297D01*
X138097Y-98261D01*
X138032Y-98261D01*
X137982Y-98211D01*
X137931Y-98177D01*
X137878Y-98166D01*
X137878Y-98061D01*
X137860Y-98017D01*
X137826Y-97983D01*
X137781Y-97964D01*
X137733Y-97964D01*
X137438Y-97964D01*
X137393Y-97983D01*
X137359Y-98017D01*
X137341Y-98061D01*
X137321Y-98052D01*
X137273Y-98052D01*
X136682Y-98052D01*
X136638Y-98071D01*
X136604Y-98104D01*
X136586Y-98149D01*
X136585Y-98197D01*
X136585Y-98232D01*
X136565Y-98241D01*
X136494Y-98311D01*
X136456Y-98403D01*
X136456Y-98418D01*
X136519Y-98480D01*
X136657Y-98480D01*
X136682Y-98491D01*
X136730Y-98491D01*
X137060Y-98491D01*
X137060Y-98529D01*
X136682Y-98529D01*
X136666Y-98535D01*
X136519Y-98535D01*
X136456Y-98598D01*
X136456Y-98612D01*
X136494Y-98704D01*
X136565Y-98775D01*
X136585Y-98783D01*
X136585Y-98784D01*
X136593Y-98803D01*
X136586Y-98822D01*
X136586Y-98823D01*
X136565Y-98831D01*
X136494Y-98902D01*
X136456Y-98994D01*
X136456Y-99008D01*
X136519Y-99071D01*
X136666Y-99071D01*
X136682Y-99077D01*
X136730Y-99077D01*
X137212Y-99077D01*
X137212Y-99119D01*
X136682Y-99119D01*
X136666Y-99126D01*
X136519Y-99126D01*
X136456Y-99188D01*
X136456Y-99203D01*
X136494Y-99295D01*
X136565Y-99365D01*
X136585Y-99374D01*
X136585Y-99374D01*
X136593Y-99393D01*
X136586Y-99413D01*
X136585Y-99461D01*
X136585Y-99571D01*
X136593Y-99590D01*
X136586Y-99610D01*
X136585Y-99658D01*
X136585Y-99768D01*
X136593Y-99787D01*
X136586Y-99806D01*
X136585Y-99854D01*
X136585Y-99965D01*
X136593Y-99984D01*
X136586Y-100003D01*
X136585Y-100051D01*
X136585Y-100162D01*
X136593Y-100181D01*
X136586Y-100200D01*
X136585Y-100248D01*
X136585Y-100358D01*
X136593Y-100376D01*
X136586Y-100393D01*
X136585Y-100441D01*
X136585Y-100638D01*
X136604Y-100682D01*
X136638Y-100716D01*
X136682Y-100735D01*
X136730Y-100735D01*
X137321Y-100735D01*
X137365Y-100716D01*
X137399Y-100683D01*
X137404Y-100672D01*
X141844Y-100672D01*
X141811Y-100752D01*
X141810Y-100847D01*
X141847Y-100935D01*
X141914Y-101002D01*
X142002Y-101038D01*
X142097Y-101039D01*
X142185Y-101002D01*
X142231Y-100956D01*
X144500Y-100956D01*
X144600Y-100956D01*
X144935Y-100956D01*
X147589Y-103610D01*
X147589Y-103610D01*
X147623Y-103633D01*
X147640Y-103644D01*
X147640Y-103644D01*
X147666Y-103649D01*
X145814Y-103649D01*
X145814Y-102546D01*
X145810Y-102487D01*
X145810Y-102487D01*
X145777Y-102368D01*
X145751Y-102316D01*
X145751Y-102316D01*
X145676Y-102218D01*
X145631Y-102180D01*
X145631Y-102180D01*
X145524Y-102119D01*
X145468Y-102100D01*
X145468Y-102100D01*
X145346Y-102085D01*
X145287Y-102089D01*
X145287Y-102089D01*
X145168Y-102122D01*
X145116Y-102148D01*
X145116Y-102148D01*
X145018Y-102223D01*
X144980Y-102268D01*
X144980Y-102268D01*
X144919Y-102375D01*
X144900Y-102431D01*
X144900Y-102431D01*
X144885Y-102553D01*
X144889Y-102612D01*
X144922Y-102731D01*
X144948Y-102783D01*
X144948Y-102783D01*
X145023Y-102881D01*
X145068Y-102919D01*
X145068Y-102919D01*
X145175Y-102980D01*
X145231Y-102999D01*
X145231Y-102999D01*
X145353Y-103014D01*
X145412Y-103010D01*
X145412Y-103010D01*
X145531Y-102977D01*
X145583Y-102951D01*
X145583Y-102951D01*
X145681Y-102876D01*
X145719Y-102831D01*
X145719Y-102831D01*
X145780Y-102724D01*
X145799Y-102668D01*
X145799Y-102668D01*
X145814Y-102546D01*
X145814Y-103649D01*
X144747Y-103649D01*
X144747Y-103259D01*
X144747Y-103086D01*
X144685Y-103024D01*
X144400Y-103024D01*
X144400Y-103397D01*
X144462Y-103460D01*
X144448Y-103460D01*
X144547Y-103460D01*
X144639Y-103422D01*
X144709Y-103351D01*
X144747Y-103259D01*
X144747Y-103649D01*
X144041Y-103649D01*
X144043Y-103643D01*
X144043Y-103544D01*
X144043Y-103405D01*
X144060Y-103422D01*
X144152Y-103460D01*
X144251Y-103460D01*
X144237Y-103460D01*
X144300Y-103397D01*
X144300Y-103024D01*
X144292Y-103024D01*
X144292Y-102924D01*
X144300Y-102924D01*
X144300Y-102916D01*
X144400Y-102916D01*
X144400Y-102924D01*
X144685Y-102924D01*
X144747Y-102861D01*
X144747Y-102688D01*
X144709Y-102596D01*
X144639Y-102525D01*
X144607Y-102512D01*
X144618Y-102486D01*
X144618Y-102438D01*
X144618Y-101965D01*
X144600Y-101921D01*
X144566Y-101887D01*
X144521Y-101868D01*
X144473Y-101868D01*
X144203Y-101868D01*
X144183Y-101855D01*
X144124Y-101843D01*
X143914Y-101843D01*
X143914Y-101582D01*
X143896Y-101537D01*
X143862Y-101503D01*
X143817Y-101485D01*
X143769Y-101485D01*
X142982Y-101485D01*
X142937Y-101503D01*
X142903Y-101537D01*
X142885Y-101582D01*
X142885Y-101630D01*
X142885Y-101843D01*
X142581Y-101843D01*
X142535Y-101797D01*
X142447Y-101761D01*
X142352Y-101760D01*
X142264Y-101797D01*
X142218Y-101843D01*
X141914Y-101843D01*
X141914Y-101582D01*
X141896Y-101537D01*
X141862Y-101503D01*
X141817Y-101485D01*
X141769Y-101485D01*
X141580Y-101485D01*
X141580Y-101318D01*
X141684Y-101318D01*
X141728Y-101300D01*
X141762Y-101266D01*
X141781Y-101221D01*
X141781Y-101173D01*
X141781Y-100878D01*
X141762Y-100833D01*
X141728Y-100799D01*
X141684Y-100781D01*
X141636Y-100781D01*
X141163Y-100781D01*
X141119Y-100799D01*
X141085Y-100833D01*
X141066Y-100878D01*
X141066Y-100926D01*
X141066Y-101221D01*
X141085Y-101266D01*
X141119Y-101300D01*
X141163Y-101318D01*
X141211Y-101318D01*
X141267Y-101318D01*
X141267Y-101485D01*
X141033Y-101485D01*
X140982Y-101485D01*
X140937Y-101503D01*
X140903Y-101537D01*
X140885Y-101582D01*
X140885Y-101630D01*
X140885Y-102417D01*
X140903Y-102462D01*
X140937Y-102496D01*
X140982Y-102514D01*
X141030Y-102514D01*
X141817Y-102514D01*
X141862Y-102496D01*
X141896Y-102462D01*
X141914Y-102417D01*
X141914Y-102369D01*
X141914Y-102156D01*
X142218Y-102156D01*
X142264Y-102202D01*
X142352Y-102238D01*
X142447Y-102239D01*
X142535Y-102202D01*
X142581Y-102156D01*
X142885Y-102156D01*
X142885Y-102417D01*
X142903Y-102462D01*
X142937Y-102496D01*
X142982Y-102514D01*
X143030Y-102514D01*
X143817Y-102514D01*
X143862Y-102496D01*
X143896Y-102462D01*
X143914Y-102417D01*
X143914Y-102369D01*
X143914Y-102156D01*
X144059Y-102156D01*
X144081Y-102178D01*
X144081Y-102486D01*
X144092Y-102512D01*
X144060Y-102525D01*
X143990Y-102596D01*
X143974Y-102633D01*
X143935Y-102594D01*
X143843Y-102556D01*
X143512Y-102556D01*
X143450Y-102618D01*
X143450Y-103150D01*
X143457Y-103150D01*
X143457Y-103250D01*
X143450Y-103250D01*
X143450Y-103257D01*
X143350Y-103257D01*
X143350Y-103250D01*
X143350Y-103150D01*
X143350Y-102618D01*
X143287Y-102556D01*
X142956Y-102556D01*
X142864Y-102594D01*
X142794Y-102664D01*
X142756Y-102756D01*
X142756Y-102855D01*
X142756Y-103087D01*
X142818Y-103150D01*
X143350Y-103150D01*
X143350Y-103250D01*
X142818Y-103250D01*
X142756Y-103312D01*
X142756Y-103544D01*
X142756Y-103643D01*
X142758Y-103649D01*
X142041Y-103649D01*
X142043Y-103643D01*
X142043Y-103544D01*
X142043Y-102855D01*
X142043Y-102756D01*
X142005Y-102664D01*
X141935Y-102594D01*
X141843Y-102556D01*
X141512Y-102556D01*
X141450Y-102618D01*
X141450Y-103150D01*
X141981Y-103150D01*
X142043Y-103087D01*
X142043Y-102855D01*
X142043Y-103544D01*
X142043Y-103312D01*
X141981Y-103250D01*
X141450Y-103250D01*
X141450Y-103257D01*
X141350Y-103257D01*
X141350Y-103250D01*
X141350Y-103150D01*
X141350Y-102618D01*
X141287Y-102556D01*
X140956Y-102556D01*
X140864Y-102594D01*
X140794Y-102664D01*
X140756Y-102756D01*
X140756Y-102855D01*
X140756Y-103087D01*
X140818Y-103150D01*
X141350Y-103150D01*
X141350Y-103250D01*
X140818Y-103250D01*
X140756Y-103312D01*
X140756Y-103544D01*
X140756Y-103643D01*
X140758Y-103649D01*
X140641Y-103649D01*
X140643Y-103643D01*
X140643Y-103544D01*
X140643Y-102855D01*
X140643Y-102756D01*
X140605Y-102664D01*
X140535Y-102594D01*
X140443Y-102556D01*
X140112Y-102556D01*
X140050Y-102618D01*
X140050Y-103150D01*
X140581Y-103150D01*
X140643Y-103087D01*
X140643Y-102855D01*
X140643Y-103544D01*
X140643Y-103312D01*
X140581Y-103250D01*
X140050Y-103250D01*
X140050Y-103257D01*
X139950Y-103257D01*
X139950Y-103250D01*
X139950Y-103150D01*
X139950Y-102618D01*
X139887Y-102556D01*
X139556Y-102556D01*
X139464Y-102594D01*
X139394Y-102664D01*
X139356Y-102756D01*
X139356Y-102855D01*
X139356Y-103087D01*
X139418Y-103150D01*
X139950Y-103150D01*
X139950Y-103250D01*
X139418Y-103250D01*
X139356Y-103312D01*
X139356Y-103544D01*
X139356Y-103643D01*
X139358Y-103649D01*
X138641Y-103649D01*
X138643Y-103643D01*
X138643Y-103544D01*
X138643Y-102855D01*
X138643Y-102756D01*
X138605Y-102664D01*
X138535Y-102594D01*
X138443Y-102556D01*
X138112Y-102556D01*
X138050Y-102618D01*
X138050Y-103150D01*
X138581Y-103150D01*
X138643Y-103087D01*
X138643Y-102855D01*
X138643Y-103544D01*
X138643Y-103312D01*
X138581Y-103250D01*
X138050Y-103250D01*
X138050Y-103257D01*
X137950Y-103257D01*
X137950Y-103250D01*
X137950Y-103150D01*
X137950Y-102618D01*
X137887Y-102556D01*
X137556Y-102556D01*
X137464Y-102594D01*
X137394Y-102664D01*
X137356Y-102756D01*
X137356Y-102855D01*
X137356Y-103087D01*
X137418Y-103150D01*
X137950Y-103150D01*
X137950Y-103250D01*
X137418Y-103250D01*
X137356Y-103312D01*
X137356Y-103544D01*
X137356Y-103643D01*
X137358Y-103649D01*
X134721Y-103649D01*
X135643Y-102727D01*
X135672Y-102831D01*
X135698Y-102883D01*
X135698Y-102883D01*
X135773Y-102981D01*
X135818Y-103019D01*
X135818Y-103019D01*
X135925Y-103080D01*
X135981Y-103099D01*
X135981Y-103099D01*
X136103Y-103114D01*
X136162Y-103110D01*
X136162Y-103110D01*
X136281Y-103077D01*
X136333Y-103051D01*
X136333Y-103051D01*
X136431Y-102976D01*
X136469Y-102931D01*
X136469Y-102931D01*
X136530Y-102824D01*
X136549Y-102768D01*
X136549Y-102768D01*
X136564Y-102646D01*
X136560Y-102587D01*
X136560Y-102587D01*
X136527Y-102468D01*
X136501Y-102416D01*
X136501Y-102416D01*
X136426Y-102318D01*
X136381Y-102280D01*
X136381Y-102280D01*
X136274Y-102219D01*
X136218Y-102200D01*
X136218Y-102200D01*
X136175Y-102195D01*
X136175Y-102135D01*
X136238Y-102197D01*
X136411Y-102197D01*
X136503Y-102159D01*
X136574Y-102089D01*
X136587Y-102057D01*
X136613Y-102068D01*
X136661Y-102068D01*
X137134Y-102068D01*
X137178Y-102050D01*
X137195Y-102033D01*
X137214Y-102052D01*
X137302Y-102088D01*
X137397Y-102089D01*
X137485Y-102052D01*
X137485Y-102052D01*
X137485Y-102417D01*
X137503Y-102462D01*
X137537Y-102496D01*
X137582Y-102514D01*
X137630Y-102514D01*
X138417Y-102514D01*
X138462Y-102496D01*
X138496Y-102462D01*
X138514Y-102417D01*
X138514Y-102369D01*
X138514Y-102156D01*
X138768Y-102156D01*
X138814Y-102202D01*
X138902Y-102238D01*
X138997Y-102239D01*
X139085Y-102202D01*
X139131Y-102156D01*
X139485Y-102156D01*
X139485Y-102417D01*
X139503Y-102462D01*
X139537Y-102496D01*
X139582Y-102514D01*
X139630Y-102514D01*
X140417Y-102514D01*
X140462Y-102496D01*
X140496Y-102462D01*
X140514Y-102417D01*
X140514Y-102369D01*
X140514Y-101582D01*
X140496Y-101537D01*
X140462Y-101503D01*
X140417Y-101485D01*
X140369Y-101485D01*
X139582Y-101485D01*
X139537Y-101503D01*
X139503Y-101537D01*
X139485Y-101582D01*
X139485Y-101630D01*
X139485Y-101843D01*
X139131Y-101843D01*
X139085Y-101797D01*
X138997Y-101761D01*
X138902Y-101760D01*
X138814Y-101797D01*
X138768Y-101843D01*
X138514Y-101843D01*
X138514Y-101582D01*
X138496Y-101537D01*
X138462Y-101503D01*
X138417Y-101485D01*
X138369Y-101485D01*
X137582Y-101485D01*
X137537Y-101503D01*
X137503Y-101537D01*
X137485Y-101582D01*
X137485Y-101630D01*
X137485Y-101647D01*
X137397Y-101611D01*
X137302Y-101610D01*
X137231Y-101640D01*
X137231Y-101628D01*
X137212Y-101583D01*
X137178Y-101549D01*
X137134Y-101531D01*
X137086Y-101531D01*
X136904Y-101531D01*
X136665Y-101292D01*
X140363Y-101292D01*
X140371Y-101300D01*
X140415Y-101318D01*
X140463Y-101318D01*
X140936Y-101318D01*
X140980Y-101300D01*
X141014Y-101266D01*
X141033Y-101221D01*
X141033Y-101173D01*
X141033Y-100878D01*
X141014Y-100833D01*
X140980Y-100799D01*
X140936Y-100781D01*
X140888Y-100781D01*
X140415Y-100781D01*
X140371Y-100799D01*
X140337Y-100833D01*
X140318Y-100878D01*
X140318Y-100926D01*
X140318Y-100979D01*
X136601Y-100979D01*
X136601Y-100816D01*
X136582Y-100772D01*
X136549Y-100738D01*
X136504Y-100720D01*
X136456Y-100719D01*
X136421Y-100719D01*
X136412Y-100699D01*
X136342Y-100628D01*
X136250Y-100590D01*
X136235Y-100590D01*
X136173Y-100653D01*
X136173Y-100791D01*
X136162Y-100816D01*
X136162Y-100864D01*
X136162Y-101455D01*
X136173Y-101481D01*
X136173Y-101618D01*
X136175Y-101621D01*
X136175Y-101750D01*
X136183Y-101750D01*
X136183Y-101850D01*
X136175Y-101850D01*
X136175Y-101857D01*
X136075Y-101857D01*
X136075Y-101850D01*
X136068Y-101850D01*
X136068Y-101750D01*
X136075Y-101750D01*
X136075Y-101661D01*
X136118Y-101618D01*
X136118Y-101471D01*
X136124Y-101455D01*
X136124Y-101407D01*
X136124Y-100816D01*
X136118Y-100800D01*
X136118Y-100653D01*
X136116Y-100651D01*
X136138Y-100597D01*
X136139Y-100502D01*
X136102Y-100414D01*
X136035Y-100347D01*
X135947Y-100311D01*
X135852Y-100310D01*
X135764Y-100347D01*
X135697Y-100414D01*
X135661Y-100502D01*
X135660Y-100597D01*
X135697Y-100685D01*
X135731Y-100719D01*
X135673Y-100719D01*
X135653Y-100727D01*
X135634Y-100720D01*
X135586Y-100719D01*
X135476Y-100719D01*
X135456Y-100727D01*
X135437Y-100720D01*
X135389Y-100719D01*
X135279Y-100719D01*
X135260Y-100727D01*
X135240Y-100720D01*
X135192Y-100719D01*
X135082Y-100719D01*
X135063Y-100727D01*
X135043Y-100720D01*
X134995Y-100719D01*
X134943Y-100719D01*
X134885Y-100719D01*
X134866Y-100727D01*
X134847Y-100720D01*
X134799Y-100719D01*
X134688Y-100719D01*
X134669Y-100727D01*
X134650Y-100720D01*
X134602Y-100719D01*
X134491Y-100719D01*
X134472Y-100727D01*
X134453Y-100720D01*
X134405Y-100719D01*
X134295Y-100719D01*
X134277Y-100727D01*
X134260Y-100720D01*
X134212Y-100719D01*
X134015Y-100719D01*
X133971Y-100738D01*
X133937Y-100772D01*
X133918Y-100816D01*
X133918Y-100864D01*
X133918Y-101455D01*
X133937Y-101499D01*
X133970Y-101533D01*
X133994Y-101543D01*
X133514Y-101543D01*
X133514Y-101282D01*
X133496Y-101237D01*
X133462Y-101203D01*
X133417Y-101185D01*
X133369Y-101185D01*
X132582Y-101185D01*
X132537Y-101203D01*
X132503Y-101237D01*
X132485Y-101282D01*
X132485Y-101330D01*
X132485Y-101543D01*
X131514Y-101543D01*
X131514Y-101282D01*
X131496Y-101237D01*
X131462Y-101203D01*
X131417Y-101185D01*
X131369Y-101185D01*
X130582Y-101185D01*
X130537Y-101203D01*
X130503Y-101237D01*
X130485Y-101282D01*
X130485Y-101330D01*
X130485Y-102117D01*
X130503Y-102162D01*
X130537Y-102196D01*
X130582Y-102214D01*
X130630Y-102214D01*
X131417Y-102214D01*
X131462Y-102196D01*
X131496Y-102162D01*
X131514Y-102117D01*
X131514Y-102069D01*
X131514Y-101856D01*
X132485Y-101856D01*
X132485Y-102117D01*
X132503Y-102162D01*
X132537Y-102196D01*
X132582Y-102214D01*
X132630Y-102214D01*
X133417Y-102214D01*
X133462Y-102196D01*
X133496Y-102162D01*
X133514Y-102117D01*
X133514Y-102069D01*
X133514Y-101856D01*
X134900Y-101856D01*
X134900Y-101856D01*
X134959Y-101844D01*
X135010Y-101810D01*
X135075Y-101745D01*
X135075Y-101745D01*
X135097Y-101711D01*
X135109Y-101695D01*
X135109Y-101695D01*
X135121Y-101635D01*
X135121Y-101635D01*
X135121Y-101552D01*
X135130Y-101552D01*
X135202Y-101552D01*
X135202Y-101981D01*
X135164Y-101997D01*
X135097Y-102064D01*
X135061Y-102152D01*
X135060Y-102247D01*
X135097Y-102335D01*
X135164Y-102402D01*
X135252Y-102438D01*
X135289Y-102438D01*
X134385Y-103343D01*
X133643Y-103343D01*
X133643Y-103343D01*
X133643Y-103244D01*
X133643Y-102555D01*
X133643Y-102456D01*
X133605Y-102364D01*
X133535Y-102294D01*
X133443Y-102256D01*
X133112Y-102256D01*
X133050Y-102318D01*
X133050Y-102850D01*
X133581Y-102850D01*
X133643Y-102787D01*
X133643Y-102555D01*
X133643Y-103244D01*
X133643Y-103012D01*
X133581Y-102950D01*
X133050Y-102950D01*
X133050Y-102957D01*
X132950Y-102957D01*
X132950Y-102950D01*
X132950Y-102850D01*
X132950Y-102318D01*
X132887Y-102256D01*
X132556Y-102256D01*
X132464Y-102294D01*
X132394Y-102364D01*
X132356Y-102456D01*
X132356Y-102555D01*
X132356Y-102787D01*
X132418Y-102850D01*
X132950Y-102850D01*
X132950Y-102950D01*
X132418Y-102950D01*
X132356Y-103012D01*
X132356Y-103244D01*
X132356Y-103343D01*
X132356Y-103343D01*
X131643Y-103343D01*
X131643Y-103343D01*
X131643Y-103244D01*
X131643Y-102555D01*
X131643Y-102456D01*
X131605Y-102364D01*
X131535Y-102294D01*
X131443Y-102256D01*
X131112Y-102256D01*
X131050Y-102318D01*
X131050Y-102850D01*
X131581Y-102850D01*
X131643Y-102787D01*
X131643Y-102555D01*
X131643Y-103244D01*
X131643Y-103012D01*
X131581Y-102950D01*
X131050Y-102950D01*
X131050Y-102957D01*
X130950Y-102957D01*
X130950Y-102950D01*
X130950Y-102850D01*
X130950Y-102318D01*
X130887Y-102256D01*
X130556Y-102256D01*
X130464Y-102294D01*
X130394Y-102364D01*
X130356Y-102456D01*
X130356Y-102555D01*
X130356Y-102787D01*
X130418Y-102850D01*
X130950Y-102850D01*
X130950Y-102950D01*
X130418Y-102950D01*
X130356Y-103012D01*
X130356Y-103244D01*
X130356Y-103343D01*
X130356Y-103343D01*
X130293Y-103343D01*
X130293Y-103343D01*
X130293Y-103244D01*
X130293Y-102555D01*
X130293Y-102456D01*
X130255Y-102364D01*
X130185Y-102294D01*
X130093Y-102256D01*
X129762Y-102256D01*
X129700Y-102318D01*
X129700Y-102850D01*
X130231Y-102850D01*
X130293Y-102787D01*
X130293Y-102555D01*
X130293Y-103244D01*
X130293Y-103012D01*
X130231Y-102950D01*
X129700Y-102950D01*
X129700Y-102957D01*
X129600Y-102957D01*
X129600Y-102950D01*
X129600Y-102850D01*
X129600Y-102318D01*
X129537Y-102256D01*
X129206Y-102256D01*
X129114Y-102294D01*
X129044Y-102364D01*
X129006Y-102456D01*
X129006Y-102555D01*
X129006Y-102787D01*
X129068Y-102850D01*
X129600Y-102850D01*
X129600Y-102950D01*
X129068Y-102950D01*
X129006Y-103012D01*
X129006Y-103244D01*
X129006Y-103343D01*
X129006Y-103343D01*
X128293Y-103343D01*
X128293Y-103343D01*
X128293Y-103244D01*
X128293Y-102555D01*
X128293Y-102456D01*
X128255Y-102364D01*
X128185Y-102294D01*
X128093Y-102256D01*
X127762Y-102256D01*
X127700Y-102318D01*
X127700Y-102850D01*
X128231Y-102850D01*
X128293Y-102787D01*
X128293Y-102555D01*
X128293Y-103244D01*
X128293Y-103012D01*
X128231Y-102950D01*
X127700Y-102950D01*
X127700Y-102957D01*
X127600Y-102957D01*
X127600Y-102950D01*
X127600Y-102850D01*
X127600Y-102318D01*
X127537Y-102256D01*
X127206Y-102256D01*
X127114Y-102294D01*
X127044Y-102364D01*
X127006Y-102456D01*
X127006Y-102555D01*
X127006Y-102787D01*
X127068Y-102850D01*
X127600Y-102850D01*
X127600Y-102950D01*
X127068Y-102950D01*
X127006Y-103012D01*
X127006Y-103244D01*
X127006Y-103343D01*
X127006Y-103343D01*
X125664Y-103343D01*
X125664Y-102496D01*
X125660Y-102437D01*
X125660Y-102437D01*
X125627Y-102318D01*
X125601Y-102266D01*
X125601Y-102266D01*
X125526Y-102168D01*
X125481Y-102130D01*
X125481Y-102130D01*
X125374Y-102069D01*
X125318Y-102050D01*
X125318Y-102050D01*
X125196Y-102035D01*
X125137Y-102039D01*
X125137Y-102039D01*
X125018Y-102072D01*
X124966Y-102098D01*
X124966Y-102098D01*
X124868Y-102173D01*
X124830Y-102218D01*
X124830Y-102218D01*
X124769Y-102325D01*
X124750Y-102381D01*
X124750Y-102381D01*
X124735Y-102503D01*
X124739Y-102562D01*
X124772Y-102681D01*
X124798Y-102733D01*
X124798Y-102733D01*
X124873Y-102831D01*
X124918Y-102869D01*
X124918Y-102869D01*
X125025Y-102930D01*
X125081Y-102949D01*
X125081Y-102949D01*
X125203Y-102964D01*
X125262Y-102960D01*
X125262Y-102960D01*
X125381Y-102927D01*
X125433Y-102901D01*
X125433Y-102901D01*
X125531Y-102826D01*
X125569Y-102781D01*
X125569Y-102781D01*
X125630Y-102674D01*
X125649Y-102618D01*
X125649Y-102618D01*
X125664Y-102496D01*
X125664Y-103343D01*
X121037Y-103343D01*
X121037Y-102967D01*
X121037Y-101944D01*
X121037Y-101844D01*
X121037Y-100820D01*
X120975Y-100758D01*
X120644Y-100758D01*
X120552Y-100796D01*
X120482Y-100866D01*
X120443Y-100958D01*
X120443Y-101057D01*
X120443Y-101781D01*
X120506Y-101844D01*
X121037Y-101844D01*
X121037Y-101944D01*
X120506Y-101944D01*
X120443Y-102006D01*
X120443Y-102730D01*
X120443Y-102829D01*
X120482Y-102921D01*
X120552Y-102991D01*
X120644Y-103029D01*
X120975Y-103029D01*
X121037Y-102967D01*
X121037Y-103343D01*
X120014Y-103343D01*
X119685Y-103014D01*
X119685Y-99716D01*
X119685Y-99484D01*
X119623Y-99422D01*
X118600Y-99422D01*
X118600Y-99953D01*
X118662Y-100016D01*
X119485Y-100016D01*
X119577Y-99978D01*
X119647Y-99907D01*
X119685Y-99816D01*
X119685Y-99716D01*
X119685Y-103014D01*
X118500Y-101828D01*
X118500Y-99953D01*
X118500Y-99422D01*
X117476Y-99422D01*
X117414Y-99484D01*
X117414Y-99716D01*
X117414Y-99816D01*
X117452Y-99907D01*
X117522Y-99978D01*
X117614Y-100016D01*
X118437Y-100016D01*
X118500Y-99953D01*
X118500Y-101828D01*
X115718Y-99047D01*
X115738Y-98997D01*
X115739Y-98902D01*
X115702Y-98814D01*
X115635Y-98747D01*
X115547Y-98711D01*
X115452Y-98710D01*
X115364Y-98747D01*
X115297Y-98814D01*
X115264Y-98893D01*
X115043Y-98672D01*
X115043Y-96144D01*
X115043Y-95455D01*
X115043Y-95356D01*
X115005Y-95264D01*
X114935Y-95194D01*
X114843Y-95156D01*
X114512Y-95156D01*
X114450Y-95218D01*
X114450Y-95750D01*
X114981Y-95750D01*
X115043Y-95687D01*
X115043Y-95455D01*
X115043Y-96144D01*
X115043Y-95912D01*
X114981Y-95850D01*
X114450Y-95850D01*
X114450Y-96381D01*
X114512Y-96443D01*
X114843Y-96443D01*
X114935Y-96405D01*
X115005Y-96335D01*
X115043Y-96243D01*
X115043Y-96144D01*
X115043Y-98672D01*
X114560Y-98189D01*
X114509Y-98155D01*
X114450Y-98143D01*
X114350Y-98143D01*
X114350Y-96381D01*
X114350Y-95850D01*
X114350Y-95750D01*
X114350Y-95218D01*
X114287Y-95156D01*
X113956Y-95156D01*
X113864Y-95194D01*
X113794Y-95264D01*
X113756Y-95356D01*
X113756Y-95455D01*
X113756Y-95687D01*
X113818Y-95750D01*
X114350Y-95750D01*
X114350Y-95850D01*
X113818Y-95850D01*
X113756Y-95912D01*
X113756Y-96144D01*
X113756Y-96243D01*
X113794Y-96335D01*
X113864Y-96405D01*
X113956Y-96443D01*
X114287Y-96443D01*
X114350Y-96381D01*
X114350Y-98143D01*
X114114Y-98143D01*
X114114Y-96846D01*
X114110Y-96787D01*
X114110Y-96787D01*
X114077Y-96668D01*
X114051Y-96616D01*
X114051Y-96616D01*
X113976Y-96518D01*
X113931Y-96480D01*
X113931Y-96480D01*
X113824Y-96419D01*
X113768Y-96400D01*
X113768Y-96400D01*
X113646Y-96385D01*
X113587Y-96389D01*
X113587Y-96389D01*
X113468Y-96422D01*
X113416Y-96448D01*
X113416Y-96448D01*
X113318Y-96523D01*
X113280Y-96568D01*
X113280Y-96568D01*
X113219Y-96675D01*
X113200Y-96731D01*
X113200Y-96731D01*
X113185Y-96853D01*
X113189Y-96912D01*
X113222Y-97031D01*
X113248Y-97083D01*
X113248Y-97083D01*
X113323Y-97181D01*
X113368Y-97219D01*
X113368Y-97219D01*
X113475Y-97280D01*
X113531Y-97299D01*
X113531Y-97299D01*
X113653Y-97314D01*
X113712Y-97310D01*
X113712Y-97310D01*
X113831Y-97277D01*
X113883Y-97251D01*
X113883Y-97251D01*
X113981Y-97176D01*
X114019Y-97131D01*
X114019Y-97131D01*
X114080Y-97024D01*
X114099Y-96968D01*
X114099Y-96968D01*
X114114Y-96846D01*
X114114Y-98143D01*
X113014Y-98143D01*
X113014Y-98079D01*
X113010Y-98069D01*
X113035Y-98058D01*
X113105Y-97988D01*
X113143Y-97896D01*
X113143Y-97797D01*
X113143Y-97502D01*
X113143Y-97403D01*
X113111Y-97325D01*
X113143Y-97246D01*
X113143Y-97147D01*
X113143Y-96852D01*
X113143Y-96753D01*
X113105Y-96661D01*
X113043Y-96599D01*
X113043Y-96144D01*
X113043Y-95455D01*
X113043Y-95356D01*
X113005Y-95264D01*
X112935Y-95194D01*
X112843Y-95156D01*
X112512Y-95156D01*
X112450Y-95218D01*
X112450Y-95750D01*
X112981Y-95750D01*
X113043Y-95687D01*
X113043Y-95455D01*
X113043Y-96144D01*
X113043Y-95912D01*
X112981Y-95850D01*
X112450Y-95850D01*
X112450Y-96381D01*
X112512Y-96443D01*
X112843Y-96443D01*
X112935Y-96405D01*
X113005Y-96335D01*
X113043Y-96243D01*
X113043Y-96144D01*
X113043Y-96599D01*
X113035Y-96591D01*
X112943Y-96553D01*
X112612Y-96553D01*
X112550Y-96615D01*
X112550Y-96950D01*
X113081Y-96950D01*
X113143Y-96887D01*
X113143Y-96852D01*
X113143Y-97147D01*
X113143Y-97112D01*
X113081Y-97050D01*
X112550Y-97050D01*
X112550Y-97265D01*
X112550Y-97384D01*
X112550Y-97600D01*
X113081Y-97600D01*
X113143Y-97537D01*
X113143Y-97502D01*
X113143Y-97797D01*
X113143Y-97762D01*
X113081Y-97700D01*
X112550Y-97700D01*
X112550Y-97707D01*
X112450Y-97707D01*
X112450Y-97700D01*
X112450Y-97600D01*
X112450Y-97384D01*
X112450Y-97265D01*
X112450Y-97050D01*
X112450Y-96950D01*
X112450Y-96615D01*
X112387Y-96553D01*
X112350Y-96553D01*
X112350Y-96381D01*
X112350Y-95850D01*
X112350Y-95750D01*
X112350Y-95218D01*
X112287Y-95156D01*
X111956Y-95156D01*
X111864Y-95194D01*
X111794Y-95264D01*
X111756Y-95356D01*
X111756Y-95455D01*
X111756Y-95687D01*
X111818Y-95750D01*
X112350Y-95750D01*
X112350Y-95850D01*
X111818Y-95850D01*
X111756Y-95912D01*
X111756Y-96144D01*
X111756Y-96243D01*
X111794Y-96335D01*
X111864Y-96405D01*
X111956Y-96443D01*
X112287Y-96443D01*
X112350Y-96381D01*
X112350Y-96553D01*
X112056Y-96553D01*
X111964Y-96591D01*
X111894Y-96661D01*
X111856Y-96753D01*
X111856Y-96852D01*
X111856Y-96887D01*
X111918Y-96950D01*
X112450Y-96950D01*
X112450Y-97050D01*
X111918Y-97050D01*
X111856Y-97112D01*
X111856Y-97147D01*
X111856Y-97246D01*
X111888Y-97325D01*
X111856Y-97403D01*
X111856Y-97502D01*
X111856Y-97537D01*
X111918Y-97600D01*
X112450Y-97600D01*
X112450Y-97700D01*
X111918Y-97700D01*
X111856Y-97762D01*
X111856Y-97797D01*
X111856Y-97896D01*
X111894Y-97988D01*
X111964Y-98058D01*
X111989Y-98069D01*
X111985Y-98079D01*
X111985Y-98127D01*
X111985Y-98520D01*
X112003Y-98565D01*
X112037Y-98599D01*
X112082Y-98617D01*
X112130Y-98617D01*
X112917Y-98617D01*
X112962Y-98599D01*
X112996Y-98565D01*
X113014Y-98520D01*
X113014Y-98472D01*
X113014Y-98456D01*
X114385Y-98456D01*
X117966Y-102037D01*
X117946Y-102035D01*
X117887Y-102039D01*
X117887Y-102039D01*
X117768Y-102072D01*
X117716Y-102098D01*
X117716Y-102098D01*
X117618Y-102173D01*
X117580Y-102218D01*
X117580Y-102218D01*
X117519Y-102325D01*
X117500Y-102381D01*
X117500Y-102381D01*
X117485Y-102503D01*
X117489Y-102562D01*
X117522Y-102681D01*
X117548Y-102733D01*
X117548Y-102733D01*
X117623Y-102831D01*
X117668Y-102869D01*
X117668Y-102869D01*
X117775Y-102930D01*
X117831Y-102949D01*
X117831Y-102949D01*
X117953Y-102964D01*
X118012Y-102960D01*
X118012Y-102960D01*
X118131Y-102927D01*
X118183Y-102901D01*
X118183Y-102901D01*
X118281Y-102826D01*
X118319Y-102781D01*
X118319Y-102781D01*
X118380Y-102674D01*
X118399Y-102618D01*
X118399Y-102618D01*
X118414Y-102496D01*
X118413Y-102484D01*
X119022Y-103093D01*
X116131Y-103093D01*
X116131Y-103078D01*
X116112Y-103033D01*
X116078Y-102999D01*
X116034Y-102981D01*
X115986Y-102981D01*
X115513Y-102981D01*
X115469Y-102999D01*
X115435Y-103033D01*
X115416Y-103078D01*
X115416Y-103126D01*
X115416Y-103421D01*
X115435Y-103466D01*
X115469Y-103500D01*
X115513Y-103518D01*
X115561Y-103518D01*
X116034Y-103518D01*
X116078Y-103500D01*
X116112Y-103466D01*
X116131Y-103421D01*
X116131Y-103406D01*
X119100Y-103406D01*
X119100Y-103406D01*
X119159Y-103394D01*
X119210Y-103360D01*
X119250Y-103321D01*
X119578Y-103649D01*
X115383Y-103649D01*
X115383Y-103373D01*
X115383Y-103078D01*
X115364Y-103033D01*
X115330Y-102999D01*
X115286Y-102981D01*
X115238Y-102981D01*
X115182Y-102981D01*
X115182Y-99875D01*
X115182Y-99875D01*
X115170Y-99816D01*
X115170Y-99816D01*
X115159Y-99799D01*
X115136Y-99765D01*
X115136Y-99765D01*
X114860Y-99489D01*
X114809Y-99455D01*
X114750Y-99443D01*
X113389Y-99443D01*
X113389Y-98902D01*
X113352Y-98814D01*
X113285Y-98747D01*
X113197Y-98711D01*
X113102Y-98710D01*
X113014Y-98747D01*
X113014Y-98747D01*
X113014Y-98729D01*
X112996Y-98684D01*
X112962Y-98650D01*
X112917Y-98632D01*
X112869Y-98632D01*
X112082Y-98632D01*
X112037Y-98650D01*
X112003Y-98684D01*
X111985Y-98729D01*
X111985Y-98777D01*
X111985Y-99170D01*
X112003Y-99215D01*
X112037Y-99249D01*
X112082Y-99267D01*
X112130Y-99267D01*
X112917Y-99267D01*
X112962Y-99249D01*
X112996Y-99215D01*
X113014Y-99170D01*
X113014Y-99152D01*
X113102Y-99188D01*
X113197Y-99189D01*
X113285Y-99152D01*
X113352Y-99085D01*
X113388Y-98997D01*
X113389Y-98902D01*
X113389Y-99443D01*
X113014Y-99443D01*
X113014Y-99379D01*
X112996Y-99334D01*
X112962Y-99300D01*
X112917Y-99282D01*
X112869Y-99282D01*
X112082Y-99282D01*
X112037Y-99300D01*
X112003Y-99334D01*
X111985Y-99379D01*
X111985Y-99427D01*
X111985Y-99820D01*
X112003Y-99865D01*
X112037Y-99899D01*
X112082Y-99917D01*
X112130Y-99917D01*
X112917Y-99917D01*
X112962Y-99899D01*
X112996Y-99865D01*
X113014Y-99820D01*
X113014Y-99772D01*
X113014Y-99756D01*
X114685Y-99756D01*
X114869Y-99940D01*
X114869Y-102981D01*
X114765Y-102981D01*
X114721Y-102999D01*
X114687Y-103033D01*
X114668Y-103078D01*
X114668Y-103093D01*
X114521Y-103093D01*
X114521Y-102622D01*
X114503Y-102578D01*
X114469Y-102544D01*
X114424Y-102525D01*
X114376Y-102525D01*
X114068Y-102525D01*
X114068Y-100929D01*
X114068Y-100142D01*
X114050Y-100097D01*
X114016Y-100063D01*
X113972Y-100045D01*
X113924Y-100045D01*
X112428Y-100045D01*
X112383Y-100063D01*
X112349Y-100097D01*
X112331Y-100141D01*
X112331Y-100190D01*
X112331Y-100977D01*
X112349Y-101021D01*
X112383Y-101055D01*
X112427Y-101074D01*
X112475Y-101074D01*
X113971Y-101074D01*
X114016Y-101056D01*
X114050Y-101022D01*
X114068Y-100977D01*
X114068Y-100929D01*
X114068Y-102525D01*
X113786Y-102525D01*
X113741Y-102543D01*
X113707Y-102577D01*
X113689Y-102622D01*
X113689Y-102670D01*
X113689Y-103457D01*
X113707Y-103502D01*
X113741Y-103536D01*
X113786Y-103554D01*
X113834Y-103554D01*
X114424Y-103554D01*
X114469Y-103536D01*
X114503Y-103502D01*
X114521Y-103458D01*
X114521Y-103409D01*
X114521Y-103406D01*
X114668Y-103406D01*
X114668Y-103421D01*
X114687Y-103466D01*
X114721Y-103500D01*
X114765Y-103518D01*
X114813Y-103518D01*
X115286Y-103518D01*
X115330Y-103500D01*
X115364Y-103466D01*
X115383Y-103421D01*
X115383Y-103373D01*
X115383Y-103649D01*
X112722Y-103649D01*
X112731Y-103645D01*
X112801Y-103575D01*
X112823Y-103523D01*
X112836Y-103536D01*
X112880Y-103554D01*
X112928Y-103554D01*
X113519Y-103554D01*
X113563Y-103536D01*
X113597Y-103502D01*
X113616Y-103458D01*
X113616Y-103409D01*
X113616Y-102622D01*
X113597Y-102578D01*
X113563Y-102544D01*
X113519Y-102525D01*
X113471Y-102525D01*
X113427Y-102525D01*
X113438Y-102497D01*
X113439Y-102402D01*
X113402Y-102314D01*
X113335Y-102247D01*
X113247Y-102211D01*
X113152Y-102210D01*
X113064Y-102247D01*
X112997Y-102314D01*
X112961Y-102402D01*
X112960Y-102497D01*
X112972Y-102525D01*
X112880Y-102525D01*
X112836Y-102543D01*
X112823Y-102556D01*
X112801Y-102505D01*
X112731Y-102434D01*
X112639Y-102396D01*
X112540Y-102396D01*
X112406Y-102396D01*
X112344Y-102458D01*
X112344Y-102990D01*
X112352Y-102990D01*
X112352Y-103090D01*
X112344Y-103090D01*
X112344Y-103098D01*
X112244Y-103098D01*
X112244Y-103090D01*
X112236Y-103090D01*
X112236Y-102990D01*
X112244Y-102990D01*
X112244Y-102458D01*
X112181Y-102396D01*
X112048Y-102396D01*
X111949Y-102396D01*
X111857Y-102434D01*
X111787Y-102505D01*
X111750Y-102593D01*
X111750Y-93950D01*
X158849Y-93950D01*
X158849Y-97598D01*
X158843Y-97576D01*
X158843Y-96144D01*
X158843Y-95455D01*
X158843Y-95356D01*
X158805Y-95264D01*
X158735Y-95194D01*
X158643Y-95156D01*
X158312Y-95156D01*
X158250Y-95218D01*
X158250Y-95750D01*
X158781Y-95750D01*
X158843Y-95687D01*
X158843Y-95455D01*
X158843Y-96144D01*
X158843Y-95912D01*
X158781Y-95850D01*
X158250Y-95850D01*
X158250Y-96381D01*
X158312Y-96443D01*
X158643Y-96443D01*
X158735Y-96405D01*
X158805Y-96335D01*
X158843Y-96243D01*
X158843Y-96144D01*
X158843Y-97576D01*
X158827Y-97518D01*
X158801Y-97466D01*
X158801Y-97466D01*
X158726Y-97368D01*
X158681Y-97330D01*
X158681Y-97330D01*
X158574Y-97269D01*
X158518Y-97250D01*
X158518Y-97250D01*
X158396Y-97235D01*
X158337Y-97239D01*
X158337Y-97239D01*
X158218Y-97272D01*
X158166Y-97298D01*
X158166Y-97298D01*
X158150Y-97311D01*
X158150Y-96381D01*
X158150Y-95850D01*
X158150Y-95750D01*
X158150Y-95218D01*
X158087Y-95156D01*
X157756Y-95156D01*
X157664Y-95194D01*
X157594Y-95264D01*
X157556Y-95356D01*
X157556Y-95455D01*
X157556Y-95687D01*
X157618Y-95750D01*
X158150Y-95750D01*
X158150Y-95850D01*
X157618Y-95850D01*
X157556Y-95912D01*
X157556Y-96144D01*
X157556Y-96243D01*
X157594Y-96335D01*
X157664Y-96405D01*
X157756Y-96443D01*
X158087Y-96443D01*
X158150Y-96381D01*
X158150Y-97311D01*
X158068Y-97373D01*
X158030Y-97418D01*
X158030Y-97418D01*
X157969Y-97525D01*
X157950Y-97581D01*
X157950Y-97581D01*
X157935Y-97703D01*
X157939Y-97762D01*
X157972Y-97881D01*
X157998Y-97933D01*
X157998Y-97933D01*
X158073Y-98031D01*
X158118Y-98069D01*
X158118Y-98069D01*
X158225Y-98130D01*
X158281Y-98149D01*
X158281Y-98149D01*
X158403Y-98164D01*
X158462Y-98160D01*
X158462Y-98160D01*
X158581Y-98127D01*
X158633Y-98101D01*
X158633Y-98101D01*
X158731Y-98026D01*
X158769Y-97981D01*
X158769Y-97981D01*
X158830Y-97874D01*
X158849Y-97818D01*
X158849Y-97818D01*
X158849Y-97815D01*
X158849Y-103649D01*
X158849Y-103649D01*
G37*
G54D29*
X158849Y-103649D02*
X158729Y-103649D01*
X158729Y-101975D01*
X158718Y-101767D01*
X158660Y-101627D01*
X158567Y-101602D01*
X158497Y-101673D01*
X158497Y-101532D01*
X158472Y-101439D01*
X158275Y-101370D01*
X158067Y-101381D01*
X157927Y-101439D01*
X157902Y-101532D01*
X158200Y-101829D01*
X158497Y-101532D01*
X158497Y-101673D01*
X158270Y-101900D01*
X158567Y-102197D01*
X158660Y-102172D01*
X158729Y-101975D01*
X158729Y-103649D01*
X158595Y-103649D01*
X158595Y-102821D01*
X158535Y-102676D01*
X158497Y-102637D01*
X158497Y-102267D01*
X158200Y-101970D01*
X158129Y-102041D01*
X158129Y-101900D01*
X157832Y-101602D01*
X157739Y-101627D01*
X157670Y-101824D01*
X157681Y-102032D01*
X157739Y-102172D01*
X157832Y-102197D01*
X158129Y-101900D01*
X158129Y-102041D01*
X157902Y-102267D01*
X157927Y-102360D01*
X158124Y-102429D01*
X158332Y-102418D01*
X158472Y-102360D01*
X158497Y-102267D01*
X158497Y-102637D01*
X158424Y-102564D01*
X158279Y-102504D01*
X158121Y-102504D01*
X157976Y-102564D01*
X157864Y-102675D01*
X157804Y-102820D01*
X157804Y-102978D01*
X157864Y-103123D01*
X157975Y-103235D01*
X158120Y-103295D01*
X158278Y-103295D01*
X158423Y-103235D01*
X158535Y-103124D01*
X158595Y-102979D01*
X158595Y-102821D01*
X158595Y-103649D01*
X153064Y-103649D01*
X153064Y-102546D01*
X153060Y-102487D01*
X153060Y-102487D01*
X153027Y-102368D01*
X153001Y-102316D01*
X153001Y-102316D01*
X152926Y-102218D01*
X152881Y-102180D01*
X152881Y-102180D01*
X152774Y-102119D01*
X152718Y-102100D01*
X152718Y-102100D01*
X152596Y-102085D01*
X152537Y-102089D01*
X152537Y-102089D01*
X152418Y-102122D01*
X152366Y-102148D01*
X152366Y-102148D01*
X152268Y-102223D01*
X152230Y-102268D01*
X152230Y-102268D01*
X152169Y-102375D01*
X152150Y-102431D01*
X152150Y-102431D01*
X152135Y-102553D01*
X152139Y-102612D01*
X152172Y-102731D01*
X152198Y-102783D01*
X152198Y-102783D01*
X152273Y-102881D01*
X152318Y-102919D01*
X152318Y-102919D01*
X152425Y-102980D01*
X152481Y-102999D01*
X152481Y-102999D01*
X152603Y-103014D01*
X152662Y-103010D01*
X152662Y-103010D01*
X152781Y-102977D01*
X152833Y-102951D01*
X152833Y-102951D01*
X152931Y-102876D01*
X152969Y-102831D01*
X152969Y-102831D01*
X153030Y-102724D01*
X153049Y-102668D01*
X153049Y-102668D01*
X153064Y-102546D01*
X153064Y-103649D01*
X150033Y-103649D01*
X150059Y-103644D01*
X150110Y-103610D01*
X152664Y-101056D01*
X157836Y-101056D01*
X157864Y-101123D01*
X157975Y-101235D01*
X158120Y-101295D01*
X158278Y-101295D01*
X158423Y-101235D01*
X158535Y-101124D01*
X158595Y-100979D01*
X158595Y-100821D01*
X158535Y-100676D01*
X158424Y-100564D01*
X158279Y-100504D01*
X158121Y-100504D01*
X157976Y-100564D01*
X157864Y-100675D01*
X157836Y-100743D01*
X152677Y-100743D01*
X153364Y-100056D01*
X157804Y-100056D01*
X157804Y-100198D01*
X157822Y-100243D01*
X157856Y-100277D01*
X157900Y-100295D01*
X157948Y-100295D01*
X158498Y-100295D01*
X158543Y-100277D01*
X158577Y-100243D01*
X158595Y-100199D01*
X158595Y-100151D01*
X158595Y-99601D01*
X158577Y-99556D01*
X158543Y-99522D01*
X158499Y-99504D01*
X158451Y-99504D01*
X157901Y-99504D01*
X157856Y-99522D01*
X157822Y-99556D01*
X157804Y-99600D01*
X157804Y-99648D01*
X157804Y-99743D01*
X156843Y-99743D01*
X156843Y-96144D01*
X156843Y-95455D01*
X156843Y-95356D01*
X156805Y-95264D01*
X156735Y-95194D01*
X156643Y-95156D01*
X156312Y-95156D01*
X156250Y-95218D01*
X156250Y-95750D01*
X156781Y-95750D01*
X156843Y-95687D01*
X156843Y-95455D01*
X156843Y-96144D01*
X156843Y-95912D01*
X156781Y-95850D01*
X156250Y-95850D01*
X156250Y-96381D01*
X156312Y-96443D01*
X156643Y-96443D01*
X156735Y-96405D01*
X156805Y-96335D01*
X156843Y-96243D01*
X156843Y-96144D01*
X156843Y-99743D01*
X156150Y-99743D01*
X156150Y-96381D01*
X156150Y-95850D01*
X156150Y-95750D01*
X156150Y-95218D01*
X156087Y-95156D01*
X155756Y-95156D01*
X155664Y-95194D01*
X155594Y-95264D01*
X155556Y-95356D01*
X155556Y-95455D01*
X155556Y-95687D01*
X155618Y-95750D01*
X156150Y-95750D01*
X156150Y-95850D01*
X155618Y-95850D01*
X155556Y-95912D01*
X155556Y-96144D01*
X155556Y-96243D01*
X155594Y-96335D01*
X155664Y-96405D01*
X155756Y-96443D01*
X156087Y-96443D01*
X156150Y-96381D01*
X156150Y-99743D01*
X153300Y-99743D01*
X153250Y-99753D01*
X153240Y-99755D01*
X153189Y-99789D01*
X150076Y-102902D01*
X150076Y-102730D01*
X150076Y-101057D01*
X150076Y-100958D01*
X150037Y-100866D01*
X149967Y-100796D01*
X149875Y-100758D01*
X149544Y-100758D01*
X149482Y-100820D01*
X149482Y-101844D01*
X150013Y-101844D01*
X150076Y-101781D01*
X150076Y-101057D01*
X150076Y-102730D01*
X150076Y-102006D01*
X150013Y-101944D01*
X149482Y-101944D01*
X149482Y-102967D01*
X149544Y-103029D01*
X149875Y-103029D01*
X149967Y-102991D01*
X150037Y-102921D01*
X150076Y-102829D01*
X150076Y-102730D01*
X150076Y-102902D01*
X149785Y-103193D01*
X147864Y-103193D01*
X145107Y-100436D01*
X146808Y-100436D01*
X147972Y-101600D01*
X147972Y-102803D01*
X147991Y-102848D01*
X148025Y-102882D01*
X148069Y-102900D01*
X148117Y-102900D01*
X148818Y-102900D01*
X148826Y-102921D01*
X148897Y-102991D01*
X148989Y-103029D01*
X149319Y-103029D01*
X149382Y-102967D01*
X149382Y-101944D01*
X149374Y-101944D01*
X149374Y-101844D01*
X149382Y-101844D01*
X149382Y-100820D01*
X149319Y-100758D01*
X148989Y-100758D01*
X148897Y-100796D01*
X148826Y-100866D01*
X148818Y-100887D01*
X148069Y-100887D01*
X148025Y-100905D01*
X147991Y-100939D01*
X147973Y-100984D01*
X147972Y-101032D01*
X147972Y-101158D01*
X147053Y-100239D01*
X151243Y-100239D01*
X151243Y-100239D01*
X151303Y-100227D01*
X151353Y-100193D01*
X151666Y-99881D01*
X152869Y-99881D01*
X152914Y-99862D01*
X152948Y-99828D01*
X152966Y-99784D01*
X152966Y-99736D01*
X152966Y-99035D01*
X152987Y-99027D01*
X153057Y-98957D01*
X153095Y-98865D01*
X153095Y-98765D01*
X153095Y-98077D01*
X153095Y-97977D01*
X153057Y-97886D01*
X152987Y-97815D01*
X152895Y-97777D01*
X152072Y-97777D01*
X152010Y-97840D01*
X152010Y-98371D01*
X153033Y-98371D01*
X153095Y-98309D01*
X153095Y-98077D01*
X153095Y-98765D01*
X153095Y-98534D01*
X153033Y-98471D01*
X152010Y-98471D01*
X152010Y-98479D01*
X151910Y-98479D01*
X151910Y-98471D01*
X151910Y-98371D01*
X151910Y-97840D01*
X151847Y-97777D01*
X151024Y-97777D01*
X150932Y-97815D01*
X150862Y-97886D01*
X150824Y-97977D01*
X150824Y-98077D01*
X150824Y-98309D01*
X150886Y-98371D01*
X151910Y-98371D01*
X151910Y-98471D01*
X150886Y-98471D01*
X150824Y-98534D01*
X150824Y-98765D01*
X150824Y-98865D01*
X150862Y-98957D01*
X150932Y-99027D01*
X150953Y-99035D01*
X150953Y-99784D01*
X150971Y-99828D01*
X151005Y-99862D01*
X151050Y-99880D01*
X151098Y-99881D01*
X151224Y-99881D01*
X151178Y-99926D01*
X145620Y-99926D01*
X145666Y-99881D01*
X146869Y-99881D01*
X146914Y-99862D01*
X146948Y-99828D01*
X146966Y-99784D01*
X146966Y-99736D01*
X146966Y-99035D01*
X146987Y-99027D01*
X147057Y-98957D01*
X147095Y-98865D01*
X147095Y-98765D01*
X147095Y-98077D01*
X147095Y-97977D01*
X147057Y-97886D01*
X146987Y-97815D01*
X146895Y-97777D01*
X146072Y-97777D01*
X146010Y-97840D01*
X146010Y-98371D01*
X147033Y-98371D01*
X147095Y-98309D01*
X147095Y-98077D01*
X147095Y-98765D01*
X147095Y-98534D01*
X147033Y-98471D01*
X146010Y-98471D01*
X146010Y-98479D01*
X145910Y-98479D01*
X145910Y-98471D01*
X145910Y-98371D01*
X145910Y-97840D01*
X145847Y-97777D01*
X145024Y-97777D01*
X144932Y-97815D01*
X144862Y-97886D01*
X144824Y-97977D01*
X144824Y-98077D01*
X144824Y-98309D01*
X144886Y-98371D01*
X145910Y-98371D01*
X145910Y-98471D01*
X144886Y-98471D01*
X144824Y-98534D01*
X144824Y-98765D01*
X144824Y-98865D01*
X144862Y-98957D01*
X144932Y-99027D01*
X144953Y-99035D01*
X144953Y-99729D01*
X141791Y-99729D01*
X141910Y-99610D01*
X141910Y-99610D01*
X141944Y-99559D01*
X141944Y-99559D01*
X141946Y-99549D01*
X141956Y-99500D01*
X141956Y-99500D01*
X141956Y-97364D01*
X142014Y-97306D01*
X152550Y-97306D01*
X152550Y-97306D01*
X152609Y-97294D01*
X152660Y-97260D01*
X155164Y-94756D01*
X155685Y-94756D01*
X155685Y-95017D01*
X155703Y-95062D01*
X155737Y-95096D01*
X155782Y-95114D01*
X155830Y-95114D01*
X156617Y-95114D01*
X156662Y-95096D01*
X156696Y-95062D01*
X156714Y-95017D01*
X156714Y-94969D01*
X156714Y-94756D01*
X157685Y-94756D01*
X157685Y-95017D01*
X157703Y-95062D01*
X157737Y-95096D01*
X157782Y-95114D01*
X157830Y-95114D01*
X158617Y-95114D01*
X158662Y-95096D01*
X158696Y-95062D01*
X158714Y-95017D01*
X158714Y-94969D01*
X158714Y-94182D01*
X158696Y-94137D01*
X158662Y-94103D01*
X158617Y-94085D01*
X158569Y-94085D01*
X157782Y-94085D01*
X157737Y-94103D01*
X157703Y-94137D01*
X157685Y-94182D01*
X157685Y-94230D01*
X157685Y-94443D01*
X156714Y-94443D01*
X156714Y-94182D01*
X156696Y-94137D01*
X156662Y-94103D01*
X156617Y-94085D01*
X156569Y-94085D01*
X155782Y-94085D01*
X155737Y-94103D01*
X155703Y-94137D01*
X155685Y-94182D01*
X155685Y-94230D01*
X155685Y-94443D01*
X155100Y-94443D01*
X155050Y-94453D01*
X155040Y-94455D01*
X154989Y-94489D01*
X153014Y-96464D01*
X153014Y-95246D01*
X153010Y-95187D01*
X153010Y-95187D01*
X152977Y-95068D01*
X152951Y-95016D01*
X152951Y-95016D01*
X152876Y-94918D01*
X152831Y-94880D01*
X152831Y-94880D01*
X152724Y-94819D01*
X152668Y-94800D01*
X152668Y-94800D01*
X152546Y-94785D01*
X152487Y-94789D01*
X152487Y-94789D01*
X152368Y-94822D01*
X152316Y-94848D01*
X152316Y-94848D01*
X152218Y-94923D01*
X152180Y-94968D01*
X152180Y-94968D01*
X152119Y-95075D01*
X152100Y-95131D01*
X152100Y-95131D01*
X152085Y-95253D01*
X152089Y-95312D01*
X152122Y-95431D01*
X152148Y-95483D01*
X152148Y-95483D01*
X152223Y-95581D01*
X152268Y-95619D01*
X152268Y-95619D01*
X152375Y-95680D01*
X152431Y-95699D01*
X152431Y-95699D01*
X152553Y-95714D01*
X152612Y-95710D01*
X152612Y-95710D01*
X152731Y-95677D01*
X152783Y-95651D01*
X152783Y-95651D01*
X152881Y-95576D01*
X152919Y-95531D01*
X152919Y-95531D01*
X152980Y-95424D01*
X152999Y-95368D01*
X152999Y-95368D01*
X153014Y-95246D01*
X153014Y-96464D01*
X152485Y-96993D01*
X149963Y-96993D01*
X149967Y-96991D01*
X150037Y-96921D01*
X150076Y-96829D01*
X150076Y-96730D01*
X150076Y-95057D01*
X150076Y-94958D01*
X150037Y-94866D01*
X149967Y-94796D01*
X149875Y-94758D01*
X149544Y-94758D01*
X149482Y-94820D01*
X149482Y-95844D01*
X150013Y-95844D01*
X150076Y-95781D01*
X150076Y-95057D01*
X150076Y-96730D01*
X150076Y-96006D01*
X150013Y-95944D01*
X149482Y-95944D01*
X149482Y-95951D01*
X149382Y-95951D01*
X149382Y-95944D01*
X149374Y-95944D01*
X149374Y-95844D01*
X149382Y-95844D01*
X149382Y-94820D01*
X149319Y-94758D01*
X148989Y-94758D01*
X148897Y-94796D01*
X148826Y-94866D01*
X148818Y-94887D01*
X148069Y-94887D01*
X148025Y-94905D01*
X147991Y-94939D01*
X147973Y-94984D01*
X147972Y-95032D01*
X147972Y-96605D01*
X147785Y-96793D01*
X145814Y-96793D01*
X145814Y-95246D01*
X145810Y-95187D01*
X145810Y-95187D01*
X145777Y-95068D01*
X145751Y-95016D01*
X145751Y-95016D01*
X145676Y-94918D01*
X145631Y-94880D01*
X145631Y-94880D01*
X145524Y-94819D01*
X145468Y-94800D01*
X145468Y-94800D01*
X145346Y-94785D01*
X145287Y-94789D01*
X145287Y-94789D01*
X145168Y-94822D01*
X145116Y-94848D01*
X145116Y-94848D01*
X145018Y-94923D01*
X144980Y-94968D01*
X144980Y-94968D01*
X144919Y-95075D01*
X144900Y-95131D01*
X144900Y-95131D01*
X144885Y-95253D01*
X144889Y-95312D01*
X144922Y-95431D01*
X144948Y-95483D01*
X144948Y-95483D01*
X145023Y-95581D01*
X145068Y-95619D01*
X145068Y-95619D01*
X145175Y-95680D01*
X145231Y-95699D01*
X145231Y-95699D01*
X145353Y-95714D01*
X145412Y-95710D01*
X145412Y-95710D01*
X145531Y-95677D01*
X145583Y-95651D01*
X145583Y-95651D01*
X145681Y-95576D01*
X145719Y-95531D01*
X145719Y-95531D01*
X145780Y-95424D01*
X145799Y-95368D01*
X145799Y-95368D01*
X145814Y-95246D01*
X145814Y-96793D01*
X144043Y-96793D01*
X144043Y-94944D01*
X144043Y-94255D01*
X144043Y-94156D01*
X144005Y-94064D01*
X143935Y-93994D01*
X143843Y-93956D01*
X143512Y-93956D01*
X143450Y-94018D01*
X143450Y-94550D01*
X143981Y-94550D01*
X144043Y-94487D01*
X144043Y-94255D01*
X144043Y-94944D01*
X144043Y-94712D01*
X143981Y-94650D01*
X143450Y-94650D01*
X143450Y-95181D01*
X143512Y-95243D01*
X143843Y-95243D01*
X143935Y-95205D01*
X144005Y-95135D01*
X144043Y-95043D01*
X144043Y-94944D01*
X144043Y-96793D01*
X141850Y-96793D01*
X141790Y-96805D01*
X141773Y-96816D01*
X141739Y-96839D01*
X141556Y-97022D01*
X141556Y-96314D01*
X141817Y-96314D01*
X141862Y-96296D01*
X141896Y-96262D01*
X141914Y-96217D01*
X141914Y-96169D01*
X141914Y-95956D01*
X142885Y-95956D01*
X142885Y-96217D01*
X142903Y-96262D01*
X142937Y-96296D01*
X142982Y-96314D01*
X143030Y-96314D01*
X143817Y-96314D01*
X143862Y-96296D01*
X143896Y-96262D01*
X143914Y-96217D01*
X143914Y-96169D01*
X143914Y-95382D01*
X143896Y-95337D01*
X143862Y-95303D01*
X143817Y-95285D01*
X143769Y-95285D01*
X143350Y-95285D01*
X143350Y-95181D01*
X143350Y-94650D01*
X143350Y-94550D01*
X143350Y-94018D01*
X143287Y-93956D01*
X142956Y-93956D01*
X142864Y-93994D01*
X142794Y-94064D01*
X142756Y-94156D01*
X142756Y-94255D01*
X142756Y-94487D01*
X142818Y-94550D01*
X143350Y-94550D01*
X143350Y-94650D01*
X142818Y-94650D01*
X142756Y-94712D01*
X142756Y-94944D01*
X142756Y-95043D01*
X142794Y-95135D01*
X142864Y-95205D01*
X142956Y-95243D01*
X143287Y-95243D01*
X143350Y-95181D01*
X143350Y-95285D01*
X142982Y-95285D01*
X142937Y-95303D01*
X142903Y-95337D01*
X142885Y-95382D01*
X142885Y-95430D01*
X142885Y-95643D01*
X142043Y-95643D01*
X142043Y-94944D01*
X142043Y-94255D01*
X142043Y-94156D01*
X142005Y-94064D01*
X141935Y-93994D01*
X141843Y-93956D01*
X141512Y-93956D01*
X141450Y-94018D01*
X141450Y-94550D01*
X141981Y-94550D01*
X142043Y-94487D01*
X142043Y-94255D01*
X142043Y-94944D01*
X142043Y-94712D01*
X141981Y-94650D01*
X141450Y-94650D01*
X141450Y-95181D01*
X141512Y-95243D01*
X141843Y-95243D01*
X141935Y-95205D01*
X142005Y-95135D01*
X142043Y-95043D01*
X142043Y-94944D01*
X142043Y-95643D01*
X141914Y-95643D01*
X141914Y-95382D01*
X141896Y-95337D01*
X141862Y-95303D01*
X141817Y-95285D01*
X141769Y-95285D01*
X141350Y-95285D01*
X141350Y-95181D01*
X141350Y-94650D01*
X141350Y-94550D01*
X141350Y-94018D01*
X141287Y-93956D01*
X140956Y-93956D01*
X140864Y-93994D01*
X140794Y-94064D01*
X140756Y-94156D01*
X140756Y-94255D01*
X140756Y-94487D01*
X140818Y-94550D01*
X141350Y-94550D01*
X141350Y-94650D01*
X140818Y-94650D01*
X140756Y-94712D01*
X140756Y-94944D01*
X140756Y-95043D01*
X140794Y-95135D01*
X140864Y-95205D01*
X140956Y-95243D01*
X141287Y-95243D01*
X141350Y-95181D01*
X141350Y-95285D01*
X140982Y-95285D01*
X140937Y-95303D01*
X140903Y-95337D01*
X140885Y-95382D01*
X140885Y-95430D01*
X140885Y-96217D01*
X140903Y-96262D01*
X140937Y-96296D01*
X140982Y-96314D01*
X141030Y-96314D01*
X141243Y-96314D01*
X141243Y-98535D01*
X141239Y-98539D01*
X141239Y-98539D01*
X141085Y-98693D01*
X140443Y-98693D01*
X140443Y-94944D01*
X140443Y-94255D01*
X140443Y-94156D01*
X140405Y-94064D01*
X140335Y-93994D01*
X140243Y-93956D01*
X139912Y-93956D01*
X139850Y-94018D01*
X139850Y-94550D01*
X140381Y-94550D01*
X140443Y-94487D01*
X140443Y-94255D01*
X140443Y-94944D01*
X140443Y-94712D01*
X140381Y-94650D01*
X139850Y-94650D01*
X139850Y-95181D01*
X139912Y-95243D01*
X140243Y-95243D01*
X140335Y-95205D01*
X140405Y-95135D01*
X140443Y-95043D01*
X140443Y-94944D01*
X140443Y-98693D01*
X140314Y-98693D01*
X140314Y-96169D01*
X140314Y-95382D01*
X140296Y-95337D01*
X140262Y-95303D01*
X140217Y-95285D01*
X140169Y-95285D01*
X139750Y-95285D01*
X139750Y-95181D01*
X139750Y-94650D01*
X139750Y-94550D01*
X139750Y-94018D01*
X139687Y-93956D01*
X139356Y-93956D01*
X139264Y-93994D01*
X139194Y-94064D01*
X139156Y-94156D01*
X139156Y-94255D01*
X139156Y-94487D01*
X139218Y-94550D01*
X139750Y-94550D01*
X139750Y-94650D01*
X139218Y-94650D01*
X139156Y-94712D01*
X139156Y-94944D01*
X139156Y-95043D01*
X139194Y-95135D01*
X139264Y-95205D01*
X139356Y-95243D01*
X139687Y-95243D01*
X139750Y-95181D01*
X139750Y-95285D01*
X139382Y-95285D01*
X139337Y-95303D01*
X139303Y-95337D01*
X139285Y-95382D01*
X139285Y-95430D01*
X139285Y-95643D01*
X138443Y-95643D01*
X138443Y-94944D01*
X138443Y-94255D01*
X138443Y-94156D01*
X138405Y-94064D01*
X138335Y-93994D01*
X138243Y-93956D01*
X137912Y-93956D01*
X137850Y-94018D01*
X137850Y-94550D01*
X138381Y-94550D01*
X138443Y-94487D01*
X138443Y-94255D01*
X138443Y-94944D01*
X138443Y-94712D01*
X138381Y-94650D01*
X137850Y-94650D01*
X137850Y-95181D01*
X137912Y-95243D01*
X138243Y-95243D01*
X138335Y-95205D01*
X138405Y-95135D01*
X138443Y-95043D01*
X138443Y-94944D01*
X138443Y-95643D01*
X138314Y-95643D01*
X138314Y-95382D01*
X138296Y-95337D01*
X138262Y-95303D01*
X138217Y-95285D01*
X138169Y-95285D01*
X137750Y-95285D01*
X137750Y-95181D01*
X137750Y-94650D01*
X137750Y-94550D01*
X137750Y-94018D01*
X137687Y-93956D01*
X137356Y-93956D01*
X137264Y-93994D01*
X137194Y-94064D01*
X137156Y-94156D01*
X137156Y-94255D01*
X137156Y-94487D01*
X137218Y-94550D01*
X137750Y-94550D01*
X137750Y-94650D01*
X137218Y-94650D01*
X137156Y-94712D01*
X137156Y-94944D01*
X137156Y-95043D01*
X137194Y-95135D01*
X137264Y-95205D01*
X137356Y-95243D01*
X137687Y-95243D01*
X137750Y-95181D01*
X137750Y-95285D01*
X137382Y-95285D01*
X137337Y-95303D01*
X137303Y-95337D01*
X137285Y-95382D01*
X137285Y-95430D01*
X137285Y-96217D01*
X137303Y-96262D01*
X137337Y-96296D01*
X137382Y-96314D01*
X137430Y-96314D01*
X137643Y-96314D01*
X137643Y-96535D01*
X137635Y-96543D01*
X136250Y-96543D01*
X136190Y-96555D01*
X136173Y-96566D01*
X136139Y-96589D01*
X136035Y-96693D01*
X136001Y-96744D01*
X135989Y-96804D01*
X135989Y-97235D01*
X135980Y-97235D01*
X135869Y-97235D01*
X135850Y-97243D01*
X135831Y-97235D01*
X135783Y-97235D01*
X135711Y-97235D01*
X135711Y-96387D01*
X135747Y-96387D01*
X136534Y-96387D01*
X136579Y-96368D01*
X136613Y-96334D01*
X136631Y-96290D01*
X136631Y-96242D01*
X136631Y-95297D01*
X136613Y-95253D01*
X136590Y-95230D01*
X136590Y-94862D01*
X136694Y-94862D01*
X136738Y-94844D01*
X136772Y-94810D01*
X136791Y-94765D01*
X136791Y-94717D01*
X136791Y-94422D01*
X136772Y-94377D01*
X136738Y-94343D01*
X136694Y-94325D01*
X136646Y-94325D01*
X136173Y-94325D01*
X136147Y-94336D01*
X136134Y-94304D01*
X136063Y-94234D01*
X135971Y-94196D01*
X135798Y-94196D01*
X135735Y-94258D01*
X135735Y-94544D01*
X135743Y-94544D01*
X135743Y-94644D01*
X135735Y-94644D01*
X135735Y-94929D01*
X135798Y-94991D01*
X135971Y-94991D01*
X136063Y-94953D01*
X136134Y-94883D01*
X136147Y-94851D01*
X136173Y-94862D01*
X136221Y-94862D01*
X136277Y-94862D01*
X136277Y-95200D01*
X135699Y-95200D01*
X135655Y-95219D01*
X135635Y-95238D01*
X135635Y-94929D01*
X135635Y-94644D01*
X135635Y-94544D01*
X135635Y-94258D01*
X135573Y-94196D01*
X135400Y-94196D01*
X135310Y-94233D01*
X135219Y-94196D01*
X135046Y-94196D01*
X134984Y-94258D01*
X134984Y-94544D01*
X135262Y-94544D01*
X135357Y-94544D01*
X135635Y-94544D01*
X135635Y-94644D01*
X135357Y-94644D01*
X135262Y-94644D01*
X134984Y-94644D01*
X134984Y-94929D01*
X135046Y-94991D01*
X135219Y-94991D01*
X135310Y-94954D01*
X135400Y-94991D01*
X135573Y-94991D01*
X135635Y-94929D01*
X135635Y-95238D01*
X135620Y-95253D01*
X135602Y-95297D01*
X135602Y-95345D01*
X135602Y-95680D01*
X135589Y-95689D01*
X135449Y-95828D01*
X135304Y-95683D01*
X135253Y-95649D01*
X135194Y-95637D01*
X135017Y-95637D01*
X135017Y-95297D01*
X134999Y-95253D01*
X134965Y-95219D01*
X134920Y-95200D01*
X134872Y-95200D01*
X134342Y-95200D01*
X134342Y-94862D01*
X134446Y-94862D01*
X134472Y-94851D01*
X134485Y-94883D01*
X134556Y-94953D01*
X134648Y-94991D01*
X134821Y-94991D01*
X134884Y-94929D01*
X134884Y-94644D01*
X134876Y-94644D01*
X134876Y-94544D01*
X134884Y-94544D01*
X134884Y-94258D01*
X134821Y-94196D01*
X134648Y-94196D01*
X134556Y-94234D01*
X134485Y-94304D01*
X134472Y-94336D01*
X134446Y-94325D01*
X134398Y-94325D01*
X133925Y-94325D01*
X133881Y-94343D01*
X133847Y-94377D01*
X133828Y-94422D01*
X133828Y-94470D01*
X133828Y-94765D01*
X133847Y-94810D01*
X133881Y-94844D01*
X133925Y-94862D01*
X133973Y-94862D01*
X134029Y-94862D01*
X134029Y-95230D01*
X134006Y-95253D01*
X133988Y-95297D01*
X133988Y-95345D01*
X133988Y-96290D01*
X134006Y-96334D01*
X134040Y-96368D01*
X134085Y-96387D01*
X134133Y-96387D01*
X134920Y-96387D01*
X134964Y-96368D01*
X134999Y-96334D01*
X135017Y-96290D01*
X135017Y-96242D01*
X135017Y-95950D01*
X135129Y-95950D01*
X135202Y-96023D01*
X135202Y-96588D01*
X135048Y-96588D01*
X134986Y-96650D01*
X134986Y-96936D01*
X134993Y-96936D01*
X134993Y-97036D01*
X134986Y-97036D01*
X134986Y-97043D01*
X134886Y-97043D01*
X134886Y-97036D01*
X134878Y-97036D01*
X134878Y-96936D01*
X134886Y-96936D01*
X134886Y-96650D01*
X134823Y-96588D01*
X134650Y-96588D01*
X134558Y-96626D01*
X134487Y-96696D01*
X134474Y-96728D01*
X134448Y-96717D01*
X134400Y-96717D01*
X133927Y-96717D01*
X133883Y-96735D01*
X133849Y-96769D01*
X133830Y-96814D01*
X133830Y-96862D01*
X133830Y-97157D01*
X133849Y-97202D01*
X133883Y-97236D01*
X133927Y-97254D01*
X133970Y-97254D01*
X133937Y-97288D01*
X133918Y-97332D01*
X133918Y-97380D01*
X133918Y-97495D01*
X133443Y-97495D01*
X133443Y-94944D01*
X133443Y-94255D01*
X133443Y-94156D01*
X133405Y-94064D01*
X133335Y-93994D01*
X133243Y-93956D01*
X132912Y-93956D01*
X132850Y-94018D01*
X132850Y-94550D01*
X133381Y-94550D01*
X133443Y-94487D01*
X133443Y-94255D01*
X133443Y-94944D01*
X133443Y-94712D01*
X133381Y-94650D01*
X132850Y-94650D01*
X132850Y-95181D01*
X132912Y-95243D01*
X133243Y-95243D01*
X133335Y-95205D01*
X133405Y-95135D01*
X133443Y-95043D01*
X133443Y-94944D01*
X133443Y-97495D01*
X132966Y-97495D01*
X132956Y-97485D01*
X132956Y-96314D01*
X133217Y-96314D01*
X133262Y-96296D01*
X133296Y-96262D01*
X133314Y-96217D01*
X133314Y-96169D01*
X133314Y-95382D01*
X133296Y-95337D01*
X133262Y-95303D01*
X133217Y-95285D01*
X133169Y-95285D01*
X132750Y-95285D01*
X132750Y-95181D01*
X132750Y-94650D01*
X132750Y-94550D01*
X132750Y-94018D01*
X132687Y-93956D01*
X132356Y-93956D01*
X132264Y-93994D01*
X132194Y-94064D01*
X132156Y-94156D01*
X132156Y-94255D01*
X132156Y-94487D01*
X132218Y-94550D01*
X132750Y-94550D01*
X132750Y-94650D01*
X132218Y-94650D01*
X132156Y-94712D01*
X132156Y-94944D01*
X132156Y-95043D01*
X132194Y-95135D01*
X132264Y-95205D01*
X132356Y-95243D01*
X132687Y-95243D01*
X132750Y-95181D01*
X132750Y-95285D01*
X132382Y-95285D01*
X132337Y-95303D01*
X132303Y-95337D01*
X132285Y-95382D01*
X132285Y-95430D01*
X132285Y-95643D01*
X131443Y-95643D01*
X131443Y-94944D01*
X131443Y-94255D01*
X131443Y-94156D01*
X131405Y-94064D01*
X131335Y-93994D01*
X131243Y-93956D01*
X130912Y-93956D01*
X130850Y-94018D01*
X130850Y-94550D01*
X131381Y-94550D01*
X131443Y-94487D01*
X131443Y-94255D01*
X131443Y-94944D01*
X131443Y-94712D01*
X131381Y-94650D01*
X130850Y-94650D01*
X130850Y-95181D01*
X130912Y-95243D01*
X131243Y-95243D01*
X131335Y-95205D01*
X131405Y-95135D01*
X131443Y-95043D01*
X131443Y-94944D01*
X131443Y-95643D01*
X131314Y-95643D01*
X131314Y-95382D01*
X131296Y-95337D01*
X131262Y-95303D01*
X131217Y-95285D01*
X131169Y-95285D01*
X130750Y-95285D01*
X130750Y-95181D01*
X130750Y-94650D01*
X130750Y-94550D01*
X130750Y-94018D01*
X130687Y-93956D01*
X130356Y-93956D01*
X130264Y-93994D01*
X130194Y-94064D01*
X130156Y-94156D01*
X130156Y-94255D01*
X130156Y-94487D01*
X130218Y-94550D01*
X130750Y-94550D01*
X130750Y-94650D01*
X130218Y-94650D01*
X130156Y-94712D01*
X130156Y-94944D01*
X130156Y-95043D01*
X130194Y-95135D01*
X130264Y-95205D01*
X130356Y-95243D01*
X130687Y-95243D01*
X130750Y-95181D01*
X130750Y-95285D01*
X130382Y-95285D01*
X130337Y-95303D01*
X130303Y-95337D01*
X130285Y-95382D01*
X130285Y-95430D01*
X130285Y-96217D01*
X130303Y-96262D01*
X130337Y-96296D01*
X130382Y-96314D01*
X130430Y-96314D01*
X131217Y-96314D01*
X131262Y-96296D01*
X131296Y-96262D01*
X131314Y-96217D01*
X131314Y-96169D01*
X131314Y-95956D01*
X132285Y-95956D01*
X132285Y-96217D01*
X132303Y-96262D01*
X132337Y-96296D01*
X132382Y-96314D01*
X132430Y-96314D01*
X132643Y-96314D01*
X132643Y-97550D01*
X132655Y-97609D01*
X132689Y-97660D01*
X132791Y-97762D01*
X132791Y-97762D01*
X132825Y-97785D01*
X132842Y-97796D01*
X132842Y-97796D01*
X132901Y-97808D01*
X132901Y-97808D01*
X133918Y-97808D01*
X133918Y-97971D01*
X133937Y-98015D01*
X133970Y-98049D01*
X134015Y-98067D01*
X134063Y-98068D01*
X134260Y-98068D01*
X134277Y-98060D01*
X134294Y-98067D01*
X134342Y-98068D01*
X134453Y-98068D01*
X134472Y-98060D01*
X134491Y-98067D01*
X134539Y-98068D01*
X134611Y-98068D01*
X134611Y-100317D01*
X134569Y-100359D01*
X134053Y-100359D01*
X134000Y-100307D01*
X133862Y-100307D01*
X133837Y-100296D01*
X133789Y-100296D01*
X133460Y-100296D01*
X133460Y-100258D01*
X133837Y-100258D01*
X133853Y-100252D01*
X134000Y-100252D01*
X134063Y-100189D01*
X134063Y-100175D01*
X134025Y-100083D01*
X133954Y-100012D01*
X133934Y-100004D01*
X133934Y-100003D01*
X133926Y-99984D01*
X133933Y-99965D01*
X133934Y-99917D01*
X133934Y-99807D01*
X133926Y-99787D01*
X133933Y-99768D01*
X133934Y-99720D01*
X133934Y-99610D01*
X133926Y-99590D01*
X133933Y-99571D01*
X133934Y-99523D01*
X133934Y-99413D01*
X133926Y-99394D01*
X133933Y-99374D01*
X133934Y-99326D01*
X133934Y-99216D01*
X133926Y-99197D01*
X133933Y-99177D01*
X133934Y-99129D01*
X133934Y-99019D01*
X133926Y-99000D01*
X133933Y-98981D01*
X133934Y-98933D01*
X133934Y-98822D01*
X133926Y-98803D01*
X133933Y-98784D01*
X133934Y-98736D01*
X133934Y-98625D01*
X133926Y-98606D01*
X133933Y-98587D01*
X133934Y-98539D01*
X133934Y-98429D01*
X133926Y-98411D01*
X133933Y-98394D01*
X133934Y-98346D01*
X133934Y-98149D01*
X133915Y-98105D01*
X133881Y-98071D01*
X133837Y-98052D01*
X133789Y-98052D01*
X133198Y-98052D01*
X133154Y-98071D01*
X133120Y-98104D01*
X133115Y-98115D01*
X130006Y-98115D01*
X130006Y-94700D01*
X129996Y-94650D01*
X129994Y-94640D01*
X129994Y-94640D01*
X129960Y-94589D01*
X129960Y-94589D01*
X129860Y-94489D01*
X129809Y-94455D01*
X129750Y-94443D01*
X114914Y-94443D01*
X114914Y-94182D01*
X114896Y-94137D01*
X114862Y-94103D01*
X114817Y-94085D01*
X114769Y-94085D01*
X113982Y-94085D01*
X113937Y-94103D01*
X113903Y-94137D01*
X113885Y-94182D01*
X113885Y-94230D01*
X113885Y-94443D01*
X112914Y-94443D01*
X112914Y-94182D01*
X112896Y-94137D01*
X112862Y-94103D01*
X112817Y-94085D01*
X112769Y-94085D01*
X111982Y-94085D01*
X111937Y-94103D01*
X111903Y-94137D01*
X111885Y-94182D01*
X111885Y-94230D01*
X111885Y-95017D01*
X111903Y-95062D01*
X111937Y-95096D01*
X111982Y-95114D01*
X112030Y-95114D01*
X112817Y-95114D01*
X112862Y-95096D01*
X112896Y-95062D01*
X112914Y-95017D01*
X112914Y-94969D01*
X112914Y-94756D01*
X113885Y-94756D01*
X113885Y-95017D01*
X113903Y-95062D01*
X113937Y-95096D01*
X113982Y-95114D01*
X114030Y-95114D01*
X114817Y-95114D01*
X114862Y-95096D01*
X114896Y-95062D01*
X114914Y-95017D01*
X114914Y-94969D01*
X114914Y-94756D01*
X129685Y-94756D01*
X129693Y-94764D01*
X129693Y-95972D01*
X129504Y-95783D01*
X129453Y-95749D01*
X129394Y-95737D01*
X125614Y-95737D01*
X125614Y-95246D01*
X125610Y-95187D01*
X125610Y-95187D01*
X125577Y-95068D01*
X125551Y-95016D01*
X125551Y-95016D01*
X125476Y-94918D01*
X125431Y-94880D01*
X125431Y-94880D01*
X125324Y-94819D01*
X125268Y-94800D01*
X125268Y-94800D01*
X125146Y-94785D01*
X125087Y-94789D01*
X125087Y-94789D01*
X124968Y-94822D01*
X124916Y-94848D01*
X124916Y-94848D01*
X124818Y-94923D01*
X124780Y-94968D01*
X124780Y-94968D01*
X124719Y-95075D01*
X124700Y-95131D01*
X124700Y-95131D01*
X124685Y-95253D01*
X124689Y-95312D01*
X124722Y-95431D01*
X124748Y-95483D01*
X124748Y-95483D01*
X124823Y-95581D01*
X124868Y-95619D01*
X124868Y-95619D01*
X124975Y-95680D01*
X125031Y-95699D01*
X125031Y-95699D01*
X125153Y-95714D01*
X125212Y-95710D01*
X125212Y-95710D01*
X125331Y-95677D01*
X125383Y-95651D01*
X125383Y-95651D01*
X125481Y-95576D01*
X125519Y-95531D01*
X125519Y-95531D01*
X125580Y-95424D01*
X125599Y-95368D01*
X125599Y-95368D01*
X125614Y-95246D01*
X125614Y-95737D01*
X122547Y-95737D01*
X122547Y-94984D01*
X122528Y-94939D01*
X122494Y-94905D01*
X122450Y-94887D01*
X122402Y-94887D01*
X121701Y-94887D01*
X121693Y-94866D01*
X121622Y-94796D01*
X121530Y-94758D01*
X121200Y-94758D01*
X121137Y-94820D01*
X121137Y-95844D01*
X121145Y-95844D01*
X121145Y-95944D01*
X121137Y-95944D01*
X121137Y-96967D01*
X121200Y-97029D01*
X121530Y-97029D01*
X121622Y-96991D01*
X121693Y-96921D01*
X121701Y-96900D01*
X122450Y-96900D01*
X122494Y-96882D01*
X122528Y-96848D01*
X122546Y-96803D01*
X122547Y-96755D01*
X122547Y-96050D01*
X129329Y-96050D01*
X129443Y-96164D01*
X129443Y-97422D01*
X129260Y-97239D01*
X129209Y-97205D01*
X129150Y-97193D01*
X121037Y-97193D01*
X121037Y-96967D01*
X121037Y-95944D01*
X121037Y-95844D01*
X121037Y-94820D01*
X120975Y-94758D01*
X120644Y-94758D01*
X120552Y-94796D01*
X120482Y-94866D01*
X120443Y-94958D01*
X120443Y-95057D01*
X120443Y-95781D01*
X120506Y-95844D01*
X121037Y-95844D01*
X121037Y-95944D01*
X120506Y-95944D01*
X120443Y-96006D01*
X120443Y-96730D01*
X120443Y-96829D01*
X120482Y-96921D01*
X120552Y-96991D01*
X120644Y-97029D01*
X120975Y-97029D01*
X121037Y-96967D01*
X121037Y-97193D01*
X118750Y-97193D01*
X118690Y-97205D01*
X118673Y-97216D01*
X118639Y-97239D01*
X118439Y-97439D01*
X118414Y-97476D01*
X118414Y-95246D01*
X118410Y-95187D01*
X118410Y-95187D01*
X118377Y-95068D01*
X118351Y-95016D01*
X118351Y-95016D01*
X118276Y-94918D01*
X118231Y-94880D01*
X118231Y-94880D01*
X118124Y-94819D01*
X118068Y-94800D01*
X118068Y-94800D01*
X117946Y-94785D01*
X117887Y-94789D01*
X117887Y-94789D01*
X117768Y-94822D01*
X117716Y-94848D01*
X117716Y-94848D01*
X117618Y-94923D01*
X117580Y-94968D01*
X117580Y-94968D01*
X117519Y-95075D01*
X117500Y-95131D01*
X117500Y-95131D01*
X117485Y-95253D01*
X117489Y-95312D01*
X117522Y-95431D01*
X117548Y-95483D01*
X117548Y-95483D01*
X117623Y-95581D01*
X117668Y-95619D01*
X117668Y-95619D01*
X117775Y-95680D01*
X117831Y-95699D01*
X117831Y-95699D01*
X117953Y-95714D01*
X118012Y-95710D01*
X118012Y-95710D01*
X118131Y-95677D01*
X118183Y-95651D01*
X118183Y-95651D01*
X118281Y-95576D01*
X118319Y-95531D01*
X118319Y-95531D01*
X118380Y-95424D01*
X118399Y-95368D01*
X118399Y-95368D01*
X118414Y-95246D01*
X118414Y-97476D01*
X118405Y-97490D01*
X118393Y-97550D01*
X118393Y-97912D01*
X117640Y-97912D01*
X117595Y-97931D01*
X117561Y-97965D01*
X117543Y-98009D01*
X117543Y-98057D01*
X117543Y-98758D01*
X117522Y-98766D01*
X117452Y-98836D01*
X117414Y-98928D01*
X117414Y-99028D01*
X117414Y-99259D01*
X117476Y-99322D01*
X118500Y-99322D01*
X118500Y-99314D01*
X118600Y-99314D01*
X118600Y-99322D01*
X119623Y-99322D01*
X119685Y-99259D01*
X119685Y-99028D01*
X119685Y-98928D01*
X119647Y-98836D01*
X119577Y-98766D01*
X119556Y-98758D01*
X119556Y-98009D01*
X119538Y-97965D01*
X119504Y-97931D01*
X119459Y-97913D01*
X119411Y-97912D01*
X118706Y-97912D01*
X118706Y-97614D01*
X118814Y-97506D01*
X129085Y-97506D01*
X129193Y-97614D01*
X129193Y-98400D01*
X129205Y-98459D01*
X129239Y-98510D01*
X129474Y-98745D01*
X126248Y-98745D01*
X126188Y-98757D01*
X126137Y-98791D01*
X125718Y-99210D01*
X125566Y-99210D01*
X125566Y-99035D01*
X125587Y-99027D01*
X125657Y-98957D01*
X125695Y-98865D01*
X125695Y-98765D01*
X125695Y-98077D01*
X125695Y-97977D01*
X125657Y-97886D01*
X125587Y-97815D01*
X125495Y-97777D01*
X124672Y-97777D01*
X124610Y-97840D01*
X124610Y-98371D01*
X125633Y-98371D01*
X125695Y-98309D01*
X125695Y-98077D01*
X125695Y-98765D01*
X125695Y-98534D01*
X125633Y-98471D01*
X124610Y-98471D01*
X124610Y-98479D01*
X124510Y-98479D01*
X124510Y-98471D01*
X124510Y-98371D01*
X124510Y-97840D01*
X124447Y-97777D01*
X123624Y-97777D01*
X123532Y-97815D01*
X123462Y-97886D01*
X123424Y-97977D01*
X123424Y-98077D01*
X123424Y-98309D01*
X123486Y-98371D01*
X124510Y-98371D01*
X124510Y-98471D01*
X123486Y-98471D01*
X123424Y-98534D01*
X123424Y-98765D01*
X123424Y-98865D01*
X123462Y-98957D01*
X123532Y-99027D01*
X123553Y-99035D01*
X123553Y-99784D01*
X123571Y-99828D01*
X123605Y-99862D01*
X123650Y-99880D01*
X123698Y-99881D01*
X125469Y-99881D01*
X125514Y-99862D01*
X125548Y-99828D01*
X125566Y-99784D01*
X125566Y-99736D01*
X125566Y-99522D01*
X125783Y-99522D01*
X125783Y-99522D01*
X125843Y-99510D01*
X125894Y-99476D01*
X126312Y-99058D01*
X126620Y-99058D01*
X125385Y-100293D01*
X122300Y-100293D01*
X122240Y-100305D01*
X122223Y-100316D01*
X122189Y-100339D01*
X121921Y-100607D01*
X121888Y-100657D01*
X121876Y-100717D01*
X121876Y-100887D01*
X121701Y-100887D01*
X121693Y-100866D01*
X121622Y-100796D01*
X121530Y-100758D01*
X121200Y-100758D01*
X121137Y-100820D01*
X121137Y-101844D01*
X121145Y-101844D01*
X121145Y-101944D01*
X121137Y-101944D01*
X121137Y-102967D01*
X121200Y-103029D01*
X121530Y-103029D01*
X121622Y-102991D01*
X121693Y-102921D01*
X121701Y-102900D01*
X122450Y-102900D01*
X122494Y-102882D01*
X122528Y-102848D01*
X122546Y-102803D01*
X122547Y-102755D01*
X122547Y-100984D01*
X122528Y-100939D01*
X122494Y-100905D01*
X122450Y-100887D01*
X122402Y-100887D01*
X122188Y-100887D01*
X122188Y-100782D01*
X122364Y-100606D01*
X125450Y-100606D01*
X125450Y-100606D01*
X125509Y-100594D01*
X125560Y-100560D01*
X126866Y-99255D01*
X130123Y-99255D01*
X129539Y-99839D01*
X129505Y-99890D01*
X129493Y-99950D01*
X129493Y-101185D01*
X129232Y-101185D01*
X129187Y-101203D01*
X129153Y-101237D01*
X129135Y-101282D01*
X129135Y-101330D01*
X129135Y-101543D01*
X128164Y-101543D01*
X128164Y-101282D01*
X128146Y-101237D01*
X128112Y-101203D01*
X128067Y-101185D01*
X128019Y-101185D01*
X127232Y-101185D01*
X127187Y-101203D01*
X127153Y-101237D01*
X127135Y-101282D01*
X127135Y-101330D01*
X127135Y-102117D01*
X127153Y-102162D01*
X127187Y-102196D01*
X127232Y-102214D01*
X127280Y-102214D01*
X128067Y-102214D01*
X128112Y-102196D01*
X128146Y-102162D01*
X128164Y-102117D01*
X128164Y-102069D01*
X128164Y-101856D01*
X129135Y-101856D01*
X129135Y-102117D01*
X129153Y-102162D01*
X129187Y-102196D01*
X129232Y-102214D01*
X129280Y-102214D01*
X130067Y-102214D01*
X130112Y-102196D01*
X130146Y-102162D01*
X130164Y-102117D01*
X130164Y-102069D01*
X130164Y-101282D01*
X130146Y-101237D01*
X130112Y-101203D01*
X130067Y-101185D01*
X130019Y-101185D01*
X129806Y-101185D01*
X129806Y-100014D01*
X130369Y-99451D01*
X133101Y-99451D01*
X133101Y-99461D01*
X133101Y-99552D01*
X133057Y-99533D01*
X132958Y-99533D01*
X132972Y-99533D01*
X132910Y-99596D01*
X132910Y-99969D01*
X132917Y-99969D01*
X132917Y-100069D01*
X132910Y-100069D01*
X132910Y-100077D01*
X132810Y-100077D01*
X132810Y-100069D01*
X132810Y-99969D01*
X132810Y-99596D01*
X132747Y-99533D01*
X132761Y-99533D01*
X132662Y-99533D01*
X132570Y-99571D01*
X132500Y-99642D01*
X132462Y-99734D01*
X132462Y-99907D01*
X132524Y-99969D01*
X132810Y-99969D01*
X132810Y-100069D01*
X132524Y-100069D01*
X132462Y-100132D01*
X132462Y-100305D01*
X132500Y-100397D01*
X132570Y-100468D01*
X132602Y-100481D01*
X132591Y-100507D01*
X132591Y-100555D01*
X132591Y-101028D01*
X132609Y-101072D01*
X132643Y-101106D01*
X132688Y-101125D01*
X132736Y-101125D01*
X133031Y-101125D01*
X133076Y-101106D01*
X133110Y-101072D01*
X133128Y-101028D01*
X133128Y-100980D01*
X133128Y-100720D01*
X133143Y-100705D01*
X133154Y-100716D01*
X133198Y-100735D01*
X133246Y-100735D01*
X133318Y-100735D01*
X133311Y-100752D01*
X133310Y-100847D01*
X133347Y-100935D01*
X133414Y-101002D01*
X133502Y-101038D01*
X133597Y-101039D01*
X133685Y-101002D01*
X133752Y-100935D01*
X133788Y-100847D01*
X133789Y-100752D01*
X133781Y-100735D01*
X133837Y-100735D01*
X133881Y-100716D01*
X133915Y-100683D01*
X133919Y-100672D01*
X134633Y-100672D01*
X134633Y-100672D01*
X134693Y-100660D01*
X134744Y-100626D01*
X134878Y-100492D01*
X134878Y-100492D01*
X134901Y-100458D01*
X134912Y-100441D01*
X134912Y-100441D01*
X134924Y-100382D01*
X134924Y-100382D01*
X134924Y-98147D01*
X134937Y-98134D01*
X134937Y-97987D01*
X134943Y-97971D01*
X134943Y-97923D01*
X134943Y-97383D01*
X134985Y-97383D01*
X134985Y-97971D01*
X134992Y-97987D01*
X134992Y-98134D01*
X135005Y-98147D01*
X135005Y-98161D01*
X135012Y-98198D01*
X135011Y-98202D01*
X135010Y-98297D01*
X135047Y-98385D01*
X135114Y-98452D01*
X135202Y-98488D01*
X135297Y-98489D01*
X135385Y-98452D01*
X135452Y-98385D01*
X135488Y-98297D01*
X135489Y-98202D01*
X135452Y-98114D01*
X135406Y-98068D01*
X135437Y-98068D01*
X135456Y-98060D01*
X135476Y-98067D01*
X135524Y-98068D01*
X135634Y-98068D01*
X135653Y-98060D01*
X135672Y-98067D01*
X135720Y-98068D01*
X135831Y-98068D01*
X135850Y-98060D01*
X135869Y-98067D01*
X135917Y-98068D01*
X136028Y-98068D01*
X136047Y-98060D01*
X136066Y-98067D01*
X136114Y-98068D01*
X136224Y-98068D01*
X136242Y-98060D01*
X136259Y-98067D01*
X136307Y-98068D01*
X136504Y-98068D01*
X136548Y-98049D01*
X136582Y-98015D01*
X136601Y-97971D01*
X136601Y-97923D01*
X136601Y-97332D01*
X136582Y-97288D01*
X136549Y-97254D01*
X136504Y-97235D01*
X136456Y-97235D01*
X136302Y-97235D01*
X136302Y-96868D01*
X136314Y-96856D01*
X137700Y-96856D01*
X137700Y-96856D01*
X137759Y-96844D01*
X137810Y-96810D01*
X137910Y-96710D01*
X137910Y-96710D01*
X137944Y-96659D01*
X137944Y-96659D01*
X137946Y-96649D01*
X137956Y-96600D01*
X137956Y-96600D01*
X137956Y-96314D01*
X138217Y-96314D01*
X138262Y-96296D01*
X138296Y-96262D01*
X138314Y-96217D01*
X138314Y-96169D01*
X138314Y-95956D01*
X139285Y-95956D01*
X139285Y-96217D01*
X139303Y-96262D01*
X139337Y-96296D01*
X139382Y-96314D01*
X139430Y-96314D01*
X140217Y-96314D01*
X140262Y-96296D01*
X140296Y-96262D01*
X140314Y-96217D01*
X140314Y-96169D01*
X140314Y-98693D01*
X138194Y-98693D01*
X138252Y-98635D01*
X138288Y-98547D01*
X138289Y-98452D01*
X138252Y-98364D01*
X138185Y-98297D01*
X138097Y-98261D01*
X138032Y-98261D01*
X137982Y-98211D01*
X137931Y-98177D01*
X137878Y-98166D01*
X137878Y-98061D01*
X137860Y-98017D01*
X137826Y-97983D01*
X137781Y-97964D01*
X137733Y-97964D01*
X137438Y-97964D01*
X137393Y-97983D01*
X137359Y-98017D01*
X137341Y-98061D01*
X137321Y-98052D01*
X137273Y-98052D01*
X136682Y-98052D01*
X136638Y-98071D01*
X136604Y-98104D01*
X136586Y-98149D01*
X136585Y-98197D01*
X136585Y-98232D01*
X136565Y-98241D01*
X136494Y-98311D01*
X136456Y-98403D01*
X136456Y-98418D01*
X136519Y-98480D01*
X136657Y-98480D01*
X136682Y-98491D01*
X136730Y-98491D01*
X137060Y-98491D01*
X137060Y-98529D01*
X136682Y-98529D01*
X136666Y-98535D01*
X136519Y-98535D01*
X136456Y-98598D01*
X136456Y-98612D01*
X136494Y-98704D01*
X136565Y-98775D01*
X136585Y-98783D01*
X136585Y-98784D01*
X136593Y-98803D01*
X136586Y-98822D01*
X136586Y-98823D01*
X136565Y-98831D01*
X136494Y-98902D01*
X136456Y-98994D01*
X136456Y-99008D01*
X136519Y-99071D01*
X136666Y-99071D01*
X136682Y-99077D01*
X136730Y-99077D01*
X137212Y-99077D01*
X137212Y-99119D01*
X136682Y-99119D01*
X136666Y-99126D01*
X136519Y-99126D01*
X136456Y-99188D01*
X136456Y-99203D01*
X136494Y-99295D01*
X136565Y-99365D01*
X136585Y-99374D01*
X136585Y-99374D01*
X136593Y-99393D01*
X136586Y-99413D01*
X136585Y-99461D01*
X136585Y-99571D01*
X136593Y-99590D01*
X136586Y-99610D01*
X136585Y-99658D01*
X136585Y-99768D01*
X136593Y-99787D01*
X136586Y-99806D01*
X136585Y-99854D01*
X136585Y-99965D01*
X136593Y-99984D01*
X136586Y-100003D01*
X136585Y-100051D01*
X136585Y-100162D01*
X136593Y-100181D01*
X136586Y-100200D01*
X136585Y-100248D01*
X136585Y-100358D01*
X136593Y-100376D01*
X136586Y-100393D01*
X136585Y-100441D01*
X136585Y-100638D01*
X136604Y-100682D01*
X136638Y-100716D01*
X136682Y-100735D01*
X136730Y-100735D01*
X137321Y-100735D01*
X137365Y-100716D01*
X137399Y-100683D01*
X137404Y-100672D01*
X141844Y-100672D01*
X141811Y-100752D01*
X141810Y-100847D01*
X141847Y-100935D01*
X141914Y-101002D01*
X142002Y-101038D01*
X142097Y-101039D01*
X142185Y-101002D01*
X142231Y-100956D01*
X144500Y-100956D01*
X144600Y-100956D01*
X144935Y-100956D01*
X147589Y-103610D01*
X147589Y-103610D01*
X147623Y-103633D01*
X147640Y-103644D01*
X147640Y-103644D01*
X147666Y-103649D01*
X145814Y-103649D01*
X145814Y-102546D01*
X145810Y-102487D01*
X145810Y-102487D01*
X145777Y-102368D01*
X145751Y-102316D01*
X145751Y-102316D01*
X145676Y-102218D01*
X145631Y-102180D01*
X145631Y-102180D01*
X145524Y-102119D01*
X145468Y-102100D01*
X145468Y-102100D01*
X145346Y-102085D01*
X145287Y-102089D01*
X145287Y-102089D01*
X145168Y-102122D01*
X145116Y-102148D01*
X145116Y-102148D01*
X145018Y-102223D01*
X144980Y-102268D01*
X144980Y-102268D01*
X144919Y-102375D01*
X144900Y-102431D01*
X144900Y-102431D01*
X144885Y-102553D01*
X144889Y-102612D01*
X144922Y-102731D01*
X144948Y-102783D01*
X144948Y-102783D01*
X145023Y-102881D01*
X145068Y-102919D01*
X145068Y-102919D01*
X145175Y-102980D01*
X145231Y-102999D01*
X145231Y-102999D01*
X145353Y-103014D01*
X145412Y-103010D01*
X145412Y-103010D01*
X145531Y-102977D01*
X145583Y-102951D01*
X145583Y-102951D01*
X145681Y-102876D01*
X145719Y-102831D01*
X145719Y-102831D01*
X145780Y-102724D01*
X145799Y-102668D01*
X145799Y-102668D01*
X145814Y-102546D01*
X145814Y-103649D01*
X144747Y-103649D01*
X144747Y-103259D01*
X144747Y-103086D01*
X144685Y-103024D01*
X144400Y-103024D01*
X144400Y-103397D01*
X144462Y-103460D01*
X144448Y-103460D01*
X144547Y-103460D01*
X144639Y-103422D01*
X144709Y-103351D01*
X144747Y-103259D01*
X144747Y-103649D01*
X144041Y-103649D01*
X144043Y-103643D01*
X144043Y-103544D01*
X144043Y-103405D01*
X144060Y-103422D01*
X144152Y-103460D01*
X144251Y-103460D01*
X144237Y-103460D01*
X144300Y-103397D01*
X144300Y-103024D01*
X144292Y-103024D01*
X144292Y-102924D01*
X144300Y-102924D01*
X144300Y-102916D01*
X144400Y-102916D01*
X144400Y-102924D01*
X144685Y-102924D01*
X144747Y-102861D01*
X144747Y-102688D01*
X144709Y-102596D01*
X144639Y-102525D01*
X144607Y-102512D01*
X144618Y-102486D01*
X144618Y-102438D01*
X144618Y-101965D01*
X144600Y-101921D01*
X144566Y-101887D01*
X144521Y-101868D01*
X144473Y-101868D01*
X144203Y-101868D01*
X144183Y-101855D01*
X144124Y-101843D01*
X143914Y-101843D01*
X143914Y-101582D01*
X143896Y-101537D01*
X143862Y-101503D01*
X143817Y-101485D01*
X143769Y-101485D01*
X142982Y-101485D01*
X142937Y-101503D01*
X142903Y-101537D01*
X142885Y-101582D01*
X142885Y-101630D01*
X142885Y-101843D01*
X142581Y-101843D01*
X142535Y-101797D01*
X142447Y-101761D01*
X142352Y-101760D01*
X142264Y-101797D01*
X142218Y-101843D01*
X141914Y-101843D01*
X141914Y-101582D01*
X141896Y-101537D01*
X141862Y-101503D01*
X141817Y-101485D01*
X141769Y-101485D01*
X141580Y-101485D01*
X141580Y-101318D01*
X141684Y-101318D01*
X141728Y-101300D01*
X141762Y-101266D01*
X141781Y-101221D01*
X141781Y-101173D01*
X141781Y-100878D01*
X141762Y-100833D01*
X141728Y-100799D01*
X141684Y-100781D01*
X141636Y-100781D01*
X141163Y-100781D01*
X141119Y-100799D01*
X141085Y-100833D01*
X141066Y-100878D01*
X141066Y-100926D01*
X141066Y-101221D01*
X141085Y-101266D01*
X141119Y-101300D01*
X141163Y-101318D01*
X141211Y-101318D01*
X141267Y-101318D01*
X141267Y-101485D01*
X141033Y-101485D01*
X140982Y-101485D01*
X140937Y-101503D01*
X140903Y-101537D01*
X140885Y-101582D01*
X140885Y-101630D01*
X140885Y-102417D01*
X140903Y-102462D01*
X140937Y-102496D01*
X140982Y-102514D01*
X141030Y-102514D01*
X141817Y-102514D01*
X141862Y-102496D01*
X141896Y-102462D01*
X141914Y-102417D01*
X141914Y-102369D01*
X141914Y-102156D01*
X142218Y-102156D01*
X142264Y-102202D01*
X142352Y-102238D01*
X142447Y-102239D01*
X142535Y-102202D01*
X142581Y-102156D01*
X142885Y-102156D01*
X142885Y-102417D01*
X142903Y-102462D01*
X142937Y-102496D01*
X142982Y-102514D01*
X143030Y-102514D01*
X143817Y-102514D01*
X143862Y-102496D01*
X143896Y-102462D01*
X143914Y-102417D01*
X143914Y-102369D01*
X143914Y-102156D01*
X144059Y-102156D01*
X144081Y-102178D01*
X144081Y-102486D01*
X144092Y-102512D01*
X144060Y-102525D01*
X143990Y-102596D01*
X143974Y-102633D01*
X143935Y-102594D01*
X143843Y-102556D01*
X143512Y-102556D01*
X143450Y-102618D01*
X143450Y-103150D01*
X143457Y-103150D01*
X143457Y-103250D01*
X143450Y-103250D01*
X143450Y-103257D01*
X143350Y-103257D01*
X143350Y-103250D01*
X143350Y-103150D01*
X143350Y-102618D01*
X143287Y-102556D01*
X142956Y-102556D01*
X142864Y-102594D01*
X142794Y-102664D01*
X142756Y-102756D01*
X142756Y-102855D01*
X142756Y-103087D01*
X142818Y-103150D01*
X143350Y-103150D01*
X143350Y-103250D01*
X142818Y-103250D01*
X142756Y-103312D01*
X142756Y-103544D01*
X142756Y-103643D01*
X142758Y-103649D01*
X142041Y-103649D01*
X142043Y-103643D01*
X142043Y-103544D01*
X142043Y-102855D01*
X142043Y-102756D01*
X142005Y-102664D01*
X141935Y-102594D01*
X141843Y-102556D01*
X141512Y-102556D01*
X141450Y-102618D01*
X141450Y-103150D01*
X141981Y-103150D01*
X142043Y-103087D01*
X142043Y-102855D01*
X142043Y-103544D01*
X142043Y-103312D01*
X141981Y-103250D01*
X141450Y-103250D01*
X141450Y-103257D01*
X141350Y-103257D01*
X141350Y-103250D01*
X141350Y-103150D01*
X141350Y-102618D01*
X141287Y-102556D01*
X140956Y-102556D01*
X140864Y-102594D01*
X140794Y-102664D01*
X140756Y-102756D01*
X140756Y-102855D01*
X140756Y-103087D01*
X140818Y-103150D01*
X141350Y-103150D01*
X141350Y-103250D01*
X140818Y-103250D01*
X140756Y-103312D01*
X140756Y-103544D01*
X140756Y-103643D01*
X140758Y-103649D01*
X140641Y-103649D01*
X140643Y-103643D01*
X140643Y-103544D01*
X140643Y-102855D01*
X140643Y-102756D01*
X140605Y-102664D01*
X140535Y-102594D01*
X140443Y-102556D01*
X140112Y-102556D01*
X140050Y-102618D01*
X140050Y-103150D01*
X140581Y-103150D01*
X140643Y-103087D01*
X140643Y-102855D01*
X140643Y-103544D01*
X140643Y-103312D01*
X140581Y-103250D01*
X140050Y-103250D01*
X140050Y-103257D01*
X139950Y-103257D01*
X139950Y-103250D01*
X139950Y-103150D01*
X139950Y-102618D01*
X139887Y-102556D01*
X139556Y-102556D01*
X139464Y-102594D01*
X139394Y-102664D01*
X139356Y-102756D01*
X139356Y-102855D01*
X139356Y-103087D01*
X139418Y-103150D01*
X139950Y-103150D01*
X139950Y-103250D01*
X139418Y-103250D01*
X139356Y-103312D01*
X139356Y-103544D01*
X139356Y-103643D01*
X139358Y-103649D01*
X138641Y-103649D01*
X138643Y-103643D01*
X138643Y-103544D01*
X138643Y-102855D01*
X138643Y-102756D01*
X138605Y-102664D01*
X138535Y-102594D01*
X138443Y-102556D01*
X138112Y-102556D01*
X138050Y-102618D01*
X138050Y-103150D01*
X138581Y-103150D01*
X138643Y-103087D01*
X138643Y-102855D01*
X138643Y-103544D01*
X138643Y-103312D01*
X138581Y-103250D01*
X138050Y-103250D01*
X138050Y-103257D01*
X137950Y-103257D01*
X137950Y-103250D01*
X137950Y-103150D01*
X137950Y-102618D01*
X137887Y-102556D01*
X137556Y-102556D01*
X137464Y-102594D01*
X137394Y-102664D01*
X137356Y-102756D01*
X137356Y-102855D01*
X137356Y-103087D01*
X137418Y-103150D01*
X137950Y-103150D01*
X137950Y-103250D01*
X137418Y-103250D01*
X137356Y-103312D01*
X137356Y-103544D01*
X137356Y-103643D01*
X137358Y-103649D01*
X134721Y-103649D01*
X135643Y-102727D01*
X135672Y-102831D01*
X135698Y-102883D01*
X135698Y-102883D01*
X135773Y-102981D01*
X135818Y-103019D01*
X135818Y-103019D01*
X135925Y-103080D01*
X135981Y-103099D01*
X135981Y-103099D01*
X136103Y-103114D01*
X136162Y-103110D01*
X136162Y-103110D01*
X136281Y-103077D01*
X136333Y-103051D01*
X136333Y-103051D01*
X136431Y-102976D01*
X136469Y-102931D01*
X136469Y-102931D01*
X136530Y-102824D01*
X136549Y-102768D01*
X136549Y-102768D01*
X136564Y-102646D01*
X136560Y-102587D01*
X136560Y-102587D01*
X136527Y-102468D01*
X136501Y-102416D01*
X136501Y-102416D01*
X136426Y-102318D01*
X136381Y-102280D01*
X136381Y-102280D01*
X136274Y-102219D01*
X136218Y-102200D01*
X136218Y-102200D01*
X136175Y-102195D01*
X136175Y-102135D01*
X136238Y-102197D01*
X136411Y-102197D01*
X136503Y-102159D01*
X136574Y-102089D01*
X136587Y-102057D01*
X136613Y-102068D01*
X136661Y-102068D01*
X137134Y-102068D01*
X137178Y-102050D01*
X137195Y-102033D01*
X137214Y-102052D01*
X137302Y-102088D01*
X137397Y-102089D01*
X137485Y-102052D01*
X137485Y-102052D01*
X137485Y-102417D01*
X137503Y-102462D01*
X137537Y-102496D01*
X137582Y-102514D01*
X137630Y-102514D01*
X138417Y-102514D01*
X138462Y-102496D01*
X138496Y-102462D01*
X138514Y-102417D01*
X138514Y-102369D01*
X138514Y-102156D01*
X138768Y-102156D01*
X138814Y-102202D01*
X138902Y-102238D01*
X138997Y-102239D01*
X139085Y-102202D01*
X139131Y-102156D01*
X139485Y-102156D01*
X139485Y-102417D01*
X139503Y-102462D01*
X139537Y-102496D01*
X139582Y-102514D01*
X139630Y-102514D01*
X140417Y-102514D01*
X140462Y-102496D01*
X140496Y-102462D01*
X140514Y-102417D01*
X140514Y-102369D01*
X140514Y-101582D01*
X140496Y-101537D01*
X140462Y-101503D01*
X140417Y-101485D01*
X140369Y-101485D01*
X139582Y-101485D01*
X139537Y-101503D01*
X139503Y-101537D01*
X139485Y-101582D01*
X139485Y-101630D01*
X139485Y-101843D01*
X139131Y-101843D01*
X139085Y-101797D01*
X138997Y-101761D01*
X138902Y-101760D01*
X138814Y-101797D01*
X138768Y-101843D01*
X138514Y-101843D01*
X138514Y-101582D01*
X138496Y-101537D01*
X138462Y-101503D01*
X138417Y-101485D01*
X138369Y-101485D01*
X137582Y-101485D01*
X137537Y-101503D01*
X137503Y-101537D01*
X137485Y-101582D01*
X137485Y-101630D01*
X137485Y-101647D01*
X137397Y-101611D01*
X137302Y-101610D01*
X137231Y-101640D01*
X137231Y-101628D01*
X137212Y-101583D01*
X137178Y-101549D01*
X137134Y-101531D01*
X137086Y-101531D01*
X136904Y-101531D01*
X136665Y-101292D01*
X140363Y-101292D01*
X140371Y-101300D01*
X140415Y-101318D01*
X140463Y-101318D01*
X140936Y-101318D01*
X140980Y-101300D01*
X141014Y-101266D01*
X141033Y-101221D01*
X141033Y-101173D01*
X141033Y-100878D01*
X141014Y-100833D01*
X140980Y-100799D01*
X140936Y-100781D01*
X140888Y-100781D01*
X140415Y-100781D01*
X140371Y-100799D01*
X140337Y-100833D01*
X140318Y-100878D01*
X140318Y-100926D01*
X140318Y-100979D01*
X136601Y-100979D01*
X136601Y-100816D01*
X136582Y-100772D01*
X136549Y-100738D01*
X136504Y-100720D01*
X136456Y-100719D01*
X136421Y-100719D01*
X136412Y-100699D01*
X136342Y-100628D01*
X136250Y-100590D01*
X136235Y-100590D01*
X136173Y-100653D01*
X136173Y-100791D01*
X136162Y-100816D01*
X136162Y-100864D01*
X136162Y-101455D01*
X136173Y-101481D01*
X136173Y-101618D01*
X136175Y-101621D01*
X136175Y-101750D01*
X136183Y-101750D01*
X136183Y-101850D01*
X136175Y-101850D01*
X136175Y-101857D01*
X136075Y-101857D01*
X136075Y-101850D01*
X136068Y-101850D01*
X136068Y-101750D01*
X136075Y-101750D01*
X136075Y-101661D01*
X136118Y-101618D01*
X136118Y-101471D01*
X136124Y-101455D01*
X136124Y-101407D01*
X136124Y-100816D01*
X136118Y-100800D01*
X136118Y-100653D01*
X136116Y-100651D01*
X136138Y-100597D01*
X136139Y-100502D01*
X136102Y-100414D01*
X136035Y-100347D01*
X135947Y-100311D01*
X135852Y-100310D01*
X135764Y-100347D01*
X135697Y-100414D01*
X135661Y-100502D01*
X135660Y-100597D01*
X135697Y-100685D01*
X135731Y-100719D01*
X135673Y-100719D01*
X135653Y-100727D01*
X135634Y-100720D01*
X135586Y-100719D01*
X135476Y-100719D01*
X135456Y-100727D01*
X135437Y-100720D01*
X135389Y-100719D01*
X135279Y-100719D01*
X135260Y-100727D01*
X135240Y-100720D01*
X135192Y-100719D01*
X135082Y-100719D01*
X135063Y-100727D01*
X135043Y-100720D01*
X134995Y-100719D01*
X134943Y-100719D01*
X134885Y-100719D01*
X134866Y-100727D01*
X134847Y-100720D01*
X134799Y-100719D01*
X134688Y-100719D01*
X134669Y-100727D01*
X134650Y-100720D01*
X134602Y-100719D01*
X134491Y-100719D01*
X134472Y-100727D01*
X134453Y-100720D01*
X134405Y-100719D01*
X134295Y-100719D01*
X134277Y-100727D01*
X134260Y-100720D01*
X134212Y-100719D01*
X134015Y-100719D01*
X133971Y-100738D01*
X133937Y-100772D01*
X133918Y-100816D01*
X133918Y-100864D01*
X133918Y-101455D01*
X133937Y-101499D01*
X133970Y-101533D01*
X133994Y-101543D01*
X133514Y-101543D01*
X133514Y-101282D01*
X133496Y-101237D01*
X133462Y-101203D01*
X133417Y-101185D01*
X133369Y-101185D01*
X132582Y-101185D01*
X132537Y-101203D01*
X132503Y-101237D01*
X132485Y-101282D01*
X132485Y-101330D01*
X132485Y-101543D01*
X131514Y-101543D01*
X131514Y-101282D01*
X131496Y-101237D01*
X131462Y-101203D01*
X131417Y-101185D01*
X131369Y-101185D01*
X130582Y-101185D01*
X130537Y-101203D01*
X130503Y-101237D01*
X130485Y-101282D01*
X130485Y-101330D01*
X130485Y-102117D01*
X130503Y-102162D01*
X130537Y-102196D01*
X130582Y-102214D01*
X130630Y-102214D01*
X131417Y-102214D01*
X131462Y-102196D01*
X131496Y-102162D01*
X131514Y-102117D01*
X131514Y-102069D01*
X131514Y-101856D01*
X132485Y-101856D01*
X132485Y-102117D01*
X132503Y-102162D01*
X132537Y-102196D01*
X132582Y-102214D01*
X132630Y-102214D01*
X133417Y-102214D01*
X133462Y-102196D01*
X133496Y-102162D01*
X133514Y-102117D01*
X133514Y-102069D01*
X133514Y-101856D01*
X134900Y-101856D01*
X134900Y-101856D01*
X134959Y-101844D01*
X135010Y-101810D01*
X135075Y-101745D01*
X135075Y-101745D01*
X135097Y-101711D01*
X135109Y-101695D01*
X135109Y-101695D01*
X135121Y-101635D01*
X135121Y-101635D01*
X135121Y-101552D01*
X135130Y-101552D01*
X135202Y-101552D01*
X135202Y-101981D01*
X135164Y-101997D01*
X135097Y-102064D01*
X135061Y-102152D01*
X135060Y-102247D01*
X135097Y-102335D01*
X135164Y-102402D01*
X135252Y-102438D01*
X135289Y-102438D01*
X134385Y-103343D01*
X133643Y-103343D01*
X133643Y-103343D01*
X133643Y-103244D01*
X133643Y-102555D01*
X133643Y-102456D01*
X133605Y-102364D01*
X133535Y-102294D01*
X133443Y-102256D01*
X133112Y-102256D01*
X133050Y-102318D01*
X133050Y-102850D01*
X133581Y-102850D01*
X133643Y-102787D01*
X133643Y-102555D01*
X133643Y-103244D01*
X133643Y-103012D01*
X133581Y-102950D01*
X133050Y-102950D01*
X133050Y-102957D01*
X132950Y-102957D01*
X132950Y-102950D01*
X132950Y-102850D01*
X132950Y-102318D01*
X132887Y-102256D01*
X132556Y-102256D01*
X132464Y-102294D01*
X132394Y-102364D01*
X132356Y-102456D01*
X132356Y-102555D01*
X132356Y-102787D01*
X132418Y-102850D01*
X132950Y-102850D01*
X132950Y-102950D01*
X132418Y-102950D01*
X132356Y-103012D01*
X132356Y-103244D01*
X132356Y-103343D01*
X132356Y-103343D01*
X131643Y-103343D01*
X131643Y-103343D01*
X131643Y-103244D01*
X131643Y-102555D01*
X131643Y-102456D01*
X131605Y-102364D01*
X131535Y-102294D01*
X131443Y-102256D01*
X131112Y-102256D01*
X131050Y-102318D01*
X131050Y-102850D01*
X131581Y-102850D01*
X131643Y-102787D01*
X131643Y-102555D01*
X131643Y-103244D01*
X131643Y-103012D01*
X131581Y-102950D01*
X131050Y-102950D01*
X131050Y-102957D01*
X130950Y-102957D01*
X130950Y-102950D01*
X130950Y-102850D01*
X130950Y-102318D01*
X130887Y-102256D01*
X130556Y-102256D01*
X130464Y-102294D01*
X130394Y-102364D01*
X130356Y-102456D01*
X130356Y-102555D01*
X130356Y-102787D01*
X130418Y-102850D01*
X130950Y-102850D01*
X130950Y-102950D01*
X130418Y-102950D01*
X130356Y-103012D01*
X130356Y-103244D01*
X130356Y-103343D01*
X130356Y-103343D01*
X130293Y-103343D01*
X130293Y-103343D01*
X130293Y-103244D01*
X130293Y-102555D01*
X130293Y-102456D01*
X130255Y-102364D01*
X130185Y-102294D01*
X130093Y-102256D01*
X129762Y-102256D01*
X129700Y-102318D01*
X129700Y-102850D01*
X130231Y-102850D01*
X130293Y-102787D01*
X130293Y-102555D01*
X130293Y-103244D01*
X130293Y-103012D01*
X130231Y-102950D01*
X129700Y-102950D01*
X129700Y-102957D01*
X129600Y-102957D01*
X129600Y-102950D01*
X129600Y-102850D01*
X129600Y-102318D01*
X129537Y-102256D01*
X129206Y-102256D01*
X129114Y-102294D01*
X129044Y-102364D01*
X129006Y-102456D01*
X129006Y-102555D01*
X129006Y-102787D01*
X129068Y-102850D01*
X129600Y-102850D01*
X129600Y-102950D01*
X129068Y-102950D01*
X129006Y-103012D01*
X129006Y-103244D01*
X129006Y-103343D01*
X129006Y-103343D01*
X128293Y-103343D01*
X128293Y-103343D01*
X128293Y-103244D01*
X128293Y-102555D01*
X128293Y-102456D01*
X128255Y-102364D01*
X128185Y-102294D01*
X128093Y-102256D01*
X127762Y-102256D01*
X127700Y-102318D01*
X127700Y-102850D01*
X128231Y-102850D01*
X128293Y-102787D01*
X128293Y-102555D01*
X128293Y-103244D01*
X128293Y-103012D01*
X128231Y-102950D01*
X127700Y-102950D01*
X127700Y-102957D01*
X127600Y-102957D01*
X127600Y-102950D01*
X127600Y-102850D01*
X127600Y-102318D01*
X127537Y-102256D01*
X127206Y-102256D01*
X127114Y-102294D01*
X127044Y-102364D01*
X127006Y-102456D01*
X127006Y-102555D01*
X127006Y-102787D01*
X127068Y-102850D01*
X127600Y-102850D01*
X127600Y-102950D01*
X127068Y-102950D01*
X127006Y-103012D01*
X127006Y-103244D01*
X127006Y-103343D01*
X127006Y-103343D01*
X125664Y-103343D01*
X125664Y-102496D01*
X125660Y-102437D01*
X125660Y-102437D01*
X125627Y-102318D01*
X125601Y-102266D01*
X125601Y-102266D01*
X125526Y-102168D01*
X125481Y-102130D01*
X125481Y-102130D01*
X125374Y-102069D01*
X125318Y-102050D01*
X125318Y-102050D01*
X125196Y-102035D01*
X125137Y-102039D01*
X125137Y-102039D01*
X125018Y-102072D01*
X124966Y-102098D01*
X124966Y-102098D01*
X124868Y-102173D01*
X124830Y-102218D01*
X124830Y-102218D01*
X124769Y-102325D01*
X124750Y-102381D01*
X124750Y-102381D01*
X124735Y-102503D01*
X124739Y-102562D01*
X124772Y-102681D01*
X124798Y-102733D01*
X124798Y-102733D01*
X124873Y-102831D01*
X124918Y-102869D01*
X124918Y-102869D01*
X125025Y-102930D01*
X125081Y-102949D01*
X125081Y-102949D01*
X125203Y-102964D01*
X125262Y-102960D01*
X125262Y-102960D01*
X125381Y-102927D01*
X125433Y-102901D01*
X125433Y-102901D01*
X125531Y-102826D01*
X125569Y-102781D01*
X125569Y-102781D01*
X125630Y-102674D01*
X125649Y-102618D01*
X125649Y-102618D01*
X125664Y-102496D01*
X125664Y-103343D01*
X121037Y-103343D01*
X121037Y-102967D01*
X121037Y-101944D01*
X121037Y-101844D01*
X121037Y-100820D01*
X120975Y-100758D01*
X120644Y-100758D01*
X120552Y-100796D01*
X120482Y-100866D01*
X120443Y-100958D01*
X120443Y-101057D01*
X120443Y-101781D01*
X120506Y-101844D01*
X121037Y-101844D01*
X121037Y-101944D01*
X120506Y-101944D01*
X120443Y-102006D01*
X120443Y-102730D01*
X120443Y-102829D01*
X120482Y-102921D01*
X120552Y-102991D01*
X120644Y-103029D01*
X120975Y-103029D01*
X121037Y-102967D01*
X121037Y-103343D01*
X120014Y-103343D01*
X119685Y-103014D01*
X119685Y-99716D01*
X119685Y-99484D01*
X119623Y-99422D01*
X118600Y-99422D01*
X118600Y-99953D01*
X118662Y-100016D01*
X119485Y-100016D01*
X119577Y-99978D01*
X119647Y-99907D01*
X119685Y-99816D01*
X119685Y-99716D01*
X119685Y-103014D01*
X118500Y-101828D01*
X118500Y-99953D01*
X118500Y-99422D01*
X117476Y-99422D01*
X117414Y-99484D01*
X117414Y-99716D01*
X117414Y-99816D01*
X117452Y-99907D01*
X117522Y-99978D01*
X117614Y-100016D01*
X118437Y-100016D01*
X118500Y-99953D01*
X118500Y-101828D01*
X115718Y-99047D01*
X115738Y-98997D01*
X115739Y-98902D01*
X115702Y-98814D01*
X115635Y-98747D01*
X115547Y-98711D01*
X115452Y-98710D01*
X115364Y-98747D01*
X115297Y-98814D01*
X115264Y-98893D01*
X115043Y-98672D01*
X115043Y-96144D01*
X115043Y-95455D01*
X115043Y-95356D01*
X115005Y-95264D01*
X114935Y-95194D01*
X114843Y-95156D01*
X114512Y-95156D01*
X114450Y-95218D01*
X114450Y-95750D01*
X114981Y-95750D01*
X115043Y-95687D01*
X115043Y-95455D01*
X115043Y-96144D01*
X115043Y-95912D01*
X114981Y-95850D01*
X114450Y-95850D01*
X114450Y-96381D01*
X114512Y-96443D01*
X114843Y-96443D01*
X114935Y-96405D01*
X115005Y-96335D01*
X115043Y-96243D01*
X115043Y-96144D01*
X115043Y-98672D01*
X114560Y-98189D01*
X114509Y-98155D01*
X114450Y-98143D01*
X114350Y-98143D01*
X114350Y-96381D01*
X114350Y-95850D01*
X114350Y-95750D01*
X114350Y-95218D01*
X114287Y-95156D01*
X113956Y-95156D01*
X113864Y-95194D01*
X113794Y-95264D01*
X113756Y-95356D01*
X113756Y-95455D01*
X113756Y-95687D01*
X113818Y-95750D01*
X114350Y-95750D01*
X114350Y-95850D01*
X113818Y-95850D01*
X113756Y-95912D01*
X113756Y-96144D01*
X113756Y-96243D01*
X113794Y-96335D01*
X113864Y-96405D01*
X113956Y-96443D01*
X114287Y-96443D01*
X114350Y-96381D01*
X114350Y-98143D01*
X114114Y-98143D01*
X114114Y-96846D01*
X114110Y-96787D01*
X114110Y-96787D01*
X114077Y-96668D01*
X114051Y-96616D01*
X114051Y-96616D01*
X113976Y-96518D01*
X113931Y-96480D01*
X113931Y-96480D01*
X113824Y-96419D01*
X113768Y-96400D01*
X113768Y-96400D01*
X113646Y-96385D01*
X113587Y-96389D01*
X113587Y-96389D01*
X113468Y-96422D01*
X113416Y-96448D01*
X113416Y-96448D01*
X113318Y-96523D01*
X113280Y-96568D01*
X113280Y-96568D01*
X113219Y-96675D01*
X113200Y-96731D01*
X113200Y-96731D01*
X113185Y-96853D01*
X113189Y-96912D01*
X113222Y-97031D01*
X113248Y-97083D01*
X113248Y-97083D01*
X113323Y-97181D01*
X113368Y-97219D01*
X113368Y-97219D01*
X113475Y-97280D01*
X113531Y-97299D01*
X113531Y-97299D01*
X113653Y-97314D01*
X113712Y-97310D01*
X113712Y-97310D01*
X113831Y-97277D01*
X113883Y-97251D01*
X113883Y-97251D01*
X113981Y-97176D01*
X114019Y-97131D01*
X114019Y-97131D01*
X114080Y-97024D01*
X114099Y-96968D01*
X114099Y-96968D01*
X114114Y-96846D01*
X114114Y-98143D01*
X113014Y-98143D01*
X113014Y-98079D01*
X113010Y-98069D01*
X113035Y-98058D01*
X113105Y-97988D01*
X113143Y-97896D01*
X113143Y-97797D01*
X113143Y-97502D01*
X113143Y-97403D01*
X113111Y-97325D01*
X113143Y-97246D01*
X113143Y-97147D01*
X113143Y-96852D01*
X113143Y-96753D01*
X113105Y-96661D01*
X113043Y-96599D01*
X113043Y-96144D01*
X113043Y-95455D01*
X113043Y-95356D01*
X113005Y-95264D01*
X112935Y-95194D01*
X112843Y-95156D01*
X112512Y-95156D01*
X112450Y-95218D01*
X112450Y-95750D01*
X112981Y-95750D01*
X113043Y-95687D01*
X113043Y-95455D01*
X113043Y-96144D01*
X113043Y-95912D01*
X112981Y-95850D01*
X112450Y-95850D01*
X112450Y-96381D01*
X112512Y-96443D01*
X112843Y-96443D01*
X112935Y-96405D01*
X113005Y-96335D01*
X113043Y-96243D01*
X113043Y-96144D01*
X113043Y-96599D01*
X113035Y-96591D01*
X112943Y-96553D01*
X112612Y-96553D01*
X112550Y-96615D01*
X112550Y-96950D01*
X113081Y-96950D01*
X113143Y-96887D01*
X113143Y-96852D01*
X113143Y-97147D01*
X113143Y-97112D01*
X113081Y-97050D01*
X112550Y-97050D01*
X112550Y-97265D01*
X112550Y-97384D01*
X112550Y-97600D01*
X113081Y-97600D01*
X113143Y-97537D01*
X113143Y-97502D01*
X113143Y-97797D01*
X113143Y-97762D01*
X113081Y-97700D01*
X112550Y-97700D01*
X112550Y-97707D01*
X112450Y-97707D01*
X112450Y-97700D01*
X112450Y-97600D01*
X112450Y-97384D01*
X112450Y-97265D01*
X112450Y-97050D01*
X112450Y-96950D01*
X112450Y-96615D01*
X112387Y-96553D01*
X112350Y-96553D01*
X112350Y-96381D01*
X112350Y-95850D01*
X112350Y-95750D01*
X112350Y-95218D01*
X112287Y-95156D01*
X111956Y-95156D01*
X111864Y-95194D01*
X111794Y-95264D01*
X111756Y-95356D01*
X111756Y-95455D01*
X111756Y-95687D01*
X111818Y-95750D01*
X112350Y-95750D01*
X112350Y-95850D01*
X111818Y-95850D01*
X111756Y-95912D01*
X111756Y-96144D01*
X111756Y-96243D01*
X111794Y-96335D01*
X111864Y-96405D01*
X111956Y-96443D01*
X112287Y-96443D01*
X112350Y-96381D01*
X112350Y-96553D01*
X112056Y-96553D01*
X111964Y-96591D01*
X111894Y-96661D01*
X111856Y-96753D01*
X111856Y-96852D01*
X111856Y-96887D01*
X111918Y-96950D01*
X112450Y-96950D01*
X112450Y-97050D01*
X111918Y-97050D01*
X111856Y-97112D01*
X111856Y-97147D01*
X111856Y-97246D01*
X111888Y-97325D01*
X111856Y-97403D01*
X111856Y-97502D01*
X111856Y-97537D01*
X111918Y-97600D01*
X112450Y-97600D01*
X112450Y-97700D01*
X111918Y-97700D01*
X111856Y-97762D01*
X111856Y-97797D01*
X111856Y-97896D01*
X111894Y-97988D01*
X111964Y-98058D01*
X111989Y-98069D01*
X111985Y-98079D01*
X111985Y-98127D01*
X111985Y-98520D01*
X112003Y-98565D01*
X112037Y-98599D01*
X112082Y-98617D01*
X112130Y-98617D01*
X112917Y-98617D01*
X112962Y-98599D01*
X112996Y-98565D01*
X113014Y-98520D01*
X113014Y-98472D01*
X113014Y-98456D01*
X114385Y-98456D01*
X117966Y-102037D01*
X117946Y-102035D01*
X117887Y-102039D01*
X117887Y-102039D01*
X117768Y-102072D01*
X117716Y-102098D01*
X117716Y-102098D01*
X117618Y-102173D01*
X117580Y-102218D01*
X117580Y-102218D01*
X117519Y-102325D01*
X117500Y-102381D01*
X117500Y-102381D01*
X117485Y-102503D01*
X117489Y-102562D01*
X117522Y-102681D01*
X117548Y-102733D01*
X117548Y-102733D01*
X117623Y-102831D01*
X117668Y-102869D01*
X117668Y-102869D01*
X117775Y-102930D01*
X117831Y-102949D01*
X117831Y-102949D01*
X117953Y-102964D01*
X118012Y-102960D01*
X118012Y-102960D01*
X118131Y-102927D01*
X118183Y-102901D01*
X118183Y-102901D01*
X118281Y-102826D01*
X118319Y-102781D01*
X118319Y-102781D01*
X118380Y-102674D01*
X118399Y-102618D01*
X118399Y-102618D01*
X118414Y-102496D01*
X118413Y-102484D01*
X119022Y-103093D01*
X116131Y-103093D01*
X116131Y-103078D01*
X116112Y-103033D01*
X116078Y-102999D01*
X116034Y-102981D01*
X115986Y-102981D01*
X115513Y-102981D01*
X115469Y-102999D01*
X115435Y-103033D01*
X115416Y-103078D01*
X115416Y-103126D01*
X115416Y-103421D01*
X115435Y-103466D01*
X115469Y-103500D01*
X115513Y-103518D01*
X115561Y-103518D01*
X116034Y-103518D01*
X116078Y-103500D01*
X116112Y-103466D01*
X116131Y-103421D01*
X116131Y-103406D01*
X119100Y-103406D01*
X119100Y-103406D01*
X119159Y-103394D01*
X119210Y-103360D01*
X119250Y-103321D01*
X119578Y-103649D01*
X115383Y-103649D01*
X115383Y-103373D01*
X115383Y-103078D01*
X115364Y-103033D01*
X115330Y-102999D01*
X115286Y-102981D01*
X115238Y-102981D01*
X115182Y-102981D01*
X115182Y-99875D01*
X115182Y-99875D01*
X115170Y-99816D01*
X115170Y-99816D01*
X115159Y-99799D01*
X115136Y-99765D01*
X115136Y-99765D01*
X114860Y-99489D01*
X114809Y-99455D01*
X114750Y-99443D01*
X113389Y-99443D01*
X113389Y-98902D01*
X113352Y-98814D01*
X113285Y-98747D01*
X113197Y-98711D01*
X113102Y-98710D01*
X113014Y-98747D01*
X113014Y-98747D01*
X113014Y-98729D01*
X112996Y-98684D01*
X112962Y-98650D01*
X112917Y-98632D01*
X112869Y-98632D01*
X112082Y-98632D01*
X112037Y-98650D01*
X112003Y-98684D01*
X111985Y-98729D01*
X111985Y-98777D01*
X111985Y-99170D01*
X112003Y-99215D01*
X112037Y-99249D01*
X112082Y-99267D01*
X112130Y-99267D01*
X112917Y-99267D01*
X112962Y-99249D01*
X112996Y-99215D01*
X113014Y-99170D01*
X113014Y-99152D01*
X113102Y-99188D01*
X113197Y-99189D01*
X113285Y-99152D01*
X113352Y-99085D01*
X113388Y-98997D01*
X113389Y-98902D01*
X113389Y-99443D01*
X113014Y-99443D01*
X113014Y-99379D01*
X112996Y-99334D01*
X112962Y-99300D01*
X112917Y-99282D01*
X112869Y-99282D01*
X112082Y-99282D01*
X112037Y-99300D01*
X112003Y-99334D01*
X111985Y-99379D01*
X111985Y-99427D01*
X111985Y-99820D01*
X112003Y-99865D01*
X112037Y-99899D01*
X112082Y-99917D01*
X112130Y-99917D01*
X112917Y-99917D01*
X112962Y-99899D01*
X112996Y-99865D01*
X113014Y-99820D01*
X113014Y-99772D01*
X113014Y-99756D01*
X114685Y-99756D01*
X114869Y-99940D01*
X114869Y-102981D01*
X114765Y-102981D01*
X114721Y-102999D01*
X114687Y-103033D01*
X114668Y-103078D01*
X114668Y-103093D01*
X114521Y-103093D01*
X114521Y-102622D01*
X114503Y-102578D01*
X114469Y-102544D01*
X114424Y-102525D01*
X114376Y-102525D01*
X114068Y-102525D01*
X114068Y-100929D01*
X114068Y-100142D01*
X114050Y-100097D01*
X114016Y-100063D01*
X113972Y-100045D01*
X113924Y-100045D01*
X112428Y-100045D01*
X112383Y-100063D01*
X112349Y-100097D01*
X112331Y-100141D01*
X112331Y-100190D01*
X112331Y-100977D01*
X112349Y-101021D01*
X112383Y-101055D01*
X112427Y-101074D01*
X112475Y-101074D01*
X113971Y-101074D01*
X114016Y-101056D01*
X114050Y-101022D01*
X114068Y-100977D01*
X114068Y-100929D01*
X114068Y-102525D01*
X113786Y-102525D01*
X113741Y-102543D01*
X113707Y-102577D01*
X113689Y-102622D01*
X113689Y-102670D01*
X113689Y-103457D01*
X113707Y-103502D01*
X113741Y-103536D01*
X113786Y-103554D01*
X113834Y-103554D01*
X114424Y-103554D01*
X114469Y-103536D01*
X114503Y-103502D01*
X114521Y-103458D01*
X114521Y-103409D01*
X114521Y-103406D01*
X114668Y-103406D01*
X114668Y-103421D01*
X114687Y-103466D01*
X114721Y-103500D01*
X114765Y-103518D01*
X114813Y-103518D01*
X115286Y-103518D01*
X115330Y-103500D01*
X115364Y-103466D01*
X115383Y-103421D01*
X115383Y-103373D01*
X115383Y-103649D01*
X112722Y-103649D01*
X112731Y-103645D01*
X112801Y-103575D01*
X112823Y-103523D01*
X112836Y-103536D01*
X112880Y-103554D01*
X112928Y-103554D01*
X113519Y-103554D01*
X113563Y-103536D01*
X113597Y-103502D01*
X113616Y-103458D01*
X113616Y-103409D01*
X113616Y-102622D01*
X113597Y-102578D01*
X113563Y-102544D01*
X113519Y-102525D01*
X113471Y-102525D01*
X113427Y-102525D01*
X113438Y-102497D01*
X113439Y-102402D01*
X113402Y-102314D01*
X113335Y-102247D01*
X113247Y-102211D01*
X113152Y-102210D01*
X113064Y-102247D01*
X112997Y-102314D01*
X112961Y-102402D01*
X112960Y-102497D01*
X112972Y-102525D01*
X112880Y-102525D01*
X112836Y-102543D01*
X112823Y-102556D01*
X112801Y-102505D01*
X112731Y-102434D01*
X112639Y-102396D01*
X112540Y-102396D01*
X112406Y-102396D01*
X112344Y-102458D01*
X112344Y-102990D01*
X112352Y-102990D01*
X112352Y-103090D01*
X112344Y-103090D01*
X112344Y-103098D01*
X112244Y-103098D01*
X112244Y-103090D01*
X112236Y-103090D01*
X112236Y-102990D01*
X112244Y-102990D01*
X112244Y-102458D01*
X112181Y-102396D01*
X112048Y-102396D01*
X111949Y-102396D01*
X111857Y-102434D01*
X111787Y-102505D01*
X111750Y-102593D01*
X111750Y-93950D01*
X158849Y-93950D01*
X158849Y-97598D01*
X158843Y-97576D01*
X158843Y-96144D01*
X158843Y-95455D01*
X158843Y-95356D01*
X158805Y-95264D01*
X158735Y-95194D01*
X158643Y-95156D01*
X158312Y-95156D01*
X158250Y-95218D01*
X158250Y-95750D01*
X158781Y-95750D01*
X158843Y-95687D01*
X158843Y-95455D01*
X158843Y-96144D01*
X158843Y-95912D01*
X158781Y-95850D01*
X158250Y-95850D01*
X158250Y-96381D01*
X158312Y-96443D01*
X158643Y-96443D01*
X158735Y-96405D01*
X158805Y-96335D01*
X158843Y-96243D01*
X158843Y-96144D01*
X158843Y-97576D01*
X158827Y-97518D01*
X158801Y-97466D01*
X158801Y-97466D01*
X158726Y-97368D01*
X158681Y-97330D01*
X158681Y-97330D01*
X158574Y-97269D01*
X158518Y-97250D01*
X158518Y-97250D01*
X158396Y-97235D01*
X158337Y-97239D01*
X158337Y-97239D01*
X158218Y-97272D01*
X158166Y-97298D01*
X158166Y-97298D01*
X158150Y-97311D01*
X158150Y-96381D01*
X158150Y-95850D01*
X158150Y-95750D01*
X158150Y-95218D01*
X158087Y-95156D01*
X157756Y-95156D01*
X157664Y-95194D01*
X157594Y-95264D01*
X157556Y-95356D01*
X157556Y-95455D01*
X157556Y-95687D01*
X157618Y-95750D01*
X158150Y-95750D01*
X158150Y-95850D01*
X157618Y-95850D01*
X157556Y-95912D01*
X157556Y-96144D01*
X157556Y-96243D01*
X157594Y-96335D01*
X157664Y-96405D01*
X157756Y-96443D01*
X158087Y-96443D01*
X158150Y-96381D01*
X158150Y-97311D01*
X158068Y-97373D01*
X158030Y-97418D01*
X158030Y-97418D01*
X157969Y-97525D01*
X157950Y-97581D01*
X157950Y-97581D01*
X157935Y-97703D01*
X157939Y-97762D01*
X157972Y-97881D01*
X157998Y-97933D01*
X157998Y-97933D01*
X158073Y-98031D01*
X158118Y-98069D01*
X158118Y-98069D01*
X158225Y-98130D01*
X158281Y-98149D01*
X158281Y-98149D01*
X158403Y-98164D01*
X158462Y-98160D01*
X158462Y-98160D01*
X158581Y-98127D01*
X158633Y-98101D01*
X158633Y-98101D01*
X158731Y-98026D01*
X158769Y-97981D01*
X158769Y-97981D01*
X158830Y-97874D01*
X158849Y-97818D01*
X158849Y-97818D01*
X158849Y-97815D01*
X158849Y-103649D01*
M02*
